<?xml version="1.0" encoding="utf-8"?>
<!-- Generator: Adobe Illustrator 16.0.0, SVG Export Plug-In . SVG Version: 6.00 Build 0)  -->
<!DOCTYPE svg PUBLIC "-//W3C//DTD SVG 1.0//EN" "http://www.w3.org/TR/2001/REC-SVG-20010904/DTD/svg10.dtd">
<svg version="1.0" id="Слой_1" xmlns="http://www.w3.org/2000/svg" xmlns:xlink="http://www.w3.org/1999/xlink" x="0px" y="0px"
	 width="150.691px" height="36.082px" viewBox="0 0 199.691 36.082" enable-background="new 0 0 199.691 36.082"
	 xml:space="preserve">
<path fill="#EB6607" d="M43.004,0h5.979L37.261,36.051h-4.423l-8.356-25.528l-8.27,25.528h-4.457L0,0h6.106l7.841,24.381L21.988,0
	h5.131l8.015,24.326L43.004,0z M78.781,36.051h6.071V19.744h13.702v-5.762H84.852v-8.22h19.015V0.001H78.781V36.051z
	 M162.111,17.389c-1.359,1.617-3.103,2.731-5.188,3.326l8.725,15.336h-6.809l-8.557-14.974h-10.005v14.974h-6.072V0h18.714
	c3.561,0,6.414,0.928,8.479,2.757c2.097,1.858,3.159,4.44,3.159,7.674C164.558,13.121,163.736,15.461,162.111,17.389
	 M158.269,10.554c0-1.541-0.443-2.694-1.359-3.526c-0.928-0.84-2.29-1.266-4.052-1.266h-12.58v9.491h12.363
	c1.914,0,3.355-0.405,4.287-1.205C157.832,13.272,158.269,12.129,158.269,10.554 M180.496,30.29V19.744H194.2v-5.762h-13.704v-8.22
	h18.408V0h-24.479v36.051h25.266V30.29H180.496z M114.308,5.762h2.197v24.557h-2.197v5.762h8.33V0h-8.33V5.762z M58.173,36.082h8.33
	V30.32h-2.197V5.762h2.197V0h-8.33V36.082z"/>
</svg>
