<?xml version="1.0" encoding="utf-8"?>
<!-- Generator: Adobe Illustrator 16.0.0, SVG Export Plug-In . SVG Version: 6.00 Build 0)  -->
<!DOCTYPE svg PUBLIC "-//W3C//DTD SVG 1.0//EN" "http://www.w3.org/TR/2001/REC-SVG-20010904/DTD/svg10.dtd">
<svg version="1.0" id="Слой_1" xmlns="http://www.w3.org/2000/svg" xmlns:xlink="http://www.w3.org/1999/xlink" x="0px" y="0px"
	 width="20.624px" height="22.625px" viewBox="0 0 44.269 32.533" enable-background="new 0 0 44.269 32.533" xml:space="preserve">
<path fill="none" stroke="#BFBFBF" stroke-width="2" stroke-miterlimit="10" d="M4.066,9.836V5.523C4.066,3.034,6.102,1,8.588,1
	h30.157c2.486,0,4.523,2.034,4.523,4.523v21.488c0,2.486-2.037,4.521-4.523,4.521H8.588c-2.486,0-4.522-2.035-4.522-4.521v-4.313"/>
<path fill="none" stroke="#BFBFBF" stroke-width="2" stroke-miterlimit="10" d="M19.943,20.438c0,1.244-1.02,2.262-2.262,2.262
	H3.261C2.019,22.699,1,21.682,1,20.438v-8.339c0-1.244,1.019-2.263,2.261-2.263h14.419c1.243,0,2.262,1.019,2.262,2.263V20.438z"/>
<circle fill="#BFBFBF" cx="11.531" cy="16.268" r="2.262"/>
</svg>
