<?xml version="1.0" encoding="utf-8"?>
<!-- Generator: Adobe Illustrator 16.0.0, SVG Export Plug-In . SVG Version: 6.00 Build 0)  -->
<!DOCTYPE svg PUBLIC "-//W3C//DTD SVG 1.0//EN" "http://www.w3.org/TR/2001/REC-SVG-20010904/DTD/svg10.dtd">
<svg version="1.0" id="Слой_1" xmlns="http://www.w3.org/2000/svg" xmlns:xlink="http://www.w3.org/1999/xlink" x="0px" y="0px"
	 width="37.562px" height="37.837px" viewBox="0 0 69.562 39.837" enable-background="new 0 0 69.562 39.837" xml:space="preserve">
<path fill="none" stroke="#FFFFFF" stroke-width="3" stroke-linecap="round" stroke-linejoin="round" stroke-miterlimit="10" d="
	M12.76,27.039l8.444,8.447c4.239,4.248,10.922,4.45,14.921,0.454c1.406-1.406,2.294-3.144,2.666-4.993l-7.975-5.677l-1.973,1.974
	c-1.292,1.292-3.408,1.292-4.701-0.001l-5.789-5.795l-5.787-5.794c-1.295-1.292-1.292-3.409,0-4.701l1.975-1.973L8.868,1
	C7.021,1.375,5.28,2.262,3.875,3.666c-3.999,3.998-3.802,10.678,0.439,14.921L12.76,27.039"/>
<polyline fill="none" stroke="#FFFFFF" stroke-width="3" stroke-linecap="round" stroke-linejoin="round" stroke-miterlimit="10" points="
	68.562,38.836 59.229,29.503 49.896,38.836 "/>
</svg>
