<?xml version="1.0" encoding="utf-8"?>
<!-- Generator: Adobe Illustrator 16.0.0, SVG Export Plug-In . SVG Version: 6.00 Build 0)  -->
<!DOCTYPE svg PUBLIC "-//W3C//DTD SVG 1.0//EN" "http://www.w3.org/TR/2001/REC-SVG-20010904/DTD/svg10.dtd">
<svg version="1.0" id="icons" xmlns="http://www.w3.org/2000/svg" xmlns:xlink="http://www.w3.org/1999/xlink" x="0px" y="0px"
	 width="18.25px" height="22.428px" viewBox="0 0 30.25 28.428" enable-background="new 0 0 30.25 28.428" xml:space="preserve">
<path fill="#BEBEBE" d="M21.871,0l-1.809,0.855l3.697,7.822H6.11l3.697-7.822L7.999,0L3.897,8.678H0l5,19.75h20.25l5-19.75h-4.277
	L21.871,0z M12.125,17.49v-6.813h6v6.813H12.125z M18.125,19.49v6.938h-6V19.49H18.125z M10.125,10.678v6.813H4.294l-1.725-6.813
	H10.125z M4.8,19.49h5.324v6.938H6.556L4.8,19.49z M23.693,26.428h-3.569V19.49h5.325L23.693,26.428z M25.956,17.49h-5.832v-6.813
	h7.556L25.956,17.49z"/>
</svg>
