<?xml version="1.0" encoding="utf-8"?>
<!-- Generator: Adobe Illustrator 16.0.0, SVG Export Plug-In . SVG Version: 6.00 Build 0)  -->
<!DOCTYPE svg PUBLIC "-//W3C//DTD SVG 1.0//EN" "http://www.w3.org/TR/2001/REC-SVG-20010904/DTD/svg10.dtd">
<svg version="1.0" id="Слой_1" xmlns="http://www.w3.org/2000/svg" xmlns:xlink="http://www.w3.org/1999/xlink" x="0px" y="0px"
	 width="67px" height="67.001px" viewBox="0 0 67 67.001" enable-background="new 0 0 67 67.001" xml:space="preserve">
<circle fill="#EBEBEB" cx="33.5" cy="33.5" r="33.5"/>
<g>
	<path fill="none" stroke="#676767" stroke-width="2" stroke-miterlimit="10" d="M48.595,38.752v7.474
		c0,0.938-0.768,1.707-1.707,1.707H20.228c-0.939,0-1.707-0.768-1.707-1.707V20.774c0-0.939,0.768-1.707,1.707-1.707h26.661
		c0.938,0,1.707,0.768,1.707,1.707v7.756"/>
	<circle fill="none" stroke="#676767" stroke-width="2" stroke-miterlimit="10" cx="42.45" cy="33.606" r="1.806"/>
	<path fill="none" stroke="#676767" stroke-width="2" stroke-miterlimit="10" d="M42.45,38.684c-2.803,0-5.077-2.273-5.077-5.078
		c0-2.804,2.274-5.077,5.077-5.077h7.176c0.469,0,0.854,0.384,0.854,0.853v8.448c0,0.469-0.385,0.853-0.854,0.853H42.45z"/>
</g>
</svg>
