<?xml version="1.0" encoding="utf-8"?>
<!-- Generator: Adobe Illustrator 16.0.0, SVG Export Plug-In . SVG Version: 6.00 Build 0)  -->
<!DOCTYPE svg PUBLIC "-//W3C//DTD SVG 1.0//EN" "http://www.w3.org/TR/2001/REC-SVG-20010904/DTD/svg10.dtd">
<svg version="1.0" id="Слой_1" xmlns="http://www.w3.org/2000/svg" xmlns:xlink="http://www.w3.org/1999/xlink" x="0px" y="0px"
	 width="314.451px" height="72.306px" viewBox="0 0 314.451 72.306" enable-background="new 0 0 314.451 72.306"
	 xml:space="preserve">
<g>
	<path fill="none" stroke="#FFFFFF" stroke-width="3" stroke-miterlimit="10" d="M160.582,30.229H135.97
		c-1.96,0-3.549-1.591-3.549-3.551V5.051c0-1.962,1.589-3.551,3.549-3.551h32.666c1.96,0,3.55,1.589,3.55,3.551v18.812"/>
	<path fill="none" stroke="#FFFFFF" stroke-width="3" stroke-linecap="round" stroke-miterlimit="10" d="M149.414,30.229"/>
	<path fill="none" stroke="#FFFFFF" stroke-width="3" stroke-linecap="round" stroke-miterlimit="10" d="M155.18,30.229"/>
	<path fill="none" stroke="#FFFFFF" stroke-width="3" stroke-miterlimit="10" d="M182.03,34.381c0,1.961-1.59,3.552-3.55,3.552
		h-14.398c-1.962,0-3.552-1.591-3.552-3.552v-3.912v-2.555c0-1.96,1.59-3.55,3.552-3.55h8.104h6.294c1.96,0,3.55,1.59,3.55,3.55
		V34.381z"/>
	<circle fill="#FFFFFF" cx="165.639" cy="31.148" r="1.695"/>
	<circle fill="#FFFFFF" cx="136.917" cy="15.864" r="1.694"/>
	<line fill="none" stroke="#FFFFFF" stroke-width="3" stroke-miterlimit="10" x1="141.621" y1="1.5" x2="141.621" y2="29.733"/>
</g>
<g>
	<path fill="#FFFFFF" d="M9.72,62.437c0-0.902-0.115-1.715-0.345-2.437c-0.229-0.723-0.556-1.335-0.979-1.839
		s-0.935-0.89-1.536-1.158c-0.6-0.268-1.269-0.402-2.004-0.402c-0.714,0-1.37,0.135-1.967,0.402
		c-0.598,0.269-1.109,0.654-1.536,1.158S0.595,59.277,0.357,60C0.119,60.722,0,61.534,0,62.437V63.2
		c0,0.907,0.119,1.719,0.357,2.436s0.573,1.327,1.004,1.83c0.432,0.504,0.946,0.889,1.544,1.154s1.253,0.398,1.967,0.398
		c0.736,0,1.403-0.133,2-0.398S7.98,67.97,8.4,67.466c0.42-0.503,0.746-1.113,0.975-1.83c0.23-0.717,0.345-1.528,0.345-2.436V62.437
		z M8.135,63.2c0,0.725-0.072,1.363-0.216,1.917s-0.355,1.02-0.635,1.398c-0.279,0.38-0.621,0.666-1.025,0.859
		c-0.404,0.194-0.866,0.29-1.386,0.29c-0.493,0-0.941-0.096-1.345-0.29c-0.404-0.193-0.75-0.479-1.038-0.859
		c-0.288-0.379-0.511-0.845-0.668-1.398S1.585,63.925,1.585,63.2v-0.781c0-0.719,0.078-1.355,0.232-1.908
		c0.155-0.554,0.375-1.019,0.66-1.395c0.285-0.377,0.63-0.662,1.034-0.855s0.852-0.291,1.345-0.291c0.515,0,0.975,0.098,1.382,0.291
		s0.751,0.479,1.034,0.855c0.282,0.376,0.497,0.841,0.644,1.395c0.146,0.553,0.22,1.189,0.22,1.908V63.2z"/>
	<path fill="#FFFFFF" d="M19.216,59.871h-7.213v8.981h1.544v-7.711h4.134v7.711h1.536V59.871z"/>
	<path fill="#FFFFFF" d="M22.977,59.871l-0.166,3.843c-0.033,0.67-0.079,1.243-0.137,1.719c-0.059,0.477-0.146,0.865-0.262,1.166
		c-0.116,0.302-0.27,0.523-0.461,0.664c-0.19,0.142-0.436,0.212-0.734,0.212l-0.332,0.009l-0.033,1.369H21.3
		c0.57,0,1.043-0.107,1.419-0.324c0.376-0.215,0.678-0.537,0.905-0.967c0.227-0.429,0.395-0.964,0.502-1.605
		c0.108-0.643,0.182-1.39,0.22-2.242l0.108-2.572H27.5v7.711h1.544v-8.981H22.977z"/>
	<path fill="#FFFFFF" d="M38.665,68.853V68.72c-0.105-0.243-0.184-0.533-0.236-0.867c-0.053-0.335-0.079-0.654-0.079-0.959v-4.176
		c0-0.503-0.083-0.943-0.249-1.319s-0.396-0.69-0.689-0.942s-0.646-0.439-1.058-0.564c-0.413-0.124-0.862-0.187-1.349-0.187
		c-0.542,0-1.034,0.079-1.473,0.236c-0.44,0.158-0.815,0.362-1.125,0.614c-0.31,0.252-0.549,0.535-0.718,0.852
		c-0.168,0.314-0.253,0.633-0.253,0.954h1.544c0-0.188,0.047-0.368,0.141-0.54c0.094-0.171,0.226-0.322,0.395-0.452
		c0.168-0.13,0.372-0.233,0.61-0.312c0.238-0.077,0.501-0.115,0.789-0.115c0.625,0,1.099,0.158,1.419,0.477s0.481,0.746,0.481,1.283
		v0.705h-1.527c-0.614,0-1.17,0.063-1.668,0.191c-0.498,0.127-0.923,0.314-1.274,0.564c-0.351,0.248-0.621,0.557-0.809,0.925
		s-0.282,0.793-0.282,1.274c0,0.371,0.072,0.718,0.216,1.042c0.144,0.323,0.347,0.604,0.61,0.843
		c0.263,0.237,0.581,0.426,0.955,0.564c0.373,0.138,0.79,0.207,1.249,0.207c0.277,0,0.54-0.029,0.789-0.087s0.48-0.139,0.693-0.241
		c0.213-0.102,0.41-0.221,0.59-0.356c0.18-0.136,0.341-0.278,0.485-0.428c0.022,0.183,0.05,0.358,0.083,0.527
		s0.077,0.309,0.133,0.419H38.665z M33.763,67.562c-0.213-0.08-0.393-0.188-0.54-0.323s-0.256-0.298-0.328-0.485
		c-0.072-0.188-0.108-0.391-0.108-0.606c0-0.554,0.238-0.967,0.714-1.241c0.476-0.273,1.154-0.41,2.034-0.41h1.278v1.842
		c-0.083,0.172-0.198,0.338-0.344,0.498c-0.147,0.161-0.32,0.304-0.519,0.428c-0.199,0.125-0.42,0.226-0.664,0.303
		c-0.244,0.078-0.503,0.117-0.78,0.117C34.224,67.683,33.977,67.642,33.763,67.562z"/>
	<path fill="#FFFFFF" d="M47.298,59.871h-7.504v1.245h2.955v7.736h1.536v-7.736h3.013V59.871z"/>
	<path fill="#FFFFFF" d="M55.814,68.853V68.72c-0.105-0.243-0.184-0.533-0.236-0.867c-0.053-0.335-0.079-0.654-0.079-0.959v-4.176
		c0-0.503-0.083-0.943-0.249-1.319s-0.396-0.69-0.689-0.942s-0.646-0.439-1.058-0.564c-0.413-0.124-0.862-0.187-1.349-0.187
		c-0.542,0-1.034,0.079-1.474,0.236c-0.44,0.158-0.815,0.362-1.125,0.614c-0.31,0.252-0.549,0.535-0.718,0.852
		c-0.168,0.314-0.253,0.633-0.253,0.954h1.544c0-0.188,0.047-0.368,0.141-0.54c0.094-0.171,0.226-0.322,0.394-0.452
		c0.169-0.13,0.373-0.233,0.61-0.312c0.238-0.077,0.5-0.115,0.789-0.115c0.625,0,1.099,0.158,1.419,0.477s0.481,0.746,0.481,1.283
		v0.705h-1.527c-0.614,0-1.17,0.063-1.668,0.191c-0.498,0.127-0.923,0.314-1.274,0.564c-0.351,0.248-0.621,0.557-0.809,0.925
		s-0.282,0.793-0.282,1.274c0,0.371,0.072,0.718,0.216,1.042c0.144,0.323,0.347,0.604,0.61,0.843
		c0.263,0.237,0.581,0.426,0.955,0.564c0.373,0.138,0.79,0.207,1.249,0.207c0.277,0,0.54-0.029,0.789-0.087s0.48-0.139,0.693-0.241
		c0.213-0.102,0.41-0.221,0.59-0.356c0.18-0.136,0.341-0.278,0.485-0.428c0.022,0.183,0.05,0.358,0.083,0.527
		s0.077,0.309,0.133,0.419H55.814z M50.913,67.562c-0.213-0.08-0.393-0.188-0.54-0.323s-0.256-0.298-0.328-0.485
		c-0.072-0.188-0.108-0.391-0.108-0.606c0-0.554,0.238-0.967,0.714-1.241c0.476-0.273,1.154-0.41,2.034-0.41h1.278v1.842
		c-0.083,0.172-0.198,0.338-0.344,0.498c-0.147,0.161-0.32,0.304-0.519,0.428c-0.199,0.125-0.42,0.226-0.664,0.303
		c-0.244,0.078-0.503,0.117-0.78,0.117C51.374,67.683,51.126,67.642,50.913,67.562z"/>
	<path fill="#FFFFFF" d="M64.522,67.483c-0.315-0.188-0.567-0.435-0.755-0.739c-0.188-0.304-0.321-0.649-0.398-1.033
		c-0.078-0.385-0.116-0.776-0.116-1.175v-0.349c0-0.388,0.039-0.773,0.116-1.158c0.077-0.384,0.211-0.73,0.402-1.037
		c0.191-0.308,0.443-0.555,0.755-0.743c0.313-0.188,0.707-0.282,1.183-0.282c0.31,0,0.591,0.053,0.843,0.157
		c0.251,0.105,0.469,0.248,0.651,0.428s0.328,0.391,0.436,0.631c0.108,0.241,0.173,0.5,0.195,0.776h1.453
		c-0.022-0.459-0.122-0.888-0.299-1.286s-0.422-0.743-0.735-1.034c-0.313-0.29-0.684-0.519-1.112-0.685s-0.906-0.249-1.432-0.249
		c-0.675,0-1.262,0.12-1.76,0.361c-0.498,0.24-0.913,0.565-1.245,0.976c-0.332,0.409-0.58,0.885-0.743,1.428
		c-0.163,0.542-0.245,1.115-0.245,1.718v0.349c0,0.604,0.082,1.176,0.245,1.719c0.163,0.542,0.411,1.018,0.743,1.428
		c0.332,0.409,0.749,0.734,1.249,0.975c0.501,0.241,1.089,0.361,1.764,0.361c0.476,0,0.925-0.082,1.349-0.245
		c0.423-0.163,0.795-0.382,1.116-0.655c0.321-0.273,0.58-0.592,0.776-0.955c0.197-0.362,0.306-0.742,0.328-1.141h-1.453
		c-0.022,0.248-0.093,0.479-0.212,0.692c-0.119,0.214-0.273,0.397-0.465,0.552c-0.191,0.155-0.411,0.277-0.66,0.365
		c-0.249,0.089-0.509,0.133-0.78,0.133C65.236,67.765,64.837,67.671,64.522,67.483z"/>
	<path fill="#FFFFFF" d="M82.56,59.871h-1.536v3.894h-4.125v-3.894h-1.544v8.981h1.544v-3.835h4.125v3.835h1.536V59.871z"/>
	<path fill="#FFFFFF" d="M84.619,64.462c0,0.652,0.095,1.258,0.285,1.813c0.191,0.556,0.465,1.037,0.818,1.444
		c0.354,0.406,0.783,0.725,1.287,0.954c0.503,0.229,1.07,0.345,1.701,0.345s1.198-0.115,1.701-0.345
		c0.504-0.229,0.934-0.548,1.287-0.954c0.354-0.407,0.625-0.889,0.813-1.444s0.282-1.161,0.282-1.813v-0.184
		c0-0.652-0.094-1.257-0.282-1.813c-0.188-0.556-0.46-1.038-0.813-1.448c-0.354-0.409-0.785-0.73-1.291-0.963
		s-1.078-0.349-1.714-0.349c-0.626,0-1.19,0.116-1.693,0.349s-0.931,0.554-1.282,0.963c-0.352,0.41-0.623,0.893-0.814,1.448
		c-0.19,0.557-0.285,1.161-0.285,1.813V64.462z M86.162,64.278c0-0.442,0.053-0.864,0.158-1.266c0.105-0.4,0.264-0.752,0.477-1.054
		c0.214-0.302,0.479-0.542,0.793-0.723c0.316-0.18,0.684-0.27,1.104-0.27c0.427,0,0.8,0.09,1.12,0.27
		c0.321,0.181,0.588,0.421,0.801,0.723s0.375,0.653,0.482,1.054c0.107,0.401,0.162,0.823,0.162,1.266v0.184
		c0,0.447-0.055,0.871-0.162,1.27s-0.268,0.748-0.478,1.051c-0.21,0.301-0.476,0.54-0.797,0.717
		c-0.321,0.178-0.692,0.266-1.112,0.266c-0.426,0-0.799-0.088-1.117-0.266c-0.317-0.177-0.583-0.416-0.797-0.717
		c-0.213-0.303-0.371-0.652-0.477-1.051s-0.158-0.822-0.158-1.27V64.278z"/>
	<path fill="#FFFFFF" d="M96.853,59.871h-1.992v8.981h1.536v-6.674l2.964,6.674h1.063l2.904-6.533v6.533h1.536v-8.981h-1.917
		l-3.055,6.948L96.853,59.871z"/>
	<path fill="#FFFFFF" d="M112.259,68.874c0.354-0.098,0.668-0.228,0.943-0.391c0.273-0.163,0.512-0.349,0.717-0.557
		c0.205-0.207,0.379-0.422,0.523-0.643l-0.938-0.73c-0.283,0.365-0.611,0.658-0.988,0.879c-0.377,0.222-0.836,0.332-1.378,0.332
		c-0.409,0-0.776-0.077-1.101-0.232c-0.322-0.154-0.6-0.365-0.83-0.631c-0.229-0.266-0.406-0.578-0.531-0.938
		c-0.123-0.359-0.191-0.747-0.203-1.162h6.085v-0.689c0-0.631-0.071-1.214-0.216-1.751c-0.145-0.536-0.367-1.001-0.668-1.395
		c-0.302-0.393-0.686-0.701-1.15-0.926c-0.465-0.224-1.018-0.336-1.66-0.336c-0.509,0-0.998,0.104-1.469,0.312
		c-0.471,0.207-0.889,0.508-1.254,0.9s-0.656,0.877-0.875,1.453c-0.219,0.575-0.328,1.229-0.328,1.959v0.348
		c0,0.631,0.097,1.213,0.291,1.744c0.193,0.531,0.47,0.988,0.83,1.373c0.359,0.385,0.793,0.686,1.299,0.9
		c0.506,0.217,1.072,0.324,1.697,0.324C111.504,69.019,111.906,68.97,112.259,68.874z M111.853,61.183
		c0.266,0.145,0.482,0.332,0.651,0.564s0.294,0.495,0.374,0.789c0.08,0.293,0.129,0.589,0.145,0.888v0.116h-4.498
		c0.049-0.415,0.143-0.783,0.277-1.104c0.136-0.321,0.307-0.59,0.511-0.806s0.437-0.38,0.697-0.494
		c0.261-0.113,0.545-0.17,0.854-0.17C111.257,60.967,111.587,61.039,111.853,61.183z"/>
	<path fill="#FFFFFF" d="M123.922,64.287c0-0.687-0.076-1.31-0.228-1.872c-0.152-0.562-0.379-1.043-0.678-1.444
		s-0.665-0.712-1.1-0.934c-0.434-0.222-0.934-0.332-1.498-0.332c-0.57,0-1.07,0.1-1.502,0.299s-0.801,0.487-1.104,0.863
		l-0.075-0.996h-1.402v12.435h1.535v-4.324c0.305,0.337,0.668,0.595,1.092,0.771s0.918,0.266,1.482,0.266
		c0.553,0,1.045-0.113,1.477-0.34c0.432-0.228,0.796-0.544,1.092-0.951c0.297-0.406,0.521-0.888,0.677-1.444
		c0.155-0.556,0.232-1.163,0.232-1.821V64.287z M122.386,64.462c0,0.447-0.047,0.873-0.141,1.273
		c-0.094,0.401-0.24,0.752-0.439,1.051s-0.45,0.536-0.752,0.713c-0.301,0.178-0.66,0.266-1.074,0.266
		c-0.266,0-0.507-0.029-0.723-0.091c-0.216-0.061-0.41-0.146-0.581-0.253c-0.171-0.108-0.323-0.238-0.456-0.391
		s-0.25-0.316-0.35-0.494v-4.291c0.1-0.177,0.217-0.342,0.35-0.494s0.285-0.283,0.456-0.395c0.171-0.11,0.364-0.195,0.577-0.257
		c0.213-0.061,0.449-0.091,0.709-0.091c0.421,0,0.783,0.087,1.088,0.261c0.305,0.175,0.557,0.411,0.756,0.71
		s0.346,0.646,0.439,1.042s0.141,0.817,0.141,1.266V64.462z"/>
	<path fill="#FFFFFF" d="M133.029,68.853V68.72c-0.105-0.243-0.185-0.533-0.237-0.867c-0.052-0.335-0.079-0.654-0.079-0.959v-4.176
		c0-0.503-0.082-0.943-0.248-1.319s-0.396-0.69-0.689-0.942s-0.646-0.439-1.059-0.564c-0.412-0.124-0.861-0.187-1.349-0.187
		c-0.542,0-1.034,0.079-1.474,0.236c-0.439,0.158-0.814,0.362-1.125,0.614c-0.31,0.252-0.549,0.535-0.718,0.852
		c-0.169,0.314-0.253,0.633-0.253,0.954h1.544c0-0.188,0.047-0.368,0.142-0.54c0.094-0.171,0.225-0.322,0.395-0.452
		c0.168-0.13,0.371-0.233,0.609-0.312c0.238-0.077,0.5-0.115,0.789-0.115c0.625,0,1.098,0.158,1.419,0.477s0.481,0.746,0.481,1.283
		v0.705h-1.527c-0.614,0-1.17,0.063-1.668,0.191c-0.498,0.127-0.924,0.314-1.275,0.564c-0.351,0.248-0.621,0.557-0.809,0.925
		c-0.188,0.368-0.282,0.793-0.282,1.274c0,0.371,0.071,0.718,0.216,1.042c0.145,0.323,0.348,0.604,0.609,0.843
		c0.264,0.237,0.582,0.426,0.955,0.564c0.373,0.138,0.79,0.207,1.25,0.207c0.275,0,0.539-0.029,0.788-0.087s0.479-0.139,0.692-0.241
		c0.214-0.102,0.41-0.221,0.59-0.356s0.342-0.278,0.486-0.428c0.021,0.183,0.049,0.358,0.082,0.527s0.078,0.309,0.133,0.419H133.029
		z M128.126,67.562c-0.213-0.08-0.393-0.188-0.539-0.323s-0.256-0.298-0.328-0.485c-0.072-0.188-0.107-0.391-0.107-0.606
		c0-0.554,0.237-0.967,0.713-1.241c0.477-0.273,1.154-0.41,2.034-0.41h1.278v1.842c-0.083,0.172-0.197,0.338-0.344,0.498
		c-0.147,0.161-0.32,0.304-0.52,0.428c-0.199,0.125-0.42,0.226-0.664,0.303c-0.244,0.078-0.504,0.117-0.78,0.117
		C128.587,67.683,128.339,67.642,128.126,67.562z"/>
	<path fill="#FFFFFF" d="M141.462,59.871h-1.992v8.981h1.535v-6.674l2.963,6.674h1.063l2.906-6.533v6.533h1.535v-8.981h-1.918
		l-3.055,6.948L141.462,59.871z"/>
	<path fill="#FFFFFF" d="M151.531,64.462c0,0.652,0.096,1.258,0.287,1.813c0.189,0.556,0.463,1.037,0.816,1.444
		c0.354,0.406,0.783,0.725,1.287,0.954s1.07,0.345,1.701,0.345s1.199-0.115,1.702-0.345s0.933-0.548,1.286-0.954
		c0.354-0.407,0.625-0.889,0.814-1.444c0.188-0.556,0.281-1.161,0.281-1.813v-0.184c0-0.652-0.094-1.257-0.281-1.813
		c-0.189-0.556-0.46-1.038-0.814-1.448c-0.354-0.409-0.783-0.73-1.291-0.963c-0.506-0.232-1.077-0.349-1.713-0.349
		c-0.626,0-1.19,0.116-1.693,0.349c-0.504,0.232-0.932,0.554-1.283,0.963c-0.352,0.41-0.623,0.893-0.813,1.448
		c-0.191,0.557-0.287,1.161-0.287,1.813V64.462z M153.075,64.278c0-0.442,0.052-0.864,0.157-1.266
		c0.105-0.4,0.265-0.752,0.479-1.054c0.213-0.302,0.477-0.542,0.792-0.723c0.315-0.18,0.683-0.27,1.104-0.27
		c0.426,0,0.799,0.09,1.12,0.27c0.321,0.181,0.588,0.421,0.802,0.723c0.213,0.302,0.373,0.653,0.48,1.054
		c0.107,0.401,0.162,0.823,0.162,1.266v0.184c0,0.447-0.055,0.871-0.162,1.27s-0.268,0.748-0.477,1.051
		c-0.211,0.301-0.477,0.54-0.797,0.717c-0.322,0.178-0.692,0.266-1.113,0.266c-0.426,0-0.798-0.088-1.115-0.266
		c-0.318-0.177-0.584-0.416-0.797-0.717c-0.214-0.303-0.373-0.652-0.479-1.051s-0.157-0.822-0.157-1.27V64.278z"/>
	<path fill="#FFFFFF" d="M163.886,60.78c-0.495,0.263-0.922,0.602-1.282,1.017c0.083-0.521,0.218-0.963,0.407-1.328
		c0.188-0.365,0.414-0.669,0.68-0.913c0.266-0.243,0.566-0.438,0.9-0.581c0.336-0.144,0.691-0.257,1.067-0.341
		c0.382-0.082,0.754-0.167,1.116-0.252c0.363-0.086,0.684-0.218,0.963-0.395c0.279-0.178,0.504-0.424,0.672-0.739
		c0.17-0.315,0.254-0.744,0.254-1.286h-1.262c0,0.215-0.047,0.396-0.141,0.543c-0.095,0.146-0.232,0.27-0.412,0.369
		s-0.396,0.184-0.65,0.25c-0.256,0.066-0.543,0.127-0.863,0.182c-0.604,0.117-1.154,0.33-1.652,0.64s-0.926,0.73-1.283,1.262
		c-0.355,0.531-0.633,1.179-0.83,1.942c-0.195,0.764-0.294,1.654-0.294,2.673v0.573v0.058v0.19c0,0.626,0.091,1.205,0.274,1.739
		c0.182,0.534,0.446,0.996,0.793,1.387c0.346,0.39,0.766,0.696,1.261,0.917s1.059,0.332,1.689,0.332s1.194-0.111,1.688-0.332
		c0.496-0.221,0.916-0.527,1.262-0.917c0.347-0.391,0.609-0.853,0.789-1.387s0.27-1.113,0.27-1.739v-0.19
		c0-0.581-0.084-1.119-0.252-1.614c-0.17-0.495-0.414-0.926-0.735-1.291s-0.712-0.65-1.171-0.855
		c-0.459-0.204-0.982-0.307-1.568-0.307C164.945,60.386,164.382,60.517,163.886,60.78z M166.384,61.876
		c0.313,0.152,0.572,0.356,0.777,0.614c0.204,0.257,0.356,0.556,0.456,0.896s0.149,0.696,0.149,1.066v0.19
		c0,0.421-0.05,0.821-0.149,1.2s-0.251,0.711-0.452,0.996c-0.203,0.284-0.459,0.512-0.771,0.681
		c-0.313,0.169-0.68,0.253-1.101,0.253c-0.427,0-0.794-0.084-1.104-0.253c-0.31-0.169-0.566-0.396-0.771-0.681
		c-0.205-0.285-0.355-0.617-0.453-0.996c-0.096-0.379-0.145-0.779-0.145-1.2v-0.19c0-0.37,0.049-0.726,0.145-1.066
		c0.098-0.341,0.247-0.64,0.449-0.896c0.201-0.258,0.457-0.462,0.768-0.614s0.676-0.229,1.096-0.229
		C165.703,61.647,166.072,61.724,166.384,61.876z"/>
	<path fill="#FFFFFF" d="M172.556,66.429v-6.558h-1.535v8.981h1.535l4.143-6.549v6.549h1.535v-8.981h-1.535L172.556,66.429z"/>
	<path fill="#FFFFFF" d="M181.995,59.871l-0.166,3.843c-0.033,0.67-0.079,1.243-0.138,1.719c-0.058,0.477-0.145,0.865-0.261,1.166
		c-0.116,0.302-0.271,0.523-0.46,0.664c-0.191,0.142-0.437,0.212-0.735,0.212l-0.332,0.009l-0.033,1.369h0.448
		c0.57,0,1.043-0.107,1.42-0.324c0.375-0.215,0.678-0.537,0.904-0.967c0.227-0.429,0.395-0.964,0.502-1.605
		c0.107-0.643,0.182-1.39,0.221-2.242l0.107-2.572h3.047v7.711h1.543v-8.981H181.995z"/>
	<path fill="#FFFFFF" d="M192.205,59.871h-1.535v8.981h3.818c0.547,0,1.029-0.077,1.447-0.232c0.418-0.154,0.769-0.365,1.051-0.631
		s0.495-0.58,0.639-0.942c0.145-0.362,0.217-0.751,0.217-1.166c0-0.421-0.072-0.81-0.217-1.166
		c-0.144-0.357-0.356-0.664-0.639-0.922c-0.282-0.257-0.633-0.459-1.051-0.605s-0.9-0.22-1.447-0.22h-2.283V59.871z M194.488,64.221
		c0.332,0,0.613,0.052,0.846,0.153c0.232,0.103,0.42,0.236,0.561,0.402s0.244,0.352,0.307,0.557
		c0.064,0.205,0.096,0.406,0.096,0.605c0,0.211-0.031,0.416-0.096,0.615c-0.063,0.199-0.166,0.376-0.307,0.531
		c-0.141,0.154-0.328,0.279-0.561,0.373s-0.514,0.141-0.846,0.141h-2.283v-3.378H194.488z"/>
	<path fill="#FFFFFF" d="M207.096,59.871h-1.536v3.894h-4.125v-3.894h-1.544v8.981h1.544v-3.835h4.125v3.835h1.536V59.871z"/>
	<path fill="#FFFFFF" d="M209.155,64.462c0,0.652,0.095,1.258,0.286,1.813s0.463,1.037,0.818,1.444
		c0.354,0.406,0.783,0.725,1.286,0.954s1.071,0.345,1.702,0.345s1.197-0.115,1.701-0.345s0.932-0.548,1.287-0.954
		c0.354-0.407,0.625-0.889,0.813-1.444c0.188-0.556,0.283-1.161,0.283-1.813v-0.184c0-0.652-0.095-1.257-0.283-1.813
		c-0.188-0.556-0.459-1.038-0.813-1.448c-0.355-0.409-0.785-0.73-1.291-0.963s-1.078-0.349-1.715-0.349
		c-0.625,0-1.189,0.116-1.693,0.349s-0.931,0.554-1.281,0.963c-0.352,0.41-0.623,0.893-0.814,1.448
		c-0.191,0.557-0.286,1.161-0.286,1.813V64.462z M210.699,64.278c0-0.442,0.053-0.864,0.158-1.266
		c0.104-0.4,0.264-0.752,0.477-1.054s0.478-0.542,0.793-0.723c0.315-0.18,0.684-0.27,1.104-0.27c0.426,0,0.801,0.09,1.121,0.27
		c0.32,0.181,0.588,0.421,0.801,0.723s0.373,0.653,0.481,1.054c0.108,0.401,0.162,0.823,0.162,1.266v0.184
		c0,0.447-0.054,0.871-0.162,1.27s-0.267,0.748-0.478,1.051c-0.21,0.301-0.476,0.54-0.797,0.717
		c-0.32,0.178-0.691,0.266-1.111,0.266c-0.427,0-0.799-0.088-1.117-0.266c-0.318-0.177-0.584-0.416-0.797-0.717
		c-0.213-0.303-0.372-0.652-0.477-1.051c-0.105-0.398-0.158-0.822-0.158-1.27V64.278z"/>
	<path fill="#FFFFFF" d="M225.059,59.871h-5.687v8.981h1.545v-7.711h4.142V59.871z"/>
	<path fill="#FFFFFF" d="M225.814,64.462c0,0.652,0.096,1.258,0.287,1.813c0.19,0.556,0.463,1.037,0.817,1.444
		c0.354,0.406,0.782,0.725,1.286,0.954s1.071,0.345,1.702,0.345s1.198-0.115,1.702-0.345c0.503-0.229,0.932-0.548,1.286-0.954
		c0.354-0.407,0.626-0.889,0.813-1.444s0.282-1.161,0.282-1.813v-0.184c0-0.652-0.095-1.257-0.282-1.813
		c-0.188-0.556-0.459-1.038-0.813-1.448c-0.354-0.409-0.784-0.73-1.291-0.963s-1.077-0.349-1.714-0.349
		c-0.625,0-1.189,0.116-1.693,0.349s-0.932,0.554-1.283,0.963c-0.352,0.41-0.622,0.893-0.813,1.448
		c-0.191,0.557-0.287,1.161-0.287,1.813V64.462z M227.359,64.278c0-0.442,0.053-0.864,0.157-1.266
		c0.104-0.4,0.265-0.752,0.478-1.054s0.477-0.542,0.793-0.723c0.314-0.18,0.684-0.27,1.104-0.27c0.426,0,0.799,0.09,1.121,0.27
		c0.32,0.181,0.588,0.421,0.801,0.723s0.373,0.653,0.48,1.054c0.109,0.401,0.162,0.823,0.162,1.266v0.184
		c0,0.447-0.053,0.871-0.162,1.27c-0.107,0.398-0.266,0.748-0.477,1.051c-0.211,0.301-0.477,0.54-0.797,0.717
		c-0.32,0.178-0.691,0.266-1.112,0.266c-0.427,0-0.798-0.088-1.116-0.266c-0.318-0.177-0.584-0.416-0.797-0.717
		c-0.213-0.303-0.373-0.652-0.478-1.051s-0.157-0.822-0.157-1.27V64.278z"/>
	<path fill="#FFFFFF" d="M246.798,59.871h-7.504v1.245h2.955v7.736h1.536v-7.736h3.013V59.871z"/>
	<path fill="#FFFFFF" d="M252.56,68.874c0.354-0.098,0.668-0.228,0.941-0.391s0.514-0.349,0.719-0.557
		c0.204-0.207,0.379-0.422,0.522-0.643l-0.938-0.73c-0.281,0.365-0.611,0.658-0.987,0.879c-0.376,0.222-0.835,0.332-1.378,0.332
		c-0.41,0-0.776-0.077-1.1-0.232c-0.324-0.154-0.602-0.365-0.83-0.631c-0.23-0.266-0.406-0.578-0.531-0.938
		s-0.193-0.747-0.203-1.162h6.084v-0.689c0-0.631-0.072-1.214-0.216-1.751c-0.144-0.536-0.366-1.001-0.669-1.395
		c-0.301-0.393-0.684-0.701-1.148-0.926c-0.465-0.224-1.02-0.336-1.66-0.336c-0.51,0-1,0.104-1.47,0.312
		c-0.47,0.207-0.888,0.508-1.253,0.9s-0.658,0.877-0.877,1.453c-0.218,0.575-0.327,1.229-0.327,1.959v0.348
		c0,0.631,0.097,1.213,0.29,1.744s0.471,0.988,0.83,1.373s0.793,0.686,1.299,0.9c0.508,0.217,1.072,0.324,1.698,0.324
		C251.804,69.019,252.205,68.97,252.56,68.874z M252.153,61.183c0.266,0.145,0.483,0.332,0.651,0.564
		c0.169,0.232,0.293,0.495,0.373,0.789c0.08,0.293,0.129,0.589,0.146,0.888v0.116h-4.5c0.051-0.415,0.143-0.783,0.279-1.104
		c0.135-0.321,0.305-0.59,0.51-0.806s0.438-0.38,0.697-0.494c0.26-0.113,0.545-0.17,0.855-0.17
		C251.558,60.967,251.887,61.039,252.153,61.183z"/>
	<path fill="#FFFFFF" d="M257.93,59.871l-0.166,3.843c-0.033,0.67-0.079,1.243-0.138,1.719c-0.057,0.477-0.145,0.865-0.261,1.166
		c-0.116,0.302-0.271,0.523-0.46,0.664c-0.191,0.142-0.437,0.212-0.735,0.212l-0.332,0.009l-0.033,1.369h0.448
		c0.57,0,1.043-0.107,1.42-0.324c0.375-0.215,0.678-0.537,0.904-0.967c0.227-0.429,0.395-0.964,0.502-1.605
		c0.107-0.643,0.182-1.39,0.221-2.242l0.107-2.572h3.047v7.711h1.543v-8.981H257.93z"/>
	<path fill="#FFFFFF" d="M271.394,68.874c0.354-0.098,0.668-0.228,0.941-0.391c0.275-0.163,0.514-0.349,0.719-0.557
		c0.205-0.207,0.379-0.422,0.523-0.643l-0.938-0.73c-0.283,0.365-0.613,0.658-0.988,0.879c-0.377,0.222-0.836,0.332-1.379,0.332
		c-0.408,0-0.775-0.077-1.1-0.232c-0.324-0.154-0.6-0.365-0.83-0.631c-0.229-0.266-0.406-0.578-0.531-0.938
		s-0.191-0.747-0.203-1.162h6.084v-0.689c0-0.631-0.072-1.214-0.215-1.751c-0.145-0.536-0.367-1.001-0.668-1.395
		c-0.303-0.393-0.686-0.701-1.15-0.926c-0.465-0.224-1.018-0.336-1.66-0.336c-0.51,0-0.998,0.104-1.469,0.312
		c-0.471,0.207-0.889,0.508-1.254,0.9s-0.656,0.877-0.875,1.453c-0.219,0.575-0.328,1.229-0.328,1.959v0.348
		c0,0.631,0.096,1.213,0.291,1.744c0.193,0.531,0.469,0.988,0.83,1.373c0.359,0.385,0.791,0.686,1.299,0.9
		c0.506,0.217,1.072,0.324,1.697,0.324C270.638,69.019,271.041,68.97,271.394,68.874z M270.988,61.183
		c0.266,0.145,0.482,0.332,0.65,0.564c0.17,0.232,0.295,0.495,0.375,0.789c0.08,0.293,0.129,0.589,0.145,0.888v0.116h-4.498
		c0.049-0.415,0.141-0.783,0.277-1.104c0.135-0.321,0.305-0.59,0.51-0.806s0.438-0.38,0.697-0.494c0.26-0.113,0.545-0.17,0.855-0.17
		C270.392,60.967,270.722,61.039,270.988,61.183z"/>
	<path fill="#FFFFFF" d="M275.138,64.702c0,0.631,0.07,1.212,0.211,1.743s0.35,0.987,0.623,1.37
		c0.273,0.381,0.613,0.679,1.018,0.892c0.402,0.214,0.867,0.319,1.395,0.319c0.242,0,0.469-0.02,0.676-0.062s0.4-0.102,0.576-0.179
		v3.52h1.537v-3.545c0.381,0.178,0.84,0.266,1.377,0.266c0.531,0,0.998-0.105,1.402-0.319c0.404-0.213,0.744-0.511,1.018-0.892
		c0.273-0.383,0.48-0.839,0.623-1.37c0.141-0.531,0.211-1.112,0.211-1.743v-0.174c0-0.709-0.068-1.357-0.207-1.947
		c-0.139-0.589-0.346-1.097-0.619-1.523c-0.273-0.426-0.615-0.758-1.025-0.996c-0.408-0.237-0.883-0.356-1.418-0.356
		c-0.271,0-0.52,0.024-0.744,0.075c-0.225,0.049-0.43,0.121-0.617,0.215v-3.893h-1.537v3.844c-0.354-0.161-0.766-0.241-1.236-0.241
		c-0.537,0-1.008,0.119-1.416,0.356c-0.406,0.238-0.746,0.57-1.02,0.996c-0.275,0.427-0.48,0.935-0.619,1.523
		c-0.139,0.59-0.207,1.238-0.207,1.947V64.702z M284.269,64.702c0,0.426-0.041,0.826-0.121,1.199
		c-0.08,0.374-0.207,0.699-0.381,0.976c-0.176,0.276-0.398,0.495-0.674,0.655c-0.273,0.161-0.604,0.241-0.99,0.241
		c-0.195,0-0.369-0.013-0.523-0.037c-0.156-0.025-0.291-0.06-0.406-0.104v-6.499c0.115-0.05,0.248-0.09,0.398-0.12
		c0.148-0.03,0.32-0.046,0.514-0.046c0.387,0,0.719,0.096,0.996,0.286c0.277,0.191,0.504,0.448,0.682,0.772
		c0.176,0.323,0.305,0.701,0.385,1.133s0.121,0.888,0.121,1.37V64.702z M276.673,64.528c0-0.482,0.035-0.938,0.107-1.37
		s0.191-0.81,0.357-1.133c0.166-0.324,0.383-0.581,0.652-0.772c0.268-0.19,0.598-0.286,0.992-0.286c0.176,0,0.336,0.013,0.477,0.037
		c0.141,0.025,0.268,0.06,0.377,0.104v6.516c-0.115,0.045-0.246,0.08-0.389,0.107c-0.145,0.028-0.305,0.042-0.482,0.042
		c-0.387,0-0.713-0.08-0.979-0.241c-0.266-0.16-0.482-0.379-0.648-0.655s-0.285-0.602-0.357-0.976
		c-0.072-0.373-0.107-0.773-0.107-1.199V64.528z"/>
	<path fill="#FFFFFF" d="M287.39,64.462c0,0.652,0.096,1.258,0.285,1.813c0.191,0.556,0.465,1.037,0.818,1.444
		c0.354,0.406,0.783,0.725,1.287,0.954s1.07,0.345,1.701,0.345s1.197-0.115,1.701-0.345s0.934-0.548,1.287-0.954
		c0.354-0.407,0.625-0.889,0.814-1.444c0.188-0.556,0.281-1.161,0.281-1.813v-0.184c0-0.652-0.094-1.257-0.281-1.813
		c-0.189-0.556-0.461-1.038-0.814-1.448c-0.354-0.409-0.785-0.73-1.291-0.963s-1.078-0.349-1.713-0.349
		c-0.627,0-1.191,0.116-1.693,0.349c-0.504,0.232-0.932,0.554-1.283,0.963c-0.352,0.41-0.623,0.893-0.814,1.448
		c-0.189,0.557-0.285,1.161-0.285,1.813V64.462z M288.933,64.278c0-0.442,0.053-0.864,0.158-1.266
		c0.105-0.4,0.264-0.752,0.477-1.054s0.479-0.542,0.793-0.723c0.316-0.18,0.684-0.27,1.105-0.27c0.426,0,0.799,0.09,1.119,0.27
		c0.322,0.181,0.588,0.421,0.801,0.723s0.375,0.653,0.482,1.054c0.107,0.401,0.162,0.823,0.162,1.266v0.184
		c0,0.447-0.055,0.871-0.162,1.27s-0.268,0.748-0.477,1.051c-0.211,0.301-0.477,0.54-0.797,0.717
		c-0.322,0.178-0.693,0.266-1.113,0.266c-0.426,0-0.799-0.088-1.117-0.266c-0.318-0.177-0.584-0.416-0.797-0.717
		c-0.213-0.303-0.371-0.652-0.477-1.051s-0.158-0.822-0.158-1.27V64.278z"/>
	<path fill="#FFFFFF" d="M304.83,59.871h-1.535v3.894h-4.125v-3.894h-1.545v8.981h1.545v-3.835h4.125v3.835h1.535V59.871z"/>
	<path fill="#FFFFFF" d="M314.451,68.853V68.72c-0.105-0.243-0.184-0.533-0.236-0.867c-0.053-0.335-0.08-0.654-0.08-0.959v-4.176
		c0-0.503-0.082-0.943-0.248-1.319s-0.396-0.69-0.689-0.942s-0.646-0.439-1.059-0.564c-0.412-0.124-0.861-0.187-1.348-0.187
		c-0.543,0-1.035,0.079-1.475,0.236c-0.439,0.158-0.814,0.362-1.125,0.614c-0.309,0.252-0.549,0.535-0.717,0.852
		c-0.17,0.314-0.254,0.633-0.254,0.954h1.545c0-0.188,0.047-0.368,0.141-0.54c0.094-0.171,0.225-0.322,0.395-0.452
		c0.168-0.13,0.371-0.233,0.609-0.312c0.238-0.077,0.5-0.115,0.789-0.115c0.625,0,1.098,0.158,1.42,0.477
		c0.32,0.318,0.48,0.746,0.48,1.283v0.705h-1.527c-0.613,0-1.17,0.063-1.668,0.191c-0.498,0.127-0.924,0.314-1.275,0.564
		c-0.352,0.248-0.621,0.557-0.809,0.925s-0.281,0.793-0.281,1.274c0,0.371,0.07,0.718,0.215,1.042
		c0.145,0.323,0.348,0.604,0.609,0.843c0.264,0.237,0.582,0.426,0.955,0.564c0.373,0.138,0.791,0.207,1.25,0.207
		c0.275,0,0.539-0.029,0.789-0.087c0.248-0.058,0.479-0.139,0.691-0.241c0.213-0.102,0.41-0.221,0.59-0.356s0.342-0.278,0.486-0.428
		c0.021,0.183,0.049,0.358,0.082,0.527s0.078,0.309,0.133,0.419H314.451z M309.548,67.562c-0.213-0.08-0.393-0.188-0.539-0.323
		s-0.256-0.298-0.328-0.485c-0.072-0.188-0.107-0.391-0.107-0.606c0-0.554,0.238-0.967,0.713-1.241
		c0.477-0.273,1.154-0.41,2.035-0.41h1.277v1.842c-0.082,0.172-0.197,0.338-0.344,0.498c-0.146,0.161-0.32,0.304-0.52,0.428
		c-0.199,0.125-0.42,0.226-0.664,0.303c-0.244,0.078-0.504,0.117-0.779,0.117C310.009,67.683,309.761,67.642,309.548,67.562z"/>
</g>
</svg>
