<?xml version="1.0" encoding="utf-8"?>
<!-- Generator: Adobe Illustrator 16.0.0, SVG Export Plug-In . SVG Version: 6.00 Build 0)  -->
<!DOCTYPE svg PUBLIC "-//W3C//DTD SVG 1.0//EN" "http://www.w3.org/TR/2001/REC-SVG-20010904/DTD/svg10.dtd">
<svg version="1.0" id="Слой_1" xmlns="http://www.w3.org/2000/svg" xmlns:xlink="http://www.w3.org/1999/xlink" x="0px" y="0px"
	 width="114.277px" height="70.703px" viewBox="0 -1 114.277 70.703" enable-background="new 0 0 114.277 70.703"
	 xml:space="preserve">
<g>
	<path fill="none" stroke="#FFFFFF" stroke-width="3" stroke-miterlimit="10" d="M80.451,23.75c0,1.65-1.35,3-3,3H45.826
		c-1.65,0-3-1.35-3-3V4.5c0-1.65,1.35-3,3-3h31.625c1.65,0,3,1.35,3,3V23.75z"/>
	<path fill="none" stroke="#FFFFFF" stroke-width="3" stroke-miterlimit="10" d="M71.451,30v3.75c0,1.65-1.35,3-3,3H36.826
		c-1.65,0-3-1.35-3-3V14.5c0-1.65,1.35-3,3-3h2.75"/>
	<line fill="none" stroke="#FFFFFF" stroke-width="3" stroke-miterlimit="10" x1="42.826" y1="14.625" x2="80.451" y2="14.625"/>
	<line fill="none" stroke="#FFFFFF" stroke-width="3" stroke-miterlimit="10" x1="80.451" y1="20.625" x2="42.826" y2="20.625"/>
</g>
<g>
	<path fill="#FFFFFF" d="M9.72,60.834c0-0.902-0.115-1.715-0.344-2.437c-0.23-0.723-0.557-1.335-0.979-1.839
		c-0.424-0.504-0.936-0.89-1.536-1.158c-0.601-0.268-1.269-0.402-2.004-0.402c-0.714,0-1.37,0.135-1.967,0.402
		c-0.598,0.269-1.109,0.654-1.536,1.158s-0.758,1.116-0.996,1.839C0.119,59.119,0,59.932,0,60.834v0.764
		c0,0.907,0.119,1.719,0.357,2.436s0.573,1.327,1.004,1.83c0.432,0.504,0.946,0.889,1.544,1.154s1.253,0.398,1.967,0.398
		c0.736,0,1.403-0.133,2-0.398s1.106-0.65,1.527-1.154c0.42-0.503,0.746-1.113,0.976-1.83c0.229-0.717,0.344-1.528,0.344-2.436
		V60.834z M8.135,61.598c0,0.725-0.072,1.363-0.216,1.917c-0.144,0.554-0.355,1.02-0.635,1.398c-0.28,0.38-0.622,0.666-1.025,0.859
		c-0.404,0.194-0.866,0.29-1.386,0.29c-0.493,0-0.941-0.096-1.345-0.29c-0.404-0.193-0.75-0.479-1.038-0.859
		c-0.288-0.379-0.511-0.845-0.668-1.398c-0.158-0.554-0.237-1.192-0.237-1.917v-0.781c0-0.719,0.078-1.355,0.232-1.908
		c0.155-0.554,0.375-1.019,0.66-1.395c0.285-0.377,0.63-0.662,1.034-0.855s0.852-0.291,1.345-0.291c0.515,0,0.975,0.098,1.382,0.291
		c0.406,0.193,0.751,0.479,1.033,0.855c0.282,0.376,0.497,0.841,0.644,1.395c0.146,0.553,0.22,1.189,0.22,1.908V61.598z"/>
	<path fill="#FFFFFF" d="M19.216,58.269h-7.213v8.981h1.544v-7.711h4.134v7.711h1.536V58.269z"/>
	<path fill="#FFFFFF" d="M22.977,58.269l-0.166,3.843c-0.033,0.67-0.079,1.243-0.137,1.719c-0.059,0.477-0.146,0.865-0.262,1.166
		c-0.116,0.302-0.27,0.523-0.461,0.664c-0.19,0.142-0.436,0.212-0.734,0.212l-0.332,0.009l-0.033,1.369H21.3
		c0.57,0,1.043-0.107,1.419-0.324c0.376-0.215,0.678-0.537,0.905-0.967c0.227-0.429,0.395-0.964,0.502-1.605
		c0.108-0.643,0.182-1.39,0.22-2.242l0.108-2.572H27.5v7.711h1.544v-8.981H22.977z"/>
	<path fill="#FFFFFF" d="M38.665,67.25v-0.133c-0.105-0.243-0.184-0.533-0.236-0.867c-0.053-0.335-0.079-0.654-0.079-0.959v-4.176
		c0-0.503-0.083-0.943-0.249-1.319s-0.396-0.69-0.689-0.942s-0.646-0.439-1.058-0.564c-0.413-0.124-0.862-0.187-1.349-0.187
		c-0.542,0-1.034,0.079-1.473,0.236c-0.44,0.158-0.815,0.362-1.125,0.614c-0.31,0.252-0.549,0.535-0.718,0.852
		c-0.168,0.314-0.253,0.633-0.253,0.954h1.544c0-0.188,0.047-0.368,0.141-0.54c0.094-0.171,0.226-0.322,0.395-0.452
		c0.168-0.13,0.372-0.233,0.61-0.312c0.238-0.077,0.501-0.115,0.789-0.115c0.625,0,1.099,0.158,1.419,0.477s0.481,0.746,0.481,1.283
		v0.705h-1.527c-0.614,0-1.17,0.063-1.668,0.191c-0.498,0.127-0.923,0.314-1.274,0.564c-0.351,0.248-0.621,0.557-0.809,0.925
		s-0.282,0.793-0.282,1.274c0,0.371,0.072,0.718,0.216,1.042c0.144,0.323,0.347,0.604,0.61,0.843
		c0.263,0.237,0.581,0.426,0.955,0.564c0.373,0.138,0.79,0.207,1.249,0.207c0.277,0,0.54-0.029,0.789-0.087s0.48-0.139,0.693-0.241
		c0.213-0.102,0.41-0.221,0.59-0.356c0.18-0.136,0.341-0.278,0.485-0.428c0.022,0.183,0.05,0.358,0.083,0.527
		s0.077,0.309,0.133,0.419H38.665z M33.763,65.959c-0.213-0.08-0.393-0.188-0.54-0.323s-0.256-0.298-0.328-0.485
		c-0.072-0.188-0.108-0.391-0.108-0.606c0-0.554,0.238-0.967,0.714-1.241c0.476-0.273,1.154-0.41,2.034-0.41h1.278v1.842
		c-0.083,0.172-0.198,0.338-0.344,0.498c-0.147,0.161-0.32,0.304-0.519,0.428c-0.199,0.125-0.42,0.226-0.664,0.303
		c-0.244,0.078-0.503,0.117-0.78,0.117C34.224,66.08,33.977,66.039,33.763,65.959z"/>
	<path fill="#FFFFFF" d="M47.298,58.269h-7.504v1.245h2.955v7.736h1.536v-7.736h3.013V58.269z"/>
	<path fill="#FFFFFF" d="M55.814,67.25v-0.133c-0.105-0.243-0.184-0.533-0.236-0.867c-0.053-0.335-0.079-0.654-0.079-0.959v-4.176
		c0-0.503-0.083-0.943-0.249-1.319s-0.396-0.69-0.689-0.942s-0.646-0.439-1.058-0.564c-0.413-0.124-0.862-0.187-1.349-0.187
		c-0.542,0-1.034,0.079-1.474,0.236c-0.44,0.158-0.815,0.362-1.125,0.614c-0.31,0.252-0.549,0.535-0.718,0.852
		c-0.168,0.314-0.253,0.633-0.253,0.954h1.544c0-0.188,0.047-0.368,0.141-0.54c0.094-0.171,0.226-0.322,0.395-0.452
		c0.168-0.13,0.372-0.233,0.61-0.312c0.238-0.077,0.5-0.115,0.789-0.115c0.625,0,1.099,0.158,1.419,0.477s0.481,0.746,0.481,1.283
		v0.705h-1.527c-0.614,0-1.17,0.063-1.668,0.191c-0.498,0.127-0.923,0.314-1.274,0.564c-0.351,0.248-0.621,0.557-0.809,0.925
		s-0.282,0.793-0.282,1.274c0,0.371,0.072,0.718,0.216,1.042c0.144,0.323,0.347,0.604,0.61,0.843
		c0.263,0.237,0.581,0.426,0.955,0.564c0.373,0.138,0.79,0.207,1.249,0.207c0.277,0,0.54-0.029,0.789-0.087s0.48-0.139,0.693-0.241
		c0.213-0.102,0.41-0.221,0.59-0.356c0.18-0.136,0.341-0.278,0.485-0.428c0.022,0.183,0.05,0.358,0.083,0.527
		s0.077,0.309,0.133,0.419H55.814z M50.913,65.959c-0.213-0.08-0.393-0.188-0.54-0.323s-0.256-0.298-0.328-0.485
		c-0.072-0.188-0.108-0.391-0.108-0.606c0-0.554,0.238-0.967,0.714-1.241c0.476-0.273,1.154-0.41,2.034-0.41h1.278v1.842
		c-0.083,0.172-0.198,0.338-0.344,0.498c-0.147,0.161-0.32,0.304-0.519,0.428c-0.199,0.125-0.42,0.226-0.664,0.303
		c-0.244,0.078-0.503,0.117-0.78,0.117C51.374,66.08,51.126,66.039,50.913,65.959z"/>
	<path fill="#FFFFFF" d="M68.025,67.25h1.951l-3.852-4.665l3.553-4.316h-1.859l-3.021,3.802h-1.005v-3.802h-1.544v8.981h1.544
		v-3.826h1.12L68.025,67.25z"/>
	<path fill="#FFFFFF" d="M78.451,67.25v-0.133c-0.105-0.243-0.184-0.533-0.236-0.867c-0.053-0.335-0.079-0.654-0.079-0.959v-4.176
		c0-0.503-0.083-0.943-0.249-1.319s-0.396-0.69-0.689-0.942s-0.646-0.439-1.059-0.564c-0.412-0.124-0.861-0.187-1.348-0.187
		c-0.543,0-1.033,0.079-1.475,0.236c-0.439,0.158-0.814,0.362-1.124,0.614s-0.55,0.535-0.718,0.852
		c-0.169,0.314-0.254,0.633-0.254,0.954h1.545c0-0.188,0.047-0.368,0.141-0.54c0.094-0.171,0.226-0.322,0.395-0.452
		c0.168-0.13,0.371-0.233,0.609-0.312c0.238-0.077,0.502-0.115,0.789-0.115c0.625,0,1.098,0.158,1.42,0.477
		c0.32,0.318,0.48,0.746,0.48,1.283v0.705h-1.527c-0.613,0-1.17,0.063-1.668,0.191c-0.498,0.127-0.923,0.314-1.274,0.564
		c-0.351,0.248-0.621,0.557-0.81,0.925c-0.188,0.368-0.281,0.793-0.281,1.274c0,0.371,0.071,0.718,0.215,1.042
		c0.145,0.323,0.348,0.604,0.611,0.843c0.262,0.237,0.58,0.426,0.953,0.564c0.374,0.138,0.791,0.207,1.25,0.207
		c0.277,0,0.539-0.029,0.789-0.087c0.248-0.058,0.479-0.139,0.693-0.241c0.213-0.102,0.408-0.221,0.588-0.356
		c0.181-0.136,0.342-0.278,0.486-0.428c0.021,0.183,0.05,0.358,0.083,0.527s0.077,0.309,0.133,0.419H78.451z M73.548,65.959
		c-0.213-0.08-0.393-0.188-0.539-0.323s-0.256-0.298-0.328-0.485c-0.072-0.188-0.107-0.391-0.107-0.606
		c0-0.554,0.238-0.967,0.714-1.241c0.476-0.273,1.153-0.41,2.034-0.41h1.277v1.842c-0.082,0.172-0.197,0.338-0.344,0.498
		c-0.146,0.161-0.32,0.304-0.52,0.428c-0.199,0.125-0.42,0.226-0.664,0.303c-0.243,0.078-0.504,0.117-0.779,0.117
		C74.009,66.08,73.761,66.039,73.548,65.959z"/>
	<path fill="#FFFFFF" d="M88.129,62.685c0-0.687-0.076-1.31-0.229-1.872c-0.151-0.562-0.378-1.043-0.677-1.444
		s-0.665-0.712-1.1-0.934c-0.434-0.222-0.934-0.332-1.498-0.332c-0.57,0-1.07,0.1-1.502,0.299s-0.801,0.487-1.104,0.863
		l-0.075-0.996h-1.402v12.435h1.535v-4.324c0.305,0.337,0.668,0.595,1.092,0.771s0.918,0.266,1.482,0.266
		c0.553,0,1.045-0.113,1.477-0.34c0.432-0.228,0.796-0.544,1.092-0.951c0.297-0.406,0.521-0.888,0.677-1.444
		c0.155-0.556,0.232-1.163,0.232-1.821V62.685z M86.593,62.859c0,0.447-0.047,0.873-0.141,1.273
		c-0.094,0.401-0.24,0.752-0.439,1.051s-0.45,0.536-0.752,0.713c-0.301,0.178-0.66,0.266-1.074,0.266
		c-0.266,0-0.507-0.029-0.723-0.091c-0.216-0.061-0.41-0.146-0.581-0.253c-0.171-0.108-0.323-0.238-0.456-0.391
		s-0.25-0.316-0.35-0.494v-4.291c0.1-0.177,0.217-0.342,0.35-0.494s0.285-0.283,0.456-0.395c0.171-0.11,0.364-0.195,0.577-0.257
		c0.213-0.061,0.449-0.091,0.709-0.091c0.421,0,0.783,0.087,1.088,0.261c0.305,0.175,0.557,0.411,0.756,0.71
		s0.346,0.646,0.439,1.042s0.141,0.817,0.141,1.266V62.859z"/>
	<path fill="#FFFFFF" d="M96.089,58.269h-7.504v1.245h2.955v7.736h1.536v-7.736h3.013V58.269z"/>
	<path fill="#FFFFFF" d="M96.829,62.859c0,0.652,0.095,1.258,0.286,1.813s0.463,1.037,0.818,1.444
		c0.354,0.406,0.783,0.725,1.286,0.954s1.071,0.345,1.702,0.345s1.197-0.115,1.701-0.345s0.933-0.548,1.287-0.954
		c0.354-0.407,0.625-0.889,0.813-1.444c0.188-0.556,0.283-1.161,0.283-1.813v-0.184c0-0.652-0.095-1.257-0.283-1.813
		c-0.188-0.556-0.459-1.038-0.813-1.448c-0.354-0.409-0.785-0.73-1.291-0.963s-1.078-0.349-1.715-0.349
		c-0.625,0-1.189,0.116-1.693,0.349s-0.931,0.554-1.281,0.963c-0.352,0.41-0.623,0.893-0.814,1.448
		c-0.191,0.557-0.286,1.161-0.286,1.813V62.859z M98.373,62.676c0-0.442,0.053-0.864,0.158-1.266c0.104-0.4,0.264-0.752,0.477-1.054
		s0.478-0.542,0.793-0.723c0.315-0.18,0.684-0.27,1.104-0.27c0.427,0,0.801,0.09,1.121,0.27c0.32,0.181,0.588,0.421,0.801,0.723
		s0.373,0.653,0.482,1.054c0.107,0.401,0.161,0.823,0.161,1.266v0.184c0,0.447-0.054,0.871-0.161,1.27
		c-0.109,0.398-0.268,0.748-0.479,1.051c-0.21,0.301-0.476,0.54-0.797,0.717c-0.32,0.178-0.691,0.266-1.111,0.266
		c-0.427,0-0.799-0.088-1.117-0.266c-0.318-0.177-0.584-0.416-0.797-0.717c-0.213-0.303-0.372-0.652-0.477-1.051
		c-0.105-0.398-0.158-0.822-0.158-1.27V62.676z"/>
	<path fill="#FFFFFF" d="M108.599,64.826v-6.558h-1.535v8.981h1.535l4.143-6.549v6.549h1.535v-8.981h-1.535L108.599,64.826z
		 M111.912,54.998c0,0.166-0.023,0.324-0.066,0.473c-0.045,0.15-0.117,0.281-0.217,0.395s-0.229,0.203-0.386,0.27
		s-0.347,0.1-0.568,0.1c-0.228,0-0.419-0.033-0.577-0.1s-0.285-0.156-0.381-0.27c-0.098-0.113-0.168-0.244-0.213-0.395
		c-0.044-0.148-0.066-0.307-0.066-0.473h-1.253c0,0.326,0.058,0.625,0.175,0.896c0.115,0.271,0.281,0.505,0.498,0.701
		c0.215,0.197,0.477,0.351,0.783,0.461c0.309,0.111,0.652,0.166,1.034,0.166s0.726-0.055,1.034-0.166
		c0.307-0.11,0.568-0.264,0.783-0.461c0.217-0.196,0.381-0.43,0.494-0.701s0.17-0.57,0.17-0.896H111.912z"/>
</g>
</svg>
