<?xml version="1.0" encoding="utf-8"?>
<!-- Generator: Adobe Illustrator 16.0.0, SVG Export Plug-In . SVG Version: 6.00 Build 0)  -->
<!DOCTYPE svg PUBLIC "-//W3C//DTD SVG 1.0//EN" "http://www.w3.org/TR/2001/REC-SVG-20010904/DTD/svg10.dtd">
<svg version="1.0" id="Слой_1" xmlns="http://www.w3.org/2000/svg" xmlns:xlink="http://www.w3.org/1999/xlink" x="0px" y="0px"
	 width="66.999px" height="67.001px" viewBox="0 0 66.999 67.001" enable-background="new 0 0 66.999 67.001" xml:space="preserve">
<circle fill="#EBEBEB" cx="33.5" cy="33.5" r="33.5"/>
<g>
	<g>
		<path fill="none" stroke="#676767" stroke-width="2" stroke-miterlimit="10" d="M41.539,40.642v8.83c0,1.65-1.35,3-3,3H22.541
			c-1.649,0-3-1.35-3-3V17.529c0-1.65,1.351-3,3-3h15.998c1.65,0,3,1.35,3,3v2.121"/>
	</g>
	<circle fill="#676767" cx="30.541" cy="47.713" r="1.819"/>
	<circle fill="none" stroke="#676767" stroke-width="2" stroke-miterlimit="10" cx="41.942" cy="30.146" r="10.516"/>
	<g>
		<path fill="none" stroke="#676767" stroke-width="2" stroke-miterlimit="10" d="M40.333,36.597V24.819h2.682
			c1.522,0,2.758,1.235,2.758,2.758s-1.235,2.758-2.758,2.758h-2.682"/>
		<line fill="none" stroke="#676767" stroke-width="2" stroke-miterlimit="10" x1="37.875" y1="33.097" x2="45.625" y2="33.097"/>
	</g>
</g>
</svg>
