<?xml version="1.0" encoding="utf-8"?>
<!-- Generator: Adobe Illustrator 16.0.0, SVG Export Plug-In . SVG Version: 6.00 Build 0)  -->
<!DOCTYPE svg PUBLIC "-//W3C//DTD SVG 1.1//EN" "http://www.w3.org/Graphics/SVG/1.1/DTD/svg11.dtd">
<svg version="1.1" id="Слой_1" xmlns="http://www.w3.org/2000/svg" xmlns:xlink="http://www.w3.org/1999/xlink" x="0px" y="0px"
	 width="57.583px" height="49.083px" viewBox="0 0 57.583 49.083" enable-background="new 0 0 57.583 49.083" xml:space="preserve">
<g>
	<path fill="none" stroke="#F36F20" stroke-width="3" stroke-linecap="round" stroke-miterlimit="10" d="M4.417,20.708V12.5
		c0-2.75,2.25-5,5-5h35.667c2.75,0,5,2.25,5,5v24.167c0,2.75-2.25,5-5,5H28.625"/>
</g>
<path fill="none" stroke="#F36F20" stroke-width="3" stroke-linecap="round" stroke-miterlimit="10" d="M10.417,7.5v-1
	c0-2.75,2.25-5,5-5h35.667c2.75,0,5,2.25,5,5v24.167"/>
<circle fill="none" stroke="#F36F20" stroke-width="3" stroke-linecap="round" stroke-miterlimit="10" cx="12.938" cy="36.146" r="11.438"/>
<path fill="none" stroke="#F36F20" stroke-width="3" stroke-linecap="round" stroke-miterlimit="10" d="M50.083,28.646H40
	c-0.55,0-1-0.45-1-1v-6.125c0-0.55,0.45-1,1-1h10.083"/>
<polyline fill="none" stroke="#F36F20" stroke-width="3" stroke-linecap="round" stroke-linejoin="round" stroke-miterlimit="10" points="
	7.917,34.25 12,38.583 17,32.583 "/>
</svg>
