<?xml version="1.0" encoding="utf-8"?>
<!-- Generator: Adobe Illustrator 16.0.0, SVG Export Plug-In . SVG Version: 6.00 Build 0)  -->
<!DOCTYPE svg PUBLIC "-//W3C//DTD SVG 1.1//EN" "http://www.w3.org/Graphics/SVG/1.1/DTD/svg11.dtd">
<svg version="1.1" id="Слой_1" xmlns="http://www.w3.org/2000/svg" xmlns:xlink="http://www.w3.org/1999/xlink" x="0px" y="0px"
	 width="163.516px" height="72.306px" viewBox="0 0 163.516 72.306" enable-background="new 0 0 163.516 72.306"
	 xml:space="preserve">
<g>
	<path fill="none" stroke="#FFFFFF" stroke-width="3" stroke-miterlimit="10" d="M85.124,30.301H60.45
		c-1.966,0-3.559-1.594-3.559-3.56V5.06c0-1.967,1.593-3.56,3.559-3.56h32.749c1.964,0,3.559,1.593,3.559,3.56v18.859"/>
	
		<line fill="none" stroke="#FFFFFF" stroke-width="3" stroke-linecap="round" stroke-miterlimit="10" x1="71.684" y1="35.716" x2="81.964" y2="35.716"/>
	
		<line fill="none" stroke="#FFFFFF" stroke-width="3" stroke-linecap="round" stroke-miterlimit="10" x1="73.928" y1="30.301" x2="73.928" y2="35.716"/>
	
		<line fill="none" stroke="#FFFFFF" stroke-width="3" stroke-linecap="round" stroke-miterlimit="10" x1="79.708" y1="30.301" x2="79.708" y2="35.716"/>
	<path fill="none" stroke="#FFFFFF" stroke-width="3" stroke-miterlimit="10" d="M106.625,34.224c0,1.966-1.594,3.56-3.559,3.56
		H88.632c-1.967,0-3.562-1.594-3.562-3.56v-3.923V27.74c0-1.965,1.595-3.56,3.562-3.56h8.125h6.31c1.965,0,3.559,1.595,3.559,3.56
		V34.224z"/>
	<polygon fill="none" stroke="#FFFFFF" stroke-width="3" stroke-miterlimit="10" points="81.841,15.9 76.111,19.209 70.378,22.519 
		70.378,15.9 70.378,9.281 76.111,12.591 	"/>
	<polygon fill="#FFFFFF" points="93.513,34.183 93.513,28.573 98.384,31.38 	"/>
	<circle fill="#FFFFFF" cx="102.06" cy="31.399" r="1.552"/>
</g>
<g>
	<path fill="#FFFFFF" d="M11.862,71.815h-1.585v-2.963H1.602v2.972H0.008L0,67.55h0.988c0.138-0.155,0.307-0.378,0.506-0.669
		c0.199-0.29,0.392-0.671,0.577-1.142c0.185-0.47,0.347-1.041,0.485-1.714c0.138-0.672,0.221-1.471,0.249-2.395l0.266-4.864h7.23
		V67.55h1.577L11.862,71.815z M4.416,61.631c-0.055,1.384-0.231,2.567-0.527,3.553c-0.296,0.985-0.654,1.773-1.075,2.366h5.885
		v-9.472H4.599L4.416,61.631z"/>
	<path fill="#FFFFFF" d="M13.124,64.278c0-0.652,0.095-1.257,0.287-1.813c0.19-0.556,0.462-1.039,0.813-1.448
		c0.351-0.409,0.779-0.73,1.282-0.963s1.068-0.349,1.693-0.349c0.636,0,1.208,0.116,1.714,0.349
		c0.507,0.232,0.937,0.554,1.291,0.963s0.625,0.893,0.813,1.448c0.188,0.557,0.282,1.161,0.282,1.813v0.184
		c0,0.652-0.094,1.257-0.282,1.813c-0.188,0.556-0.459,1.037-0.813,1.444c-0.354,0.406-0.783,0.725-1.287,0.954
		s-1.071,0.345-1.702,0.345s-1.198-0.115-1.702-0.345s-0.933-0.548-1.287-0.954c-0.354-0.407-0.627-0.889-0.817-1.444
		c-0.191-0.557-0.287-1.161-0.287-1.813V64.278z M14.667,64.462c0,0.447,0.053,0.871,0.158,1.27s0.264,0.748,0.478,1.05
		c0.213,0.302,0.479,0.541,0.797,0.718c0.318,0.178,0.69,0.266,1.116,0.266c0.42,0,0.792-0.088,1.112-0.266
		c0.321-0.177,0.586-0.416,0.797-0.718s0.369-0.651,0.478-1.05c0.107-0.398,0.162-0.822,0.162-1.27v-0.184
		c0-0.442-0.054-0.864-0.162-1.266c-0.108-0.401-0.269-0.752-0.481-1.054c-0.213-0.302-0.48-0.543-0.801-0.723
		s-0.694-0.27-1.121-0.27c-0.42,0-0.789,0.09-1.104,0.27s-0.58,0.421-0.792,0.723c-0.213,0.302-0.373,0.652-0.478,1.054
		s-0.158,0.823-0.158,1.266V64.462z"/>
	<path fill="#FFFFFF" d="M28.397,66.819l3.055-6.948h1.917v8.981h-1.536v-6.533l-2.905,6.533h-1.063l-2.963-6.674v6.674h-1.536
		v-8.981h1.992L28.397,66.819z"/>
	<path fill="#FFFFFF" d="M41.38,68.853c-0.057-0.11-0.1-0.25-0.133-0.419s-0.061-0.345-0.084-0.527
		c-0.143,0.149-0.305,0.292-0.484,0.428s-0.377,0.254-0.59,0.356s-0.443,0.183-0.693,0.241c-0.248,0.058-0.512,0.087-0.789,0.087
		c-0.459,0-0.875-0.069-1.248-0.207c-0.375-0.139-0.692-0.327-0.955-0.564c-0.264-0.238-0.466-0.52-0.61-0.843
		c-0.144-0.324-0.216-0.671-0.216-1.042c0-0.481,0.094-0.906,0.282-1.274c0.188-0.368,0.458-0.677,0.81-0.925
		c0.352-0.25,0.775-0.438,1.273-0.564c0.498-0.128,1.055-0.191,1.67-0.191h1.527v-0.705c0-0.537-0.162-0.965-0.482-1.283
		s-0.795-0.477-1.42-0.477c-0.287,0-0.551,0.038-0.787,0.115c-0.238,0.078-0.441,0.182-0.611,0.312
		c-0.168,0.13-0.301,0.281-0.395,0.452c-0.094,0.172-0.141,0.352-0.141,0.54H35.76c0-0.321,0.084-0.64,0.253-0.954
		c0.169-0.316,0.408-0.6,0.719-0.852c0.309-0.252,0.684-0.456,1.125-0.614c0.439-0.157,0.93-0.236,1.473-0.236
		c0.486,0,0.938,0.063,1.35,0.187c0.412,0.125,0.764,0.313,1.059,0.564c0.293,0.252,0.521,0.566,0.688,0.942s0.25,0.816,0.25,1.319
		v4.176c0,0.305,0.025,0.624,0.078,0.959s0.131,0.624,0.236,0.867v0.133H41.38z M38.831,67.683c0.277,0,0.537-0.039,0.781-0.117
		c0.242-0.077,0.465-0.178,0.664-0.303c0.199-0.124,0.371-0.267,0.518-0.428c0.146-0.16,0.262-0.326,0.346-0.498v-1.842H39.86
		c-0.879,0-1.559,0.137-2.033,0.41c-0.477,0.274-0.715,0.688-0.715,1.241c0,0.216,0.037,0.418,0.109,0.606
		c0.07,0.188,0.18,0.35,0.326,0.485s0.328,0.243,0.541,0.323S38.55,67.683,38.831,67.683z"/>
	<path fill="#FFFFFF" d="M46.758,59.871v7.728h3.287v-7.728h1.536v7.728h3.278v-7.728h1.544v8.981H45.214v-8.981H46.758z"/>
	<path fill="#FFFFFF" d="M66.165,68.853H64.63v-3.835h-4.126v3.835H58.96v-8.981h1.544v3.894h4.126v-3.894h1.535V68.853z"/>
	<path fill="#FFFFFF" d="M74.441,59.871h1.535v8.981h-1.535v-6.549l-4.142,6.549h-1.535v-8.981h1.535v6.558L74.441,59.871z"/>
	<path fill="#FFFFFF" d="M84.252,59.871h1.535v8.981h-1.535v-6.549l-4.143,6.549h-1.535v-8.981h1.535v6.558L84.252,59.871z
		 M84.667,56.601c0,0.326-0.057,0.625-0.17,0.896s-0.278,0.505-0.494,0.701s-0.478,0.351-0.784,0.461
		c-0.308,0.11-0.652,0.166-1.033,0.166c-0.383,0-0.727-0.056-1.034-0.166c-0.307-0.11-0.568-0.265-0.784-0.461
		s-0.382-0.43-0.498-0.701s-0.174-0.57-0.174-0.896h1.253c0,0.166,0.022,0.324,0.066,0.473c0.044,0.15,0.115,0.281,0.212,0.395
		s0.224,0.203,0.382,0.27c0.157,0.066,0.35,0.1,0.577,0.1c0.221,0,0.41-0.033,0.568-0.1c0.157-0.066,0.286-0.156,0.386-0.27
		s0.172-0.244,0.216-0.395c0.044-0.148,0.066-0.307,0.066-0.473H84.667z"/>
	<path fill="#FFFFFF" d="M98.272,59.871h1.535v8.981h-1.535v-6.549l-4.143,6.549h-1.535v-8.981h1.535v6.558L98.272,59.871z"/>
	<path fill="#FFFFFF" d="M109.612,68.853h-1.535v-3.835h-4.126v3.835h-1.544v-8.981h1.544v3.894h4.126v-3.894h1.535V68.853z"/>
	<path fill="#FFFFFF" d="M118.75,61.116h-3.014v7.736h-1.535v-7.736h-2.955v-1.245h7.504V61.116z"/>
	<path fill="#FFFFFF" d="M123.307,69.019c-0.625,0-1.19-0.107-1.697-0.324c-0.506-0.215-0.939-0.516-1.299-0.9
		s-0.637-0.842-0.83-1.373s-0.291-1.113-0.291-1.744v-0.348c0-0.73,0.109-1.384,0.328-1.959c0.219-0.576,0.511-1.061,0.876-1.453
		s0.783-0.693,1.253-0.9c0.471-0.208,0.961-0.312,1.47-0.312c0.642,0,1.195,0.112,1.66,0.336c0.465,0.225,0.848,0.533,1.149,0.926
		s0.524,0.857,0.668,1.395c0.145,0.537,0.217,1.12,0.217,1.751v0.689h-6.085c0.011,0.415,0.079,0.803,0.203,1.162
		c0.125,0.359,0.302,0.672,0.531,0.938s0.507,0.477,0.83,0.631c0.324,0.155,0.69,0.232,1.101,0.232c0.542,0,1.001-0.11,1.377-0.332
		c0.377-0.221,0.706-0.514,0.988-0.879l0.938,0.73c-0.144,0.221-0.317,0.436-0.522,0.643c-0.205,0.208-0.444,0.394-0.718,0.557
		c-0.274,0.163-0.588,0.293-0.942,0.39S123.756,69.019,123.307,69.019z M123.117,60.967c-0.31,0-0.595,0.057-0.854,0.17
		c-0.261,0.113-0.493,0.278-0.697,0.494c-0.205,0.216-0.375,0.484-0.511,0.806c-0.136,0.32-0.229,0.688-0.278,1.104h4.499v-0.116
		c-0.017-0.299-0.065-0.595-0.146-0.888c-0.08-0.294-0.204-0.557-0.373-0.789s-0.387-0.421-0.652-0.564
		S123.509,60.967,123.117,60.967z"/>
	<path fill="#FFFFFF" d="M136.173,64.462c0,0.658-0.077,1.266-0.232,1.821c-0.155,0.557-0.381,1.038-0.677,1.444
		c-0.296,0.407-0.66,0.724-1.092,0.951c-0.432,0.227-0.924,0.34-1.477,0.34c-0.564,0-1.059-0.089-1.482-0.266
		c-0.423-0.177-0.787-0.435-1.092-0.771v4.324h-1.535V59.871h1.402l0.075,0.996c0.305-0.376,0.673-0.664,1.104-0.863
		s0.932-0.299,1.502-0.299c0.564,0,1.063,0.11,1.498,0.332s0.801,0.532,1.1,0.934s0.524,0.883,0.677,1.444s0.229,1.186,0.229,1.872
		V64.462z M134.637,64.287c0-0.448-0.047-0.87-0.141-1.266s-0.24-0.743-0.439-1.042s-0.451-0.535-0.756-0.71
		c-0.305-0.174-0.667-0.261-1.088-0.261c-0.26,0-0.496,0.03-0.709,0.091s-0.405,0.146-0.577,0.257
		c-0.172,0.111-0.323,0.242-0.456,0.395s-0.25,0.317-0.35,0.494v4.291c0.1,0.178,0.217,0.342,0.35,0.494s0.284,0.282,0.456,0.391
		c0.172,0.107,0.365,0.192,0.581,0.253s0.457,0.091,0.723,0.091c0.414,0,0.772-0.088,1.074-0.266
		c0.302-0.177,0.553-0.414,0.752-0.713s0.346-0.649,0.439-1.051s0.141-0.826,0.141-1.273V64.287z"/>
	<path fill="#FFFFFF" d="M145.462,68.853h-1.535v-3.835h-4.126v3.835h-1.544v-8.981h1.544v3.894h4.126v-3.894h1.535V68.853z"/>
	<path fill="#FFFFFF" d="M151.655,69.019c-0.625,0-1.19-0.107-1.697-0.324c-0.506-0.215-0.939-0.516-1.299-0.9
		s-0.637-0.842-0.83-1.373s-0.291-1.113-0.291-1.744v-0.348c0-0.73,0.109-1.384,0.328-1.959c0.219-0.576,0.511-1.061,0.876-1.453
		s0.783-0.693,1.253-0.9c0.471-0.208,0.961-0.312,1.47-0.312c0.642,0,1.195,0.112,1.66,0.336c0.465,0.225,0.848,0.533,1.149,0.926
		s0.524,0.857,0.668,1.395c0.145,0.537,0.217,1.12,0.217,1.751v0.689h-6.085c0.011,0.415,0.079,0.803,0.203,1.162
		c0.125,0.359,0.302,0.672,0.531,0.938s0.507,0.477,0.83,0.631c0.324,0.155,0.69,0.232,1.101,0.232c0.542,0,1.001-0.11,1.377-0.332
		c0.377-0.221,0.706-0.514,0.988-0.879l0.938,0.73c-0.144,0.221-0.317,0.436-0.522,0.643c-0.205,0.208-0.444,0.394-0.718,0.557
		c-0.274,0.163-0.588,0.293-0.942,0.39S152.104,69.019,151.655,69.019z M151.464,60.967c-0.31,0-0.595,0.057-0.854,0.17
		c-0.261,0.113-0.493,0.278-0.697,0.494c-0.205,0.216-0.375,0.484-0.511,0.806c-0.136,0.32-0.229,0.688-0.278,1.104h4.499v-0.116
		c-0.017-0.299-0.065-0.595-0.146-0.888c-0.08-0.294-0.204-0.557-0.373-0.789s-0.387-0.421-0.652-0.564
		S151.857,60.967,151.464,60.967z"/>
	<path fill="#FFFFFF" d="M163.516,61.116h-3.014v7.736h-1.535v-7.736h-2.955v-1.245h7.504V61.116z"/>
</g>
</svg>
