<?xml version="1.0" encoding="utf-8"?>
<!-- Generator: Adobe Illustrator 16.0.0, SVG Export Plug-In . SVG Version: 6.00 Build 0)  -->
<!DOCTYPE svg PUBLIC "-//W3C//DTD SVG 1.1//EN" "http://www.w3.org/Graphics/SVG/1.1/DTD/svg11.dtd">
<svg version="1.1" id="Слой_1" xmlns="http://www.w3.org/2000/svg" xmlns:xlink="http://www.w3.org/1999/xlink" x="0px" y="0px"
	 width="187.109px" height="73.229px" viewBox="0 0 187.109 73.229" enable-background="new 0 0 187.109 73.229"
	 xml:space="preserve">
<g>
	
		<polyline fill="none" stroke="#FFFFFF" stroke-width="3" stroke-linecap="round" stroke-linejoin="round" stroke-miterlimit="10" points="
		118.384,22.023 93.554,1.5 68.725,22.524 	"/>
	
		<line fill="none" stroke="#FFFFFF" stroke-width="3" stroke-linecap="round" stroke-miterlimit="10" x1="97.441" y1="38.277" x2="111.875" y2="38.277"/>
	
		<line fill="none" stroke="#FFFFFF" stroke-width="3" stroke-linecap="round" stroke-miterlimit="10" x1="75.903" y1="38.277" x2="90.339" y2="38.277"/>
	
		<line fill="none" stroke="#FFFFFF" stroke-width="3" stroke-linecap="round" stroke-miterlimit="10" x1="75.569" y1="38.277" x2="75.569" y2="23.688"/>
	
		<line fill="none" stroke="#FFFFFF" stroke-width="3" stroke-linecap="round" stroke-miterlimit="10" x1="111.875" y1="38.277" x2="111.875" y2="23.688"/>
	
		<polyline fill="none" stroke="#FFFFFF" stroke-width="3" stroke-linecap="round" stroke-linejoin="round" stroke-miterlimit="10" points="
		111.875,10.529 111.875,7.289 107.631,7.289 	"/>
	
		<polyline fill="none" stroke="#FFFFFF" stroke-width="3" stroke-linecap="round" stroke-linejoin="round" stroke-miterlimit="10" points="
		90.34,38.277 90.34,26.674 97.441,26.674 97.441,38.277 	"/>
</g>
<g>
	<path fill="#FFFFFF" d="M0,57.689h1.602v10.783h5.96V57.689h1.594v10.75h1.27l-0.149,4.25H8.84v-2.914H0V57.689z"/>
	<path fill="#FFFFFF" d="M17.946,60.794h1.536v8.981h-1.536v-6.549l-4.142,6.549h-1.536v-8.981h1.536v6.558L17.946,60.794z"/>
	<path fill="#FFFFFF" d="M21.615,65.451c0-0.709,0.069-1.357,0.208-1.947c0.138-0.589,0.344-1.097,0.619-1.523
		c0.273-0.426,0.614-0.758,1.021-0.996c0.407-0.237,0.879-0.356,1.416-0.356c0.47,0,0.883,0.08,1.237,0.241v-3.844h1.536v3.893
		c0.188-0.094,0.394-0.166,0.619-0.215c0.224-0.051,0.472-0.075,0.743-0.075c0.537,0,1.01,0.119,1.419,0.356
		c0.41,0.238,0.751,0.57,1.025,0.996c0.273,0.427,0.48,0.935,0.618,1.523c0.138,0.59,0.208,1.238,0.208,1.947v0.174
		c0,0.631-0.071,1.212-0.211,1.743c-0.142,0.531-0.349,0.987-0.623,1.37c-0.273,0.381-0.613,0.679-1.017,0.892
		s-0.872,0.319-1.403,0.319c-0.537,0-0.996-0.088-1.378-0.266v3.545h-1.536v-3.52c-0.177,0.077-0.369,0.137-0.577,0.179
		c-0.207,0.041-0.433,0.062-0.676,0.062c-0.526,0-0.991-0.106-1.395-0.319s-0.743-0.511-1.017-0.892
		c-0.273-0.383-0.481-0.839-0.622-1.37c-0.142-0.531-0.212-1.112-0.212-1.743V65.451z M23.151,65.625
		c0,0.426,0.036,0.826,0.108,1.199c0.072,0.374,0.191,0.699,0.357,0.976s0.382,0.495,0.647,0.655
		c0.266,0.161,0.592,0.241,0.979,0.241c0.177,0,0.337-0.014,0.481-0.042c0.144-0.027,0.274-0.063,0.39-0.107v-6.516
		c-0.111-0.045-0.236-0.079-0.378-0.104c-0.141-0.024-0.3-0.037-0.477-0.037c-0.393,0-0.724,0.096-0.992,0.286
		c-0.269,0.191-0.486,0.448-0.652,0.772c-0.166,0.323-0.285,0.701-0.357,1.133s-0.108,0.888-0.108,1.37V65.625z M30.746,65.451
		c0-0.482-0.04-0.938-0.12-1.37c-0.081-0.432-0.209-0.81-0.386-1.133c-0.177-0.324-0.404-0.581-0.681-0.772
		c-0.277-0.19-0.609-0.286-0.996-0.286c-0.194,0-0.365,0.016-0.515,0.046s-0.282,0.07-0.398,0.12v6.499
		c0.116,0.045,0.252,0.079,0.407,0.104c0.155,0.024,0.329,0.037,0.523,0.037c0.387,0,0.718-0.08,0.992-0.241
		c0.274-0.16,0.498-0.379,0.673-0.655c0.174-0.276,0.301-0.602,0.382-0.976c0.08-0.373,0.12-0.773,0.12-1.199V65.451z"/>
	<path fill="#FFFFFF" d="M41.861,65.385c0,0.658-0.078,1.266-0.232,1.821c-0.155,0.557-0.38,1.038-0.677,1.444
		c-0.296,0.407-0.66,0.724-1.091,0.951c-0.432,0.227-0.924,0.34-1.478,0.34c-0.564,0-1.058-0.089-1.482-0.266
		c-0.423-0.177-0.787-0.435-1.091-0.771v4.324h-1.536V60.794h1.403l0.075,0.996c0.304-0.376,0.672-0.664,1.104-0.863
		s0.933-0.299,1.502-0.299c0.564,0,1.064,0.11,1.498,0.332c0.435,0.222,0.801,0.532,1.1,0.934s0.524,0.883,0.676,1.444
		c0.152,0.562,0.229,1.186,0.229,1.872V65.385z M40.325,65.21c0-0.448-0.047-0.87-0.141-1.266s-0.241-0.743-0.44-1.042
		s-0.451-0.535-0.755-0.71c-0.304-0.174-0.667-0.261-1.087-0.261c-0.26,0-0.497,0.03-0.709,0.091
		c-0.213,0.061-0.406,0.146-0.577,0.257c-0.171,0.111-0.324,0.242-0.457,0.395s-0.249,0.317-0.349,0.494v4.291
		c0.1,0.178,0.216,0.342,0.349,0.494s0.285,0.282,0.457,0.391c0.171,0.107,0.365,0.192,0.581,0.253s0.457,0.091,0.722,0.091
		c0.415,0,0.773-0.088,1.075-0.266c0.302-0.177,0.552-0.414,0.751-0.713s0.346-0.649,0.44-1.051s0.141-0.826,0.141-1.273V65.21z"/>
	<path fill="#FFFFFF" d="M43.405,65.201c0-0.652,0.095-1.257,0.287-1.813c0.19-0.556,0.462-1.039,0.813-1.448
		c0.351-0.409,0.779-0.73,1.282-0.963s1.068-0.349,1.693-0.349c0.636,0,1.208,0.116,1.714,0.349
		c0.507,0.232,0.937,0.554,1.291,0.963s0.625,0.893,0.813,1.448c0.188,0.557,0.282,1.161,0.282,1.813v0.184
		c0,0.652-0.094,1.257-0.282,1.813c-0.188,0.556-0.459,1.037-0.813,1.444c-0.354,0.406-0.783,0.725-1.286,0.954
		c-0.504,0.229-1.071,0.345-1.702,0.345s-1.198-0.115-1.702-0.345s-0.933-0.548-1.287-0.954c-0.354-0.407-0.627-0.889-0.817-1.444
		c-0.191-0.557-0.287-1.161-0.287-1.813V65.201z M44.949,65.385c0,0.447,0.053,0.871,0.158,1.27s0.264,0.748,0.478,1.05
		c0.213,0.302,0.479,0.541,0.797,0.718c0.318,0.178,0.69,0.266,1.116,0.266c0.42,0,0.792-0.088,1.112-0.266
		c0.32-0.177,0.586-0.416,0.797-0.718s0.369-0.651,0.478-1.05c0.107-0.398,0.162-0.822,0.162-1.27v-0.184
		c0-0.442-0.055-0.864-0.162-1.266c-0.108-0.401-0.269-0.752-0.481-1.054s-0.48-0.543-0.801-0.723s-0.694-0.27-1.121-0.27
		c-0.42,0-0.789,0.09-1.104,0.27s-0.58,0.421-0.792,0.723c-0.213,0.302-0.373,0.652-0.478,1.054s-0.158,0.823-0.158,1.266V65.385z"
		/>
	<path fill="#FFFFFF" d="M53.647,69.775v-8.981h3.504c0.569,0,1.084,0.05,1.543,0.149c0.46,0.1,0.85,0.25,1.171,0.452
		s0.567,0.458,0.739,0.769c0.171,0.31,0.257,0.675,0.257,1.096c0,0.414-0.124,0.789-0.374,1.124
		c-0.248,0.335-0.616,0.591-1.104,0.769c0.288,0.066,0.544,0.167,0.768,0.303c0.225,0.136,0.414,0.295,0.568,0.477
		c0.155,0.184,0.271,0.385,0.35,0.606c0.077,0.222,0.115,0.451,0.115,0.688c0,0.427-0.08,0.799-0.24,1.117s-0.391,0.582-0.689,0.793
		c-0.299,0.21-0.661,0.369-1.087,0.477c-0.426,0.108-0.907,0.162-1.444,0.162H53.647z M55.184,64.604h1.983
		c1.439,0,2.158-0.42,2.158-1.262c0-0.868-0.725-1.303-2.174-1.303h-1.968V64.604z M55.184,65.832v2.707h2.54
		c0.642,0,1.122-0.119,1.44-0.357s0.478-0.572,0.478-1.004c0-0.427-0.159-0.757-0.478-0.992s-0.799-0.354-1.44-0.354H55.184z"/>
	<path fill="#FFFFFF" d="M62.813,65.201c0-0.652,0.095-1.257,0.286-1.813c0.19-0.556,0.462-1.039,0.813-1.448
		s0.778-0.73,1.282-0.963s1.068-0.349,1.693-0.349c0.637,0,1.208,0.116,1.714,0.349c0.507,0.232,0.937,0.554,1.291,0.963
		s0.625,0.893,0.813,1.448c0.188,0.557,0.282,1.161,0.282,1.813v0.184c0,0.652-0.094,1.257-0.282,1.813
		c-0.188,0.556-0.459,1.037-0.813,1.444c-0.354,0.406-0.783,0.725-1.287,0.954c-0.503,0.229-1.07,0.345-1.701,0.345
		s-1.198-0.115-1.701-0.345c-0.504-0.229-0.933-0.548-1.287-0.954c-0.354-0.407-0.627-0.889-0.817-1.444
		c-0.191-0.557-0.286-1.161-0.286-1.813V65.201z M64.355,65.385c0,0.447,0.053,0.871,0.158,1.27s0.265,0.748,0.478,1.05
		s0.479,0.541,0.797,0.718c0.318,0.178,0.69,0.266,1.116,0.266c0.421,0,0.791-0.088,1.112-0.266
		c0.321-0.177,0.587-0.416,0.797-0.718s0.369-0.651,0.478-1.05c0.107-0.398,0.162-0.822,0.162-1.27v-0.184
		c0-0.442-0.055-0.864-0.162-1.266c-0.108-0.401-0.269-0.752-0.481-1.054s-0.48-0.543-0.802-0.723c-0.32-0.18-0.694-0.27-1.12-0.27
		c-0.421,0-0.788,0.09-1.104,0.27c-0.314,0.18-0.579,0.421-0.792,0.723s-0.372,0.652-0.478,1.054s-0.158,0.823-0.158,1.266V65.385z"
		/>
	<path fill="#FFFFFF" d="M76.641,69.941c-0.625,0-1.19-0.107-1.697-0.324c-0.506-0.215-0.939-0.516-1.299-0.9
		s-0.637-0.842-0.83-1.373s-0.291-1.113-0.291-1.744v-0.348c0-0.73,0.109-1.384,0.328-1.959c0.219-0.576,0.511-1.061,0.876-1.453
		s0.783-0.693,1.253-0.9c0.471-0.208,0.961-0.312,1.47-0.312c0.642,0,1.195,0.112,1.66,0.336c0.465,0.225,0.848,0.533,1.149,0.926
		s0.524,0.857,0.668,1.395c0.145,0.537,0.217,1.12,0.217,1.751v0.689H74.06c0.011,0.415,0.079,0.803,0.203,1.162
		c0.125,0.359,0.302,0.672,0.531,0.938s0.507,0.477,0.83,0.631c0.324,0.155,0.69,0.232,1.101,0.232c0.542,0,1.001-0.11,1.377-0.332
		c0.377-0.221,0.706-0.514,0.988-0.879l0.938,0.73c-0.144,0.221-0.317,0.436-0.522,0.643c-0.205,0.208-0.444,0.394-0.718,0.557
		c-0.274,0.163-0.588,0.293-0.942,0.39S77.09,69.941,76.641,69.941z M76.45,61.89c-0.31,0-0.595,0.057-0.854,0.17
		c-0.261,0.113-0.493,0.278-0.697,0.494c-0.205,0.216-0.375,0.484-0.511,0.806c-0.136,0.32-0.229,0.688-0.278,1.104h4.499v-0.116
		c-0.017-0.299-0.065-0.595-0.146-0.888c-0.08-0.294-0.204-0.557-0.373-0.789s-0.387-0.421-0.652-0.564S76.843,61.89,76.45,61.89z"
		/>
	<path fill="#FFFFFF" d="M92.802,62.039h-3.014v7.736h-1.535v-7.736h-2.955v-1.245h7.503V62.039z"/>
	<path fill="#FFFFFF" d="M97.359,69.941c-0.625,0-1.189-0.107-1.697-0.324c-0.506-0.215-0.939-0.516-1.299-0.9
		s-0.637-0.842-0.83-1.373s-0.291-1.113-0.291-1.744v-0.348c0-0.73,0.109-1.384,0.328-1.959c0.219-0.576,0.512-1.061,0.877-1.453
		s0.783-0.693,1.252-0.9c0.471-0.208,0.961-0.312,1.471-0.312c0.641,0,1.195,0.112,1.66,0.336c0.465,0.225,0.848,0.533,1.148,0.926
		c0.303,0.393,0.525,0.857,0.668,1.395c0.145,0.537,0.217,1.12,0.217,1.751v0.689h-6.084c0.01,0.415,0.078,0.803,0.203,1.162
		s0.301,0.672,0.531,0.938c0.229,0.266,0.506,0.477,0.83,0.631c0.324,0.155,0.689,0.232,1.1,0.232c0.543,0,1.002-0.11,1.377-0.332
		c0.377-0.221,0.707-0.514,0.988-0.879l0.938,0.73c-0.143,0.221-0.316,0.436-0.521,0.643c-0.205,0.208-0.445,0.394-0.719,0.557
		s-0.588,0.293-0.941,0.39C98.208,69.893,97.808,69.941,97.359,69.941z M97.169,61.89c-0.311,0-0.596,0.057-0.855,0.17
		s-0.492,0.278-0.697,0.494s-0.375,0.484-0.51,0.806c-0.137,0.32-0.229,0.688-0.279,1.104h4.5v-0.116
		c-0.018-0.299-0.066-0.595-0.146-0.888c-0.08-0.294-0.203-0.557-0.373-0.789c-0.168-0.232-0.387-0.421-0.652-0.564
		S97.562,61.89,97.169,61.89z"/>
	<path fill="#FFFFFF" d="M110.001,60.794v8.981h-1.545v-7.711h-3.045l-0.109,2.572c-0.037,0.853-0.111,1.6-0.219,2.242
		c-0.107,0.642-0.275,1.177-0.502,1.605s-0.529,0.752-0.906,0.967c-0.375,0.217-0.848,0.324-1.418,0.324h-0.449l0.033-1.369
		l0.332-0.009c0.299,0,0.545-0.07,0.734-0.212c0.191-0.141,0.346-0.362,0.461-0.664c0.117-0.302,0.203-0.69,0.262-1.166
		s0.104-1.049,0.137-1.719l0.166-3.843H110.001z"/>
	<path fill="#FFFFFF" d="M116.193,69.941c-0.625,0-1.189-0.107-1.697-0.324c-0.506-0.215-0.939-0.516-1.299-0.9
		s-0.637-0.842-0.83-1.373s-0.291-1.113-0.291-1.744v-0.348c0-0.73,0.109-1.384,0.328-1.959c0.219-0.576,0.512-1.061,0.877-1.453
		s0.783-0.693,1.252-0.9c0.471-0.208,0.961-0.312,1.471-0.312c0.641,0,1.195,0.112,1.66,0.336c0.465,0.225,0.848,0.533,1.148,0.926
		c0.303,0.393,0.525,0.857,0.668,1.395c0.145,0.537,0.217,1.12,0.217,1.751v0.689h-6.084c0.01,0.415,0.078,0.803,0.203,1.162
		s0.301,0.672,0.531,0.938c0.229,0.266,0.506,0.477,0.83,0.631c0.324,0.155,0.689,0.232,1.1,0.232c0.543,0,1.002-0.11,1.377-0.332
		c0.377-0.221,0.707-0.514,0.988-0.879l0.938,0.73c-0.143,0.221-0.316,0.436-0.521,0.643c-0.205,0.208-0.445,0.394-0.719,0.557
		s-0.588,0.293-0.941,0.39C117.042,69.893,116.642,69.941,116.193,69.941z M116.003,61.89c-0.311,0-0.596,0.057-0.855,0.17
		s-0.492,0.278-0.697,0.494s-0.375,0.484-0.51,0.806c-0.137,0.32-0.229,0.688-0.279,1.104h4.5v-0.116
		c-0.018-0.299-0.066-0.595-0.146-0.888c-0.08-0.294-0.203-0.557-0.373-0.789c-0.168-0.232-0.387-0.421-0.652-0.564
		S116.396,61.89,116.003,61.89z"/>
	<path fill="#FFFFFF" d="M121.615,69.775v-8.981h3.504c0.568,0,1.084,0.05,1.543,0.149s0.85,0.25,1.17,0.452
		c0.322,0.202,0.568,0.458,0.74,0.769c0.17,0.31,0.256,0.675,0.256,1.096c0,0.414-0.123,0.789-0.373,1.124
		c-0.248,0.335-0.617,0.591-1.104,0.769c0.287,0.066,0.543,0.167,0.768,0.303s0.414,0.295,0.568,0.477
		c0.154,0.184,0.271,0.385,0.35,0.606c0.076,0.222,0.115,0.451,0.115,0.688c0,0.427-0.08,0.799-0.24,1.117s-0.391,0.582-0.689,0.793
		c-0.299,0.21-0.662,0.369-1.088,0.477c-0.426,0.108-0.906,0.162-1.443,0.162H121.615z M123.15,64.604h1.984
		c1.439,0,2.158-0.42,2.158-1.262c0-0.868-0.725-1.303-2.174-1.303h-1.969V64.604z M123.15,65.832v2.707h2.541
		c0.641,0,1.121-0.119,1.439-0.357s0.479-0.572,0.479-1.004c0-0.427-0.16-0.757-0.479-0.992s-0.799-0.354-1.439-0.354H123.15z"/>
	<path fill="#FFFFFF" d="M136.996,60.794h1.535v8.981h-1.535v-6.549l-4.143,6.549h-1.535v-8.981h1.535v6.558L136.996,60.794z"/>
	<path fill="#FFFFFF" d="M140.923,68.521c0.182-0.215,0.357-0.437,0.525-0.664c0.17-0.227,0.322-0.502,0.461-0.825
		c0.139-0.324,0.258-0.716,0.357-1.175s0.172-1.023,0.217-1.693l0.133-3.37h5.785v7.728h1.154v3.894h-1.537v-2.64h-6.266v2.64
		h-1.537l0.01-3.894H140.923z M144.019,64.164c-0.027,0.525-0.08,1.006-0.154,1.44s-0.168,0.83-0.281,1.187
		c-0.113,0.357-0.242,0.678-0.387,0.963s-0.299,0.541-0.465,0.768h4.135v-6.309h-2.766L144.019,64.164z"/>
	<path fill="#FFFFFF" d="M154.984,69.941c-0.625,0-1.191-0.107-1.697-0.324c-0.506-0.215-0.939-0.516-1.299-0.9
		s-0.637-0.842-0.83-1.373s-0.291-1.113-0.291-1.744v-0.348c0-0.73,0.109-1.384,0.328-1.959c0.219-0.576,0.51-1.061,0.875-1.453
		s0.783-0.693,1.254-0.9c0.471-0.208,0.961-0.312,1.469-0.312c0.643,0,1.195,0.112,1.66,0.336c0.465,0.225,0.848,0.533,1.15,0.926
		c0.301,0.393,0.523,0.857,0.668,1.395s0.217,1.12,0.217,1.751v0.689h-6.086c0.012,0.415,0.08,0.803,0.203,1.162
		c0.125,0.359,0.303,0.672,0.531,0.938c0.23,0.266,0.508,0.477,0.83,0.631c0.324,0.155,0.691,0.232,1.102,0.232
		c0.541,0,1-0.11,1.377-0.332c0.377-0.221,0.705-0.514,0.988-0.879l0.938,0.73c-0.145,0.221-0.318,0.436-0.523,0.643
		c-0.205,0.208-0.443,0.394-0.717,0.557c-0.275,0.163-0.588,0.293-0.943,0.39C155.833,69.893,155.433,69.941,154.984,69.941z
		 M154.792,61.89c-0.309,0-0.594,0.057-0.854,0.17c-0.262,0.113-0.494,0.278-0.697,0.494c-0.205,0.216-0.375,0.484-0.512,0.806
		c-0.135,0.32-0.229,0.688-0.277,1.104h4.498v-0.116c-0.016-0.299-0.064-0.595-0.145-0.888c-0.08-0.294-0.205-0.557-0.373-0.789
		c-0.17-0.232-0.387-0.421-0.652-0.564S155.185,61.89,154.792,61.89z"/>
	<path fill="#FFFFFF" d="M167.601,69.775h-1.535V65.94h-4.125v3.835h-1.545v-8.981h1.545v3.894h4.125v-3.894h1.535V69.775z"/>
	<path fill="#FFFFFF" d="M175.876,60.794h1.535v8.981h-1.535v-6.549l-4.143,6.549h-1.535v-8.981h1.535v6.558L175.876,60.794z"/>
	<path fill="#FFFFFF" d="M183.605,69.941c-0.625,0-1.191-0.107-1.697-0.324c-0.506-0.215-0.939-0.516-1.299-0.9
		s-0.637-0.842-0.83-1.373s-0.291-1.113-0.291-1.744v-0.348c0-0.73,0.109-1.384,0.328-1.959c0.219-0.576,0.51-1.061,0.875-1.453
		s0.783-0.693,1.254-0.9c0.471-0.208,0.961-0.312,1.469-0.312c0.643,0,1.195,0.112,1.66,0.336c0.465,0.225,0.848,0.533,1.15,0.926
		c0.301,0.393,0.523,0.857,0.668,1.395s0.217,1.12,0.217,1.751v0.689h-6.086c0.012,0.415,0.08,0.803,0.203,1.162
		c0.125,0.359,0.303,0.672,0.531,0.938c0.23,0.266,0.508,0.477,0.83,0.631c0.324,0.155,0.691,0.232,1.102,0.232
		c0.541,0,1-0.11,1.377-0.332c0.377-0.221,0.705-0.514,0.988-0.879l0.938,0.73c-0.145,0.221-0.318,0.436-0.523,0.643
		c-0.205,0.208-0.443,0.394-0.717,0.557c-0.275,0.163-0.588,0.293-0.943,0.39C184.455,69.893,184.054,69.941,183.605,69.941z
		 M183.414,61.89c-0.309,0-0.594,0.057-0.854,0.17c-0.262,0.113-0.494,0.278-0.697,0.494c-0.205,0.216-0.375,0.484-0.512,0.806
		c-0.135,0.32-0.229,0.688-0.277,1.104h4.498v-0.116c-0.016-0.299-0.064-0.595-0.145-0.888c-0.08-0.294-0.205-0.557-0.373-0.789
		c-0.17-0.232-0.387-0.421-0.652-0.564S183.806,61.89,183.414,61.89z"/>
</g>
</svg>
