<?xml version="1.0" encoding="utf-8"?>
<!-- Generator: Adobe Illustrator 16.0.0, SVG Export Plug-In . SVG Version: 6.00 Build 0)  -->
<!DOCTYPE svg PUBLIC "-//W3C//DTD SVG 1.1//EN" "http://www.w3.org/Graphics/SVG/1.1/DTD/svg11.dtd">
<svg version="1.1" id="Слой_1" xmlns="http://www.w3.org/2000/svg" xmlns:xlink="http://www.w3.org/1999/xlink" x="0px" y="0px"
	 width="170.498px" height="73.128px" viewBox="0 0 170.498 73.128" enable-background="new 0 0 170.498 73.128"
	 xml:space="preserve">
<g>
	<path fill="none" stroke="#FFFFFF" stroke-width="3" stroke-miterlimit="10" d="M88.605,30.229H63.995
		c-1.96,0-3.55-1.591-3.55-3.551V5.051c0-1.962,1.589-3.551,3.55-3.551H96.66c1.96,0,3.55,1.589,3.55,3.551v18.812"/>
	<path fill="none" stroke="#FFFFFF" stroke-width="3" stroke-linecap="round" stroke-miterlimit="10" d="M77.438,30.229"/>
	<path fill="none" stroke="#FFFFFF" stroke-width="3" stroke-linecap="round" stroke-miterlimit="10" d="M83.204,30.229"/>
	<path fill="none" stroke="#FFFFFF" stroke-width="3" stroke-miterlimit="10" d="M110.054,34.381c0,1.961-1.59,3.552-3.55,3.552
		H92.105c-1.962,0-3.552-1.591-3.552-3.552v-3.912v-2.555c0-1.96,1.59-3.55,3.552-3.55h8.104h6.294c1.96,0,3.55,1.59,3.55,3.55
		V34.381z"/>
	<circle fill="#FFFFFF" cx="93.663" cy="31.148" r="1.695"/>
	<circle fill="#FFFFFF" cx="64.94" cy="15.864" r="1.694"/>
	<line fill="none" stroke="#FFFFFF" stroke-width="3" stroke-miterlimit="10" x1="69.645" y1="1.5" x2="69.645" y2="29.733"/>
</g>
<g>
	<path fill="#FFFFFF" d="M2.059,57.589L6.01,67.45l3.951-9.861h2.067v12.086h-1.594v-4.707l0.149-5.08l-3.968,9.787h-1.22
		l-3.959-9.762l0.158,5.055v4.707H0V57.589H2.059z"/>
	<path fill="#FFFFFF" d="M14.194,65.101c0-0.652,0.095-1.257,0.287-1.813c0.19-0.556,0.462-1.039,0.813-1.448
		c0.351-0.409,0.779-0.73,1.282-0.963s1.068-0.349,1.693-0.349c0.636,0,1.208,0.116,1.714,0.349
		c0.507,0.232,0.937,0.554,1.291,0.963s0.625,0.893,0.813,1.448c0.188,0.557,0.282,1.161,0.282,1.813v0.184
		c0,0.652-0.094,1.257-0.282,1.813c-0.188,0.556-0.459,1.037-0.813,1.444c-0.354,0.406-0.783,0.725-1.287,0.954
		s-1.071,0.345-1.702,0.345s-1.198-0.115-1.702-0.345s-0.933-0.548-1.287-0.954c-0.354-0.407-0.627-0.889-0.817-1.444
		c-0.191-0.557-0.287-1.161-0.287-1.813V65.101z M15.738,65.284c0,0.447,0.053,0.871,0.158,1.27s0.264,0.748,0.478,1.05
		c0.213,0.302,0.479,0.541,0.797,0.718c0.318,0.178,0.69,0.266,1.116,0.266c0.42,0,0.792-0.088,1.112-0.266
		c0.321-0.177,0.586-0.416,0.797-0.718s0.369-0.651,0.478-1.05c0.107-0.398,0.162-0.822,0.162-1.27v-0.184
		c0-0.442-0.054-0.864-0.162-1.266c-0.108-0.401-0.269-0.752-0.481-1.054c-0.213-0.302-0.48-0.543-0.801-0.723
		s-0.694-0.27-1.121-0.27c-0.42,0-0.789,0.09-1.104,0.27s-0.58,0.421-0.792,0.723c-0.213,0.302-0.373,0.652-0.478,1.054
		s-0.158,0.823-0.158,1.266V65.284z"/>
	<path fill="#FFFFFF" d="M28.239,61.208c0.586,0,1.109,0.103,1.569,0.307c0.459,0.205,0.85,0.49,1.17,0.855s0.566,0.796,0.735,1.291
		c0.168,0.495,0.253,1.033,0.253,1.614v0.19c0,0.626-0.09,1.205-0.27,1.739c-0.18,0.534-0.443,0.996-0.789,1.387
		c-0.346,0.39-0.766,0.695-1.262,0.917c-0.495,0.222-1.058,0.332-1.689,0.332s-1.194-0.11-1.689-0.332
		c-0.496-0.222-0.916-0.527-1.262-0.917c-0.346-0.391-0.61-0.853-0.793-1.387s-0.274-1.113-0.274-1.739v-0.19v-0.058v-0.573
		c0-1.019,0.098-1.909,0.294-2.673c0.197-0.764,0.474-1.411,0.83-1.942c0.357-0.531,0.785-0.952,1.283-1.262s1.049-0.522,1.652-0.64
		c0.321-0.055,0.609-0.115,0.863-0.182s0.472-0.15,0.651-0.25c0.18-0.1,0.317-0.223,0.411-0.369s0.141-0.328,0.141-0.543h1.262
		c0,0.542-0.084,0.971-0.253,1.286c-0.168,0.315-0.393,0.562-0.672,0.739c-0.28,0.177-0.601,0.308-0.963,0.394
		c-0.363,0.086-0.735,0.171-1.117,0.253c-0.376,0.084-0.732,0.197-1.067,0.341c-0.334,0.144-0.635,0.338-0.9,0.581
		s-0.493,0.548-0.681,0.913s-0.324,0.808-0.407,1.328c0.36-0.415,0.787-0.754,1.283-1.017C27.045,61.34,27.608,61.208,28.239,61.208
		z M27.94,62.47c-0.42,0-0.786,0.076-1.096,0.229s-0.566,0.356-0.768,0.614c-0.202,0.257-0.351,0.556-0.448,0.896
		c-0.097,0.34-0.145,0.695-0.145,1.066v0.19c0,0.421,0.048,0.821,0.145,1.2c0.097,0.379,0.248,0.711,0.453,0.996
		s0.462,0.512,0.772,0.681s0.678,0.253,1.104,0.253c0.42,0,0.787-0.084,1.1-0.253c0.313-0.169,0.57-0.396,0.771-0.681
		c0.202-0.285,0.353-0.617,0.453-0.996s0.149-0.779,0.149-1.2v-0.19c0-0.371-0.05-0.727-0.149-1.066
		c-0.1-0.341-0.252-0.64-0.457-0.896c-0.205-0.258-0.463-0.462-0.776-0.614C28.736,62.546,28.367,62.47,27.94,62.47z"/>
	<path fill="#FFFFFF" d="M39.362,60.693h1.535v8.981h-1.535v-6.549l-4.142,6.549h-1.536v-8.981h1.536v6.558L39.362,60.693z"/>
	<path fill="#FFFFFF" d="M50.727,60.693v8.981h-1.545v-7.711h-3.046l-0.108,2.572c-0.038,0.853-0.111,1.6-0.22,2.242
		c-0.107,0.642-0.275,1.177-0.502,1.605s-0.528,0.752-0.905,0.967c-0.376,0.217-0.849,0.324-1.419,0.324h-0.448l0.033-1.369
		l0.332-0.009c0.299,0,0.544-0.07,0.734-0.212c0.191-0.141,0.345-0.362,0.461-0.664s0.203-0.69,0.262-1.166
		c0.058-0.476,0.104-1.049,0.137-1.719l0.166-3.843H50.727z"/>
	<path fill="#FFFFFF" d="M54.868,63.79h2.282c0.549,0,1.031,0.073,1.449,0.22s0.768,0.349,1.05,0.605
		c0.282,0.258,0.495,0.564,0.64,0.922c0.144,0.356,0.215,0.745,0.215,1.166c0,0.415-0.071,0.804-0.215,1.166
		c-0.145,0.362-0.357,0.677-0.64,0.942s-0.632,0.476-1.05,0.631s-0.9,0.232-1.449,0.232h-3.818v-8.981h1.536V63.79z M54.868,65.043
		v3.378h2.282c0.332,0,0.615-0.047,0.848-0.141s0.419-0.219,0.56-0.373c0.142-0.155,0.244-0.332,0.308-0.531
		s0.096-0.404,0.096-0.615c0-0.199-0.032-0.4-0.096-0.605s-0.166-0.391-0.308-0.557c-0.141-0.166-0.327-0.3-0.56-0.402
		s-0.516-0.153-0.848-0.153H54.868z"/>
	<path fill="#FFFFFF" d="M69.76,69.675h-1.535V65.84h-4.126v3.835h-1.544v-8.981h1.544v3.894h4.126v-3.894h1.535V69.675z"/>
	<path fill="#FFFFFF" d="M73.901,63.79h2.282c0.549,0,1.031,0.073,1.449,0.22s0.768,0.349,1.05,0.605
		c0.282,0.258,0.495,0.564,0.64,0.922c0.144,0.356,0.215,0.745,0.215,1.166c0,0.415-0.071,0.804-0.215,1.166
		c-0.145,0.362-0.357,0.677-0.64,0.942s-0.632,0.476-1.05,0.631s-0.9,0.232-1.449,0.232h-3.818v-8.981h1.536V63.79z M73.901,65.043
		v3.378h2.282c0.332,0,0.615-0.047,0.848-0.141s0.419-0.219,0.56-0.373c0.142-0.155,0.244-0.332,0.308-0.531
		s0.096-0.404,0.096-0.615c0-0.199-0.032-0.4-0.096-0.605s-0.166-0.391-0.308-0.557c-0.141-0.166-0.327-0.3-0.56-0.402
		s-0.516-0.153-0.848-0.153H73.901z M82.742,69.675h-1.545v-8.981h1.545V69.675z"/>
	<path fill="#FFFFFF" d="M91.234,60.693h1.535v8.981h-1.535v-6.549l-4.143,6.549h-1.535v-8.981h1.535v6.558L91.234,60.693z
		 M91.649,57.423c0,0.326-0.057,0.625-0.17,0.896s-0.278,0.505-0.494,0.701s-0.478,0.351-0.784,0.461
		c-0.308,0.11-0.652,0.166-1.033,0.166c-0.383,0-0.727-0.056-1.034-0.166c-0.307-0.11-0.568-0.265-0.784-0.461
		s-0.382-0.43-0.498-0.701s-0.174-0.57-0.174-0.896h1.253c0,0.166,0.022,0.324,0.066,0.473c0.044,0.15,0.115,0.281,0.212,0.395
		s0.224,0.203,0.382,0.27c0.157,0.066,0.35,0.1,0.577,0.1c0.221,0,0.41-0.033,0.568-0.1c0.157-0.066,0.286-0.156,0.386-0.27
		s0.172-0.244,0.216-0.395c0.044-0.148,0.066-0.307,0.066-0.473H91.649z"/>
	<path fill="#FFFFFF" d="M105.254,60.693h1.535v8.981h-1.535v-6.549l-4.143,6.549h-1.535v-8.981h1.535v6.558L105.254,60.693z"/>
	<path fill="#FFFFFF" d="M116.593,69.675h-1.535V65.84h-4.126v3.835h-1.544v-8.981h1.544v3.894h4.126v-3.894h1.535V69.675z"/>
	<path fill="#FFFFFF" d="M125.732,61.938h-3.014v7.736h-1.535v-7.736h-2.955v-1.245h7.504V61.938z"/>
	<path fill="#FFFFFF" d="M130.289,69.841c-0.625,0-1.19-0.107-1.697-0.324c-0.506-0.215-0.939-0.516-1.299-0.9
		s-0.637-0.842-0.83-1.373s-0.291-1.113-0.291-1.744v-0.348c0-0.73,0.109-1.384,0.328-1.959c0.219-0.576,0.511-1.061,0.876-1.453
		s0.783-0.693,1.253-0.9c0.471-0.208,0.961-0.312,1.47-0.312c0.642,0,1.195,0.112,1.66,0.336c0.465,0.225,0.848,0.533,1.149,0.926
		s0.524,0.857,0.668,1.395c0.145,0.537,0.217,1.12,0.217,1.751v0.689h-6.085c0.011,0.415,0.079,0.803,0.203,1.162
		c0.125,0.359,0.302,0.672,0.531,0.938s0.507,0.477,0.83,0.631c0.324,0.155,0.69,0.232,1.101,0.232c0.542,0,1.001-0.11,1.377-0.332
		c0.377-0.221,0.706-0.514,0.988-0.879l0.938,0.73c-0.144,0.221-0.317,0.436-0.522,0.643c-0.205,0.208-0.444,0.394-0.718,0.557
		c-0.274,0.163-0.588,0.293-0.942,0.39S130.738,69.841,130.289,69.841z M130.099,61.789c-0.31,0-0.595,0.057-0.854,0.17
		c-0.261,0.113-0.493,0.278-0.697,0.494c-0.205,0.216-0.375,0.484-0.511,0.806c-0.136,0.32-0.229,0.688-0.278,1.104h4.499v-0.116
		c-0.017-0.299-0.065-0.595-0.146-0.888c-0.08-0.294-0.204-0.557-0.373-0.789s-0.387-0.421-0.652-0.564
		S130.491,61.789,130.099,61.789z"/>
	<path fill="#FFFFFF" d="M143.155,65.284c0,0.658-0.077,1.266-0.232,1.821c-0.155,0.557-0.381,1.038-0.677,1.444
		c-0.296,0.407-0.66,0.724-1.092,0.951c-0.432,0.227-0.924,0.34-1.477,0.34c-0.564,0-1.059-0.089-1.482-0.266
		c-0.423-0.177-0.787-0.435-1.092-0.771v4.324h-1.535V60.693h1.402l0.075,0.996c0.305-0.376,0.673-0.664,1.104-0.863
		s0.932-0.299,1.502-0.299c0.564,0,1.063,0.11,1.498,0.332s0.801,0.532,1.1,0.934s0.524,0.883,0.677,1.444s0.229,1.186,0.229,1.872
		V65.284z M141.619,65.109c0-0.448-0.047-0.87-0.141-1.266s-0.24-0.743-0.439-1.042s-0.451-0.535-0.756-0.71
		c-0.305-0.174-0.667-0.261-1.088-0.261c-0.26,0-0.496,0.03-0.709,0.091s-0.405,0.146-0.577,0.257
		c-0.172,0.111-0.323,0.242-0.456,0.395s-0.25,0.317-0.35,0.494v4.291c0.1,0.178,0.217,0.342,0.35,0.494s0.284,0.282,0.456,0.391
		c0.172,0.107,0.365,0.192,0.581,0.253s0.457,0.091,0.723,0.091c0.414,0,0.772-0.088,1.074-0.266
		c0.302-0.177,0.553-0.414,0.752-0.713s0.346-0.649,0.439-1.051s0.141-0.826,0.141-1.273V65.109z"/>
	<path fill="#FFFFFF" d="M152.443,69.675h-1.535V65.84h-4.126v3.835h-1.544v-8.981h1.544v3.894h4.126v-3.894h1.535V69.675z"/>
	<path fill="#FFFFFF" d="M158.636,69.841c-0.625,0-1.19-0.107-1.697-0.324c-0.506-0.215-0.939-0.516-1.299-0.9
		s-0.637-0.842-0.83-1.373s-0.291-1.113-0.291-1.744v-0.348c0-0.73,0.109-1.384,0.328-1.959c0.219-0.576,0.511-1.061,0.876-1.453
		s0.783-0.693,1.253-0.9c0.471-0.208,0.961-0.312,1.47-0.312c0.642,0,1.195,0.112,1.66,0.336c0.465,0.225,0.848,0.533,1.149,0.926
		s0.524,0.857,0.668,1.395c0.145,0.537,0.217,1.12,0.217,1.751v0.689h-6.085c0.011,0.415,0.079,0.803,0.203,1.162
		c0.125,0.359,0.302,0.672,0.531,0.938s0.507,0.477,0.83,0.631c0.324,0.155,0.69,0.232,1.101,0.232c0.542,0,1.001-0.11,1.377-0.332
		c0.377-0.221,0.706-0.514,0.988-0.879l0.938,0.73c-0.144,0.221-0.317,0.436-0.522,0.643c-0.205,0.208-0.444,0.394-0.718,0.557
		c-0.274,0.163-0.588,0.293-0.942,0.39S159.085,69.841,158.636,69.841z M158.445,61.789c-0.31,0-0.595,0.057-0.854,0.17
		c-0.261,0.113-0.493,0.278-0.697,0.494c-0.205,0.216-0.375,0.484-0.511,0.806c-0.136,0.32-0.229,0.688-0.278,1.104h4.499v-0.116
		c-0.017-0.299-0.065-0.595-0.146-0.888c-0.08-0.294-0.204-0.557-0.373-0.789s-0.387-0.421-0.652-0.564
		S158.838,61.789,158.445,61.789z"/>
	<path fill="#FFFFFF" d="M170.498,61.938h-3.014v7.736h-1.535v-7.736h-2.955v-1.245h7.504V61.938z"/>
</g>
</svg>
