<?xml version="1.0" encoding="utf-8"?>
<!-- Generator: Adobe Illustrator 16.0.0, SVG Export Plug-In . SVG Version: 6.00 Build 0)  -->
<!DOCTYPE svg PUBLIC "-//W3C//DTD SVG 1.1//EN" "http://www.w3.org/Graphics/SVG/1.1/DTD/svg11.dtd">
<svg version="1.1" id="Слой_1" xmlns="http://www.w3.org/2000/svg" xmlns:xlink="http://www.w3.org/1999/xlink" x="0px" y="0px"
	 width="86.42px" height="74.46px" viewBox="0 0 86.42 74.46" enable-background="new 0 0 86.42 74.46" xml:space="preserve">
<g>
	<path fill="none" stroke="#FFFFFF" stroke-width="3" stroke-miterlimit="10" d="M37.465,3.21h27.433
		c1.631,0,2.965,1.335,2.965,2.965v25.671c0,1.631-1.334,2.966-2.965,2.966H37.465V3.21z"/>
</g>
<path fill="none" stroke="#FFFFFF" stroke-width="3" stroke-miterlimit="10" d="M32.684,3.21v31.716
	c0,1.007-2.923,1.824-6.529,1.824c-3.606,0-6.53-0.817-6.53-1.824V3.21v0.115c0-1.008,2.923-1.825,6.53-1.825
	c3.606,0,6.529,0.817,6.529,1.825"/>
<path fill="none" stroke="#FFFFFF" stroke-width="3" stroke-miterlimit="10" d="M45.807,8.758h13.654c0.498,0,0.9,1.54,0.9,3.438
	c0,1.899-0.402,3.437-0.9,3.437H45.807h0.057c-0.496,0-0.898-1.537-0.898-3.437c0-1.898,0.402-3.438,0.898-3.438"/>
<g>
	<circle fill="#FFFFFF" cx="46.847" cy="21.277" r="1.501"/>
	<path fill="#FFFFFF" d="M54.164,21.277c0,0.828-0.672,1.501-1.5,1.501c-0.832,0-1.502-0.673-1.502-1.501
		c0-0.831,0.67-1.502,1.502-1.502C53.492,19.775,54.164,20.446,54.164,21.277z"/>
	<circle fill="#FFFFFF" cx="58.48" cy="21.277" r="1.502"/>
	<circle fill="#FFFFFF" cx="46.847" cy="26.523" r="1.501"/>
	<path fill="#FFFFFF" d="M54.164,26.523c0,0.829-0.672,1.501-1.5,1.501c-0.832,0-1.502-0.672-1.502-1.501
		c0-0.83,0.67-1.502,1.502-1.502C53.492,25.021,54.164,25.693,54.164,26.523z"/>
	<circle fill="#FFFFFF" cx="58.48" cy="26.523" r="1.502"/>
</g>
<g>
	<path fill="#FFFFFF" d="M9.347,60.232H5.462v10.774H3.876V60.232H0v-1.312h9.347V60.232z"/>
	<path fill="#FFFFFF" d="M13.804,71.173c-0.625,0-1.191-0.107-1.698-0.324c-0.506-0.215-0.939-0.516-1.299-0.9
		s-0.636-0.842-0.83-1.373s-0.291-1.113-0.291-1.744v-0.348c0-0.73,0.109-1.384,0.328-1.959c0.219-0.576,0.511-1.061,0.876-1.453
		s0.783-0.693,1.253-0.9c0.47-0.208,0.96-0.312,1.469-0.312c0.642,0,1.195,0.112,1.66,0.336c0.465,0.225,0.848,0.533,1.149,0.926
		c0.302,0.393,0.524,0.857,0.668,1.395s0.216,1.12,0.216,1.751v0.689h-6.084c0.011,0.415,0.079,0.803,0.203,1.162
		c0.125,0.359,0.302,0.672,0.531,0.938c0.23,0.266,0.507,0.477,0.83,0.631c0.324,0.155,0.69,0.232,1.1,0.232
		c0.542,0,1.001-0.11,1.378-0.332c0.376-0.221,0.706-0.514,0.988-0.879l0.938,0.73c-0.144,0.221-0.318,0.436-0.523,0.643
		c-0.205,0.208-0.444,0.394-0.718,0.557c-0.274,0.163-0.588,0.293-0.942,0.39S14.252,71.173,13.804,71.173z M13.613,63.121
		c-0.31,0-0.595,0.057-0.855,0.17s-0.493,0.278-0.697,0.494s-0.375,0.484-0.51,0.806c-0.136,0.32-0.229,0.688-0.278,1.104h4.499
		v-0.116c-0.017-0.299-0.065-0.595-0.146-0.888c-0.08-0.294-0.205-0.557-0.373-0.789c-0.169-0.232-0.386-0.421-0.652-0.564
		S14.006,63.121,13.613,63.121z"/>
	<path fill="#FFFFFF" d="M26.446,62.025v8.981h-1.544v-7.711h-3.046l-0.108,2.572c-0.039,0.853-0.112,1.6-0.22,2.242
		c-0.107,0.642-0.275,1.177-0.502,1.605s-0.528,0.752-0.905,0.967c-0.376,0.217-0.85,0.324-1.419,0.324h-0.448l0.033-1.369
		l0.332-0.009c0.299,0,0.544-0.07,0.734-0.212c0.191-0.141,0.345-0.362,0.461-0.664s0.203-0.69,0.262-1.166
		c0.058-0.476,0.104-1.049,0.137-1.719l0.166-3.843H26.446z"/>
	<path fill="#FFFFFF" d="M32.639,71.173c-0.625,0-1.191-0.107-1.698-0.324c-0.506-0.215-0.939-0.516-1.299-0.9
		s-0.636-0.842-0.83-1.373s-0.291-1.113-0.291-1.744v-0.348c0-0.73,0.109-1.384,0.328-1.959c0.219-0.576,0.511-1.061,0.876-1.453
		s0.783-0.693,1.253-0.9c0.47-0.208,0.96-0.312,1.469-0.312c0.642,0,1.195,0.112,1.66,0.336c0.465,0.225,0.848,0.533,1.149,0.926
		c0.303,0.393,0.525,0.857,0.668,1.395c0.145,0.537,0.217,1.12,0.217,1.751v0.689h-6.084c0.011,0.415,0.079,0.803,0.203,1.162
		c0.125,0.359,0.302,0.672,0.531,0.938c0.23,0.266,0.507,0.477,0.83,0.631c0.324,0.155,0.69,0.232,1.1,0.232
		c0.542,0,1.001-0.11,1.378-0.332c0.376-0.221,0.706-0.514,0.987-0.879l0.938,0.73c-0.143,0.221-0.316,0.436-0.521,0.643
		c-0.205,0.208-0.445,0.394-0.719,0.557s-0.588,0.293-0.942,0.39S33.087,71.173,32.639,71.173z M32.448,63.121
		c-0.31,0-0.595,0.057-0.855,0.17s-0.493,0.278-0.697,0.494s-0.375,0.484-0.51,0.806c-0.136,0.32-0.229,0.688-0.278,1.104h4.5
		v-0.116c-0.018-0.299-0.065-0.595-0.146-0.888c-0.08-0.294-0.204-0.557-0.373-0.789c-0.169-0.232-0.386-0.421-0.652-0.564
		S32.841,63.121,32.448,63.121z"/>
	<path fill="#FFFFFF" d="M37.586,66.683c0-0.709,0.069-1.357,0.207-1.947c0.139-0.589,0.345-1.097,0.619-1.523
		c0.273-0.426,0.614-0.758,1.021-0.996c0.407-0.237,0.879-0.356,1.415-0.356c0.471,0,0.883,0.08,1.237,0.241v-3.844h1.536v3.893
		c0.188-0.094,0.394-0.166,0.618-0.215c0.224-0.051,0.472-0.075,0.743-0.075c0.536,0,1.01,0.119,1.419,0.356
		c0.409,0.238,0.751,0.57,1.025,0.996c0.273,0.427,0.479,0.935,0.618,1.523c0.139,0.59,0.207,1.238,0.207,1.947v0.174
		c0,0.631-0.07,1.212-0.211,1.743c-0.142,0.531-0.349,0.987-0.623,1.37c-0.273,0.381-0.612,0.679-1.017,0.892
		s-0.872,0.319-1.403,0.319c-0.536,0-0.996-0.088-1.377-0.266v3.545h-1.536v-3.52c-0.177,0.077-0.369,0.137-0.577,0.179
		c-0.207,0.041-0.433,0.062-0.676,0.062c-0.526,0-0.991-0.106-1.395-0.319c-0.404-0.213-0.743-0.511-1.018-0.892
		c-0.273-0.383-0.481-0.839-0.622-1.37c-0.142-0.531-0.212-1.112-0.212-1.743V66.683z M39.121,66.856
		c0,0.426,0.036,0.826,0.108,1.199c0.072,0.374,0.19,0.699,0.356,0.976s0.383,0.495,0.648,0.655
		c0.266,0.161,0.592,0.241,0.979,0.241c0.178,0,0.338-0.014,0.482-0.042c0.144-0.027,0.273-0.063,0.39-0.107v-6.516
		c-0.11-0.045-0.236-0.079-0.378-0.104c-0.141-0.024-0.3-0.037-0.477-0.037c-0.394,0-0.724,0.096-0.992,0.286
		c-0.269,0.191-0.486,0.448-0.652,0.772c-0.166,0.323-0.284,0.701-0.356,1.133s-0.108,0.888-0.108,1.37V66.856z M46.717,66.683
		c0-0.482-0.04-0.938-0.12-1.37s-0.209-0.81-0.386-1.133c-0.178-0.324-0.404-0.581-0.682-0.772c-0.276-0.19-0.608-0.286-0.996-0.286
		c-0.193,0-0.365,0.016-0.514,0.046c-0.15,0.03-0.283,0.07-0.398,0.12v6.499c0.115,0.045,0.251,0.079,0.406,0.104
		c0.155,0.024,0.329,0.037,0.523,0.037c0.387,0,0.718-0.08,0.991-0.241c0.274-0.16,0.498-0.379,0.673-0.655
		c0.174-0.276,0.302-0.602,0.382-0.976c0.08-0.373,0.12-0.773,0.12-1.199V66.683z"/>
	<path fill="#FFFFFF" d="M49.839,66.433c0-0.652,0.095-1.257,0.286-1.813c0.19-0.556,0.462-1.039,0.813-1.448
		s0.778-0.73,1.282-0.963s1.068-0.349,1.693-0.349c0.637,0,1.208,0.116,1.714,0.349c0.507,0.232,0.937,0.554,1.291,0.963
		s0.625,0.893,0.813,1.448c0.188,0.557,0.282,1.161,0.282,1.813v0.184c0,0.652-0.094,1.257-0.282,1.813
		c-0.188,0.556-0.459,1.037-0.813,1.444c-0.354,0.406-0.783,0.725-1.287,0.954c-0.503,0.229-1.07,0.345-1.701,0.345
		s-1.198-0.115-1.701-0.345c-0.504-0.229-0.933-0.548-1.287-0.954c-0.354-0.407-0.627-0.889-0.817-1.444
		c-0.191-0.557-0.286-1.161-0.286-1.813V66.433z M51.382,66.616c0,0.447,0.053,0.871,0.158,1.27s0.265,0.748,0.478,1.05
		s0.479,0.541,0.797,0.718c0.318,0.178,0.69,0.266,1.116,0.266c0.421,0,0.791-0.088,1.112-0.266
		c0.321-0.177,0.587-0.416,0.797-0.718s0.369-0.651,0.478-1.05c0.107-0.398,0.162-0.822,0.162-1.27v-0.184
		c0-0.442-0.055-0.864-0.162-1.266c-0.108-0.401-0.269-0.752-0.481-1.054s-0.48-0.543-0.802-0.723c-0.32-0.18-0.694-0.27-1.12-0.27
		c-0.421,0-0.788,0.09-1.104,0.27c-0.314,0.18-0.579,0.421-0.792,0.723s-0.372,0.652-0.478,1.054s-0.158,0.823-0.158,1.266V66.616z"
		/>
	<path fill="#FFFFFF" d="M67.278,71.007h-1.535v-3.835h-4.126v3.835h-1.544v-8.981h1.544v3.894h4.126v-3.894h1.535V71.007z"/>
	<path fill="#FFFFFF" d="M75.554,62.025h1.535v8.981h-1.535v-6.549l-4.143,6.549h-1.535v-8.981h1.535v6.558L75.554,62.025z"/>
	<path fill="#FFFFFF" d="M86.42,62.025v8.981h-1.545v-3.494H82.56l-2.116,3.494h-1.66l2.258-3.727
		c-0.576-0.211-1.018-0.536-1.324-0.976c-0.308-0.44-0.461-0.953-0.461-1.54c0-0.393,0.076-0.757,0.229-1.092
		s0.373-0.624,0.664-0.867c0.29-0.243,0.647-0.435,1.07-0.572c0.424-0.139,0.906-0.208,1.449-0.208H86.42z M80.8,64.781
		c0,0.183,0.032,0.362,0.096,0.54c0.063,0.177,0.163,0.333,0.299,0.469s0.309,0.246,0.519,0.332s0.465,0.129,0.764,0.129h2.398
		v-2.98h-2.207c-0.332,0-0.616,0.044-0.852,0.133s-0.428,0.203-0.576,0.345c-0.15,0.141-0.261,0.303-0.332,0.485
		C80.836,64.416,80.8,64.599,80.8,64.781z"/>
</g>
</svg>
