<?xml version="1.0" encoding="utf-8"?>
<!-- Generator: Adobe Illustrator 16.0.0, SVG Export Plug-In . SVG Version: 6.00 Build 0)  -->
<!DOCTYPE svg PUBLIC "-//W3C//DTD SVG 1.1//EN" "http://www.w3.org/Graphics/SVG/1.1/DTD/svg11.dtd">
<svg version="1.1" id="Слой_1" xmlns="http://www.w3.org/2000/svg" xmlns:xlink="http://www.w3.org/1999/xlink" x="0px" y="0px"
	 width="311.304px" height="74.032px" viewBox="0 0 311.304 74.032" enable-background="new 0 0 311.304 74.032"
	 xml:space="preserve">
<g>
	<path fill="none" stroke="#FFFFFF" stroke-width="3" stroke-linecap="round" stroke-miterlimit="10" d="M174.608,36.999h4.905
		c2.992,0,5.418-2.426,5.418-5.418c0-2.916-2.309-5.277-5.196-5.396c0.129-0.646,0.199-1.316,0.199-2
		c0-5.63-4.564-10.194-10.193-10.194c-1.223,0-2.388,0.227-3.474,0.62c-1.315-7.447-7.805-13.11-15.629-13.11
		c-8.584,0-15.56,6.812-15.86,15.324c-4.537,1.032-7.927,5.083-7.927,9.933c0,5.631,4.564,10.195,10.195,10.195"/>
	
		<line fill="none" stroke="#FFFFFF" stroke-width="3" stroke-linecap="round" stroke-miterlimit="10" x1="143.044" y1="36.999" x2="153.1" y2="36.999"/>
	
		<rect x="142.286" y="13.99" fill="none" stroke="#FFFFFF" stroke-width="3" stroke-linecap="round" stroke-miterlimit="10" width="11.572" height="18.827"/>
	<circle fill="none" stroke="#FFFFFF" stroke-linecap="round" stroke-miterlimit="10" cx="148.072" cy="19.959" r="3.332"/>
	<circle fill="none" stroke="#FFFFFF" stroke-linecap="round" stroke-miterlimit="10" cx="148.072" cy="19.959" r="1.194"/>
	<line fill="none" stroke="#FFFFFF" stroke-width="2" stroke-miterlimit="10" x1="148.072" y1="32.817" x2="148.072" y2="36.999"/>
	
		<line fill="none" stroke="#FFFFFF" stroke-width="3" stroke-linecap="round" stroke-miterlimit="10" x1="158.124" y1="36.999" x2="168.18" y2="36.999"/>
	
		<circle fill="none" stroke="#FFFFFF" stroke-width="3" stroke-linecap="round" stroke-miterlimit="10" cx="163.153" cy="26.95" r="5.97"/>
	<circle fill="none" stroke="#FFFFFF" stroke-linecap="round" stroke-miterlimit="10" cx="163.152" cy="26.95" r="2.113"/>
	<line fill="none" stroke="#FFFFFF" stroke-width="2" stroke-miterlimit="10" x1="163.153" y1="33.92" x2="163.153" y2="36.999"/>
</g>
<g>
	<path fill="#FFFFFF" d="M0,70.579V58.493h3.951c0.62,0,1.173,0.063,1.66,0.188s0.901,0.318,1.241,0.58
		c0.341,0.264,0.601,0.598,0.78,1.001c0.18,0.403,0.27,0.888,0.27,1.452s-0.161,1.064-0.481,1.498
		c-0.321,0.436-0.758,0.771-1.312,1.01c0.337,0.094,0.638,0.232,0.901,0.414c0.263,0.184,0.484,0.398,0.664,0.648
		c0.18,0.248,0.316,0.527,0.411,0.838s0.141,0.634,0.141,0.971c0,0.564-0.096,1.064-0.286,1.498
		c-0.191,0.436-0.461,0.801-0.81,1.096c-0.349,0.297-0.769,0.52-1.262,0.669s-1.041,0.224-1.644,0.224H0z M1.594,63.648h2.407
		c0.343,0,0.656-0.044,0.938-0.133s0.524-0.216,0.727-0.382c0.202-0.166,0.358-0.369,0.469-0.609C6.245,62.282,6.3,62.01,6.3,61.706
		c0-0.664-0.194-1.146-0.581-1.449c-0.387-0.301-0.977-0.451-1.768-0.451H1.594V63.648z M1.594,64.926v4.35h2.631
		c0.382,0,0.721-0.051,1.017-0.154c0.296-0.102,0.547-0.246,0.751-0.432c0.205-0.185,0.361-0.412,0.469-0.68
		c0.107-0.269,0.162-0.568,0.162-0.9s-0.044-0.635-0.133-0.905s-0.228-0.501-0.419-0.688c-0.19-0.188-0.433-0.334-0.726-0.436
		c-0.293-0.104-0.642-0.154-1.046-0.154H1.594z"/>
	<path fill="#FFFFFF" d="M16.153,61.598h1.536v8.98h-1.536V64.03l-4.142,6.549h-1.536v-8.98h1.536v6.557L16.153,61.598z"/>
	<path fill="#FFFFFF" d="M20.08,69.326c0.183-0.216,0.358-0.437,0.527-0.664c0.169-0.228,0.323-0.503,0.461-0.825
		c0.138-0.324,0.257-0.716,0.357-1.176c0.1-0.459,0.171-1.023,0.216-1.693l0.133-3.369h5.786v7.728h1.154v3.894h-1.536v-2.641H20.91
		v2.641h-1.536l0.008-3.894H20.08z M23.176,64.967c-0.028,0.526-0.079,1.006-0.153,1.441c-0.075,0.434-0.169,0.83-0.282,1.186
		c-0.114,0.357-0.242,0.679-0.386,0.963c-0.144,0.285-0.299,0.541-0.465,0.769h4.134v-6.309h-2.764L23.176,64.967z"/>
	<path fill="#FFFFFF" d="M34.141,70.745c-0.625,0-1.191-0.107-1.698-0.323c-0.506-0.216-0.939-0.517-1.299-0.901
		c-0.36-0.384-0.636-0.842-0.83-1.373s-0.291-1.112-0.291-1.743v-0.349c0-0.73,0.109-1.383,0.328-1.959
		c0.219-0.576,0.511-1.06,0.876-1.453c0.365-0.393,0.783-0.693,1.253-0.9s0.96-0.311,1.469-0.311c0.642,0,1.195,0.111,1.66,0.336
		s0.848,0.532,1.149,0.926c0.302,0.393,0.524,0.857,0.668,1.395c0.144,0.536,0.216,1.12,0.216,1.751v0.688H31.56
		c0.011,0.416,0.079,0.803,0.203,1.162c0.125,0.36,0.302,0.673,0.531,0.938c0.23,0.266,0.507,0.476,0.83,0.631
		c0.324,0.155,0.69,0.232,1.1,0.232c0.542,0,1.001-0.11,1.378-0.332s0.706-0.515,0.988-0.88l0.938,0.73
		c-0.144,0.221-0.318,0.436-0.523,0.643c-0.205,0.209-0.444,0.394-0.718,0.557c-0.274,0.164-0.588,0.293-0.942,0.391
		C34.991,70.697,34.589,70.745,34.141,70.745z M33.95,62.694c-0.31,0-0.595,0.057-0.855,0.17s-0.493,0.277-0.697,0.494
		c-0.205,0.215-0.375,0.484-0.51,0.805c-0.136,0.32-0.229,0.689-0.278,1.104h4.499v-0.115c-0.017-0.299-0.065-0.596-0.146-0.889
		c-0.08-0.293-0.205-0.557-0.373-0.789c-0.169-0.232-0.386-0.42-0.652-0.564C34.672,62.765,34.343,62.694,33.95,62.694z"/>
	<path fill="#FFFFFF" d="M39.014,66.005c0-0.653,0.095-1.257,0.287-1.813c0.19-0.557,0.462-1.039,0.813-1.449
		c0.351-0.409,0.779-0.73,1.282-0.963s1.068-0.348,1.693-0.348c0.636,0,1.208,0.115,1.714,0.348
		c0.507,0.232,0.937,0.554,1.291,0.963c0.354,0.41,0.625,0.893,0.813,1.449s0.282,1.16,0.282,1.813v0.183
		c0,0.652-0.094,1.258-0.282,1.814c-0.188,0.555-0.459,1.037-0.813,1.443s-0.783,0.725-1.287,0.955
		c-0.503,0.229-1.071,0.344-1.702,0.344s-1.198-0.114-1.702-0.344c-0.503-0.23-0.933-0.549-1.287-0.955s-0.627-0.889-0.817-1.443
		c-0.191-0.557-0.287-1.162-0.287-1.814V66.005z M40.558,66.188c0,0.448,0.053,0.871,0.158,1.27s0.264,0.749,0.478,1.051
		c0.213,0.301,0.479,0.541,0.797,0.718c0.318,0.177,0.69,0.266,1.116,0.266c0.42,0,0.792-0.089,1.112-0.266s0.586-0.417,0.797-0.718
		c0.21-0.302,0.369-0.652,0.478-1.051c0.107-0.398,0.162-0.821,0.162-1.27v-0.183c0-0.442-0.054-0.864-0.162-1.267
		c-0.108-0.4-0.269-0.752-0.481-1.053c-0.213-0.303-0.48-0.543-0.801-0.723s-0.694-0.27-1.121-0.27c-0.42,0-0.789,0.09-1.104,0.27
		s-0.58,0.42-0.792,0.723c-0.213,0.301-0.373,0.652-0.478,1.053c-0.105,0.402-0.158,0.824-0.158,1.267V66.188z"/>
	<path fill="#FFFFFF" d="M56.454,70.579h-1.536v-3.834h-4.125v3.834h-1.544v-8.98h1.544v3.893h4.125v-3.893h1.536V70.579z"/>
	<path fill="#FFFFFF" d="M64.464,70.579c-0.055-0.11-0.1-0.25-0.133-0.418c-0.033-0.17-0.061-0.346-0.083-0.527
		c-0.144,0.148-0.306,0.291-0.485,0.428c-0.18,0.135-0.376,0.254-0.59,0.355c-0.213,0.104-0.444,0.184-0.693,0.242
		c-0.249,0.057-0.512,0.086-0.789,0.086c-0.459,0-0.876-0.068-1.249-0.207c-0.374-0.139-0.692-0.326-0.955-0.564
		c-0.263-0.238-0.466-0.52-0.61-0.842c-0.144-0.324-0.216-0.672-0.216-1.043c0-0.48,0.094-0.906,0.282-1.273
		c0.188-0.368,0.458-0.677,0.809-0.926c0.352-0.249,0.776-0.438,1.274-0.564s1.054-0.191,1.668-0.191h1.527v-0.705
		c0-0.537-0.161-0.965-0.481-1.283c-0.321-0.317-0.794-0.477-1.419-0.477c-0.288,0-0.551,0.039-0.789,0.116s-0.441,0.181-0.61,0.312
		c-0.169,0.13-0.3,0.281-0.395,0.452s-0.141,0.352-0.141,0.54h-1.544c0-0.321,0.084-0.64,0.253-0.955
		c0.168-0.315,0.408-0.6,0.718-0.852c0.31-0.251,0.685-0.455,1.125-0.613c0.439-0.158,0.931-0.236,1.473-0.236
		c0.487,0,0.937,0.063,1.349,0.186c0.412,0.125,0.765,0.313,1.058,0.564c0.293,0.252,0.523,0.566,0.689,0.943
		c0.166,0.376,0.249,0.816,0.249,1.319v4.175c0,0.305,0.026,0.625,0.079,0.959c0.052,0.335,0.131,0.624,0.236,0.867v0.133H64.464z
		 M61.916,69.409c0.277,0,0.537-0.039,0.78-0.116s0.465-0.179,0.664-0.304c0.199-0.123,0.372-0.266,0.519-0.427
		c0.146-0.161,0.261-0.327,0.344-0.498v-1.843h-1.278c-0.88,0-1.558,0.137-2.034,0.41c-0.476,0.275-0.714,0.688-0.714,1.242
		c0,0.215,0.036,0.418,0.108,0.605s0.181,0.35,0.328,0.486c0.147,0.135,0.327,0.242,0.54,0.322
		C61.386,69.369,61.633,69.409,61.916,69.409z"/>
	<path fill="#FFFFFF" d="M72.109,62.112c0.586,0,1.109,0.104,1.569,0.308s0.85,0.489,1.17,0.854s0.566,0.796,0.735,1.291
		c0.168,0.496,0.253,1.033,0.253,1.615v0.19c0,0.626-0.09,1.205-0.27,1.739c-0.18,0.533-0.443,0.996-0.789,1.387
		c-0.346,0.389-0.766,0.695-1.262,0.916c-0.495,0.222-1.058,0.332-1.689,0.332s-1.194-0.11-1.689-0.332
		c-0.496-0.221-0.916-0.527-1.262-0.916c-0.346-0.391-0.61-0.854-0.793-1.387c-0.183-0.534-0.274-1.113-0.274-1.739v-0.19v-0.059
		v-0.572c0-1.019,0.098-1.91,0.294-2.674c0.197-0.764,0.474-1.41,0.83-1.941c0.357-0.531,0.785-0.952,1.283-1.262
		c0.498-0.311,1.049-0.523,1.652-0.64c0.321-0.056,0.609-0.116,0.863-0.183s0.472-0.149,0.651-0.249
		c0.18-0.1,0.317-0.223,0.411-0.37c0.094-0.146,0.141-0.327,0.141-0.543h1.262c0,0.543-0.084,0.971-0.253,1.287
		c-0.168,0.314-0.393,0.561-0.672,0.738c-0.28,0.178-0.601,0.309-0.963,0.395c-0.363,0.086-0.735,0.17-1.117,0.253
		c-0.376,0.083-0.732,0.196-1.067,0.341c-0.334,0.144-0.635,0.337-0.9,0.58c-0.266,0.244-0.493,0.549-0.681,0.914
		s-0.324,0.808-0.407,1.328c0.36-0.416,0.787-0.754,1.283-1.018C70.915,62.244,71.478,62.112,72.109,62.112z M71.81,63.374
		c-0.42,0-0.786,0.076-1.096,0.229s-0.566,0.357-0.768,0.615c-0.202,0.256-0.351,0.555-0.448,0.896
		c-0.097,0.34-0.145,0.695-0.145,1.066v0.19c0,0.421,0.048,0.82,0.145,1.2c0.097,0.379,0.248,0.711,0.453,0.996
		c0.205,0.284,0.462,0.512,0.772,0.68c0.31,0.169,0.678,0.254,1.104,0.254c0.42,0,0.787-0.085,1.1-0.254
		c0.313-0.168,0.57-0.396,0.771-0.68c0.202-0.285,0.353-0.617,0.453-0.996c0.1-0.38,0.149-0.779,0.149-1.2v-0.19
		c0-0.371-0.05-0.727-0.149-1.066c-0.1-0.342-0.252-0.641-0.457-0.896c-0.205-0.258-0.463-0.463-0.776-0.615
		C72.605,63.45,72.236,63.374,71.81,63.374z"/>
	<path fill="#FFFFFF" d="M84.925,61.598v8.98h-1.544v-7.711h-3.046l-0.108,2.573c-0.039,0.853-0.112,1.599-0.22,2.241
		c-0.107,0.643-0.275,1.178-0.502,1.605c-0.227,0.43-0.528,0.752-0.905,0.968s-0.85,0.323-1.419,0.323h-0.448l0.033-1.369
		l0.332-0.008c0.299,0,0.544-0.07,0.734-0.213c0.191-0.141,0.345-0.361,0.461-0.664c0.116-0.301,0.203-0.689,0.262-1.166
		c0.058-0.476,0.104-1.049,0.137-1.718l0.166-3.843H84.925z"/>
	<path fill="#FFFFFF" d="M89.076,65.408h2.142c0.055-0.575,0.189-1.106,0.403-1.594c0.213-0.487,0.494-0.906,0.842-1.257
		c0.349-0.352,0.759-0.627,1.233-0.826c0.473-0.199,0.997-0.299,1.573-0.299c0.636,0,1.208,0.115,1.714,0.348
		c0.506,0.232,0.937,0.554,1.291,0.963c0.354,0.41,0.625,0.893,0.813,1.449s0.282,1.16,0.282,1.813v0.183
		c0,0.652-0.094,1.258-0.282,1.814c-0.188,0.555-0.459,1.037-0.813,1.443s-0.783,0.725-1.287,0.955
		c-0.503,0.229-1.071,0.344-1.702,0.344c-0.592,0-1.129-0.102-1.61-0.307s-0.898-0.488-1.25-0.852
		c-0.351-0.361-0.631-0.792-0.838-1.29c-0.208-0.498-0.333-1.043-0.378-1.636h-2.133v3.918h-1.544v-8.98h1.544V65.408z
		 M92.736,66.188c0,0.448,0.053,0.871,0.158,1.27s0.264,0.749,0.477,1.051c0.213,0.301,0.479,0.541,0.797,0.718
		c0.318,0.177,0.69,0.266,1.117,0.266c0.42,0,0.792-0.089,1.112-0.266s0.586-0.417,0.797-0.718c0.21-0.302,0.37-0.652,0.477-1.051
		c0.108-0.398,0.162-0.821,0.162-1.27v-0.183c0-0.442-0.054-0.864-0.162-1.267c-0.107-0.4-0.268-0.752-0.481-1.053
		c-0.213-0.303-0.48-0.543-0.801-0.723s-0.694-0.27-1.121-0.27c-0.42,0-0.789,0.09-1.104,0.27s-0.58,0.42-0.793,0.723
		c-0.213,0.301-0.372,0.652-0.477,1.053c-0.105,0.402-0.158,0.824-0.158,1.267V66.188z"/>
	<path fill="#FFFFFF" d="M101.054,69.326c0.183-0.216,0.358-0.437,0.527-0.664c0.169-0.228,0.323-0.503,0.461-0.825
		c0.138-0.324,0.257-0.716,0.357-1.176c0.1-0.459,0.171-1.023,0.216-1.693l0.133-3.369h5.786v7.728h1.154v3.894h-1.536v-2.641
		h-6.267v2.641h-1.536l0.008-3.894H101.054z M104.15,64.967c-0.028,0.526-0.079,1.006-0.153,1.441
		c-0.075,0.434-0.169,0.83-0.282,1.186c-0.114,0.357-0.242,0.679-0.386,0.963c-0.144,0.285-0.299,0.541-0.465,0.769h4.134v-6.309
		h-2.764L104.15,64.967z"/>
	<path fill="#FFFFFF" d="M115.115,70.745c-0.625,0-1.191-0.107-1.698-0.323c-0.506-0.216-0.939-0.517-1.299-0.901
		c-0.36-0.384-0.636-0.842-0.83-1.373s-0.291-1.112-0.291-1.743v-0.349c0-0.73,0.109-1.383,0.328-1.959
		c0.219-0.576,0.511-1.06,0.876-1.453c0.365-0.393,0.783-0.693,1.253-0.9s0.96-0.311,1.469-0.311c0.642,0,1.195,0.111,1.66,0.336
		s0.848,0.532,1.149,0.926c0.302,0.393,0.524,0.857,0.668,1.395c0.144,0.536,0.216,1.12,0.216,1.751v0.688h-6.084
		c0.011,0.416,0.079,0.803,0.203,1.162c0.125,0.36,0.302,0.673,0.531,0.938c0.23,0.266,0.507,0.476,0.83,0.631
		c0.324,0.155,0.69,0.232,1.1,0.232c0.542,0,1.001-0.11,1.378-0.332s0.706-0.515,0.988-0.88l0.938,0.73
		c-0.144,0.221-0.318,0.436-0.523,0.643c-0.205,0.209-0.444,0.394-0.718,0.557c-0.274,0.164-0.588,0.293-0.942,0.391
		C115.965,70.697,115.563,70.745,115.115,70.745z M114.924,62.694c-0.31,0-0.595,0.057-0.855,0.17s-0.493,0.277-0.697,0.494
		c-0.205,0.215-0.375,0.484-0.51,0.805c-0.136,0.32-0.229,0.689-0.278,1.104h4.499v-0.115c-0.017-0.299-0.065-0.596-0.146-0.889
		c-0.08-0.293-0.205-0.557-0.373-0.789c-0.169-0.232-0.386-0.42-0.652-0.564C115.646,62.765,115.317,62.694,114.924,62.694z"/>
	<path fill="#FFFFFF" d="M127.732,70.579h-1.536v-3.834h-4.125v3.834h-1.544v-8.98h1.544v3.893h4.125v-3.893h1.536V70.579z"/>
	<path fill="#FFFFFF" d="M136.008,61.598h1.536v8.98h-1.536V64.03l-4.142,6.549h-1.536v-8.98h1.536v6.557L136.008,61.598z"/>
	<path fill="#FFFFFF" d="M143.736,70.745c-0.625,0-1.191-0.107-1.698-0.323c-0.506-0.216-0.939-0.517-1.299-0.901
		c-0.36-0.384-0.636-0.842-0.83-1.373s-0.291-1.112-0.291-1.743v-0.349c0-0.73,0.109-1.383,0.328-1.959
		c0.219-0.576,0.511-1.06,0.876-1.453c0.365-0.393,0.783-0.693,1.253-0.9s0.96-0.311,1.469-0.311c0.642,0,1.195,0.111,1.66,0.336
		s0.848,0.532,1.149,0.926c0.302,0.393,0.524,0.857,0.668,1.395c0.144,0.536,0.216,1.12,0.216,1.751v0.688h-6.084
		c0.011,0.416,0.079,0.803,0.203,1.162c0.125,0.36,0.302,0.673,0.531,0.938c0.23,0.266,0.507,0.476,0.83,0.631
		c0.324,0.155,0.69,0.232,1.1,0.232c0.542,0,1.001-0.11,1.378-0.332s0.706-0.515,0.988-0.88l0.938,0.73
		c-0.144,0.221-0.318,0.436-0.523,0.643c-0.205,0.209-0.444,0.394-0.718,0.557c-0.274,0.164-0.588,0.293-0.942,0.391
		C144.586,70.697,144.185,70.745,143.736,70.745z M143.545,62.694c-0.31,0-0.595,0.057-0.855,0.17s-0.493,0.277-0.697,0.494
		c-0.205,0.215-0.375,0.484-0.51,0.805c-0.136,0.32-0.229,0.689-0.278,1.104h4.499v-0.115c-0.017-0.299-0.065-0.596-0.146-0.889
		c-0.08-0.293-0.205-0.557-0.373-0.789c-0.169-0.232-0.386-0.42-0.652-0.564C144.268,62.765,143.938,62.694,143.545,62.694z"/>
	<path fill="#FFFFFF" d="M153.149,69.326c0.183-0.216,0.358-0.437,0.527-0.664c0.169-0.228,0.323-0.503,0.461-0.825
		c0.138-0.324,0.257-0.716,0.357-1.176c0.1-0.459,0.171-1.023,0.216-1.693l0.133-3.369h5.786v7.728h1.154v3.894h-1.536v-2.641
		h-6.267v2.641h-1.536l0.008-3.894H153.149z M156.246,64.967c-0.028,0.526-0.079,1.006-0.153,1.441
		c-0.075,0.434-0.169,0.83-0.282,1.186c-0.114,0.357-0.242,0.679-0.386,0.963c-0.144,0.285-0.299,0.541-0.465,0.769h4.134v-6.309
		h-2.764L156.246,64.967z"/>
	<path fill="#FFFFFF" d="M170.847,61.598v8.98h-1.545v-7.711h-3.046l-0.108,2.573c-0.038,0.853-0.111,1.599-0.22,2.241
		c-0.107,0.643-0.274,1.178-0.502,1.605c-0.228,0.43-0.528,0.752-0.905,0.968c-0.376,0.216-0.85,0.323-1.419,0.323h-0.448
		l0.033-1.369l0.332-0.008c0.299,0,0.544-0.07,0.734-0.213c0.191-0.141,0.345-0.361,0.461-0.664
		c0.116-0.301,0.203-0.689,0.262-1.166c0.058-0.476,0.104-1.049,0.137-1.718l0.166-3.843H170.847z"/>
	<path fill="#FFFFFF" d="M180.177,61.598v8.98h-1.545v-3.494h-2.315l-2.116,3.494h-1.66l2.258-3.727
		c-0.576-0.211-1.018-0.535-1.324-0.975c-0.308-0.441-0.461-0.954-0.461-1.541c0-0.393,0.076-0.756,0.229-1.092
		c0.152-0.334,0.373-0.623,0.664-0.867c0.29-0.243,0.647-0.434,1.07-0.572c0.424-0.139,0.906-0.207,1.449-0.207H180.177z
		 M174.557,64.354c0,0.182,0.032,0.361,0.096,0.539s0.163,0.334,0.299,0.469c0.136,0.136,0.308,0.246,0.519,0.332
		s0.465,0.129,0.764,0.129h2.398v-2.98h-2.207c-0.332,0-0.616,0.045-0.852,0.133c-0.234,0.089-0.428,0.203-0.576,0.346
		c-0.15,0.141-0.261,0.303-0.332,0.484C174.593,63.989,174.557,64.17,174.557,64.354z"/>
	<path fill="#FFFFFF" d="M189.648,66.752h-1.121v3.826h-1.543v-8.98h1.543v3.801h1.005l3.021-3.801h1.859l-3.553,4.316l3.852,4.664
		h-1.95L189.648,66.752z"/>
	<path fill="#FFFFFF" d="M196.172,70.579v-8.98h3.503c0.57,0,1.084,0.049,1.544,0.148s0.85,0.251,1.171,0.453
		c0.32,0.201,0.566,0.457,0.738,0.768s0.258,0.676,0.258,1.096c0,0.415-0.125,0.79-0.374,1.125c-0.249,0.334-0.617,0.59-1.104,0.768
		c0.288,0.066,0.545,0.168,0.768,0.303c0.225,0.136,0.414,0.295,0.569,0.478s0.271,0.385,0.349,0.606
		c0.078,0.221,0.116,0.451,0.116,0.688c0,0.427-0.08,0.798-0.241,1.116c-0.16,0.318-0.39,0.582-0.688,0.793
		s-0.661,0.369-1.087,0.477c-0.427,0.109-0.908,0.162-1.445,0.162H196.172z M197.708,65.408h1.983c1.438,0,2.158-0.421,2.158-1.262
		c0-0.868-0.726-1.304-2.175-1.304h-1.967V65.408z M197.708,66.636v2.706h2.539c0.643,0,1.123-0.119,1.441-0.357
		c0.317-0.237,0.477-0.572,0.477-1.004c0-0.426-0.159-0.757-0.477-0.992c-0.318-0.234-0.799-0.353-1.441-0.353H197.708z"/>
	<path fill="#FFFFFF" d="M211.289,70.579c-0.057-0.11-0.1-0.25-0.133-0.418c-0.033-0.17-0.061-0.346-0.084-0.527
		c-0.143,0.148-0.305,0.291-0.484,0.428c-0.18,0.135-0.377,0.254-0.59,0.355c-0.213,0.104-0.444,0.184-0.693,0.242
		c-0.249,0.057-0.512,0.086-0.789,0.086c-0.459,0-0.875-0.068-1.248-0.207c-0.375-0.139-0.692-0.326-0.955-0.564
		c-0.264-0.238-0.467-0.52-0.61-0.842c-0.144-0.324-0.216-0.672-0.216-1.043c0-0.48,0.094-0.906,0.282-1.273
		c0.188-0.368,0.458-0.677,0.81-0.926s0.775-0.438,1.273-0.564s1.055-0.191,1.669-0.191h1.528v-0.705
		c0-0.537-0.162-0.965-0.482-1.283c-0.32-0.317-0.795-0.477-1.42-0.477c-0.287,0-0.551,0.039-0.788,0.116s-0.441,0.181-0.61,0.312
		c-0.168,0.13-0.3,0.281-0.395,0.452c-0.094,0.171-0.141,0.352-0.141,0.54h-1.544c0-0.321,0.085-0.64,0.253-0.955
		c0.169-0.315,0.408-0.6,0.719-0.852c0.31-0.251,0.684-0.455,1.125-0.613c0.439-0.158,0.93-0.236,1.473-0.236
		c0.486,0,0.938,0.063,1.35,0.186c0.412,0.125,0.764,0.313,1.059,0.564c0.293,0.252,0.521,0.566,0.688,0.943
		c0.166,0.376,0.25,0.816,0.25,1.319v4.175c0,0.305,0.025,0.625,0.078,0.959c0.053,0.335,0.131,0.624,0.236,0.867v0.133H211.289z
		 M208.74,69.409c0.277,0,0.537-0.039,0.78-0.116s0.466-0.179,0.665-0.304c0.199-0.123,0.371-0.266,0.518-0.427
		s0.262-0.327,0.346-0.498v-1.843h-1.279c-0.88,0-1.558,0.137-2.033,0.41c-0.477,0.275-0.715,0.688-0.715,1.242
		c0,0.215,0.037,0.418,0.108,0.605s0.181,0.35,0.327,0.486c0.147,0.135,0.327,0.242,0.541,0.322
		C208.21,69.369,208.458,69.409,208.74,69.409z"/>
	<path fill="#FFFFFF" d="M222.577,66.188c0,0.658-0.077,1.266-0.232,1.822s-0.381,1.037-0.677,1.443
		c-0.296,0.408-0.66,0.725-1.092,0.951s-0.924,0.34-1.477,0.34c-0.564,0-1.059-0.088-1.482-0.266
		c-0.423-0.177-0.787-0.434-1.092-0.771v4.324h-1.535V61.598h1.402l0.075,0.996c0.305-0.377,0.673-0.664,1.104-0.863
		s0.932-0.299,1.502-0.299c0.564,0,1.063,0.11,1.498,0.332c0.435,0.221,0.801,0.532,1.1,0.934c0.299,0.4,0.524,0.883,0.677,1.443
		c0.152,0.563,0.229,1.187,0.229,1.873V66.188z M221.041,66.014c0-0.449-0.047-0.871-0.141-1.266
		c-0.094-0.396-0.24-0.744-0.439-1.043s-0.451-0.535-0.756-0.709s-0.667-0.262-1.088-0.262c-0.26,0-0.496,0.03-0.709,0.092
		c-0.213,0.061-0.405,0.146-0.577,0.257s-0.323,0.242-0.456,0.394c-0.133,0.152-0.25,0.317-0.35,0.494v4.292
		c0.1,0.177,0.217,0.342,0.35,0.493c0.133,0.152,0.284,0.283,0.456,0.391s0.365,0.192,0.581,0.254
		c0.216,0.061,0.457,0.091,0.723,0.091c0.414,0,0.772-0.089,1.074-0.266s0.553-0.415,0.752-0.714s0.346-0.648,0.439-1.051
		c0.094-0.4,0.141-0.825,0.141-1.273V66.014z"/>
	<path fill="#FFFFFF" d="M230.538,62.842h-3.014v7.736h-1.535v-7.736h-2.955v-1.244h7.504V62.842z"/>
	<path fill="#FFFFFF" d="M237.842,61.598h1.535v8.98h-1.535V64.03l-4.143,6.549h-1.535v-8.98h1.535v6.557L237.842,61.598z"/>
	<path fill="#FFFFFF" d="M249.43,66.188c0,0.658-0.077,1.266-0.232,1.822s-0.381,1.037-0.677,1.443
		c-0.296,0.408-0.66,0.725-1.092,0.951s-0.924,0.34-1.477,0.34c-0.564,0-1.059-0.088-1.482-0.266
		c-0.423-0.177-0.787-0.434-1.092-0.771v4.324h-1.535V61.598h1.402l0.075,0.996c0.305-0.377,0.673-0.664,1.104-0.863
		s0.932-0.299,1.502-0.299c0.564,0,1.063,0.11,1.498,0.332c0.435,0.221,0.801,0.532,1.1,0.934c0.299,0.4,0.524,0.883,0.677,1.443
		c0.152,0.563,0.229,1.187,0.229,1.873V66.188z M247.894,66.014c0-0.449-0.047-0.871-0.141-1.266
		c-0.094-0.396-0.24-0.744-0.439-1.043s-0.451-0.535-0.756-0.709s-0.667-0.262-1.088-0.262c-0.26,0-0.496,0.03-0.709,0.092
		c-0.213,0.061-0.405,0.146-0.577,0.257s-0.323,0.242-0.456,0.394c-0.133,0.152-0.25,0.317-0.35,0.494v4.292
		c0.1,0.177,0.217,0.342,0.35,0.493c0.133,0.152,0.284,0.283,0.456,0.391s0.365,0.192,0.581,0.254
		c0.216,0.061,0.457,0.091,0.723,0.091c0.414,0,0.772-0.089,1.074-0.266s0.553-0.415,0.752-0.714s0.346-0.648,0.439-1.051
		c0.094-0.4,0.141-0.825,0.141-1.273V66.014z"/>
	<path fill="#FFFFFF" d="M253.057,64.694h2.282c0.549,0,1.031,0.073,1.449,0.221c0.418,0.146,0.768,0.348,1.05,0.605
		s0.495,0.564,0.64,0.922c0.144,0.355,0.215,0.745,0.215,1.166c0,0.414-0.071,0.803-0.215,1.166
		c-0.145,0.362-0.357,0.676-0.64,0.941s-0.632,0.477-1.05,0.631c-0.418,0.155-0.9,0.232-1.449,0.232h-3.818v-8.98h1.536V64.694z
		 M253.057,65.948v3.378h2.282c0.332,0,0.615-0.047,0.848-0.142c0.232-0.094,0.419-0.219,0.56-0.373
		c0.142-0.154,0.244-0.332,0.308-0.531s0.096-0.404,0.096-0.614c0-0.199-0.032-0.401-0.096-0.606
		c-0.063-0.204-0.166-0.39-0.308-0.556c-0.141-0.166-0.327-0.3-0.56-0.403c-0.232-0.102-0.516-0.152-0.848-0.152H253.057z
		 M261.898,70.579h-1.545v-8.98h1.545V70.579z"/>
	<path fill="#FFFFFF" d="M264.886,71.617h-1.319l5.047-13.124h1.312L264.886,71.617z"/>
	<path fill="#FFFFFF" d="M271.511,69.326c0.182-0.216,0.357-0.437,0.526-0.664s0.322-0.503,0.461-0.825
		c0.139-0.324,0.257-0.716,0.356-1.176c0.1-0.459,0.172-1.023,0.217-1.693l0.133-3.369h5.785v7.728h1.154v3.894h-1.536v-2.641
		h-6.267v2.641h-1.536l0.009-3.894H271.511z M274.607,64.967c-0.027,0.526-0.079,1.006-0.153,1.441
		c-0.075,0.434-0.169,0.83-0.282,1.186c-0.113,0.357-0.242,0.679-0.387,0.963c-0.144,0.285-0.299,0.541-0.465,0.769h4.135v-6.309
		h-2.765L274.607,64.967z"/>
	<path fill="#FFFFFF" d="M281.439,66.005c0-0.653,0.095-1.257,0.286-1.813c0.19-0.557,0.462-1.039,0.813-1.449
		c0.352-0.409,0.778-0.73,1.282-0.963s1.068-0.348,1.693-0.348c0.637,0,1.208,0.115,1.714,0.348
		c0.507,0.232,0.937,0.554,1.291,0.963c0.354,0.41,0.625,0.893,0.813,1.449s0.282,1.16,0.282,1.813v0.183
		c0,0.652-0.094,1.258-0.282,1.814c-0.188,0.555-0.459,1.037-0.813,1.443s-0.783,0.725-1.287,0.955
		c-0.503,0.229-1.07,0.344-1.701,0.344s-1.198-0.114-1.701-0.344c-0.504-0.23-0.933-0.549-1.287-0.955s-0.627-0.889-0.817-1.443
		c-0.191-0.557-0.286-1.162-0.286-1.814V66.005z M282.982,66.188c0,0.448,0.053,0.871,0.158,1.27s0.265,0.749,0.478,1.051
		c0.213,0.301,0.479,0.541,0.797,0.718s0.69,0.266,1.116,0.266c0.421,0,0.791-0.089,1.112-0.266s0.587-0.417,0.797-0.718
		c0.21-0.302,0.369-0.652,0.478-1.051c0.107-0.398,0.162-0.821,0.162-1.27v-0.183c0-0.442-0.055-0.864-0.162-1.267
		c-0.108-0.4-0.269-0.752-0.481-1.053c-0.213-0.303-0.48-0.543-0.802-0.723c-0.32-0.18-0.694-0.27-1.12-0.27
		c-0.421,0-0.788,0.09-1.104,0.27c-0.314,0.18-0.579,0.42-0.792,0.723c-0.213,0.301-0.372,0.652-0.478,1.053
		c-0.105,0.402-0.158,0.824-0.158,1.267V66.188z"/>
	<path fill="#FFFFFF" d="M296.712,68.545l3.055-6.947h1.917v8.98h-1.536v-6.532l-2.904,6.532h-1.063l-2.964-6.674v6.674h-1.536
		v-8.98h1.992L296.712,68.545z"/>
	<path fill="#FFFFFF" d="M309.694,70.579c-0.056-0.11-0.1-0.25-0.133-0.418c-0.033-0.17-0.061-0.346-0.083-0.527
		c-0.144,0.148-0.306,0.291-0.485,0.428c-0.18,0.135-0.377,0.254-0.59,0.355c-0.213,0.104-0.443,0.184-0.693,0.242
		c-0.248,0.057-0.512,0.086-0.788,0.086c-0.459,0-0.876-0.068-1.249-0.207c-0.374-0.139-0.692-0.326-0.955-0.564
		s-0.466-0.52-0.609-0.842c-0.145-0.324-0.217-0.672-0.217-1.043c0-0.48,0.095-0.906,0.283-1.273
		c0.188-0.368,0.457-0.677,0.809-0.926s0.776-0.438,1.274-0.564s1.054-0.191,1.669-0.191h1.527v-0.705
		c0-0.537-0.161-0.965-0.482-1.283c-0.32-0.317-0.794-0.477-1.419-0.477c-0.288,0-0.551,0.039-0.788,0.116
		c-0.238,0.077-0.441,0.181-0.61,0.312c-0.169,0.13-0.301,0.281-0.395,0.452s-0.142,0.352-0.142,0.54h-1.543
		c0-0.321,0.084-0.64,0.253-0.955s0.408-0.6,0.718-0.852c0.31-0.251,0.685-0.455,1.125-0.613c0.439-0.158,0.931-0.236,1.473-0.236
		c0.487,0,0.938,0.063,1.35,0.186c0.412,0.125,0.765,0.313,1.059,0.564c0.293,0.252,0.522,0.566,0.688,0.943
		c0.166,0.376,0.249,0.816,0.249,1.319v4.175c0,0.305,0.026,0.625,0.079,0.959c0.053,0.335,0.131,0.624,0.236,0.867v0.133H309.694z
		 M307.145,69.409c0.277,0,0.537-0.039,0.781-0.116c0.243-0.077,0.465-0.179,0.664-0.304c0.199-0.123,0.372-0.266,0.519-0.427
		s0.261-0.327,0.345-0.498v-1.843h-1.279c-0.879,0-1.558,0.137-2.033,0.41c-0.476,0.275-0.714,0.688-0.714,1.242
		c0,0.215,0.036,0.418,0.108,0.605c0.071,0.188,0.181,0.35,0.327,0.486c0.146,0.135,0.327,0.242,0.54,0.322
		C306.616,69.369,306.864,69.409,307.145,69.409z"/>
</g>
</svg>
