<?xml version="1.0" encoding="utf-8"?>
<!-- Generator: Adobe Illustrator 16.0.0, SVG Export Plug-In . SVG Version: 6.00 Build 0)  -->
<!DOCTYPE svg PUBLIC "-//W3C//DTD SVG 1.0//EN" "http://www.w3.org/TR/2001/REC-SVG-20010904/DTD/svg10.dtd">
<svg version="1.0" id="Слой_1" xmlns="http://www.w3.org/2000/svg" xmlns:xlink="http://www.w3.org/1999/xlink" x="0px" y="0px"
	 width="67px" height="67px" viewBox="0 0 67 67" enable-background="new 0 0 67 67" xml:space="preserve">
<g>
	<path fill="none" stroke="#E65D17" stroke-width="2" stroke-linecap="round" stroke-linejoin="round" stroke-miterlimit="10" d="
		M33.5,48.719c0,0-10.157-5.086-11.93-8.964c-1.468-3.212-0.967-16.315-0.967-16.315s4.24-0.616,6.822-1.768
		c2.299-1.025,6.075-3.391,6.075-3.391"/>
	<path fill="none" stroke="#E65D17" stroke-width="2" stroke-linecap="round" stroke-linejoin="round" stroke-miterlimit="10" d="
		M33.5,48.719c0,0,10.156-5.086,11.929-8.964c1.47-3.212,0.968-16.315,0.968-16.315s-4.24-0.616-6.821-1.768
		c-2.3-1.025-6.075-3.391-6.075-3.391"/>
	
		<line fill="none" stroke="#E65D17" stroke-width="2" stroke-linecap="round" stroke-linejoin="round" stroke-miterlimit="10" x1="28.277" y1="35.048" x2="31.952" y2="38.788"/>
	
		<line fill="none" stroke="#E65D17" stroke-width="2" stroke-linecap="round" stroke-linejoin="round" stroke-miterlimit="10" x1="31.952" y1="38.788" x2="40.593" y2="28.019"/>
</g>
<circle fill="none" stroke="#E65D17" stroke-miterlimit="10" cx="33.5" cy="33.5" r="33"/>
</svg>
