<?xml version="1.0" encoding="utf-8"?>
<!-- Generator: Adobe Illustrator 16.0.0, SVG Export Plug-In . SVG Version: 6.00 Build 0)  -->
<!DOCTYPE svg PUBLIC "-//W3C//DTD SVG 1.0//EN" "http://www.w3.org/TR/2001/REC-SVG-20010904/DTD/svg10.dtd">
<svg version="1.0" id="Слой_1" xmlns="http://www.w3.org/2000/svg" xmlns:xlink="http://www.w3.org/1999/xlink" x="0px" y="0px"
	 width="67px" height="67px" viewBox="0 0 67 67" enable-background="new 0 0 67 67" xml:space="preserve">
<g>
	<path fill="none" stroke="#E65D17" stroke-width="2" stroke-linecap="round" stroke-linejoin="round" stroke-miterlimit="10" d="
		M29.462,39.419c0.701,2.018,0.246,4.348-1.365,5.959c-1.674,1.674-4.122,2.1-6.19,1.279l0,0l3.134-3.141
		c0,0-0.488-1.959-0.896-2.367c-0.396-0.395-2.321-0.85-2.321-0.85l-3.137,3.139h-0.002c-0.822-2.068-0.396-4.52,1.279-6.193
		c1.611-1.611,3.942-2.066,5.959-1.365"/>
	<path fill="none" stroke="#E65D17" stroke-width="2" stroke-linecap="round" stroke-linejoin="round" stroke-miterlimit="10" d="
		M39.375,29.505c2.017,0.701,4.349,0.246,5.96-1.364c1.674-1.674,2.1-4.122,1.279-6.19l0,0l-3.14,3.134c0,0-1.958-0.488-2.366-0.895
		c-0.396-0.397-0.851-2.321-0.851-2.321l3.138-3.137V18.73c-2.067-0.822-4.52-0.396-6.192,1.279c-1.611,1.61-2.067,3.94-1.365,5.958
		"/>
	
		<line fill="none" stroke="#E65D17" stroke-width="2" stroke-linecap="round" stroke-linejoin="round" stroke-miterlimit="10" x1="39.376" y1="29.504" x2="29.461" y2="39.419"/>
	
		<line fill="none" stroke="#E65D17" stroke-width="2" stroke-linecap="round" stroke-linejoin="round" stroke-miterlimit="10" x1="25.924" y1="35.882" x2="35.838" y2="25.966"/>
	
		<polyline fill="none" stroke="#E65D17" stroke-width="2" stroke-linecap="round" stroke-linejoin="round" stroke-miterlimit="10" points="
		29.943,31.858 19.309,21.225 18.819,18.776 21.269,19.266 31.902,29.899 	"/>
	
		<polyline fill="none" stroke="#E65D17" stroke-width="2" stroke-linecap="round" stroke-linejoin="round" stroke-miterlimit="10" points="
		32.613,37.257 32.977,38.622 43.032,48.675 48.719,42.989 38.665,32.934 37.3,32.57 	"/>
	
		<line fill="none" stroke="#E65D17" stroke-width="2" stroke-linecap="round" stroke-linejoin="round" stroke-miterlimit="10" x1="38.372" y1="38.232" x2="42.549" y2="42.409"/>
</g>
<circle fill="none" stroke="#E65D17" stroke-miterlimit="10" cx="33.5" cy="33.5" r="33"/>
</svg>
