<?xml version="1.0" encoding="utf-8"?>
<!-- Generator: Adobe Illustrator 16.0.0, SVG Export Plug-In . SVG Version: 6.00 Build 0)  -->
<!DOCTYPE svg PUBLIC "-//W3C//DTD SVG 1.0//EN" "http://www.w3.org/TR/2001/REC-SVG-20010904/DTD/svg10.dtd">
<svg version="1.0" id="Слой_1" xmlns="http://www.w3.org/2000/svg" xmlns:xlink="http://www.w3.org/1999/xlink" x="0px" y="0px"
	 width="74.641px" height="77.996px" viewBox="0 -13.003 74.641 77.996" enable-background="new 0 -13.003 74.641 77.996"
	 xml:space="preserve">
<g>
	<ellipse fill="none" stroke="#FFFFFF" stroke-width="3" stroke-miterlimit="10" cx="37.321" cy="10.451" rx="18.619" ry="8.951"/>
	<polyline fill="none" stroke="#FFFFFF" stroke-width="3" stroke-linejoin="round" stroke-miterlimit="10" points="55.939,10.451 
		55.939,35.529 18.702,35.529 18.702,10.451 	"/>
	<rect x="26.053" y="7.315" fill="none" stroke="#FFFFFF" stroke-miterlimit="10" width="22.468" height="6.355"/>
</g>
<g>
	<path fill="#FFFFFF" d="M1.414,54.183H0v10.664h6.467v-1.149H1.414V54.183z"/>
	<path fill="#FFFFFF" d="M9.331,56.922H7.976v7.925h1.355V56.922z M8.068,55.37c0.135,0.146,0.333,0.219,0.598,0.219
		c0.264,0,0.464-0.072,0.601-0.219c0.137-0.147,0.205-0.33,0.205-0.55c0-0.221-0.068-0.405-0.205-0.557
		c-0.137-0.152-0.337-0.228-0.601-0.228c-0.265,0-0.463,0.075-0.598,0.228C7.933,54.415,7.866,54.6,7.866,54.82
		S7.933,55.223,8.068,55.37z"/>
	<path fill="#FFFFFF" d="M13.521,64.847v-6.878h1.692v-1.047h-1.692v-0.836c0-0.479,0.12-0.846,0.359-1.103
		c0.239-0.256,0.579-0.385,1.018-0.385c0.127,0,0.255,0.007,0.385,0.019c0.129,0.014,0.245,0.028,0.348,0.049l0.073-1.1
		c-0.309-0.083-0.618-0.124-0.931-0.124c-0.404,0-0.769,0.058-1.091,0.173c-0.322,0.114-0.596,0.283-0.82,0.508
		c-0.224,0.226-0.396,0.502-0.516,0.832c-0.12,0.33-0.18,0.707-0.18,1.131v0.836h-1.252v1.047h1.252v6.878H13.521L13.521,64.847z"/>
	<path fill="#FFFFFF" d="M20.881,64.866c0.313-0.087,0.589-0.201,0.831-0.346s0.453-0.309,0.634-0.49
		c0.181-0.184,0.334-0.371,0.461-0.566l-0.828-0.646c-0.249,0.322-0.54,0.581-0.872,0.774c-0.332,0.195-0.736,0.293-1.216,0.293
		c-0.361,0-0.685-0.067-0.97-0.204c-0.286-0.136-0.53-0.322-0.732-0.558c-0.203-0.233-0.358-0.51-0.469-0.826
		c-0.11-0.317-0.169-0.659-0.179-1.025h5.369v-0.607c0-0.558-0.063-1.072-0.19-1.545c-0.127-0.475-0.324-0.885-0.589-1.23
		c-0.268-0.348-0.604-0.619-1.015-0.816s-0.898-0.297-1.466-0.297c-0.448,0-0.881,0.092-1.296,0.273
		c-0.415,0.185-0.784,0.449-1.105,0.796c-0.322,0.347-0.58,0.774-0.772,1.282s-0.29,1.084-0.29,1.729v0.309
		c0,0.556,0.085,1.068,0.256,1.537s0.415,0.873,0.732,1.213c0.317,0.338,0.699,0.604,1.146,0.793
		c0.446,0.191,0.946,0.287,1.498,0.287C20.215,64.993,20.569,64.95,20.881,64.866z M20.522,58.079
		c0.234,0.127,0.426,0.293,0.575,0.498s0.259,0.438,0.33,0.696c0.07,0.259,0.113,0.521,0.128,0.783v0.103h-3.97
		c0.044-0.365,0.125-0.689,0.245-0.974s0.27-0.521,0.45-0.711c0.182-0.19,0.387-0.336,0.615-0.437
		c0.229-0.101,0.481-0.149,0.754-0.149C19.998,57.889,20.288,57.952,20.522,58.079z"/>
	<path fill="#FFFFFF" d="M34.834,61.463c-0.06,0.375-0.145,0.711-0.256,1.007c-0.112,0.296-0.271,0.545-0.474,0.747
		c-0.203,0.203-0.458,0.357-0.765,0.465s-0.687,0.162-1.135,0.162c-0.475,0-0.885-0.1-1.23-0.297
		c-0.347-0.198-0.632-0.469-0.856-0.813c-0.226-0.344-0.393-0.745-0.501-1.204c-0.11-0.459-0.165-0.949-0.165-1.473v-1.084
		c0-0.563,0.061-1.075,0.183-1.542c0.122-0.466,0.304-0.864,0.545-1.193c0.242-0.329,0.542-0.586,0.901-0.771
		c0.357-0.182,0.774-0.273,1.249-0.273c0.41,0,0.762,0.057,1.055,0.169s0.539,0.272,0.736,0.483
		c0.197,0.209,0.353,0.463,0.465,0.762c0.111,0.297,0.194,0.633,0.249,1.003h1.414c-0.055-0.526-0.177-1.01-0.366-1.446
		c-0.19-0.438-0.448-0.813-0.773-1.127c-0.324-0.315-0.719-0.562-1.183-0.736c-0.464-0.176-0.996-0.264-1.597-0.264
		c-0.659,0-1.254,0.117-1.784,0.354s-0.98,0.571-1.352,1.003c-0.37,0.434-0.656,0.952-0.856,1.561c-0.2,0.607-0.3,1.285-0.3,2.032
		v1.069c0,0.747,0.099,1.424,0.296,2.029c0.198,0.604,0.479,1.123,0.843,1.556c0.363,0.433,0.802,0.767,1.314,1
		c0.512,0.233,1.084,0.353,1.714,0.353c0.64,0,1.198-0.09,1.677-0.269s0.884-0.425,1.216-0.739s0.592-0.688,0.78-1.121
		c0.188-0.432,0.312-0.898,0.37-1.402H34.834L34.834,61.463z"/>
	<path fill="#FFFFFF" d="M37.595,60.973c0,0.576,0.084,1.109,0.253,1.6c0.168,0.491,0.409,0.916,0.722,1.274
		c0.313,0.358,0.69,0.64,1.136,0.843c0.443,0.202,0.944,0.305,1.501,0.305c0.556,0,1.057-0.103,1.501-0.305
		c0.443-0.203,0.822-0.482,1.136-0.843c0.313-0.358,0.551-0.783,0.717-1.274c0.166-0.49,0.25-1.023,0.25-1.6v-0.162
		c0-0.575-0.084-1.109-0.25-1.6c-0.166-0.491-0.404-0.918-0.717-1.278c-0.313-0.361-0.692-0.646-1.14-0.851
		c-0.446-0.205-0.95-0.308-1.514-0.308c-0.551,0-1.048,0.103-1.494,0.308c-0.442,0.205-0.82,0.488-1.131,0.851
		c-0.311,0.36-0.55,0.787-0.718,1.278c-0.169,0.49-0.253,1.023-0.253,1.6L37.595,60.973L37.595,60.973z M38.958,60.811
		c0-0.391,0.046-0.762,0.14-1.116c0.092-0.354,0.232-0.663,0.421-0.931c0.188-0.266,0.421-0.479,0.699-0.637
		s0.602-0.238,0.973-0.238c0.377,0,0.706,0.08,0.989,0.238s0.52,0.371,0.707,0.637c0.188,0.268,0.329,0.576,0.425,0.931
		s0.144,0.728,0.144,1.116v0.162c0,0.395-0.048,0.77-0.144,1.119c-0.096,0.353-0.235,0.66-0.422,0.928
		c-0.186,0.266-0.42,0.479-0.703,0.633c-0.283,0.156-0.608,0.234-0.979,0.234c-0.377,0-0.705-0.078-0.986-0.234
		c-0.28-0.154-0.515-0.367-0.702-0.633c-0.188-0.268-0.329-0.575-0.421-0.928c-0.094-0.352-0.14-0.725-0.14-1.119V60.811z"/>
	<path fill="#FFFFFF" d="M46.509,56.922v7.925h1.354V59.2c0.187-0.381,0.444-0.688,0.776-0.922s0.718-0.352,1.157-0.352
		c0.259,0,0.487,0.031,0.685,0.095c0.198,0.063,0.363,0.164,0.498,0.3c0.135,0.137,0.236,0.314,0.306,0.531
		c0.067,0.218,0.102,0.48,0.102,0.787v5.208h1.355v-5.192c0-0.518-0.062-0.959-0.181-1.322c-0.119-0.362-0.289-0.662-0.509-0.894
		s-0.485-0.399-0.798-0.506c-0.313-0.104-0.662-0.157-1.048-0.157c-0.498,0-0.947,0.102-1.349,0.305
		c-0.399,0.203-0.741,0.481-1.024,0.838l-0.044-0.996H46.509L46.509,56.922z"/>
	<path fill="#FFFFFF" d="M55.269,55.002v1.92h-1.442v1.047h1.442v4.908c0,0.395,0.049,0.729,0.146,1
		c0.098,0.271,0.229,0.488,0.395,0.654s0.36,0.284,0.583,0.354c0.223,0.072,0.458,0.107,0.706,0.107
		c0.244,0,0.452-0.019,0.623-0.053c0.171-0.033,0.312-0.064,0.418-0.095v-1.099c-0.068,0.014-0.166,0.032-0.29,0.055
		c-0.124,0.021-0.243,0.033-0.354,0.033c-0.113,0-0.223-0.012-0.326-0.033c-0.105-0.021-0.198-0.066-0.278-0.135
		c-0.081-0.068-0.146-0.166-0.194-0.289c-0.049-0.125-0.072-0.291-0.072-0.496v-4.914h1.479V56.92h-1.479V55h-1.356V55.002z"/>
	<path fill="#FFFFFF" d="M63.515,56.877c-0.049-0.023-0.137-0.047-0.264-0.068s-0.238-0.033-0.336-0.033
		c-0.439,0-0.813,0.096-1.121,0.285c-0.309,0.191-0.564,0.449-0.771,0.777l-0.021-0.916h-1.318v7.925h1.355v-5.625
		c0.146-0.347,0.367-0.622,0.662-0.827s0.678-0.309,1.146-0.309c0.127,0,0.24,0.004,0.341,0.012c0.101,0.007,0.208,0.021,0.325,0.04
		L63.515,56.877L63.515,56.877z"/>
	<path fill="#FFFFFF" d="M64.255,60.973c0,0.576,0.084,1.109,0.252,1.6c0.169,0.491,0.41,0.916,0.723,1.274
		c0.313,0.358,0.69,0.64,1.135,0.843c0.444,0.202,0.945,0.305,1.503,0.305c0.557,0,1.057-0.103,1.501-0.305
		c0.443-0.203,0.822-0.482,1.136-0.843c0.313-0.358,0.551-0.783,0.717-1.274c0.166-0.49,0.25-1.023,0.25-1.6v-0.162
		c0-0.575-0.084-1.109-0.25-1.6c-0.166-0.491-0.404-0.918-0.717-1.278c-0.313-0.361-0.692-0.646-1.141-0.851
		c-0.445-0.205-0.949-0.308-1.513-0.308c-0.551,0-1.049,0.103-1.494,0.308c-0.442,0.205-0.82,0.488-1.131,0.851
		c-0.311,0.36-0.55,0.787-0.719,1.278c-0.168,0.49-0.252,1.023-0.252,1.6V60.973z M65.617,60.811c0-0.391,0.046-0.762,0.14-1.116
		c0.092-0.354,0.231-0.663,0.421-0.931c0.188-0.266,0.421-0.479,0.699-0.637c0.277-0.158,0.603-0.238,0.974-0.238
		c0.377,0,0.706,0.08,0.989,0.238s0.519,0.371,0.707,0.637c0.188,0.268,0.329,0.576,0.425,0.931
		c0.095,0.354,0.143,0.728,0.143,1.116v0.162c0,0.395-0.048,0.77-0.143,1.119c-0.096,0.353-0.236,0.66-0.422,0.928
		c-0.187,0.266-0.42,0.479-0.703,0.633c-0.283,0.156-0.609,0.234-0.979,0.234c-0.378,0-0.705-0.078-0.985-0.234
		c-0.281-0.154-0.516-0.367-0.703-0.633c-0.188-0.268-0.329-0.575-0.421-0.928c-0.094-0.352-0.14-0.725-0.14-1.119L65.617,60.811
		L65.617,60.811z"/>
	<path fill="#FFFFFF" d="M74.641,53.597h-1.354v11.25h1.354V53.597z"/>
</g>
</svg>
