<?xml version="1.0" encoding="utf-8"?>
<!-- Generator: Adobe Illustrator 16.0.0, SVG Export Plug-In . SVG Version: 6.00 Build 0)  -->
<!DOCTYPE svg PUBLIC "-//W3C//DTD SVG 1.0//EN" "http://www.w3.org/TR/2001/REC-SVG-20010904/DTD/svg10.dtd">
<svg version="1.0" id="Слой_1" xmlns="http://www.w3.org/2000/svg" xmlns:xlink="http://www.w3.org/1999/xlink" x="0px" y="0px"
	 width="67px" height="67px" viewBox="0 0 67 67" enable-background="new 0 0 67 67" xml:space="preserve">
<g>
	<path fill="none" stroke="#E65D17" stroke-width="2" stroke-miterlimit="10" d="M20.266,28.921v-0.265
		c0-3.706,3.033-6.739,6.74-6.739h14.796c3.707,0,6.739,3.033,6.739,6.739v9.688c0,3.708-3.032,6.739-6.739,6.739H27.006
		c-3.707,0-6.74-3.031-6.74-6.739v-0.264"/>
	<path fill="none" stroke="#E65D17" stroke-width="2" stroke-miterlimit="10" d="M29.322,35.554c0,1.39-1.138,2.527-2.527,2.527
		h-7.809c-1.39,0-2.527-1.138-2.527-2.527v-4.105c0-1.39,1.138-2.527,2.527-2.527h7.809c1.39,0,2.527,1.138,2.527,2.527V35.554z"/>
	<circle fill="#E65D17" cx="24.147" cy="33.479" r="1.706"/>
</g>
<circle fill="none" stroke="#E65D17" stroke-miterlimit="10" cx="33.5" cy="33.5" r="33"/>
</svg>
