<?xml version="1.0" encoding="utf-8"?>
<!-- Generator: Adobe Illustrator 16.0.0, SVG Export Plug-In . SVG Version: 6.00 Build 0)  -->
<!DOCTYPE svg PUBLIC "-//W3C//DTD SVG 1.1//EN" "http://www.w3.org/Graphics/SVG/1.1/DTD/svg11.dtd">
<svg version="1.1" id="Слой_1" xmlns="http://www.w3.org/2000/svg" xmlns:xlink="http://www.w3.org/1999/xlink" x="0px" y="0px"
	 width="34.666px" height="34.666px" viewBox="0 0 34.666 34.666" enable-background="new 0 0 34.666 34.666" xml:space="preserve">
<path fill="#999999" d="M17.332,34.666C7.775,34.666,0,26.89,0,17.333C0,7.775,7.775,0,17.332,0c9.558,0,17.334,7.775,17.334,17.333
	C34.666,26.89,26.89,34.666,17.332,34.666z M17.332,2C8.878,2,2,8.878,2,17.333s6.878,15.333,15.332,15.333
	c8.455,0,15.334-6.878,15.334-15.333S25.787,2,17.332,2z"/>
<g>
	<g>
		<path fill="#999999" d="M10.294,22.022H8.517v-8.357l-2.561,0.94V12.92l3.889-1.443h0.449V22.022z"/>
	</g>
	<g>
		<path fill="#999999" d="M17.055,22.161c-0.581,0-1.098-0.124-1.536-0.368c-0.433-0.242-0.798-0.563-1.086-0.953
			c-0.283-0.385-0.499-0.825-0.64-1.312c-0.139-0.479-0.209-0.965-0.209-1.449v-0.597c0-0.474,0.03-0.954,0.088-1.428
			c0.059-0.479,0.163-0.944,0.31-1.381c0.147-0.441,0.347-0.858,0.593-1.238c0.251-0.387,0.569-0.727,0.945-1.011
			c0.376-0.284,0.828-0.508,1.341-0.667c0.507-0.158,1.102-0.238,1.766-0.238h0.367v1.578h-0.367c-0.569,0-1.06,0.085-1.452,0.254
			c-0.391,0.168-0.715,0.393-0.964,0.669c-0.251,0.279-0.445,0.604-0.575,0.964c-0.058,0.159-0.106,0.321-0.146,0.486
			c0.162-0.11,0.334-0.2,0.516-0.271c0.861-0.337,1.958-0.304,2.687,0.081c0.392,0.207,0.719,0.482,0.972,0.819
			c0.25,0.329,0.438,0.711,0.562,1.135c0.117,0.418,0.178,0.848,0.178,1.279c0,0.5-0.071,0.975-0.211,1.411
			c-0.144,0.445-0.358,0.837-0.642,1.166c-0.28,0.33-0.636,0.595-1.053,0.785S17.596,22.161,17.055,22.161z M15.362,17.691v0.421
			c0,0.422,0.05,0.795,0.149,1.109c0.099,0.313,0.23,0.574,0.391,0.78c0.158,0.201,0.339,0.354,0.539,0.457
			c0.437,0.224,0.934,0.185,1.286,0.009c0.194-0.095,0.359-0.229,0.495-0.402c0.137-0.178,0.241-0.39,0.318-0.644
			c0.074-0.254,0.111-0.54,0.111-0.848c0-0.276-0.034-0.544-0.104-0.795c-0.068-0.248-0.17-0.469-0.303-0.657
			c-0.127-0.18-0.292-0.327-0.488-0.438c-0.332-0.185-0.829-0.21-1.245-0.067c-0.183,0.063-0.351,0.149-0.502,0.258
			c-0.151,0.109-0.287,0.239-0.402,0.387C15.503,17.394,15.421,17.539,15.362,17.691z"/>
	</g>
	<g>
		<path fill="#999999" d="M26.345,21.021h-1.777v-3.158H21.78V16.16h2.787v-2.918h1.777v2.918h2.788v1.702h-2.788V21.021z"/>
	</g>
</g>
</svg>
