<?xml version="1.0" encoding="utf-8"?>
<!-- Generator: Adobe Illustrator 16.0.0, SVG Export Plug-In . SVG Version: 6.00 Build 0)  -->
<!DOCTYPE svg PUBLIC "-//W3C//DTD SVG 1.0//EN" "http://www.w3.org/TR/2001/REC-SVG-20010904/DTD/svg10.dtd">
<svg version="1.0" id="Слой_1" xmlns="http://www.w3.org/2000/svg" xmlns:xlink="http://www.w3.org/1999/xlink" x="0px" y="0px"
	 width="124.961px" height="35.86px" viewBox="0 0 124.961 35.86" enable-background="new 0 0 124.961 35.86" xml:space="preserve">
<path d="M124.961,32.267c0,1.985-1.609,3.594-3.598,3.594H3.602C1.612,35.86,0,34.252,0,32.267V3.6C0,1.614,1.612,0,3.602,0h117.762
	c1.988,0,3.598,1.614,3.598,3.6V32.267L124.961,32.267z"/>
<path fill="#FFFFFF" d="M30.651,22.571c-0.019,0.083-0.492,1.73-1.67,3.4c-0.983,1.471-2.014,2.908-3.652,2.934
	c-1.588,0.037-2.124-0.935-3.947-0.935c-1.841,0-2.411,0.909-3.937,0.972c-1.557,0.059-2.749-1.568-3.769-3.027
	c-2.036-2.977-3.624-8.388-1.496-12.068c1.03-1.806,2.909-2.969,4.917-3c1.562-0.031,3.009,1.054,3.968,1.054
	c0.941,0,2.732-1.299,4.578-1.105c0.773,0.023,2.971,0.306,4.388,2.373c-0.113,0.07-2.618,1.54-2.591,4.566
	C27.472,21.358,30.613,22.559,30.651,22.571z M24.438,8.837C25.259,7.811,25.82,6.417,25.664,5
	c-1.188,0.054-2.673,0.821-3.527,1.825c-0.757,0.884-1.432,2.334-1.257,3.696C22.212,10.62,23.582,9.848,24.438,8.837z
	 M45.473,16.243h-2.483l-4.021,12.49h2.076l1.112-3.668h4.058l1.167,3.668h2.131L45.473,16.243z M42.509,23.525l1.037-3.261
	c0.271-1.037,0.47-1.822,0.592-2.354h0.038c0.308,1.235,0.519,2.02,0.63,2.354l1.055,3.261H42.509z M58.787,20.802
	c-0.709-0.84-1.595-1.26-2.657-1.26c-1.36,0-2.373,0.537-3.04,1.613h-0.038l-0.112-1.429h-1.761c0.05,1.014,0.075,2.003,0.075,2.965
	v9.712h2.001v-4.745h0.038c0.518,0.854,1.371,1.278,2.558,1.278c1.1,0,2.02-0.395,2.761-1.184c0.829-0.891,1.241-2.104,1.241-3.634
	C59.853,22.749,59.5,21.643,58.787,20.802z M57.184,26.492c-0.419,0.579-1.006,0.869-1.759,0.869c-0.643,0-1.166-0.226-1.566-0.675
	c-0.4-0.453-0.602-1.006-0.602-1.659v-1.502c0-0.161,0.032-0.362,0.093-0.61c0.122-0.531,0.384-0.96,0.786-1.288
	c0.401-0.327,0.85-0.491,1.344-0.491c0.728,0,1.31,0.297,1.742,0.889c0.395,0.568,0.593,1.293,0.593,2.168
	C57.815,25.144,57.604,25.911,57.184,26.492z M69.148,20.802c-0.711-0.84-1.599-1.26-2.66-1.26c-1.359,0-2.371,0.537-3.039,1.613
	h-0.038L63.3,19.727h-1.76c0.05,1.014,0.075,2.003,0.075,2.965v9.712h2v-4.745h0.039c0.517,0.854,1.37,1.278,2.555,1.278
	c1.102,0,2.021-0.395,2.761-1.184c0.829-0.891,1.243-2.104,1.243-3.634C70.212,22.749,69.857,21.643,69.148,20.802z M67.543,26.492
	c-0.419,0.579-1.006,0.869-1.759,0.869c-0.645,0-1.166-0.226-1.568-0.675c-0.4-0.453-0.602-1.006-0.602-1.659v-1.502
	c0-0.161,0.032-0.362,0.094-0.61c0.123-0.531,0.385-0.96,0.786-1.288c0.402-0.327,0.849-0.491,1.345-0.491
	c0.729,0,1.307,0.297,1.74,0.889c0.396,0.568,0.596,1.293,0.596,2.168C68.175,25.144,67.963,25.911,67.543,26.492z M81.037,23.065
	c-0.511-0.578-1.297-1.086-2.373-1.518c-0.878-0.348-1.483-0.669-1.817-0.965c-0.382-0.322-0.572-0.729-0.572-1.223
	c0-0.445,0.167-0.823,0.499-1.13c0.395-0.347,0.944-0.52,1.648-0.52c0.892,0,1.687,0.192,2.391,0.575l0.5-1.633
	c-0.753-0.394-1.698-0.592-2.833-0.592c-1.274,0-2.294,0.328-3.058,0.983c-0.768,0.655-1.151,1.499-1.151,2.524
	c0,1.572,1.093,2.768,3.281,3.583c0.802,0.296,1.377,0.618,1.722,0.965c0.348,0.347,0.521,0.774,0.521,1.28
	c0,0.568-0.21,1.025-0.628,1.363c-0.424,0.341-1.01,0.512-1.762,0.512c-1.052,0-2.017-0.268-2.893-0.798l-0.465,1.667
	c0.813,0.52,1.891,0.779,3.235,0.779c1.458,0,2.59-0.364,3.403-1.093c0.741-0.669,1.11-1.532,1.11-2.597
	C81.795,24.366,81.542,23.644,81.037,23.065z M88.41,21.229v-1.503h-2.205v-2.242l-1.966,0.592v1.65h-1.313v1.501h1.313v4.54
	c0,1.138,0.224,1.945,0.668,2.428s1.063,0.723,1.854,0.723c0.642,0,1.163-0.073,1.555-0.222l-0.055-1.52
	c-0.235,0.063-0.53,0.093-0.888,0.093c-0.779,0-1.169-0.555-1.169-1.667v-4.373H88.41L88.41,21.229z M97.209,20.86
	c-0.8-0.879-1.865-1.316-3.186-1.316c-1.372,0-2.461,0.445-3.271,1.333c-0.809,0.89-1.214,2.032-1.214,3.429
	c0,1.334,0.395,2.439,1.178,3.317c0.784,0.876,1.836,1.313,3.159,1.313c1.371,0,2.47-0.455,3.299-1.371
	c0.791-0.889,1.188-2.025,1.188-3.409C98.364,22.809,97.979,21.71,97.209,20.86z M95.732,26.376
	c-0.434,0.729-1.033,1.096-1.797,1.096c-0.781,0-1.384-0.359-1.817-1.078c-0.359-0.592-0.537-1.305-0.537-2.136
	c0-0.855,0.178-1.578,0.537-2.175c0.418-0.718,1.03-1.076,1.835-1.076c0.775,0,1.377,0.357,1.795,1.076
	c0.36,0.595,0.538,1.307,0.538,2.137C96.286,25.051,96.101,25.772,95.732,26.376z M104.867,19.578
	c-0.149-0.022-0.316-0.036-0.5-0.036c-0.519,0-1.003,0.16-1.447,0.483c-0.455,0.356-0.789,0.835-1.002,1.427h-0.054l-0.074-1.725
	h-1.741c0.05,0.854,0.074,1.799,0.074,2.836l-0.02,6.17h2.001v-4.726c0-0.716,0.167-1.309,0.502-1.779
	c0.381-0.532,0.925-0.796,1.63-0.796c0.222,0,0.433,0.018,0.631,0.054V19.578z M113.021,20.97c-0.666-0.962-1.647-1.445-2.946-1.445
	c-1.321,0-2.373,0.483-3.149,1.445c-0.742,0.902-1.114,2.033-1.114,3.391c0,1.384,0.398,2.486,1.194,3.309
	c0.798,0.82,1.896,1.23,3.29,1.23c1.162,0,2.168-0.185,3.021-0.555l-0.314-1.389c-0.726,0.283-1.54,0.425-2.429,0.425
	c-0.802,0-1.457-0.21-1.965-0.629c-0.556-0.47-0.846-1.15-0.869-2.041h6.005c0.047-0.246,0.073-0.548,0.073-0.905
	C113.817,22.681,113.55,21.735,113.021,20.97z M111.907,23.284h-4.168c0.061-0.604,0.26-1.123,0.592-1.557
	c0.407-0.545,0.938-0.815,1.594-0.815c0.718,0,1.247,0.277,1.594,0.835c0.271,0.434,0.401,0.944,0.389,1.539V23.284z M40.134,6.69
	c0.177-0.084,0.379-0.163,0.602-0.237c0.226-0.072,0.45-0.108,0.675-0.108c0.327,0,0.588,0.078,0.781,0.232
	c0.195,0.155,0.293,0.37,0.293,0.642c0,0.152-0.034,0.29-0.1,0.41c-0.066,0.122-0.159,0.225-0.277,0.314
	c-0.118,0.088-0.258,0.157-0.418,0.206c-0.162,0.05-0.336,0.073-0.524,0.073h-0.41v0.747h0.41c0.175,0,0.354,0.017,0.533,0.046
	c0.179,0.029,0.34,0.085,0.487,0.164c0.145,0.081,0.264,0.187,0.355,0.323c0.091,0.138,0.135,0.312,0.135,0.525
	c0,0.314-0.112,0.566-0.34,0.754c-0.227,0.189-0.55,0.282-0.969,0.282c-0.254,0-0.506-0.036-0.754-0.108
	c-0.25-0.074-0.453-0.149-0.61-0.229l-0.247,0.756c0.244,0.14,0.507,0.241,0.792,0.3c0.286,0.06,0.575,0.091,0.867,0.091
	c0.272,0,0.545-0.033,0.818-0.096s0.521-0.168,0.743-0.313c0.221-0.147,0.399-0.334,0.536-0.565c0.137-0.23,0.206-0.516,0.206-0.856
	c0-0.208-0.038-0.396-0.114-0.564c-0.077-0.172-0.179-0.319-0.309-0.447c-0.13-0.128-0.282-0.23-0.456-0.306
	c-0.173-0.076-0.356-0.128-0.55-0.159V8.541c0.351-0.085,0.643-0.254,0.87-0.51c0.227-0.256,0.339-0.57,0.339-0.947
	c0-0.474-0.167-0.85-0.509-1.128c-0.338-0.279-0.803-0.418-1.39-0.418c-0.366,0-0.682,0.042-0.952,0.132
	c-0.27,0.086-0.512,0.195-0.723,0.323L40.134,6.69z M47.739,11.774h0.885c-0.041-0.25-0.064-0.602-0.064-1.057V9.088
	c0-1.22-0.579-1.831-1.736-1.831c-0.606,0-1.111,0.128-1.519,0.382l0.2,0.646c0.333-0.219,0.716-0.328,1.153-0.328
	c0.613,0,0.918,0.291,0.918,0.874v0.082c-0.825,0-1.464,0.138-1.913,0.413c-0.449,0.276-0.673,0.692-0.673,1.243
	c0,0.188,0.032,0.362,0.1,0.519c0.067,0.159,0.161,0.295,0.283,0.412c0.121,0.115,0.265,0.206,0.428,0.273
	c0.165,0.066,0.347,0.1,0.545,0.1c0.566,0,0.998-0.205,1.294-0.611h0.027L47.739,11.774L47.739,11.774z M47.603,10.252
	c0,0.127-0.026,0.247-0.081,0.359c-0.054,0.113-0.125,0.208-0.213,0.288c-0.088,0.079-0.188,0.142-0.302,0.187
	c-0.115,0.046-0.236,0.067-0.362,0.067c-0.194,0-0.354-0.056-0.48-0.17c-0.128-0.117-0.191-0.289-0.191-0.52
	c0-0.315,0.136-0.543,0.403-0.683c0.27-0.14,0.679-0.209,1.227-0.209V10.252z M50.48,7.348v4.426h0.983V8.158h1.841v-0.81H50.48z
	 M58.789,8.59c-0.093-0.277-0.223-0.514-0.387-0.711c-0.165-0.196-0.356-0.349-0.579-0.46c-0.22-0.108-0.464-0.163-0.723-0.163
	c-0.669,0-1.167,0.265-1.494,0.792h-0.019l-0.054-0.701h-0.865c0.009,0.256,0.02,0.503,0.024,0.742
	c0.008,0.241,0.01,0.479,0.01,0.715v4.771h0.985v-2.33h0.019c0.256,0.418,0.673,0.628,1.256,0.628c0.292,0,0.557-0.059,0.797-0.173
	c0.239-0.116,0.446-0.276,0.618-0.484c0.174-0.204,0.308-0.453,0.405-0.746c0.098-0.29,0.147-0.611,0.147-0.965
	C58.93,9.171,58.882,8.867,58.789,8.59z M57.617,10.679c-0.206,0.281-0.495,0.422-0.865,0.422c-0.157,0-0.3-0.027-0.433-0.086
	c-0.13-0.057-0.241-0.139-0.335-0.241c-0.094-0.104-0.167-0.225-0.218-0.364c-0.054-0.142-0.078-0.293-0.078-0.456V9.217
	c0-0.165,0.029-0.32,0.09-0.467c0.063-0.145,0.141-0.269,0.243-0.373c0.099-0.102,0.216-0.184,0.35-0.246
	c0.134-0.06,0.271-0.091,0.41-0.091c0.175,0,0.336,0.037,0.479,0.113c0.142,0.077,0.264,0.18,0.364,0.31
	c0.099,0.131,0.175,0.289,0.226,0.474c0.053,0.184,0.08,0.387,0.08,0.604C57.929,10.016,57.823,10.395,57.617,10.679z M64.211,7.349
	h-1.047l-0.748,2.458c-0.06,0.195-0.107,0.367-0.144,0.516c-0.036,0.147-0.071,0.271-0.1,0.369h-0.02
	c-0.048-0.176-0.093-0.339-0.137-0.483c-0.042-0.146-0.083-0.275-0.126-0.391L61.05,7.349h-1.083l1.603,4.071
	c0.036,0.102,0.055,0.171,0.055,0.208c0,0.037-0.024,0.104-0.071,0.2c-0.141,0.291-0.327,0.533-0.557,0.729
	c-0.231,0.195-0.474,0.325-0.729,0.391l0.238,0.828c0.382-0.065,0.744-0.251,1.084-0.554c0.229-0.213,0.471-0.551,0.723-1.016
	c0.251-0.465,0.511-1.062,0.779-1.79L64.211,7.349L64.211,7.349z M65.914,9.807h0.465c0.169,0,0.326,0.011,0.473,0.033
	c0.146,0.021,0.273,0.058,0.383,0.114c0.108,0.053,0.191,0.125,0.254,0.213c0.062,0.089,0.09,0.195,0.09,0.323
	c0,0.195-0.09,0.357-0.268,0.487c-0.18,0.131-0.436,0.196-0.77,0.196c-0.211,0-0.42-0.03-0.623-0.086
	c-0.203-0.057-0.383-0.129-0.541-0.214l-0.258,0.646c0.215,0.122,0.456,0.21,0.723,0.269c0.266,0.056,0.537,0.087,0.809,0.087
	c0.225,0,0.455-0.024,0.692-0.07c0.235-0.045,0.454-0.119,0.65-0.223c0.198-0.102,0.36-0.24,0.487-0.419
	c0.129-0.174,0.191-0.395,0.191-0.655c0-0.158-0.033-0.298-0.098-0.423c-0.068-0.123-0.157-0.23-0.266-0.318
	c-0.111-0.087-0.23-0.159-0.367-0.212c-0.137-0.057-0.279-0.091-0.424-0.11V9.416c0.113-0.025,0.229-0.063,0.34-0.115
	c0.111-0.051,0.215-0.119,0.305-0.199c0.092-0.082,0.164-0.177,0.218-0.281c0.056-0.107,0.083-0.23,0.083-0.37
	c0-0.226-0.051-0.413-0.15-0.565c-0.1-0.151-0.229-0.274-0.387-0.369c-0.158-0.093-0.34-0.16-0.541-0.199
	c-0.201-0.039-0.403-0.061-0.605-0.061c-0.256,0-0.508,0.027-0.76,0.079c-0.254,0.051-0.506,0.146-0.762,0.286l0.256,0.637
	c0.151-0.084,0.316-0.156,0.496-0.214c0.177-0.059,0.354-0.087,0.53-0.087c0.273,0,0.489,0.056,0.644,0.165
	c0.156,0.109,0.231,0.255,0.231,0.437c0,0.177-0.091,0.325-0.272,0.446c-0.182,0.123-0.439,0.182-0.773,0.182h-0.455V9.807z
	 M70.228,7.348v4.423h1.275c0.203-0.381,0.4-0.755,0.585-1.119c0.187-0.365,0.373-0.729,0.562-1.093
	c0.102-0.212,0.206-0.419,0.309-0.62c0.104-0.2,0.207-0.436,0.311-0.709h0.045c-0.02,0.334-0.035,0.664-0.05,0.994
	c-0.016,0.327-0.024,0.655-0.024,0.981v1.566h0.93V7.346h-1.271L71.804,9.44c-0.115,0.231-0.229,0.458-0.343,0.679
	c-0.112,0.222-0.226,0.447-0.343,0.679l-0.018-0.018c0.018-0.317,0.033-0.617,0.047-0.902c0.013-0.284,0.019-0.606,0.019-0.964
	V7.348H70.228z M75.708,7.348v0.81h1.341v3.616h0.964V8.158h1.348v-0.81H75.708z M84.246,8.492
	c-0.082-0.258-0.206-0.481-0.369-0.666c-0.157-0.186-0.353-0.328-0.579-0.427c-0.231-0.102-0.482-0.151-0.76-0.151
	c-0.317,0-0.605,0.062-0.864,0.183c-0.256,0.121-0.477,0.288-0.659,0.5c-0.18,0.212-0.323,0.463-0.423,0.751
	c-0.099,0.288-0.147,0.604-0.147,0.942c0,0.34,0.049,0.646,0.147,0.919c0.1,0.273,0.245,0.507,0.432,0.701
	c0.189,0.194,0.421,0.344,0.694,0.45c0.272,0.106,0.583,0.161,0.926,0.161c0.572,0,1.067-0.092,1.485-0.274l-0.153-0.684
	c-0.365,0.14-0.762,0.208-1.193,0.208c-0.411,0-0.746-0.114-0.995-0.341c-0.254-0.226-0.385-0.551-0.397-0.969h2.949
	c0.014-0.059,0.022-0.129,0.028-0.205c0.005-0.076,0.009-0.156,0.009-0.241C84.375,9.037,84.333,8.748,84.246,8.492z M81.389,9.097
	c0.03-0.341,0.146-0.62,0.346-0.839c0.201-0.219,0.442-0.328,0.729-0.328c0.316,0,0.557,0.109,0.724,0.325
	c0.167,0.215,0.249,0.495,0.249,0.842H81.389z M88.338,11.774c0.155,0.011,0.352,0.023,0.585,0.036
	c0.231,0.013,0.471,0.019,0.716,0.019c0.217,0,0.466-0.014,0.739-0.036c0.277-0.025,0.54-0.083,0.79-0.175
	c0.249-0.091,0.457-0.228,0.628-0.41c0.167-0.183,0.255-0.427,0.255-0.737c0-0.31-0.101-0.552-0.3-0.729
	c-0.202-0.176-0.464-0.292-0.785-0.348l-0.009-0.025c0.117-0.024,0.229-0.063,0.334-0.115c0.104-0.05,0.199-0.115,0.282-0.195
	c0.082-0.08,0.146-0.173,0.195-0.278c0.047-0.105,0.073-0.225,0.073-0.36c0-0.261-0.071-0.466-0.212-0.617
	c-0.14-0.153-0.311-0.266-0.519-0.341c-0.204-0.077-0.423-0.126-0.651-0.146c-0.225-0.022-0.432-0.033-0.613-0.033
	c-0.286,0-0.563,0.009-0.838,0.027c-0.272,0.019-0.495,0.043-0.671,0.073V11.774z M89.284,8.016
	c0.135-0.014,0.238-0.022,0.312-0.028c0.079-0.006,0.167-0.008,0.27-0.008c0.357,0,0.62,0.045,0.787,0.141
	c0.169,0.093,0.251,0.24,0.251,0.44c0,0.11-0.027,0.202-0.086,0.277c-0.06,0.077-0.137,0.137-0.241,0.182
	c-0.104,0.046-0.224,0.079-0.36,0.099c-0.136,0.022-0.279,0.033-0.431,0.033h-0.501V8.016z M89.284,11.107v-1.32h0.518
	c0.384,0,0.686,0.047,0.914,0.146c0.221,0.096,0.335,0.271,0.335,0.525c0,0.144-0.038,0.26-0.105,0.346
	c-0.069,0.089-0.163,0.159-0.278,0.209c-0.114,0.052-0.244,0.085-0.381,0.104c-0.141,0.019-0.275,0.027-0.411,0.027
	c-0.11,0-0.205-0.002-0.288-0.008C89.506,11.13,89.403,11.121,89.284,11.107L89.284,11.107z"/>
</svg>
