<?xml version="1.0" encoding="utf-8"?>
<!-- Generator: Adobe Illustrator 16.0.0, SVG Export Plug-In . SVG Version: 6.00 Build 0)  -->
<!DOCTYPE svg PUBLIC "-//W3C//DTD SVG 1.0//EN" "http://www.w3.org/TR/2001/REC-SVG-20010904/DTD/svg10.dtd">
<svg version="1.0" id="Слой_1" xmlns="http://www.w3.org/2000/svg" xmlns:xlink="http://www.w3.org/1999/xlink" x="0px" y="0px"
	 width="34.8px" height="34.8px" viewBox="0 0 34.8 34.8" enable-background="new 0 0 34.8 34.8" xml:space="preserve">
<path fill="#D0D2D3" d="M17.392,34.8h0.017c9.605,0,17.392-7.787,17.392-17.393V17.4C34.8,7.791,27.01,0,17.401,0l0,0
	C7.791,0,0,7.791,0,17.4v0.008C0,27.013,7.787,34.8,17.392,34.8z"/>
<path id="facebook_3_" fill="#666666" d="M19.04,28.458V18.8h3.242l0.485-3.763H19.04v-2.403c0-1.091,0.304-1.833,1.864-1.833
	l1.995-0.001V7.434c-0.345-0.045-1.528-0.149-2.905-0.149c-2.873,0-4.841,1.754-4.841,4.977v2.776h-3.25V18.8h3.25v9.658H19.04z"/>
</svg>
