<?xml version="1.0" encoding="utf-8"?>
<!-- Generator: Adobe Illustrator 16.0.0, SVG Export Plug-In . SVG Version: 6.00 Build 0)  -->
<!DOCTYPE svg PUBLIC "-//W3C//DTD SVG 1.0//EN" "http://www.w3.org/TR/2001/REC-SVG-20010904/DTD/svg10.dtd">
<svg version="1.0" id="Слой_1" xmlns="http://www.w3.org/2000/svg" xmlns:xlink="http://www.w3.org/1999/xlink" x="0px" y="0px"
	 width="124.961px" height="35.859px" viewBox="0 0 124.961 35.859" enable-background="new 0 0 124.961 35.859"
	 xml:space="preserve">
<path d="M124.961,32.266c0,1.985-1.609,3.593-3.598,3.593H3.602C1.612,35.859,0,34.251,0,32.266V3.6C0,1.613,1.612,0,3.602,0
	h117.762c1.988,0,3.598,1.613,3.598,3.6V32.266L124.961,32.266z"/>
<g>
	
		<linearGradient id="SVGID_1_" gradientUnits="userSpaceOnUse" x1="20.8638" y1="30.2095" x2="5.7115" y2="15.0572" gradientTransform="matrix(1 0 0 -1 0 38.6279)">
		<stop  offset="0" style="stop-color:#00A0FF"/>
		<stop  offset="0.0066" style="stop-color:#00A1FF"/>
		<stop  offset="0.2601" style="stop-color:#00BEFF"/>
		<stop  offset="0.5122" style="stop-color:#00D2FF"/>
		<stop  offset="0.7604" style="stop-color:#00DFFF"/>
		<stop  offset="1" style="stop-color:#00E3FF"/>
	</linearGradient>
	<path fill="url(#SVGID_1_)" d="M10.602,7.361c-0.262,0.278-0.418,0.709-0.418,1.269v19.97c0,0.559,0.156,0.988,0.418,1.266
		l0.068,0.066l11.185-11.186v-0.131v-0.132L10.67,7.295L10.602,7.361z"/>
	
		<linearGradient id="SVGID_2_" gradientUnits="userSpaceOnUse" x1="31.7271" y1="20.0151" x2="9.8827" y2="20.0151" gradientTransform="matrix(1 0 0 -1 0 38.6279)">
		<stop  offset="0" style="stop-color:#FFE000"/>
		<stop  offset="0.4087" style="stop-color:#FFBD00"/>
		<stop  offset="0.7754" style="stop-color:#FFA500"/>
		<stop  offset="1" style="stop-color:#FF9C00"/>
	</linearGradient>
	<path fill="url(#SVGID_2_)" d="M25.583,22.475l-3.728-3.73v-0.131v-0.132l3.729-3.729l0.084,0.048l4.417,2.509
		c1.261,0.718,1.261,1.891,0,2.608l-4.417,2.51L25.583,22.475z"/>
	
		<linearGradient id="SVGID_3_" gradientUnits="userSpaceOnUse" x1="23.5962" y1="17.9429" x2="3.0494" y2="-2.604" gradientTransform="matrix(1 0 0 -1 0 38.6279)">
		<stop  offset="0" style="stop-color:#FF3A44"/>
		<stop  offset="1" style="stop-color:#C31162"/>
	</linearGradient>
	<path fill="url(#SVGID_3_)" d="M25.668,22.427l-3.813-3.813L10.602,29.865c0.418,0.441,1.103,0.496,1.876,0.057L25.668,22.427"/>
	
		<linearGradient id="SVGID_4_" gradientUnits="userSpaceOnUse" x1="7.7695" y1="37.9146" x2="16.9453" y2="28.7387" gradientTransform="matrix(1 0 0 -1 0 38.6279)">
		<stop  offset="0" style="stop-color:#32A071"/>
		<stop  offset="0.0685" style="stop-color:#2DA771"/>
		<stop  offset="0.4762" style="stop-color:#15CF74"/>
		<stop  offset="0.8009" style="stop-color:#06E775"/>
		<stop  offset="1" style="stop-color:#00F076"/>
	</linearGradient>
	<path fill="url(#SVGID_4_)" d="M25.668,14.799l-13.19-7.494c-0.773-0.439-1.458-0.385-1.876,0.056l11.253,11.253L25.668,14.799z"/>
</g>
<path fill="#FFFFFF" d="M62.698,20.193c-2.124,0-3.854,1.616-3.854,3.842c0,2.211,1.729,3.84,3.854,3.84
	c2.124,0,3.854-1.629,3.854-3.84C66.552,21.809,64.822,20.193,62.698,20.193z M62.698,26.361c-1.163,0-2.167-0.96-2.167-2.326
	c0-1.382,1.004-2.327,2.167-2.327c1.164,0,2.167,0.945,2.167,2.327C64.865,25.401,63.862,26.361,62.698,26.361z M54.289,20.193
	c-2.122,0-3.855,1.616-3.855,3.842c0,2.211,1.733,3.84,3.855,3.84c2.125,0,3.854-1.629,3.854-3.84
	C58.143,21.809,56.414,20.193,54.289,20.193z M54.289,26.361c-1.164,0-2.167-0.96-2.167-2.326c0-1.382,1.003-2.327,2.167-2.327
	c1.165,0,2.168,0.945,2.168,2.327C56.457,25.401,55.453,26.361,54.289,26.361z M44.288,21.373v1.629h3.897
	c-0.115,0.915-0.423,1.586-0.888,2.051c-0.566,0.566-1.454,1.193-3.009,1.193c-2.4,0-4.277-1.936-4.277-4.334
	c0-2.4,1.877-4.335,4.277-4.335c1.294,0,2.24,0.509,2.938,1.163l1.151-1.149c-0.976-0.931-2.271-1.644-4.088-1.644
	c-3.289,0-6.052,2.677-6.052,5.965c0,3.285,2.764,5.963,6.052,5.963c1.773,0,3.112-0.583,4.16-1.674
	c1.075-1.075,1.409-2.588,1.409-3.811c0-0.379-0.028-0.727-0.086-1.018H44.288z M85.194,22.638c-0.32-0.857-1.293-2.445-3.287-2.445
	c-1.979,0-3.621,1.558-3.621,3.842c0,2.152,1.629,3.84,3.812,3.84c1.76,0,2.776-1.076,3.199-1.702l-1.309-0.871
	c-0.436,0.64-1.033,1.06-1.891,1.06c-0.859,0-1.471-0.393-1.862-1.164l5.134-2.123L85.194,22.638z M79.958,23.917
	c-0.044-1.482,1.147-2.239,2.008-2.239c0.669,0,1.236,0.334,1.425,0.814L79.958,23.917z M75.784,27.641h1.686V16.354h-1.686V27.641z
	 M73.02,21.052h-0.059c-0.378-0.451-1.106-0.859-2.022-0.859c-1.92,0-3.68,1.688-3.68,3.857c0,2.15,1.76,3.824,3.68,3.824
	c0.916,0,1.645-0.407,2.022-0.873h0.059v0.553c0,1.469-0.786,2.254-2.051,2.254c-1.033,0-1.673-0.74-1.936-1.367l-1.468,0.611
	c0.421,1.017,1.541,2.268,3.403,2.268c1.978,0,3.649-1.162,3.649-3.998v-6.895H73.02V21.052z M71.085,26.361
	c-1.164,0-2.139-0.974-2.139-2.311c0-1.354,0.975-2.343,2.139-2.343c1.148,0,2.051,0.989,2.051,2.343
	C73.136,25.387,72.234,26.361,71.085,26.361z M93.097,16.354h-4.036v11.287h1.685v-4.276h2.352c1.868,0,3.703-1.352,3.703-3.505
	C96.8,17.706,94.965,16.354,93.097,16.354z M93.142,21.794h-2.396v-3.869h2.396c1.26,0,1.974,1.043,1.974,1.935
	C95.116,20.735,94.402,21.794,93.142,21.794z M103.554,20.174c-1.221,0-2.483,0.536-3.007,1.728l1.495,0.624
	c0.319-0.624,0.915-0.827,1.54-0.827c0.871,0,1.758,0.522,1.771,1.451v0.117c-0.305-0.174-0.959-0.438-1.757-0.438
	c-1.612,0-3.253,0.885-3.253,2.543c0,1.509,1.321,2.482,2.804,2.482c1.131,0,1.756-0.507,2.147-1.104h0.059v0.872h1.627v-4.329
	C106.981,21.291,105.485,20.174,103.554,20.174z M103.349,26.359c-0.551,0-1.319-0.275-1.319-0.959c0-0.87,0.958-1.205,1.784-1.205
	c0.74,0,1.09,0.16,1.54,0.379C105.224,25.619,104.324,26.359,103.349,26.359z M112.905,20.421l-1.932,4.893h-0.058l-2.004-4.893
	h-1.814l3.006,6.838l-1.715,3.805h1.758l4.631-10.643H112.905z M97.731,27.641h1.683V16.354h-1.683V27.641z M39.921,5.991
	c0.211-0.128,0.453-0.235,0.723-0.323c0.27-0.089,0.586-0.133,0.952-0.133c0.587,0,1.052,0.14,1.39,0.419
	c0.342,0.279,0.509,0.655,0.509,1.129c0,0.376-0.112,0.691-0.339,0.947c-0.227,0.255-0.519,0.426-0.87,0.51v0.027
	c0.194,0.031,0.377,0.083,0.55,0.16c0.174,0.076,0.326,0.177,0.456,0.305c0.13,0.128,0.232,0.276,0.309,0.447
	c0.076,0.17,0.114,0.358,0.114,0.565c0,0.34-0.069,0.625-0.206,0.856c-0.136,0.23-0.314,0.418-0.536,0.565
	c-0.222,0.144-0.469,0.25-0.743,0.312c-0.273,0.063-0.546,0.096-0.818,0.096c-0.292,0-0.581-0.03-0.867-0.091
	c-0.284-0.058-0.547-0.159-0.792-0.299l0.247-0.756c0.157,0.079,0.361,0.155,0.61,0.229c0.248,0.073,0.5,0.108,0.754,0.108
	c0.419,0,0.743-0.093,0.969-0.281c0.228-0.189,0.34-0.439,0.34-0.755c0-0.213-0.044-0.387-0.135-0.523s-0.21-0.244-0.355-0.324
	c-0.146-0.079-0.308-0.134-0.487-0.163c-0.179-0.031-0.358-0.046-0.533-0.046h-0.41V8.222h0.41c0.188,0,0.362-0.024,0.524-0.073
	c0.161-0.049,0.3-0.117,0.418-0.205c0.118-0.089,0.211-0.194,0.277-0.314c0.066-0.122,0.1-0.258,0.1-0.411
	c0-0.273-0.098-0.487-0.293-0.642C42,6.422,41.738,6.344,41.411,6.344c-0.225,0-0.449,0.037-0.675,0.109
	c-0.223,0.073-0.425,0.152-0.602,0.237L39.921,5.991z M47.739,11.773h0.885c-0.041-0.25-0.064-0.601-0.064-1.056V9.088
	c0-1.22-0.579-1.831-1.736-1.831c-0.606,0-1.111,0.128-1.519,0.383l0.2,0.645c0.333-0.218,0.716-0.328,1.153-0.328
	c0.613,0,0.918,0.291,0.918,0.874v0.082c-0.825,0-1.464,0.137-1.913,0.414c-0.449,0.276-0.673,0.69-0.673,1.243
	c0,0.188,0.032,0.362,0.1,0.519c0.067,0.158,0.161,0.294,0.283,0.411c0.121,0.115,0.265,0.206,0.428,0.273
	c0.165,0.066,0.347,0.1,0.545,0.1c0.566,0,0.998-0.204,1.294-0.61h0.027L47.739,11.773L47.739,11.773z M47.603,10.251
	c0,0.127-0.026,0.248-0.081,0.359c-0.054,0.113-0.125,0.208-0.213,0.287c-0.088,0.08-0.188,0.142-0.302,0.187
	c-0.115,0.046-0.236,0.068-0.362,0.068c-0.194,0-0.354-0.057-0.48-0.172c-0.128-0.115-0.191-0.288-0.191-0.519
	c0-0.316,0.136-0.543,0.403-0.684c0.27-0.14,0.679-0.209,1.227-0.209V10.251z M50.48,7.348v4.425h0.983V8.157h1.841V7.348H50.48z
	 M58.789,8.589c-0.093-0.277-0.223-0.513-0.387-0.711c-0.165-0.197-0.356-0.35-0.579-0.459c-0.22-0.109-0.464-0.163-0.723-0.163
	c-0.669,0-1.167,0.264-1.494,0.792h-0.019l-0.054-0.701h-0.865c0.009,0.255,0.02,0.503,0.024,0.742
	c0.008,0.241,0.01,0.48,0.01,0.716v4.771h0.985v-2.331h0.019c0.256,0.418,0.673,0.628,1.256,0.628c0.292,0,0.557-0.059,0.797-0.173
	c0.239-0.115,0.446-0.277,0.618-0.484c0.174-0.204,0.308-0.453,0.405-0.745c0.098-0.291,0.147-0.613,0.147-0.965
	C58.93,9.171,58.882,8.866,58.789,8.589z M57.617,10.677c-0.206,0.282-0.495,0.422-0.865,0.422c-0.157,0-0.3-0.027-0.433-0.085
	c-0.13-0.058-0.241-0.138-0.335-0.241c-0.094-0.104-0.167-0.224-0.218-0.364c-0.054-0.14-0.078-0.292-0.078-0.456V9.215
	c0-0.165,0.029-0.319,0.09-0.465c0.063-0.145,0.141-0.27,0.243-0.373c0.099-0.103,0.216-0.186,0.35-0.246
	c0.134-0.06,0.271-0.091,0.41-0.091c0.175,0,0.336,0.038,0.479,0.114c0.142,0.076,0.264,0.179,0.364,0.309
	c0.099,0.131,0.175,0.288,0.226,0.474c0.053,0.184,0.08,0.387,0.08,0.605C57.929,10.015,57.823,10.394,57.617,10.677z M64.211,7.349
	h-1.047l-0.748,2.458c-0.06,0.194-0.107,0.366-0.144,0.515c-0.036,0.149-0.071,0.271-0.1,0.369h-0.02
	c-0.048-0.176-0.093-0.337-0.137-0.482c-0.042-0.146-0.083-0.277-0.126-0.392L61.05,7.349h-1.083l1.603,4.071
	c0.036,0.102,0.055,0.171,0.055,0.208c0,0.037-0.024,0.104-0.071,0.199c-0.141,0.292-0.327,0.534-0.557,0.729
	c-0.231,0.195-0.474,0.325-0.729,0.391l0.238,0.828c0.382-0.065,0.744-0.251,1.084-0.554c0.229-0.214,0.471-0.551,0.723-1.016
	c0.251-0.464,0.511-1.06,0.779-1.789L64.211,7.349L64.211,7.349z M65.914,9.807h0.465c0.169,0,0.326,0.011,0.473,0.033
	c0.146,0.02,0.273,0.058,0.383,0.113c0.108,0.054,0.191,0.125,0.254,0.214c0.062,0.088,0.09,0.195,0.09,0.322
	c0,0.195-0.09,0.357-0.268,0.487c-0.18,0.131-0.436,0.196-0.77,0.196c-0.211,0-0.42-0.03-0.623-0.087
	c-0.203-0.057-0.383-0.129-0.541-0.213l-0.258,0.646c0.215,0.121,0.456,0.21,0.723,0.269c0.266,0.057,0.537,0.087,0.809,0.087
	c0.225,0,0.455-0.024,0.692-0.069c0.235-0.046,0.454-0.12,0.65-0.223c0.198-0.103,0.36-0.241,0.487-0.418
	c0.129-0.175,0.191-0.395,0.191-0.654c0-0.159-0.033-0.299-0.098-0.424c-0.068-0.124-0.157-0.229-0.266-0.318
	c-0.111-0.088-0.23-0.16-0.367-0.214c-0.137-0.055-0.279-0.091-0.424-0.11V9.414c0.113-0.024,0.229-0.063,0.34-0.115
	c0.111-0.05,0.215-0.117,0.305-0.199c0.092-0.082,0.164-0.176,0.218-0.281c0.056-0.107,0.083-0.229,0.083-0.369
	c0-0.226-0.051-0.413-0.15-0.565c-0.1-0.152-0.229-0.275-0.387-0.369c-0.158-0.093-0.34-0.161-0.541-0.2s-0.403-0.059-0.605-0.059
	c-0.256,0-0.508,0.027-0.76,0.078c-0.254,0.051-0.506,0.147-0.762,0.286l0.256,0.636c0.151-0.084,0.316-0.156,0.496-0.213
	c0.177-0.058,0.354-0.087,0.53-0.087c0.273,0,0.489,0.056,0.644,0.164c0.156,0.11,0.231,0.255,0.231,0.437
	c0,0.177-0.091,0.325-0.272,0.447c-0.182,0.123-0.439,0.182-0.773,0.182h-0.455V9.807z M70.228,7.348v4.422h1.275
	c0.203-0.382,0.4-0.755,0.585-1.119c0.187-0.365,0.373-0.729,0.562-1.093c0.102-0.212,0.206-0.419,0.309-0.62
	c0.104-0.2,0.207-0.437,0.311-0.709h0.045c-0.02,0.334-0.035,0.664-0.05,0.993c-0.016,0.328-0.024,0.655-0.024,0.983v1.565h0.93
	V7.346h-1.271L71.804,9.44c-0.115,0.23-0.229,0.457-0.343,0.678c-0.112,0.222-0.226,0.447-0.343,0.679l-0.018-0.018
	c0.018-0.316,0.033-0.617,0.047-0.901c0.013-0.285,0.019-0.607,0.019-0.964V7.348H70.228z M75.708,7.348v0.809h1.341v3.616h0.964
	V8.157h1.348V7.348H75.708z M84.246,8.491c-0.082-0.257-0.206-0.48-0.369-0.665c-0.157-0.186-0.353-0.329-0.579-0.428
	c-0.231-0.101-0.482-0.15-0.76-0.15c-0.317,0-0.605,0.061-0.864,0.183c-0.256,0.121-0.477,0.288-0.659,0.5
	c-0.18,0.212-0.323,0.463-0.423,0.751c-0.099,0.288-0.147,0.603-0.147,0.942s0.049,0.646,0.147,0.919
	c0.1,0.272,0.245,0.506,0.432,0.701c0.189,0.194,0.421,0.344,0.694,0.45c0.272,0.106,0.583,0.16,0.926,0.16
	c0.572,0,1.067-0.092,1.485-0.273l-0.153-0.684c-0.365,0.14-0.762,0.209-1.193,0.209c-0.411,0-0.746-0.114-0.995-0.341
	c-0.254-0.227-0.385-0.551-0.397-0.97h2.949c0.014-0.06,0.022-0.128,0.028-0.204c0.005-0.076,0.009-0.157,0.009-0.241
	C84.375,9.036,84.333,8.749,84.246,8.491z M81.389,9.096c0.03-0.341,0.146-0.62,0.346-0.838c0.201-0.219,0.442-0.328,0.729-0.328
	c0.316,0,0.557,0.109,0.724,0.324c0.167,0.215,0.249,0.496,0.249,0.842H81.389z M88.338,11.773c0.155,0.011,0.352,0.024,0.585,0.036
	c0.231,0.013,0.471,0.018,0.716,0.018c0.217,0,0.466-0.013,0.739-0.035c0.277-0.025,0.54-0.084,0.79-0.175
	c0.249-0.091,0.457-0.228,0.628-0.41c0.167-0.182,0.255-0.428,0.255-0.738c0-0.31-0.101-0.551-0.3-0.728
	c-0.202-0.176-0.464-0.292-0.785-0.346l-0.009-0.027c0.117-0.023,0.229-0.062,0.334-0.114c0.104-0.052,0.199-0.117,0.282-0.195
	c0.082-0.079,0.146-0.171,0.195-0.278c0.047-0.105,0.073-0.225,0.073-0.36c0-0.26-0.071-0.466-0.212-0.618
	c-0.14-0.152-0.311-0.266-0.519-0.342c-0.204-0.076-0.423-0.125-0.651-0.145c-0.225-0.021-0.432-0.032-0.613-0.032
	c-0.286,0-0.563,0.009-0.838,0.027c-0.272,0.02-0.495,0.043-0.671,0.073V11.773z M89.284,8.014c0.135-0.012,0.238-0.021,0.312-0.028
	c0.079-0.006,0.167-0.009,0.27-0.009c0.357,0,0.62,0.046,0.787,0.141c0.169,0.094,0.251,0.241,0.251,0.441
	c0,0.11-0.027,0.202-0.086,0.278c-0.06,0.077-0.137,0.137-0.241,0.183c-0.104,0.044-0.224,0.079-0.36,0.099
	c-0.136,0.021-0.279,0.032-0.431,0.032h-0.501V8.014z M89.284,11.107v-1.32h0.518c0.384,0,0.686,0.048,0.914,0.145
	c0.221,0.097,0.335,0.271,0.335,0.525c0,0.145-0.038,0.261-0.105,0.348c-0.069,0.089-0.163,0.158-0.278,0.209
	c-0.114,0.052-0.244,0.086-0.381,0.104c-0.141,0.019-0.275,0.027-0.411,0.027c-0.11,0-0.205-0.002-0.288-0.009
	C89.506,11.129,89.403,11.12,89.284,11.107L89.284,11.107z"/>
</svg>
