<?xml version="1.0" encoding="utf-8"?>
<!-- Generator: Adobe Illustrator 16.0.0, SVG Export Plug-In . SVG Version: 6.00 Build 0)  -->
<!DOCTYPE svg PUBLIC "-//W3C//DTD SVG 1.0//EN" "http://www.w3.org/TR/2001/REC-SVG-20010904/DTD/svg10.dtd">
<svg version="1.0" id="Слой_1" xmlns="http://www.w3.org/2000/svg" xmlns:xlink="http://www.w3.org/1999/xlink" x="0px" y="0px"
	 width="225.06px" height="20.82px" viewBox="0 0 225.06 40.666" enable-background="new 0 0 225.06 40.666" xml:space="preserve">
<polygon fill="#EC6608" points="39.598,27.417 30.565,0 24.782,0 15.719,27.479 6.882,0 0,0 13.248,40.631 18.271,40.631 
	27.591,11.859 37.01,40.631 41.995,40.631 55.207,0 48.467,0 "/>
<polygon fill="#EC6608" points="88.79,40.631 95.632,40.631 95.632,22.252 111.076,22.252 111.076,15.758 95.632,15.758 
	95.632,6.494 117.063,6.494 117.063,0.001 88.79,0.001 "/>
<path fill="#EC6608" d="M182.707,19.598c1.83-2.172,2.758-4.811,2.758-7.843c0-3.645-1.198-6.555-3.561-8.648
	C179.576,1.046,176.36,0,172.347,0h-21.089v40.631h6.842V23.755h11.276l9.644,16.875h7.674l-9.833-17.283
	C179.21,22.677,181.173,21.42,182.707,19.598 M178.377,11.895c0,1.775-0.494,3.063-1.511,3.938c-1.05,0.902-2.675,1.358-4.833,1.358
	H158.1V6.494h14.179c1.985,0,3.521,0.48,4.567,1.427C177.876,8.858,178.377,10.157,178.377,11.895"/>
<polygon fill="#EC6608" points="203.428,34.138 203.428,22.251 218.873,22.251 218.873,15.759 203.428,15.759 203.428,6.494 
	224.174,6.494 224.174,0 196.585,0 196.585,40.632 225.06,40.632 225.06,34.138 "/>
<polygon fill="#EC6608" points="128.83,6.494 131.307,6.494 131.307,34.171 128.83,34.171 128.83,40.665 138.218,40.665 138.218,0 
	128.83,0 "/>
<polygon fill="#EC6608" points="65.563,40.666 74.952,40.666 74.952,34.172 72.476,34.172 72.476,6.494 74.952,6.494 74.952,0 
	65.563,0 "/>
</svg>
