<?xml version="1.0" encoding="utf-8"?>
<!-- Generator: Adobe Illustrator 16.0.0, SVG Export Plug-In . SVG Version: 6.00 Build 0)  -->
<!DOCTYPE svg PUBLIC "-//W3C//DTD SVG 1.0//EN" "http://www.w3.org/TR/2001/REC-SVG-20010904/DTD/svg10.dtd">
<svg version="1.0" id="Слой_1" xmlns="http://www.w3.org/2000/svg" xmlns:xlink="http://www.w3.org/1999/xlink" x="0px" y="0px"
	 width="34.469px" height="33.938px" viewBox="0 0 34.469 33.938" enable-background="new 0 0 34.469 33.938" xml:space="preserve">
<path fill-rule="evenodd" clip-rule="evenodd" fill="#ACACAC" d="M17.212,33.919c-2.424,0.068-4.835-0.13-7.242-0.401
	c-0.898-0.1-1.794-0.197-2.61-0.636c-1.064-0.574-1.826-1.418-2.26-2.549c-1.888-4.92-3.304-9.992-4.863-15.019
	c-0.606-1.953-0.008-3.534,1.321-4.917C3.772,8.094,6.29,6.153,8.917,4.354c1.487-1.02,2.997-2.009,4.525-2.966
	c0.655-0.409,1.372-0.729,2.085-1.033c1.109-0.474,2.25-0.465,3.366-0.016c1.621,0.65,3.09,1.578,4.527,2.556
	c2.367,1.61,4.727,3.231,6.899,5.102c1.091,0.94,2.201,1.869,3.09,3.012c0.933,1.201,1.318,2.543,0.872,4.053
	c-0.202,0.679-0.408,1.357-0.621,2.035c-1.109,3.52-2.213,7.042-3.339,10.557c-0.308,0.958-0.643,1.91-1.042,2.833
	c-0.714,1.648-1.98,2.667-3.771,2.882c-1.981,0.241-3.974,0.391-5.964,0.541C18.773,33.967,17.991,33.919,17.212,33.919z
	 M17.623,32.112c1.215-0.082,2.817-0.165,4.414-0.306c1.059-0.093,2.125-0.203,3.163-0.424c1.281-0.272,2.208-1.028,2.62-2.33
	c0.196-0.621,0.437-1.227,0.632-1.848c0.615-1.958,1.188-3.929,1.833-5.876c0.725-2.183,1.511-4.346,2.271-6.517
	c0.187-0.533,0.15-1.054-0.06-1.572c-0.336-0.827-0.968-1.419-1.603-2.009c-2.499-2.317-5.228-4.342-8.025-6.281
	c-1.508-1.046-3.058-2.021-4.759-2.73c-0.597-0.249-1.205-0.264-1.789,0.014c-0.752,0.357-1.515,0.706-2.228,1.135
	c-2.43,1.461-4.73,3.117-7,4.813c-1.642,1.227-3.189,2.563-4.557,4.099c-0.563,0.632-0.819,1.361-0.661,2.204
	c0.078,0.413,0.184,0.825,0.321,1.222c0.659,1.892,1.368,3.768,1.993,5.67c0.691,2.103,1.309,4.23,1.966,6.346
	c0.125,0.401,0.298,0.789,0.417,1.194c0.47,1.586,1.631,2.353,3.171,2.592C12.224,31.89,14.729,32.021,17.623,32.112z
	 M31.462,12.967c-0.074,0.02-0.148,0.042-0.22,0.068c-2.939,0.991-5.925,1.8-8.977,2.37c-3.147,0.588-6.289,0.662-9.451,0.11
	c-3.268-0.569-6.459-1.419-9.601-2.476c-0.091-0.03-0.184-0.056-0.277-0.084c-0.016,0.033-0.033,0.064-0.048,0.098
	c0.394,0.245,0.773,0.522,1.185,0.73c2.422,1.211,4.905,2.266,7.529,2.971c3.313,0.892,6.636,1.081,10,0.309
	c2.174-0.499,4.27-1.235,6.341-2.048c1.19-0.468,2.339-1.02,3.365-1.798c0.08-0.06,0.152-0.129,0.239-0.204
	C31.493,12.983,31.475,12.964,31.462,12.967z M20.248,21.42c1.697-0.305,3.395-0.608,5.088-0.925
	c0.097-0.019,0.212-0.158,0.241-0.262c0.187-0.683,0.354-1.372,0.524-2.061c0.13-0.524,0.255-1.05,0.383-1.58
	c-0.054-0.007-0.074-0.017-0.09-0.012c-0.082,0.028-0.162,0.058-0.242,0.091c-1.632,0.651-3.31,1.15-5.041,1.462
	c-0.674,0.121-0.683,0.116-0.754,0.793c-0.086,0.819-0.156,1.64-0.235,2.484C20.192,21.417,20.221,21.425,20.248,21.42z
	 M7.999,16.766c0.29,1.164,0.587,2.325,0.868,3.491c0.042,0.177,0.14,0.227,0.291,0.257c1.139,0.225,2.274,0.463,3.416,0.676
	c0.57,0.107,1.148,0.167,1.745,0.25c0-0.093,0.003-0.14,0-0.187c-0.089-0.937-0.184-1.873-0.263-2.811
	c-0.018-0.206-0.145-0.208-0.289-0.24c-1.176-0.275-2.359-0.528-3.523-0.845c-0.754-0.207-1.483-0.512-2.269-0.788
	C7.985,16.657,7.984,16.713,7.999,16.766z M8.418,20.301c-0.008-0.075-0.008-0.151-0.026-0.222
	c-0.295-1.181-0.587-2.364-0.896-3.542c-0.032-0.123-0.157-0.255-0.273-0.316c-1.025-0.541-2.069-1.049-3.087-1.604
	c-0.595-0.325-1.153-0.718-1.749-1.094C1.604,15.918,5.325,20.089,8.418,20.301z M30.578,17.655
	c0.802-0.945,1.382-2.008,1.548-3.255c0.038-0.282,0.005-0.573,0.005-0.914c-0.132,0.066-0.176,0.083-0.214,0.11
	c-1.496,1.035-3.087,1.896-4.743,2.644c-0.094,0.042-0.188,0.162-0.216,0.265c-0.205,0.769-0.393,1.542-0.583,2.313
	c-0.123,0.489-0.242,0.979-0.377,1.527C27.843,19.883,29.386,19.06,30.578,17.655z M14.478,18.31
	c0.108,1.083,0.212,2.124,0.319,3.194c1.635,0,3.233,0,4.856,0c0.107-1.074,0.208-2.111,0.318-3.2
	C18.125,18.535,16.321,18.528,14.478,18.31z M9.811,23.941c0.022,0.11,0.035,0.202,0.057,0.29c0.169,0.688,0.357,1.374,0.506,2.066
	c0.054,0.246,0.15,0.35,0.399,0.383c0.79,0.103,1.575,0.234,2.364,0.345c0.566,0.08,1.134,0.144,1.744,0.221
	c-0.083-0.897-0.164-1.753-0.245-2.625C13.015,24.392,11.432,24.169,9.811,23.941z M19.815,24.621
	c-0.083,0.876-0.164,1.739-0.248,2.626c0.436-0.056,0.827-0.1,1.215-0.155c0.986-0.141,1.972-0.282,2.957-0.437
	c0.103-0.015,0.253-0.098,0.275-0.178c0.223-0.83,0.424-1.667,0.641-2.538C23.013,24.17,21.423,24.395,19.815,24.621z
	 M14.544,23.653c-0.047-0.488-0.115-0.974-0.136-1.462c-0.01-0.234-0.094-0.304-0.312-0.338c-1.108-0.172-2.215-0.354-3.32-0.547
	c-0.562-0.097-1.117-0.226-1.695-0.345c0,0.071-0.008,0.11,0.001,0.144c0.181,0.725,0.357,1.45,0.552,2.172
	c0.021,0.079,0.142,0.174,0.228,0.187c1.555,0.239,3.111,0.468,4.718,0.705C14.564,23.955,14.558,23.803,14.544,23.653z
	 M20.071,21.94c-0.067,0.705-0.136,1.436-0.207,2.172c0.061,0.008,0.088,0.019,0.114,0.015c1.397-0.196,2.79-0.42,4.191-0.574
	c0.501-0.054,0.694-0.254,0.777-0.726c0.108-0.618,0.29-1.222,0.44-1.837C23.605,21.309,21.854,21.622,20.071,21.94z M5.756,22.054
	c1.008,0.772,2.182,1.106,3.449,1.304c-0.162-0.657-0.348-1.256-0.449-1.867c-0.083-0.504-0.323-0.712-0.817-0.839
	c-1.687-0.432-3.192-1.197-4.307-2.595c-0.027-0.034-0.069-0.056-0.117-0.091C3.649,19.292,4.729,21.268,5.756,22.054z
	 M29.426,21.375c0.868-0.943,1.128-2.16,1.481-3.341c-0.166,0.124-0.294,0.271-0.428,0.413c-1.146,1.228-2.564,1.958-4.2,2.28
	c-0.295,0.058-0.461,0.169-0.515,0.492c-0.076,0.463-0.215,0.915-0.327,1.371c-0.059,0.239-0.119,0.479-0.192,0.771
	C26.875,23.091,28.318,22.58,29.426,21.375z M15.374,27.301c1.199,0,2.36,0.004,3.52-0.01c0.07,0,0.192-0.121,0.2-0.196
	c0.092-0.799,0.165-1.601,0.244-2.415c-1.406,0-2.801,0-4.228,0C15.199,25.558,15.285,26.42,15.374,27.301z M15.063,24.206
	c1.406,0,2.778,0.002,4.151-0.01c0.066-0.001,0.182-0.127,0.192-0.205c0.068-0.533,0.116-1.07,0.167-1.604
	c0.014-0.14,0.016-0.278,0.021-0.412c-1.594,0-3.155,0-4.758,0C14.912,22.721,14.986,23.453,15.063,24.206z M6.752,25.381
	c0.968,0.674,2.056,0.974,3.241,1.156c-0.182-0.742-0.386-1.422-0.505-2.118c-0.082-0.469-0.305-0.625-0.752-0.703
	c-1.28-0.224-2.482-0.657-3.489-1.524c-0.113-0.098-0.226-0.197-0.339-0.296C5.219,23.237,5.546,24.541,6.752,25.381z
	 M28.046,25.098c0.966-0.843,1.208-2.026,1.523-3.182c-0.086,0.034-0.154,0.081-0.213,0.137c-0.533,0.497-1.122,0.923-1.809,1.156
	c-0.705,0.239-1.439,0.386-2.159,0.585c-0.109,0.03-0.267,0.109-0.291,0.197c-0.225,0.822-0.426,1.653-0.652,2.552
	C25.797,26.322,27.028,25.986,28.046,25.098z M5.921,25.345c0.26,0.82,0.517,1.64,0.783,2.458c0.028,0.083,0.11,0.154,0.18,0.217
	c0.579,0.534,1.277,0.846,2.032,1.027c0.572,0.137,1.157,0.224,1.794,0.343c-0.203-0.804-0.379-1.528-0.574-2.247
	c-0.018-0.069-0.143-0.141-0.228-0.156c-1.44-0.256-2.824-0.64-3.93-1.688C5.96,25.315,5.941,25.331,5.921,25.345z M27.408,26.072
	c-0.858,0.498-1.811,0.728-2.779,0.888c-0.213,0.036-0.343,0.109-0.377,0.343c-0.037,0.245-0.118,0.484-0.176,0.727
	c-0.104,0.426-0.208,0.852-0.309,1.271c0.047,0.021,0.065,0.037,0.082,0.037c0.162-0.016,0.325-0.028,0.486-0.053
	c0.983-0.146,1.943-0.36,2.793-0.917c0.39-0.256,0.692-0.554,0.783-1.044c0.061-0.328,0.197-0.64,0.298-0.961
	c0.106-0.343,0.212-0.688,0.325-1.056C28.135,25.58,27.787,25.854,27.408,26.072z M14.948,27.889
	c-0.015-0.195-0.144-0.196-0.276-0.214c-1.273-0.179-2.546-0.357-3.82-0.532c-0.078-0.011-0.16-0.002-0.262-0.002
	c0.173,0.687,0.348,1.344,0.498,2.008c0.046,0.207,0.137,0.28,0.34,0.297c0.822,0.068,1.644,0.153,2.465,0.224
	c0.399,0.036,0.799,0.056,1.223,0.085C15.058,29.108,14.995,28.499,14.948,27.889z M22.684,29.468
	c0.614-0.06,0.614-0.069,0.76-0.664c0.137-0.554,0.272-1.108,0.416-1.69c-1.47,0.206-2.899,0.407-4.337,0.608
	c-0.064,0.678-0.126,1.333-0.194,2.053C20.488,29.669,21.585,29.575,22.684,29.468z M18.151,10.196
	c-0.013,0.397,0.011,0.79-0.052,1.175c-0.09,0.543-0.403,0.834-0.949,0.876c-0.428,0.035-0.863,0.032-1.291-0.005
	c-0.484-0.041-0.846-0.328-0.886-0.799c-0.066-0.759-0.096-1.533-0.03-2.291c0.057-0.646,0.491-0.96,1.142-0.995
	c0.287-0.015,0.575-0.015,0.861,0c0.724,0.039,1.15,0.453,1.203,1.177C18.168,9.62,18.151,9.909,18.151,10.196
	C18.166,10.198,18.137,10.196,18.151,10.196z M17.362,10.208C17.352,10.208,17.373,10.208,17.362,10.208
	c0-0.259,0.026-0.521-0.006-0.776c-0.056-0.454-0.329-0.654-0.828-0.656c-0.498-0.003-0.803,0.196-0.832,0.646
	c-0.036,0.563-0.013,1.131,0.016,1.695c0.016,0.304,0.224,0.489,0.531,0.507c0.366,0.021,0.764,0.11,1.016-0.282
	c0.044-0.07,0.07-0.161,0.077-0.244C17.361,10.801,17.345,10.504,17.362,10.208z M19.026,27.773c-1.224,0-2.399,0-3.608,0
	c0.068,0.682,0.134,1.343,0.204,2.052c1.074,0,2.125,0,3.207,0C18.899,29.107,18.961,28.446,19.026,27.773z M12.25,11.553
	c0.496-0.342,0.977-0.711,1.493-1.02c0.572-0.341,0.752-0.828,0.701-1.455c-0.049-0.602-0.329-0.887-0.936-0.896
	c-0.586-0.008-1.172-0.002-1.757,0c-0.063,0-0.125,0.019-0.19,0.029c0,0.204,0,0.39,0,0.583C11.617,8.8,11.653,8.81,11.691,8.81
	c0.489,0.001,0.979-0.001,1.468,0.003c0.213,0.003,0.406,0.049,0.467,0.295c0.094,0.374-0.008,0.657-0.324,0.875
	c-0.592,0.408-1.188,0.809-1.779,1.22c-0.232,0.161-0.32,0.47-0.235,0.744c0.089,0.279,0.311,0.305,0.554,0.303
	c0.566-0.003,1.133-0.001,1.699-0.001c0.237,0,0.473,0,0.714,0c0-0.229,0-0.416,0-0.629c-0.674,0-1.331,0-1.988,0
	C12.261,11.598,12.256,11.575,12.25,11.553z M19.281,30.231c-0.042,0.46-0.083,0.903-0.122,1.335
	c0.061,0.021,0.079,0.032,0.096,0.031c1.146-0.099,2.294-0.195,3.44-0.303c0.062-0.005,0.147-0.09,0.165-0.155
	c0.108-0.396,0.2-0.797,0.31-1.247C21.854,30.008,20.577,30.119,19.281,30.231z M11.596,31.133c0.021,0.071,0.133,0.156,0.21,0.163
	c1.088,0.107,2.176,0.204,3.265,0.299c0.071,0.006,0.143-0.011,0.218-0.017c-0.035-0.392-0.076-0.755-0.094-1.118
	c-0.01-0.2-0.099-0.253-0.286-0.263c-0.412-0.019-0.821-0.06-1.233-0.096c-0.782-0.066-1.563-0.136-2.396-0.208
	C11.391,30.337,11.482,30.737,11.596,31.133z M20.264,12.25c0.227,0,0.381-0.015,0.531,0.004c0.264,0.035,0.411-0.077,0.547-0.3
	c0.567-0.925,1.155-1.836,1.733-2.754c0.071-0.112,0.141-0.232,0.177-0.358c0.127-0.42-0.046-0.655-0.48-0.66
	c-0.634-0.005-1.269-0.001-1.904-0.001c-0.266,0-0.532,0-0.81,0c0,0.225,0,0.413,0,0.633c0.785,0,1.558,0,2.429,0
	C21.722,9.995,21.008,11.1,20.264,12.25z M24.755,31.081c1.313-0.142,2.266-0.919,2.647-2.17c0.021-0.065,0.025-0.135,0.039-0.217
	c-0.362,0.181-0.688,0.365-1.028,0.51c-0.799,0.34-1.65,0.479-2.506,0.596c-0.109,0.015-0.271,0.092-0.297,0.176
	c-0.128,0.4-0.217,0.812-0.335,1.275C23.806,31.19,24.281,31.132,24.755,31.081z M9.259,31.016c0.451,0.086,0.911,0.119,1.368,0.174
	c0.169,0.019,0.338,0.03,0.54,0.049c-0.102-0.417-0.202-0.795-0.284-1.178c-0.039-0.179-0.125-0.246-0.307-0.267
	c-0.465-0.055-0.932-0.121-1.39-0.213c-0.769-0.154-1.477-0.464-2.17-0.908C7.156,29.765,8.164,30.809,9.259,31.016z M15.804,31.65
	c0.961,0,1.901,0,2.842,0c0.046-0.494,0.087-0.935,0.127-1.353c-1.049,0-2.053,0-3.103,0C15.715,30.739,15.758,31.183,15.804,31.65z
	 M19.777,12.209c0-0.475,0-0.934,0-1.391c0-0.683,0.001-1.364-0.002-2.046c0-0.215-0.007-0.477-0.26-0.517
	c-0.368-0.061-0.75-0.045-1.118-0.062c0,0.245,0,0.421,0,0.608c0.09,0,0.157,0,0.224,0c0.386,0.004,0.387,0.004,0.387,0.403
	c0,0.739,0,1.479,0,2.217c0,0.257,0,0.513,0,0.788C19.275,12.209,19.51,12.209,19.777,12.209z"/>
</svg>
