<?xml version="1.0" encoding="utf-8"?>
<!-- Generator: Adobe Illustrator 16.0.0, SVG Export Plug-In . SVG Version: 6.00 Build 0)  -->
<!DOCTYPE svg PUBLIC "-//W3C//DTD SVG 1.0//EN" "http://www.w3.org/TR/2001/REC-SVG-20010904/DTD/svg10.dtd">
<svg version="1.0" id="Слой_1" xmlns="http://www.w3.org/2000/svg" xmlns:xlink="http://www.w3.org/1999/xlink" x="0px" y="0px"
	 width="34.8px" height="34.8px" viewBox="0 0 34.8 34.8" enable-background="new 0 0 34.8 34.8" xml:space="preserve">
<path fill="#D0D2D3" d="M17.391,34.8h0.018c9.605,0,17.392-7.788,17.392-17.396l0,0C34.8,7.791,27.01,0,17.4,0l0,0
	C7.791,0,0,7.791,0,17.404l0,0C0,27.012,7.787,34.8,17.391,34.8z"/>
<g id="ok_3_">
	<path fill="#666666" d="M17.332,17.912c2.707,0,4.906-2.199,4.906-4.904c0-2.706-2.2-4.907-4.906-4.907
		c-2.706,0-4.906,2.201-4.906,4.907C12.425,15.713,14.625,17.912,17.332,17.912z M17.332,10.977c1.121,0,2.031,0.911,2.031,2.031
		c0,1.119-0.911,2.031-2.031,2.031c-1.119,0-2.032-0.912-2.032-2.031C15.3,11.888,16.212,10.977,17.332,10.977z"/>
	<path fill="#666666" d="M19.316,21.915c0.999-0.229,1.962-0.623,2.849-1.18c0.671-0.424,0.874-1.312,0.451-1.982
		c-0.423-0.673-1.31-0.875-1.982-0.452c-2.009,1.264-4.597,1.264-6.605,0c-0.673-0.423-1.56-0.221-1.981,0.452
		c-0.423,0.672-0.221,1.559,0.45,1.982c0.886,0.557,1.85,0.951,2.849,1.18l-2.743,2.743c-0.561,0.562-0.561,1.471,0,2.032
		c0.281,0.28,0.648,0.421,1.016,0.421s0.736-0.141,1.017-0.421l2.694-2.695l2.697,2.695c0.561,0.562,1.471,0.562,2.032,0
		c0.562-0.562,0.562-1.472,0-2.032L19.316,21.915z"/>
</g>
</svg>
