<?xml version="1.0" encoding="utf-8"?>
<!-- Generator: Adobe Illustrator 16.0.0, SVG Export Plug-In . SVG Version: 6.00 Build 0)  -->
<!DOCTYPE svg PUBLIC "-//W3C//DTD SVG 1.0//EN" "http://www.w3.org/TR/2001/REC-SVG-20010904/DTD/svg10.dtd">
<svg version="1.0" id="Слой_1" xmlns="http://www.w3.org/2000/svg" xmlns:xlink="http://www.w3.org/1999/xlink" x="0px" y="0px"
	 width="23.821px" height="23.82px" viewBox="0 0 44.821 44.82" enable-background="new 0 0 44.821 44.82" xml:space="preserve">
<path fill="none" stroke="#4E4E4E" stroke-width="3" stroke-miterlimit="10" d="M23.973,23.973c0,0-7.145,7.028-8.241,7.273
	c-2.037,0.454-5.401-3.782-6.616-3.079c-1.071,0.62-6.493,5.152-7.527,6.189c-0.728,0.725,3.147,6.35,6.07,7.792
	c4.008,1.98,7.686,1.215,10.687-0.542c2.857-1.678,12.288-10.973,12.288-10.973s9.295-9.431,10.972-12.287
	c1.757-3,2.522-6.679,0.543-10.688c-1.442-2.921-7.07-6.796-7.794-6.07c-1.036,1.034-5.567,6.456-6.187,7.527
	c-0.704,1.215,3.53,4.58,3.077,6.615C31.001,16.828,23.973,23.973,23.973,23.973"/>
</svg>
