<?xml version="1.0" encoding="utf-8"?>
<!-- Generator: Adobe Illustrator 16.0.0, SVG Export Plug-In . SVG Version: 6.00 Build 0)  -->
<!DOCTYPE svg PUBLIC "-//W3C//DTD SVG 1.0//EN" "http://www.w3.org/TR/2001/REC-SVG-20010904/DTD/svg10.dtd">
<svg version="1.0" id="Слой_1" xmlns="http://www.w3.org/2000/svg" xmlns:xlink="http://www.w3.org/1999/xlink" x="0px" y="0px"
	 width="66.667px" height="66.667px" viewBox="0 0 146.667 146.667" enable-background="new 0 0 146.667 146.667"
	 xml:space="preserve">
<polygon fill="#3D4C8D" points="0,146.667 0,146.667 0,0 146.667,0 "/>
<path fill="#FFFFFF" d="M33.889,80.047l3.566-3.566L15.088,66.298l-3.107,3.106l10.217,22.334l3.565-3.566l-2.235-4.471l5.88-5.879
	L33.889,80.047z M17.647,71.965l8.138,4.047l-4.069,4.068L17.647,71.965z"/>
<path fill="#FFFFFF" d="M45.833,68.104l4.303-4.305l-10.664-2.012l-1.8-9.713l-4.08,4.081l1.912,7.187l-1.151,1.152l-4.549-4.55
	l-3.23,3.23l12.095,12.094l3.23-3.23l-4.46-4.459l1.297-1.297L45.833,68.104z"/>
<path fill="#FFFFFF" d="M51.584,62.352l9.099-9.099l3.588,3.589l3.007-3.008l-5.946-6.393l-1.811,1.811l-9.513-9.512l-3.242,3.242
	l9.49,9.49l-4.046,4.047l-9.49-9.49l-3.23,3.23L51.584,62.352z"/>
<path fill="#FFFFFF" d="M64.365,40.293l-7.456-7.456l-3.241,3.242l12.095,12.094l3.242-3.242l-3.421-11.513l7.467,7.467l3.23-3.23
	L64.187,25.56l-3.23,3.23L64.365,40.293z"/>
<path fill="#FFFFFF" d="M71.479,18.267c-1.49,1.55-2.313,3.152-2.47,4.806c-0.156,1.655,0.351,3.066,1.521,4.237
	c0.73,0.73,1.578,1.187,2.543,1.369c0.965,0.183,1.977,0.081,3.035-0.307l2.089,7.366l3.275-3.275l-1.855-6.505l2.045-2.046
	l4.182,4.181l3.219-3.219L76.968,12.778L71.479,18.267z M75.45,24.74c-0.625,0.061-1.152-0.124-1.584-0.555
	c-0.43-0.431-0.617-0.975-0.561-1.633c0.058-0.659,0.373-1.275,0.946-1.849l2.102-2.102l3.051,3.052l-2.212,2.213
	C76.655,24.389,76.075,24.68,75.45,24.74z"/>
</svg>
