<?xml version="1.0" encoding="utf-8"?>
<!-- Generator: Adobe Illustrator 16.0.0, SVG Export Plug-In . SVG Version: 6.00 Build 0)  -->
<!DOCTYPE svg PUBLIC "-//W3C//DTD SVG 1.0//EN" "http://www.w3.org/TR/2001/REC-SVG-20010904/DTD/svg10.dtd">
<svg version="1.0" id="Слой_1" xmlns="http://www.w3.org/2000/svg" xmlns:xlink="http://www.w3.org/1999/xlink" x="0px" y="0px"
	 width="34.8px" height="34.8px" viewBox="0 0 34.8 34.8" enable-background="new 0 0 34.8 34.8" xml:space="preserve">
<g>
	<path fill="#D0D2D3" d="M17.392,34.8h0.016c9.605,0,17.393-7.787,17.393-17.393V17.4C34.8,7.79,27.01,0,17.4,0l0,0
		C7.79,0,0,7.79,0,17.4v0.008C0,27.013,7.787,34.8,17.392,34.8z"/>
	<path id="vk_x5F_alt_3_" fill-rule="evenodd" clip-rule="evenodd" fill="#666666" d="M16.752,24.25h1.319
		c0,0,0.399-0.045,0.603-0.264c0.187-0.201,0.181-0.578,0.181-0.578s-0.026-1.77,0.795-2.031c0.81-0.257,1.851,1.711,2.952,2.467
		c0.834,0.572,1.465,0.448,1.465,0.448l2.948-0.042c0,0,1.541-0.095,0.812-1.307c-0.062-0.1-0.428-0.896-2.193-2.536
		c-1.847-1.715-1.6-1.438,0.627-4.404c1.356-1.807,1.898-2.909,1.728-3.382c-0.16-0.451-1.159-0.332-1.159-0.332l-3.316,0.021
		c0,0-0.245-0.033-0.429,0.076c-0.179,0.106-0.292,0.356-0.292,0.356s-0.526,1.398-1.225,2.587
		c-1.479,2.509-2.069,2.642-2.312,2.486c-0.563-0.363-0.422-1.458-0.422-2.236c0-2.432,0.369-3.446-0.719-3.708
		c-0.361-0.088-0.625-0.145-1.548-0.154c-1.184-0.012-2.186,0.003-2.753,0.281c-0.378,0.185-0.668,0.597-0.492,0.621
		c0.219,0.028,0.717,0.133,0.98,0.492c0.34,0.462,0.328,1.501,0.328,1.501s0.195,2.862-0.456,3.218
		c-0.446,0.244-1.061-0.254-2.378-2.531c-0.676-1.165-1.186-2.454-1.186-2.454s-0.097-0.241-0.273-0.37
		c-0.212-0.156-0.51-0.206-0.51-0.206l-3.152,0.02c0,0-0.474,0.014-0.647,0.219c-0.154,0.184-0.012,0.562-0.012,0.562
		s2.469,5.775,5.264,8.687C13.841,24.425,16.752,24.25,16.752,24.25L16.752,24.25L16.752,24.25z"/>
</g>
</svg>
