<?xml version="1.0" encoding="utf-8"?>
<!-- Generator: Adobe Illustrator 16.0.0, SVG Export Plug-In . SVG Version: 6.00 Build 0)  -->
<!DOCTYPE svg PUBLIC "-//W3C//DTD SVG 1.0//EN" "http://www.w3.org/TR/2001/REC-SVG-20010904/DTD/svg10.dtd">
<svg version="1.0" id="Слой_1" xmlns="http://www.w3.org/2000/svg" xmlns:xlink="http://www.w3.org/1999/xlink" x="0px" y="0px"
	 width="72px" height="72px" viewBox="0 0 72 72" enable-background="new 0 0 72 72" xml:space="preserve">
<circle fill="#E65D17" cx="36" cy="36" r="36"/>
<g id="_x31_">
	<path fill="none" stroke="#FFFFFF" stroke-width="2" stroke-miterlimit="10" d="M58.389,41.859c0,2.903-2.377,5.28-5.281,5.28
		H18.893c-2.904,0-5.281-2.377-5.281-5.28V24.586c0-2.904,2.376-5.281,5.281-5.281h34.215c2.904,0,5.281,2.376,5.281,5.281V41.859z"
		/>
	
		<line fill="none" stroke="#FFFFFF" stroke-width="2" stroke-linecap="round" stroke-miterlimit="10" x1="27.942" y1="52.694" x2="44.059" y2="52.694"/>
	<g>
		
			<line fill="none" stroke="#FFFFFF" stroke-width="2" stroke-linecap="round" stroke-miterlimit="10" x1="34.075" y1="52.694" x2="34.075" y2="47.139"/>
		
			<line fill="none" stroke="#FFFFFF" stroke-width="2" stroke-linecap="round" stroke-miterlimit="10" x1="37.925" y1="47.139" x2="37.925" y2="52.694"/>
	</g>
	<g>
		<path fill="#FFFFFF" d="M19.157,37.771V32.73h-0.933v-1.228h0.933V30.97c0-0.703,0.202-1.249,0.605-1.637s0.968-0.583,1.694-0.583
			c0.232,0,0.516,0.039,0.852,0.115l-0.018,1.287c-0.139-0.034-0.309-0.052-0.51-0.052c-0.629,0-0.944,0.298-0.944,0.894v0.508
			h1.245v1.228h-1.245v5.041H19.157z"/>
		<path fill="#FFFFFF" d="M26.705,37.133c-0.414,0.502-0.985,0.753-1.715,0.753c-0.672,0-1.185-0.193-1.539-0.578
			c-0.353-0.387-0.534-0.953-0.541-1.698v-4.107h1.674v4.054c0,0.653,0.297,0.98,0.892,0.98c0.568,0,0.958-0.197,1.17-0.591v-4.443
			h1.68v6.269h-1.576L26.705,37.133z"/>
		<path fill="#FFFFFF" d="M31.357,37.771h-1.68v-8.898h1.68V37.771z"/>
		<path fill="#FFFFFF" d="M34.503,37.771h-1.68v-8.898h1.68V37.771z"/>
		<path fill="#FFFFFF" d="M45.811,37.771h-1.738v-3.615h-3.388v3.615h-1.738v-8.435h1.738v3.417h3.388v-3.417h1.738V37.771z"/>
		<path fill="#FFFFFF" d="M47.329,37.771v-8.435h2.595c0.743,0,1.406,0.167,1.991,0.501c0.584,0.334,1.041,0.809,1.37,1.425
			c0.327,0.616,0.492,1.316,0.492,2.1v0.388c0,0.785-0.162,1.481-0.484,2.091c-0.322,0.61-0.778,1.083-1.365,1.419
			s-1.25,0.506-1.986,0.51H47.329z M49.067,30.743v5.631h0.839c0.681,0,1.2-0.222,1.559-0.666c0.359-0.444,0.542-1.08,0.551-1.906
			v-0.447c0-0.857-0.179-1.507-0.534-1.949s-0.875-0.664-1.559-0.664H49.067z"/>
	</g>
</g>
</svg>
