<?xml version="1.0" encoding="utf-8"?>
<!-- Generator: Adobe Illustrator 16.0.0, SVG Export Plug-In . SVG Version: 6.00 Build 0)  -->
<!DOCTYPE svg PUBLIC "-//W3C//DTD SVG 1.1//EN" "http://www.w3.org/Graphics/SVG/1.1/DTD/svg11.dtd">
<svg version="1.1" id="Слой_1" xmlns="http://www.w3.org/2000/svg" xmlns:xlink="http://www.w3.org/1999/xlink" x="0px" y="0px"
	 width="23.94px" height="18.234px" viewBox="0 0 23.94 18.234" enable-background="new 0 0 23.94 18.234" xml:space="preserve">
<g id="_x31_">
	<path fill="none" stroke="#333333" stroke-width="1.5" stroke-linecap="round" stroke-miterlimit="10" d="M23.19,12.052
		c0,1.457-1.19,2.646-2.646,2.646H3.396c-1.456,0-2.646-1.189-2.646-2.646V3.396c0-1.455,1.191-2.646,2.646-2.646h17.147
		c1.456,0,2.646,1.191,2.646,2.646V12.052z"/>
	
		<line fill="none" stroke="#333333" stroke-width="1.5" stroke-linecap="round" stroke-miterlimit="10" x1="7.932" y1="17.484" x2="16.009" y2="17.484"/>
	<g>
		
			<line fill="none" stroke="#333333" stroke-width="1.5" stroke-linecap="round" stroke-miterlimit="10" x1="11.006" y1="17.484" x2="11.006" y2="14.699"/>
		
			<line fill="none" stroke="#333333" stroke-width="1.5" stroke-linecap="round" stroke-miterlimit="10" x1="12.936" y1="14.699" x2="12.936" y2="17.484"/>
	</g>
	<g>
		<path fill="#333333" d="M3.529,10.003V7.479H3.061V6.863h0.468V6.596c0-0.352,0.102-0.626,0.303-0.82
			c0.202-0.194,0.486-0.292,0.85-0.292c0.116,0,0.258,0.019,0.427,0.058L5.1,6.186C5.03,6.17,4.945,6.16,4.844,6.16
			c-0.315,0-0.472,0.149-0.472,0.448v0.255h0.623v0.615H4.372v2.525H3.529z"/>
		<path fill="#333333" d="M7.312,9.684c-0.208,0.253-0.494,0.378-0.859,0.378c-0.337,0-0.594-0.098-0.771-0.289
			C5.504,9.578,5.414,9.295,5.411,8.922V6.863H6.25v2.031c0,0.328,0.148,0.491,0.447,0.491c0.285,0,0.479-0.099,0.586-0.296V6.863
			h0.842v3.14H7.334L7.312,9.684z"/>
		<path fill="#333333" d="M9.643,10.003H8.802V5.545h0.841V10.003z"/>
		<path fill="#333333" d="M11.22,10.003h-0.842V5.545h0.842V10.003z"/>
		<path fill="#333333" d="M16.887,10.003h-0.871V8.192h-1.698v1.811h-0.871V5.777h0.871v1.712h1.698V5.777h0.871V10.003z"/>
		<path fill="#333333" d="M17.647,10.003V5.777h1.301c0.372,0,0.704,0.084,0.998,0.251c0.292,0.167,0.521,0.405,0.687,0.714
			c0.164,0.309,0.246,0.66,0.246,1.053v0.193c0,0.395-0.08,0.744-0.242,1.049c-0.16,0.307-0.391,0.543-0.684,0.712
			c-0.295,0.168-0.627,0.252-0.996,0.254H17.647z M18.519,6.482v2.822h0.421c0.342,0,0.602-0.111,0.782-0.334
			c0.179-0.223,0.271-0.541,0.276-0.955V7.791c0-0.43-0.091-0.754-0.269-0.977c-0.179-0.221-0.438-0.332-0.781-0.332H18.519z"/>
	</g>
</g>
</svg>
