<?xml version="1.0" encoding="utf-8"?>
<!-- Generator: Adobe Illustrator 16.0.0, SVG Export Plug-In . SVG Version: 6.00 Build 0)  -->
<!DOCTYPE svg PUBLIC "-//W3C//DTD SVG 1.1//EN" "http://www.w3.org/Graphics/SVG/1.1/DTD/svg11.dtd">
<svg version="1.1" id="Слой_1" xmlns="http://www.w3.org/2000/svg" xmlns:xlink="http://www.w3.org/1999/xlink" x="0px" y="0px"
	 width="18.433px" height="18.128px" viewBox="0 0 18.433 18.128" enable-background="new 0 0 18.433 18.128" xml:space="preserve">
<g>
	<circle fill="none" stroke="#333333" stroke-width="1.5" stroke-miterlimit="10" cx="9.216" cy="6.851" r="1.389"/>
	<g>
		<path fill="none" stroke="#333333" stroke-width="1.5" stroke-linecap="round" stroke-miterlimit="10" d="M3.035,12.636
			C1.618,11.125,0.75,9.089,0.75,6.851c0-2.396,0.997-4.561,2.598-6.101"/>
		<path fill="none" stroke="#333333" stroke-width="1.5" stroke-linecap="round" stroke-miterlimit="10" d="M15.203,0.866
			c1.531,1.532,2.48,3.647,2.48,5.984c0,2.404-1.002,4.573-2.609,6.116"/>
		<path fill="none" stroke="#333333" stroke-width="1.5" stroke-linecap="round" stroke-miterlimit="10" d="M12.986,3.083
			c0.965,0.964,1.561,2.297,1.561,3.768c0,1.515-0.631,2.883-1.645,3.852"/>
		<path fill="none" stroke="#333333" stroke-width="1.5" stroke-linecap="round" stroke-miterlimit="10" d="M5.298,10.468
			C4.421,9.517,3.885,8.246,3.885,6.851c0-1.508,0.627-2.87,1.635-3.84"/>
	</g>
	
		<line fill="none" stroke="#333333" stroke-width="1.5" stroke-linecap="round" stroke-miterlimit="10" x1="9.216" y1="8.241" x2="9.216" y2="14.539"/>
	
		<rect x="2.69" y="14.539" fill="none" stroke="#333333" stroke-width="1.5" stroke-linecap="round" stroke-miterlimit="10" width="13.051" height="2.84"/>
</g>
</svg>
