<?xml version="1.0" encoding="utf-8"?>
<!-- Generator: Adobe Illustrator 16.0.0, SVG Export Plug-In . SVG Version: 6.00 Build 0)  -->
<!DOCTYPE svg PUBLIC "-//W3C//DTD SVG 1.0//EN" "http://www.w3.org/TR/2001/REC-SVG-20010904/DTD/svg10.dtd">
<svg version="1.0" id="Слой_1" xmlns="http://www.w3.org/2000/svg" xmlns:xlink="http://www.w3.org/1999/xlink" x="0px" y="0px"
	 width="170.083px" height="70.297px" viewBox="0 0 170.083 70.297" enable-background="new 0 0 170.083 70.297"
	 xml:space="preserve">
<g>
	<path fill="none" stroke="#FFFFFF" stroke-width="3" stroke-linecap="round" stroke-linejoin="round" stroke-miterlimit="10" d="
		M84.374,32.375H60.708c-1.1,0-2-0.9-2-2V3.5c0-1.1,0.9-2,2-2h41.75c1.1,0,2,0.9,2,2v19"/>
	
		<rect x="84.374" y="22.5" fill="none" stroke="#FFFFFF" stroke-width="3" stroke-linecap="round" stroke-linejoin="round" stroke-miterlimit="10" width="27" height="14.25"/>
	<circle fill="#FFFFFF" cx="89.499" cy="29.625" r="1.625"/>
	<circle fill="#FFFFFF" cx="63.999" cy="16.938" r="1.625"/>
	<line fill="none" stroke="#FFFFFF" stroke-miterlimit="10" x1="68.249" y1="1.5" x2="68.249" y2="32.375"/>
</g>
<g>
	<path fill="#FFFFFF" d="M6.797,63.866c-0.059,0.376-0.145,0.712-0.257,1.007c-0.112,0.296-0.27,0.545-0.473,0.748
		c-0.202,0.202-0.457,0.357-0.765,0.465s-0.687,0.16-1.136,0.16c-0.474,0-0.884-0.099-1.23-0.296
		c-0.347-0.198-0.632-0.469-0.856-0.813c-0.225-0.344-0.393-0.746-0.502-1.205c-0.11-0.459-0.165-0.949-0.165-1.472v-1.084
		c0-0.562,0.062-1.075,0.184-1.542c0.122-0.466,0.304-0.863,0.545-1.193c0.242-0.33,0.542-0.586,0.901-0.77
		c0.358-0.183,0.775-0.274,1.249-0.274c0.41,0,0.762,0.056,1.055,0.169c0.293,0.111,0.538,0.273,0.735,0.482
		c0.198,0.211,0.354,0.465,0.466,0.762c0.112,0.299,0.195,0.633,0.249,1.004H8.21c-0.054-0.527-0.176-1.01-0.366-1.446
		s-0.448-0.813-0.772-1.128c-0.325-0.314-0.719-0.561-1.183-0.736s-0.996-0.264-1.597-0.264c-0.659,0-1.254,0.119-1.784,0.355
		c-0.529,0.236-0.979,0.571-1.351,1.003C0.786,58.23,0.5,58.75,0.3,59.358S0,60.644,0,61.391v1.069c0,0.747,0.099,1.423,0.296,2.028
		c0.198,0.605,0.479,1.125,0.843,1.557c0.363,0.433,0.802,0.766,1.314,1s1.084,0.352,1.714,0.352c0.64,0,1.199-0.089,1.678-0.268
		c0.479-0.178,0.884-0.425,1.216-0.739c0.332-0.315,0.592-0.688,0.779-1.121c0.188-0.432,0.312-0.899,0.37-1.402H6.797z"/>
	<path fill="#FFFFFF" d="M11.799,59.325h-1.758v7.925h1.355v-5.889l2.614,5.889h0.938l2.563-5.764v5.764h1.355v-7.925h-1.692
		l-2.695,6.13L11.799,59.325z"/>
	<path fill="#FFFFFF" d="M27.355,67.25v-0.117c-0.093-0.215-0.162-0.47-0.209-0.766c-0.046-0.295-0.069-0.577-0.069-0.846v-3.684
		c0-0.445-0.073-0.833-0.22-1.165s-0.349-0.608-0.607-0.831s-0.57-0.389-0.935-0.498c-0.363-0.11-0.761-0.165-1.189-0.165
		c-0.479,0-0.912,0.069-1.301,0.209c-0.388,0.139-0.719,0.319-0.992,0.542s-0.484,0.473-0.634,0.75
		c-0.148,0.279-0.223,0.56-0.223,0.843h1.362c0-0.166,0.041-0.325,0.124-0.476c0.083-0.152,0.199-0.285,0.348-0.399
		c0.149-0.114,0.329-0.206,0.539-0.274c0.209-0.068,0.441-0.104,0.695-0.104c0.552,0,0.97,0.141,1.253,0.422
		c0.282,0.281,0.425,0.658,0.425,1.131v0.623h-1.348c-0.542,0-1.033,0.057-1.473,0.168c-0.439,0.113-0.814,0.279-1.124,0.498
		c-0.311,0.221-0.549,0.492-0.714,0.817c-0.166,0.325-0.249,0.699-0.249,1.124c0,0.327,0.063,0.634,0.19,0.919
		c0.127,0.286,0.306,0.534,0.538,0.743c0.231,0.211,0.513,0.377,0.842,0.498c0.33,0.123,0.697,0.184,1.103,0.184
		c0.244,0,0.477-0.025,0.696-0.077c0.22-0.051,0.423-0.122,0.611-0.212c0.188-0.09,0.361-0.195,0.52-0.315
		c0.159-0.119,0.302-0.245,0.429-0.377c0.02,0.161,0.044,0.316,0.073,0.465c0.029,0.149,0.068,0.272,0.117,0.37H27.355z
		 M23.03,66.111c-0.188-0.07-0.347-0.166-0.476-0.286c-0.13-0.119-0.226-0.263-0.289-0.429s-0.096-0.344-0.096-0.534
		c0-0.488,0.21-0.854,0.63-1.095c0.42-0.242,1.019-0.363,1.795-0.363h1.128v1.627c-0.073,0.15-0.175,0.297-0.305,0.439
		c-0.129,0.141-0.281,0.267-0.457,0.377c-0.176,0.109-0.371,0.199-0.586,0.268c-0.216,0.068-0.444,0.102-0.688,0.102
		C23.438,66.217,23.219,66.182,23.03,66.111z"/>
	<path fill="#FFFFFF" d="M35.896,63.222c0-0.605-0.067-1.156-0.201-1.651c-0.135-0.496-0.333-0.92-0.597-1.274
		s-0.588-0.629-0.971-0.824c-0.384-0.195-0.824-0.293-1.322-0.293c-0.503,0-0.944,0.088-1.325,0.264s-0.706,0.43-0.975,0.762
		l-0.065-0.879h-1.238v10.972h1.355V66.48c0.269,0.299,0.589,0.525,0.963,0.682c0.373,0.156,0.81,0.234,1.308,0.234
		c0.488,0,0.923-0.1,1.304-0.301c0.381-0.199,0.701-0.479,0.963-0.838c0.261-0.359,0.46-0.784,0.597-1.274
		c0.137-0.491,0.205-1.026,0.205-1.608V63.222z M34.541,63.375c0,0.396-0.042,0.771-0.125,1.125s-0.212,0.662-0.388,0.926
		s-0.397,0.475-0.663,0.631c-0.267,0.156-0.582,0.234-0.948,0.234c-0.234,0-0.447-0.027-0.638-0.081s-0.361-0.128-0.513-0.224
		c-0.151-0.095-0.285-0.209-0.402-0.344s-0.22-0.279-0.308-0.436V61.42c0.088-0.156,0.19-0.301,0.308-0.436s0.251-0.25,0.402-0.348
		s0.321-0.174,0.509-0.228c0.188-0.054,0.396-0.081,0.627-0.081c0.371,0,0.69,0.077,0.959,0.231
		c0.269,0.153,0.491,0.362,0.667,0.626s0.305,0.57,0.388,0.919c0.083,0.35,0.125,0.722,0.125,1.117V63.375z"/>
	<path fill="#FFFFFF" d="M42.92,59.325h-6.621v1.099h2.607v6.826h1.354v-6.826h2.659V59.325z"/>
	<path fill="#FFFFFF" d="M43.359,63.588c0,0.557,0.062,1.069,0.187,1.538c0.124,0.469,0.308,0.872,0.549,1.208
		c0.242,0.338,0.541,0.6,0.897,0.788c0.356,0.188,0.767,0.282,1.23,0.282c0.215,0,0.414-0.019,0.597-0.056
		c0.184-0.036,0.353-0.089,0.51-0.157v3.105h1.354V67.17c0.337,0.156,0.742,0.234,1.216,0.234c0.469,0,0.882-0.095,1.238-0.282
		c0.355-0.188,0.655-0.45,0.896-0.788c0.242-0.336,0.425-0.739,0.55-1.208c0.124-0.469,0.187-0.981,0.187-1.538v-0.154
		c0-0.625-0.062-1.197-0.183-1.717c-0.122-0.521-0.305-0.969-0.546-1.344c-0.242-0.377-0.543-0.67-0.904-0.879
		c-0.362-0.211-0.779-0.315-1.253-0.315c-0.239,0-0.458,0.022-0.655,0.065c-0.198,0.045-0.38,0.107-0.546,0.191V56h-1.354v3.391
		c-0.313-0.141-0.677-0.212-1.092-0.212c-0.474,0-0.89,0.104-1.249,0.315c-0.358,0.209-0.659,0.502-0.9,0.879
		c-0.242,0.375-0.424,0.823-0.546,1.344c-0.122,0.52-0.183,1.092-0.183,1.717V63.588z M51.416,63.588
		c0,0.376-0.036,0.729-0.106,1.059c-0.071,0.329-0.184,0.616-0.337,0.86c-0.154,0.244-0.352,0.437-0.594,0.579
		c-0.241,0.141-0.533,0.212-0.875,0.212c-0.171,0-0.324-0.011-0.461-0.033c-0.137-0.021-0.257-0.052-0.359-0.091v-5.735
		c0.103-0.044,0.22-0.079,0.352-0.106c0.132-0.026,0.283-0.04,0.454-0.04c0.342,0,0.635,0.084,0.879,0.253
		c0.244,0.168,0.444,0.396,0.601,0.681c0.156,0.286,0.27,0.619,0.341,1c0.07,0.381,0.106,0.784,0.106,1.208V63.588z M44.714,63.434
		c0-0.424,0.032-0.827,0.096-1.208c0.063-0.381,0.168-0.714,0.314-1c0.146-0.285,0.338-0.513,0.575-0.681
		c0.236-0.169,0.528-0.253,0.875-0.253c0.156,0,0.297,0.011,0.421,0.033c0.125,0.021,0.235,0.052,0.334,0.091v5.75
		c-0.103,0.039-0.218,0.07-0.345,0.096c-0.127,0.023-0.269,0.036-0.425,0.036c-0.342,0-0.63-0.071-0.864-0.212
		c-0.234-0.143-0.425-0.335-0.571-0.579s-0.252-0.531-0.314-0.86c-0.063-0.33-0.096-0.683-0.096-1.059V63.434z"/>
	<path fill="#FFFFFF" d="M54.17,63.375c0,0.576,0.084,1.11,0.252,1.601c0.169,0.491,0.409,0.916,0.722,1.274
		c0.313,0.359,0.691,0.641,1.136,0.843s0.944,0.304,1.501,0.304s1.058-0.102,1.502-0.304c0.443-0.202,0.822-0.483,1.135-0.843
		c0.313-0.358,0.552-0.783,0.718-1.274c0.166-0.49,0.249-1.024,0.249-1.601v-0.16c0-0.576-0.083-1.11-0.249-1.601
		c-0.166-0.491-0.405-0.917-0.718-1.278s-0.692-0.645-1.139-0.85c-0.447-0.205-0.951-0.308-1.513-0.308
		c-0.552,0-1.05,0.103-1.494,0.308s-0.821,0.488-1.132,0.85c-0.31,0.361-0.549,0.787-0.718,1.278
		c-0.168,0.49-0.252,1.024-0.252,1.601V63.375z M55.532,63.215c0-0.391,0.046-0.764,0.139-1.117
		c0.093-0.354,0.233-0.664,0.421-0.931c0.188-0.266,0.422-0.478,0.7-0.637s0.603-0.238,0.974-0.238c0.376,0,0.706,0.079,0.989,0.238
		s0.519,0.371,0.706,0.637c0.188,0.267,0.33,0.576,0.425,0.931c0.096,0.354,0.144,0.727,0.144,1.117v0.16
		c0,0.396-0.048,0.77-0.144,1.121c-0.095,0.352-0.235,0.66-0.421,0.927s-0.42,0.478-0.703,0.634s-0.61,0.234-0.981,0.234
		c-0.376,0-0.704-0.078-0.985-0.234c-0.28-0.156-0.515-0.367-0.703-0.634c-0.188-0.267-0.328-0.575-0.421-0.927
		s-0.139-0.725-0.139-1.121V63.215z"/>
	<path fill="#FFFFFF" d="M69.558,59.325h-1.354v3.435h-3.641v-3.435H63.2v7.925h1.362v-3.384h3.641v3.384h1.354V59.325z"/>
	<path fill="#FFFFFF" d="M73.213,59.325h-1.355v7.925h3.369c0.483,0,0.909-0.068,1.278-0.205c0.368-0.137,0.678-0.322,0.927-0.557
		s0.437-0.512,0.563-0.831s0.19-0.663,0.19-1.029c0-0.371-0.063-0.714-0.19-1.029c-0.127-0.314-0.314-0.586-0.563-0.813
		c-0.249-0.228-0.559-0.405-0.927-0.535c-0.369-0.129-0.795-0.194-1.278-0.194h-2.014V59.325z M81.013,59.325H79.65v7.925h1.362
		V59.325z M75.227,63.163c0.293,0,0.542,0.046,0.747,0.136s0.37,0.209,0.494,0.355c0.125,0.146,0.215,0.31,0.271,0.49
		c0.056,0.181,0.084,0.359,0.084,0.535c0,0.186-0.028,0.365-0.084,0.541c-0.057,0.176-0.146,0.332-0.271,0.469
		c-0.124,0.137-0.289,0.247-0.494,0.33s-0.454,0.125-0.747,0.125h-2.014v-2.981H75.227z"/>
	<path fill="#FFFFFF" d="M88.564,65.111v-5.786H87.21v7.925h1.354l3.655-5.779v5.779h1.354v-7.925H92.22L88.564,65.111z"/>
	<path fill="#FFFFFF" d="M105.944,59.325H99.58v7.925h1.362v-6.805h3.647v6.805h1.354V59.325z"/>
	<path fill="#FFFFFF" d="M109.263,59.325l-0.146,3.392c-0.029,0.59-0.07,1.096-0.121,1.516s-0.128,0.764-0.23,1.029
		s-0.238,0.461-0.406,0.586c-0.169,0.124-0.385,0.187-0.648,0.187l-0.293,0.007l-0.029,1.209h0.396c0.503,0,0.921-0.096,1.253-0.285
		c0.332-0.191,0.598-0.476,0.798-0.854c0.2-0.379,0.348-0.852,0.442-1.418c0.096-0.566,0.16-1.225,0.195-1.977l0.095-2.271h2.688
		v6.805h1.361v-7.925H109.263z"/>
	<path fill="#FFFFFF" d="M123.105,67.25v-0.117c-0.093-0.215-0.163-0.47-0.209-0.766c-0.046-0.295-0.069-0.577-0.069-0.846v-3.684
		c0-0.445-0.073-0.833-0.22-1.165s-0.349-0.608-0.608-0.831c-0.258-0.223-0.57-0.389-0.934-0.498
		c-0.363-0.11-0.76-0.165-1.189-0.165c-0.479,0-0.912,0.069-1.301,0.209c-0.389,0.139-0.719,0.319-0.992,0.542
		s-0.484,0.473-0.634,0.75c-0.149,0.279-0.224,0.56-0.224,0.843h1.363c0-0.166,0.041-0.325,0.124-0.476
		c0.083-0.152,0.198-0.285,0.348-0.399s0.329-0.206,0.538-0.274c0.211-0.068,0.442-0.104,0.696-0.104
		c0.552,0,0.97,0.141,1.253,0.422s0.424,0.658,0.424,1.131v0.623h-1.348c-0.541,0-1.032,0.057-1.472,0.168
		c-0.439,0.113-0.814,0.279-1.124,0.498c-0.311,0.221-0.549,0.492-0.715,0.817s-0.248,0.699-0.248,1.124
		c0,0.327,0.063,0.634,0.189,0.919c0.127,0.286,0.307,0.534,0.539,0.743c0.231,0.211,0.512,0.377,0.842,0.498
		c0.33,0.123,0.697,0.184,1.103,0.184c0.244,0,0.476-0.025,0.696-0.077c0.219-0.051,0.423-0.122,0.611-0.212
		c0.188-0.09,0.361-0.195,0.52-0.315c0.158-0.119,0.302-0.245,0.429-0.377c0.019,0.161,0.044,0.316,0.073,0.465
		c0.029,0.149,0.068,0.272,0.117,0.37H123.105z M118.78,66.111c-0.188-0.07-0.347-0.166-0.477-0.286
		c-0.129-0.119-0.225-0.263-0.289-0.429c-0.063-0.166-0.095-0.344-0.095-0.534c0-0.488,0.21-0.854,0.63-1.095
		c0.42-0.242,1.018-0.363,1.795-0.363h1.127v1.627c-0.072,0.15-0.174,0.297-0.303,0.439c-0.131,0.141-0.283,0.267-0.459,0.377
		c-0.176,0.109-0.371,0.199-0.586,0.268s-0.443,0.102-0.688,0.102C119.187,66.217,118.968,66.182,118.78,66.111z"/>
	<path fill="#FFFFFF" d="M131.426,59.325h-1.354v3.435h-3.641v-3.435h-1.362v7.925h1.362v-3.384h3.641v3.384h1.354V59.325z"/>
	<path fill="#FFFFFF" d="M133.718,59.325v7.925h9.873v-7.925h-1.361v6.819h-2.894v-6.819h-1.354v6.819h-2.9v-6.819H133.718z"/>
	<path fill="#FFFFFF" d="M150.081,67.269c0.313-0.085,0.589-0.2,0.83-0.345c0.242-0.144,0.453-0.307,0.635-0.49
		c0.18-0.184,0.334-0.373,0.461-0.568l-0.828-0.645c-0.248,0.322-0.539,0.582-0.871,0.777s-0.737,0.293-1.216,0.293
		c-0.362,0-0.685-0.068-0.971-0.205s-0.53-0.322-0.732-0.557s-0.358-0.511-0.469-0.828s-0.169-0.659-0.179-1.025h5.368v-0.607
		c0-0.557-0.063-1.072-0.19-1.546s-0.324-0.884-0.59-1.23s-0.604-0.619-1.014-0.816c-0.41-0.198-0.898-0.297-1.465-0.297
		c-0.449,0-0.883,0.092-1.297,0.274c-0.415,0.184-0.783,0.448-1.105,0.795s-0.58,0.773-0.773,1.281s-0.289,1.084-0.289,1.729v0.309
		c0,0.557,0.086,1.068,0.256,1.537c0.172,0.469,0.416,0.873,0.732,1.213c0.318,0.34,0.699,0.604,1.146,0.795
		c0.447,0.189,0.946,0.285,1.498,0.285C149.414,67.396,149.769,67.354,150.081,67.269z M149.722,60.482
		c0.234,0.127,0.426,0.293,0.574,0.498c0.149,0.205,0.26,0.438,0.33,0.695c0.07,0.26,0.113,0.521,0.129,0.784v0.103h-3.971
		c0.045-0.366,0.126-0.691,0.246-0.975c0.119-0.283,0.27-0.52,0.45-0.71s0.386-0.335,0.615-0.436s0.481-0.15,0.755-0.15
		C149.196,60.292,149.487,60.355,149.722,60.482z"/>
	<path fill="#FFFFFF" d="M159.485,59.325h-6.621v1.099h2.607v6.826h1.354v-6.826h2.659V59.325z"/>
	<path fill="#FFFFFF" d="M162.282,59.325h-1.354v7.925h3.369c0.483,0,0.909-0.068,1.278-0.205c0.368-0.137,0.678-0.322,0.926-0.557
		c0.25-0.234,0.438-0.512,0.564-0.831s0.19-0.663,0.19-1.029c0-0.371-0.063-0.714-0.19-1.029c-0.127-0.314-0.314-0.586-0.564-0.813
		c-0.248-0.228-0.558-0.405-0.926-0.535c-0.369-0.129-0.795-0.194-1.278-0.194h-2.015V59.325z M170.083,59.325h-1.362v7.925h1.362
		V59.325z M164.297,63.163c0.293,0,0.542,0.046,0.747,0.136s0.369,0.209,0.494,0.355s0.215,0.31,0.271,0.49
		c0.056,0.181,0.084,0.359,0.084,0.535c0,0.186-0.028,0.365-0.084,0.541c-0.057,0.176-0.146,0.332-0.271,0.469
		s-0.289,0.247-0.494,0.33s-0.454,0.125-0.747,0.125h-2.015v-2.981H164.297z"/>
</g>
</svg>
