<?xml version="1.0" encoding="utf-8"?>
<!-- Generator: Adobe Illustrator 16.0.0, SVG Export Plug-In . SVG Version: 6.00 Build 0)  -->
<!DOCTYPE svg PUBLIC "-//W3C//DTD SVG 1.1//EN" "http://www.w3.org/Graphics/SVG/1.1/DTD/svg11.dtd">
<svg version="1.1" id="Слой_1" xmlns="http://www.w3.org/2000/svg" xmlns:xlink="http://www.w3.org/1999/xlink" x="0px" y="0px"
	 width="37.928px" height="37.928px" viewBox="284.42 -59.623 37.928 37.928" enable-background="new 284.42 -59.623 37.928 37.928"
	 xml:space="preserve">
<g>
	<g transform="translate(4.000000, 2.000000)">
		<circle fill="#EEEEEE" cx="299.384" cy="-42.659" r="18.964"/>
		<circle fill="#2A93D8" cx="299.384" cy="-42.659" r="17.374"/>
		<g transform="translate(9.687500, 8.718750)">
			<path fill="#F3F3F3" d="M289.726-64.526c-0.118,0-0.221-0.087-0.221-0.205v-3.066c0-0.118,0.103-0.205,0.221-0.205
				c0.116,0,0.219,0.087,0.219,0.205v3.066C289.931-64.613,289.843-64.526,289.726-64.526L289.726-64.526z"/>
			<path fill="#FFFFFF" d="M289.726-64.51c-0.134,0-0.235-0.103-0.235-0.22v-3.066c0-0.118,0.102-0.22,0.235-0.22
				c0.132,0,0.233,0.103,0.233,0.22v3.066C289.96-64.613,289.843-64.51,289.726-64.51L289.726-64.51z M289.726-67.989
				c-0.104,0-0.205,0.089-0.205,0.191v3.066c0,0.103,0.087,0.191,0.205,0.191c0.102,0,0.205-0.088,0.205-0.191v-3.066
				C289.917-67.9,289.828-67.989,289.726-67.989L289.726-67.989z"/>
			<path fill="#F3F3F3" d="M291.193-66.169c-0.117-0.015-0.205-0.103-0.205-0.22l0.103-1.364c0.014-0.118,0.117-0.206,0.234-0.191
				c0.117,0.014,0.205,0.102,0.205,0.22l-0.103,1.364C291.413-66.241,291.309-66.154,291.193-66.169L291.193-66.169z"/>
			<path fill="#FFFFFF" d="M291.193-66.154c-0.132-0.015-0.221-0.117-0.221-0.235l0.104-1.364c0.015-0.118,0.117-0.221,0.249-0.206
				c0.132,0.015,0.22,0.118,0.22,0.235l-0.103,1.365C291.427-66.228,291.325-66.139,291.193-66.154L291.193-66.154z M291.325-67.93
				c-0.104,0-0.206,0.074-0.206,0.177l-0.103,1.364c0,0.103,0.074,0.191,0.191,0.206c0.102,0,0.205-0.073,0.205-0.176l0.103-1.364
				C291.515-67.826,291.427-67.915,291.325-67.93L291.325-67.93z"/>
			<path fill="#F3F3F3" d="M292.293-64.261c-0.116-0.029-0.189-0.132-0.175-0.25l0.601-3.008c0.03-0.118,0.132-0.19,0.25-0.162
				c0.117,0.03,0.191,0.133,0.176,0.25l-0.601,3.008C292.528-64.32,292.412-64.247,292.293-64.261L292.293-64.261z"/>
			<path fill="#FFFFFF" d="M292.293-64.247c-0.132-0.029-0.205-0.146-0.189-0.264l0.601-3.008c0.029-0.118,0.146-0.205,0.279-0.176
				c0.133,0.029,0.205,0.147,0.19,0.264l-0.603,3.008C292.544-64.305,292.425-64.231,292.293-64.247L292.293-64.247z
				 M292.983-67.665c-0.104-0.015-0.206,0.044-0.234,0.146l-0.603,3.008c-0.015,0.103,0.045,0.206,0.162,0.235
				c0.104,0.015,0.205-0.044,0.235-0.147l0.601-3.008C293.16-67.548,293.086-67.636,292.983-67.665L292.983-67.665z"/>
			<path fill="#F3F3F3" d="M294.053-65.582c-0.116-0.03-0.189-0.146-0.161-0.264l0.367-1.321c0.03-0.117,0.146-0.176,0.264-0.147
				c0.117,0.03,0.19,0.147,0.162,0.265l-0.367,1.321C294.29-65.611,294.173-65.552,294.053-65.582L294.053-65.582z"/>
			<path fill="#FFFFFF" d="M294.053-65.567c-0.116-0.03-0.205-0.162-0.161-0.279l0.367-1.321c0.03-0.117,0.161-0.19,0.279-0.162
				c0.117,0.03,0.205,0.162,0.161,0.279l-0.367,1.321C294.303-65.611,294.187-65.538,294.053-65.567L294.053-65.567z
				 M294.539-67.284c-0.104-0.029-0.221,0.029-0.249,0.132l-0.368,1.321c-0.029,0.103,0.03,0.205,0.147,0.234
				c0.104,0.03,0.221-0.029,0.249-0.132l0.367-1.321C294.7-67.152,294.64-67.255,294.539-67.284L294.539-67.284z"/>
			<path fill="#F3F3F3" d="M294.773-63.512c-0.117-0.044-0.161-0.176-0.117-0.279l1.174-2.832c0.044-0.103,0.177-0.161,0.278-0.103
				c0.118,0.044,0.161,0.176,0.118,0.279l-1.175,2.832C295.009-63.512,294.877-63.454,294.773-63.512L294.773-63.512z"/>
			<path fill="#FFFFFF" d="M294.773-63.498c-0.117-0.044-0.176-0.176-0.133-0.293l1.174-2.832c0.045-0.117,0.177-0.161,0.31-0.117
				c0.116,0.044,0.176,0.176,0.131,0.293l-1.173,2.832C295.024-63.498,294.891-63.44,294.773-63.498L294.773-63.498z
				 M296.108-66.711c-0.103-0.045-0.221,0-0.264,0.103l-1.174,2.832c-0.045,0.103,0.015,0.206,0.117,0.25
				c0.104,0.044,0.221,0,0.264-0.103l1.175-2.832C296.255-66.551,296.211-66.667,296.108-66.711L296.108-66.711z"/>
			<path fill="#F3F3F3" d="M296.755-64.452c-0.103-0.059-0.147-0.176-0.103-0.279l0.615-1.218c0.059-0.103,0.176-0.146,0.294-0.088
				c0.103,0.058,0.147,0.176,0.103,0.278l-0.616,1.218C296.989-64.437,296.872-64.393,296.755-64.452L296.755-64.452z"/>
			<path fill="#FFFFFF" d="M296.755-64.437c-0.117-0.059-0.163-0.191-0.103-0.308l0.615-1.218c0.059-0.118,0.19-0.162,0.308-0.103
				c0.118,0.058,0.162,0.19,0.104,0.308l-0.615,1.219C297.004-64.423,296.872-64.378,296.755-64.437L296.755-64.437z
				 M297.561-66.036c-0.104-0.045-0.221-0.015-0.266,0.088l-0.615,1.218c-0.043,0.088,0,0.205,0.089,0.264
				c0.103,0.044,0.22,0.015,0.263-0.087l0.616-1.219C297.694-65.861,297.648-65.978,297.561-66.036L297.561-66.036z"/>
			<path fill="#F3F3F3" d="M297.048-62.28c-0.103-0.073-0.132-0.205-0.059-0.293l1.702-2.539c0.06-0.103,0.19-0.118,0.293-0.059
				c0.103,0.073,0.133,0.206,0.06,0.293l-1.703,2.539C297.283-62.237,297.149-62.206,297.048-62.28L297.048-62.28z"/>
			<path fill="#FFFFFF" d="M297.048-62.265c-0.103-0.074-0.132-0.22-0.073-0.323l1.702-2.539c0.074-0.103,0.205-0.132,0.322-0.059
				c0.103,0.074,0.132,0.221,0.073,0.323l-1.702,2.539C297.296-62.221,297.149-62.192,297.048-62.265L297.048-62.265z
				 M298.984-65.156c-0.087-0.058-0.22-0.044-0.277,0.044l-1.703,2.539c-0.059,0.088-0.029,0.205,0.06,0.265
				c0.088,0.058,0.22,0.043,0.277-0.044l1.703-2.524C299.101-64.965,299.072-65.098,298.984-65.156L298.984-65.156z"/>
			<path fill="#F3F3F3" d="M299.19-62.823c-0.089-0.073-0.118-0.206-0.044-0.294l0.85-1.07c0.074-0.088,0.206-0.103,0.295-0.03
				c0.088,0.074,0.116,0.206,0.043,0.294l-0.851,1.071C299.409-62.765,299.277-62.749,299.19-62.823L299.19-62.823z"/>
			<path fill="#FFFFFF" d="M299.175-62.808c-0.103-0.074-0.118-0.22-0.044-0.323l0.851-1.071c0.074-0.103,0.221-0.118,0.324-0.029
				c0.102,0.073,0.116,0.22,0.044,0.322l-0.852,1.071C299.425-62.735,299.277-62.72,299.175-62.808L299.175-62.808z M300.276-64.202
				c-0.088-0.073-0.206-0.059-0.28,0.029l-0.85,1.071c-0.06,0.088-0.045,0.206,0.044,0.279c0.087,0.074,0.205,0.058,0.279-0.029
				l0.851-1.071C300.379-64.011,300.364-64.144,300.276-64.202L300.276-64.202z"/>
			<path fill="#F3F3F3" d="M299.044-60.622c-0.088-0.088-0.088-0.22,0-0.293l2.172-2.157c0.088-0.088,0.219-0.073,0.293,0
				c0.073,0.073,0.088,0.22,0,0.294l-2.157,2.157C299.264-60.534,299.131-60.534,299.044-60.622L299.044-60.622z"/>
			<path fill="#FFFFFF" d="M299.028-60.608c-0.087-0.087-0.087-0.234,0-0.323l2.172-2.157c0.089-0.088,0.234-0.088,0.324,0
				c0.087,0.088,0.087,0.235,0,0.322l-2.173,2.157C299.264-60.519,299.117-60.519,299.028-60.608L299.028-60.608z M301.509-63.073
				c-0.074-0.073-0.205-0.073-0.279,0l-2.173,2.157c-0.072,0.073-0.072,0.205,0,0.279c0.074,0.074,0.208,0.073,0.28,0l2.172-2.157
				C301.582-62.867,301.582-62.985,301.509-63.073L301.509-63.073z"/>
			<path fill="#F3F3F3" d="M301.244-60.74c-0.073-0.088-0.073-0.22,0.015-0.293l1.043-0.88c0.087-0.074,0.219-0.059,0.293,0.029
				c0.073,0.088,0.073,0.22-0.016,0.294l-1.041,0.88C301.45-60.637,301.317-60.651,301.244-60.74L301.244-60.74z"/>
			<path fill="#FFFFFF" d="M301.229-60.724c-0.088-0.103-0.073-0.25,0.015-0.323l1.042-0.88c0.09-0.088,0.234-0.073,0.323,0.029
				c0.087,0.103,0.072,0.25-0.015,0.323l-1.043,0.881C301.464-60.608,301.317-60.622,301.229-60.724L301.229-60.724z
				 M302.579-61.884c-0.072-0.088-0.19-0.088-0.278-0.029l-1.042,0.88c-0.073,0.073-0.088,0.191-0.015,0.278
				c0.073,0.089,0.19,0.089,0.28,0.03l1.041-0.88C302.653-61.678,302.653-61.796,302.579-61.884L302.579-61.884z"/>
			<path fill="#F3F3F3" d="M300.657-58.627c-0.072-0.103-0.042-0.234,0.059-0.293l2.554-1.702c0.103-0.059,0.235-0.029,0.294,0.059
				c0.072,0.103,0.043,0.234-0.059,0.293l-2.554,1.702C300.862-58.509,300.73-58.538,300.657-58.627L300.657-58.627z"/>
			<path fill="#FFFFFF" d="M300.642-58.627c-0.073-0.103-0.043-0.249,0.059-0.323l2.554-1.702c0.103-0.073,0.25-0.044,0.323,0.073
				c0.073,0.104,0.043,0.25-0.061,0.323l-2.553,1.702C300.862-58.48,300.716-58.509,300.642-58.627L300.642-58.627z M303.548-60.549
				c-0.058-0.088-0.176-0.117-0.263-0.059l-2.554,1.703c-0.089,0.058-0.116,0.176-0.045,0.278c0.06,0.088,0.176,0.118,0.265,0.059
				l2.554-1.702C303.592-60.344,303.606-60.461,303.548-60.549L303.548-60.549z"/>
			<path fill="#F3F3F3" d="M302.844-58.319c-0.058-0.103-0.03-0.234,0.073-0.293l1.189-0.675c0.103-0.059,0.234-0.015,0.293,0.087
				c0.058,0.103,0.029,0.236-0.073,0.294l-1.188,0.674C303.034-58.172,302.902-58.215,302.844-58.319L302.844-58.319z"/>
			<path fill="#FFFFFF" d="M302.829-58.304c-0.059-0.117-0.029-0.249,0.073-0.308l1.188-0.675c0.104-0.059,0.25-0.015,0.309,0.088
				c0.058,0.118,0.029,0.25-0.073,0.309l-1.188,0.675C303.034-58.157,302.886-58.201,302.829-58.304L302.829-58.304z
				 M304.385-59.184c-0.059-0.103-0.176-0.132-0.264-0.074l-1.189,0.675c-0.088,0.059-0.118,0.176-0.073,0.264
				c0.059,0.104,0.176,0.133,0.264,0.074l1.188-0.675C304.399-58.964,304.428-59.081,304.385-59.184L304.385-59.184z"/>
			<path fill="#F3F3F3" d="M301.86-56.366c-0.044-0.117,0-0.235,0.117-0.279l2.832-1.174c0.104-0.044,0.236,0.015,0.279,0.117
				c0.045,0.118,0,0.235-0.117,0.279l-2.832,1.173C302.037-56.205,301.904-56.249,301.86-56.366L301.86-56.366z"/>
			<path fill="#FFFFFF" d="M301.846-56.352c-0.045-0.118,0-0.249,0.115-0.308l2.833-1.174c0.118-0.044,0.25,0.015,0.294,0.132
				c0.045,0.118,0,0.25-0.117,0.308l-2.832,1.174C302.022-56.176,301.889-56.235,301.846-56.352L301.846-56.352z M305.059-57.687
				c-0.044-0.103-0.161-0.147-0.249-0.118l-2.833,1.174c-0.103,0.044-0.146,0.161-0.103,0.264c0.045,0.103,0.162,0.146,0.25,0.117
				l2.831-1.174C305.059-57.467,305.103-57.585,305.059-57.687L305.059-57.687z"/>
			<path fill="#F3F3F3" d="M303.929-55.633c-0.044-0.117,0.014-0.235,0.132-0.279l1.291-0.425c0.104-0.044,0.234,0.029,0.265,0.132
				c0.044,0.117-0.015,0.235-0.133,0.279l-1.29,0.426C304.091-55.457,303.973-55.516,303.929-55.633L303.929-55.633z"/>
			<path fill="#FFFFFF" d="M303.916-55.618c-0.045-0.118,0.014-0.25,0.146-0.293l1.29-0.426c0.117-0.044,0.25,0.03,0.294,0.147
				c0.044,0.118-0.015,0.25-0.147,0.294l-1.29,0.425C304.091-55.442,303.959-55.501,303.916-55.618L303.916-55.618z M305.617-56.176
				c-0.029-0.103-0.147-0.162-0.249-0.132l-1.292,0.425c-0.103,0.03-0.146,0.146-0.117,0.25c0.03,0.103,0.147,0.161,0.25,0.132
				l1.29-0.426C305.602-55.97,305.646-56.073,305.617-56.176L305.617-56.176z"/>
			<path fill="#F3F3F3" d="M302.609-53.886c-0.03-0.118,0.044-0.235,0.161-0.25l3.007-0.586c0.118-0.03,0.221,0.058,0.251,0.176
				c0.028,0.117-0.043,0.235-0.161,0.249l-3.009,0.587C302.741-53.696,302.623-53.77,302.609-53.886L302.609-53.886z"/>
			<path fill="#FFFFFF" d="M302.579-53.886c-0.028-0.132,0.06-0.25,0.177-0.279l3.009-0.587c0.117-0.029,0.233,0.059,0.264,0.191
				s-0.059,0.25-0.177,0.278l-3.008,0.587C302.726-53.667,302.609-53.755,302.579-53.886L302.579-53.886z M305.998-54.547
				c-0.013-0.103-0.116-0.176-0.221-0.162l-3.007,0.587c-0.103,0.015-0.176,0.132-0.147,0.235c0.016,0.103,0.117,0.176,0.221,0.161
				l3.008-0.586C305.955-54.342,306.028-54.445,305.998-54.547L305.998-54.547z"/>
			<path fill="#F3F3F3" d="M304.487-52.757c-0.015-0.117,0.059-0.22,0.176-0.235l1.35-0.162c0.118-0.014,0.221,0.074,0.235,0.191
				c0.016,0.117-0.058,0.221-0.176,0.234l-1.351,0.162C304.619-52.552,304.503-52.64,304.487-52.757L304.487-52.757z"/>
			<path fill="#FFFFFF" d="M304.472-52.757c-0.016-0.132,0.073-0.249,0.19-0.264l1.35-0.162c0.118-0.015,0.235,0.073,0.249,0.205
				c0.016,0.132-0.071,0.25-0.189,0.264l-1.351,0.162C304.604-52.537,304.487-52.625,304.472-52.757L304.472-52.757z
				 M306.248-52.962c-0.015-0.103-0.117-0.191-0.22-0.176l-1.351,0.161c-0.104,0.015-0.175,0.117-0.161,0.22
				c0.015,0.103,0.118,0.191,0.221,0.176l1.35-0.16C306.19-52.757,306.263-52.86,306.248-52.962L306.248-52.962z"/>
			<path fill="#F3F3F3" d="M302.844-51.333c0-0.118,0.088-0.221,0.205-0.221h3.067c0.116,0,0.205,0.103,0.205,0.221
				c0,0.117-0.089,0.22-0.205,0.22h-3.067C302.931-51.113,302.844-51.217,302.844-51.333L302.844-51.333z"/>
			<path fill="#FFFFFF" d="M302.829-51.333c0-0.133,0.103-0.235,0.221-0.235h3.066c0.117,0,0.22,0.103,0.22,0.235
				c0,0.132-0.103,0.234-0.22,0.234h-3.066C302.931-51.099,302.829-51.201,302.829-51.333L302.829-51.333z M306.306-51.319
				c0-0.103-0.088-0.205-0.19-0.205h-3.066c-0.103,0-0.191,0.088-0.191,0.205c0,0.103,0.089,0.206,0.191,0.206h3.066
				C306.219-51.128,306.306-51.217,306.306-51.319L306.306-51.319z"/>
			<path fill="#F3F3F3" d="M304.472-49.852c0.015-0.117,0.102-0.205,0.22-0.205l1.366,0.103c0.117,0.015,0.203,0.117,0.189,0.235
				c-0.015,0.118-0.104,0.205-0.22,0.205l-1.365-0.103C304.56-49.632,304.472-49.735,304.472-49.852L304.472-49.852z"/>
			<path fill="#FFFFFF" d="M304.457-49.852c0.016-0.132,0.117-0.22,0.235-0.22l1.366,0.103c0.117,0.015,0.219,0.117,0.205,0.25
				c-0.016,0.131-0.119,0.22-0.235,0.22l-1.365-0.103C304.546-49.617,304.457-49.735,304.457-49.852L304.457-49.852z
				 M306.248-49.719c0.016-0.103-0.072-0.206-0.176-0.206l-1.364-0.103c-0.104,0-0.191,0.073-0.205,0.19
				c-0.016,0.103,0.071,0.206,0.175,0.206l1.365,0.103C306.144-49.529,306.233-49.617,306.248-49.719L306.248-49.719z"/>
			<path fill="#F3F3F3" d="M302.579-48.781c0.03-0.117,0.133-0.19,0.25-0.176l3.009,0.602c0.117,0.029,0.19,0.132,0.16,0.249
				c-0.028,0.117-0.132,0.191-0.249,0.176l-3.009-0.602C302.638-48.546,302.565-48.663,302.579-48.781L302.579-48.781z"/>
			<path fill="#FFFFFF" d="M302.565-48.781c0.027-0.132,0.146-0.206,0.264-0.19l3.009,0.602c0.117,0.029,0.205,0.146,0.175,0.278
				c-0.027,0.132-0.146,0.206-0.264,0.191l-3.009-0.602C302.623-48.531,302.551-48.649,302.565-48.781L302.565-48.781z
				 M305.985-48.091c0.013-0.103-0.045-0.205-0.147-0.234l-3.009-0.602c-0.103-0.015-0.206,0.043-0.234,0.161
				c-0.016,0.103,0.044,0.205,0.146,0.234l3.009,0.602C305.867-47.915,305.955-47.989,305.985-48.091L305.985-48.091z"/>
			<path fill="#F3F3F3" d="M303.9-47.019c0.029-0.118,0.146-0.191,0.264-0.162l1.321,0.367c0.117,0.029,0.176,0.147,0.146,0.264
				s-0.146,0.191-0.264,0.161l-1.321-0.366C303.929-46.785,303.871-46.903,303.9-47.019L303.9-47.019z"/>
			<path fill="#FFFFFF" d="M303.885-47.019c0.03-0.118,0.161-0.206,0.278-0.162l1.321,0.367c0.117,0.029,0.191,0.162,0.161,0.279
				c-0.029,0.118-0.161,0.206-0.278,0.161l-1.321-0.367C303.929-46.77,303.856-46.888,303.885-47.019L303.885-47.019z
				 M305.602-46.535c0.028-0.103-0.029-0.22-0.133-0.25l-1.319-0.367c-0.104-0.029-0.207,0.03-0.234,0.147
				c-0.03,0.103,0.027,0.22,0.131,0.25l1.321,0.366C305.469-46.375,305.573-46.433,305.602-46.535L305.602-46.535z"/>
			<path fill="#F3F3F3" d="M301.831-46.315c0.044-0.118,0.177-0.162,0.279-0.118l2.832,1.174c0.104,0.044,0.161,0.176,0.117,0.278
				c-0.044,0.118-0.177,0.161-0.278,0.118l-2.832-1.174C301.831-46.08,301.787-46.213,301.831-46.315L301.831-46.315z"/>
			<path fill="#FFFFFF" d="M301.816-46.33c0.044-0.117,0.176-0.176,0.294-0.132l2.832,1.174c0.117,0.044,0.161,0.176,0.117,0.308
				c-0.044,0.118-0.177,0.176-0.294,0.132l-2.831-1.175C301.816-46.08,301.772-46.213,301.816-46.33L301.816-46.33z M305.03-44.994
				c0.043-0.104,0-0.22-0.103-0.264l-2.832-1.174c-0.104-0.044-0.206,0.015-0.249,0.118c-0.044,0.103,0,0.22,0.103,0.264
				l2.832,1.174C304.883-44.848,305.001-44.891,305.03-44.994L305.03-44.994z"/>
			<path fill="#F3F3F3" d="M302.786-44.334c0.058-0.103,0.175-0.147,0.278-0.103l1.218,0.616c0.103,0.044,0.146,0.176,0.087,0.293
				c-0.059,0.103-0.175,0.147-0.278,0.103l-1.218-0.617C302.77-44.1,302.726-44.232,302.786-44.334L302.786-44.334z"/>
			<path fill="#FFFFFF" d="M302.77-44.349c0.059-0.118,0.19-0.162,0.309-0.103l1.218,0.617c0.117,0.059,0.16,0.19,0.103,0.308
				c-0.059,0.117-0.19,0.161-0.309,0.103l-1.218-0.617C302.756-44.085,302.712-44.232,302.77-44.349L302.77-44.349z M304.355-43.542
				c0.044-0.103,0.014-0.219-0.089-0.264l-1.217-0.616c-0.089-0.045-0.206,0-0.264,0.088c-0.045,0.103-0.016,0.22,0.087,0.264
				l1.218,0.616C304.194-43.41,304.31-43.44,304.355-43.542L304.355-43.542z"/>
			<path fill="#F3F3F3" d="M300.628-44.055c0.073-0.104,0.19-0.133,0.293-0.06l2.554,1.702c0.104,0.059,0.117,0.191,0.059,0.293
				c-0.073,0.103-0.19,0.132-0.293,0.059l-2.554-1.701C300.585-43.835,300.554-43.968,300.628-44.055L300.628-44.055z"/>
			<path fill="#FFFFFF" d="M300.615-44.07c0.071-0.103,0.218-0.132,0.32-0.074l2.555,1.702c0.102,0.074,0.131,0.205,0.058,0.323
				c-0.073,0.103-0.221,0.132-0.322,0.074l-2.553-1.703C300.554-43.821,300.54-43.968,300.615-44.07L300.615-44.07z M303.505-42.134
				c0.059-0.087,0.043-0.22-0.045-0.278l-2.553-1.703c-0.089-0.058-0.206-0.029-0.265,0.06c-0.058,0.087-0.043,0.22,0.044,0.278
				l2.554,1.702C303.327-42.016,303.445-42.045,303.505-42.134L303.505-42.134z"/>
			<path fill="#F3F3F3" d="M301.171-41.928c0.073-0.087,0.206-0.117,0.293-0.043l1.071,0.836c0.088,0.073,0.104,0.205,0.03,0.293
				c-0.074,0.088-0.205,0.117-0.294,0.044l-1.071-0.837C301.112-41.708,301.097-41.84,301.171-41.928L301.171-41.928z"/>
			<path fill="#FFFFFF" d="M301.156-41.942c0.073-0.103,0.221-0.118,0.323-0.045l1.071,0.836c0.103,0.073,0.117,0.22,0.044,0.323
				c-0.074,0.103-0.219,0.118-0.323,0.044L301.2-41.62C301.097-41.693,301.083-41.84,301.156-41.942L301.156-41.942z
				 M302.565-40.842c0.073-0.088,0.058-0.205-0.03-0.278l-1.071-0.837c-0.087-0.059-0.205-0.043-0.278,0.044
				c-0.073,0.088-0.06,0.205,0.03,0.278l1.07,0.837C302.376-40.74,302.491-40.754,302.565-40.842L302.565-40.842z"/>
			<path fill="#F3F3F3" d="M298.984-42.074c0.088-0.088,0.22-0.088,0.293,0l2.173,2.157c0.088,0.088,0.074,0.22,0,0.293
				c-0.088,0.088-0.221,0.088-0.294,0l-2.172-2.157C298.911-41.855,298.911-42.001,298.984-42.074L298.984-42.074z"/>
			<path fill="#FFFFFF" d="M298.984-42.09c0.088-0.088,0.235-0.088,0.323,0l2.172,2.157c0.088,0.088,0.088,0.235,0,0.323
				c-0.088,0.088-0.235,0.088-0.323,0l-2.172-2.157C298.882-41.855,298.882-42.001,298.984-42.09L298.984-42.09z M301.45-39.639
				c0.074-0.073,0.074-0.205,0-0.279l-2.173-2.157c-0.073-0.073-0.205-0.073-0.278,0c-0.073,0.074-0.073,0.206,0,0.279l2.172,2.157
				C301.244-39.551,301.361-39.551,301.45-39.639L301.45-39.639z"/>
			<path fill="#F3F3F3" d="M299.117-39.888c0.087-0.073,0.22-0.073,0.292,0.014l0.896,1.028c0.073,0.088,0.059,0.22-0.029,0.293
				s-0.221,0.074-0.295-0.015l-0.895-1.027C299.013-39.668,299.028-39.801,299.117-39.888L299.117-39.888z"/>
			<path fill="#FFFFFF" d="M299.101-39.888c0.103-0.088,0.235-0.073,0.323,0.014l0.896,1.028c0.087,0.088,0.074,0.235-0.029,0.322
				c-0.103,0.089-0.235,0.074-0.322-0.014l-0.896-1.027C298.999-39.668,298.999-39.815,299.101-39.888L299.101-39.888z
				 M300.276-38.553c0.088-0.074,0.088-0.191,0.028-0.279l-0.896-1.027c-0.072-0.073-0.19-0.088-0.278-0.015
				c-0.087,0.074-0.087,0.191-0.029,0.279l0.895,1.027C300.07-38.479,300.188-38.479,300.276-38.553L300.276-38.553z"/>
			<path fill="#F3F3F3" d="M297.004-40.446c0.102-0.074,0.234-0.044,0.292,0.059l1.703,2.538c0.058,0.103,0.029,0.235-0.058,0.294
				c-0.103,0.073-0.234,0.044-0.295-0.059l-1.701-2.539C296.885-40.255,296.916-40.387,297.004-40.446L297.004-40.446z"/>
			<path fill="#FFFFFF" d="M297.004-40.46c0.102-0.074,0.249-0.044,0.322,0.058l1.702,2.539c0.073,0.103,0.044,0.25-0.072,0.322
				c-0.102,0.074-0.249,0.044-0.322-0.058l-1.703-2.539C296.857-40.255,296.885-40.387,297.004-40.46L297.004-40.46z M298.941-37.57
				c0.087-0.059,0.115-0.176,0.058-0.264l-1.703-2.539c-0.058-0.087-0.175-0.103-0.277-0.043c-0.088,0.058-0.117,0.176-0.059,0.264
				l1.701,2.539C298.72-37.541,298.854-37.511,298.941-37.57L298.941-37.57z"/>
			<path fill="#F3F3F3" d="M296.695-38.274c0.104-0.059,0.235-0.029,0.294,0.073l0.675,1.188c0.058,0.103,0.015,0.235-0.089,0.293
				c-0.102,0.059-0.234,0.029-0.292-0.073l-0.676-1.188C296.564-38.083,296.592-38.215,296.695-38.274L296.695-38.274z"/>
			<path fill="#FFFFFF" d="M296.695-38.289c0.117-0.059,0.249-0.03,0.309,0.074l0.675,1.188c0.059,0.103,0.03,0.25-0.088,0.308
				c-0.117,0.059-0.25,0.029-0.308-0.073l-0.676-1.188C296.549-38.083,296.579-38.215,296.695-38.289L296.695-38.289z
				 M297.575-36.733c0.089-0.059,0.134-0.176,0.073-0.265l-0.674-1.188c-0.059-0.088-0.176-0.118-0.265-0.074
				c-0.088,0.059-0.131,0.176-0.072,0.264l0.674,1.189C297.356-36.719,297.488-36.675,297.575-36.733L297.575-36.733z"/>
			<path fill="#F3F3F3" d="M294.744-39.242c0.117-0.044,0.234,0,0.28,0.103l1.188,2.833c0.044,0.103-0.016,0.234-0.117,0.278
				c-0.104,0.043-0.235,0-0.279-0.103l-1.189-2.832C294.583-39.066,294.64-39.198,294.744-39.242L294.744-39.242z"/>
			<path fill="#FFFFFF" d="M294.744-39.257c0.117-0.044,0.25,0,0.308,0.117l1.188,2.833c0.044,0.116-0.014,0.249-0.132,0.293
				c-0.117,0.044-0.249,0-0.308-0.117l-1.188-2.832C294.568-39.066,294.626-39.198,294.744-39.257L294.744-39.257z M296.079-36.044
				c0.103-0.044,0.147-0.161,0.103-0.249l-1.188-2.832c-0.045-0.103-0.163-0.147-0.265-0.103c-0.104,0.044-0.146,0.162-0.104,0.25
				l1.188,2.832C295.874-36.044,295.976-35.999,296.079-36.044L296.079-36.044z"/>
			<path fill="#F3F3F3" d="M294.025-37.159c0.117-0.044,0.234,0.015,0.278,0.132l0.426,1.291c0.044,0.103-0.029,0.235-0.132,0.264
				c-0.118,0.044-0.235-0.014-0.279-0.131l-0.426-1.292C293.848-36.998,293.907-37.115,294.025-37.159L294.025-37.159z"/>
			<path fill="#FFFFFF" d="M294.01-37.174c0.117-0.044,0.249,0.015,0.294,0.132l0.426,1.292c0.044,0.117-0.029,0.25-0.146,0.293
				c-0.118,0.044-0.25-0.015-0.293-0.132l-0.426-1.291C293.834-36.998,293.892-37.129,294.01-37.174L294.01-37.174z M294.583-35.486
				c0.103-0.03,0.161-0.147,0.131-0.25l-0.424-1.291c-0.031-0.103-0.147-0.147-0.25-0.117c-0.104,0.028-0.161,0.146-0.133,0.249
				l0.426,1.292C294.362-35.501,294.479-35.442,294.583-35.486L294.583-35.486z"/>
			<path fill="#F3F3F3" d="M292.293-38.494c0.119-0.03,0.235,0.044,0.251,0.162l0.616,3.008c0.028,0.117-0.06,0.219-0.177,0.25
				c-0.118,0.029-0.234-0.044-0.25-0.162l-0.615-3.008C292.103-38.347,292.177-38.465,292.293-38.494L292.293-38.494z"/>
			<path fill="#FFFFFF" d="M292.293-38.509c0.132-0.029,0.251,0.059,0.278,0.176l0.617,3.008c0.029,0.117-0.059,0.25-0.176,0.263
				c-0.133,0.029-0.25-0.058-0.279-0.176l-0.615-3.008C292.088-38.362,292.161-38.479,292.293-38.509L292.293-38.509z
				 M292.983-35.09c0.103-0.015,0.177-0.118,0.161-0.234l-0.616-3.008c-0.015-0.103-0.132-0.176-0.235-0.146
				c-0.102,0.015-0.175,0.117-0.161,0.234l0.617,3.008C292.777-35.134,292.88-35.075,292.983-35.09L292.983-35.09z"/>
			<path fill="#F3F3F3" d="M291.178-36.587c0.117-0.015,0.221,0.059,0.249,0.175l0.175,1.351c0.016,0.118-0.072,0.22-0.189,0.235
				c-0.117,0.014-0.22-0.06-0.249-0.177l-0.176-1.349C290.972-36.469,291.061-36.572,291.178-36.587L291.178-36.587z"/>
			<path fill="#FFFFFF" d="M291.178-36.601c0.131-0.015,0.249,0.073,0.264,0.19l0.176,1.351c0.015,0.118-0.073,0.235-0.205,0.25
				c-0.131,0.015-0.249-0.074-0.265-0.191l-0.175-1.349C290.958-36.469,291.047-36.587,291.178-36.601L291.178-36.601z
				 M291.399-34.841c0.104-0.015,0.189-0.118,0.175-0.22l-0.175-1.351c-0.016-0.103-0.117-0.175-0.221-0.161
				c-0.103,0.015-0.19,0.117-0.178,0.22l0.178,1.349C291.193-34.899,291.296-34.825,291.399-34.841L291.399-34.841z"/>
			<path fill="#F3F3F3" d="M289.666-38.23c0.119,0,0.221,0.087,0.221,0.205v3.066c0,0.117-0.102,0.205-0.221,0.205
				c-0.117,0-0.218-0.088-0.218-0.205v-3.066C289.461-38.142,289.549-38.23,289.666-38.23L289.666-38.23z"/>
			<path fill="#FFFFFF" d="M289.666-38.245c0.132,0,0.235,0.103,0.235,0.221v3.066c0,0.117-0.104,0.22-0.235,0.22
				c-0.131,0-0.233-0.103-0.233-0.22v-3.066C289.432-38.142,289.549-38.245,289.666-38.245L289.666-38.245z M289.666-34.767
				c0.104,0,0.206-0.088,0.206-0.191v-3.066c0-0.103-0.087-0.19-0.206-0.19c-0.102,0-0.205,0.087-0.205,0.19v3.066
				C289.475-34.856,289.564-34.767,289.666-34.767L289.666-34.767z"/>
			<path fill="#F3F3F3" d="M288.2-36.587c0.117,0.015,0.205,0.103,0.205,0.22l-0.104,1.364c-0.014,0.118-0.117,0.206-0.234,0.191
				c-0.116-0.014-0.205-0.103-0.205-0.22l0.103-1.364C287.979-36.514,288.082-36.601,288.2-36.587L288.2-36.587z"/>
			<path fill="#FFFFFF" d="M288.2-36.601c0.131,0.015,0.219,0.118,0.219,0.234l-0.102,1.364c-0.016,0.118-0.117,0.221-0.25,0.206
				c-0.132-0.015-0.22-0.117-0.22-0.235l0.104-1.365C287.965-36.528,288.067-36.616,288.2-36.601L288.2-36.601z M288.067-34.825
				c0.104,0,0.206-0.074,0.206-0.177l0.103-1.364c0-0.103-0.074-0.19-0.191-0.205c-0.102,0-0.205,0.073-0.205,0.176l-0.103,1.364
				C287.877-34.929,287.965-34.841,288.067-34.825L288.067-34.825z"/>
			<path fill="#F3F3F3" d="M287.098-38.494c0.118,0.029,0.19,0.132,0.176,0.249l-0.601,3.008c-0.03,0.118-0.132,0.191-0.25,0.162
				c-0.117-0.03-0.19-0.133-0.176-0.25l0.601-3.008C286.864-38.435,286.98-38.509,287.098-38.494L287.098-38.494z"/>
			<path fill="#FFFFFF" d="M287.098-38.509c0.133,0.03,0.206,0.147,0.19,0.264l-0.601,3.008c-0.03,0.118-0.146,0.205-0.278,0.176
				c-0.134-0.029-0.207-0.146-0.191-0.263l0.603-3.008C286.848-38.45,286.967-38.524,287.098-38.509L287.098-38.509z M286.41-35.09
				c0.102,0.015,0.205-0.044,0.233-0.147l0.603-3.008c0.015-0.102-0.045-0.205-0.162-0.234c-0.104-0.015-0.205,0.044-0.235,0.146
				l-0.601,3.008C286.233-35.208,286.306-35.119,286.41-35.09L286.41-35.09z"/>
			<path fill="#F3F3F3" d="M285.338-37.174c0.118,0.029,0.19,0.147,0.162,0.264l-0.366,1.321c-0.031,0.117-0.146,0.176-0.265,0.146
				c-0.117-0.03-0.19-0.146-0.162-0.264l0.367-1.321C285.102-37.144,285.22-37.203,285.338-37.174L285.338-37.174z"/>
			<path fill="#FFFFFF" d="M285.338-37.189c0.118,0.03,0.206,0.162,0.162,0.279l-0.366,1.321c-0.031,0.117-0.162,0.19-0.279,0.161
				c-0.118-0.029-0.206-0.161-0.162-0.278l0.368-1.321C285.089-37.144,285.206-37.218,285.338-37.189L285.338-37.189z
				 M284.854-35.472c0.103,0.03,0.22-0.029,0.248-0.131l0.368-1.321c0.029-0.103-0.03-0.205-0.147-0.235
				c-0.103-0.03-0.221,0.029-0.249,0.132l-0.367,1.321C284.692-35.603,284.752-35.501,284.854-35.472L284.854-35.472z"/>
			<path fill="#F3F3F3" d="M284.619-39.242c0.117,0.044,0.162,0.176,0.117,0.279l-1.174,2.832c-0.044,0.103-0.176,0.161-0.278,0.103
				c-0.104-0.059-0.161-0.176-0.118-0.278l1.175-2.833C284.384-39.242,284.515-39.301,284.619-39.242L284.619-39.242z"/>
			<path fill="#FFFFFF" d="M284.619-39.257c0.117,0.044,0.176,0.176,0.133,0.293l-1.175,2.832c-0.044,0.117-0.176,0.161-0.309,0.117
				c-0.116-0.043-0.176-0.176-0.132-0.293l1.174-2.833C284.37-39.257,284.501-39.316,284.619-39.257L284.619-39.257z
				 M283.284-36.044c0.103,0.045,0.22,0,0.264-0.103l1.174-2.832c0.045-0.103-0.015-0.206-0.117-0.25
				c-0.104-0.044-0.221,0-0.264,0.103l-1.175,2.832C283.136-36.205,283.18-36.088,283.284-36.044L283.284-36.044z"/>
			<path fill="#F3F3F3" d="M282.637-38.303c0.103,0.058,0.147,0.176,0.103,0.279l-0.615,1.218c-0.059,0.103-0.176,0.147-0.294,0.088
				c-0.103-0.058-0.146-0.176-0.103-0.279l0.616-1.217C282.404-38.319,282.52-38.362,282.637-38.303L282.637-38.303z"/>
			<path fill="#FFFFFF" d="M282.637-38.319c0.117,0.059,0.162,0.191,0.103,0.309l-0.615,1.218c-0.059,0.118-0.19,0.162-0.309,0.103
				c-0.118-0.058-0.161-0.19-0.103-0.308l0.615-1.217C282.388-38.333,282.52-38.377,282.637-38.319L282.637-38.319z M281.831-36.719
				c0.104,0.044,0.221,0.015,0.266-0.088l0.615-1.218c0.044-0.088,0-0.205-0.089-0.264c-0.103-0.044-0.219-0.015-0.263,0.087
				l-0.617,1.218C281.698-36.895,281.743-36.777,281.831-36.719L281.831-36.719z"/>
			<path fill="#F3F3F3" d="M282.344-40.476c0.104,0.074,0.132,0.206,0.06,0.294l-1.703,2.539c-0.059,0.103-0.19,0.118-0.293,0.059
				c-0.103-0.073-0.133-0.206-0.06-0.293l1.702-2.539C282.109-40.519,282.243-40.549,282.344-40.476L282.344-40.476z"/>
			<path fill="#FFFFFF" d="M282.344-40.49c0.104,0.073,0.132,0.22,0.073,0.322l-1.702,2.539c-0.073,0.103-0.205,0.132-0.322,0.059
				c-0.104-0.073-0.132-0.22-0.073-0.323l1.702-2.539C282.096-40.534,282.243-40.563,282.344-40.49L282.344-40.49z M280.408-37.599
				c0.087,0.058,0.22,0.044,0.277-0.044l1.703-2.539c0.06-0.088,0.029-0.205-0.06-0.264c-0.086-0.059-0.22-0.044-0.277,0.043
				l-1.703,2.524C280.291-37.79,280.32-37.658,280.408-37.599L280.408-37.599z"/>
			<path fill="#F3F3F3" d="M280.202-39.932c0.089,0.073,0.118,0.206,0.044,0.294l-0.85,1.07c-0.074,0.089-0.206,0.104-0.294,0.03
				c-0.089-0.073-0.117-0.206-0.044-0.293l0.851-1.071C279.981-39.99,280.115-40.006,280.202-39.932L280.202-39.932z"/>
			<path fill="#FFFFFF" d="M280.218-39.947c0.103,0.073,0.118,0.22,0.044,0.323l-0.851,1.071c-0.074,0.103-0.221,0.118-0.323,0.029
				c-0.103-0.073-0.118-0.22-0.045-0.322l0.852-1.071C279.968-40.02,280.115-40.035,280.218-39.947L280.218-39.947z M279.116-38.553
				c0.088,0.074,0.206,0.059,0.28-0.029l0.85-1.072c0.06-0.088,0.045-0.206-0.044-0.279c-0.087-0.074-0.205-0.058-0.279,0.029
				l-0.851,1.071C279.013-38.744,279.028-38.612,279.116-38.553L279.116-38.553z"/>
			<path fill="#F3F3F3" d="M280.348-42.134c0.089,0.088,0.089,0.22,0,0.294l-2.172,2.157c-0.088,0.088-0.219,0.073-0.293,0
				c-0.073-0.074-0.088-0.22,0-0.294l2.157-2.157C280.128-42.221,280.261-42.221,280.348-42.134L280.348-42.134z"/>
			<path fill="#FFFFFF" d="M280.363-42.148c0.089,0.087,0.089,0.234,0,0.323l-2.171,2.157c-0.089,0.087-0.234,0.087-0.324,0
				c-0.087-0.089-0.087-0.235,0-0.323l2.173-2.157C280.128-42.237,280.275-42.237,280.363-42.148L280.363-42.148z M277.884-39.683
				c0.074,0.073,0.205,0.073,0.279,0l2.173-2.157c0.072-0.073,0.072-0.205,0-0.279c-0.074-0.074-0.208-0.073-0.281,0l-2.171,2.157
				C277.81-39.888,277.81-39.771,277.884-39.683L277.884-39.683z"/>
			<path fill="#F3F3F3" d="M278.148-42.016c0.072,0.087,0.072,0.22-0.015,0.293l-1.043,0.88c-0.086,0.074-0.219,0.059-0.292-0.029
				c-0.073-0.088-0.073-0.22,0.015-0.294l1.042-0.88C277.943-42.119,278.075-42.104,278.148-42.016L278.148-42.016z"/>
			<path fill="#FFFFFF" d="M278.163-42.031c0.088,0.103,0.073,0.25-0.015,0.323l-1.042,0.881c-0.089,0.088-0.234,0.073-0.322-0.029
				s-0.073-0.25,0.015-0.323l1.042-0.881C277.928-42.148,278.075-42.134,278.163-42.031L278.163-42.031z M276.813-40.871
				c0.072,0.088,0.191,0.088,0.277,0.029l1.043-0.88c0.073-0.073,0.087-0.191,0.014-0.278c-0.072-0.089-0.189-0.089-0.279-0.03
				l-1.041,0.88C276.739-41.077,276.739-40.959,276.813-40.871L276.813-40.871z"/>
			<path fill="#F3F3F3" d="M278.735-44.129c0.072,0.103,0.045,0.234-0.059,0.293l-2.554,1.702c-0.102,0.059-0.234,0.029-0.293-0.059
				c-0.073-0.103-0.044-0.234,0.059-0.293l2.553-1.703C278.53-44.246,278.661-44.217,278.735-44.129L278.735-44.129z"/>
			<path fill="#FFFFFF" d="M278.75-44.129c0.073,0.103,0.043,0.249-0.058,0.323l-2.555,1.702c-0.104,0.073-0.249,0.044-0.323-0.073
				c-0.073-0.103-0.043-0.249,0.061-0.323l2.553-1.702C278.53-44.276,278.677-44.246,278.75-44.129L278.75-44.129z M275.844-42.207
				c0.058,0.088,0.176,0.117,0.263,0.059l2.554-1.702c0.089-0.059,0.119-0.176,0.045-0.279c-0.059-0.088-0.176-0.118-0.265-0.06
				l-2.553,1.703C275.801-42.412,275.786-42.295,275.844-42.207L275.844-42.207z"/>
			<path fill="#F3F3F3" d="M276.549-44.437c0.059,0.103,0.029,0.234-0.073,0.293l-1.189,0.675c-0.103,0.059-0.234,0.015-0.293-0.087
				c-0.058-0.103-0.029-0.236,0.074-0.294l1.188-0.675C276.358-44.584,276.49-44.54,276.549-44.437L276.549-44.437z"/>
			<path fill="#FFFFFF" d="M276.563-44.452c0.059,0.118,0.029,0.25-0.073,0.308l-1.188,0.675c-0.104,0.059-0.25,0.015-0.309-0.087
				c-0.058-0.118-0.029-0.25,0.074-0.309l1.188-0.675C276.358-44.598,276.506-44.554,276.563-44.452L276.563-44.452z
				 M275.009-43.572c0.059,0.103,0.175,0.132,0.264,0.073l1.188-0.675c0.088-0.059,0.118-0.176,0.072-0.264
				c-0.058-0.104-0.175-0.133-0.264-0.074l-1.188,0.675C274.993-43.792,274.964-43.674,275.009-43.572L275.009-43.572z"/>
			<path fill="#F3F3F3" d="M277.532-46.389c0.044,0.118,0,0.235-0.117,0.279l-2.833,1.174c-0.103,0.044-0.235-0.015-0.278-0.118
				c-0.045-0.117,0-0.234,0.117-0.279l2.832-1.174C277.355-46.55,277.488-46.506,277.532-46.389L277.532-46.389z"/>
			<path fill="#FFFFFF" d="M277.546-46.403c0.045,0.117,0,0.249-0.116,0.308l-2.832,1.173c-0.118,0.044-0.251-0.015-0.294-0.132
				c-0.045-0.118,0-0.25,0.117-0.308l2.832-1.174C277.37-46.58,277.503-46.52,277.546-46.403L277.546-46.403z M274.333-45.068
				c0.044,0.103,0.161,0.146,0.249,0.117l2.833-1.174c0.103-0.044,0.146-0.162,0.103-0.264c-0.045-0.103-0.162-0.146-0.25-0.117
				l-2.831,1.174C274.333-45.288,274.289-45.171,274.333-45.068L274.333-45.068z"/>
			<path fill="#F3F3F3" d="M275.463-47.122c0.044,0.117-0.015,0.234-0.133,0.279l-1.29,0.426c-0.104,0.043-0.234-0.029-0.265-0.132
				c-0.044-0.117,0.015-0.235,0.132-0.279l1.291-0.426C275.302-47.298,275.419-47.24,275.463-47.122L275.463-47.122z"/>
			<path fill="#FFFFFF" d="M275.477-47.137c0.044,0.117-0.015,0.249-0.147,0.293l-1.29,0.426c-0.119,0.043-0.25-0.029-0.294-0.147
				s0.015-0.25,0.147-0.293l1.289-0.426C275.302-47.314,275.433-47.255,275.477-47.137L275.477-47.137z M273.775-46.58
				c0.03,0.103,0.147,0.162,0.25,0.133l1.291-0.426c0.103-0.03,0.146-0.147,0.117-0.25c-0.03-0.103-0.147-0.162-0.25-0.132
				l-1.29,0.426C273.79-46.785,273.746-46.682,273.775-46.58L273.775-46.58z"/>
			<path fill="#F3F3F3" d="M276.784-48.868c0.029,0.117-0.045,0.235-0.162,0.25l-3.007,0.586c-0.118,0.03-0.22-0.059-0.251-0.176
				c-0.028-0.117,0.045-0.235,0.161-0.249l3.008-0.587C276.651-49.059,276.769-48.986,276.784-48.868L276.784-48.868z"/>
			<path fill="#FFFFFF" d="M276.813-48.868c0.028,0.132-0.06,0.25-0.177,0.279l-3.009,0.587c-0.117,0.029-0.233-0.059-0.264-0.191
				c-0.028-0.132,0.058-0.25,0.177-0.278l3.008-0.587C276.666-49.089,276.784-49.001,276.813-48.868L276.813-48.868z
				 M273.394-48.208c0.015,0.103,0.116,0.176,0.221,0.162l3.007-0.587c0.104-0.015,0.177-0.132,0.147-0.234
				c-0.016-0.103-0.117-0.176-0.221-0.161l-3.008,0.586C273.437-48.413,273.364-48.311,273.394-48.208L273.394-48.208z"/>
			<path fill="#F3F3F3" d="M274.905-49.998c0.015,0.117-0.059,0.22-0.176,0.235l-1.351,0.162c-0.117,0.014-0.22-0.074-0.234-0.191
				c-0.016-0.117,0.058-0.22,0.176-0.234l1.351-0.162C274.772-50.204,274.889-50.115,274.905-49.998L274.905-49.998z"/>
			<path fill="#FFFFFF" d="M274.92-49.998c0.016,0.132-0.073,0.249-0.19,0.264l-1.351,0.162c-0.117,0.014-0.234-0.073-0.25-0.206
				c-0.014-0.132,0.073-0.25,0.191-0.264l1.351-0.162C274.788-50.218,274.905-50.13,274.92-49.998L274.92-49.998z M273.144-49.793
				c0.015,0.103,0.117,0.191,0.22,0.176l1.351-0.161c0.104-0.015,0.177-0.118,0.161-0.22c-0.014-0.103-0.118-0.191-0.221-0.176
				l-1.349,0.161C273.202-49.998,273.129-49.896,273.144-49.793L273.144-49.793z"/>
			<path fill="#F3F3F3" d="M276.549-51.422c0,0.118-0.089,0.22-0.205,0.22h-3.067c-0.117,0-0.205-0.103-0.205-0.22
				c0-0.117,0.088-0.221,0.205-0.221h3.066C276.46-51.642,276.549-51.539,276.549-51.422L276.549-51.422z"/>
			<path fill="#FFFFFF" d="M276.563-51.422c0,0.131-0.104,0.235-0.221,0.235h-3.066c-0.117,0-0.22-0.104-0.22-0.235
				c0-0.132,0.103-0.235,0.22-0.235h3.066C276.46-51.657,276.563-51.554,276.563-51.422L276.563-51.422z M273.086-51.436
				c0,0.103,0.089,0.205,0.19,0.205h3.066c0.103,0,0.19-0.088,0.19-0.205c0-0.103-0.088-0.206-0.19-0.206h-3.066
				C273.175-51.627,273.086-51.539,273.086-51.436L273.086-51.436z"/>
			<path fill="#E2E2E2" d="M274.92-52.904c-0.015,0.117-0.103,0.206-0.221,0.206l-1.363-0.104c-0.119-0.015-0.205-0.117-0.191-0.235
				c0.015-0.118,0.104-0.205,0.22-0.205l1.365,0.103C274.832-53.124,274.92-53.021,274.92-52.904L274.92-52.904z"/>
			<path fill="#FFFFFF" d="M274.935-52.904c-0.016,0.132-0.118,0.22-0.236,0.22l-1.363-0.103c-0.119-0.015-0.221-0.117-0.205-0.25
				c0.014-0.132,0.117-0.221,0.233-0.221l1.365,0.103C274.846-53.138,274.935-53.021,274.935-52.904L274.935-52.904z
				 M273.144-53.036c-0.014,0.103,0.072,0.205,0.176,0.205l1.364,0.103c0.104,0,0.191-0.073,0.207-0.19
				c0.014-0.103-0.073-0.206-0.177-0.206l-1.365-0.103C273.248-53.227,273.159-53.138,273.144-53.036L273.144-53.036z"/>
			<path fill="#F3F3F3" d="M276.813-53.975c-0.029,0.117-0.133,0.191-0.25,0.176l-3.009-0.617c-0.117-0.029-0.19-0.132-0.16-0.25
				c0.028-0.117,0.131-0.19,0.248-0.175l3.009,0.602C276.754-54.21,276.827-54.092,276.813-53.975L276.813-53.975z"/>
			<path fill="#FFFFFF" d="M276.827-53.975c-0.028,0.132-0.146,0.205-0.264,0.191l-3.009-0.602
				c-0.117-0.029-0.205-0.146-0.176-0.279c0.03-0.131,0.146-0.205,0.264-0.19l3.009,0.602
				C276.769-54.224,276.842-54.107,276.827-53.975L276.827-53.975z M273.409-54.665c-0.015,0.104,0.043,0.206,0.146,0.235
				l3.009,0.602c0.103,0.015,0.205-0.044,0.235-0.161c0.015-0.103-0.045-0.205-0.147-0.234l-3.009-0.602
				C273.525-54.841,273.437-54.767,273.409-54.665L273.409-54.665z"/>
			<path fill="#F3F3F3" d="M275.492-55.736c-0.029,0.118-0.146,0.191-0.264,0.162l-1.321-0.367
				c-0.117-0.029-0.176-0.147-0.146-0.264s0.146-0.191,0.265-0.161l1.32,0.366C275.463-55.97,275.521-55.853,275.492-55.736
				L275.492-55.736z"/>
			<path fill="#FFFFFF" d="M275.507-55.736c-0.029,0.118-0.161,0.206-0.278,0.162l-1.321-0.367
				c-0.117-0.029-0.191-0.162-0.161-0.279c0.029-0.118,0.161-0.206,0.279-0.161l1.32,0.367
				C275.463-55.986,275.536-55.868,275.507-55.736L275.507-55.736z M273.79-56.22c-0.028,0.103,0.03,0.22,0.133,0.25l1.32,0.367
				c0.103,0.029,0.205-0.029,0.234-0.146c0.029-0.103-0.028-0.22-0.132-0.25l-1.32-0.366C273.923-56.381,273.82-56.323,273.79-56.22
				L273.79-56.22z"/>
			<path fill="#F3F3F3" d="M277.561-56.44c-0.044,0.118-0.177,0.162-0.278,0.118l-2.833-1.174c-0.104-0.044-0.161-0.176-0.117-0.278
				c0.044-0.118,0.177-0.161,0.279-0.118l2.832,1.174C277.561-56.675,277.605-56.543,277.561-56.44L277.561-56.44z"/>
			<path fill="#FFFFFF" d="M277.576-56.426c-0.044,0.118-0.177,0.176-0.294,0.132l-2.832-1.173
				c-0.117-0.044-0.161-0.177-0.117-0.308c0.044-0.118,0.176-0.176,0.294-0.132l2.831,1.174
				C277.576-56.675,277.62-56.543,277.576-56.426L277.576-56.426z M274.362-57.761c-0.044,0.104,0,0.22,0.103,0.264l2.832,1.174
				c0.103,0.044,0.206-0.015,0.249-0.118c0.045-0.103,0-0.22-0.102-0.264l-2.832-1.174
				C274.509-57.907,274.391-57.864,274.362-57.761L274.362-57.761z"/>
			<path fill="#F3F3F3" d="M276.607-58.421c-0.059,0.103-0.176,0.146-0.279,0.103l-1.218-0.616
				c-0.102-0.044-0.146-0.175-0.087-0.293c0.059-0.103,0.175-0.146,0.278-0.103l1.219,0.617
				C276.622-58.656,276.666-58.524,276.607-58.421L276.607-58.421z"/>
			<path fill="#FFFFFF" d="M276.622-58.406c-0.059,0.118-0.19,0.162-0.309,0.103l-1.218-0.616c-0.117-0.059-0.16-0.19-0.103-0.308
				c0.059-0.118,0.189-0.162,0.309-0.103l1.219,0.617C276.636-58.671,276.68-58.524,276.622-58.406L276.622-58.406z M275.037-59.213
				c-0.044,0.103-0.014,0.219,0.089,0.264l1.218,0.616c0.088,0.045,0.205,0,0.264-0.088c0.045-0.103,0.015-0.22-0.087-0.264
				l-1.234-0.617C275.198-59.346,275.081-59.316,275.037-59.213L275.037-59.213z"/>
			<path fill="#F3F3F3" d="M278.764-58.7c-0.072,0.103-0.19,0.132-0.293,0.059l-2.539-1.688c-0.103-0.059-0.118-0.19-0.058-0.293
				c0.058-0.103,0.19-0.133,0.293-0.059l2.552,1.702C278.807-58.92,278.839-58.788,278.764-58.7L278.764-58.7z"/>
			<path fill="#FFFFFF" d="M278.78-58.685c-0.074,0.103-0.221,0.132-0.323,0.074l-2.539-1.702c-0.104-0.074-0.132-0.206-0.059-0.323
				c0.073-0.103,0.22-0.132,0.322-0.073l2.538,1.702C278.839-58.934,278.851-58.788,278.78-58.685L278.78-58.685z M275.888-60.622
				c-0.06,0.087-0.044,0.219,0.044,0.278l2.553,1.703c0.089,0.058,0.207,0.029,0.265-0.059c0.058-0.088,0.043-0.22-0.044-0.279
				l-2.554-1.702C276.065-60.74,275.948-60.71,275.888-60.622L275.888-60.622z"/>
			<path fill="#F3F3F3" d="M278.22-60.827c-0.072,0.087-0.205,0.117-0.292,0.043l-1.071-0.836c-0.089-0.073-0.104-0.205-0.031-0.293
				c0.075-0.088,0.206-0.117,0.295-0.043l1.071,0.835C278.28-61.048,278.294-60.915,278.22-60.827L278.22-60.827z"/>
			<path fill="#FFFFFF" d="M278.236-60.813c-0.073,0.103-0.221,0.118-0.323,0.044l-1.071-0.836c-0.103-0.074-0.116-0.22-0.043-0.323
				c0.073-0.103,0.219-0.118,0.322-0.044l1.071,0.836C278.294-61.062,278.309-60.915,278.236-60.813L278.236-60.813z
				 M276.827-61.913c-0.073,0.088-0.058,0.205,0.03,0.278l1.071,0.837c0.087,0.059,0.205,0.043,0.278-0.044s0.06-0.205-0.03-0.279
				l-1.07-0.835C277.017-62.016,276.901-62.001,276.827-61.913L276.827-61.913z"/>
			<path fill="#F3F3F3" d="M280.408-60.681c-0.088,0.088-0.22,0.088-0.293,0l-2.187-2.157c-0.088-0.088-0.073-0.22,0-0.293
				c0.087-0.088,0.219-0.088,0.292,0l2.173,2.157C280.482-60.902,280.482-60.755,280.408-60.681L280.408-60.681z"/>
			<path fill="#FFFFFF" d="M280.408-60.666c-0.088,0.087-0.234,0.087-0.323,0l-2.172-2.157c-0.088-0.088-0.088-0.235,0-0.323
				c0.088-0.088,0.235-0.088,0.323,0l2.172,2.157C280.51-60.902,280.51-60.755,280.408-60.666L280.408-60.666z M277.943-63.117
				c-0.075,0.074-0.075,0.206,0,0.279l2.172,2.157c0.073,0.073,0.205,0.073,0.278,0c0.073-0.074,0.073-0.206,0-0.279l-2.173-2.171
				C278.148-63.204,278.03-63.204,277.943-63.117L277.943-63.117z"/>
			<path fill="#F3F3F3" d="M280.275-62.867c-0.087,0.074-0.221,0.074-0.294-0.015l-0.894-1.027c-0.074-0.088-0.06-0.22,0.028-0.293
				c0.088-0.073,0.221-0.073,0.295,0.015l0.895,1.027C280.379-63.087,280.363-62.955,280.275-62.867L280.275-62.867z"/>
			<path fill="#FFFFFF" d="M280.291-62.867c-0.103,0.089-0.236,0.074-0.323-0.015l-0.896-1.027c-0.087-0.088-0.074-0.235,0.03-0.322
				c0.102-0.089,0.234-0.074,0.321,0.014l0.896,1.028C280.393-63.087,280.393-62.94,280.291-62.867L280.291-62.867z M279.116-64.202
				c-0.088,0.073-0.088,0.191-0.028,0.279l0.894,1.027c0.073,0.073,0.191,0.088,0.28,0.014c0.087-0.073,0.087-0.19,0.029-0.278
				l-0.895-1.027C279.322-64.276,279.204-64.276,279.116-64.202L279.116-64.202z"/>
			<path fill="#F3F3F3" d="M282.388-62.309c-0.102,0.072-0.234,0.043-0.292-0.06l-1.718-2.538c-0.059-0.103-0.03-0.235,0.059-0.294
				c0.104-0.073,0.235-0.044,0.294,0.059l1.701,2.539C282.507-62.5,282.476-62.368,282.388-62.309L282.388-62.309z"/>
			<path fill="#FFFFFF" d="M282.388-62.295c-0.102,0.074-0.249,0.044-0.322-0.058l-1.703-2.539c-0.072-0.104-0.043-0.25,0.074-0.322
				c0.103-0.074,0.248-0.045,0.321,0.058l1.703,2.539C282.535-62.5,282.507-62.368,282.388-62.295L282.388-62.295z M280.452-65.186
				c-0.089,0.059-0.116,0.176-0.059,0.264l1.703,2.539c0.058,0.087,0.175,0.103,0.277,0.043c0.088-0.058,0.117-0.176,0.059-0.264
				l-1.702-2.524C280.672-65.215,280.54-65.244,280.452-65.186L280.452-65.186z"/>
			<path fill="#F3F3F3" d="M282.697-64.481c-0.104,0.058-0.235,0.029-0.293-0.074l-0.676-1.188
				c-0.059-0.103-0.015-0.235,0.088-0.293c0.103-0.059,0.234-0.029,0.293,0.073l0.676,1.188
				C282.828-64.672,282.8-64.54,282.697-64.481L282.697-64.481z"/>
			<path fill="#FFFFFF" d="M282.697-64.467c-0.117,0.059-0.249,0.03-0.309-0.073l-0.675-1.189c-0.059-0.103-0.029-0.25,0.088-0.308
				c0.117-0.059,0.25-0.029,0.308,0.073l0.676,1.188C282.844-64.672,282.814-64.54,282.697-64.467L282.697-64.467z M281.816-66.022
				c-0.088,0.059-0.132,0.176-0.072,0.264l0.674,1.188c0.059,0.089,0.176,0.118,0.265,0.074c0.088-0.059,0.132-0.176,0.073-0.264
				l-0.675-1.189C282.036-66.036,281.904-66.081,281.816-66.022L281.816-66.022z"/>
			<path fill="#F3F3F3" d="M284.648-63.512c-0.117,0.044-0.234,0-0.278-0.103l-1.189-2.832c-0.044-0.103,0.016-0.235,0.119-0.279
				c0.116-0.043,0.233,0,0.277,0.103l1.189,2.832C284.809-63.689,284.752-63.556,284.648-63.512L284.648-63.512z"/>
			<path fill="#FFFFFF" d="M284.648-63.498c-0.117,0.045-0.25,0-0.308-0.117l-1.188-2.832c-0.044-0.117,0.014-0.249,0.132-0.293
				c0.117-0.044,0.249,0,0.308,0.117l1.189,2.832C284.824-63.689,284.766-63.556,284.648-63.498L284.648-63.498z M283.312-66.711
				c-0.102,0.044-0.146,0.16-0.102,0.25l1.188,2.832c0.045,0.103,0.162,0.147,0.265,0.103c0.104-0.044,0.146-0.161,0.104-0.25
				l-1.189-2.832C283.518-66.711,283.416-66.756,283.312-66.711L283.312-66.711z"/>
			<path fill="#F3F3F3" d="M285.367-65.596c-0.117,0.044-0.234-0.015-0.278-0.132l-0.426-1.292
				c-0.044-0.103,0.029-0.235,0.132-0.264c0.103-0.029,0.235,0.015,0.279,0.132l0.426,1.292
				C285.544-65.758,285.485-65.64,285.367-65.596L285.367-65.596z"/>
			<path fill="#FFFFFF" d="M285.382-65.582c-0.117,0.044-0.248-0.015-0.293-0.132l-0.426-1.292c-0.044-0.117,0.029-0.25,0.146-0.293
				c0.118-0.044,0.251,0.015,0.293,0.132l0.426,1.291C285.558-65.758,285.5-65.626,285.382-65.582L285.382-65.582z M284.809-67.269
				c-0.103,0.03-0.161,0.147-0.131,0.25l0.424,1.291c0.031,0.102,0.147,0.146,0.25,0.117c0.104-0.029,0.161-0.147,0.133-0.25
				l-0.425-1.292C285.03-67.255,284.913-67.313,284.809-67.269L284.809-67.269z"/>
			<path fill="#F3F3F3" d="M287.098-64.261c-0.118,0.03-0.234-0.044-0.25-0.162l-0.615-3.008c-0.03-0.117,0.059-0.219,0.177-0.25
				c0.117-0.029,0.233,0.044,0.248,0.162l0.616,3.008C287.289-64.408,287.216-64.29,287.098-64.261L287.098-64.261z"/>
			<path fill="#FFFFFF" d="M287.098-64.247c-0.132,0.029-0.25-0.058-0.277-0.176l-0.618-3.008c-0.028-0.117,0.06-0.25,0.177-0.264
				c0.133-0.029,0.25,0.058,0.278,0.176l0.616,3.008C287.304-64.393,287.231-64.276,287.098-64.247L287.098-64.247z M286.41-67.665
				c-0.104,0.015-0.177,0.118-0.162,0.234l0.616,3.008c0.015,0.103,0.132,0.176,0.234,0.147c0.103-0.015,0.176-0.118,0.162-0.235
				l-0.617-3.008C286.615-67.621,286.512-67.68,286.41-67.665L286.41-67.665z"/>
			<path fill="#F3F3F3" d="M288.214-66.169c-0.117,0.015-0.221-0.059-0.249-0.176l-0.177-1.35c-0.015-0.118,0.074-0.22,0.191-0.235
				c0.117-0.015,0.219,0.059,0.249,0.176l0.177,1.35C288.419-66.286,288.331-66.183,288.214-66.169L288.214-66.169z"/>
			<path fill="#FFFFFF" d="M288.214-66.154c-0.132,0.015-0.249-0.074-0.263-0.191l-0.178-1.35c-0.014-0.118,0.074-0.235,0.206-0.249
				c0.131-0.015,0.249,0.073,0.265,0.191l0.175,1.349C288.434-66.286,288.345-66.169,288.214-66.154L288.214-66.154z
				 M287.993-67.915c-0.102,0.015-0.189,0.118-0.175,0.22l0.175,1.35c0.016,0.104,0.117,0.176,0.221,0.162s0.191-0.118,0.178-0.22
				l-0.178-1.349C288.2-67.856,288.096-67.93,287.993-67.915L287.993-67.915z"/>
			
				<linearGradient id="SVGID_1_" gradientUnits="userSpaceOnUse" x1="-670.4177" y1="-0.4788" x2="-670.453" y2="-0.4155" gradientTransform="matrix(229.4 0 0 229.4 154085.7344 54.9187)">
				<stop  offset="0" style="stop-color:#000000;stop-opacity:0"/>
				<stop  offset="1" style="stop-color:#000000"/>
			</linearGradient>
			<circle fill="url(#SVGID_1_)" fill-opacity="0.2" cx="289.798" cy="-51.392" r="17.374"/>
		</g>
		<path fill="#CD151E" d="M311.255-54.53l-13.853,9.845l4.108,4.08L311.255-54.53"/>
		<path fill="#FA5153" d="M297.418-44.713l2.067,2.039l11.77-11.855L297.418-44.713z"/>
		<path fill="#ACACAC" d="M297.418-44.713l4.108,4.08l-13.853,9.845L297.418-44.713z"/>
		<path fill="#EEEEEE" d="M287.674-30.788l11.812-11.886l-2.067-2.039L287.674-30.788z"/>
	</g>
</g>
</svg>
