<?xml version="1.0" encoding="utf-8"?>
<!-- Generator: Adobe Illustrator 21.0.0, SVG Export Plug-In . SVG Version: 6.00 Build 0)  -->
<svg version="1.0" id="Слой_1" xmlns="http://www.w3.org/2000/svg" xmlns:xlink="http://www.w3.org/1999/xlink" x="0px" y="0px"
	 viewBox="0 0 56.725 38.587" enable-background="new 0 0 56.725 38.587" xml:space="preserve">
<rect x="1.5" y="1.5" fill="none" stroke="#FFFFFF" stroke-width="3" stroke-linecap="round" stroke-linejoin="round" stroke-miterlimit="10" width="53.725" height="29.103"/>
<line fill="none" stroke="#FFFFFF" stroke-width="3" stroke-linecap="round" stroke-linejoin="round" stroke-miterlimit="10" x1="17.859" y1="37.087" x2="38.866" y2="37.087"/>
<g>
	<line fill="none" stroke="#FFFFFF" stroke-width="3" stroke-miterlimit="10" x1="23.009" y1="30.846" x2="23.009" y2="37.087"/>
	<line fill="none" stroke="#FFFFFF" stroke-width="3" stroke-miterlimit="10" x1="33.716" y1="30.846" x2="33.716" y2="37.087"/>
</g>
<g>
	<path fill="#FFFFFF" d="M12.603,17.308c-0.884-0.254-1.528-0.567-1.931-0.937c-0.403-0.371-0.604-0.828-0.604-1.373
		c0-0.616,0.246-1.125,0.738-1.528c0.493-0.403,1.133-0.604,1.92-0.604c0.537,0,1.016,0.104,1.437,0.312
		c0.42,0.208,0.746,0.494,0.978,0.859c0.23,0.365,0.346,0.765,0.346,1.198h-1.037c0-0.474-0.15-0.847-0.451-1.119
		c-0.301-0.271-0.725-0.407-1.273-0.407c-0.508,0-0.905,0.112-1.19,0.336c-0.284,0.224-0.427,0.535-0.427,0.934
		c0,0.319,0.135,0.589,0.405,0.81c0.271,0.221,0.73,0.422,1.381,0.605c0.649,0.183,1.158,0.385,1.525,0.604
		c0.367,0.221,0.639,0.478,0.816,0.771c0.177,0.293,0.266,0.639,0.266,1.037c0,0.634-0.247,1.142-0.741,1.522
		c-0.494,0.382-1.155,0.573-1.982,0.573c-0.537,0-1.039-0.104-1.504-0.309c-0.465-0.207-0.825-0.489-1.077-0.847
		c-0.253-0.358-0.379-0.765-0.379-1.219h1.037c0,0.473,0.174,0.846,0.524,1.12c0.349,0.273,0.815,0.411,1.399,0.411
		c0.544,0,0.961-0.111,1.251-0.333s0.435-0.524,0.435-0.908s-0.134-0.68-0.403-0.889C13.795,17.718,13.309,17.512,12.603,17.308z"/>
	<path fill="#FFFFFF" d="M18.157,12.973l2.557,6.381l2.557-6.381h1.337v7.821h-1.031v-3.046l0.097-3.287l-2.567,6.333h-0.79
		l-2.562-6.317l0.102,3.271v3.046h-1.031v-7.821H18.157z"/>
	<path fill="#FFFFFF" d="M30.844,18.747h-3.277l-0.736,2.047h-1.063l2.987-7.821h0.902l2.992,7.821H31.59L30.844,18.747z
		 M27.879,17.904h2.658l-1.332-3.658L27.879,17.904z"/>
	<path fill="#FFFFFF" d="M36.569,17.63h-1.836v3.164h-1.037v-7.821h2.589c0.881,0,1.559,0.201,2.033,0.602s0.712,0.985,0.712,1.751
		c0,0.487-0.132,0.911-0.396,1.273c-0.263,0.362-0.629,0.632-1.099,0.811l1.838,3.32v0.064h-1.107L36.569,17.63z M34.733,16.787
		h1.584c0.512,0,0.919-0.133,1.222-0.398c0.303-0.266,0.454-0.621,0.454-1.066c0-0.484-0.145-0.855-0.433-1.113
		s-0.704-0.39-1.249-0.393h-1.578V16.787z"/>
	<path fill="#FFFFFF" d="M45.447,13.816h-2.514v6.978h-1.025v-6.978H39.4v-0.843h6.047V13.816z"/>
</g>
</svg>
