<?xml version="1.0" encoding="utf-8"?>
<!-- Generator: Adobe Illustrator 16.0.0, SVG Export Plug-In . SVG Version: 6.00 Build 0)  -->
<!DOCTYPE svg PUBLIC "-//W3C//DTD SVG 1.1//EN" "http://www.w3.org/Graphics/SVG/1.1/DTD/svg11.dtd">
<svg version="1.1" id="Layer_1" xmlns="http://www.w3.org/2000/svg" xmlns:xlink="http://www.w3.org/1999/xlink" x="0px" y="0px"
	 width="36.869px" height="37.007px" viewBox="36.417 578.967 36.869 37.007" enable-background="new 36.417 578.967 36.869 37.007"
	 xml:space="preserve">
<path fill="#DE4F43" d="M54.803,578.97c0,0,10.869-0.489,16.629,10.434c-3.043,0-17.554,0-17.554,0s-3.315-0.109-6.14,3.913
	c-0.816,1.686-1.685,3.424-0.707,6.846c-1.413-2.39-7.5-12.987-7.5-12.987S43.826,579.404,54.803,578.97z"/>
<path fill="#FECD44" d="M70.867,606.704c0,0-5.012,9.656-17.352,9.182c1.521-2.635,8.778-15.2,8.778-15.2s1.752-2.816-0.317-7.275
	c-1.051-1.548-2.123-3.17-5.576-4.037c2.778-0.026,14.998,0.003,14.998,0.003S75.98,596.979,70.867,606.704z"/>
<path fill="#12A05E" d="M38.818,606.777c0,0-5.857-9.17,0.725-19.619c1.521,2.636,8.774,15.204,8.774,15.204
	s1.562,2.925,6.458,3.364c1.866-0.137,3.808-0.253,6.284-2.813c-1.366,2.421-7.502,12.989-7.502,12.989
	S44.68,616.066,38.818,606.777z"/>
<path fill="#148C4F" d="M53.515,615.974l2.469-10.304c0,0,2.715-0.212,4.99-2.708C59.561,605.447,53.515,615.974,53.515,615.974z"/>
<path fill="#FFFFFF" d="M46.533,597.585c0-4.541,3.682-8.224,8.224-8.224c4.542,0,8.224,3.681,8.224,8.224
	c0,4.542-3.682,8.225-8.224,8.225C50.216,605.81,46.533,602.127,46.533,597.585z"/>
<path fill="#5680C1" d="M47.91,597.585c0-3.781,3.065-6.847,6.847-6.847c3.781,0,6.847,3.065,6.847,6.847
	c0,3.782-3.066,6.848-6.847,6.848C50.976,604.433,47.91,601.366,47.91,597.585z"/>
<path fill="#E7A93A" d="M71.398,589.375l-10.167,2.98c0,0-1.533-2.25-4.831-2.983C59.257,589.363,71.398,589.375,71.398,589.375z"/>
<path fill="#C04739" d="M46.834,599.793c-1.429-2.475-7.301-12.618-7.301-12.618l7.531,7.451c0,0-0.773,1.591-0.48,3.866
	L46.834,599.793z"/>
</svg>
