<?xml version="1.0" encoding="utf-8"?>
<!-- Generator: Adobe Illustrator 16.0.0, SVG Export Plug-In . SVG Version: 6.00 Build 0)  -->
<!DOCTYPE svg PUBLIC "-//W3C//DTD SVG 1.0//EN" "http://www.w3.org/TR/2001/REC-SVG-20010904/DTD/svg10.dtd">
<svg version="1.0" id="Слой_1" xmlns="http://www.w3.org/2000/svg" xmlns:xlink="http://www.w3.org/1999/xlink" x="0px" y="0px"
	 width="72px" height="72px" viewBox="0 0 72 72" enable-background="new 0 0 72 72" xml:space="preserve">
<circle fill="#E65D17" cx="36" cy="36" r="36"/>
<g>
	<path fill="none" stroke="#FFFFFF" stroke-width="2" stroke-miterlimit="10" d="M42.808,52.345
		c-2.161,0.963-4.547,1.497-7.052,1.497c-9.854,0-16.677-8.25-16.677-18.425c0-10.173,8.243-17.258,16.677-17.258
		c9.854,0,17.165,6.358,17.165,16.967c0,9.029-13.963,21.722-11.055-7.078"/>
	<path fill="none" stroke="#FFFFFF" stroke-width="2" stroke-miterlimit="10" d="M41.891,40.809
		c-1.228,1.915-4.147,4.162-6.236,4.162c-3.696,0-6.692-3.82-6.692-8.533c0-4.714,2.996-8.533,6.692-8.533
		c2.427,0,4.554,1.649,5.727,4.121"/>
</g>
</svg>
