<?xml version="1.0" encoding="utf-8"?>
<!-- Generator: Adobe Illustrator 21.0.0, SVG Export Plug-In . SVG Version: 6.00 Build 0)  -->
<svg version="1.0" id="Слой_1" xmlns="http://www.w3.org/2000/svg" xmlns:xlink="http://www.w3.org/1999/xlink" x="0px" y="0px"
	 viewBox="0 0 56.725 38.587" enable-background="new 0 0 56.725 38.587" xml:space="preserve">
<path fill="none" stroke="#FFFFFF" stroke-width="3" stroke-linecap="round" stroke-linejoin="round" stroke-miterlimit="10" d="
	M27.391,32.625H3.725c-1.1,0-2-0.9-2-2V3.75c0-1.1,0.9-2,2-2h41.75c1.1,0,2,0.9,2,2v19"/>
<rect x="27.391" y="22.75" fill="none" stroke="#FFFFFF" stroke-width="3" stroke-linecap="round" stroke-linejoin="round" stroke-miterlimit="10" width="27" height="14.25"/>
<circle fill="#FFFFFF" cx="32.516" cy="29.875" r="1.625"/>
<circle fill="#FFFFFF" cx="7.016" cy="17.188" r="1.625"/>
<line fill="none" stroke="#FFFFFF" stroke-miterlimit="10" x1="11.266" y1="1.75" x2="11.266" y2="32.625"/>
<path display="none" d="M4.766,15.25c0-0.552,0.447-1,1-1l0,0c0.553,0,1,0.448,1,1v3.875c0,0.552-0.447,1-1,1l0,0
	c-0.553,0-1-0.448-1-1V15.25z"/>
</svg>
