<?xml version="1.0" encoding="utf-8"?>
<!-- Generator: Adobe Illustrator 16.0.0, SVG Export Plug-In . SVG Version: 6.00 Build 0)  -->
<!DOCTYPE svg PUBLIC "-//W3C//DTD SVG 1.1//EN" "http://www.w3.org/Graphics/SVG/1.1/DTD/svg11.dtd">
<svg version="1.1" id="Слой_1" xmlns="http://www.w3.org/2000/svg" xmlns:xlink="http://www.w3.org/1999/xlink" x="0px" y="0px"
	 width="21.235px" height="24.304px" viewBox="0 0 21.235 24.304" enable-background="new 0 0 21.235 24.304" xml:space="preserve">
<g>
	<polyline fill="none" stroke="#9095AB" stroke-width="1.5" stroke-miterlimit="10" points="3.009,5.859 3.009,0.75 13.895,0.75 
		20.485,7.253 20.485,21.507 15.87,21.507 	"/>
	<polyline fill="none" stroke="#9095AB" stroke-width="1.5" stroke-miterlimit="10" points="7.654,21.507 3.009,21.507 3.009,13.32 
			"/>
	<polyline fill="none" stroke="#9095AB" stroke-width="1.5" stroke-miterlimit="10" points="20.485,7.253 13.895,7.253 13.895,0.75 
			"/>
	<path fill="#E65D17" d="M15.944,18.846h-1.837v-4.51c0-0.127-0.104-0.232-0.232-0.232H9.694c-0.127,0-0.232,0.105-0.232,0.232v4.51
		H7.625c-0.384,0-0.495,0.24-0.249,0.533l1.531,1.819c0.247,0.293,0.651,0.772,0.897,1.066l1.531,1.819
		c0.247,0.293,0.65,0.293,0.897,0l1.531-1.819c0.246-0.294,0.65-0.773,0.896-1.066l1.531-1.819
		C16.439,19.086,16.328,18.846,15.944,18.846z"/>
	<g>
		<path fill="#E65D17" d="M2.952,8.35c-0.172,0-0.288,0.017-0.349,0.033v1.102c0.072,0.017,0.161,0.022,0.283,0.022
			c0.448,0,0.726-0.228,0.726-0.609C3.612,8.555,3.373,8.35,2.952,8.35z"/>
		<path fill="#E65D17" d="M6.215,8.36c-0.188,0-0.31,0.017-0.382,0.033v2.442c0.072,0.018,0.188,0.018,0.293,0.018
			c0.764,0.005,1.263-0.416,1.263-1.308C7.395,8.77,6.94,8.36,6.215,8.36z"/>
		<path fill="#E65D17" d="M12.251,6.447H0.639C0.288,6.447,0,6.735,0,7.087v5.051c0,0.352,0.288,0.639,0.639,0.639h11.612
			c0.352,0,0.639-0.287,0.639-0.639V7.087C12.89,6.735,12.603,6.447,12.251,6.447z M4.104,9.762
			c-0.288,0.271-0.715,0.394-1.213,0.394c-0.111,0-0.21-0.006-0.288-0.017v1.334H1.767V7.79c0.26-0.045,0.626-0.078,1.141-0.078
			c0.521,0,0.892,0.1,1.141,0.3C4.287,8.199,4.448,8.51,4.448,8.875C4.448,9.241,4.326,9.551,4.104,9.762z M7.666,11.03
			c-0.393,0.327-0.991,0.481-1.722,0.481c-0.438,0-0.748-0.027-0.958-0.056V7.79C5.295,7.74,5.7,7.712,6.126,7.712
			c0.709,0,1.168,0.128,1.529,0.398c0.388,0.289,0.631,0.748,0.631,1.407C8.287,10.232,8.026,10.725,7.666,11.03z M11.123,8.433
			H9.688v0.853h1.341v0.687H9.688v1.501H8.841V7.74h2.282V8.433z"/>
	</g>
</g>
</svg>
