<?xml version="1.0" encoding="utf-8"?>
<!-- Generator: Adobe Illustrator 16.0.0, SVG Export Plug-In . SVG Version: 6.00 Build 0)  -->
<!DOCTYPE svg PUBLIC "-//W3C//DTD SVG 1.0//EN" "http://www.w3.org/TR/2001/REC-SVG-20010904/DTD/svg10.dtd">
<svg version="1.0" id="Слой_1" xmlns="http://www.w3.org/2000/svg" xmlns:xlink="http://www.w3.org/1999/xlink" x="0px" y="0px"
	 width="72px" height="72px" viewBox="0 0 72 72" enable-background="new 0 0 72 72" xml:space="preserve">
<circle fill="#E65D17" cx="36" cy="36" r="36"/>
<g>
	<path fill="none" stroke="#FFFFFF" stroke-width="2" stroke-miterlimit="10" d="M54.884,49.518c0,0.655-0.538,1.192-1.192,1.192
		H18.308c-0.655,0-1.192-0.537-1.192-1.192v-3.182c0-0.655,0.537-1.192,1.192-1.192h35.384c0.654,0,1.192,0.537,1.192,1.192V49.518z
		"/>
	<path fill="none" stroke="#FFFFFF" stroke-width="2" stroke-miterlimit="10" d="M54.884,37.591c0,0.655-0.538,1.192-1.192,1.192
		H18.308c-0.655,0-1.192-0.537-1.192-1.192V34.41c0-0.656,0.537-1.192,1.192-1.192h35.384c0.654,0,1.192,0.536,1.192,1.192V37.591z"
		/>
	<path fill="none" stroke="#FFFFFF" stroke-width="2" stroke-miterlimit="10" d="M54.884,25.664c0,0.656-0.538,1.192-1.192,1.192
		H18.308c-0.655,0-1.192-0.536-1.192-1.192v-3.181c0-0.656,0.537-1.193,1.192-1.193h35.384c0.654,0,1.192,0.537,1.192,1.193V25.664z
		"/>
</g>
</svg>
