<?xml version="1.0" encoding="utf-8"?>
<!-- Generator: Adobe Illustrator 16.0.0, SVG Export Plug-In . SVG Version: 6.00 Build 0)  -->
<!DOCTYPE svg PUBLIC "-//W3C//DTD SVG 1.0//EN" "http://www.w3.org/TR/2001/REC-SVG-20010904/DTD/svg10.dtd">
<svg version="1.0" id="Слой_1" xmlns="http://www.w3.org/2000/svg" xmlns:xlink="http://www.w3.org/1999/xlink" x="0px" y="0px"
	 width="94.907px" height="70.547px" viewBox="0 0 94.907 70.547" enable-background="new 0 0 94.907 70.547" xml:space="preserve">
<g>
	
		<rect x="23.271" y="1.5" fill="none" stroke="#FFFFFF" stroke-width="3" stroke-linecap="round" stroke-linejoin="round" stroke-miterlimit="10" width="51.726" height="27.103"/>
	
		<line fill="none" stroke="#FFFFFF" stroke-width="3" stroke-linecap="round" stroke-linejoin="round" stroke-miterlimit="10" x1="48.38" y1="35.087" x2="59.637" y2="35.087"/>
	<g>
		
			<line display="none" fill="none" stroke="#000000" stroke-width="3" stroke-miterlimit="10" x1="43.779" y1="28.846" x2="43.779" y2="35.087"/>
		<line fill="none" stroke="#FFFFFF" stroke-width="3" stroke-miterlimit="10" x1="54.487" y1="28.846" x2="54.487" y2="35.087"/>
	</g>
	<path fill="none" stroke="#000000" stroke-linecap="round" stroke-linejoin="round" stroke-miterlimit="10" d="M65.869,16.397"/>
	
		<rect x="19.912" y="29.982" fill="none" stroke="#FFFFFF" stroke-width="3" stroke-linecap="round" stroke-linejoin="round" stroke-miterlimit="10" width="28.25" height="7.604"/>
	<g>
		
			<circle fill="#FFFFFF" stroke="#FFFFFF" stroke-linecap="round" stroke-linejoin="round" stroke-miterlimit="10" cx="24.722" cy="33.784" r="1.184"/>
		
			<circle fill="#FFFFFF" stroke="#FFFFFF" stroke-linecap="round" stroke-linejoin="round" stroke-miterlimit="10" cx="43.352" cy="33.784" r="1.184"/>
	</g>
	<g>
		<circle fill="#FFFFFF" cx="34.737" cy="33.784" r="0.51"/>
		<circle fill="#FFFFFF" cx="38.407" cy="33.784" r="0.51"/>
	</g>
	<polygon fill="none" stroke="#FFFFFF" stroke-miterlimit="10" points="54.585,15.052 50.133,17.622 45.681,20.191 45.681,15.052 
		45.681,9.911 50.133,12.481 	"/>
</g>
<g>
	<path fill="#FFFFFF" d="M8.247,56.836H0v1.157h3.421V67.5h1.398v-9.507h3.428V56.836z"/>
	<path fill="#FFFFFF" d="M13.558,67.5c0.532,0,1.016-0.066,1.45-0.197c0.435-0.133,0.806-0.329,1.113-0.59
		c0.308-0.262,0.545-0.584,0.714-0.967s0.253-0.824,0.253-1.322c0-0.298-0.042-0.584-0.125-0.857s-0.204-0.52-0.362-0.739
		c-0.159-0.22-0.354-0.41-0.586-0.571c-0.232-0.161-0.497-0.283-0.795-0.366c0.488-0.21,0.874-0.507,1.157-0.89
		s0.425-0.824,0.425-1.322s-0.079-0.926-0.237-1.281c-0.159-0.357-0.389-0.65-0.689-0.883c-0.3-0.232-0.665-0.403-1.095-0.513
		c-0.43-0.11-0.918-0.165-1.465-0.165H9.829V67.5H13.558z M13.623,62.512c0.356,0,0.664,0.046,0.923,0.136
		c0.259,0.091,0.473,0.219,0.642,0.385c0.168,0.166,0.291,0.368,0.369,0.608c0.078,0.238,0.117,0.505,0.117,0.798
		s-0.047,0.558-0.143,0.795c-0.095,0.237-0.233,0.437-0.414,0.601s-0.401,0.291-0.663,0.381c-0.261,0.09-0.56,0.135-0.896,0.135
		h-2.322v-3.838H13.623z M11.235,57.993h2.08c0.698,0,1.219,0.134,1.561,0.399s0.513,0.691,0.513,1.277
		c0,0.27-0.049,0.51-0.146,0.722c-0.098,0.213-0.235,0.392-0.414,0.538s-0.392,0.26-0.641,0.338s-0.525,0.117-0.828,0.117h-2.124
		V57.993z"/>
	<path fill="#FFFFFF" d="M21.775,62.417h-3.574v1.106h3.574V62.417z"/>
	<path fill="#FFFFFF" d="M29.575,59.575h-6.364V67.5h1.362v-6.805h3.647V67.5h1.354V59.575z"/>
	<path fill="#FFFFFF" d="M38.445,63.472c0-0.605-0.067-1.156-0.201-1.651c-0.135-0.496-0.334-0.92-0.598-1.274
		s-0.587-0.629-0.971-0.824c-0.383-0.195-0.823-0.293-1.321-0.293c-0.503,0-0.945,0.088-1.326,0.264s-0.705,0.43-0.974,0.762
		l-0.066-0.879h-1.237v10.972h1.354V66.73c0.269,0.299,0.59,0.525,0.964,0.682c0.373,0.156,0.809,0.234,1.307,0.234
		c0.488,0,0.923-0.1,1.304-0.301c0.381-0.199,0.702-0.479,0.964-0.838c0.261-0.359,0.46-0.784,0.597-1.274
		c0.137-0.491,0.205-1.026,0.205-1.608V63.472z M37.09,63.625c0,0.396-0.041,0.771-0.124,1.125s-0.213,0.662-0.389,0.926
		s-0.396,0.475-0.662,0.631c-0.267,0.156-0.583,0.234-0.949,0.234c-0.234,0-0.446-0.027-0.637-0.081s-0.361-0.128-0.513-0.224
		c-0.151-0.095-0.286-0.209-0.403-0.344s-0.22-0.279-0.308-0.436V61.67c0.088-0.156,0.19-0.301,0.308-0.436s0.252-0.25,0.403-0.348
		s0.32-0.174,0.509-0.228c0.188-0.054,0.396-0.081,0.626-0.081c0.371,0,0.691,0.077,0.96,0.231c0.269,0.153,0.49,0.362,0.666,0.626
		s0.306,0.57,0.389,0.919c0.083,0.35,0.124,0.722,0.124,1.117V63.625z"/>
	<path fill="#FFFFFF" d="M41.639,65.361v-5.786h-1.355V67.5h1.355l3.654-5.779V67.5h1.355v-7.925h-1.355L41.639,65.361z"/>
	<path fill="#FFFFFF" d="M50.947,66.291c-0.278-0.166-0.5-0.383-0.666-0.651s-0.283-0.572-0.352-0.912
		c-0.068-0.339-0.104-0.685-0.104-1.036v-0.308c0-0.342,0.035-0.683,0.104-1.021c0.068-0.34,0.186-0.645,0.355-0.916
		c0.168-0.271,0.39-0.489,0.666-0.655c0.275-0.166,0.623-0.249,1.043-0.249c0.273,0,0.521,0.046,0.744,0.14
		c0.223,0.092,0.414,0.219,0.574,0.377c0.162,0.158,0.289,0.344,0.385,0.557c0.096,0.212,0.152,0.44,0.172,0.685h1.282
		c-0.02-0.405-0.107-0.784-0.264-1.136s-0.372-0.655-0.647-0.911c-0.277-0.257-0.604-0.458-0.982-0.604s-0.799-0.22-1.264-0.22
		c-0.596,0-1.113,0.106-1.553,0.318c-0.439,0.213-0.805,0.499-1.098,0.86s-0.512,0.781-0.656,1.26s-0.216,0.984-0.216,1.517v0.308
		c0,0.532,0.071,1.037,0.216,1.516s0.363,0.898,0.656,1.26s0.66,0.648,1.102,0.861c0.441,0.212,0.961,0.318,1.557,0.318
		c0.42,0,0.816-0.072,1.189-0.216c0.375-0.144,0.703-0.337,0.986-0.579c0.283-0.241,0.512-0.521,0.684-0.842
		c0.174-0.32,0.271-0.656,0.29-1.008h-1.282c-0.02,0.221-0.082,0.424-0.187,0.612c-0.104,0.188-0.241,0.351-0.409,0.487
		c-0.17,0.137-0.363,0.244-0.583,0.322s-0.449,0.117-0.688,0.117C51.577,66.541,51.226,66.457,50.947,66.291z"/>
	<path fill="#FFFFFF" d="M62.563,59.575h-6.621v1.099h2.607V67.5h1.354v-6.826h2.659V59.575z"/>
	<path fill="#FFFFFF" d="M70.078,67.5v-0.117c-0.093-0.215-0.162-0.47-0.209-0.766c-0.047-0.295-0.069-0.577-0.069-0.846v-3.684
		c0-0.445-0.073-0.833-0.22-1.165s-0.35-0.608-0.607-0.831c-0.26-0.223-0.57-0.389-0.935-0.498c-0.364-0.11-0.761-0.165-1.19-0.165
		c-0.479,0-0.912,0.069-1.299,0.209c-0.389,0.139-0.72,0.319-0.993,0.542s-0.485,0.473-0.634,0.75
		c-0.148,0.279-0.223,0.56-0.223,0.843h1.361c0-0.166,0.042-0.325,0.125-0.476c0.083-0.152,0.199-0.285,0.348-0.399
		s0.328-0.206,0.539-0.274c0.209-0.068,0.441-0.104,0.695-0.104c0.552,0,0.969,0.141,1.252,0.422s0.426,0.658,0.426,1.131v0.623
		h-1.348c-0.543,0-1.033,0.057-1.473,0.168c-0.439,0.113-0.814,0.279-1.125,0.498c-0.31,0.221-0.547,0.492-0.713,0.817
		s-0.25,0.699-0.25,1.124c0,0.327,0.064,0.634,0.191,0.919c0.127,0.286,0.307,0.534,0.537,0.743
		c0.232,0.211,0.514,0.377,0.843,0.498c0.329,0.123,0.697,0.184,1.103,0.184c0.244,0,0.477-0.025,0.695-0.077
		c0.221-0.051,0.424-0.122,0.611-0.212c0.188-0.09,0.361-0.195,0.521-0.315c0.159-0.119,0.302-0.245,0.429-0.377
		c0.02,0.161,0.044,0.316,0.073,0.465c0.029,0.149,0.068,0.272,0.117,0.37H70.078z M65.754,66.361
		c-0.189-0.07-0.348-0.166-0.477-0.286c-0.129-0.119-0.227-0.263-0.289-0.429c-0.064-0.166-0.096-0.344-0.096-0.534
		c0-0.488,0.21-0.854,0.63-1.095c0.42-0.242,1.019-0.363,1.794-0.363h1.129v1.627c-0.074,0.15-0.176,0.297-0.305,0.439
		c-0.129,0.141-0.281,0.267-0.457,0.377c-0.176,0.109-0.371,0.199-0.586,0.268s-0.445,0.102-0.689,0.102
		C66.16,66.467,65.941,66.432,65.754,66.361z"/>
	<path fill="#FFFFFF" d="M75.645,67.5c0.474,0,0.898-0.048,1.274-0.143c0.376-0.096,0.696-0.236,0.96-0.422s0.466-0.418,0.607-0.699
		c0.142-0.28,0.213-0.609,0.213-0.984c0-0.211-0.035-0.413-0.104-0.608s-0.17-0.374-0.307-0.534
		c-0.137-0.162-0.305-0.302-0.502-0.422c-0.197-0.119-0.424-0.209-0.678-0.268c0.43-0.156,0.754-0.381,0.975-0.677
		c0.219-0.296,0.329-0.626,0.329-0.993c0-0.371-0.075-0.693-0.228-0.967c-0.15-0.273-0.368-0.498-0.651-0.677
		s-0.628-0.312-1.032-0.399c-0.406-0.088-0.859-0.132-1.363-0.132h-3.09V67.5H75.645z M75.645,64.021
		c0.566,0,0.99,0.104,1.271,0.311c0.279,0.208,0.42,0.5,0.42,0.875c0,0.381-0.141,0.677-0.42,0.887
		c-0.281,0.21-0.705,0.314-1.271,0.314h-2.241v-2.387H75.645z M73.403,60.674h1.735c1.279,0,1.92,0.383,1.92,1.15
		c0,0.742-0.635,1.113-1.904,1.113h-1.751V60.674z"/>
	<path fill="#FFFFFF" d="M85.708,67.5h1.722l-3.398-4.116l3.135-3.809h-1.641l-2.666,3.354h-0.887v-3.354H80.61V67.5h1.362v-3.377
		h0.988L85.708,67.5z"/>
	<path fill="#FFFFFF" d="M94.907,67.5v-0.117c-0.093-0.215-0.163-0.47-0.208-0.766c-0.047-0.295-0.07-0.577-0.07-0.846v-3.684
		c0-0.445-0.073-0.833-0.22-1.165s-0.349-0.608-0.608-0.831c-0.258-0.223-0.57-0.389-0.934-0.498
		c-0.363-0.11-0.76-0.165-1.189-0.165c-0.479,0-0.912,0.069-1.301,0.209c-0.389,0.139-0.719,0.319-0.992,0.542
		s-0.484,0.473-0.633,0.75c-0.15,0.279-0.225,0.56-0.225,0.843h1.363c0-0.166,0.041-0.325,0.124-0.476
		c0.083-0.152,0.198-0.285,0.348-0.399s0.329-0.206,0.538-0.274c0.211-0.068,0.442-0.104,0.696-0.104
		c0.552,0,0.97,0.141,1.253,0.422s0.424,0.658,0.424,1.131v0.623h-1.348c-0.541,0-1.032,0.057-1.472,0.168
		c-0.439,0.113-0.814,0.279-1.124,0.498c-0.311,0.221-0.549,0.492-0.715,0.817s-0.248,0.699-0.248,1.124
		c0,0.327,0.063,0.634,0.189,0.919c0.127,0.286,0.307,0.534,0.539,0.743c0.231,0.211,0.512,0.377,0.842,0.498
		c0.33,0.123,0.697,0.184,1.103,0.184c0.244,0,0.476-0.025,0.696-0.077c0.219-0.051,0.423-0.122,0.611-0.212
		c0.188-0.09,0.361-0.195,0.52-0.315c0.158-0.119,0.302-0.245,0.429-0.377c0.02,0.161,0.044,0.316,0.073,0.465
		c0.029,0.149,0.068,0.272,0.117,0.37H94.907z M90.582,66.361c-0.188-0.07-0.347-0.166-0.477-0.286
		c-0.129-0.119-0.225-0.263-0.289-0.429c-0.063-0.166-0.095-0.344-0.095-0.534c0-0.488,0.21-0.854,0.63-1.095
		c0.42-0.242,1.018-0.363,1.795-0.363h1.127v1.627c-0.072,0.15-0.174,0.297-0.303,0.439c-0.131,0.141-0.283,0.267-0.459,0.377
		c-0.176,0.109-0.371,0.199-0.586,0.268s-0.443,0.102-0.688,0.102C90.988,66.467,90.77,66.432,90.582,66.361z"/>
</g>
</svg>
