<?xml version="1.0" encoding="utf-8"?>
<!-- Generator: Adobe Illustrator 16.0.0, SVG Export Plug-In . SVG Version: 6.00 Build 0)  -->
<!DOCTYPE svg PUBLIC "-//W3C//DTD SVG 1.0//EN" "http://www.w3.org/TR/2001/REC-SVG-20010904/DTD/svg10.dtd">
<svg version="1.0" id="Слой_1" xmlns="http://www.w3.org/2000/svg" xmlns:xlink="http://www.w3.org/1999/xlink" x="0px" y="0px"
	 width="61.802px" height="67.13px" viewBox="0 0 61.802 67.13" enable-background="new 0 0 61.802 67.13" xml:space="preserve">
<g>
	
		<rect x="4.038" y="1.5" fill="none" stroke="#FFFFFF" stroke-width="3" stroke-linecap="round" stroke-linejoin="round" stroke-miterlimit="10" width="53.726" height="29.103"/>
	
		<line fill="none" stroke="#FFFFFF" stroke-width="3" stroke-linecap="round" stroke-linejoin="round" stroke-miterlimit="10" x1="20.397" y1="37.087" x2="41.404" y2="37.087"/>
	<g>
		<line fill="none" stroke="#FFFFFF" stroke-width="3" stroke-miterlimit="10" x1="25.547" y1="30.846" x2="25.547" y2="37.087"/>
		<line fill="none" stroke="#FFFFFF" stroke-width="3" stroke-miterlimit="10" x1="36.255" y1="30.846" x2="36.255" y2="37.087"/>
	</g>
	<text transform="matrix(1 0 0 1 11.9297 20.793)" fill="#FFFFFF" font-family="'Roboto-Regular'" font-size="11">SMART</text>
</g>
<g>
	<path fill="#FFFFFF" d="M5.742,65.526c-0.396,0.303-0.964,0.453-1.706,0.453c-0.347,0-0.678-0.04-0.993-0.12
		c-0.314-0.081-0.593-0.206-0.835-0.378c-0.241-0.17-0.435-0.387-0.578-0.647c-0.145-0.261-0.216-0.575-0.216-0.941H0
		c0,0.356,0.054,0.684,0.161,0.981s0.257,0.566,0.447,0.806s0.413,0.449,0.67,0.63c0.256,0.181,0.534,0.332,0.835,0.454
		c0.3,0.122,0.614,0.214,0.941,0.274C3.382,67.1,3.709,67.13,4.036,67.13c0.562,0,1.07-0.067,1.526-0.201
		c0.457-0.135,0.848-0.326,1.172-0.575c0.325-0.249,0.575-0.55,0.751-0.901s0.264-0.744,0.264-1.179
		c0-0.415-0.069-0.786-0.209-1.113c-0.139-0.327-0.352-0.622-0.637-0.886c-0.286-0.264-0.648-0.5-1.088-0.707
		s-0.962-0.396-1.567-0.568c-0.439-0.121-0.816-0.248-1.132-0.381c-0.314-0.131-0.572-0.275-0.772-0.432S1.996,59.859,1.9,59.674
		c-0.095-0.186-0.143-0.391-0.143-0.615c0-0.249,0.044-0.479,0.132-0.688s0.223-0.392,0.403-0.545
		c0.181-0.154,0.41-0.275,0.688-0.363s0.605-0.132,0.981-0.132c0.4,0,0.747,0.052,1.04,0.153c0.293,0.104,0.537,0.247,0.732,0.433
		s0.34,0.405,0.436,0.659c0.095,0.254,0.143,0.529,0.143,0.828h1.414c0-0.416-0.083-0.818-0.249-1.209s-0.409-0.734-0.729-1.033
		c-0.319-0.297-0.714-0.537-1.183-0.717c-0.469-0.182-1.003-0.271-1.604-0.271c-0.547,0-1.043,0.073-1.487,0.22
		s-0.825,0.351-1.143,0.612c-0.317,0.261-0.563,0.568-0.736,0.922c-0.173,0.354-0.26,0.738-0.26,1.154
		c0,0.414,0.081,0.783,0.242,1.105s0.392,0.609,0.691,0.86c0.301,0.252,0.664,0.474,1.092,0.667
		c0.427,0.193,0.904,0.365,1.432,0.516c0.503,0.146,0.918,0.29,1.245,0.429c0.327,0.14,0.587,0.288,0.78,0.447
		c0.192,0.159,0.327,0.333,0.402,0.523c0.076,0.19,0.114,0.41,0.114,0.659C6.336,64.811,6.138,65.224,5.742,65.526z"/>
	<path fill="#FFFFFF" d="M9.331,59.059v7.925h1.355v-5.786c0.146-0.337,0.366-0.61,0.659-0.82s0.681-0.315,1.164-0.315
		c0.259,0,0.492,0.032,0.699,0.096c0.208,0.063,0.385,0.164,0.531,0.301s0.26,0.313,0.341,0.53c0.08,0.218,0.121,0.479,0.121,0.788
		v5.207h1.362v-5.259c0.024-0.229,0.081-0.445,0.172-0.648c0.09-0.202,0.212-0.378,0.366-0.527c0.153-0.148,0.338-0.267,0.553-0.354
		s0.462-0.133,0.74-0.133c0.254,0,0.485,0.026,0.695,0.077c0.21,0.052,0.389,0.144,0.535,0.274c0.146,0.133,0.26,0.309,0.34,0.527
		c0.081,0.221,0.121,0.496,0.121,0.828v5.215h1.355v-5.207c0-0.498-0.059-0.928-0.176-1.289s-0.29-0.66-0.517-0.895
		c-0.228-0.234-0.504-0.406-0.831-0.516c-0.327-0.11-0.703-0.165-1.128-0.165c-0.576,0-1.076,0.117-1.498,0.352
		c-0.423,0.234-0.766,0.542-1.029,0.923c-0.21-0.444-0.512-0.768-0.904-0.971c-0.394-0.202-0.846-0.304-1.358-0.304
		c-0.518,0-0.971,0.091-1.359,0.271c-0.388,0.182-0.719,0.433-0.992,0.755l-0.036-0.879H9.331z"/>
	<path fill="#FFFFFF" d="M28.8,66.983v-0.117c-0.094-0.215-0.163-0.47-0.209-0.766c-0.047-0.295-0.07-0.577-0.07-0.846v-3.684
		c0-0.445-0.072-0.833-0.219-1.165s-0.35-0.608-0.608-0.831s-0.57-0.389-0.935-0.498c-0.363-0.11-0.76-0.165-1.189-0.165
		c-0.479,0-0.912,0.069-1.301,0.209c-0.388,0.139-0.719,0.319-0.992,0.542s-0.484,0.473-0.634,0.75
		c-0.148,0.279-0.223,0.56-0.223,0.843h1.362c0-0.166,0.041-0.325,0.124-0.476c0.083-0.152,0.199-0.285,0.348-0.399
		c0.149-0.114,0.329-0.206,0.539-0.274s0.441-0.104,0.696-0.104c0.551,0,0.969,0.141,1.252,0.422s0.425,0.658,0.425,1.131v0.623
		h-1.348c-0.542,0-1.033,0.057-1.473,0.168c-0.439,0.113-0.814,0.279-1.124,0.498c-0.311,0.221-0.548,0.492-0.714,0.817
		s-0.249,0.699-0.249,1.124c0,0.327,0.063,0.634,0.19,0.919c0.127,0.286,0.306,0.534,0.538,0.743
		c0.231,0.211,0.513,0.377,0.842,0.498c0.33,0.123,0.697,0.184,1.103,0.184c0.244,0,0.477-0.025,0.696-0.077
		c0.22-0.051,0.424-0.122,0.611-0.212s0.361-0.195,0.52-0.315c0.159-0.119,0.303-0.245,0.43-0.377
		c0.02,0.161,0.043,0.316,0.072,0.465c0.029,0.149,0.068,0.272,0.117,0.37H28.8z M24.474,65.845
		c-0.188-0.07-0.347-0.166-0.476-0.286c-0.13-0.119-0.226-0.263-0.289-0.429s-0.096-0.344-0.096-0.534
		c0-0.488,0.21-0.854,0.63-1.095c0.42-0.242,1.019-0.363,1.795-0.363h1.128v1.627c-0.073,0.15-0.175,0.297-0.304,0.439
		c-0.13,0.141-0.282,0.267-0.458,0.377c-0.176,0.109-0.371,0.199-0.586,0.268s-0.444,0.102-0.688,0.102
		C24.881,65.95,24.662,65.915,24.474,65.845z"/>
	<path fill="#FFFFFF" d="M34.476,59.015c-0.049-0.024-0.137-0.048-0.264-0.069c-0.127-0.022-0.239-0.033-0.337-0.033
		c-0.439,0-0.813,0.095-1.12,0.286c-0.309,0.189-0.564,0.449-0.77,0.775l-0.021-0.915h-1.318v7.925H32v-5.625
		c0.146-0.347,0.367-0.623,0.663-0.828c0.295-0.205,0.678-0.307,1.146-0.307c0.127,0,0.24,0.003,0.34,0.011
		c0.1,0.007,0.209,0.021,0.326,0.04V59.015z"/>
	<path fill="#FFFFFF" d="M36.57,57.14v1.919h-1.442v1.048h1.442v4.906c0,0.396,0.049,0.729,0.146,1
		c0.098,0.271,0.229,0.49,0.396,0.656s0.359,0.284,0.582,0.354c0.223,0.071,0.458,0.106,0.707,0.106
		c0.244,0,0.451-0.018,0.623-0.051c0.17-0.035,0.31-0.066,0.417-0.096v-1.099c-0.068,0.015-0.165,0.033-0.29,0.055
		c-0.124,0.022-0.242,0.033-0.354,0.033s-0.222-0.011-0.325-0.033c-0.105-0.021-0.199-0.067-0.279-0.136s-0.145-0.164-0.193-0.289
		c-0.049-0.124-0.074-0.289-0.074-0.494v-4.914h1.48v-1.048h-1.48V57.14H36.57z"/>
	<path fill="#FFFFFF" d="M51.987,56.319h-8.246v1.157h3.42v9.507h1.398v-9.507h3.428V56.319z"/>
	<path fill="#FFFFFF" d="M54.185,56.319h-1.53l3.948,10.664h1.244l3.955-10.664h-1.537l-3.047,8.797L54.185,56.319z"/>
</g>
</svg>
