<?xml version="1.0" encoding="utf-8"?>
<!-- Generator: Adobe Illustrator 16.0.0, SVG Export Plug-In . SVG Version: 6.00 Build 0)  -->
<!DOCTYPE svg PUBLIC "-//W3C//DTD SVG 1.0//EN" "http://www.w3.org/TR/2001/REC-SVG-20010904/DTD/svg10.dtd">
<svg version="1.0" id="Слой_1" xmlns="http://www.w3.org/2000/svg" xmlns:xlink="http://www.w3.org/1999/xlink" x="0px" y="0px"
	 width="72px" height="72px" viewBox="0 0 72 72" enable-background="new 0 0 72 72" xml:space="preserve">
<circle fill="#E65D17" cx="36" cy="36" r="36"/>
<g>
	<circle fill="none" stroke="#FFFFFF" stroke-width="2" stroke-miterlimit="10" cx="35.999" cy="31.221" r="3"/>
	<g>
		<path fill="none" stroke="#FFFFFF" stroke-width="2" stroke-linecap="round" stroke-miterlimit="10" d="M22.654,43.714
			c-3.061-3.27-4.934-7.663-4.934-12.493c0-5.175,2.151-9.849,5.61-13.175"/>
		<path fill="none" stroke="#FFFFFF" stroke-width="2" stroke-linecap="round" stroke-miterlimit="10" d="M48.926,18.297
			c3.307,3.309,5.354,7.876,5.354,12.924c0,5.189-2.162,9.873-5.634,13.201"/>
		<path fill="none" stroke="#FFFFFF" stroke-width="2" stroke-linecap="round" stroke-miterlimit="10" d="M44.139,23.083
			c2.083,2.083,3.371,4.961,3.371,8.138c0,3.27-1.362,6.222-3.552,8.316"/>
		<path fill="none" stroke="#FFFFFF" stroke-width="2" stroke-linecap="round" stroke-miterlimit="10" d="M27.54,39.029
			c-1.894-2.053-3.051-4.796-3.051-7.808c0-3.257,1.354-6.198,3.529-8.292"/>
	</g>
	
		<line fill="none" stroke="#FFFFFF" stroke-width="2" stroke-linecap="round" stroke-miterlimit="10" x1="36" y1="34.223" x2="36" y2="47.817"/>
	
		<rect x="21.91" y="47.817" fill="none" stroke="#FFFFFF" stroke-width="2" stroke-linecap="round" stroke-miterlimit="10" width="28.179" height="6.136"/>
</g>
</svg>
