<?xml version="1.0" encoding="utf-8"?>
<!-- Generator: Adobe Illustrator 16.0.0, SVG Export Plug-In . SVG Version: 6.00 Build 0)  -->
<!DOCTYPE svg PUBLIC "-//W3C//DTD SVG 1.1//EN" "http://www.w3.org/Graphics/SVG/1.1/DTD/svg11.dtd">
<svg version="1.1" id="Слой_1" xmlns="http://www.w3.org/2000/svg" xmlns:xlink="http://www.w3.org/1999/xlink" x="0px" y="0px"
	 width="35.75px" height="35.75px" viewBox="0 0 253.75 253.75" enable-background="new 0 0 253.75 253.75" xml:space="preserve">
<path fill="#3B5998" d="M126.813,253.75h0.124c70.037,0,126.813-56.777,126.813-126.813v-0.063C253.75,56.803,196.946,0,126.875,0
	l0,0C56.804,0,0,56.803,0,126.874v0.063C0,196.973,56.776,253.75,126.813,253.75z"/>
<path id="facebook_3_" fill="#FFFFFF" d="M138.811,207.396v-70.322h23.605l3.534-27.406h-27.14V92.17
	c0-7.935,2.203-13.343,13.582-13.343l14.514-0.007V54.308c-2.511-0.332-11.126-1.078-21.148-1.078
	c-20.924,0-35.248,12.771-35.248,36.227v20.211H86.844v27.406h23.666v70.322H138.811z"/>
</svg>
