<?xml version="1.0" encoding="utf-8"?>
<!-- Generator: Adobe Illustrator 16.0.0, SVG Export Plug-In . SVG Version: 6.00 Build 0)  -->
<!DOCTYPE svg PUBLIC "-//W3C//DTD SVG 1.1//EN" "http://www.w3.org/Graphics/SVG/1.1/DTD/svg11.dtd">
<svg version="1.1" id="Слой_1" xmlns="http://www.w3.org/2000/svg" xmlns:xlink="http://www.w3.org/1999/xlink" x="0px" y="0px"
	 width="35.75px" height="35.75px" viewBox="0 0 253.75 253.75" enable-background="new 0 0 253.75 253.75" xml:space="preserve">
<path fill="#E43F21" d="M126.813,253.75h0.124c70.037,0,126.813-56.777,126.813-126.813v-0.063C253.75,56.803,196.946,0,126.875,0
	l0,0C56.804,0,0,56.803,0,126.874v0.063C0,196.973,56.776,253.75,126.813,253.75z"/>
<g id="g_x2B__3_">
	<polygon fill-rule="evenodd" clip-rule="evenodd" fill="#FFFFFF" points="186.903,119.718 186.903,102.604 174.701,102.604 
		174.701,119.718 157.588,119.718 157.588,131.92 174.701,131.92 174.701,149.032 186.903,149.032 186.903,131.92 204.017,131.92 
		204.017,119.718 	"/>
	<path fill-rule="evenodd" clip-rule="evenodd" fill="#FFFFFF" d="M98.808,118.422l0.001,19.567h26.216
		c-0.811,4.113-2.457,7.886-5.375,11.069c-10.51,11.471-30.102,11.354-41.316-0.19c-11.215-11.544-11.092-30.158,0.274-41.55
		c10.811-10.833,28.228-11.299,38.758-0.999l-0.021,0.022l14.29-14.29c-19.139-17.414-48.666-17.146-67.304,1.245
		c-19.28,19.022-19.488,50.108-0.466,69.388c19.022,19.28,52.004,19.472,69.83,0.318c10.76-11.562,13.855-28.143,11.289-44.581
		H98.808z"/>
</g>
</svg>
