<?xml version="1.0" encoding="utf-8"?>
<!-- Generator: Adobe Illustrator 16.0.0, SVG Export Plug-In . SVG Version: 6.00 Build 0)  -->
<!DOCTYPE svg PUBLIC "-//W3C//DTD SVG 1.1//EN" "http://www.w3.org/Graphics/SVG/1.1/DTD/svg11.dtd">
<svg version="1.1" id="Слой_1" xmlns="http://www.w3.org/2000/svg" xmlns:xlink="http://www.w3.org/1999/xlink" x="0px" y="0px"
	 width="35.75px" height="35.688px" viewBox="0 0 253.75 253.688" enable-background="new 0 0 253.75 253.688"
	 xml:space="preserve">
<path fill="#00B0EA" d="M127.319,253.31h0.124c70.038,0,126.814-56.775,126.814-126.813v-0.001
	c0-70.071-56.804-126.874-126.875-126.874l0,0C57.31-0.378,0.506,56.424,0.506,126.496v0.001
	C0.506,196.534,57.283,253.31,127.319,253.31z"/>
<path fill="#FFFFFF" d="M195.976,130.686c0,35.741-28.974,64.716-64.715,64.716c-35.741,0-64.715-28.975-64.715-64.716
	c0-9.72,2.146-18.937,5.986-27.209l53.4,53.4l41.956,9.144l-9.486-41.615l-53.039-53.04c7.931-3.468,16.688-5.396,25.897-5.396
	C167.002,65.971,195.976,94.944,195.976,130.686z M105.363,71.366L91.527,57.53c-13.696,7.455-25.063,18.646-32.74,32.201
	l13.745,13.746C79.172,89.168,90.885,77.696,105.363,71.366z M159.365,141.819c-0.882-3.72-2.717-11.316-3.551-14.758
	c-11.784,5.792-21.334,15.438-26.991,27.299l14.92,3.182C147.513,151.054,152.905,145.628,159.365,141.819z"/>
</svg>
