<?xml version="1.0" encoding="utf-8"?>
<!-- Generator: Adobe Illustrator 16.0.0, SVG Export Plug-In . SVG Version: 6.00 Build 0)  -->
<!DOCTYPE svg PUBLIC "-//W3C//DTD SVG 1.1//EN" "http://www.w3.org/Graphics/SVG/1.1/DTD/svg11.dtd">
<svg version="1.1" id="Слой_1" xmlns="http://www.w3.org/2000/svg" xmlns:xlink="http://www.w3.org/1999/xlink" x="0px" y="0px"
	 width="35.75px" height="35.688px" viewBox="0 0 253.75 253.688" enable-background="new 0 0 253.75 253.688"
	 xml:space="preserve">
<path fill="#EE8208" d="M126.813,253.688h0.124c70.037,0,126.813-56.775,126.813-126.813v-0.001C253.75,56.803,196.946,0,126.875,0
	l0,0C56.804,0,0,56.803,0,126.874v0.001C0,196.912,56.776,253.688,126.813,253.688z"/>
<g id="ok_3_">
	<path fill="#FFFFFF" d="M126.375,130.572c19.676,0,35.67-15.994,35.67-35.658c0-19.674-15.994-35.674-35.67-35.674
		c-19.671,0-35.669,16-35.669,35.674C90.706,114.578,106.704,130.572,126.375,130.572z M126.375,80.144
		c8.146,0,14.77,6.625,14.77,14.771c0,8.137-6.623,14.763-14.77,14.763c-8.136,0-14.769-6.626-14.769-14.763
		C111.606,86.769,118.239,80.144,126.375,80.144z"/>
	<path fill="#FFFFFF" d="M140.807,159.671c7.262-1.655,14.264-4.526,20.714-8.578c4.881-3.076,6.353-9.53,3.276-14.411
		c-3.073-4.891-9.521-6.362-14.411-3.286c-14.61,9.189-33.422,9.185-48.025,0c-4.89-3.076-11.338-1.604-14.406,3.286
		c-3.076,4.886-1.609,11.335,3.272,14.411c6.448,4.047,13.452,6.923,20.713,8.578l-19.942,19.942
		c-4.077,4.08-4.077,10.696,0.004,14.777c2.043,2.038,4.715,3.06,7.387,3.06c2.676,0,5.353-1.021,7.395-3.06l19.587-19.597
		l19.604,19.597c4.077,4.081,10.692,4.081,14.774,0c4.084-4.081,4.084-10.701,0-14.777L140.807,159.671z"/>
</g>
</svg>
