<?xml version="1.0" encoding="utf-8"?>
<!-- Generator: Adobe Illustrator 16.0.0, SVG Export Plug-In . SVG Version: 6.00 Build 0)  -->
<!DOCTYPE svg PUBLIC "-//W3C//DTD SVG 1.1//EN" "http://www.w3.org/Graphics/SVG/1.1/DTD/svg11.dtd">
<svg version="1.1" id="Слой_1" xmlns="http://www.w3.org/2000/svg" xmlns:xlink="http://www.w3.org/1999/xlink" x="0px" y="0px"
	 width="35.75px" height="35.75px" viewBox="0 0 253.75 253.75" enable-background="new 0 0 253.75 253.75" xml:space="preserve">
<path fill="#00ADEE" d="M126.813,253.75h0.124c70.037,0,126.813-56.777,126.813-126.813v-0.063C253.75,56.803,196.946,0,126.875,0
	l0,0C56.804,0,0,56.803,0,126.874v0.063C0,196.973,56.776,253.75,126.813,253.75z"/>
<path id="twitter_3_" fill="#FFFFFF" d="M201.012,84.977c-5.133,2.276-10.65,3.816-16.44,4.509
	c5.909-3.544,10.448-9.151,12.586-15.838c-5.531,3.282-11.657,5.663-18.177,6.947c-5.222-5.564-12.662-9.039-20.895-9.039
	c-15.809,0-28.625,12.816-28.625,28.624c0,2.244,0.253,4.428,0.741,6.521c-23.79-1.191-44.882-12.588-59-29.906
	c-2.464,4.227-3.876,9.144-3.876,14.39c0,9.931,5.054,18.694,12.734,23.826c-4.692-0.149-9.106-1.435-12.965-3.581
	c-0.002,0.12-0.002,0.241-0.002,0.361c0,13.868,9.867,25.438,22.961,28.067c-2.402,0.654-4.932,1.004-7.541,1.004
	c-1.844,0-3.638-0.179-5.386-0.513c3.643,11.371,14.214,19.648,26.74,19.877c-9.795,7.68-22.139,12.256-35.549,12.256
	c-2.312,0-4.59-0.137-6.83-0.402c12.668,8.125,27.715,12.863,43.879,12.863c52.651,0,81.444-43.619,81.444-81.445
	c0-1.24-0.028-2.474-0.083-3.702C192.321,95.759,197.174,90.718,201.012,84.977z"/>
</svg>
