<?xml version="1.0" encoding="utf-8"?>
<!-- Generator: Adobe Illustrator 16.0.0, SVG Export Plug-In . SVG Version: 6.00 Build 0)  -->
<!DOCTYPE svg PUBLIC "-//W3C//DTD SVG 1.1//EN" "http://www.w3.org/Graphics/SVG/1.1/DTD/svg11.dtd">
<svg version="1.1" id="Слой_1" xmlns="http://www.w3.org/2000/svg" xmlns:xlink="http://www.w3.org/1999/xlink" x="0px" y="0px"
	 width="35.75px" height="35.75px" viewBox="0 0 253.75 253.75" enable-background="new 0 0 253.75 253.75" xml:space="preserve">
<path fill="#507299" d="M126.813,253.75h0.123c70.037,0,126.813-56.777,126.813-126.813v-0.063C253.75,56.803,196.946,0,126.875,0
	l0,0C56.804,0,0,56.803,0,126.874v0.063C0,196.973,56.776,253.75,126.813,253.75z"/>
<path id="vk_x5F_alt_3_" fill-rule="evenodd" clip-rule="evenodd" fill="#FFFFFF" d="M122.15,176.828h9.618
	c0,0,2.904-0.32,4.389-1.919c1.365-1.468,1.322-4.225,1.322-4.225s-0.188-12.904,5.801-14.807
	c5.905-1.872,13.488,12.474,21.523,17.991c6.078,4.173,10.695,3.26,10.695,3.26l21.49-0.301c0,0,11.241-0.694,5.91-9.531
	c-0.438-0.723-3.105-6.538-15.979-18.487c-13.477-12.506-11.669-10.483,4.562-32.118c9.886-13.175,13.837-21.217,12.603-24.661
	c-1.177-3.282-8.448-2.416-8.448-2.416l-24.195,0.151c0,0-1.794-0.244-3.124,0.551c-1.301,0.778-2.135,2.596-2.135,2.596
	s-3.831,10.194-8.937,18.865c-10.774,18.294-15.083,19.263-16.844,18.126c-4.098-2.649-3.073-10.636-3.073-16.312
	c0-17.731,2.689-25.124-5.237-27.037c-2.63-0.635-4.567-1.053-11.294-1.123c-8.633-0.087-15.939,0.027-20.077,2.055
	c-2.752,1.348-4.876,4.352-3.583,4.524c1.6,0.211,5.22,0.977,7.141,3.589c2.48,3.373,2.394,10.949,2.394,10.949
	s1.425,20.871-3.328,23.463c-3.261,1.778-7.735-1.852-17.341-18.451c-4.921-8.501-8.637-17.898-8.637-17.898
	s-0.716-1.757-1.994-2.697c-1.55-1.139-3.717-1.5-3.717-1.5l-22.993,0.149c0,0-3.45,0.097-4.718,1.599
	c-1.128,1.335-0.09,4.096-0.09,4.096s18,42.113,38.382,63.336C100.928,178.104,122.15,176.828,122.15,176.828L122.15,176.828
	L122.15,176.828z"/>
</svg>
