<?xml version="1.0" encoding="utf-8"?>
<!-- Generator: Adobe Illustrator 16.0.0, SVG Export Plug-In . SVG Version: 6.00 Build 0)  -->
<!DOCTYPE svg PUBLIC "-//W3C//DTD SVG 1.0//EN" "http://www.w3.org/TR/2001/REC-SVG-20010904/DTD/svg10.dtd">
<svg version="1.0" id="Слой_1" xmlns="http://www.w3.org/2000/svg" xmlns:xlink="http://www.w3.org/1999/xlink" x="0px" y="0px"
	 width="389.168px" height="231.25px" viewBox="0 0 389.168 231.25" enable-background="new 0 0 389.168 231.25"
	 xml:space="preserve">
<path fill="#FFFFFF" d="M273.848,46.745c-0.076-1.097-1.039-1.995-2.139-1.995h-32.01C239.496,20.041,219.34,0,194.584,0
	s-44.912,20.041-45.115,44.75h-31.26c-1.1,0-2.063,0.898-2.139,1.995l-12.722,182.51c-0.077,1.098,0.761,1.995,1.861,1.995h179.5
	c1.1,0,1.938-0.897,1.861-1.995L273.848,46.745z M194.584,5c21.999,0,39.912,17.798,40.115,39.75h-80.23
	C154.671,22.798,172.585,5,194.584,5z M152.959,67.583c-4.004,0-7.25-3.246-7.25-7.25c0-3.005,1.83-5.584,4.435-6.683l0.219,2.388
	c0.119,1.297,1.209,2.272,2.487,2.272c0.076,0,0.153-0.003,0.231-0.01c1.375-0.126,2.387-1.343,2.262-2.718l-0.198-2.162
	c2.936,0.927,5.064,3.671,5.064,6.913C160.209,64.337,156.963,67.583,152.959,67.583z M236.959,67.583
	c-4.004,0-7.25-3.246-7.25-7.25c0-3.178,2.049-5.873,4.896-6.851l-0.192,2.1c-0.126,1.375,0.887,2.592,2.262,2.718
	c0.077,0.007,0.154,0.01,0.23,0.01c1.277,0,2.367-0.975,2.486-2.272l0.224-2.446c2.689,1.061,4.595,3.676,4.595,6.741
	C244.209,64.337,240.963,67.583,236.959,67.583z M108.412,70.322H95.583c-0.142-17.32-14.272-31.369-31.625-31.369
	c-17.354,0-31.483,14.049-31.625,31.369H10.421c-0.771,0-1.446,0.629-1.499,1.398L0.003,199.657
	c-0.053,0.769,0.534,1.398,1.305,1.398h97.991L108.412,70.322z M63.959,42.458c15.421,0,27.978,12.476,28.12,27.864h-56.24
	C35.981,54.934,48.538,42.458,63.959,42.458z M34.78,86.328c-2.807,0-5.082-2.275-5.082-5.082c0-2.107,1.282-3.914,3.108-4.685
	l0.153,1.673c0.084,0.91,0.848,1.593,1.744,1.593c0.053,0,0.107-0.002,0.162-0.007c0.964-0.088,1.674-0.941,1.586-1.905L36.313,76.4
	c2.058,0.65,3.55,2.574,3.55,4.846C39.862,84.053,37.587,86.328,34.78,86.328z M93.663,86.328c-2.807,0-5.082-2.275-5.082-5.082
	c0-2.228,1.436-4.117,3.431-4.803l-0.135,1.472c-0.087,0.964,0.622,1.816,1.586,1.905c0.054,0.005,0.108,0.007,0.162,0.007
	c0.896,0,1.66-0.683,1.743-1.593l0.157-1.714c1.885,0.743,3.221,2.577,3.221,4.726C98.745,84.053,96.469,86.328,93.663,86.328z
	 M289.869,201.056h97.99c0.771,0,1.358-0.63,1.305-1.398l-8.918-127.937c-0.053-0.769-0.729-1.398-1.499-1.398h-21.913
	c-0.142-17.32-14.271-31.369-31.625-31.369c-17.353,0-31.482,14.049-31.625,31.369h-12.828L289.869,201.056z M353.33,70.322h-56.24
	c0.142-15.388,12.698-27.864,28.119-27.864S353.188,54.934,353.33,70.322z M349.306,81.246c0-2.272,1.492-4.196,3.55-4.846
	l-0.139,1.516c-0.088,0.964,0.622,1.816,1.586,1.905c0.055,0.005,0.108,0.007,0.162,0.007c0.896,0,1.659-0.683,1.743-1.593
	l0.153-1.673c1.826,0.771,3.108,2.578,3.108,4.685c0,2.807-2.275,5.082-5.082,5.082S349.306,84.053,349.306,81.246z M290.424,81.246
	c0-2.149,1.335-3.982,3.221-4.726l0.156,1.714c0.083,0.91,0.848,1.593,1.742,1.593c0.054,0,0.108-0.002,0.162-0.007
	c0.964-0.088,1.674-0.941,1.586-1.905l-0.135-1.472c1.994,0.686,3.431,2.575,3.431,4.803c0,2.807-2.274,5.082-5.081,5.082
	S290.424,84.053,290.424,81.246z"/>
<path fill="#EC6608" d="M91.403,119.149c-0.522-1-1.628-1.546-2.742-1.364c-5.401,0.88-21.69,5.318-35.545,27.442
	c0,0-22.641,5.531-23.913,7.951c-1.273,2.42,0.314,4.148,0.314,4.148s38.168,1.037,40.589,0s7.581-16.824,15.026-19.647
	c0,0,2.951,20.224,3.815,20.108s3.183,0,3.183,0s-1.351-12.906,0.93-18.438C95.18,134.214,95.034,126.096,91.403,119.149z
	 M85.432,122.17c-3.73,2.942-12.642,10.211-16.182,15.227c-3.588,5.08-8.617,6.344-10.559,6.648
	c-0.354,0.057-0.623-0.313-0.463-0.633c1.666-3.328,9.498-17.145,26.803-22.019C85.498,121.262,85.813,121.87,85.432,122.17z"/>
<path fill="#EC6608" d="M310.825,169.736h-5.361v-3.531h5.361V169.736z M347.468,166.205h-5.361v3.531h5.361V166.205z
	 M349.882,116.603v47.637H303.05v-47.637H349.882z M341.393,140.377c0-8.242-6.684-14.926-14.927-14.926
	s-14.926,6.684-14.926,14.926c0,8.242,6.683,14.926,14.926,14.926S341.393,148.619,341.393,140.377z M303.05,114.369V102.75h46.832
	v11.619h-31.877v-5.899h-11.917v5.899H303.05z M336.923,108.768c0,1.547,1.253,2.8,2.8,2.8c1.548,0,2.801-1.253,2.801-2.8
	c0-1.546-1.253-2.801-2.801-2.801C338.176,105.967,336.923,107.222,336.923,108.768z M326.645,108.768c0,1.547,1.254,2.8,2.8,2.8
	s2.801-1.253,2.801-2.8c0-1.546-1.255-2.801-2.801-2.801S326.645,107.222,326.645,108.768z M334.822,142.612
	c-2.089,0-2.089-2.146-4.178-2.146c-2.091,0-2.091,2.146-4.18,2.146s-2.089-2.146-4.179-2.146c-2.089,0-2.089,2.146-4.178,2.146
	c-1.851,0-2.063-1.683-3.539-2.068c0.091,6.495,5.382,11.731,11.896,11.731s11.806-5.236,11.896-11.731
	C336.885,140.93,336.673,142.612,334.822,142.612z"/>
</svg>
