<?xml version="1.0" encoding="utf-8"?>
<!-- Generator: Adobe Illustrator 16.0.0, SVG Export Plug-In . SVG Version: 6.00 Build 0)  -->
<!DOCTYPE svg PUBLIC "-//W3C//DTD SVG 1.0//EN" "http://www.w3.org/TR/2001/REC-SVG-20010904/DTD/svg10.dtd">
<svg version="1.0" id="Слой_1" xmlns="http://www.w3.org/2000/svg" xmlns:xlink="http://www.w3.org/1999/xlink" x="0px" y="0px"
	 width="43.767px" height="48.146px" viewBox="0 0 43.767 48.146" enable-background="new 0 0 43.767 48.146" xml:space="preserve">
<path fill="#EC6608" d="M1.092,40.484h7.66v6.565c0,0.321,0.103,0.582,0.309,0.788c0.206,0.202,0.467,0.308,0.786,0.308h5.71
	c0.294,0,0.553-0.104,0.768-0.308c0.218-0.206,0.327-0.467,0.327-0.788v-6.565h17.265c0.319,0,0.583-0.101,0.788-0.308
	c0.204-0.205,0.307-0.469,0.307-0.787v-4.376c0-0.319-0.103-0.581-0.307-0.786c-0.203-0.204-0.469-0.309-0.788-0.309H16.65v-4.037
	h11.627c4.559,0,8.278-1.387,11.162-4.17c2.887-2.777,4.328-6.368,4.328-10.771c0-4.398-1.441-7.987-4.328-10.773
	C36.558,1.394,32.834,0,28.277,0H9.848C9.529,0,9.266,0.102,9.061,0.308C8.855,0.515,8.753,0.774,8.753,1.096v21.506H1.092
	c-0.319,0-0.581,0.111-0.786,0.326C0.101,23.142,0,23.399,0,23.695v5.093c0,0.323,0.101,0.581,0.306,0.788
	c0.206,0.204,0.467,0.306,0.787,0.306h7.66v4.038H1.092c-0.319,0-0.581,0.104-0.786,0.308C0.101,34.433,0,34.696,0,35.014v4.376
	c0,0.318,0.101,0.582,0.306,0.787C0.512,40.385,0.773,40.484,1.092,40.484 M16.65,7.284h10.943c2.417,0,4.365,0.705,5.847,2.118
	c1.483,1.413,2.224,3.262,2.224,5.54c0,2.28-0.74,4.128-2.224,5.538c-1.481,1.416-3.43,2.12-5.847,2.12H16.65V7.284z"/>
</svg>
