<?xml version="1.0" encoding="utf-8"?>
<!-- Generator: Adobe Illustrator 16.0.0, SVG Export Plug-In . SVG Version: 6.00 Build 0)  -->
<!DOCTYPE svg PUBLIC "-//W3C//DTD SVG 1.0//EN" "http://www.w3.org/TR/2001/REC-SVG-20010904/DTD/svg10.dtd">
<svg version="1.0" id="Слой_1" xmlns="http://www.w3.org/2000/svg" xmlns:xlink="http://www.w3.org/1999/xlink" x="0px" y="0px"
	 width="110.753px" height="111.984px" viewBox="0 0 110.753 111.984" enable-background="new 0 0 110.753 111.984"
	 xml:space="preserve">
<g>
	<path fill="#EC6608" d="M109.332,44.083c-0.286-1.242-1.528-2.016-2.768-1.729c-1.242,0.287-2.016,1.526-1.729,2.768
		c0.864,3.743,1.304,7.606,1.304,11.483c0,27.991-22.771,50.764-50.763,50.764c-12.837,0-25.176-4.893-34.522-13.556l12.851-1.351
		c1.268-0.132,2.187-1.27,2.054-2.536c-0.133-1.268-1.263-2.183-2.536-2.054L15.61,89.724c-0.012,0.003-0.024,0.008-0.036,0.01
		c-0.073,0.008-0.144,0.026-0.217,0.042c-0.057,0.015-0.117,0.021-0.173,0.038c-0.019,0.005-0.037,0.01-0.056,0.017
		c-0.063,0.021-0.123,0.052-0.184,0.079c-0.059,0.024-0.122,0.046-0.178,0.078c-0.019,0.01-0.037,0.017-0.055,0.026
		c-0.05,0.03-0.096,0.068-0.145,0.101c-0.058,0.038-0.118,0.075-0.171,0.12c-0.019,0.014-0.038,0.031-0.057,0.048
		c-0.009,0.007-0.019,0.013-0.027,0.021c-0.036,0.031-0.062,0.067-0.095,0.102c-0.046,0.047-0.094,0.091-0.136,0.139
		c-0.018,0.022-0.034,0.044-0.051,0.068c-0.039,0.049-0.071,0.103-0.105,0.157c-0.031,0.048-0.066,0.092-0.093,0.141
		c-0.014,0.026-0.026,0.054-0.039,0.081c-0.029,0.056-0.051,0.117-0.075,0.176c-0.021,0.051-0.046,0.102-0.063,0.153
		c-0.009,0.029-0.016,0.059-0.023,0.087c-0.017,0.062-0.027,0.125-0.039,0.188c-0.011,0.056-0.025,0.11-0.032,0.169
		c-0.003,0.026-0.004,0.054-0.007,0.082c-0.005,0.071-0.001,0.142,0,0.212c0.001,0.05-0.007,0.094-0.003,0.143l1.376,17.656
		c0.095,1.21,1.105,2.127,2.298,2.127c0.06,0,0.121-0.003,0.182-0.005c1.27-0.101,2.22-1.211,2.12-2.481l-0.895-11.469
		c10.078,8.932,23.154,13.955,36.743,13.955c30.535,0,55.376-24.841,55.376-55.377C110.755,52.377,110.276,48.165,109.332,44.083z"
		/>
	<path fill="#EC6608" d="M4.615,56.605c0-27.989,22.772-50.761,50.762-50.761c12.147,0,23.563,4.199,32.69,11.92l-11.961,0.06
		c-1.274,0.006-2.302,1.044-2.296,2.319c0.006,1.271,1.038,2.296,2.306,2.296c0.004,0,0.008,0,0.013,0l17.709-0.087
		c1.199-0.006,2.167-0.929,2.275-2.099c0.006-0.061,0.018-0.12,0.019-0.18c0-0.004,0.001-0.007,0.001-0.01l0.391-17.705
		C96.553,1.084,95.542,0.029,94.268,0c-0.019,0-0.036,0-0.052,0c-1.25,0-2.279,1-2.307,2.257l-0.274,12.487
		C81.581,5.995,68.895,1.229,55.377,1.229C24.842,1.229,0,26.071,0,56.605c0,3.847,0.397,7.69,1.181,11.426
		c0.228,1.086,1.187,1.834,2.256,1.834c0.157,0,0.316-0.017,0.477-0.05c1.247-0.262,2.046-1.484,1.784-2.73
		C4.979,63.659,4.615,60.133,4.615,56.605z"/>
</g>
</svg>
