<?xml version="1.0" encoding="utf-8"?>
<!-- Generator: Adobe Illustrator 16.0.0, SVG Export Plug-In . SVG Version: 6.00 Build 0)  -->
<!DOCTYPE svg PUBLIC "-//W3C//DTD SVG 1.0//EN" "http://www.w3.org/TR/2001/REC-SVG-20010904/DTD/svg10.dtd">
<svg version="1.0" id="Слой_1" xmlns="http://www.w3.org/2000/svg" xmlns:xlink="http://www.w3.org/1999/xlink" x="0px" y="0px"
	 width="514.263px" height="177.849px" viewBox="0 0 514.263 177.849" enable-background="new 0 0 514.263 177.849"
	 xml:space="preserve">
<path fill="#FFFFFF" d="M31.219,12.36c0-3.6-1.201-6.459-3.6-8.58c-2.4-2.12-5.637-3.18-9.711-3.18H0.605v42.72h18.03
	c4.033,0,7.24-1.1,9.62-3.3c2.379-2.2,3.57-5.18,3.57-8.94c0-3.039-0.888-5.499-2.662-7.38c-0.807-0.8-1.896-1.56-3.267-2.28
	C29.444,19.46,31.219,16.44,31.219,12.36L31.219,12.36z M9.015,8.04h8.228c1.734,0,3.095,0.441,4.084,1.32
	c0.988,0.88,1.482,2.08,1.482,3.6c0,1.521-0.494,2.72-1.482,3.6c-0.989,0.88-2.35,1.32-4.084,1.32H9.015V8.04z M9.015,25.38h8.773
	c1.734,0,3.105,0.471,4.114,1.41c1.008,0.94,1.512,2.211,1.512,3.81c0,1.601-0.505,2.88-1.512,3.84
	c-1.009,0.96-2.38,1.44-4.114,1.44H9.015V25.38z"/>
<path fill="#FFFFFF" d="M64.344,20.28c-0.545-1.8-1.463-3.38-2.753-4.74c-2.461-2.559-5.728-3.84-9.802-3.84
	c-4.034,0-7.281,1.281-9.741,3.84c-1.292,1.401-2.208,3-2.753,4.8c-0.545,1.8-0.817,4.24-0.817,7.32c0,3.12,0.262,5.59,0.786,7.41
	c0.524,1.821,1.452,3.411,2.783,4.77c2.46,2.56,5.707,3.84,9.741,3.84c4.073,0,7.341-1.28,9.802-3.84
	c1.331-1.359,2.259-2.949,2.783-4.77c0.524-1.82,0.787-4.33,0.787-7.53C65.16,24.5,64.888,22.08,64.344,20.28z M57.235,30.18
	c-0.041,0.681-0.162,1.47-0.363,2.37c-0.202,0.9-0.484,1.62-0.847,2.16s-0.907,1-1.634,1.38c-0.726,0.38-1.594,0.57-2.602,0.57
	c-1.896,0-3.277-0.669-4.144-2.01c-0.868-1.34-1.301-3.51-1.301-6.51c0-1.08,0.01-1.939,0.03-2.58c0.02-0.64,0.13-1.45,0.333-2.43
	c0.201-0.98,0.484-1.75,0.847-2.31c0.363-0.56,0.897-1.05,1.603-1.47c0.705-0.42,1.583-0.63,2.632-0.63
	c1.25,0,2.269,0.261,3.055,0.78c0.787,0.52,1.341,1.27,1.664,2.25c0.323,0.98,0.534,1.9,0.635,2.76
	c0.1,0.861,0.151,1.911,0.151,3.15C57.295,28.66,57.274,29.5,57.235,30.18z"/>
<path fill="#FFFFFF" d="M92.599,29.7c-0.868-1.28-2.027-2.22-3.479-2.82c1.29-0.6,2.329-1.5,3.116-2.7
	c0.787-1.2,1.18-2.54,1.18-4.02c0-2.64-1.119-4.71-3.358-6.21s-4.952-2.25-8.138-2.25c-5.406,0-9.66,1.221-12.766,3.66l4.356,4.8
	c2.057-1.44,4.335-2.16,6.837-2.16c3.549,0,5.324,1.06,5.324,3.18c0,1.041-0.384,1.871-1.149,2.49
	c-0.767,0.621-1.795,0.93-3.086,0.93h-4.659v5.58h4.78c3.025,0,4.538,1.121,4.538,3.36c0,1.121-0.545,1.991-1.634,2.61
	c-1.089,0.621-2.38,0.93-3.872,0.93c-3.227,0-5.889-0.919-7.986-2.76l-4.538,4.92c3.307,2.96,7.905,4.44,13.795,4.44
	c3.347,0,6.191-0.89,8.531-2.67c2.339-1.779,3.509-4.089,3.509-6.93C93.9,32.44,93.466,30.98,92.599,29.7z"/>
<path fill="#FFFFFF" d="M122.698,27.24c2.662-1.52,3.993-3.72,3.993-6.6c0-2.6-0.888-4.68-2.662-6.24
	c-1.776-1.56-4.135-2.34-7.079-2.34h-15.549v31.26h16.094c2.985,0,5.344-0.81,7.079-2.43c1.734-1.62,2.602-3.81,2.602-6.57
	C127.175,31.12,125.683,28.76,122.698,27.24L122.698,27.24z M118.886,21.12c0,2.241-1.271,3.36-3.812,3.36h-5.869v-6.66h5.869
	C117.616,17.82,118.886,18.92,118.886,21.12L118.886,21.12z M115.438,37.56h-6.232V30.3h6.232c1.25,0,2.218,0.321,2.904,0.96
	c0.685,0.64,1.028,1.521,1.028,2.64c0,1.12-0.354,2.01-1.059,2.67C117.605,37.23,116.648,37.56,115.438,37.56L115.438,37.56z"/>
<path fill="#FFFFFF" d="M142.361,12.06h-7.623v42.72h7.865V40.56c2.097,2.08,4.598,3.12,7.502,3.12c3.307,0,5.908-0.939,7.805-2.82
	c1.169-1.16,1.997-2.72,2.481-4.68c0.484-1.959,0.726-4.76,0.726-8.4c0-3.36-0.182-6.02-0.545-7.98
	c-0.444-2.199-1.331-3.96-2.662-5.28c-1.896-1.88-4.498-2.82-7.805-2.82c-1.694,0-3.096,0.24-4.205,0.72
	c-1.11,0.48-2.29,1.34-3.54,2.58V12.06z M152.071,34.62c-0.787,1.36-2.169,2.04-4.145,2.04c-1.896,0-3.258-0.66-4.084-1.98
	c-0.827-1.32-1.24-3.5-1.24-6.54c0-0.999,0.009-1.71,0.03-2.13c0.02-0.42,0.07-1.1,0.151-2.04c0.08-0.939,0.232-1.64,0.454-2.1
	c0.221-0.459,0.514-0.979,0.877-1.56c0.363-0.58,0.867-0.99,1.512-1.23c0.645-0.24,1.411-0.36,2.299-0.36
	c1.976,0,3.358,0.66,4.145,1.98c0.787,1.32,1.18,3.621,1.18,6.9C153.251,30.92,152.858,33.26,152.071,34.62z"/>
<path fill="#FFFFFF" d="M192.457,22.74c0-7.359-4.538-11.04-13.613-11.04c-2.865,0-5.183,0.381-6.958,1.14
	c-1.292,0.6-2.703,1.66-4.235,3.18l5.022,4.86c0.927-1,1.794-1.68,2.602-2.04c0.806-0.36,1.915-0.54,3.328-0.54
	c2.137,0,3.67,0.39,4.598,1.17c0.927,0.78,1.392,2.031,1.392,3.75v1.56h-7.442c-3.348,0-5.98,0.82-7.896,2.46
	c-1.916,1.641-2.874,3.861-2.874,6.66c0,3.081,0.938,5.47,2.813,7.17c1.875,1.701,4.487,2.55,7.835,2.55
	c1.774,0,3.267-0.24,4.477-0.72c1.008-0.399,2.097-1.16,3.267-2.28v2.7h7.684V22.74z M184.591,31.8c0,1.96-0.444,3.36-1.331,4.2
	c-0.888,0.84-2.34,1.26-4.356,1.26c-3.308,0-4.961-1.2-4.961-3.6c0-1.119,0.383-1.989,1.149-2.61c0.766-0.62,1.855-0.93,3.267-0.93
	h6.232V31.8z"/>
<path fill="#FFFFFF" d="M246.062,36.42h-4.235V12.06h-7.865v24.36h-8.652V12.06h-7.865v24.36h-8.652V12.06h-7.926v31.26h37.753V51
	h7.442V36.42z"/>
<path fill="#FFFFFF" d="M275.767,22.74c0-7.359-4.538-11.04-13.613-11.04c-2.865,0-5.183,0.381-6.958,1.14
	c-1.291,0.6-2.703,1.66-4.235,3.18l5.022,4.86c0.927-1,1.794-1.68,2.602-2.04c0.806-0.36,1.915-0.54,3.328-0.54
	c2.137,0,3.67,0.39,4.598,1.17c0.927,0.78,1.392,2.031,1.392,3.75v1.56h-7.442c-3.348,0-5.98,0.82-7.896,2.46
	c-1.916,1.641-2.874,3.861-2.874,6.66c0,3.081,0.938,5.47,2.813,7.17c1.876,1.701,4.487,2.55,7.835,2.55
	c1.774,0,3.267-0.24,4.477-0.72c1.008-0.399,2.097-1.16,3.267-2.28v2.7h7.684V22.74z M267.902,31.8c0,1.96-0.444,3.36-1.331,4.2
	c-0.888,0.84-2.34,1.26-4.356,1.26c-3.308,0-4.961-1.2-4.961-3.6c0-1.119,0.383-1.989,1.149-2.61c0.766-0.62,1.855-0.93,3.267-0.93
	h6.232V31.8z"/>
<path fill="#FFFFFF" d="M301.481,0c-0.162,2.48-1.452,3.72-3.872,3.72c-2.42,0-3.712-1.239-3.872-3.72h-5.929
	c0.121,3,1.109,5.18,2.965,6.54c1.855,1.36,4.134,2.04,6.837,2.04c2.702,0,4.991-0.68,6.867-2.04C306.351,5.18,307.329,3,307.41,0
	H301.481z M311.101,12.06h-7.926l-11.072,18.6v-18.6h-7.926v31.26h7.926l11.072-19.08v19.08h7.926V12.06z"/>
<path fill="#FFFFFF" d="M342.38,12.06h-26.258v6.9h9.257v24.36h7.926V18.96h9.075V12.06z"/>
<path fill="#FFFFFF" d="M372.752,26.64c0-4.52-1.251-8.139-3.751-10.86c-2.501-2.72-5.829-4.08-9.983-4.08
	c-4.235,0-7.584,1.431-10.043,4.29c-2.461,2.86-3.691,6.73-3.691,11.61c0,10.721,4.88,16.08,14.642,16.08
	c2.42,0,4.577-0.379,6.474-1.14c1.734-0.72,3.549-1.979,5.445-3.78l-4.78-4.62c-1.17,1.121-2.238,1.881-3.207,2.28
	c-1.089,0.44-2.299,0.66-3.63,0.66c-4.558,0-6.958-2.319-7.2-6.96h19.724V26.64z M353.028,24.78c0.08-2.12,0.645-3.75,1.694-4.89
	c1.048-1.14,2.48-1.71,4.296-1.71c1.815,0,3.237,0.57,4.265,1.71c1.029,1.14,1.603,2.771,1.724,4.89H353.028z"/>
<path fill="#FFFFFF" d="M32.913,108.42H28.92V84.06H6.292v9.54c0,6.24-1.029,11.181-3.086,14.82H0V123h7.442v-7.68h18.03V123h7.442
	V108.42z M11.435,108.42c1.613-3.279,2.42-7.74,2.42-13.38v-4.08h7.2v17.46H11.435z"/>
<path fill="#FFFFFF" d="M64.616,98.64c0-4.52-1.251-8.139-3.751-10.86c-2.501-2.72-5.829-4.08-9.983-4.08
	c-4.235,0-7.583,1.431-10.043,4.29c-2.461,2.86-3.691,6.73-3.691,11.61c0,10.721,4.88,16.08,14.642,16.08
	c2.42,0,4.578-0.379,6.474-1.14c1.734-0.72,3.549-1.98,5.445-3.78l-4.78-4.62c-1.17,1.121-2.239,1.881-3.207,2.28
	c-1.089,0.44-2.299,0.66-3.63,0.66c-4.559,0-6.958-2.319-7.2-6.96h19.724V98.64z M44.892,96.78c0.08-2.12,0.645-3.75,1.694-4.89
	c1.048-1.14,2.481-1.71,4.296-1.71c1.815,0,3.237,0.57,4.265,1.71c1.029,1.14,1.604,2.771,1.724,4.89H44.892z"/>
<path fill="#FFFFFF" d="M97.77,84.06h-7.926v11.82H79.741V84.06h-7.926v31.26h7.926v-12.54h10.104v12.54h7.926V84.06z"/>
<path fill="#FFFFFF" d="M121.669,95.34h-7.26V84.06h-7.926v31.26h15.186c3.065,0,5.576-0.93,7.532-2.79
	c1.956-1.86,2.935-4.27,2.935-7.23c0-2.959-0.968-5.36-2.904-7.2C127.295,96.26,124.774,95.34,121.669,95.34L121.669,95.34z
	 M123.212,102.51c0.746,0.7,1.119,1.63,1.119,2.79c0,1.2-0.373,2.15-1.119,2.85c-0.747,0.7-1.745,1.05-2.995,1.05h-6.05v-7.74h6.05
	C121.467,101.46,122.465,101.811,123.212,102.51z"/>
<path fill="#FFFFFF" d="M159.603,84.06H138.73v31.26h7.865V90.96h13.008V84.06z"/>
<path fill="#FFFFFF" d="M191.669,84.06h-7.926l-11.072,18.6v-18.6h-7.926v31.26h7.926l11.072-19.08v19.08h7.926V84.06z"/>
<path fill="#FFFFFF" d="M235.623,101.7c-0.868-1.28-2.027-2.22-3.479-2.82c1.291-0.6,2.329-1.5,3.116-2.7
	c0.786-1.2,1.18-2.54,1.18-4.02c0-2.64-1.119-4.71-3.358-6.21c-2.239-1.5-4.952-2.25-8.137-2.25c-5.406,0-9.661,1.221-12.766,3.66
	l4.356,4.8c2.057-1.44,4.335-2.16,6.837-2.16c3.549,0,5.324,1.06,5.324,3.18c0,1.041-0.384,1.871-1.15,2.49
	c-0.767,0.621-1.795,0.93-3.086,0.93h-4.659v5.58h4.78c3.025,0,4.538,1.121,4.538,3.36c0,1.12-0.544,1.99-1.634,2.61
	c-1.089,0.621-2.38,0.93-3.872,0.93c-3.228,0-5.889-0.919-7.986-2.76l-4.538,4.92c3.307,2.96,7.905,4.44,13.794,4.44
	c3.347,0,6.191-0.89,8.531-2.67c2.339-1.779,3.509-4.089,3.509-6.93C236.924,104.44,236.49,102.98,235.623,101.7z"/>
<path fill="#FFFFFF" d="M268.324,94.74c0-7.359-4.538-11.04-13.613-11.04c-2.864,0-5.183,0.381-6.958,1.14
	c-1.291,0.6-2.703,1.66-4.235,3.18l5.022,4.86c0.927-1,1.794-1.68,2.602-2.04c0.806-0.36,1.915-0.54,3.328-0.54
	c2.137,0,3.67,0.39,4.598,1.17c0.927,0.78,1.392,2.031,1.392,3.75v1.56h-7.442c-3.348,0-5.98,0.82-7.896,2.46
	c-1.916,1.641-2.874,3.861-2.874,6.66c0,3.081,0.938,5.47,2.813,7.17c1.875,1.701,4.487,2.55,7.835,2.55
	c1.774,0,3.267-0.24,4.477-0.72c1.008-0.399,2.097-1.16,3.267-2.28v2.7h7.684V94.74z M260.458,103.8c0,1.96-0.444,3.36-1.331,4.2
	c-0.888,0.84-2.34,1.26-4.356,1.26c-3.308,0-4.961-1.2-4.961-3.6c0-1.119,0.383-1.989,1.149-2.61c0.766-0.62,1.855-0.93,3.267-0.93
	h6.232V103.8z"/>
<path fill="#FFFFFF" d="M316.725,84.06H290.77v31.26h7.926V90.96h10.104v24.36h7.926V84.06z"/>
<path fill="#FFFFFF" d="M350.032,92.28c-0.544-1.8-1.463-3.38-2.753-4.74c-2.461-2.56-5.728-3.84-9.802-3.84
	c-4.034,0-7.281,1.281-9.741,3.84c-1.292,1.4-2.208,3-2.753,4.8c-0.545,1.8-0.817,4.24-0.817,7.32c0,3.12,0.262,5.59,0.786,7.41
	c0.524,1.821,1.452,3.411,2.783,4.77c2.46,2.56,5.707,3.84,9.741,3.84c4.073,0,7.341-1.28,9.802-3.84
	c1.331-1.359,2.259-2.949,2.783-4.77c0.524-1.82,0.787-4.33,0.787-7.53C350.848,96.5,350.576,94.08,350.032,92.28z M342.923,102.18
	c-0.041,0.681-0.162,1.47-0.363,2.37c-0.202,0.9-0.484,1.62-0.847,2.16s-0.907,1-1.634,1.38c-0.726,0.38-1.594,0.57-2.602,0.57
	c-1.896,0-3.277-0.669-4.144-2.01c-0.868-1.34-1.301-3.51-1.301-6.51c0-1.08,0.01-1.939,0.03-2.58c0.02-0.639,0.13-1.449,0.333-2.43
	c0.201-0.98,0.484-1.75,0.847-2.31c0.363-0.56,0.897-1.05,1.604-1.47c0.705-0.42,1.582-0.63,2.632-0.63
	c1.25,0,2.269,0.261,3.055,0.78c0.787,0.52,1.341,1.27,1.664,2.25c0.323,0.98,0.534,1.9,0.635,2.76
	c0.1,0.861,0.151,1.911,0.151,3.15C342.983,100.66,342.962,101.5,342.923,102.18z"/>
<path fill="#FFFFFF" d="M366.277,99l10.83,16.32h9.438l-11.859-16.68l11.133-14.58h-9.196l-10.346,14.82V84.06h-7.926v31.26h7.926
	V99z"/>
<path fill="#FFFFFF" d="M407.539,84.06l-6.292,19.32l-6.534-19.32h-8.289l10.77,29.04l-1.331,3.84
	c-0.404,1.119-0.868,1.869-1.392,2.25c-0.525,0.379-1.372,0.57-2.541,0.57h-1.815v7.02h3.086c2.379,0,4.285-0.51,5.718-1.53
	c1.431-1.02,2.571-2.65,3.418-4.89l13.492-36.3H407.539z"/>
<path fill="#FFFFFF" d="M446.38,84.06h-25.956v31.26h7.926V90.96h10.104v24.36h7.926V84.06z"/>
<path fill="#FFFFFF" d="M463.079,99l10.83,16.32h9.438l-11.858-16.68l11.132-14.58h-9.196l-10.346,14.82V84.06h-7.926v31.26h7.926
	V99z"/>
<path fill="#FFFFFF" d="M514.263,84.06h-7.926l-11.072,18.6v-18.6h-7.926v31.26h7.926l11.072-19.08v19.08h7.926V84.06z"/>
<path fill="#FFFFFF" d="M7.658,162.788H3.123v-4.904h9.391v-2.6H0.226v19.082h7.432c1.842,0,3.309-0.532,4.4-1.595
	c1.091-1.063,1.636-2.461,1.636-4.194c0-1.733-0.546-3.131-1.636-4.194C10.967,163.319,9.5,162.788,7.658,162.788L7.658,162.788z
	 M9.912,170.921c-0.59,0.563-1.405,0.844-2.442,0.844H3.123v-6.378H7.47c1.037,0,1.851,0.286,2.442,0.857
	c0.59,0.572,0.885,1.349,0.885,2.332C10.797,169.577,10.502,170.358,9.912,170.921z"/>
<path fill="#FFFFFF" d="M27.794,164.329c-0.241-0.813-0.648-1.514-1.221-2.104c-1.038-1.072-2.397-1.608-4.078-1.608
	c-1.663,0-3.014,0.536-4.052,1.608c-0.573,0.608-0.984,1.318-1.234,2.131c-0.251,0.813-0.375,1.88-0.375,3.203
	c0,1.34,0.125,2.417,0.375,3.229c0.25,0.813,0.662,1.523,1.234,2.131c1.037,1.072,2.388,1.608,4.052,1.608
	c1.681,0,3.041-0.536,4.078-1.608c0.572-0.607,0.979-1.317,1.221-2.131c0.242-0.813,0.362-1.907,0.362-3.283
	C28.156,166.2,28.036,165.142,27.794,164.329z M24.615,171.176c-0.519,0.608-1.225,0.911-2.12,0.911
	c-0.876,0-1.556-0.286-2.039-0.857c-0.59-0.661-0.885-1.849-0.885-3.564c0-1.786,0.277-3.019,0.832-3.698
	c0.519-0.607,1.216-0.911,2.093-0.911c0.859,0,1.556,0.294,2.093,0.884c0.572,0.643,0.859,1.867,0.859,3.671
	C25.447,169.327,25.169,170.515,24.615,171.176L24.615,171.176z"/>
<path fill="#FFFFFF" d="M42.162,160.777h-9.31v5.655c0,1.001-0.054,1.863-0.161,2.586s-0.237,1.269-0.389,1.635
	c-0.152,0.366-0.358,0.652-0.617,0.857c-0.26,0.206-0.488,0.331-0.684,0.375c-0.197,0.045-0.439,0.067-0.725,0.067h-0.429v2.412
	h1.288c0.698,0,1.301-0.111,1.811-0.335c0.51-0.223,0.961-0.599,1.355-1.126c0.393-0.526,0.688-1.273,0.885-2.238
	c0.197-0.965,0.295-2.153,0.295-3.564v-3.94h3.944v11.203h2.737V160.777z"/>
<path fill="#FFFFFF" d="M57.348,167.156c0-2-0.519-3.591-1.556-4.771c-1.038-1.179-2.433-1.769-4.186-1.769
	c-1.789,0-3.198,0.616-4.226,1.849s-1.542,2.913-1.542,5.039c0,2.305,0.519,4.051,1.556,5.239c1.037,1.188,2.576,1.782,4.615,1.782
	c1.073,0,1.981-0.161,2.723-0.482c0.742-0.322,1.507-0.866,2.294-1.635l-1.717-1.635c-0.984,0.947-2.048,1.42-3.193,1.42
	c-2.325,0-3.515-1.269-3.569-3.806h8.801V167.156z M48.548,166.459c0.036-1.036,0.299-1.889,0.792-2.559
	c0.492-0.67,1.248-1.005,2.267-1.005c1.86,0,2.88,1.188,3.059,3.564H48.548z"/>
<path fill="#FFFFFF" d="M71.81,167.156c0-2-0.519-3.591-1.556-4.771c-1.038-1.179-2.433-1.769-4.186-1.769
	c-1.789,0-3.198,0.616-4.226,1.849c-1.029,1.233-1.543,2.913-1.543,5.039c0,2.305,0.519,4.051,1.556,5.239
	c1.037,1.188,2.576,1.782,4.615,1.782c1.073,0,1.981-0.161,2.723-0.482c0.742-0.322,1.507-0.866,2.294-1.635l-1.717-1.635
	c-0.984,0.947-2.048,1.42-3.193,1.42c-2.326,0-3.515-1.269-3.569-3.806h8.801V167.156z M63.009,166.459
	c0.036-1.036,0.299-1.889,0.792-2.559c0.492-0.67,1.248-1.005,2.267-1.005c1.86,0,2.88,1.188,3.059,3.564H63.009z"/>
<path fill="#FFFFFF" d="M89.249,155.284h-2.737l-3.729,3.216v3.028l3.729-3.27v16.107h2.737V155.284z"/>
<path fill="#FFFFFF" d="M106.689,160.59c0-1.662-0.528-2.988-1.583-3.98c-1.056-0.991-2.37-1.487-3.944-1.487
	c-1.556,0-2.862,0.496-3.917,1.487c-1.056,0.992-1.583,2.318-1.583,3.98v8.469c0,1.662,0.527,2.988,1.583,3.98
	c1.055,0.992,2.361,1.487,3.917,1.487c1.574,0,2.888-0.496,3.944-1.487c1.055-0.992,1.583-2.318,1.583-3.98V160.59z
	 M103.201,171.229c-0.501,0.572-1.18,0.857-2.039,0.857s-1.534-0.281-2.026-0.844c-0.492-0.563-0.738-1.317-0.738-2.264v-8.308
	c0-0.947,0.246-1.702,0.738-2.265c0.492-0.563,1.167-0.844,2.026-0.844s1.538,0.286,2.039,0.857c0.5,0.572,0.751,1.323,0.751,2.251
	v8.308C103.952,169.908,103.701,170.658,103.201,171.229z"/>
<path fill="#FFFFFF" d="M120.989,160.59c0-1.662-0.528-2.988-1.583-3.98c-1.056-0.991-2.37-1.487-3.944-1.487
	c-1.556,0-2.862,0.496-3.917,1.487c-1.055,0.992-1.583,2.318-1.583,3.98v8.469c0,1.662,0.528,2.988,1.583,3.98
	s2.361,1.487,3.917,1.487c1.574,0,2.888-0.496,3.944-1.487c1.055-0.992,1.583-2.318,1.583-3.98V160.59z M117.501,171.229
	c-0.501,0.572-1.18,0.857-2.039,0.857s-1.534-0.281-2.026-0.844c-0.492-0.563-0.738-1.317-0.738-2.264v-8.308
	c0-0.947,0.246-1.702,0.738-2.265c0.492-0.563,1.167-0.844,2.026-0.844s1.538,0.286,2.039,0.857c0.5,0.572,0.751,1.323,0.751,2.251
	v8.308C118.253,169.908,118.002,170.658,117.501,171.229z"/>
<path fill="#FFFFFF" d="M135.29,160.59c0-1.662-0.528-2.988-1.583-3.98c-1.056-0.991-2.37-1.487-3.944-1.487
	c-1.556,0-2.862,0.496-3.917,1.487c-1.056,0.992-1.583,2.318-1.583,3.98v8.469c0,1.662,0.527,2.988,1.583,3.98
	c1.055,0.992,2.361,1.487,3.917,1.487c1.574,0,2.888-0.496,3.944-1.487c1.055-0.992,1.583-2.318,1.583-3.98V160.59z
	 M131.802,171.229c-0.501,0.572-1.18,0.857-2.039,0.857s-1.534-0.281-2.026-0.844c-0.492-0.563-0.738-1.317-0.738-2.264v-8.308
	c0-0.947,0.246-1.702,0.738-2.265c0.492-0.563,1.167-0.844,2.026-0.844s1.538,0.286,2.039,0.857c0.5,0.572,0.751,1.323,0.751,2.251
	v8.308C132.553,169.908,132.302,170.658,131.802,171.229z"/>
<path fill="#FFFFFF" d="M159.061,160.777h-2.683l-4.051,8.094l-4.078-8.094h-2.71v13.588h2.737v-8.71l3.193,6.217h1.717l3.139-6.217
	v8.71h2.737V160.777z"/>
<path fill="#FFFFFF" d="M173.442,165.28c0-3.109-1.896-4.663-5.688-4.663c-1.288,0-2.299,0.179-3.032,0.536
	c-0.501,0.214-1.091,0.688-1.771,1.42l1.798,1.688c0.376-0.482,0.742-0.804,1.1-0.965c0.465-0.232,1.073-0.349,1.824-0.349
	c1.073,0,1.851,0.201,2.334,0.603s0.725,1.041,0.725,1.916v0.992h-3.649c-1.449,0-2.589,0.349-3.421,1.045s-1.248,1.662-1.248,2.895
	c0,1.322,0.407,2.336,1.221,3.042c0.814,0.706,1.981,1.059,3.501,1.059c0.841,0,1.52-0.094,2.039-0.281s1.046-0.549,1.583-1.085
	v1.233h2.683V165.28z M170.035,171.604c-0.465,0.429-1.225,0.644-2.281,0.644c-1.789,0-2.683-0.644-2.683-1.93
	c0-1.287,0.814-1.93,2.442-1.93h3.22v1.072C170.733,170.461,170.5,171.176,170.035,171.604z"/>
<path fill="#FFFFFF" d="M186.589,160.777h-8.827v13.588h2.737v-11.203h6.09V160.777z"/>
<path fill="#FFFFFF" d="M198.824,165.28c0-3.109-1.896-4.663-5.688-4.663c-1.288,0-2.299,0.179-3.032,0.536
	c-0.501,0.214-1.091,0.688-1.771,1.42l1.798,1.688c0.376-0.482,0.742-0.804,1.1-0.965c0.465-0.232,1.073-0.349,1.824-0.349
	c1.073,0,1.851,0.201,2.334,0.603c0.483,0.402,0.724,1.041,0.724,1.916v0.992h-3.649c-1.449,0-2.589,0.349-3.421,1.045
	c-0.832,0.697-1.248,1.662-1.248,2.895c0,1.322,0.407,2.336,1.221,3.042c0.814,0.706,1.981,1.059,3.501,1.059
	c0.841,0,1.52-0.094,2.039-0.281c0.519-0.188,1.046-0.549,1.583-1.085v1.233h2.683V165.28z M195.417,171.604
	c-0.465,0.429-1.226,0.644-2.281,0.644c-1.789,0-2.683-0.644-2.683-1.93c0-1.287,0.814-1.93,2.442-1.93h3.22v1.072
	C196.115,170.461,195.882,171.176,195.417,171.604z"/>
<path fill="#FFFFFF" d="M211.797,168.482c-0.403-0.563-0.935-0.969-1.596-1.219c0.608-0.25,1.091-0.643,1.449-1.179
	c0.358-0.536,0.537-1.134,0.537-1.796c0-1.143-0.469-2.041-1.409-2.693c-0.939-0.652-2.097-0.978-3.475-0.978
	c-2.182,0-3.935,0.509-5.259,1.528l1.529,1.742c0.984-0.697,2.075-1.045,3.273-1.045c0.823,0,1.471,0.147,1.945,0.442
	c0.474,0.295,0.711,0.72,0.711,1.273c0,0.572-0.197,1.019-0.59,1.34c-0.394,0.321-0.921,0.482-1.583,0.482h-2.012v2.063h2.039
	c1.574,0,2.361,0.607,2.361,1.822c0,0.59-0.291,1.059-0.872,1.407c-0.582,0.348-1.248,0.522-1.999,0.522
	c-1.485,0-2.719-0.456-3.703-1.367l-1.636,1.742c1.431,1.305,3.336,1.957,5.715,1.957c1.431,0,2.652-0.379,3.662-1.139
	c1.01-0.759,1.516-1.746,1.516-2.961C212.401,169.693,212.199,169.045,211.797,168.482z"/>
<path fill="#FFFFFF" d="M227.453,160.777h-2.737l-5.823,9.219v-9.219h-2.737v13.588h2.737l5.823-9.354v9.354h2.737V160.777z"/>
<path fill="#FFFFFF" d="M242.692,160.777h-2.737v5.414h-5.42v-5.414h-2.737v13.588h2.737v-5.789h5.42v5.789h2.737V160.777z"/>
<path fill="#FFFFFF" d="M257.355,164.329c-0.241-0.813-0.649-1.514-1.221-2.104c-1.038-1.072-2.397-1.608-4.078-1.608
	c-1.664,0-3.014,0.536-4.052,1.608c-0.573,0.608-0.984,1.318-1.234,2.131c-0.251,0.813-0.376,1.88-0.376,3.203
	c0,1.34,0.125,2.417,0.376,3.229c0.25,0.813,0.662,1.523,1.234,2.131c1.037,1.072,2.388,1.608,4.052,1.608
	c1.681,0,3.041-0.536,4.078-1.608c0.572-0.607,0.979-1.317,1.221-2.131c0.241-0.813,0.362-1.907,0.362-3.283
	C257.718,166.2,257.597,165.142,257.355,164.329z M254.176,171.176c-0.519,0.608-1.225,0.911-2.12,0.911
	c-0.876,0-1.556-0.286-2.039-0.857c-0.59-0.661-0.885-1.849-0.885-3.564c0-1.786,0.277-3.019,0.832-3.698
	c0.519-0.607,1.216-0.911,2.093-0.911c0.859,0,1.556,0.294,2.093,0.884c0.572,0.643,0.859,1.867,0.859,3.671
	C255.008,169.327,254.73,170.515,254.176,171.176L254.176,171.176z"/>
<path fill="#FFFFFF" d="M270.167,167.343c1.27-0.589,1.905-1.563,1.905-2.921c0-1.107-0.372-1.992-1.114-2.653
	c-0.743-0.661-1.74-0.992-2.992-0.992h-6.52v13.588h6.734c1.27,0,2.271-0.344,3.005-1.032c0.733-0.688,1.1-1.622,1.1-2.801
	C272.286,169.05,271.58,167.987,270.167,167.343L270.167,167.343z M267.376,166.352h-3.22v-3.431h3.22
	c0.644,0,1.14,0.147,1.489,0.442c0.349,0.295,0.523,0.71,0.523,1.246C269.389,165.771,268.718,166.352,267.376,166.352
	L267.376,166.352z M269.053,171.725c-0.367,0.349-0.872,0.523-1.516,0.523h-3.381v-3.779h3.381c0.644,0,1.149,0.165,1.516,0.496
	c0.366,0.331,0.55,0.791,0.55,1.38C269.603,170.917,269.419,171.377,269.053,171.725z"/>
<path fill="#FFFFFF" d="M290.504,170.774c-0.483,0.482-0.899,0.822-1.248,1.019c-0.349,0.197-0.81,0.294-1.382,0.294
	c-2.218,0-3.327-1.509-3.327-4.529c0-3.002,1.109-4.502,3.327-4.502c0.554,0,1.02,0.098,1.395,0.294
	c0.376,0.197,0.787,0.527,1.234,0.992l1.851-1.795c-0.698-0.697-1.368-1.188-2.012-1.474c-0.716-0.304-1.529-0.456-2.442-0.456
	c-1.896,0-3.385,0.612-4.467,1.836c-1.083,1.224-1.623,2.908-1.623,5.052c0,2.215,0.537,3.939,1.61,5.172
	c1.073,1.233,2.566,1.849,4.48,1.849c0.948,0,1.762-0.152,2.442-0.456c0.644-0.286,1.315-0.777,2.012-1.474L290.504,170.774z"/>
<path fill="#FFFFFF" d="M304.777,167.317l5.5,7.048h3.354l-5.822-7.209l5.42-6.378h-3.273l-5.178,6.486v-6.486h-2.763v13.588h2.763
	V167.317z"/>
<path fill="#FFFFFF" d="M323.291,162.439c-1.073-1.215-2.576-1.822-4.508-1.822c-0.93,0-1.722,0.147-2.375,0.442
	c-0.653,0.294-1.337,0.791-2.052,1.487l1.824,1.769c0.876-0.875,1.753-1.313,2.629-1.313c1.001,0,1.784,0.308,2.348,0.924
	c0.563,0.617,0.899,1.461,1.006,2.533h-4.749v1.93h4.749c-0.054,1.125-0.358,2.033-0.912,2.72c-0.555,0.688-1.36,1.032-2.415,1.032
	c-0.537,0-0.993-0.098-1.368-0.295c-0.375-0.196-0.805-0.536-1.288-1.018l-1.824,1.795c0.698,0.697,1.373,1.188,2.026,1.474
	c0.653,0.286,1.453,0.429,2.401,0.429c1.949,0,3.457-0.612,4.521-1.836c1.064-1.224,1.596-2.952,1.596-5.186
	C324.9,165.343,324.364,163.654,323.291,162.439z"/>
<path fill="#FFFFFF" d="M345.962,160.777h-2.737v11.203h-4.588v-11.203h-2.737v11.203h-4.615v-11.203h-2.737v13.588h17.413V160.777z
	"/>
<path fill="#FFFFFF" d="M353.582,171.256c-0.644-0.732-0.966-1.957-0.966-3.672c0-1.697,0.304-2.894,0.912-3.591
	c0.5-0.572,1.189-0.858,2.066-0.858c0.841,0,1.52,0.286,2.039,0.858c0.554,0.625,0.832,1.84,0.832,3.645
	c0,1.733-0.286,2.939-0.859,3.618c-0.483,0.536-1.154,0.804-2.012,0.804C354.753,172.06,354.083,171.792,353.582,171.256
	L353.582,171.256z M359.539,172.999c1.109-1.126,1.664-2.948,1.664-5.467c0-2.608-0.59-4.466-1.771-5.575
	c-0.823-0.768-1.932-1.152-3.327-1.152c-0.823,0-1.579,0.161-2.267,0.482c-0.689,0.322-1.176,0.75-1.462,1.287
	c0-1.019,0.116-1.836,0.349-2.452c0.232-0.617,0.662-1.13,1.288-1.541c0.358-0.25,0.823-0.447,1.395-0.59
	c0.573-0.143,1.082-0.232,1.53-0.268c0.447-0.036,1.02-0.071,1.717-0.107c0.698-0.036,1.181-0.063,1.449-0.081v-2.412
	c-1.234,0.036-2.089,0.067-2.563,0.094c-0.474,0.027-1.145,0.094-2.012,0.201c-0.868,0.107-1.574,0.277-2.12,0.509
	c-0.546,0.232-1.033,0.536-1.462,0.911c-0.858,0.733-1.413,1.653-1.664,2.76c-0.25,1.108-0.375,3.145-0.375,6.11
	c0,2.859,0.268,4.86,0.805,6.003c0.411,0.911,1.046,1.608,1.905,2.09s1.86,0.724,3.005,0.724
	C357.249,174.526,358.555,174.017,359.539,172.999L359.539,172.999z"/>
<path fill="#FFFFFF" d="M372.605,162.439c-1.073-1.215-2.576-1.822-4.508-1.822c-0.93,0-1.722,0.147-2.375,0.442
	c-0.653,0.294-1.337,0.791-2.052,1.487l1.824,1.769c0.876-0.875,1.753-1.313,2.629-1.313c1.001,0,1.784,0.308,2.348,0.924
	c0.563,0.617,0.899,1.461,1.006,2.533h-4.749v1.93h4.749c-0.054,1.125-0.358,2.033-0.912,2.72c-0.555,0.688-1.36,1.032-2.415,1.032
	c-0.537,0-0.993-0.098-1.368-0.295c-0.376-0.196-0.805-0.536-1.288-1.018l-1.824,1.795c0.698,0.697,1.372,1.188,2.026,1.474
	c0.653,0.286,1.453,0.429,2.401,0.429c1.949,0,3.457-0.612,4.521-1.836c1.064-1.224,1.596-2.952,1.596-5.186
	C374.215,165.343,373.678,163.654,372.605,162.439z"/>
<path fill="#FFFFFF" d="M380.68,167.317l5.5,7.048h3.354l-5.822-7.209l5.42-6.378h-3.273l-5.178,6.486v-6.486h-2.764v13.588h2.764
	V167.317z"/>
<path fill="#FFFFFF" d="M401.488,164.329c-0.241-0.813-0.649-1.514-1.221-2.104c-1.038-1.072-2.397-1.608-4.078-1.608
	c-1.664,0-3.014,0.536-4.052,1.608c-0.573,0.608-0.984,1.318-1.234,2.131s-0.375,1.88-0.375,3.203c0,1.34,0.125,2.417,0.375,3.229
	c0.25,0.813,0.662,1.523,1.234,2.131c1.037,1.072,2.388,1.608,4.052,1.608c1.681,0,3.041-0.536,4.078-1.608
	c0.572-0.607,0.979-1.317,1.221-2.131c0.241-0.813,0.362-1.907,0.362-3.283C401.85,166.2,401.729,165.142,401.488,164.329z
	 M398.308,171.176c-0.519,0.608-1.226,0.911-2.12,0.911c-0.877,0-1.556-0.286-2.039-0.857c-0.59-0.661-0.885-1.849-0.885-3.564
	c0-1.786,0.277-3.019,0.832-3.698c0.519-0.607,1.216-0.911,2.093-0.911c0.859,0,1.556,0.294,2.093,0.884
	c0.572,0.643,0.859,1.867,0.859,3.671C399.14,169.327,398.863,170.515,398.308,171.176L398.308,171.176z"/>
<path fill="#FFFFFF" d="M419.102,160.777h-2.683l-4.052,8.094l-4.078-8.094h-2.71v13.588h2.737v-8.71l3.193,6.217h1.717l3.139-6.217
	v8.71h2.737V160.777z"/>
<path fill="#FFFFFF" d="M437.588,163.163v8.817h-5.125c0.859-1.84,1.288-4.056,1.288-6.646v-2.171H437.588z M431.148,164.235
	c0,1.912-0.13,3.426-0.389,4.542c-0.259,1.117-0.648,2.184-1.167,3.203h-1.449v5.869h2.603v-3.484h8.827v3.484h2.629v-5.869h-1.878
	v-11.203h-9.176V164.235z"/>
<path fill="#FFFFFF" d="M455.47,164.329c-0.241-0.813-0.648-1.514-1.221-2.104c-1.038-1.072-2.397-1.608-4.078-1.608
	c-1.664,0-3.015,0.536-4.052,1.608c-0.573,0.608-0.984,1.318-1.234,2.131c-0.251,0.813-0.376,1.88-0.376,3.203
	c0,1.34,0.125,2.417,0.376,3.229c0.25,0.813,0.661,1.523,1.234,2.131c1.037,1.072,2.388,1.608,4.052,1.608
	c1.681,0,3.041-0.536,4.078-1.608c0.572-0.607,0.979-1.317,1.221-2.131c0.242-0.813,0.362-1.907,0.362-3.283
	C455.833,166.2,455.712,165.142,455.47,164.329z M452.291,171.176c-0.519,0.608-1.226,0.911-2.12,0.911
	c-0.877,0-1.556-0.286-2.039-0.857c-0.591-0.661-0.886-1.849-0.886-3.564c0-1.786,0.277-3.019,0.832-3.698
	c0.519-0.607,1.216-0.911,2.093-0.911c0.858,0,1.556,0.294,2.093,0.884c0.572,0.643,0.858,1.867,0.858,3.671
	C453.123,169.327,452.845,170.515,452.291,171.176L452.291,171.176z"/>
<path fill="#FFFFFF" d="M473.97,164.503c1.592-0.786,2.388-2.144,2.388-4.074c0-1.572-0.519-2.854-1.556-3.846
	c-1.038-0.992-2.37-1.488-3.998-1.488c-1.556,0-2.862,0.469-3.917,1.407c-1.056,0.938-1.619,2.202-1.69,3.792h2.737
	c0.071-0.839,0.362-1.505,0.872-1.997c0.51-0.491,1.176-0.737,1.999-0.737c0.805,0,1.476,0.259,2.012,0.777s0.805,1.242,0.805,2.17
	c0,0.894-0.241,1.6-0.724,2.117c-0.483,0.519-1.208,0.777-2.173,0.777h-0.456v2.385h0.456c1.055,0,1.851,0.277,2.388,0.831
	s0.805,1.322,0.805,2.305c0,0.983-0.291,1.755-0.872,2.318c-0.582,0.563-1.328,0.844-2.24,0.844c-0.859,0-1.579-0.241-2.16-0.724
	c-0.582-0.482-0.899-1.206-0.953-2.17h-2.736c0.054,1.769,0.63,3.104,1.73,4.006c1.1,0.902,2.473,1.354,4.119,1.354
	c1.681,0,3.076-0.482,4.186-1.447c1.109-0.965,1.664-2.332,1.664-4.101C476.653,166.79,475.758,165.289,473.97,164.503
	L473.97,164.503z"/>
<path fill="#FFFFFF" d="M490.792,160.59c0-1.662-0.528-2.988-1.583-3.98c-1.055-0.991-2.37-1.487-3.944-1.487
	c-1.556,0-2.862,0.496-3.917,1.487c-1.056,0.992-1.583,2.318-1.583,3.98v8.469c0,1.662,0.527,2.988,1.583,3.98
	c1.055,0.992,2.361,1.487,3.917,1.487c1.574,0,2.889-0.496,3.944-1.487c1.056-0.992,1.583-2.318,1.583-3.98V160.59z
	 M487.304,171.229c-0.501,0.572-1.181,0.857-2.039,0.857s-1.534-0.281-2.026-0.844c-0.492-0.563-0.738-1.317-0.738-2.264v-8.308
	c0-0.947,0.246-1.702,0.738-2.265c0.492-0.563,1.167-0.844,2.026-0.844s1.538,0.286,2.039,0.857c0.5,0.572,0.751,1.323,0.751,2.251
	v8.308C488.056,169.908,487.805,170.658,487.304,171.229z"/>
<path fill="#FFFFFF" d="M513.464,168.174c0-1.125-0.358-2.019-1.073-2.68c-0.715-0.661-1.61-0.991-2.683-0.991
	s-1.968,0.331-2.683,0.991c-0.715,0.661-1.073,1.555-1.073,2.68v2.707c0,1.125,0.358,2.019,1.073,2.68
	c0.715,0.661,1.61,0.992,2.683,0.992s1.968-0.331,2.683-0.992c0.715-0.661,1.073-1.554,1.073-2.68V168.174z M501.498,158.768
	c0-1.125-0.358-2.019-1.073-2.68c-0.716-0.661-1.61-0.992-2.683-0.992s-1.968,0.331-2.683,0.992
	c-0.716,0.661-1.073,1.555-1.073,2.68v2.707c0,1.126,0.357,2.015,1.073,2.667c0.715,0.652,1.61,0.978,2.683,0.978
	s1.967-0.326,2.683-0.978c0.715-0.652,1.073-1.541,1.073-2.667V158.768z M507.132,155.284l-9.015,19.082h2.2l8.988-19.082H507.132z
	 M509.708,172.73c-1.127,0-1.69-0.644-1.69-1.93v-2.546c0-1.287,0.563-1.93,1.69-1.93s1.69,0.643,1.69,1.93v2.546
	C511.398,172.087,510.834,172.73,509.708,172.73z M497.741,163.297c-1.127,0-1.69-0.634-1.69-1.903v-2.546
	c0-1.287,0.563-1.93,1.69-1.93s1.69,0.643,1.69,1.93v2.546C499.432,162.663,498.868,163.297,497.741,163.297z"/>
</svg>
