<?xml version="1.0" encoding="utf-8"?>
<!-- Generator: Adobe Illustrator 16.0.0, SVG Export Plug-In . SVG Version: 6.00 Build 0)  -->
<!DOCTYPE svg PUBLIC "-//W3C//DTD SVG 1.0//EN" "http://www.w3.org/TR/2001/REC-SVG-20010904/DTD/svg10.dtd">
<svg version="1.0" id="Слой_1" xmlns="http://www.w3.org/2000/svg" xmlns:xlink="http://www.w3.org/1999/xlink" x="0px" y="0px"
	 width="518.068px" height="159.057px" viewBox="0 0 518.068 159.057" enable-background="new 0 0 518.068 159.057"
	 xml:space="preserve">
<image display="none" overflow="visible" width="684" height="369" xlink:href="5D9AF6ED.jpg"  transform="matrix(0.9999 0 0 0.9999 -77.9961 -76)">
</image>
<path fill="#FFFFFF" d="M237.847,137.743l-2.777,6.709l-3.082-6.709h-1.3l3.773,8.064l-0.466,1.067
	c-0.171,0.404-0.369,0.693-0.594,0.869c-0.225,0.175-0.53,0.263-0.915,0.263h-0.722v1.083h0.995c0.984,0,1.734-0.59,2.247-1.769
	l4.142-9.578H237.847z"/>
<path fill="#FFFFFF" d="M247.944,143.879c-0.225-0.223-0.562-0.43-1.011-0.622c0.385-0.17,0.669-0.345,0.851-0.526
	c0.556-0.521,0.835-1.189,0.835-2.008c0-0.893-0.311-1.612-0.931-2.16c-0.621-0.547-1.434-0.821-2.44-0.821h-4.302v11.347h4.447
	c1.059,0,1.891-0.276,2.496-0.829c0.604-0.552,0.907-1.312,0.907-2.279C248.795,145.122,248.512,144.421,247.944,143.879
	L247.944,143.879z M245.151,142.763h-2.986v-3.936h2.986c0.706,0,1.258,0.173,1.654,0.518c0.396,0.346,0.594,0.827,0.594,1.442
	c0,0.617-0.198,1.1-0.594,1.45C246.409,142.588,245.857,142.763,245.151,142.763L245.151,142.763z M245.28,148.007h-3.114v-4.16
	h3.114c0.707,0,1.266,0.186,1.678,0.558c0.412,0.372,0.618,0.877,0.618,1.514c0,0.638-0.206,1.145-0.618,1.522
	C246.545,147.818,245.986,148.007,245.28,148.007L245.28,148.007z"/>
<path fill="#FFFFFF" d="M258.764,148.007h-5.875v-4.096h5.009v-1.084h-5.009v-4h5.875v-1.084h-7.095v11.347h7.095V148.007z"/>
<path fill="#FFFFFF" d="M268.115,138.66c-0.648-0.611-1.501-0.917-2.561-0.917H261.3v11.347h1.22v-4.669h3.034
	c1.06,0,1.913-0.305,2.561-0.917c0.647-0.611,0.971-1.421,0.971-2.43C269.086,140.076,268.762,139.271,268.115,138.66z
	 M265.442,143.337h-2.921v-4.51h2.921c0.76,0,1.354,0.197,1.782,0.589c0.428,0.394,0.642,0.946,0.642,1.658
	s-0.214,1.267-0.642,1.666C266.796,143.138,266.202,143.337,265.442,143.337L265.442,143.337z"/>
<path fill="#FFFFFF" d="M278.509,148.007h-5.875v-4.096h5.009v-1.084h-5.009v-4h5.875v-1.084h-7.095v11.347h7.095V148.007z"/>
<path fill="#FFFFFF" d="M288.911,137.743h-1.22v5.084h-5.426v-5.084h-1.22v11.347h1.22v-5.179h5.426v5.179h1.22V137.743z"/>
<path fill="#FFFFFF" d="M300.084,137.743h-1.22v5.084h-5.426v-5.084h-1.22v11.347h1.22v-5.179h5.426v5.179h1.22V137.743z"/>
<path fill="#FFFFFF" d="M310.751,140.413c-0.134-0.611-0.426-1.139-0.875-1.585c-0.792-0.786-1.766-1.179-2.922-1.179
	c-1.156,0-2.13,0.393-2.921,1.179c-0.439,0.436-0.728,0.954-0.867,1.554c-0.139,0.6-0.209,1.32-0.209,2.16v0.876
	c0,1.317,0.059,2.292,0.177,2.924c0.118,0.632,0.417,1.188,0.899,1.666c0.792,0.786,1.766,1.179,2.921,1.179
	c1.156,0,2.13-0.393,2.922-1.179c0.481-0.478,0.781-1.033,0.899-1.666c0.118-0.632,0.177-1.607,0.177-2.924v-0.781
	C310.952,141.765,310.885,141.024,310.751,140.413z M309.7,145.282c-0.021,0.308-0.094,0.659-0.217,1.052
	c-0.123,0.393-0.308,0.712-0.554,0.956c-0.546,0.542-1.204,0.813-1.975,0.813c-0.771,0-1.429-0.271-1.974-0.813
	c-0.332-0.329-0.549-0.738-0.65-1.227c-0.102-0.489-0.153-1.105-0.153-1.849v-1.132c0-0.669,0.008-1.163,0.024-1.482
	s0.085-0.677,0.209-1.076c0.123-0.398,0.313-0.725,0.57-0.98c0.546-0.542,1.204-0.813,1.974-0.813c0.771,0,1.429,0.271,1.975,0.813
	c0.342,0.34,0.562,0.762,0.658,1.267c0.096,0.505,0.145,1.171,0.145,2v1.164C309.732,144.538,309.721,144.974,309.7,145.282z"/>
<path fill="#FFFFFF" d="M320.134,145.808c-0.15,0.701-0.468,1.259-0.955,1.673c-0.487,0.414-1.083,0.622-1.79,0.622
	c-0.803,0-1.461-0.266-1.975-0.797c-0.343-0.351-0.562-0.776-0.658-1.275c-0.096-0.499-0.145-1.371-0.145-2.613
	c0-1.243,0.048-2.114,0.145-2.614c0.096-0.5,0.315-0.924,0.658-1.275c0.514-0.531,1.172-0.797,1.975-0.797
	c0.706,0,1.297,0.207,1.774,0.622c0.476,0.414,0.789,0.972,0.939,1.673h1.252c-0.193-1.063-0.642-1.891-1.349-2.486
	c-0.706-0.595-1.579-0.892-2.616-0.892c-1.156,0-2.13,0.393-2.922,1.179c-0.492,0.489-0.794,1.028-0.907,1.618
	c-0.112,0.589-0.168,1.58-0.168,2.972c0,1.392,0.056,2.382,0.168,2.972c0.113,0.59,0.415,1.129,0.907,1.618
	c0.792,0.786,1.766,1.179,2.922,1.179c1.027,0,1.899-0.3,2.616-0.9c0.717-0.6,1.167-1.426,1.349-2.478H320.134z"/>
<path fill="#FFFFFF" d="M330.552,137.743h-7.834v1.084h3.307v10.263h1.22v-10.263h3.307V137.743z"/>
<path fill="#FFFFFF" d="M339.542,143.329c-0.642-0.611-1.499-0.917-2.568-0.917h-3.066v-4.669h-1.22v11.347h4.286
	c1.059,0,1.913-0.305,2.56-0.917c0.647-0.611,0.971-1.416,0.971-2.414C340.505,144.75,340.184,143.94,339.542,143.329z
	 M336.861,148.007h-2.954v-4.51h2.954c0.76,0,1.351,0.199,1.774,0.598c0.423,0.398,0.634,0.954,0.634,1.666
	s-0.211,1.264-0.634,1.657C338.212,147.81,337.621,148.007,336.861,148.007L336.861,148.007z"/>
<path fill="#FFFFFF" d="M49.338,143.329c-0.642-0.611-1.493-0.917-2.552-0.917h-3.098v-3.585h5.907v-1.084h-7.127v11.347h4.318
	c1.06,0,1.91-0.305,2.552-0.917c0.642-0.611,0.963-1.416,0.963-2.414C50.302,144.75,49.98,143.94,49.338,143.329z M46.673,148.007
	h-2.986v-4.51h2.986c0.76,0,1.351,0.199,1.774,0.598c0.423,0.398,0.634,0.954,0.634,1.666s-0.211,1.264-0.634,1.657
	C48.024,147.81,47.433,148.007,46.673,148.007L46.673,148.007z"/>
<path fill="#FFFFFF" d="M60.094,148.007h-5.875v-4.096h5.009v-1.084h-5.009v-4h5.875v-1.084h-7.095v11.347h7.095V148.007z"/>
<path fill="#FFFFFF" d="M68.569,148.301c0.717-0.589,1.076-1.368,1.076-2.334c0-1.371-0.61-2.279-1.83-2.725
	c1.102-0.5,1.654-1.36,1.654-2.582c0-0.914-0.329-1.644-0.987-2.191c-0.658-0.547-1.507-0.82-2.544-0.82
	c-1.049,0-1.927,0.297-2.633,0.892c-0.706,0.595-1.15,1.424-1.332,2.486h1.22c0.161-0.712,0.479-1.277,0.955-1.697
	c0.476-0.42,1.068-0.629,1.774-0.629c0.717,0,1.284,0.175,1.702,0.526c0.417,0.351,0.626,0.845,0.626,1.482
	c0,0.659-0.185,1.166-0.554,1.522c-0.369,0.356-0.886,0.534-1.549,0.534h-1.493v1.052h1.445c1.552,0,2.328,0.707,2.328,2.12
	c0,0.669-0.235,1.201-0.706,1.594s-1.075,0.589-1.814,0.589c-0.706,0-1.303-0.207-1.79-0.622c-0.487-0.414-0.805-0.977-0.955-1.689
	h-1.204c0.182,1.052,0.623,1.878,1.324,2.478c0.701,0.601,1.554,0.9,2.561,0.9C66.943,149.186,67.852,148.891,68.569,148.301z"/>
<path fill="#FFFFFF" d="M79.879,140.413c-0.134-0.611-0.425-1.139-0.875-1.585c-0.792-0.786-1.766-1.179-2.922-1.179
	s-2.13,0.393-2.922,1.179c-0.439,0.436-0.728,0.954-0.867,1.554c-0.139,0.6-0.209,1.32-0.209,2.16v0.876
	c0,1.317,0.059,2.292,0.177,2.924c0.118,0.632,0.417,1.188,0.899,1.666c0.792,0.786,1.766,1.179,2.922,1.179s2.13-0.393,2.922-1.179
	c0.481-0.478,0.781-1.033,0.899-1.666c0.118-0.632,0.177-1.607,0.177-2.924v-0.781C80.079,141.765,80.012,141.024,79.879,140.413z
	 M78.827,145.282c-0.021,0.308-0.094,0.659-0.217,1.052c-0.123,0.393-0.308,0.712-0.554,0.956c-0.546,0.542-1.204,0.813-1.975,0.813
	c-0.771,0-1.429-0.271-1.974-0.813c-0.332-0.329-0.549-0.738-0.65-1.227c-0.102-0.489-0.153-1.105-0.153-1.849v-1.132
	c0-0.669,0.008-1.163,0.024-1.482s0.085-0.677,0.208-1.076s0.313-0.725,0.57-0.98c0.546-0.542,1.204-0.813,1.974-0.813
	c0.771,0,1.429,0.271,1.975,0.813c0.342,0.34,0.562,0.762,0.658,1.267c0.096,0.505,0.145,1.171,0.145,2v1.164
	C78.859,144.538,78.849,144.974,78.827,145.282z"/>
<path fill="#FFFFFF" d="M90.803,137.743h-7.85v11.347h1.22v-10.263h5.41v10.263h1.22V137.743z"/>
<path fill="#FFFFFF" d="M97.898,137.743h-1.027l-4.206,11.347h1.3l0.915-2.566h4.992l0.915,2.566h1.3L97.898,137.743z
	 M95.249,145.473l2.151-5.992l2.119,5.992H95.249z"/>
<path fill="#FFFFFF" d="M110.082,145.808c-0.15,0.701-0.468,1.259-0.955,1.673c-0.487,0.414-1.083,0.622-1.79,0.622
	c-0.803,0-1.461-0.266-1.975-0.797c-0.343-0.351-0.562-0.776-0.658-1.275c-0.096-0.499-0.144-1.371-0.144-2.613
	c0-1.243,0.048-2.114,0.144-2.614c0.096-0.5,0.316-0.924,0.658-1.275c0.514-0.531,1.172-0.797,1.975-0.797
	c0.706,0,1.298,0.207,1.774,0.622c0.476,0.414,0.789,0.972,0.939,1.673h1.252c-0.193-1.063-0.642-1.891-1.348-2.486
	c-0.707-0.595-1.579-0.892-2.617-0.892c-1.156,0-2.13,0.393-2.922,1.179c-0.492,0.489-0.795,1.028-0.907,1.618
	c-0.113,0.589-0.169,1.58-0.169,2.972c0,1.392,0.056,2.382,0.169,2.972c0.112,0.59,0.415,1.129,0.907,1.618
	c0.792,0.786,1.766,1.179,2.922,1.179c1.027,0,1.9-0.3,2.617-0.9c0.717-0.6,1.166-1.426,1.348-2.478H110.082z"/>
<path fill="#FFFFFF" d="M121.865,137.743h-1.22v5.084h-5.426v-5.084h-1.22v11.347h1.22v-5.179h5.426v5.179h1.22V137.743z"/>
<path fill="#FFFFFF" d="M132.532,140.413c-0.134-0.611-0.426-1.139-0.875-1.585c-0.792-0.786-1.766-1.179-2.922-1.179
	s-2.13,0.393-2.922,1.179c-0.439,0.436-0.728,0.954-0.867,1.554s-0.208,1.32-0.208,2.16v0.876c0,1.317,0.059,2.292,0.177,2.924
	c0.118,0.632,0.417,1.188,0.899,1.666c0.792,0.786,1.766,1.179,2.922,1.179s2.13-0.393,2.922-1.179
	c0.482-0.478,0.781-1.033,0.899-1.666c0.118-0.632,0.177-1.607,0.177-2.924v-0.781C132.733,141.765,132.666,141.024,132.532,140.413
	z M131.481,145.282c-0.022,0.308-0.094,0.659-0.217,1.052s-0.308,0.712-0.554,0.956c-0.546,0.542-1.204,0.813-1.975,0.813
	s-1.429-0.271-1.974-0.813c-0.332-0.329-0.549-0.738-0.65-1.227c-0.102-0.489-0.152-1.105-0.152-1.849v-1.132
	c0-0.669,0.008-1.163,0.024-1.482c0.016-0.319,0.086-0.677,0.209-1.076s0.313-0.725,0.57-0.98c0.546-0.542,1.204-0.813,1.974-0.813
	s1.429,0.271,1.975,0.813c0.342,0.34,0.562,0.762,0.658,1.267c0.096,0.505,0.144,1.171,0.144,2v1.164
	C131.513,144.538,131.502,144.974,131.481,145.282z"/>
<path fill="#FFFFFF" d="M141.915,145.808c-0.15,0.701-0.468,1.259-0.955,1.673c-0.487,0.414-1.084,0.622-1.79,0.622
	c-0.803,0-1.461-0.266-1.975-0.797c-0.343-0.351-0.562-0.776-0.658-1.275c-0.096-0.499-0.145-1.371-0.145-2.613
	c0-1.243,0.048-2.114,0.145-2.614c0.096-0.5,0.315-0.924,0.658-1.275c0.514-0.531,1.172-0.797,1.975-0.797
	c0.706,0,1.298,0.207,1.774,0.622c0.476,0.414,0.789,0.972,0.939,1.673h1.252c-0.193-1.063-0.642-1.891-1.348-2.486
	c-0.706-0.595-1.579-0.892-2.617-0.892c-1.156,0-2.13,0.393-2.922,1.179c-0.492,0.489-0.795,1.028-0.907,1.618
	c-0.112,0.589-0.168,1.58-0.168,2.972c0,1.392,0.056,2.382,0.168,2.972s0.415,1.129,0.907,1.618
	c0.792,0.786,1.766,1.179,2.922,1.179c1.028,0,1.9-0.3,2.617-0.9c0.717-0.6,1.167-1.426,1.348-2.478H141.915z"/>
<path fill="#FFFFFF" d="M152.333,137.743H144.5v1.084h3.307v10.263h1.22v-10.263h3.307V137.743z"/>
<path fill="#FFFFFF" d="M161.323,143.329c-0.642-0.611-1.499-0.917-2.569-0.917h-3.066v-4.669h-1.22v11.347h4.286
	c1.06,0,1.913-0.305,2.561-0.917c0.647-0.611,0.971-1.416,0.971-2.414C162.286,144.75,161.965,143.94,161.323,143.329z
	 M158.642,148.007h-2.954v-4.51h2.954c0.76,0,1.351,0.199,1.774,0.598c0.423,0.398,0.634,0.954,0.634,1.666
	s-0.211,1.264-0.634,1.657C159.993,147.81,159.402,148.007,158.642,148.007L158.642,148.007z"/>
<path fill="#FFFFFF" d="M424.014,137.743l-2.777,6.709l-3.083-6.709h-1.3l3.772,8.064l-0.465,1.067
	c-0.171,0.404-0.369,0.693-0.594,0.869c-0.225,0.175-0.529,0.263-0.915,0.263h-0.723v1.083h0.995c0.985,0,1.734-0.59,2.248-1.769
	l4.142-9.578H424.014z"/>
<path fill="#FFFFFF" d="M434.962,137.743h-7.85v11.347h1.22v-10.263h5.41v10.263h1.22V137.743z"/>
<path fill="#FFFFFF" d="M445.1,138.66c-0.647-0.611-1.501-0.917-2.561-0.917h-4.254v11.347h1.22v-4.669h3.034
	c1.06,0,1.913-0.305,2.561-0.917c0.647-0.611,0.971-1.421,0.971-2.43C446.071,140.076,445.747,139.271,445.1,138.66z
	 M442.427,143.337h-2.921v-4.51h2.921c0.76,0,1.354,0.197,1.782,0.589c0.428,0.394,0.642,0.946,0.642,1.658
	s-0.214,1.267-0.642,1.666C443.781,143.138,443.187,143.337,442.427,143.337L442.427,143.337z"/>
<path fill="#FFFFFF" d="M451.369,137.743h-1.027l-4.206,11.347h1.3l0.915-2.566h4.992l0.915,2.566h1.3L451.369,137.743z
	 M448.72,145.473l2.151-5.992l2.119,5.992H448.72z"/>
<path fill="#FFFFFF" d="M464.403,143.879c-0.225-0.223-0.562-0.43-1.011-0.622c0.385-0.17,0.668-0.345,0.851-0.526
	c0.557-0.521,0.835-1.189,0.835-2.008c0-0.893-0.311-1.612-0.931-2.16c-0.621-0.547-1.434-0.821-2.44-0.821h-4.302v11.347h4.447
	c1.059,0,1.891-0.276,2.496-0.829c0.604-0.552,0.907-1.312,0.907-2.279C465.254,145.122,464.971,144.421,464.403,143.879
	L464.403,143.879z M461.61,142.763h-2.986v-3.936h2.986c0.706,0,1.257,0.173,1.653,0.518c0.396,0.346,0.594,0.827,0.594,1.442
	c0,0.617-0.198,1.1-0.594,1.45C462.868,142.588,462.316,142.763,461.61,142.763L461.61,142.763z M461.738,148.007h-3.114v-4.16
	h3.114c0.707,0,1.266,0.186,1.678,0.558c0.412,0.372,0.618,0.877,0.618,1.514c0,0.638-0.206,1.145-0.618,1.522
	C463.004,147.818,462.445,148.007,461.738,148.007L461.738,148.007z"/>
<path fill="#FFFFFF" d="M475.368,137.743h-6.293v4.606c0,1.147-0.059,2.104-0.176,2.869c-0.118,0.765-0.289,1.344-0.514,1.737
	c-0.225,0.394-0.474,0.667-0.747,0.821c-0.273,0.154-0.602,0.231-0.987,0.231h-0.305v1.083h0.578c1.134,0,1.975-0.483,2.521-1.45
	s0.818-2.608,0.818-4.924v-3.889h3.885v10.263h1.22V137.743z"/>
<path fill="#FFFFFF" d="M485.77,148.007h-5.875v-4.096h5.008v-1.084h-5.008v-4h5.875v-1.084h-7.096v11.347h7.096V148.007z"/>
<path fill="#FFFFFF" d="M496.172,137.743h-1.22v5.084h-5.426v-5.084h-1.22v11.347h1.22v-5.179h5.426v5.179h1.22V137.743z"/>
<path fill="#FFFFFF" d="M507.666,137.743h-1.156l-5.811,9.244v-9.244h-1.22v11.347h1.156l5.811-9.259v9.259h1.22V137.743z"/>
<path fill="#FFFFFF" d="M518.068,148.007h-5.875v-4.096h5.008v-1.084h-5.008v-4h5.875v-1.084h-7.096v11.347h7.096V148.007z"/>
<path fill="#FFFFFF" d="M20.648,0.479L14.15,16.893L6.979,0.479H0l10.974,23.64l-1.011,2.345c-0.642,1.436-1.829,2.153-3.562,2.153
	H3.706v5.934h4.091c3.465,0,6.016-1.914,7.653-5.743l12.129-28.33H20.648z"/>
<path fill="#FFFFFF" d="M56.842,9.619h-6.161l-6.594,13.112L37.445,9.619h-6.209v24.933h6.305V20.147l4.765,9.236h3.562l4.717-9.236
	v14.404h6.257V9.619z"/>
<path fill="#FFFFFF" d="M84.468,9.619h-6.305v9.428h-8.038V9.619H63.82v24.933h6.305V24.55h8.038v10.001h6.305V9.619z"/>
<path fill="#FFFFFF" d="M120.999,9.619h-6.305v24.933h6.305V9.619z M103.383,18.616h-5.679V9.619h-6.305v24.933h11.984
	c2.47,0,4.484-0.742,6.041-2.225c1.556-1.484,2.334-3.405,2.334-5.767c0-2.361-0.778-4.275-2.334-5.743
	C107.867,19.35,105.854,18.616,103.383,18.616L103.383,18.616z M104.659,24.334c0.593,0.559,0.89,1.3,0.89,2.225
	c0,0.957-0.297,1.715-0.89,2.273c-0.594,0.559-1.404,0.837-2.431,0.837h-4.717v-6.173h4.717
	C103.255,23.497,104.065,23.776,104.659,24.334z"/>
<path fill="#FFFFFF" d="M141.887,0c-0.129,1.979-1.155,2.967-3.081,2.967c-1.925,0-2.952-0.989-3.08-2.967h-4.717
	c0.096,2.393,0.882,4.132,2.358,5.216c1.476,1.085,3.289,1.627,5.439,1.627c2.149,0,3.971-0.542,5.463-1.627
	c1.492-1.084,2.27-2.823,2.334-5.216H141.887z M149.54,9.619h-6.305l-8.808,14.835V9.619h-6.305v24.933h6.305l8.808-15.218v15.218
	h6.305V9.619z"/>
<path fill="#FFFFFF" d="M190.979,29.048h-3.177V9.619h-18.001v7.609c0,4.977-0.818,8.917-2.455,11.82h-2.551v11.629h5.92v-6.125
	h14.343v6.125h5.92V29.048z M173.893,29.048c1.283-2.615,1.925-6.173,1.925-10.671v-3.254h5.728v13.926H173.893z"/>
<path fill="#FFFFFF" d="M215.116,16.175c-0.433-1.436-1.163-2.695-2.19-3.78c-1.958-2.042-4.557-3.063-7.797-3.063
	c-3.209,0-5.792,1.021-7.749,3.063c-1.027,1.117-1.757,2.393-2.19,3.829c-0.433,1.436-0.65,3.382-0.65,5.838
	c0,2.489,0.208,4.459,0.625,5.91c0.417,1.452,1.155,2.72,2.214,3.805c1.957,2.042,4.54,3.063,7.749,3.063
	c3.24,0,5.84-1.021,7.797-3.063c1.059-1.084,1.797-2.353,2.214-3.805c0.417-1.451,0.626-3.453,0.626-6.006
	C215.766,19.542,215.549,17.611,215.116,16.175z M209.461,24.071c-0.032,0.542-0.129,1.172-0.289,1.89
	c-0.161,0.718-0.385,1.292-0.674,1.723s-0.722,0.798-1.3,1.101c-0.578,0.304-1.268,0.455-2.07,0.455
	c-1.509,0-2.607-0.534-3.297-1.603c-0.69-1.068-1.035-2.799-1.035-5.192c0-0.861,0.008-1.547,0.024-2.058
	c0.016-0.51,0.104-1.156,0.265-1.938c0.16-0.781,0.385-1.396,0.674-1.842s0.714-0.838,1.276-1.173
	c0.561-0.335,1.259-0.502,2.094-0.502c0.994,0,1.805,0.208,2.431,0.622c0.626,0.415,1.066,1.013,1.323,1.795
	c0.257,0.782,0.425,1.516,0.505,2.201c0.08,0.687,0.12,1.524,0.12,2.512C209.509,22.859,209.492,23.529,209.461,24.071z"/>
<path fill="#FFFFFF" d="M247.292,9.619h-6.161l-6.594,13.112l-6.642-13.112h-6.209v24.933h6.305V20.147l4.765,9.236h3.562
	l4.717-9.236v14.404h6.257V9.619z"/>
<path fill="#FFFFFF" d="M288.201,28.617h-15.546V0.479h-6.69v34.073h22.236V28.617z"/>
<path fill="#FFFFFF" d="M299.416,9.619h-6.257v24.933h6.257V9.619z M299.464,0.287h-6.401V5.36h6.401V0.287z"/>
<path fill="#FFFFFF" d="M318.042,10.337h-4.621V7.609c0-1.499,0.722-2.249,2.166-2.249h2.455V0.096h-3.562
	c-2.375,0-4.188,0.702-5.439,2.106c-1.251,1.404-1.877,3.079-1.877,5.024v3.111h-2.599v4.737h2.599v19.477h6.257V15.074h4.621
	V10.337z"/>
<path fill="#FFFFFF" d="M342.685,21.248c0-3.509-0.971-6.372-2.912-8.59c-1.942-2.217-4.613-3.326-8.014-3.326
	c-3.305,0-5.952,1.125-7.942,3.374c-1.99,2.249-2.984,5.368-2.984,9.355c0,2.425,0.321,4.499,0.963,6.221
	c0.641,1.723,1.523,3.047,2.647,3.972c1.123,0.925,2.334,1.587,3.634,1.986c1.299,0.398,2.751,0.598,4.356,0.598
	c2.149,0,3.93-0.311,5.343-0.933c1.412-0.622,2.807-1.619,4.187-2.991l-3.802-3.685c-0.835,0.83-1.661,1.428-2.479,1.794
	c-0.818,0.367-1.885,0.55-3.201,0.55c-1.701,0-3.041-0.51-4.019-1.531c-0.979-1.021-1.468-2.36-1.468-4.02h15.69V21.248z
	 M326.994,19.764c0.031-0.989,0.224-1.882,0.577-2.68c0.77-1.723,2.166-2.584,4.188-2.584s3.417,0.861,4.187,2.584
	c0.353,0.798,0.545,1.691,0.578,2.68H326.994z"/>
<path fill="#FFFFFF" d="M377.386,24.071c-0.802,3.223-2.728,4.833-5.776,4.833c-1.861,0-3.29-0.59-4.284-1.771
	c-0.706-0.733-1.163-1.699-1.372-2.895c-0.209-1.197-0.313-3.438-0.313-6.724c0-3.286,0.104-5.527,0.313-6.724
	c0.208-1.196,0.666-2.161,1.372-2.896c0.994-1.18,2.422-1.771,4.284-1.771c3.048,0,4.973,1.611,5.776,4.833h6.786
	c-0.578-3.414-1.99-6.061-4.236-7.944c-2.246-1.882-5.038-2.824-8.375-2.824c-3.658,0-6.738,1.245-9.241,3.733
	c-1.476,1.468-2.406,3.175-2.792,5.121c-0.385,1.914-0.578,4.737-0.578,8.47c0,3.732,0.193,6.556,0.578,8.47
	c0.385,1.946,1.315,3.653,2.792,5.121c2.503,2.488,5.583,3.732,9.241,3.732c3.337,0,6.128-0.94,8.375-2.823
	c2.246-1.882,3.658-4.53,4.236-7.944H377.386z"/>
<path fill="#FFFFFF" d="M409.032,16.295c-0.401-1.484-1.147-2.783-2.238-3.9c-1.925-2.042-4.524-3.063-7.797-3.063
	c-3.241,0-5.824,1.021-7.749,3.063c-1.091,1.117-1.837,2.417-2.238,3.9c-0.402,1.483-0.602,3.406-0.602,5.766
	c0,2.393,0.2,4.331,0.602,5.814c0.401,1.483,1.147,2.784,2.238,3.9c1.925,2.042,4.508,3.063,7.749,3.063
	c3.273,0,5.872-1.021,7.797-3.063c1.091-1.117,1.837-2.417,2.238-3.9c0.401-1.483,0.602-3.421,0.602-5.814
	C409.633,19.701,409.433,17.778,409.032,16.295z M401.933,28.139c-0.739,0.734-1.717,1.101-2.936,1.101
	c-1.188,0-2.15-0.366-2.888-1.101c-0.963-0.957-1.444-2.983-1.444-6.078c0-3.063,0.481-5.072,1.444-6.029
	c0.738-0.734,1.7-1.101,2.888-1.101c1.219,0,2.198,0.367,2.936,1.101c0.962,0.957,1.444,2.967,1.444,6.029
	C403.376,25.156,402.895,27.182,401.933,28.139L401.933,28.139z"/>
<path fill="#FFFFFF" d="M436.442,18.616c0-3.031-0.851-5.391-2.551-7.083c-1.476-1.467-3.45-2.201-5.92-2.201
	c-2.535,0-4.621,0.861-6.257,2.584V9.619h-6.112v24.933h6.257V19.477c0-1.563,0.409-2.711,1.228-3.445
	c0.818-0.734,1.805-1.101,2.96-1.101c1.123,0,2.094,0.367,2.912,1.101c0.818,0.734,1.228,1.883,1.228,3.445v15.074h6.257V18.616z"/>
<path fill="#FFFFFF" d="M454.443,29.287h-2.262c-1.444,0-2.166-0.749-2.166-2.249V15.074h4.428v-4.737h-4.428v-7.37h-6.257v7.37
	h-2.647v4.737h2.647v12.347c0,1.946,0.617,3.621,1.853,5.025c1.235,1.404,3.04,2.105,5.415,2.105h3.417V29.287z"/>
<path fill="#FFFFFF" d="M472.539,9.332c-1.284,0-2.495,0.255-3.634,0.766c-1.139,0.511-2.03,1.148-2.671,1.914V9.619h-6.113v24.933
	h6.257V19.525c0-1.467,0.409-2.6,1.228-3.397s1.757-1.197,2.815-1.197c1.219,0,2.326,0.495,3.321,1.484l4.717-4.738
	C476.887,10.114,474.914,9.332,472.539,9.332L472.539,9.332z"/>
<path fill="#FFFFFF" d="M500.094,16.295c-0.401-1.484-1.147-2.783-2.238-3.9c-1.925-2.042-4.524-3.063-7.797-3.063
	c-3.241,0-5.824,1.021-7.749,3.063c-1.091,1.117-1.837,2.417-2.238,3.9c-0.401,1.483-0.602,3.406-0.602,5.766
	c0,2.393,0.2,4.331,0.602,5.814c0.401,1.483,1.147,2.784,2.238,3.9c1.925,2.042,4.508,3.063,7.749,3.063
	c3.273,0,5.872-1.021,7.797-3.063c1.091-1.117,1.837-2.417,2.238-3.9c0.401-1.483,0.602-3.421,0.602-5.814
	C500.695,19.701,500.495,17.778,500.094,16.295z M492.995,28.139c-0.739,0.734-1.717,1.101-2.936,1.101
	c-1.188,0-2.15-0.366-2.888-1.101c-0.963-0.957-1.444-2.983-1.444-6.078c0-3.063,0.481-5.072,1.444-6.029
	c0.738-0.734,1.7-1.101,2.888-1.101c1.219,0,2.197,0.367,2.936,1.101c0.962,0.957,1.444,2.967,1.444,6.029
	C494.438,25.156,493.957,27.182,492.995,28.139L492.995,28.139z"/>
<path fill="#FFFFFF" d="M517.3,29.287h-2.406c-1.477,0-2.214-0.749-2.214-2.249V0.479h-6.257v26.942
	c0,1.946,0.617,3.621,1.853,5.025c1.235,1.404,3.056,2.105,5.463,2.105h3.562V29.287z"/>
<path fill="#FFFFFF" d="M27.226,83.927h-3.021V65.451H7.088v7.236c0,4.732-0.778,8.48-2.334,11.24H2.328v11.058h5.63V89.16h13.639
	v5.825h5.63V83.927z M10.978,83.927c1.22-2.487,1.831-5.871,1.831-10.148v-3.094h5.447v13.243H10.978z"/>
<path fill="#FFFFFF" d="M51.072,65.451H33.634v9.602c0,2.033-0.099,3.686-0.298,4.96c-0.199,1.274-0.519,2.177-0.961,2.708
	c-0.443,0.531-0.847,0.865-1.213,1.001c-0.366,0.137-0.87,0.205-1.51,0.205h-0.732v5.233h2.838c2.593,0,4.516-0.925,5.767-2.776
	c1.251-1.85,1.876-5.188,1.876-10.011v-5.688h5.721V89.16h5.95V65.451z"/>
<path fill="#FFFFFF" d="M65.077,76.054c-0.977,0-1.747-0.265-2.311-0.796c-0.565-0.53-0.847-1.236-0.847-2.116
	c0-0.911,0.282-1.631,0.847-2.162c0.564-0.531,1.334-0.796,2.311-0.796h4.668v5.87H65.077z M66.45,80.741h3.204v8.418h5.95V65.451
	h-11.58c-2.319,0-4.219,0.698-5.698,2.093c-1.48,1.396-2.22,3.171-2.22,5.324c0,1.578,0.396,2.943,1.19,4.096
	c0.793,1.153,1.876,1.987,3.25,2.503L55.74,89.16h6.774L66.45,80.741z"/>
<path fill="#FFFFFF" d="M106.177,82.243c-0.732,0.728-1.366,1.222-1.899,1.479c-0.534,0.258-1.183,0.387-1.945,0.387
	c-3.143,0-4.714-2.275-4.714-6.826c0-4.521,1.571-6.781,4.714-6.781c1.342,0,2.624,0.622,3.844,1.866l4.028-4.004
	c-1.16-1.092-2.288-1.881-3.387-2.367c-1.281-0.546-2.762-0.819-4.44-0.819c-3.357,0-5.981,1.054-7.872,3.163
	c-1.892,2.109-2.838,5.029-2.838,8.76c0,3.944,0.93,6.985,2.792,9.124c1.861,2.139,4.5,3.208,7.918,3.208
	c1.678,0,3.158-0.288,4.44-0.865c1.098-0.485,2.227-1.274,3.387-2.366L106.177,82.243z"/>
<path fill="#FFFFFF" d="M134.417,76.509c0-3.428-0.946-6.173-2.838-8.237c-1.892-2.063-4.41-3.094-7.552-3.094
	c-3.204,0-5.737,1.085-7.598,3.254c-1.862,2.169-2.792,5.104-2.792,8.805c0,8.131,3.692,12.196,11.076,12.196
	c1.831,0,3.463-0.288,4.897-0.865c1.312-0.546,2.685-1.502,4.119-2.867l-3.616-3.504c-0.885,0.85-1.694,1.426-2.426,1.729
	c-0.824,0.334-1.739,0.5-2.746,0.5c-3.448,0-5.263-1.759-5.447-5.279h14.921V76.509z M119.496,75.098
	c0.061-1.607,0.488-2.844,1.281-3.709c0.793-0.864,1.877-1.297,3.25-1.297s2.449,0.433,3.227,1.297
	c0.778,0.865,1.213,2.102,1.304,3.709H119.496z"/>
<path fill="#FFFFFF" d="M164.212,65.451h-5.858l-6.271,12.469l-6.316-12.469h-5.904V89.16h5.996V75.462l4.531,8.783h3.387
	l4.485-8.783V89.16h5.95V65.451z"/>
<path fill="#FFFFFF" d="M182.336,74.006h-5.492v-8.555h-5.996V89.16h11.488c2.318,0,4.218-0.705,5.698-2.116
	c1.48-1.411,2.22-3.238,2.22-5.484c0-2.245-0.732-4.065-2.197-5.46S184.685,74.006,182.336,74.006L182.336,74.006z M183.503,79.444
	c0.564,0.531,0.847,1.236,0.847,2.116c0,0.91-0.282,1.631-0.847,2.162c-0.565,0.531-1.32,0.796-2.266,0.796h-4.577v-5.87h4.577
	C182.183,78.648,182.938,78.914,183.503,79.444z"/>
<path fill="#FFFFFF" d="M215.427,65.451h-5.996l-8.376,14.107V65.451h-5.996V89.16h5.996l8.376-14.471V89.16h5.996V65.451z"/>
<path fill="#FFFFFF" d="M253.003,65.451h-5.996l-8.376,14.107V65.451h-5.996V89.16h5.996l8.376-14.471V89.16h5.996V65.451z"/>
<path fill="#FFFFFF" d="M276.894,82.971c-0.885-0.97-1.327-2.867-1.327-5.688c0-2.549,0.396-4.338,1.19-5.37
	c0.671-0.819,1.663-1.229,2.975-1.229c1.312,0,2.289,0.425,2.929,1.274c0.793,0.972,1.19,2.761,1.19,5.37
	c0,2.73-0.412,4.596-1.236,5.597c-0.671,0.79-1.633,1.183-2.883,1.183C278.48,84.108,277.534,83.729,276.894,82.971L276.894,82.971z
	 M286.871,86.703c1.037-1.092,1.785-2.366,2.243-3.823c0.458-1.456,0.686-3.352,0.686-5.688c0-4.52-1.007-7.721-3.021-9.602
	c-1.435-1.274-3.387-1.911-5.859-1.911c-1.281,0-2.479,0.258-3.593,0.773c-1.114,0.516-1.899,1.168-2.357,1.957
	c0-1.426,0.229-2.548,0.687-3.368c0.458-0.819,1.236-1.517,2.334-2.093c0.641-0.333,1.411-0.592,2.311-0.773
	c0.9-0.182,1.694-0.296,2.38-0.341c0.687-0.046,1.586-0.091,2.7-0.137c1.114-0.045,1.899-0.083,2.357-0.114v-5.097
	c-3.936,0.03-6.965,0.212-9.085,0.546c-2.121,0.334-3.867,1.032-5.24,2.093c-1.068,0.819-1.854,1.775-2.357,2.867
	s-0.87,2.647-1.098,4.665c-0.229,2.018-0.343,4.908-0.343,8.669c0,4.945,0.641,8.419,1.922,10.421
	c1.586,2.457,4.348,3.686,8.284,3.686C282.782,89.433,285.132,88.523,286.871,86.703L286.871,86.703z"/>
<path fill="#FFFFFF" d="M314.333,65.451h-17.438v9.602c0,2.033-0.099,3.686-0.298,4.96c-0.199,1.274-0.519,2.177-0.961,2.708
	c-0.443,0.531-0.847,0.865-1.213,1.001c-0.366,0.137-0.87,0.205-1.51,0.205h-0.732v5.233h2.838c2.593,0,4.516-0.925,5.767-2.776
	c1.251-1.85,1.876-5.188,1.876-10.011v-5.688h5.721V89.16h5.95V65.451z"/>
<path fill="#FFFFFF" d="M341.336,65.451h-5.996l-8.376,14.107V65.451h-5.996V89.16h5.996l8.376-14.471V89.16h5.996V65.451z"/>
<path fill="#FFFFFF" d="M363.969,78.83c-0.656-0.97-1.533-1.684-2.632-2.139c0.976-0.455,1.762-1.138,2.357-2.048
	s0.893-1.926,0.893-3.049c0-2.002-0.847-3.572-2.54-4.71s-3.746-1.707-6.156-1.707c-4.089,0-7.308,0.926-9.657,2.776l3.295,3.641
	c1.556-1.092,3.28-1.638,5.172-1.638c2.685,0,4.028,0.804,4.028,2.412c0,0.79-0.29,1.418-0.87,1.889
	c-0.58,0.471-1.358,0.706-2.334,0.706H352v4.232h3.616c2.289,0,3.433,0.85,3.433,2.548c0,0.85-0.412,1.51-1.236,1.979
	c-0.824,0.471-1.801,0.706-2.929,0.706c-2.442,0-4.456-0.698-6.042-2.093l-3.433,3.731c2.502,2.246,5.98,3.368,10.435,3.368
	c2.532,0,4.684-0.675,6.454-2.025c1.769-1.35,2.655-3.102,2.655-5.256C364.953,80.908,364.625,79.801,363.969,78.83z"/>
<path fill="#FFFFFF" d="M376.669,76.782l8.193,12.377h7.14l-8.971-12.651l8.422-11.058h-6.957l-7.826,11.24v-11.24h-5.996V89.16
	h5.996V76.782z"/>
<path fill="#FFFFFF" d="M415.39,65.451h-5.996l-8.376,14.107V65.451h-5.996V89.16h5.996l8.376-14.471V89.16h5.996V65.451z"/>
<path fill="#FFFFFF" d="M434.018,77.055l7.918-11.604h-7.14l-4.074,6.78l-4.027-6.78h-7.14l7.918,11.604l-8.238,12.104h7.14
	l4.348-7.099l4.394,7.099h7.14L434.018,77.055z"/>
<path fill="#FFFFFF" d="M458.32,65.906c-1.16,0.486-2.365,1.305-3.616,2.458l3.982,3.914c1.281-1.274,2.563-1.912,3.845-1.912
	c2.715,0,4.302,1.593,4.76,4.778h-7.003v4.05h7.003c-0.366,3.368-1.938,5.051-4.714,5.051c-0.763,0-1.427-0.144-1.991-0.432
	c-0.565-0.288-1.198-0.781-1.899-1.479l-3.982,3.914c1.25,1.153,2.456,1.972,3.616,2.458c1.159,0.485,2.563,0.728,4.211,0.728
	c3.417,0,6.056-1.062,7.918-3.186c1.861-2.123,2.792-5.157,2.792-9.102c0-3.792-0.938-6.735-2.815-8.829
	c-1.876-2.093-4.508-3.14-7.895-3.14C460.883,65.178,459.479,65.421,458.32,65.906z"/>
<path fill="#FFFFFF" d="M495.302,65.451h-19.864v5.233h7.002V89.16h5.996V70.684h6.865V65.451z"/>
<path fill="#FFFFFF" d="M517.248,71.685c-0.412-1.365-1.106-2.563-2.082-3.595c-1.862-1.941-4.333-2.913-7.415-2.913
	c-3.051,0-5.508,0.971-7.369,2.913c-0.977,1.062-1.67,2.275-2.083,3.641c-0.412,1.365-0.618,3.216-0.618,5.552
	c0,2.366,0.198,4.24,0.595,5.62c0.396,1.381,1.099,2.587,2.105,3.618c1.861,1.942,4.317,2.913,7.369,2.913
	c3.082,0,5.553-0.971,7.415-2.913c1.007-1.031,1.708-2.237,2.105-3.618c0.396-1.38,0.595-3.284,0.595-5.711
	C517.866,74.886,517.66,73.05,517.248,71.685z M511.871,79.194c-0.031,0.516-0.123,1.115-0.275,1.797
	c-0.153,0.683-0.366,1.229-0.641,1.638c-0.274,0.41-0.687,0.759-1.236,1.047c-0.549,0.289-1.206,0.432-1.968,0.432
	c-1.435,0-2.479-0.507-3.135-1.524c-0.657-1.016-0.984-2.662-0.984-4.938c0-0.819,0.007-1.471,0.023-1.957
	c0.015-0.485,0.099-1.1,0.251-1.843c0.153-0.743,0.366-1.327,0.641-1.752c0.274-0.424,0.679-0.796,1.213-1.115
	c0.534-0.319,1.197-0.478,1.991-0.478c0.946,0,1.717,0.198,2.312,0.592c0.595,0.395,1.014,0.963,1.259,1.707
	c0.244,0.744,0.404,1.441,0.48,2.093c0.076,0.653,0.114,1.449,0.114,2.389C511.916,78.041,511.9,78.678,511.871,79.194z"/>
<g>
	<path fill="#FFFFFF" d="M25.052,141.62h-3.162v-7.264c0-2.404-1.955-4.36-4.36-4.36h-5.813c-2.401,0-4.359,1.956-4.359,4.36v7.264
		H4.196c-1.595,5.702-1.595,11.736,0,17.437h20.856C26.65,153.355,26.65,147.321,25.052,141.62 M10.266,134.355
		c0-0.801,0.652-1.454,1.453-1.454h5.813c0.803,0,1.453,0.652,1.453,1.454v7.264h-8.718V134.355z M13.415,154.301l-3.448-3.447
		l2.052-2.056l1.396,1.396l3.817-3.817l2.054,2.055L13.415,154.301z"/>
</g>
<g>
	<path fill="#FFFFFF" d="M215.886,132.927l-12.609-2.933l-12.613,2.964c0,0-0.282,2.335-0.282,3.555v13.836
		c0,3.091,4.935,7.261,12.892,8.706c7.961-1.457,12.898-5.627,12.898-8.715v-13.858
		C216.171,135.275,215.886,132.927,215.886,132.927 M198.362,149.436l-2.055,2.056c-3.842-3.841-3.842-10.092,0-13.934l2.055,2.053
		C195.655,142.322,195.655,146.73,198.362,149.436 M200.193,147.606c-0.823-0.821-1.276-1.918-1.276-3.081
		c0-1.165,0.455-2.261,1.276-3.082l2.056,2.054c-0.274,0.276-0.426,0.641-0.426,1.028c0,0.387,0.152,0.75,0.426,1.028
		L200.193,147.606z M206.357,147.606l-2.052-2.053c0.275-0.278,0.426-0.641,0.426-1.028c0-0.387-0.15-0.752-0.426-1.028l2.052-2.054
		c0.825,0.821,1.279,1.917,1.279,3.082C207.636,145.688,207.182,146.785,206.357,147.606 M210.244,151.492l-2.056-2.056
		c2.711-2.706,2.711-7.114,0-9.825l2.056-2.053C214.085,141.4,214.085,147.651,210.244,151.492"/>
</g>
<path fill="#FFFFFF" d="M401.936,141.079l-3.917-1.634c-0.066-0.175-0.135-0.346-0.208-0.516l1.582-3.947l0.145-0.364l-0.276-0.281
	l-2.459-2.465l-0.281-0.278l-0.37,0.152l-3.904,1.608c-0.178-0.08-0.354-0.151-0.54-0.223l-1.661-3.899l-0.153-0.361h-0.394h-3.48
	h-0.398l-0.151,0.364l-1.619,3.88c-0.195,0.074-0.388,0.148-0.576,0.232l-3.9-1.569l-0.364-0.146l-0.28,0.279l-2.459,2.461
	l-0.283,0.28l0.154,0.371l1.585,3.863c-0.088,0.194-0.167,0.396-0.243,0.599l-3.855,1.65l-0.362,0.157v0.394v3.482v0.398
	l0.367,0.151l3.855,1.611c0.077,0.2,0.157,0.403,0.246,0.601l-1.559,3.886l-0.145,0.37l0.274,0.277l2.46,2.462l0.283,0.283
	l0.37-0.152l3.868-1.593c0.192,0.078,0.385,0.151,0.581,0.223l1.66,3.881l4.581-0.004l1.619-3.906
	c0.182-0.068,0.36-0.141,0.534-0.219l3.934,1.577l0.37,0.147l0.278-0.277l2.462-2.466l0.278-0.28l-0.148-0.367l-1.617-3.917
	c0.074-0.169,0.141-0.344,0.204-0.516l3.923-1.674l0.364-0.155v-0.394v-3.482v-0.399L401.936,141.079z M387.45,150.59l-2.6-1.3
	l2.219-4.437h-3.271l4.322-8.641l2.598,1.299l-2.217,4.437h3.268L387.45,150.59z"/>
</svg>
