<?xml version="1.0" encoding="utf-8"?>
<!-- Generator: Adobe Illustrator 16.0.0, SVG Export Plug-In . SVG Version: 6.00 Build 0)  -->
<!DOCTYPE svg PUBLIC "-//W3C//DTD SVG 1.0//EN" "http://www.w3.org/TR/2001/REC-SVG-20010904/DTD/svg10.dtd">
<svg version="1.0" id="Слой_1" xmlns="http://www.w3.org/2000/svg" xmlns:xlink="http://www.w3.org/1999/xlink" x="0px" y="0px"
	 width="74.012px" height="78.296px" viewBox="0 -4.704 74.012 78.296" enable-background="new 0 -4.704 74.012 78.296"
	 xml:space="preserve">
<g>
	
		<rect x="12.826" y="5.413" fill="none" stroke="#FFFFFF" stroke-width="3" stroke-linecap="round" stroke-linejoin="round" stroke-miterlimit="10" width="42.725" height="29.103"/>
	
		<line fill="none" stroke="#FFFFFF" stroke-width="3" stroke-linecap="round" stroke-linejoin="round" stroke-miterlimit="10" x1="23.686" y1="41" x2="44.691" y2="41"/>
	<g>
		<line fill="none" stroke="#FFFFFF" stroke-width="3" stroke-miterlimit="10" x1="28.835" y1="34.759" x2="28.835" y2="41"/>
		<line fill="none" stroke="#FFFFFF" stroke-width="3" stroke-miterlimit="10" x1="39.543" y1="34.759" x2="39.543" y2="41"/>
	</g>
	<polyline fill="none" stroke="#FFFFFF" stroke-linecap="round" stroke-linejoin="round" stroke-miterlimit="10" points="
		17.454,22.311 23.11,22.311 25.356,27.89 29.462,12.394 34.034,29.052 35.895,22.62 38.838,22.62 41.084,10.302 43.1,22.311 
		50.924,22.311 	"/>
</g>
<g>
	<path fill="#FFFFFF" d="M7.939,70.392h1.443l-4.08-10.664h-1.23L0,70.392h1.45l1.003-2.783h4.468L7.939,70.392z M4.688,61.463
		l1.816,4.987H2.878L4.688,61.463z"/>
	<path fill="#FFFFFF" d="M17.08,62.466h-1.355v3.436h-3.64v-3.436h-1.362v7.926h1.362v-3.385h3.64v3.385h1.355V62.466z"/>
	<path fill="#FFFFFF" d="M25.144,62.466h-6.621v1.1h2.607v6.826h1.354v-6.826h2.659V62.466z"/>
	<path fill="#FFFFFF" d="M27.935,68.252v-5.786H26.58v7.926h1.354l3.655-5.779v5.779h1.354v-7.926H31.59L27.935,68.252z"/>
	<path fill="#FFFFFF" d="M38.84,70.392c0.475,0,0.897-0.049,1.275-0.144c0.375-0.097,0.694-0.235,0.959-0.422
		c0.264-0.187,0.467-0.418,0.606-0.699c0.144-0.28,0.213-0.608,0.213-0.983c0-0.211-0.034-0.414-0.103-0.608
		c-0.069-0.195-0.17-0.375-0.308-0.535c-0.137-0.162-0.304-0.302-0.502-0.422c-0.196-0.119-0.424-0.209-0.678-0.269
		c0.43-0.156,0.755-0.381,0.975-0.677c0.221-0.296,0.33-0.626,0.33-0.993c0-0.369-0.075-0.691-0.228-0.967
		c-0.151-0.271-0.368-0.499-0.651-0.677c-0.283-0.179-0.628-0.312-1.033-0.399c-0.404-0.087-0.858-0.132-1.361-0.132h-3.091v7.925
		h3.596V70.392z M38.84,66.912c0.565,0,0.99,0.104,1.271,0.312s0.422,0.5,0.422,0.875c0,0.381-0.142,0.676-0.422,0.887
		c-0.28,0.209-0.705,0.314-1.271,0.314H36.6v-2.388H38.84z M36.6,63.563h1.735c1.278,0,1.919,0.385,1.919,1.15
		c0,0.742-0.635,1.113-1.904,1.113H36.6V63.563z"/>
	<path fill="#FFFFFF" d="M45.161,68.252v-5.786h-1.354v7.926h1.354l3.654-5.779v5.779h1.354v-7.926h-1.354L45.161,68.252z"/>
	<path fill="#FFFFFF" d="M59.041,66.362c0-0.605-0.067-1.156-0.202-1.651c-0.134-0.496-0.333-0.921-0.597-1.274
		c-0.265-0.354-0.588-0.629-0.972-0.824c-0.383-0.194-0.824-0.293-1.321-0.293c-0.503,0-0.944,0.089-1.325,0.265
		s-0.706,0.431-0.975,0.763l-0.065-0.88h-1.238v10.972h1.355v-3.815c0.269,0.299,0.59,0.524,0.963,0.683
		c0.374,0.155,0.81,0.233,1.308,0.233c0.488,0,0.923-0.101,1.304-0.302c0.382-0.198,0.702-0.479,0.963-0.838
		c0.263-0.358,0.462-0.782,0.599-1.273s0.205-1.025,0.205-1.607L59.041,66.362L59.041,66.362z M57.686,66.517
		c0,0.396-0.041,0.771-0.125,1.125c-0.082,0.354-0.212,0.662-0.388,0.926c-0.176,0.265-0.396,0.475-0.663,0.631
		c-0.266,0.156-0.582,0.234-0.948,0.234c-0.233,0-0.445-0.027-0.638-0.082c-0.189-0.054-0.361-0.127-0.512-0.224
		c-0.152-0.095-0.286-0.209-0.403-0.344c-0.117-0.136-0.22-0.279-0.308-0.437V64.56c0.088-0.156,0.189-0.302,0.308-0.436
		c0.117-0.135,0.251-0.25,0.403-0.348c0.149-0.098,0.319-0.174,0.509-0.229c0.188-0.054,0.396-0.081,0.626-0.081
		c0.371,0,0.69,0.078,0.959,0.231c0.27,0.152,0.491,0.361,0.667,0.626c0.176,0.264,0.306,0.569,0.388,0.92
		c0.084,0.349,0.125,0.721,0.125,1.116V66.517z"/>
	<path fill="#FFFFFF" d="M61.297,62.466h-1.48l2.828,7.838l-0.301,0.805c-0.083,0.244-0.175,0.449-0.274,0.615
		c-0.101,0.166-0.219,0.299-0.354,0.399c-0.137,0.101-0.293,0.172-0.469,0.216c-0.177,0.044-0.378,0.064-0.608,0.064
		c-0.02,0-0.045,0-0.076-0.002c-0.032-0.004-0.065-0.006-0.103-0.008s-0.072-0.006-0.106-0.008c-0.034-0.003-0.061-0.006-0.08-0.012
		v1.1c0.033,0.01,0.082,0.021,0.146,0.032c0.063,0.013,0.131,0.024,0.205,0.037c0.071,0.013,0.146,0.022,0.219,0.032
		c0.074,0.01,0.137,0.016,0.191,0.016c0.354,0,0.666-0.066,0.93-0.201s0.489-0.301,0.678-0.498s0.34-0.412,0.457-0.642
		s0.213-0.442,0.286-0.638l3.187-9.147h-1.45l-1.847,5.94L61.297,62.466z"/>
	<path fill="#FFFFFF" d="M69.807,69.183c-0.277-0.166-0.5-0.384-0.666-0.651c-0.166-0.269-0.283-0.572-0.352-0.912
		c-0.068-0.339-0.104-0.685-0.104-1.036v-0.309c0-0.342,0.034-0.683,0.104-1.021c0.068-0.338,0.187-0.646,0.354-0.916
		s0.392-0.489,0.666-0.655c0.275-0.166,0.624-0.248,1.044-0.248c0.273,0,0.521,0.045,0.743,0.14
		c0.223,0.093,0.414,0.218,0.575,0.377c0.161,0.157,0.289,0.344,0.385,0.557c0.095,0.212,0.152,0.44,0.172,0.685h1.282
		c-0.02-0.404-0.107-0.783-0.264-1.135c-0.157-0.353-0.373-0.656-0.648-0.912c-0.276-0.256-0.604-0.457-0.98-0.604
		c-0.38-0.146-0.801-0.221-1.265-0.221c-0.596,0-1.112,0.106-1.553,0.318c-0.439,0.213-0.806,0.5-1.099,0.861
		c-0.293,0.359-0.513,0.779-0.655,1.259c-0.146,0.479-0.216,0.984-0.216,1.517v0.309c0,0.532,0.07,1.037,0.216,1.518
		c0.144,0.478,0.362,0.896,0.655,1.258c0.293,0.363,0.659,0.648,1.103,0.861c0.441,0.213,0.96,0.318,1.556,0.318
		c0.42,0,0.816-0.072,1.19-0.216c0.374-0.146,0.702-0.337,0.985-0.579c0.282-0.241,0.512-0.521,0.685-0.842s0.271-0.656,0.29-1.008
		h-1.282c-0.02,0.221-0.082,0.424-0.187,0.611c-0.105,0.188-0.242,0.352-0.41,0.487c-0.169,0.137-0.363,0.243-0.582,0.321
		c-0.221,0.078-0.449,0.117-0.689,0.117C70.438,69.433,70.086,69.349,69.807,69.183z"/>
</g>
</svg>
