<?xml version="1.0" encoding="utf-8"?>
<!-- Generator: Adobe Illustrator 16.0.0, SVG Export Plug-In . SVG Version: 6.00 Build 0)  -->
<!DOCTYPE svg PUBLIC "-//W3C//DTD SVG 1.0//EN" "http://www.w3.org/TR/2001/REC-SVG-20010904/DTD/svg10.dtd">
<svg version="1.0" id="Слой_1" xmlns="http://www.w3.org/2000/svg" xmlns:xlink="http://www.w3.org/1999/xlink" x="0px" y="0px"
	 width="155.479px" height="78.009px" viewBox="0 0 155.479 78.009" enable-background="new 0 0 155.479 78.009"
	 xml:space="preserve">
<g>
	<path fill="#FFFFFF" d="M6.555,64.298H0v10.664h3.984c0.586,0,1.104-0.078,1.553-0.234s0.828-0.375,1.135-0.655
		c0.308-0.281,0.541-0.617,0.699-1.008s0.238-0.819,0.238-1.289c0-0.473-0.08-0.901-0.238-1.285
		c-0.159-0.383-0.391-0.711-0.696-0.984s-0.684-0.485-1.135-0.634c-0.452-0.149-0.97-0.224-1.556-0.224H1.414v-3.193h5.142V64.298z
		 M3.984,69.806c0.391,0,0.726,0.052,1.007,0.153c0.281,0.104,0.51,0.243,0.688,0.422c0.178,0.178,0.309,0.386,0.392,0.622
		c0.083,0.237,0.125,0.489,0.125,0.759c0,0.269-0.042,0.525-0.125,0.772C5.989,72.781,5.858,73,5.68,73.19s-0.408,0.342-0.688,0.454
		s-0.616,0.169-1.007,0.169H1.414v-4.007H3.984z"/>
	<path fill="#FFFFFF" d="M13.645,74.981c0.313-0.086,0.589-0.2,0.831-0.345c0.242-0.144,0.453-0.308,0.634-0.49
		c0.181-0.184,0.334-0.372,0.461-0.567l-0.828-0.645c-0.249,0.322-0.54,0.581-0.872,0.775c-0.332,0.195-0.737,0.293-1.216,0.293
		c-0.361,0-0.685-0.068-0.971-0.205c-0.286-0.136-0.53-0.322-0.732-0.557s-0.359-0.51-0.469-0.827s-0.169-0.659-0.179-1.025h5.369
		v-0.607c0-0.558-0.063-1.072-0.19-1.546s-0.324-0.884-0.59-1.23s-0.604-0.619-1.014-0.816c-0.41-0.198-0.898-0.297-1.465-0.297
		c-0.449,0-0.881,0.092-1.296,0.274c-0.415,0.184-0.784,0.448-1.106,0.795s-0.58,0.774-0.773,1.282S8.95,70.327,8.95,70.971v0.308
		c0,0.556,0.085,1.069,0.256,1.538s0.415,0.872,0.732,1.212c0.317,0.339,0.699,0.604,1.146,0.794
		c0.447,0.191,0.946,0.286,1.498,0.286C12.979,75.109,13.333,75.066,13.645,74.981z M13.286,68.195
		c0.234,0.127,0.426,0.293,0.575,0.498s0.259,0.438,0.33,0.696s0.114,0.52,0.128,0.783v0.103h-3.97
		c0.044-0.366,0.125-0.69,0.245-0.974s0.27-0.521,0.451-0.711s0.386-0.336,0.615-0.436c0.229-0.101,0.481-0.15,0.754-0.15
		C12.761,68.004,13.052,68.068,13.286,68.195z"/>
	<path fill="#FFFFFF" d="M18.743,70.348v1.143h1.355c0.562,0,0.975,0.097,1.241,0.289c0.266,0.193,0.399,0.512,0.399,0.956
		c0,0.171-0.037,0.335-0.11,0.491s-0.182,0.293-0.326,0.41s-0.325,0.211-0.542,0.281c-0.217,0.071-0.467,0.106-0.75,0.106
		c-0.269,0-0.514-0.039-0.736-0.117s-0.411-0.182-0.567-0.312c-0.156-0.129-0.278-0.278-0.366-0.446
		c-0.088-0.169-0.132-0.346-0.132-0.531H16.86c0,0.435,0.091,0.808,0.274,1.12s0.424,0.569,0.722,0.77s0.635,0.35,1.011,0.447
		s0.757,0.146,1.143,0.146c0.459,0,0.877-0.055,1.256-0.162c0.378-0.106,0.703-0.261,0.974-0.461s0.482-0.447,0.634-0.74
		c0.151-0.292,0.227-0.627,0.227-1.003c0-0.459-0.116-0.843-0.348-1.149c-0.232-0.308-0.577-0.54-1.036-0.696
		c0.396-0.176,0.701-0.412,0.916-0.71s0.322-0.625,0.322-0.982c0-0.371-0.067-0.7-0.202-0.988s-0.328-0.528-0.582-0.722
		c-0.254-0.192-0.563-0.339-0.927-0.439c-0.364-0.1-0.775-0.149-1.234-0.149c-0.41,0-0.798,0.055-1.165,0.164
		c-0.366,0.11-0.688,0.267-0.963,0.469c-0.276,0.203-0.494,0.449-0.655,0.74s-0.242,0.616-0.242,0.978h1.348
		c0-0.176,0.044-0.339,0.132-0.491c0.088-0.15,0.208-0.284,0.359-0.398c0.151-0.115,0.328-0.204,0.531-0.268
		s0.421-0.095,0.656-0.095c0.288,0,0.532,0.034,0.732,0.103s0.364,0.158,0.491,0.271s0.22,0.241,0.278,0.385s0.088,0.294,0.088,0.45
		c0,0.171-0.026,0.327-0.077,0.469s-0.135,0.263-0.252,0.362c-0.117,0.101-0.271,0.178-0.461,0.231s-0.427,0.08-0.71,0.08H18.743z"
		/>
	<path fill="#FFFFFF" d="M24.5,71.088c0,0.576,0.084,1.109,0.252,1.6c0.168,0.491,0.409,0.916,0.722,1.274
		c0.313,0.359,0.691,0.64,1.135,0.843c0.444,0.202,0.945,0.304,1.501,0.304s1.057-0.102,1.501-0.304
		c0.444-0.203,0.823-0.483,1.135-0.843c0.313-0.358,0.552-0.783,0.718-1.274c0.166-0.49,0.249-1.023,0.249-1.6v-0.162
		c0-0.575-0.083-1.109-0.249-1.6c-0.166-0.491-0.405-0.917-0.718-1.278s-0.692-0.645-1.139-0.85s-0.951-0.308-1.512-0.308
		c-0.552,0-1.05,0.103-1.494,0.308s-0.822,0.488-1.132,0.85s-0.549,0.787-0.718,1.278c-0.168,0.49-0.252,1.024-0.252,1.6V71.088z
		 M25.862,70.926c0-0.39,0.046-0.762,0.139-1.116s0.233-0.664,0.421-0.931c0.188-0.266,0.421-0.479,0.7-0.637
		s0.603-0.238,0.974-0.238c0.376,0,0.706,0.08,0.989,0.238s0.519,0.371,0.707,0.637c0.188,0.267,0.33,0.576,0.425,0.931
		s0.143,0.727,0.143,1.116v0.162c0,0.395-0.048,0.769-0.143,1.12s-0.235,0.66-0.421,0.927c-0.186,0.266-0.42,0.478-0.703,0.633
		c-0.283,0.156-0.61,0.234-0.981,0.234c-0.376,0-0.705-0.078-0.985-0.234c-0.281-0.155-0.515-0.367-0.703-0.633
		c-0.188-0.267-0.328-0.575-0.421-0.927s-0.139-0.726-0.139-1.12V70.926z"/>
	<path fill="#FFFFFF" d="M39.895,67.038H33.53v7.925h1.362v-6.804h3.647v6.804h1.355V67.038z"/>
	<path fill="#FFFFFF" d="M48.384,74.962v-0.117c-0.093-0.215-0.163-0.47-0.209-0.766c-0.046-0.295-0.069-0.577-0.069-0.846v-3.685
		c0-0.443-0.073-0.832-0.22-1.164s-0.349-0.609-0.608-0.831c-0.259-0.223-0.57-0.389-0.934-0.498c-0.364-0.11-0.76-0.165-1.19-0.165
		c-0.479,0-0.912,0.07-1.3,0.209s-0.719,0.319-0.992,0.542c-0.273,0.222-0.485,0.473-0.634,0.751
		c-0.149,0.277-0.223,0.559-0.223,0.842h1.362c0-0.166,0.042-0.324,0.125-0.477c0.083-0.15,0.199-0.284,0.348-0.398
		c0.149-0.115,0.329-0.206,0.539-0.275c0.21-0.068,0.442-0.102,0.696-0.102c0.552,0,0.969,0.14,1.252,0.421
		c0.283,0.28,0.425,0.658,0.425,1.132v0.622h-1.348c-0.542,0-1.033,0.057-1.472,0.169s-0.814,0.277-1.125,0.498
		c-0.31,0.219-0.548,0.491-0.714,0.816c-0.166,0.324-0.249,0.699-0.249,1.124c0,0.327,0.063,0.634,0.19,0.919
		c0.127,0.286,0.306,0.533,0.538,0.744c0.232,0.209,0.513,0.376,0.842,0.498c0.33,0.121,0.697,0.183,1.103,0.183
		c0.244,0,0.476-0.025,0.696-0.077c0.22-0.051,0.423-0.121,0.611-0.212s0.361-0.195,0.52-0.315c0.159-0.119,0.302-0.245,0.429-0.377
		c0.02,0.161,0.044,0.316,0.073,0.465c0.029,0.149,0.068,0.272,0.117,0.37H48.384z M44.059,73.824
		c-0.188-0.071-0.347-0.166-0.476-0.286c-0.129-0.119-0.226-0.262-0.289-0.428s-0.095-0.345-0.095-0.535
		c0-0.488,0.21-0.854,0.63-1.095c0.42-0.242,1.018-0.362,1.794-0.362h1.128v1.625c-0.073,0.152-0.175,0.299-0.304,0.439
		c-0.129,0.143-0.282,0.268-0.458,0.378c-0.176,0.109-0.371,0.198-0.586,0.267c-0.215,0.069-0.444,0.104-0.688,0.104
		C44.465,73.93,44.247,73.895,44.059,73.824z"/>
	<path fill="#FFFFFF" d="M52.354,73.754c-0.278-0.166-0.5-0.384-0.667-0.652s-0.283-0.572-0.352-0.912
		c-0.068-0.339-0.103-0.685-0.103-1.036v-0.308c0-0.342,0.034-0.682,0.103-1.021s0.187-0.645,0.355-0.916
		c0.168-0.271,0.391-0.489,0.667-0.655s0.624-0.249,1.044-0.249c0.273,0,0.521,0.047,0.743,0.139
		c0.222,0.094,0.414,0.219,0.575,0.378s0.289,0.344,0.384,0.557c0.095,0.212,0.153,0.44,0.172,0.685h1.282
		c-0.02-0.405-0.107-0.783-0.264-1.135s-0.373-0.656-0.648-0.912s-0.603-0.458-0.981-0.604s-0.799-0.22-1.263-0.22
		c-0.596,0-1.113,0.106-1.553,0.318c-0.439,0.213-0.806,0.5-1.099,0.861s-0.512,0.781-0.656,1.26s-0.216,0.983-0.216,1.516v0.308
		c0,0.532,0.072,1.038,0.216,1.517s0.363,0.898,0.656,1.26s0.66,0.648,1.102,0.86s0.961,0.318,1.557,0.318
		c0.42,0,0.816-0.072,1.19-0.216c0.374-0.145,0.702-0.337,0.985-0.579c0.283-0.241,0.511-0.522,0.685-0.842s0.27-0.655,0.29-1.007
		h-1.282c-0.02,0.219-0.082,0.423-0.187,0.611c-0.105,0.188-0.242,0.35-0.41,0.487c-0.168,0.136-0.362,0.243-0.582,0.321
		c-0.22,0.079-0.449,0.117-0.688,0.117C52.983,74.002,52.632,73.92,52.354,73.754z"/>
	<path fill="#FFFFFF" d="M64.556,67.038h-1.355v3.436h-3.64v-3.436h-1.362v7.925h1.362v-3.384h3.64v3.384h1.355V67.038z"/>
	<path fill="#FFFFFF" d="M68.21,67.038h-1.355v7.925h3.37c0.482,0,0.908-0.068,1.277-0.205s0.678-0.322,0.927-0.557
		s0.437-0.512,0.563-0.831c0.127-0.32,0.191-0.663,0.191-1.029c0-0.371-0.064-0.714-0.191-1.029
		c-0.127-0.314-0.314-0.586-0.563-0.813c-0.249-0.228-0.558-0.405-0.927-0.535c-0.369-0.129-0.795-0.193-1.277-0.193H68.21V67.038z
		 M76.01,67.038h-1.361v7.925h1.361V67.038z M70.225,70.875c0.293,0,0.541,0.045,0.746,0.136s0.37,0.208,0.494,0.354
		c0.125,0.147,0.215,0.311,0.271,0.491s0.084,0.358,0.084,0.534c0,0.186-0.027,0.367-0.084,0.543s-0.146,0.332-0.271,0.469
		c-0.124,0.137-0.289,0.246-0.494,0.329s-0.453,0.124-0.746,0.124H68.21v-2.98H70.225z"/>
	<path fill="#FFFFFF" d="M79.848,72.824v-5.786h-1.354v7.925h1.354l3.655-5.778v5.778h1.354v-7.925h-1.354L79.848,72.824z
		 M82.771,64.152c0,0.146-0.02,0.286-0.059,0.417c-0.039,0.133-0.103,0.248-0.19,0.349s-0.201,0.18-0.341,0.237
		c-0.14,0.06-0.306,0.088-0.501,0.088c-0.201,0-0.37-0.028-0.51-0.088c-0.139-0.058-0.252-0.137-0.337-0.237
		s-0.147-0.216-0.187-0.349c-0.039-0.131-0.059-0.271-0.059-0.417h-1.105c0,0.288,0.051,0.552,0.153,0.791s0.249,0.445,0.439,0.619
		c0.19,0.173,0.421,0.309,0.692,0.406c0.271,0.098,0.574,0.146,0.912,0.146c0.336,0,0.641-0.049,0.911-0.146
		s0.502-0.233,0.692-0.406c0.19-0.174,0.336-0.38,0.436-0.619s0.15-0.503,0.15-0.791H82.771z"/>
	<path fill="#FFFFFF" d="M92.432,72.516v-8.218h-1.414v10.664h1.414l5.251-8.218v8.218h1.406V64.298h-1.406L92.432,72.516z"/>
	<path fill="#FFFFFF" d="M107.915,67.038h-1.354v3.436h-3.64v-3.436h-1.363v7.925h1.363v-3.384h3.64v3.384h1.354V67.038z"/>
	<path fill="#FFFFFF" d="M115.979,67.038h-6.621v1.099h2.607v6.826h1.355v-6.826h2.658V67.038z"/>
	<path fill="#FFFFFF" d="M121.062,74.981c0.313-0.086,0.59-0.2,0.831-0.345c0.242-0.144,0.453-0.308,0.634-0.49
		c0.181-0.184,0.335-0.372,0.462-0.567l-0.828-0.645c-0.249,0.322-0.539,0.581-0.871,0.775c-0.332,0.195-0.738,0.293-1.217,0.293
		c-0.361,0-0.685-0.068-0.971-0.205c-0.285-0.136-0.529-0.322-0.732-0.557c-0.202-0.234-0.358-0.51-0.468-0.827
		c-0.11-0.317-0.17-0.659-0.18-1.025h5.368v-0.607c0-0.558-0.063-1.072-0.189-1.546s-0.324-0.884-0.59-1.23
		c-0.267-0.347-0.604-0.619-1.015-0.816c-0.41-0.198-0.898-0.297-1.465-0.297c-0.449,0-0.882,0.092-1.296,0.274
		c-0.416,0.184-0.784,0.448-1.106,0.795s-0.58,0.774-0.772,1.282c-0.193,0.508-0.289,1.084-0.289,1.729v0.308
		c0,0.556,0.085,1.069,0.256,1.538s0.415,0.872,0.732,1.212c0.317,0.339,0.699,0.604,1.146,0.794
		c0.446,0.191,0.945,0.286,1.498,0.286C120.395,75.109,120.75,75.066,121.062,74.981z M120.704,68.195
		c0.234,0.127,0.426,0.293,0.574,0.498s0.259,0.438,0.33,0.696c0.07,0.259,0.113,0.52,0.128,0.783v0.103h-3.97
		c0.044-0.366,0.125-0.69,0.245-0.974s0.271-0.521,0.45-0.711c0.181-0.19,0.386-0.336,0.615-0.436c0.23-0.101,0.481-0.15,0.755-0.15
		C120.178,68.004,120.469,68.068,120.704,68.195z"/>
	<path fill="#FFFFFF" d="M131.352,70.934c0-0.605-0.066-1.156-0.201-1.651c-0.135-0.496-0.333-0.921-0.597-1.274
		c-0.264-0.354-0.587-0.629-0.971-0.824s-0.823-0.293-1.321-0.293c-0.504,0-0.945,0.088-1.326,0.264s-0.706,0.43-0.975,0.762
		l-0.065-0.879h-1.237v10.972h1.354v-3.815c0.269,0.297,0.589,0.524,0.963,0.681s0.81,0.234,1.308,0.234
		c0.488,0,0.923-0.101,1.304-0.3c0.381-0.201,0.702-0.48,0.963-0.839s0.46-0.784,0.597-1.274c0.137-0.491,0.205-1.027,0.205-1.607
		V70.934z M129.998,71.088c0,0.395-0.042,0.77-0.124,1.124c-0.084,0.354-0.213,0.663-0.389,0.927s-0.396,0.474-0.663,0.629
		c-0.267,0.156-0.582,0.234-0.948,0.234c-0.234,0-0.447-0.026-0.637-0.08c-0.191-0.054-0.361-0.128-0.514-0.224
		c-0.15-0.095-0.285-0.21-0.402-0.344c-0.117-0.135-0.22-0.28-0.308-0.437v-3.786c0.088-0.156,0.19-0.302,0.308-0.436
		s0.252-0.25,0.402-0.349c0.152-0.098,0.321-0.173,0.51-0.227c0.188-0.054,0.396-0.08,0.626-0.08c0.371,0,0.69,0.076,0.96,0.23
		c0.268,0.154,0.49,0.362,0.666,0.626s0.305,0.57,0.389,0.919c0.082,0.35,0.124,0.722,0.124,1.117V71.088z"/>
	<path fill="#FFFFFF" d="M139.548,67.038h-1.354v3.436h-3.641v-3.436h-1.362v7.925h1.362v-3.384h3.641v3.384h1.354V67.038z"/>
	<path fill="#FFFFFF" d="M146.075,74.981c0.313-0.086,0.589-0.2,0.83-0.345c0.242-0.144,0.453-0.308,0.635-0.49
		c0.18-0.184,0.334-0.372,0.461-0.567l-0.828-0.645c-0.248,0.322-0.539,0.581-0.871,0.775c-0.332,0.195-0.737,0.293-1.216,0.293
		c-0.361,0-0.685-0.068-0.971-0.205c-0.286-0.136-0.53-0.322-0.732-0.557s-0.358-0.51-0.469-0.827s-0.169-0.659-0.179-1.025h5.368
		v-0.607c0-0.558-0.063-1.072-0.19-1.546s-0.324-0.884-0.59-1.23s-0.604-0.619-1.014-0.816c-0.41-0.198-0.898-0.297-1.465-0.297
		c-0.449,0-0.882,0.092-1.297,0.274c-0.415,0.184-0.783,0.448-1.105,0.795s-0.58,0.774-0.773,1.282s-0.289,1.084-0.289,1.729v0.308
		c0,0.556,0.085,1.069,0.256,1.538c0.172,0.469,0.416,0.872,0.732,1.212c0.318,0.339,0.699,0.604,1.146,0.794
		c0.447,0.191,0.946,0.286,1.498,0.286C145.408,75.109,145.762,75.066,146.075,74.981z M145.715,68.195
		c0.234,0.127,0.426,0.293,0.574,0.498c0.149,0.205,0.26,0.438,0.33,0.696s0.113,0.52,0.129,0.783v0.103h-3.971
		c0.045-0.366,0.126-0.69,0.246-0.974c0.119-0.283,0.27-0.521,0.45-0.711s0.386-0.336,0.615-0.436
		c0.229-0.101,0.481-0.15,0.755-0.15C145.19,68.004,145.481,68.068,145.715,68.195z"/>
	<path fill="#FFFFFF" d="M155.479,67.038h-6.621v1.099h2.607v6.826h1.354v-6.826h2.659V67.038z"/>
</g>
<path fill="none" stroke="#FFFFFF" stroke-width="3" stroke-linecap="round" stroke-linejoin="round" stroke-miterlimit="10" d="
	M78.046,45.566c7.29,0,13.411-5.356,15.247-12.636c0.012,0,0.021,0.004,0.031,0.004c2.111,0,3.82-2.028,3.82-4.531
	s-1.709-4.531-3.82-4.531c-0.008,0-0.016,0.003-0.025,0.003c-1.83-7.29-7.955-12.657-15.253-12.657
	c-7.297,0-13.424,5.367-15.253,12.657c-0.009,0-0.017-0.003-0.026-0.003c-2.11,0-3.82,2.028-3.82,4.531s1.71,4.531,3.82,4.531
	c0.011,0,0.021-0.004,0.031-0.004C64.634,40.209,70.756,45.566,78.046,45.566z"/>
<g>
	<circle fill="#FFFFFF" cx="72.112" cy="28.95" r="1.891"/>
	<circle fill="#FFFFFF" cx="83.98" cy="28.95" r="1.892"/>
</g>
<path fill="none" stroke="#FFFFFF" stroke-width="2" stroke-linecap="round" stroke-miterlimit="10" d="M83.575,36.08
	c-1.25,1.346-3.26,2.22-5.527,2.22c-2.269,0-4.28-0.874-5.529-2.223"/>
<path fill="none" stroke="#FFFFFF" stroke-linecap="round" stroke-linejoin="round" stroke-miterlimit="10" d="M77.437,10.745
	c-0.468-0.458-0.619-1.908-0.835-2.638c-0.284-0.955-0.544-1.773-1.126-2.6c-0.645-0.916-1.703-2.117-2.977-1.691
	c-0.725,0.244-2.019,1.555-1.805,2.445c0.213,0.889,2.107,1.719,2.91,1.566"/>
<path fill="none" stroke="#FFFFFF" stroke-linecap="round" stroke-linejoin="round" stroke-miterlimit="10" d="M77.643,10.38
	c-1.21-0.949,3.266-3.333,4.084-3.667"/>
</svg>
