<?xml version="1.0" encoding="utf-8"?>
<!-- Generator: Adobe Illustrator 16.0.0, SVG Export Plug-In . SVG Version: 6.00 Build 0)  -->
<!DOCTYPE svg PUBLIC "-//W3C//DTD SVG 1.0//EN" "http://www.w3.org/TR/2001/REC-SVG-20010904/DTD/svg10.dtd">
<svg version="1.0" id="Слой_1" xmlns="http://www.w3.org/2000/svg" xmlns:xlink="http://www.w3.org/1999/xlink" x="0px" y="0px"
	 width="92.542px" height="78.375px" viewBox="0 3 92.542 78.375" enable-background="new 0 0 92.542 78.375" xml:space="preserve">
<g>
	<path fill="#FFFFFF" d="M1.406,67.564H0l2.578,10.664H3.86l2.278-7.771l0.168-0.813l0.168,0.813l2.197,7.771h1.282l2.585-10.664
		h-1.414L9.47,74.859l-0.227,1.436L8.95,75.006l-2.058-7.441H5.706l-2.109,7.441l-0.3,1.267l-0.205-1.406L1.406,67.564z"/>
	<path fill="#FFFFFF" d="M15.359,70.303h-1.355v7.926h1.355V70.303z M14.095,68.75c0.134,0.146,0.333,0.221,0.597,0.221
		s0.464-0.074,0.601-0.221s0.205-0.329,0.205-0.549s-0.068-0.405-0.205-0.557s-0.337-0.227-0.601-0.227s-0.463,0.075-0.597,0.227
		s-0.201,0.337-0.201,0.557S13.961,68.604,14.095,68.75z"/>
	<path fill="#FFFFFF" d="M19.343,78.229v-6.878h1.619v-1.048h-1.619v-0.688c0-0.522,0.128-0.915,0.385-1.176
		c0.256-0.262,0.675-0.393,1.256-0.393c0.352,0,0.675,0.039,0.97,0.117c0.295,0.079,0.553,0.162,0.773,0.25l0.227-1.143
		c-0.356-0.127-0.702-0.233-1.037-0.319c-0.334-0.085-0.68-0.128-1.036-0.128c-0.449,0-0.854,0.061-1.212,0.184
		c-0.359,0.121-0.663,0.301-0.912,0.538c-0.249,0.236-0.441,0.528-0.575,0.875s-0.201,0.745-0.201,1.194v0.688h-1.252v1.048h1.252
		v6.878H19.343z M23.628,70.303h-1.362v7.926h1.362V70.303z"/>
	<path fill="#FFFFFF" d="M29.663,70.26c-0.049-0.025-0.137-0.048-0.264-0.07c-0.127-0.021-0.239-0.032-0.337-0.032
		c-0.439,0-0.813,0.095-1.121,0.285s-0.564,0.449-0.769,0.776l-0.022-0.916h-1.318v7.926h1.355v-5.625
		c0.146-0.347,0.367-0.623,0.663-0.828s0.678-0.308,1.146-0.308c0.127,0,0.24,0.004,0.34,0.011c0.1,0.008,0.209,0.021,0.326,0.041
		V70.26z"/>
	<path fill="#FFFFFF" d="M35.12,78.246c0.313-0.085,0.59-0.199,0.831-0.344c0.242-0.145,0.453-0.308,0.634-0.491
		c0.181-0.183,0.334-0.372,0.461-0.567l-0.828-0.645c-0.249,0.322-0.54,0.581-0.872,0.776s-0.737,0.293-1.216,0.293
		c-0.361,0-0.685-0.068-0.97-0.205c-0.286-0.137-0.53-0.322-0.732-0.557c-0.203-0.234-0.359-0.511-0.469-0.827
		c-0.11-0.318-0.17-0.66-0.18-1.025h5.369v-0.608c0-0.557-0.063-1.071-0.19-1.546c-0.127-0.473-0.324-0.883-0.589-1.23
		c-0.267-0.346-0.604-0.618-1.015-0.816c-0.41-0.197-0.898-0.296-1.465-0.296c-0.449,0-0.881,0.091-1.296,0.274
		c-0.415,0.183-0.784,0.447-1.106,0.795c-0.322,0.347-0.58,0.773-0.772,1.281c-0.193,0.508-0.29,1.084-0.29,1.729v0.308
		c0,0.557,0.085,1.069,0.256,1.538s0.415,0.873,0.732,1.212c0.317,0.34,0.699,0.604,1.146,0.795c0.446,0.19,0.946,0.286,1.498,0.286
		C34.453,78.375,34.807,78.332,35.12,78.246z M34.761,71.461c0.234,0.127,0.426,0.293,0.575,0.498
		c0.149,0.205,0.259,0.437,0.33,0.695c0.07,0.259,0.113,0.521,0.128,0.783v0.104h-3.97c0.044-0.366,0.125-0.691,0.245-0.975
		c0.12-0.283,0.27-0.52,0.451-0.71s0.386-0.336,0.615-0.437c0.229-0.1,0.481-0.15,0.754-0.15
		C34.236,71.27,34.526,71.334,34.761,71.461z"/>
	<path fill="#FFFFFF" d="M49.072,74.844c-0.059,0.377-0.144,0.713-0.257,1.008c-0.111,0.295-0.27,0.545-0.473,0.747
		c-0.202,0.202-0.457,0.357-0.765,0.465s-0.687,0.161-1.136,0.161c-0.473,0-0.883-0.099-1.23-0.297
		c-0.346-0.197-0.632-0.469-0.856-0.813s-0.392-0.746-0.502-1.205s-0.165-0.949-0.165-1.473v-1.084c0-0.561,0.061-1.074,0.183-1.541
		s0.304-0.864,0.545-1.194c0.242-0.329,0.543-0.586,0.902-0.769c0.357-0.184,0.774-0.274,1.248-0.274
		c0.41,0,0.762,0.056,1.055,0.168s0.539,0.273,0.736,0.483s0.353,0.464,0.465,0.762s0.195,0.633,0.249,1.004h1.413
		c-0.053-0.527-0.176-1.01-0.365-1.447c-0.191-0.437-0.449-0.813-0.773-1.128c-0.324-0.314-0.719-0.56-1.183-0.735
		s-0.996-0.264-1.597-0.264c-0.659,0-1.254,0.118-1.783,0.355c-0.53,0.236-0.98,0.57-1.352,1.003
		c-0.371,0.432-0.657,0.952-0.857,1.56c-0.2,0.608-0.3,1.285-0.3,2.033v1.068c0,0.748,0.099,1.424,0.296,2.029
		c0.198,0.605,0.479,1.124,0.843,1.557c0.363,0.432,0.802,0.766,1.315,1c0.512,0.234,1.084,0.352,1.713,0.352
		c0.641,0,1.199-0.09,1.678-0.268s0.884-0.425,1.216-0.74c0.332-0.314,0.592-0.688,0.78-1.12c0.188-0.433,0.311-0.899,0.369-1.403
		H49.072z"/>
	<path fill="#FFFFFF" d="M58.506,78.229v-0.117c-0.093-0.215-0.163-0.471-0.208-0.766c-0.047-0.296-0.07-0.578-0.07-0.846v-3.685
		c0-0.444-0.073-0.832-0.22-1.165c-0.146-0.332-0.349-0.608-0.608-0.831c-0.258-0.222-0.57-0.388-0.934-0.497
		c-0.363-0.11-0.76-0.165-1.189-0.165c-0.479,0-0.912,0.069-1.301,0.208c-0.389,0.14-0.719,0.32-0.992,0.542
		c-0.273,0.223-0.484,0.473-0.634,0.751s-0.224,0.559-0.224,0.842h1.363c0-0.166,0.041-0.324,0.124-0.476s0.198-0.284,0.349-0.399
		c0.148-0.114,0.328-0.206,0.537-0.274c0.211-0.068,0.442-0.103,0.696-0.103c0.552,0,0.97,0.141,1.253,0.421
		c0.283,0.281,0.424,0.658,0.424,1.132v0.623h-1.348c-0.541,0-1.032,0.056-1.472,0.168s-0.813,0.278-1.124,0.498
		s-0.549,0.492-0.715,0.816c-0.166,0.325-0.248,0.7-0.248,1.125c0,0.327,0.063,0.633,0.189,0.919
		c0.127,0.285,0.307,0.533,0.539,0.743c0.231,0.21,0.512,0.376,0.842,0.498s0.697,0.184,1.103,0.184
		c0.244,0,0.476-0.026,0.696-0.077c0.219-0.052,0.423-0.122,0.611-0.213c0.188-0.09,0.361-0.194,0.52-0.314s0.302-0.245,0.429-0.378
		c0.02,0.162,0.044,0.316,0.073,0.466s0.068,0.272,0.117,0.37H58.506z M54.181,77.09c-0.188-0.071-0.347-0.166-0.477-0.286
		c-0.129-0.12-0.225-0.263-0.289-0.429c-0.063-0.166-0.095-0.344-0.095-0.534c0-0.489,0.21-0.854,0.63-1.096
		c0.42-0.241,1.018-0.362,1.795-0.362h1.127v1.626c-0.072,0.151-0.174,0.298-0.303,0.439c-0.131,0.142-0.283,0.268-0.459,0.377
		c-0.176,0.11-0.371,0.199-0.586,0.268s-0.443,0.103-0.688,0.103C54.587,77.195,54.368,77.16,54.181,77.09z"/>
	<path fill="#FFFFFF" d="M60.345,70.303v7.926h1.354v-5.786c0.146-0.337,0.366-0.61,0.659-0.821
		c0.293-0.209,0.682-0.314,1.164-0.314c0.26,0,0.492,0.031,0.699,0.096c0.208,0.063,0.385,0.163,0.531,0.3s0.26,0.313,0.342,0.531
		c0.08,0.217,0.12,0.479,0.12,0.787v5.208h1.362v-5.26c0.024-0.229,0.082-0.445,0.172-0.647c0.09-0.203,0.213-0.378,0.367-0.527
		c0.152-0.149,0.338-0.268,0.553-0.355s0.461-0.132,0.739-0.132c0.254,0,0.485,0.025,0.696,0.077
		c0.209,0.051,0.388,0.143,0.534,0.274s0.261,0.308,0.341,0.527s0.121,0.496,0.121,0.828v5.215h1.354v-5.208
		c0-0.498-0.059-0.928-0.176-1.289s-0.29-0.659-0.517-0.894s-0.504-0.406-0.831-0.516c-0.327-0.11-0.703-0.165-1.128-0.165
		c-0.576,0-1.076,0.117-1.498,0.352c-0.422,0.233-0.766,0.542-1.029,0.923c-0.209-0.445-0.512-0.769-0.904-0.971
		c-0.393-0.203-0.846-0.304-1.358-0.304c-0.518,0-0.97,0.09-1.358,0.271s-0.719,0.432-0.992,0.754l-0.037-0.879H60.345z"/>
	<path fill="#FFFFFF" d="M77.849,78.246c0.313-0.085,0.59-0.199,0.832-0.344s0.453-0.308,0.633-0.491
		c0.182-0.183,0.335-0.372,0.462-0.567l-0.827-0.645c-0.25,0.322-0.54,0.581-0.872,0.776s-0.737,0.293-1.216,0.293
		c-0.361,0-0.686-0.068-0.971-0.205s-0.529-0.322-0.732-0.557s-0.359-0.511-0.469-0.827c-0.109-0.318-0.17-0.66-0.18-1.025h5.369
		v-0.608c0-0.557-0.063-1.071-0.19-1.546c-0.127-0.473-0.323-0.883-0.589-1.23c-0.268-0.346-0.605-0.618-1.016-0.816
		c-0.41-0.197-0.898-0.296-1.465-0.296c-0.449,0-0.881,0.091-1.296,0.274c-0.415,0.183-0.784,0.447-1.106,0.795
		c-0.322,0.347-0.58,0.773-0.771,1.281c-0.193,0.508-0.29,1.084-0.29,1.729v0.308c0,0.557,0.085,1.069,0.257,1.538
		c0.17,0.469,0.414,0.873,0.732,1.212c0.316,0.34,0.699,0.604,1.146,0.795c0.445,0.19,0.945,0.286,1.497,0.286
		C77.183,78.375,77.536,78.332,77.849,78.246z M77.49,71.461c0.234,0.127,0.426,0.293,0.575,0.498
		c0.148,0.205,0.258,0.437,0.33,0.695c0.07,0.259,0.113,0.521,0.127,0.783v0.104h-3.969c0.043-0.366,0.125-0.691,0.244-0.975
		c0.121-0.283,0.271-0.52,0.451-0.71s0.386-0.336,0.615-0.437c0.229-0.1,0.48-0.15,0.754-0.15
		C76.966,71.27,77.256,71.334,77.49,71.461z"/>
	<path fill="#FFFFFF" d="M85.276,70.26c-0.049-0.025-0.137-0.048-0.264-0.07c-0.127-0.021-0.24-0.032-0.338-0.032
		c-0.439,0-0.813,0.095-1.12,0.285s-0.563,0.449-0.769,0.776l-0.022-0.916h-1.318v7.926H82.8v-5.625
		c0.146-0.347,0.367-0.623,0.663-0.828s0.678-0.308,1.146-0.308c0.127,0,0.24,0.004,0.341,0.011c0.1,0.008,0.209,0.021,0.326,0.041
		V70.26z"/>
	<path fill="#FFFFFF" d="M92.542,78.229v-0.117c-0.094-0.215-0.163-0.471-0.209-0.766c-0.047-0.296-0.07-0.578-0.07-0.846v-3.685
		c0-0.444-0.072-0.832-0.219-1.165c-0.146-0.332-0.35-0.608-0.608-0.831c-0.259-0.222-0.57-0.388-0.935-0.497
		c-0.363-0.11-0.76-0.165-1.189-0.165c-0.479,0-0.912,0.069-1.301,0.208c-0.387,0.14-0.719,0.32-0.992,0.542
		c-0.273,0.223-0.484,0.473-0.633,0.751c-0.149,0.278-0.224,0.559-0.224,0.842h1.362c0-0.166,0.041-0.324,0.125-0.476
		c0.082-0.151,0.198-0.284,0.348-0.399c0.148-0.114,0.328-0.206,0.538-0.274s0.442-0.103,0.696-0.103
		c0.551,0,0.969,0.141,1.252,0.421c0.283,0.281,0.425,0.658,0.425,1.132v0.623h-1.348c-0.542,0-1.032,0.056-1.472,0.168
		s-0.814,0.278-1.125,0.498s-0.548,0.492-0.714,0.816c-0.166,0.325-0.249,0.7-0.249,1.125c0,0.327,0.063,0.633,0.19,0.919
		c0.127,0.285,0.306,0.533,0.538,0.743s0.513,0.376,0.842,0.498c0.33,0.122,0.697,0.184,1.104,0.184
		c0.244,0,0.476-0.026,0.695-0.077c0.22-0.052,0.424-0.122,0.611-0.213c0.188-0.09,0.361-0.194,0.52-0.314
		c0.159-0.12,0.303-0.245,0.43-0.378c0.02,0.162,0.043,0.316,0.072,0.466s0.068,0.272,0.117,0.37H92.542z M88.216,77.09
		c-0.188-0.071-0.346-0.166-0.475-0.286c-0.131-0.12-0.227-0.263-0.29-0.429s-0.095-0.344-0.095-0.534
		c0-0.489,0.209-0.854,0.629-1.096c0.42-0.241,1.019-0.362,1.795-0.362h1.128v1.626c-0.073,0.151-0.175,0.298-0.304,0.439
		c-0.13,0.142-0.282,0.268-0.458,0.377c-0.176,0.11-0.371,0.199-0.586,0.268s-0.444,0.103-0.688,0.103
		C88.623,77.195,88.404,77.16,88.216,77.09z"/>
</g>
<g>
	<path fill="none" stroke="#FFFFFF" stroke-width="3" stroke-linecap="round" stroke-miterlimit="10" d="M64.987,48.982h4.906
		c2.992,0,5.418-2.426,5.418-5.418c0-2.916-2.309-5.277-5.197-5.396c0.129-0.646,0.199-1.316,0.199-2
		c0-5.629-4.564-10.193-10.193-10.193c-1.223,0-2.387,0.227-3.473,0.619c-1.316-7.447-7.805-13.109-15.63-13.109
		c-8.584,0-15.56,6.812-15.86,15.324c-4.537,1.031-7.927,5.082-7.927,9.932c0,5.631,4.564,10.195,10.195,10.195"/>
	
		<line fill="none" stroke="#FFFFFF" stroke-width="3" stroke-linecap="round" stroke-miterlimit="10" x1="33.424" y1="48.982" x2="43.479" y2="48.982"/>
	
		<rect x="32.666" y="25.975" fill="none" stroke="#FFFFFF" stroke-linecap="round" stroke-miterlimit="10" width="11.571" height="18.826"/>
	<circle fill="none" stroke="#FFFFFF" stroke-linecap="round" stroke-miterlimit="10" cx="38.452" cy="31.943" r="3.582"/>
	<circle fill="none" stroke="#FFFFFF" stroke-linecap="round" stroke-miterlimit="10" cx="38.452" cy="31.943" r="1.194"/>
	<line fill="none" stroke="#FFFFFF" stroke-width="4" stroke-miterlimit="10" x1="38.452" y1="44.801" x2="38.452" y2="48.982"/>
	
		<line fill="none" stroke="#FFFFFF" stroke-width="3" stroke-linecap="round" stroke-miterlimit="10" x1="48.503" y1="48.982" x2="58.56" y2="48.982"/>
	<circle fill="none" stroke="#FFFFFF" stroke-linecap="round" stroke-miterlimit="10" cx="53.533" cy="39.934" r="5.97"/>
	<circle fill="none" stroke="#FFFFFF" stroke-linecap="round" stroke-miterlimit="10" cx="53.532" cy="39.934" r="2.113"/>
	<line fill="none" stroke="#FFFFFF" stroke-width="4" stroke-miterlimit="10" x1="53.532" y1="45.904" x2="53.532" y2="48.982"/>
</g>
</svg>
