<?xml version="1.0" encoding="utf-8"?>
<!-- Generator: Adobe Illustrator 16.0.0, SVG Export Plug-In . SVG Version: 6.00 Build 0)  -->
<!DOCTYPE svg PUBLIC "-//W3C//DTD SVG 1.0//EN" "http://www.w3.org/TR/2001/REC-SVG-20010904/DTD/svg10.dtd">
<svg version="1.0" id="Слой_1" xmlns="http://www.w3.org/2000/svg" xmlns:xlink="http://www.w3.org/1999/xlink" x="0px" y="0px"
	 width="35.631px" height="44.537px" viewBox="0 0 35.631 44.537" enable-background="new 0 0 35.631 44.537" xml:space="preserve">
<path fill="#EC0E69" d="M33.796,17.815H28.95V6.682C28.95,2.998,25.954,0,22.269,0h-8.907c-3.679,0-6.68,2.998-6.68,6.682v11.133
	H1.833c-2.444,8.738-2.444,17.984,0,26.722h31.963C36.243,35.799,36.243,26.553,33.796,17.815 M11.135,6.682
	c0-1.228,1-2.228,2.226-2.228h8.907c1.23,0,2.227,1,2.227,2.228v11.133h-13.36V6.682z M15.96,37.248l-5.283-5.281l3.145-3.15
	l2.139,2.138l5.849-5.851l3.148,3.148L15.96,37.248z"/>
</svg>
