<?xml version="1.0" encoding="utf-8"?>
<!-- Generator: Adobe Illustrator 16.0.0, SVG Export Plug-In . SVG Version: 6.00 Build 0)  -->
<!DOCTYPE svg PUBLIC "-//W3C//DTD SVG 1.0//EN" "http://www.w3.org/TR/2001/REC-SVG-20010904/DTD/svg10.dtd">
<svg version="1.0" id="Слой_1" xmlns="http://www.w3.org/2000/svg" xmlns:xlink="http://www.w3.org/1999/xlink" x="0px" y="0px"
	 width="35.992px" height="50.29px" viewBox="0 0 35.992 50.29" enable-background="new 0 0 35.992 50.29" xml:space="preserve">
<g>
	<g>
		<defs>
			<rect id="SVGID_1_" width="35.992" height="50.29"/>
		</defs>
		<defs>
			<rect id="SVGID_2_" width="35.992" height="50.29"/>
		</defs>
		<defs>
			<rect id="SVGID_3_" width="35.992" height="50.29"/>
		</defs>
		<defs>
			<rect id="SVGID_4_" width="35.992" height="50.29"/>
		</defs>
		<defs>
			<rect id="SVGID_5_" width="35.992" height="50.29"/>
		</defs>
		<defs>
			<rect id="SVGID_6_" width="35.992" height="50.29"/>
		</defs>
		<defs>
			<rect id="SVGID_7_" width="35.992" height="50.29"/>
		</defs>
		<defs>
			<rect id="SVGID_8_" width="35.992" height="50.29"/>
		</defs>
		<defs>
			<rect id="SVGID_9_" width="35.992" height="50.29"/>
		</defs>
		<defs>
			<rect id="SVGID_10_" width="35.992" height="50.29"/>
		</defs>
		<defs>
			<rect id="SVGID_11_" width="35.992" height="50.29"/>
		</defs>
		<defs>
			<rect id="SVGID_12_" width="35.992" height="50.29"/>
		</defs>
		<defs>
			<rect id="SVGID_13_" width="35.992" height="50.29"/>
		</defs>
		<defs>
			<rect id="SVGID_14_" width="35.992" height="50.29"/>
		</defs>
		<defs>
			<rect id="SVGID_15_" width="35.992" height="50.29"/>
		</defs>
		<clipPath id="SVGID_16_">
			<use xlink:href="#SVGID_1_"  overflow="visible"/>
		</clipPath>
		<clipPath id="SVGID_17_" clip-path="url(#SVGID_16_)">
			<use xlink:href="#SVGID_2_"  overflow="visible"/>
		</clipPath>
		<clipPath id="SVGID_18_" clip-path="url(#SVGID_17_)">
			<use xlink:href="#SVGID_3_"  overflow="visible"/>
		</clipPath>
		<clipPath id="SVGID_19_" clip-path="url(#SVGID_18_)">
			<use xlink:href="#SVGID_4_"  overflow="visible"/>
		</clipPath>
		<clipPath id="SVGID_20_" clip-path="url(#SVGID_19_)">
			<use xlink:href="#SVGID_5_"  overflow="visible"/>
		</clipPath>
		<clipPath id="SVGID_21_" clip-path="url(#SVGID_20_)">
			<use xlink:href="#SVGID_6_"  overflow="visible"/>
		</clipPath>
		<clipPath id="SVGID_22_" clip-path="url(#SVGID_21_)">
			<use xlink:href="#SVGID_7_"  overflow="visible"/>
		</clipPath>
		<clipPath id="SVGID_23_" clip-path="url(#SVGID_22_)">
			<use xlink:href="#SVGID_8_"  overflow="visible"/>
		</clipPath>
		<clipPath id="SVGID_24_" clip-path="url(#SVGID_23_)">
			<use xlink:href="#SVGID_9_"  overflow="visible"/>
		</clipPath>
		<clipPath id="SVGID_25_" clip-path="url(#SVGID_24_)">
			<use xlink:href="#SVGID_10_"  overflow="visible"/>
		</clipPath>
		<clipPath id="SVGID_26_" clip-path="url(#SVGID_25_)">
			<use xlink:href="#SVGID_11_"  overflow="visible"/>
		</clipPath>
		<clipPath id="SVGID_27_" clip-path="url(#SVGID_26_)">
			<use xlink:href="#SVGID_12_"  overflow="visible"/>
		</clipPath>
		<clipPath id="SVGID_28_" clip-path="url(#SVGID_27_)">
			<use xlink:href="#SVGID_13_"  overflow="visible"/>
		</clipPath>
		<clipPath id="SVGID_29_" clip-path="url(#SVGID_28_)">
			<use xlink:href="#SVGID_14_"  overflow="visible"/>
		</clipPath>
		<clipPath id="SVGID_30_" clip-path="url(#SVGID_29_)">
			<use xlink:href="#SVGID_15_"  overflow="visible"/>
		</clipPath>
		
			<ellipse clip-path="url(#SVGID_30_)" fill="none" stroke="#5A6870" stroke-width="1.4796" stroke-linecap="round" stroke-linejoin="round" cx="17.9" cy="24.524" rx="3.668" ry="3.659"/>
		
			<path clip-path="url(#SVGID_30_)" fill="none" stroke="#5A6870" stroke-width="1.4796" stroke-linecap="round" stroke-linejoin="round" d="
			M30.691,41.125c0.076,0,0.139-0.063,0.139-0.139V0.596c0-0.127-0.104-0.231-0.232-0.231h-0.002H17.899H5.205H5.202
			c-0.128,0-0.232,0.103-0.232,0.231v40.392c0,0.075,0.062,0.14,0.139,0.14h25.583V41.125z"/>
		
			<path clip-path="url(#SVGID_30_)" fill="none" stroke="#5A6870" stroke-width="1.4796" stroke-linecap="round" stroke-linejoin="round" d="
			M11.212,35.104c0,0.035-0.009,0.07-0.021,0.104c-0.015,0.035-0.036,0.068-0.062,0.094c-0.051,0.052-0.123,0.082-0.194,0.082
			c-0.072,0-0.143-0.029-0.194-0.078c-0.027-0.027-0.049-0.063-0.064-0.096c-0.014-0.035-0.023-0.069-0.023-0.104
			c0-0.037,0.009-0.071,0.023-0.104c0.015-0.035,0.036-0.067,0.062-0.094c0.05-0.052,0.121-0.08,0.193-0.08
			c0.071,0,0.143,0.027,0.194,0.077c0.028,0.027,0.049,0.062,0.065,0.097C11.203,35.034,11.212,35.067,11.212,35.104z"/>
		
			<path clip-path="url(#SVGID_30_)" fill="none" stroke="#5A6870" stroke-width="1.4796" stroke-linecap="round" stroke-linejoin="round" d="
			M17.899,33.135c-0.193,0-0.347-0.155-0.347-0.348v-2.314c0-0.193,0.154-0.348,0.347-0.348c0.194,0,0.348,0.153,0.348,0.348v2.314
			C18.248,32.979,18.093,33.135,17.899,33.135z"/>
		
			<ellipse clip-path="url(#SVGID_30_)" fill="none" stroke="#5A6870" stroke-width="1.4796" stroke-linecap="round" stroke-linejoin="round" cx="17.899" cy="11.944" rx="4.412" ry="4.4"/>
		
			<ellipse clip-path="url(#SVGID_30_)" fill="none" stroke="#5A6870" stroke-width="1.4796" stroke-linecap="round" stroke-linejoin="round" cx="17.899" cy="11.944" rx="2.308" ry="2.3"/>
		
			<line clip-path="url(#SVGID_30_)" fill="none" stroke="#5A6870" stroke-width="1.4796" stroke-linecap="round" stroke-linejoin="round" x1="10.76" y1="46.221" x2="10.662" y2="46.221"/>
		
			<path clip-path="url(#SVGID_30_)" fill="none" stroke="#5A6870" stroke-width="1.4796" stroke-linecap="round" stroke-linejoin="round" d="
			M13.209,41.125c-0.015,1.584-0.028,3.297-0.042,4.885c-0.001,0.113-0.087,0.212-0.203,0.227"/>
		
			<path clip-path="url(#SVGID_30_)" fill="none" stroke="#5A6870" stroke-width="1.4796" stroke-linecap="round" stroke-linejoin="round" d="
			M22.591,41.125c0.013,1.584,0.027,3.297,0.041,4.885c0.001,0.117,0.091,0.216,0.208,0.228"/>
		
			<path clip-path="url(#SVGID_30_)" fill="none" stroke="#5A6870" stroke-width="1.4796" stroke-linecap="round" stroke-linejoin="round" d="
			M17.899,46.221h-7.238c-0.161,0.014-0.32,0.027-0.48,0.042c-0.139,0.013-0.277,0.026-0.416,0.041
			c-0.286,0.026-0.572,0.062-0.857,0.096c-0.603,0.074-1.205,0.158-1.804,0.253c-0.998,0.157-1.991,0.34-2.979,0.547
			c-1.175,0.244-2.34,0.522-3.5,0.829c-0.05,0.015-0.087,0.041-0.12,0.08c-0.032,0.04-0.047,0.081-0.05,0.13
			c-0.03,0.485-0.059,0.971-0.09,1.455H17.9h17.727c-0.029-0.484-0.059-0.967-0.09-1.453c-0.005-0.103-0.074-0.186-0.174-0.212
			c-3.172-0.842-6.7-1.532-9.981-1.803c-0.034-0.003-0.071-0.005-0.108-0.005h-0.012h-0.039h-0.174h-0.697H23.43h-1.842H17.899z"/>
		
			<path clip-path="url(#SVGID_30_)" fill="none" stroke="#5A6870" stroke-width="1.4796" stroke-linecap="round" stroke-linejoin="round" d="
			M13.163,45.92c0.002-0.008,0.003-0.016,0.003-0.021"/>
		
			<path clip-path="url(#SVGID_30_)" fill="none" stroke="#5A6870" stroke-width="1.4796" stroke-linecap="round" stroke-linejoin="round" d="
			M22.634,45.898c0,0.007,0.003,0.015,0.003,0.021"/>
		
			<path clip-path="url(#SVGID_30_)" fill="none" stroke="#5A6870" stroke-width="1.4796" stroke-linecap="round" stroke-linejoin="round" d="
			M17.899,4.44c4.158,0,7.521,3.359,7.523,7.504c0,4.144-3.367,7.504-7.523,7.504c-4.158,0-7.521-3.36-7.523-7.504
			C10.376,7.8,13.745,4.44,17.899,4.44z"/>
		
			<line clip-path="url(#SVGID_30_)" fill="none" stroke="#5A6870" stroke-width="1.4796" stroke-linecap="round" stroke-linejoin="round" x1="0.52" y1="48.17" x2="35.473" y2="48.17"/>
		
			<path clip-path="url(#SVGID_30_)" fill="none" stroke="#5A6870" stroke-width="1.4796" stroke-linecap="round" stroke-linejoin="round" d="
			M3.296,49.803c0.031,0.074,0.106,0.121,0.188,0.121h29.023c0.082,0,0.155-0.047,0.188-0.121"/>
	</g>
</g>
</svg>
