<?xml version="1.0" encoding="utf-8"?>
<!-- Generator: Adobe Illustrator 16.0.0, SVG Export Plug-In . SVG Version: 6.00 Build 0)  -->
<!DOCTYPE svg PUBLIC "-//W3C//DTD SVG 1.0//EN" "http://www.w3.org/TR/2001/REC-SVG-20010904/DTD/svg10.dtd">
<svg version="1.0" id="Слой_1" xmlns="http://www.w3.org/2000/svg" xmlns:xlink="http://www.w3.org/1999/xlink" x="0px" y="0px"
	 width="50.769px" height="50.771px" viewBox="0 0 50.769 50.771" enable-background="new 0 0 50.769 50.771" xml:space="preserve">
<g>
	<g>
		
			<circle fill="none" stroke="#5A6870" stroke-width="1.3888" stroke-linecap="round" stroke-linejoin="round" cx="25.385" cy="25.385" r="23.007"/>
		<path fill="#5A6870" d="M25.384,25.279c0.059,0,0.106,0.047,0.106,0.105s-0.047,0.106-0.106,0.106s-0.106-0.047-0.106-0.106
			S25.326,25.279,25.384,25.279 M25.384,24.486c-0.496,0-0.898,0.403-0.898,0.898s0.402,0.898,0.898,0.898
			c0.496,0,0.898-0.403,0.898-0.898S25.88,24.486,25.384,24.486"/>
		
			<circle fill="none" stroke="#5A6870" stroke-width="1.3888" stroke-linecap="round" stroke-linejoin="round" cx="25.384" cy="25.385" r="4.489"/>
		
			<circle fill="none" stroke="#5A6870" stroke-width="1.3888" stroke-linecap="round" stroke-linejoin="round" cx="29.429" cy="18.378" r="1.346"/>
		
			<circle fill="none" stroke="#5A6870" stroke-width="1.3888" stroke-linecap="round" stroke-linejoin="round" cx="28.699" cy="13.017" r="1.796"/>
		
			<circle fill="none" stroke="#5A6870" stroke-width="1.3888" stroke-linecap="round" stroke-linejoin="round" cx="34.72" cy="9.214" r="2.244"/>
		
			<circle fill="none" stroke="#5A6870" stroke-width="1.3888" stroke-linecap="round" stroke-linejoin="round" cx="32.391" cy="21.339" r="1.346"/>
		
			<circle fill="none" stroke="#5A6870" stroke-width="1.3888" stroke-linecap="round" stroke-linejoin="round" cx="34.438" cy="16.33" r="1.796"/>
		
			<circle fill="none" stroke="#5A6870" stroke-width="1.3888" stroke-linecap="round" stroke-linejoin="round" cx="41.555" cy="16.048" r="2.244"/>
		
			<circle fill="none" stroke="#5A6870" stroke-width="1.3888" stroke-linecap="round" stroke-linejoin="round" cx="33.475" cy="25.385" r="1.347"/>
		
			<circle fill="none" stroke="#5A6870" stroke-width="1.3888" stroke-linecap="round" stroke-linejoin="round" cx="37.752" cy="22.072" r="1.795"/>
		
			<circle fill="none" stroke="#5A6870" stroke-width="1.3888" stroke-linecap="round" stroke-linejoin="round" cx="44.058" cy="25.385" r="2.245"/>
		
			<circle fill="none" stroke="#5A6870" stroke-width="1.3888" stroke-linecap="round" stroke-linejoin="round" cx="32.391" cy="29.431" r="1.346"/>
		
			<circle fill="none" stroke="#5A6870" stroke-width="1.3888" stroke-linecap="round" stroke-linejoin="round" cx="37.752" cy="28.698" r="1.795"/>
		
			<circle fill="none" stroke="#5A6870" stroke-width="1.3888" stroke-linecap="round" stroke-linejoin="round" cx="41.555" cy="34.722" r="2.244"/>
		
			<circle fill="none" stroke="#5A6870" stroke-width="1.3888" stroke-linecap="round" stroke-linejoin="round" cx="29.429" cy="32.392" r="1.346"/>
		
			<circle fill="none" stroke="#5A6870" stroke-width="1.3888" stroke-linecap="round" stroke-linejoin="round" cx="34.439" cy="34.438" r="1.795"/>
		
			<circle fill="none" stroke="#5A6870" stroke-width="1.3888" stroke-linecap="round" stroke-linejoin="round" cx="34.72" cy="41.556" r="2.244"/>
		
			<circle fill="none" stroke="#5A6870" stroke-width="1.3888" stroke-linecap="round" stroke-linejoin="round" cx="25.384" cy="33.476" r="1.347"/>
		<path fill="none" stroke="#5A6870" stroke-width="1.3888" stroke-linecap="round" stroke-linejoin="round" d="M26.963,38.218
			c-0.257-0.958,0.312-1.943,1.271-2.199c0.957-0.258,1.941,0.311,2.197,1.27c0.26,0.959-0.311,1.943-1.268,2.2
			C28.205,39.745,27.22,39.177,26.963,38.218z"/>
		
			<circle fill="none" stroke="#5A6870" stroke-width="1.3888" stroke-linecap="round" stroke-linejoin="round" cx="25.385" cy="44.058" r="2.245"/>
		<path fill="none" stroke="#5A6870" stroke-width="1.3888" stroke-linecap="round" stroke-linejoin="round" d="M20.172,31.718
			c0.372-0.645,1.196-0.864,1.84-0.492c0.644,0.373,0.866,1.195,0.493,1.838c-0.372,0.646-1.195,0.865-1.84,0.494
			C20.022,33.187,19.8,32.362,20.172,31.718z"/>
		
			<circle fill="none" stroke="#5A6870" stroke-width="1.3888" stroke-linecap="round" stroke-linejoin="round" cx="22.07" cy="37.753" r="1.795"/>
		
			<circle fill="none" stroke="#5A6870" stroke-width="1.3888" stroke-linecap="round" stroke-linejoin="round" cx="16.048" cy="41.556" r="2.244"/>
		
			<circle fill="none" stroke="#5A6870" stroke-width="1.3888" stroke-linecap="round" stroke-linejoin="round" cx="18.377" cy="29.431" r="1.346"/>
		
			<circle fill="none" stroke="#5A6870" stroke-width="1.3888" stroke-linecap="round" stroke-linejoin="round" cx="16.33" cy="34.439" r="1.796"/>
		
			<circle fill="none" stroke="#5A6870" stroke-width="1.3888" stroke-linecap="round" stroke-linejoin="round" cx="9.213" cy="34.722" r="2.244"/>
		
			<circle fill="none" stroke="#5A6870" stroke-width="1.3888" stroke-linecap="round" stroke-linejoin="round" cx="17.294" cy="25.385" r="1.347"/>
		
			<circle fill="none" stroke="#5A6870" stroke-width="1.3888" stroke-linecap="round" stroke-linejoin="round" cx="13.016" cy="28.698" r="1.796"/>
		
			<circle fill="none" stroke="#5A6870" stroke-width="1.3888" stroke-linecap="round" stroke-linejoin="round" cx="6.711" cy="25.385" r="2.245"/>
		
			<circle fill="none" stroke="#5A6870" stroke-width="1.3888" stroke-linecap="round" stroke-linejoin="round" cx="18.377" cy="21.339" r="1.346"/>
		
			<circle fill="none" stroke="#5A6870" stroke-width="1.3888" stroke-linecap="round" stroke-linejoin="round" cx="13.016" cy="22.071" r="1.795"/>
		
			<circle fill="none" stroke="#5A6870" stroke-width="1.3888" stroke-linecap="round" stroke-linejoin="round" cx="9.213" cy="16.048" r="2.244"/>
		
			<circle fill="none" stroke="#5A6870" stroke-width="1.3888" stroke-linecap="round" stroke-linejoin="round" cx="21.339" cy="18.377" r="1.347"/>
		
			<circle fill="none" stroke="#5A6870" stroke-width="1.3888" stroke-linecap="round" stroke-linejoin="round" cx="16.33" cy="16.331" r="1.796"/>
		
			<circle fill="none" stroke="#5A6870" stroke-width="1.3888" stroke-linecap="round" stroke-linejoin="round" cx="16.048" cy="9.213" r="2.244"/>
		
			<circle fill="none" stroke="#5A6870" stroke-width="1.3888" stroke-linecap="round" stroke-linejoin="round" cx="25.384" cy="17.294" r="1.346"/>
		
			<circle fill="none" stroke="#5A6870" stroke-width="1.3888" stroke-linecap="round" stroke-linejoin="round" cx="22.071" cy="13.017" r="1.795"/>
		
			<circle fill="none" stroke="#5A6870" stroke-width="1.3888" stroke-linecap="round" stroke-linejoin="round" cx="25.384" cy="6.711" r="2.245"/>
		
			<circle fill="none" stroke="#5A6870" stroke-width="1.3888" stroke-linecap="round" stroke-linejoin="round" cx="25.384" cy="25.385" r="24.69"/>
	</g>
</g>
</svg>
