<?xml version="1.0" encoding="utf-8"?>
<!-- Generator: Adobe Illustrator 16.0.0, SVG Export Plug-In . SVG Version: 6.00 Build 0)  -->
<!DOCTYPE svg PUBLIC "-//W3C//DTD SVG 1.0//EN" "http://www.w3.org/TR/2001/REC-SVG-20010904/DTD/svg10.dtd">
<svg version="1.0" id="Слой_1" xmlns="http://www.w3.org/2000/svg" xmlns:xlink="http://www.w3.org/1999/xlink" x="0px" y="0px"
	 width="34.697px" height="48.699px" viewBox="0.609 0.609 34.697 48.699" enable-background="new 0.609 0.609 34.697 48.699"
	 xml:space="preserve">
<g>
	<defs>
		<rect id="SVGID_1_" x="0.609" y="0.609" width="34.697" height="48.699"/>
	</defs>
	<defs>
		<rect id="SVGID_2_" x="0.609" y="0.609" width="34.697" height="48.699"/>
	</defs>
	<defs>
		<rect id="SVGID_3_" x="0.609" y="0.609" width="34.697" height="48.699"/>
	</defs>
	<defs>
		<rect id="SVGID_4_" x="0.609" y="0.609" width="34.697" height="48.699"/>
	</defs>
	<defs>
		<rect id="SVGID_5_" x="0.609" y="0.609" width="34.697" height="48.699"/>
	</defs>
	<defs>
		<rect id="SVGID_6_" x="0.609" y="0.609" width="34.697" height="48.699"/>
	</defs>
	<clipPath id="SVGID_7_">
		<use xlink:href="#SVGID_1_"  overflow="visible"/>
	</clipPath>
	<clipPath id="SVGID_8_" clip-path="url(#SVGID_7_)">
		<use xlink:href="#SVGID_2_"  overflow="visible"/>
	</clipPath>
	<clipPath id="SVGID_9_" clip-path="url(#SVGID_8_)">
		<use xlink:href="#SVGID_3_"  overflow="visible"/>
	</clipPath>
	<clipPath id="SVGID_10_" clip-path="url(#SVGID_9_)">
		<use xlink:href="#SVGID_4_"  overflow="visible"/>
	</clipPath>
	<clipPath id="SVGID_11_" clip-path="url(#SVGID_10_)">
		<use xlink:href="#SVGID_5_"  overflow="visible"/>
	</clipPath>
	<clipPath id="SVGID_12_" clip-path="url(#SVGID_11_)">
		<use xlink:href="#SVGID_6_"  overflow="visible"/>
	</clipPath>
	
		<path clip-path="url(#SVGID_12_)" fill="none" stroke="#5A6870" stroke-width="1.384" stroke-linecap="round" stroke-linejoin="round" d="
		M29.806,1.031c-0.043,0-0.078,0.036-0.078,0.078v47.699c0,0.044,0.035,0.078,0.078,0.078h4.301c0.431,0.001,0.779-0.35,0.779-0.783
		V1.814c0-0.432-0.35-0.783-0.779-0.783H29.806z"/>
	
		<path clip-path="url(#SVGID_12_)" fill="none" stroke="#5A6870" stroke-width="1.384" stroke-linecap="round" stroke-linejoin="round" d="
		M1.81,1.031c-0.432,0-0.78,0.351-0.78,0.783v46.287c0,0.434,0.348,0.783,0.78,0.783h25.703c0.043,0,0.078-0.034,0.078-0.078V1.109
		c0-0.042-0.035-0.078-0.078-0.078H1.81z"/>
	
		<path clip-path="url(#SVGID_12_)" fill="none" stroke="#5A6870" stroke-width="1.384" stroke-linecap="round" stroke-linejoin="round" d="
		M18.72,26.723c0,1.284,1.036,2.327,2.318,2.327c1.279,0,2.318-1.043,2.318-2.327v-3.53c0-1.286-1.039-2.329-2.318-2.329
		c-1.282,0-2.318,1.043-2.318,2.329V26.723z"/>
	
		<path clip-path="url(#SVGID_12_)" fill="none" stroke="#5A6870" stroke-width="1.384" stroke-linecap="round" stroke-linejoin="round" d="
		M27.592,1.031c-0.036,0.132-0.071,0.264-0.104,0.395C22.233,1.737,16.98,2.048,11.726,2.36c-0.532,0.029-1.062,0.052-1.591,0.063
		C9.573,2.438,9.012,2.441,8.45,2.438c-1.06-0.01-2.119-0.049-3.179-0.135c-0.439-0.036-0.877-0.08-1.316-0.141
		C3.62,2.117,3.285,2.063,2.951,1.987C2.73,1.938,2.51,1.881,2.29,1.782C2.229,1.755,2.168,1.726,2.108,1.675
		C2.091,1.659,2.075,1.644,2.058,1.62c-0.01-0.011-0.02-0.026-0.026-0.053C1.983,1.388,1.935,1.21,1.888,1.031"/>
	
		<path clip-path="url(#SVGID_12_)" fill="none" stroke="#5A6870" stroke-width="1.384" stroke-linecap="round" stroke-linejoin="round" d="
		M1.888,48.884c0.047-0.178,0.094-0.355,0.143-0.535c0.007-0.025,0.017-0.042,0.026-0.057c0.019-0.022,0.037-0.039,0.056-0.055
		c0.063-0.052,0.125-0.083,0.188-0.109c0.215-0.096,0.432-0.151,0.649-0.199c0.332-0.074,0.661-0.129,0.992-0.174
		c0.442-0.062,0.886-0.105,1.329-0.143c1.058-0.086,2.116-0.125,3.173-0.134c1.093-0.011,2.188,0.013,3.281,0.076
		c5.252,0.313,10.504,0.623,15.758,0.935c0.037,0.131,0.07,0.264,0.106,0.395"/>
	<path clip-path="url(#SVGID_12_)" fill="#5A6870" d="M17.248,24.536c-0.232,0-0.42,0.189-0.42,0.422s0.188,0.422,0.42,0.422
		s0.42-0.189,0.42-0.422C17.668,24.726,17.48,24.536,17.248,24.536"/>
</g>
</svg>
