<?xml version="1.0" encoding="utf-8"?>
<!-- Generator: Adobe Illustrator 16.0.0, SVG Export Plug-In . SVG Version: 6.00 Build 0)  -->
<!DOCTYPE svg PUBLIC "-//W3C//DTD SVG 1.0//EN" "http://www.w3.org/TR/2001/REC-SVG-20010904/DTD/svg10.dtd">
<svg version="1.0" id="Слой_1" xmlns="http://www.w3.org/2000/svg" xmlns:xlink="http://www.w3.org/1999/xlink" x="0px" y="0px"
	 width="48.554px" height="49.166px" viewBox="0.337 0.333 48.554 49.166" enable-background="new 0.337 0.333 48.554 49.166"
	 xml:space="preserve">
<g>
	<defs>
		<rect id="SVGID_1_" x="0.608" y="0.608" width="48.01" height="48.618"/>
	</defs>
	<defs>
		<rect id="SVGID_2_" x="0.608" y="0.608" width="48.01" height="48.618"/>
	</defs>
	<defs>
		<rect id="SVGID_3_" x="0.608" y="0.608" width="48.01" height="48.618"/>
	</defs>
	<defs>
		<rect id="SVGID_4_" x="0.608" y="0.608" width="48.01" height="48.618"/>
	</defs>
	<defs>
		<rect id="SVGID_5_" x="0.608" y="0.608" width="48.01" height="48.618"/>
	</defs>
	<defs>
		<rect id="SVGID_6_" x="0.608" y="0.608" width="48.01" height="48.618"/>
	</defs>
	<defs>
		<rect id="SVGID_7_" x="0.608" y="0.608" width="48.01" height="48.618"/>
	</defs>
	<defs>
		<rect id="SVGID_8_" x="0.608" y="0.608" width="48.01" height="48.618"/>
	</defs>
	<defs>
		<rect id="SVGID_9_" x="0.608" y="0.608" width="48.01" height="48.618"/>
	</defs>
	<defs>
		<rect id="SVGID_10_" x="0.608" y="0.608" width="48.01" height="48.618"/>
	</defs>
	<defs>
		<rect id="SVGID_11_" x="0.608" y="0.608" width="48.01" height="48.618"/>
	</defs>
	<clipPath id="SVGID_12_">
		<use xlink:href="#SVGID_1_"  overflow="visible"/>
	</clipPath>
	<clipPath id="SVGID_13_" clip-path="url(#SVGID_12_)">
		<use xlink:href="#SVGID_2_"  overflow="visible"/>
	</clipPath>
	<clipPath id="SVGID_14_" clip-path="url(#SVGID_13_)">
		<use xlink:href="#SVGID_3_"  overflow="visible"/>
	</clipPath>
	<clipPath id="SVGID_15_" clip-path="url(#SVGID_14_)">
		<use xlink:href="#SVGID_4_"  overflow="visible"/>
	</clipPath>
	<clipPath id="SVGID_16_" clip-path="url(#SVGID_15_)">
		<use xlink:href="#SVGID_5_"  overflow="visible"/>
	</clipPath>
	<clipPath id="SVGID_17_" clip-path="url(#SVGID_16_)">
		<use xlink:href="#SVGID_6_"  overflow="visible"/>
	</clipPath>
	<clipPath id="SVGID_18_" clip-path="url(#SVGID_17_)">
		<use xlink:href="#SVGID_7_"  overflow="visible"/>
	</clipPath>
	<clipPath id="SVGID_19_" clip-path="url(#SVGID_18_)">
		<use xlink:href="#SVGID_8_"  overflow="visible"/>
	</clipPath>
	<clipPath id="SVGID_20_" clip-path="url(#SVGID_19_)">
		<use xlink:href="#SVGID_9_"  overflow="visible"/>
	</clipPath>
	<clipPath id="SVGID_21_" clip-path="url(#SVGID_20_)">
		<use xlink:href="#SVGID_10_"  overflow="visible"/>
	</clipPath>
	<clipPath id="SVGID_22_" clip-path="url(#SVGID_21_)">
		<use xlink:href="#SVGID_11_"  overflow="visible"/>
	</clipPath>
	
		<path clip-path="url(#SVGID_22_)" fill="none" stroke="#5A6870" stroke-width="1.391" stroke-linecap="round" stroke-linejoin="round" d="
		M1.032,38.803c0,0,0.017,0.101,0.06,0.141c0.196,0.196,0.393,0.393,0.589,0.585c0.042,0.046,0.143,0.06,0.143,0.06h45.581
		l0.143-0.06l0.591-0.585c0.041-0.04,0.058-0.138,0.058-0.138V1.814l-0.058-0.142c-0.196-0.195-0.591-0.584-0.591-0.584
		l-0.143-0.059H1.823c0,0-0.101,0.015-0.143,0.059C1.484,1.282,1.092,1.673,1.092,1.673l-0.06,0.142V38.803z"/>
	
		<path clip-path="url(#SVGID_22_)" fill="none" stroke="#5A6870" stroke-width="1.391" stroke-linecap="round" stroke-linejoin="round" d="
		M48.174,1.724c-0.015,0.208-0.091,0.405-0.196,0.582c-0.102,0.162-0.227,0.307-0.363,0.44c-0.199,0.19-0.419,0.355-0.65,0.503
		c-0.253,0.164-0.519,0.309-0.789,0.44c-0.334,0.164-0.677,0.309-1.023,0.44c-0.393,0.15-0.79,0.284-1.189,0.409
		C43.517,4.675,43.07,4.8,42.62,4.914c-0.541,0.138-1.083,0.261-1.628,0.375c-1.173,0.244-2.354,0.441-3.542,0.606
		c-1.306,0.183-2.617,0.327-3.931,0.443c-0.714,0.063-1.431,0.117-2.146,0.162c-0.742,0.049-1.48,0.087-2.223,0.118
		c-1.511,0.064-3.023,0.096-4.535,0.096s-3.024-0.032-4.537-0.096c-0.74-0.031-1.48-0.069-2.221-0.118
		c-0.716-0.045-1.434-0.1-2.147-0.162c-1.314-0.116-2.625-0.261-3.933-0.443C10.591,5.73,9.41,5.533,8.238,5.289
		c-0.546-0.113-1.09-0.236-1.629-0.375C6.159,4.8,5.71,4.675,5.268,4.538c-0.4-0.125-0.798-0.259-1.19-0.409
		C3.73,3.997,3.388,3.852,3.053,3.689c-0.271-0.131-0.536-0.276-0.789-0.44C2.033,3.101,1.81,2.936,1.614,2.746
		C1.477,2.612,1.35,2.467,1.251,2.305C1.144,2.128,1.068,1.931,1.052,1.724"/>
	
		<path clip-path="url(#SVGID_22_)" fill="none" stroke="#5A6870" stroke-width="1.391" stroke-linecap="round" stroke-linejoin="round" d="
		M1.053,38.893c0.013-0.207,0.09-0.404,0.196-0.579c0.101-0.164,0.227-0.31,0.363-0.442c0.199-0.189,0.419-0.354,0.65-0.504
		c0.253-0.162,0.519-0.309,0.789-0.438c0.334-0.163,0.677-0.31,1.024-0.438c0.393-0.15,0.789-0.285,1.189-0.41
		c0.444-0.137,0.891-0.263,1.342-0.377c0.54-0.138,1.083-0.262,1.627-0.373c1.173-0.246,2.354-0.441,3.542-0.606
		c1.306-0.183,2.617-0.327,3.931-0.444c0.714-0.063,1.432-0.115,2.146-0.16c0.741-0.05,1.481-0.088,2.223-0.119
		c1.51-0.063,3.022-0.096,4.535-0.096s3.024,0.032,4.535,0.096c0.741,0.031,1.48,0.069,2.223,0.119
		c0.716,0.045,1.433,0.1,2.146,0.16c1.315,0.117,2.627,0.262,3.934,0.444c1.187,0.165,2.367,0.36,3.539,0.606
		c0.547,0.111,1.09,0.235,1.63,0.373c0.449,0.114,0.897,0.24,1.341,0.377c0.4,0.125,0.797,0.26,1.188,0.41
		c0.349,0.131,0.69,0.275,1.025,0.438c0.271,0.131,0.535,0.276,0.79,0.438c0.231,0.15,0.451,0.313,0.648,0.504
		c0.138,0.135,0.265,0.278,0.362,0.442c0.106,0.175,0.184,0.372,0.198,0.579"/>
	
		<rect x="3.628" y="9.692" clip-path="url(#SVGID_22_)" fill="none" stroke="#5A6870" stroke-width="1.391" stroke-linecap="round" stroke-linejoin="round" width="41.971" height="21.23"/>
	
		<rect x="21.251" y="39.588" clip-path="url(#SVGID_22_)" fill="none" stroke="#5A6870" stroke-width="1.391" stroke-linecap="round" stroke-linejoin="round" width="6.701" height="8.213"/>
	<path clip-path="url(#SVGID_22_)" fill="#5A6870" d="M24.613,7.549c-0.328,0-0.594,0.265-0.594,0.59
		c0,0.325,0.267,0.589,0.594,0.589s0.594-0.264,0.594-0.589C25.207,7.814,24.941,7.549,24.613,7.549"/>
	
		<line clip-path="url(#SVGID_22_)" fill="none" stroke="#5A6870" stroke-width="1.391" stroke-linecap="round" stroke-linejoin="round" x1="33.747" y1="20.484" x2="29.812" y2="27.221"/>
	
		<line clip-path="url(#SVGID_22_)" fill="none" stroke="#5A6870" stroke-width="1.391" stroke-linecap="round" stroke-linejoin="round" x1="37.225" y1="17.758" x2="33.289" y2="24.495"/>
	
		<line clip-path="url(#SVGID_22_)" fill="none" stroke="#5A6870" stroke-width="1.391" stroke-linecap="round" stroke-linejoin="round" x1="15.444" y1="15.486" x2="11.509" y2="22.222"/>
	
		<line clip-path="url(#SVGID_22_)" fill="none" stroke="#5A6870" stroke-width="1.391" stroke-linecap="round" stroke-linejoin="round" x1="18.921" y1="12.759" x2="14.985" y2="19.496"/>
	
		<rect x="3.09" y="47.801" clip-path="url(#SVGID_22_)" fill="none" stroke="#5A6870" stroke-width="1.391" stroke-linecap="round" stroke-linejoin="round" width="43.022" height="1.003"/>
</g>
</svg>
