<?xml version="1.0" encoding="utf-8"?>
<!-- Generator: Adobe Illustrator 16.0.0, SVG Export Plug-In . SVG Version: 6.00 Build 0)  -->
<!DOCTYPE svg PUBLIC "-//W3C//DTD SVG 1.0//EN" "http://www.w3.org/TR/2001/REC-SVG-20010904/DTD/svg10.dtd">
<svg version="1.0" id="Слой_1" xmlns="http://www.w3.org/2000/svg" xmlns:xlink="http://www.w3.org/1999/xlink" x="0px" y="0px"
	 width="43.977px" height="43.746px" viewBox="0 0 43.977 43.746" enable-background="new 0 0 43.977 43.746" xml:space="preserve">
<g>
	<path fill="#31BBAC" d="M43.872,9.646c-4.318-1.798-9.433-1.37-13.425,1.665c-3.354,2.55-5.131,6.348-5.283,10.249
		c-0.528,0.482-1.054,0.974-1.551,1.521c-0.46,0.505-0.918,1.118-1.347,1.799c-0.55-1.25-1.175-2.558-1.838-3.865
		c0.084-0.112,0.155-0.243,0.251-0.34c0.737-0.739,2.138-0.993,2.668-1.907c0.521-0.9,0.048-2.236,0.322-3.266
		c0.266-0.994,1.353-1.912,1.353-2.991c0-1.077-1.087-1.995-1.353-2.99c-0.274-1.031,0.198-2.367-0.322-3.265
		c-0.525-0.915-1.931-1.17-2.668-1.909c-0.742-0.745-0.994-2.144-1.909-2.671c-0.898-0.521-2.239-0.05-3.265-0.323
		C14.51,1.086,13.589,0,12.511,0c-1.074,0-1.997,1.086-2.991,1.353C8.494,1.626,7.153,1.155,6.255,1.676
		C5.344,2.204,5.086,3.603,4.347,4.344c-0.74,0.739-2.141,0.998-2.669,1.91C1.156,7.151,1.63,8.49,1.355,9.517
		C1.09,10.511,0,11.435,0,12.511c0,1.079,1.09,1.997,1.355,2.991c0.274,1.026-0.199,2.366,0.319,3.266
		c0.528,0.91,1.932,1.168,2.672,1.907c0.739,0.741,0.993,2.146,1.908,2.67c0.898,0.521,2.239,0.047,3.265,0.32
		c0.994,0.268,1.914,1.357,2.991,1.357c1.078,0,1.999-1.09,2.988-1.354c0.42-0.109,0.889-0.098,1.354-0.076
		c1.394,2.794,2.569,5.482,2.967,7.029h-8.59l2.187,13.123h17.499l2.187-13.123h-8.584c0.36-1.587,1.259-3.416,2.332-4.598
		c0.438-0.481,0.911-0.93,1.408-1.371c3.547,0.596,7.311-0.176,10.403-2.526C42.655,19.097,44.445,14.286,43.872,9.646
		 M18.773,14.19c-0.155,0.576,0.112,1.328-0.178,1.833c-0.299,0.513-1.087,0.656-1.5,1.07c-0.418,0.416-0.562,1.205-1.073,1.5
		c-0.505,0.292-1.257,0.027-1.834,0.177c-0.557,0.15-1.074,0.76-1.678,0.76c-0.604,0-1.122-0.609-1.678-0.76
		c-0.577-0.15-1.328,0.112-1.833-0.177c-0.514-0.3-0.657-1.084-1.07-1.5c-0.418-0.414-1.2-0.562-1.5-1.07
		c-0.29-0.505-0.027-1.257-0.18-1.833c-0.15-0.558-0.758-1.073-0.758-1.679c0-0.604,0.607-1.122,0.758-1.677
		c0.157-0.582-0.11-1.329,0.18-1.833c0.3-0.515,1.085-0.658,1.5-1.074c0.418-0.415,0.56-1.202,1.07-1.5
		c0.505-0.292,1.256-0.024,1.833-0.18c0.56-0.147,1.073-0.759,1.678-0.759c0.608,0,1.121,0.612,1.683,0.759
		c0.576,0.156,1.327-0.111,1.833,0.184c0.508,0.294,0.651,1.082,1.069,1.496c0.418,0.416,1.201,0.56,1.5,1.074
		c0.29,0.503,0.022,1.256,0.178,1.833c0.152,0.556,0.76,1.074,0.76,1.677C19.533,13.117,18.926,13.632,18.773,14.19"/>
</g>
</svg>
