<?xml version="1.0" encoding="utf-8"?>
<!-- Generator: Adobe Illustrator 16.0.0, SVG Export Plug-In . SVG Version: 6.00 Build 0)  -->
<!DOCTYPE svg PUBLIC "-//W3C//DTD SVG 1.0//EN" "http://www.w3.org/TR/2001/REC-SVG-20010904/DTD/svg10.dtd">
<svg version="1.0" id="Слой_1" xmlns="http://www.w3.org/2000/svg" xmlns:xlink="http://www.w3.org/1999/xlink" x="0px" y="0px"
	 width="45.354px" height="43.246px" viewBox="0 0 45.354 43.246" enable-background="new 0 0 45.354 43.246" xml:space="preserve">
<g>
	<path fill="#FBAF33" d="M43.087,35.015c-1.021-1.244-2.634-3.416-4.684-5.936c-3.66-4.352-5.185-9.077-5.449-12.984
		c-0.096-1.381,0.127-4.868-0.767-6.401c-0.935-1.603-2.116-1.227-3.803-0.849c-11.391,2.53-12.395-6.951-12.694-7.584
		c-0.079-0.338-1.174-1.498-1.574-1.218L12.326,1.34c1.427,10.792,9.66,21.851,15.004,27.15C16.339,20.859,11.173,13.667,8.298,4.48
		C7.527,5.141,6.74,5.814,6.562,6.01c-0.402,0.451-1.18,0.127-1.71,0.421c-0.633,0.35-1.484,0.939-2.312,1.859
		c-0.821,0.916-1.498,1.722-1.96,2.285c-0.599,0.695-0.868,2.005-0.146,3.129c0.424,0.652,2.096,2.634,3.895,4.514
		c1.574,1.64,27.766,25.73,36.358,25.012c1.662-0.137,3.274-0.536,4.453-2.867C45.684,38.79,45.255,37.666,43.087,35.015"/>
</g>
</svg>
