<?xml version="1.0" encoding="utf-8"?>
<!-- Generator: Adobe Illustrator 16.0.0, SVG Export Plug-In . SVG Version: 6.00 Build 0)  -->
<!DOCTYPE svg PUBLIC "-//W3C//DTD SVG 1.0//EN" "http://www.w3.org/TR/2001/REC-SVG-20010904/DTD/svg10.dtd">
<svg version="1.0" id="Слой_1" xmlns="http://www.w3.org/2000/svg" xmlns:xlink="http://www.w3.org/1999/xlink" x="0px" y="0px"
	 width="49.588px" height="50.999px" viewBox="0 0 49.588 50.999" enable-background="new 0 0 49.588 50.999" xml:space="preserve">
<path fill="#5A6870" d="M27.376,1.838V0.921c0-0.065-0.02-0.112-0.065-0.159c-0.023-0.024-0.053-0.027-0.08-0.037
	c-0.027-0.011-0.051-0.032-0.084-0.032h-2.353H22.44c-0.115,0.048-0.23,0.068-0.23,0.229v0.917"/>
<path fill="none" stroke="#5A6870" stroke-width="1.386" stroke-linecap="round" stroke-linejoin="round" d="M27.376,1.838V0.921
	c0-0.065-0.02-0.112-0.065-0.159c-0.023-0.024-0.053-0.027-0.08-0.037c-0.027-0.011-0.051-0.032-0.084-0.032h-2.353H22.44
	c-0.115,0.048-0.23,0.068-0.23,0.229v0.917"/>
<path fill="none" stroke="#5A6870" stroke-width="1.386" stroke-linecap="round" stroke-linejoin="round" d="M27.665,2.479V1.838
	h-5.741v0.667c0.956-0.064,1.914-0.102,2.871-0.105C25.75,2.395,26.708,2.423,27.665,2.479z"/>
<path fill="none" stroke="#5A6870" stroke-width="1.386" stroke-linecap="round" stroke-linejoin="round" d="M21.924,2.414
	C9.263,3.927-0.024,15.015,0.736,27.708c0.76,12.693,11.306,22.598,24.057,22.598c12.757,0,23.303-9.91,24.059-22.606
	C49.609,15.01,40.321,3.927,27.665,2.414H21.924z"/>
<ellipse fill="none" stroke="#5A6870" stroke-width="1.386" stroke-linecap="round" stroke-linejoin="round" cx="24.794" cy="26.274" rx="22.112" ry="22.05"/>
<rect x="11.969" y="16.394" fill="none" stroke="#5A6870" stroke-width="1.386" stroke-linecap="round" stroke-linejoin="round" width="25.648" height="13.121"/>
<line fill="none" stroke="#5A6870" stroke-width="1.386" stroke-linecap="round" stroke-linejoin="round" x1="24.511" y1="21.555" x2="21.253" y2="27.154"/>
<line fill="none" stroke="#5A6870" stroke-width="1.386" stroke-linecap="round" stroke-linejoin="round" x1="28.334" y1="18.756" x2="25.078" y2="24.354"/>
<polyline fill="none" points="44.383,0.207 0.205,0.207 0.205,50.791 49.383,50.791 44.383,0.207 "/>
</svg>
