<?xml version="1.0" encoding="utf-8"?>
<!-- Generator: Adobe Illustrator 16.0.0, SVG Export Plug-In . SVG Version: 6.00 Build 0)  -->
<!DOCTYPE svg PUBLIC "-//W3C//DTD SVG 1.0//EN" "http://www.w3.org/TR/2001/REC-SVG-20010904/DTD/svg10.dtd">
<svg version="1.0" id="Слой_1" xmlns="http://www.w3.org/2000/svg" xmlns:xlink="http://www.w3.org/1999/xlink" x="0px" y="0px"
	 width="27.126px" height="49.141px" viewBox="0 0 27.126 49.141" enable-background="new 0 0 27.126 49.141" xml:space="preserve">
<g>
	<g>
		<path fill="none" stroke="#5A6870" stroke-width="1.3893" stroke-linecap="round" stroke-linejoin="round" d="M14.922,43.87
			c0.252-0.049,0.505-0.083,0.759-0.124c0.146-0.023,0.293-0.053,0.438-0.082c0.008-0.001,0.017-0.001,0.025-0.003
			c0.1-0.003,0.198-0.008,0.297-0.013c0.512-0.023,1.024-0.051,1.535-0.081c0.258-0.016,0.514-0.034,0.769-0.057
			c0.129-0.01,0.257-0.022,0.384-0.037c0.063-0.008,0.127-0.016,0.19-0.027c0.032-0.004,0.063-0.011,0.094-0.02
			c0.015-0.003,0.078-0.016,0.083-0.039"/>
		
			<line fill="none" stroke="#5A6870" stroke-width="1.3893" stroke-linecap="round" stroke-linejoin="round" x1="19.31" y1="42.01" x2="19.314" y2="42.009"/>
		<path fill="none" stroke="#5A6870" stroke-width="1.3893" stroke-linecap="round" stroke-linejoin="round" d="M7.63,39.517
			L7.63,39.517c0.001-0.01,0.01-0.016,0.018-0.02c0.018-0.008,0.037-0.014,0.055-0.02c0.03-0.008,0.062-0.014,0.092-0.019
			c0.055-0.011,0.108-0.019,0.164-0.024c0.143-0.018,0.285-0.031,0.429-0.044c0.196-0.017,0.394-0.03,0.589-0.044
			c0.564-0.036,1.126-0.064,1.689-0.091c0.967-0.046,1.933-0.086,2.898-0.127c0.574-0.024,1.148-0.047,1.722-0.071
			c0.394-0.018,0.785-0.035,1.177-0.054c0.563-0.026,1.126-0.056,1.688-0.093c0.197-0.012,0.395-0.027,0.592-0.043
			c0.144-0.012,0.285-0.025,0.429-0.043c0.055-0.008,0.108-0.016,0.163-0.023c0.03-0.006,0.061-0.014,0.091-0.021
			c0.019-0.005,0.037-0.011,0.055-0.019c0.007-0.004,0.015-0.008,0.017-0.016c0.003,0,0.003-0.004,0.003-0.004"/>
		<path fill="none" stroke="#5A6870" stroke-width="1.3893" stroke-linecap="round" stroke-linejoin="round" d="M7.63,41.064
			c0.001-0.01,0.01-0.015,0.018-0.02c0.018-0.009,0.037-0.015,0.055-0.019c0.03-0.009,0.062-0.016,0.092-0.02
			c0.055-0.01,0.108-0.019,0.164-0.024c0.143-0.018,0.285-0.031,0.429-0.044c0.196-0.016,0.394-0.03,0.589-0.043
			c0.564-0.037,1.126-0.065,1.689-0.093c0.967-0.046,1.933-0.085,2.898-0.126c0.574-0.023,1.148-0.047,1.722-0.072
			c0.394-0.017,0.785-0.035,1.177-0.053c0.563-0.026,1.126-0.055,1.688-0.092c0.197-0.013,0.395-0.027,0.592-0.045
			c0.144-0.012,0.285-0.024,0.429-0.042c0.055-0.008,0.108-0.015,0.163-0.024c0.03-0.004,0.061-0.012,0.091-0.02
			c0.019-0.005,0.037-0.011,0.055-0.019c0.007-0.005,0.015-0.008,0.017-0.016c0.003-0.001,0.003-0.003,0.003-0.005"/>
		<path fill="none" stroke="#5A6870" stroke-width="1.3893" stroke-linecap="round" stroke-linejoin="round" d="M7.63,42.612
			c0.001-0.01,0.01-0.015,0.018-0.02c0.018-0.008,0.037-0.014,0.055-0.02c0.03-0.008,0.062-0.014,0.092-0.019
			c0.055-0.009,0.108-0.019,0.164-0.024c0.143-0.018,0.285-0.03,0.429-0.045c0.196-0.015,0.394-0.029,0.589-0.043
			c0.564-0.035,1.126-0.064,1.689-0.092c0.967-0.045,1.933-0.085,2.898-0.125c0.574-0.025,1.148-0.047,1.722-0.072
			c0.394-0.018,0.785-0.035,1.177-0.054c0.563-0.026,1.126-0.056,1.688-0.093c0.197-0.012,0.395-0.026,0.592-0.043
			c0.144-0.012,0.285-0.025,0.429-0.043c0.055-0.008,0.108-0.016,0.163-0.024c0.03-0.006,0.061-0.012,0.091-0.02
			c0.019-0.005,0.037-0.011,0.055-0.019c0.007-0.004,0.015-0.008,0.017-0.016c0.003,0,0.003-0.002,0.003-0.004"/>
		<path fill="none" stroke="#5A6870" stroke-width="1.3893" stroke-linecap="round" stroke-linejoin="round" d="M7.63,37.146
			c0,0.789,0,1.579,0,2.368c0.004,0.109,0.09,0.154,0.182,0.174c0.002-0.002,0.005,0.001,0.008,0.001
			c0.036,0.016,0.069,0.032,0.099,0.057c0.03,0.027,0.058,0.059,0.079,0.094c0.048,0.071,0.07,0.145,0.072,0.232
			c0.004,0.16-0.097,0.33-0.248,0.391c-0.089,0.018-0.186,0.062-0.191,0.17c0,0.143,0,0.286,0,0.43c0,0.111,0.094,0.151,0.182,0.174
			c0.073,0.016,0.149,0.094,0.186,0.151c0.049,0.073,0.07,0.146,0.072,0.233c0.003,0.16-0.098,0.334-0.252,0.391
			c-0.085,0.02-0.186,0.061-0.188,0.17c0,0.143,0,0.286,0,0.43c0,0.11,0.096,0.151,0.184,0.172c0.154,0.057,0.258,0.229,0.256,0.39
			c-0.002,0.162-0.098,0.332-0.258,0.388c-0.088,0.02-0.174,0.063-0.182,0.169c0,0.312,0,0.624,0,0.936
			c0,0.489,0.393,0.886,0.88,0.886h5.054h2.527h1.265h0.633h0.491h0.11h0.028c0.249-0.016,0.44-0.077,0.62-0.26
			c0.165-0.166,0.26-0.392,0.26-0.626c0-0.052,0-0.104,0-0.157c0-0.105-0.098-0.154-0.183-0.173
			c-0.159-0.057-0.255-0.224-0.257-0.386c-0.004-0.159,0.098-0.332,0.251-0.391c0.043-0.015,0.087-0.021,0.127-0.051
			c0.042-0.031,0.058-0.064,0.062-0.117c0-0.143,0-0.287,0-0.43c-0.004-0.111-0.095-0.154-0.186-0.174
			c-0.157-0.059-0.252-0.227-0.254-0.389c-0.003-0.162,0.1-0.329,0.254-0.389c0.088-0.019,0.177-0.059,0.186-0.168v-0.428
			c0-0.113-0.096-0.153-0.183-0.176c-0.157-0.055-0.254-0.223-0.257-0.383c-0.004-0.155,0.097-0.338,0.249-0.391
			c0.086-0.026,0.186-0.054,0.19-0.17c0-0.145,0-0.287,0-0.433c0-0.111-0.096-0.149-0.184-0.171
			c-0.158-0.057-0.254-0.225-0.256-0.386c-0.004-0.16,0.098-0.333,0.251-0.39c0.086-0.021,0.184-0.06,0.188-0.168
			c0-0.535,0-1.068,0-1.602"/>
		<path fill="none" stroke="#5A6870" stroke-width="1.3893" stroke-linecap="round" stroke-linejoin="round" d="M8.509,45.55
			c0.467,0.729,1.231,1.217,2.088,1.326h2.967h2.968c0.855-0.109,1.619-0.597,2.087-1.326"/>
		<polyline fill="none" stroke="#5A6870" stroke-width="1.3893" stroke-linecap="round" stroke-linejoin="round" points="
			16.528,46.877 14.866,48.011 13.563,48.011 12.261,48.011 10.598,46.877 		"/>
		<path fill="none" stroke="#5A6870" stroke-width="1.3893" stroke-linecap="round" stroke-linejoin="round" d="M14.867,48.011
			c-0.377,0.283-0.835,0.436-1.304,0.436c-0.468,0-0.928-0.152-1.304-0.434"/>
		
			<line fill="none" stroke="#5A6870" stroke-width="1.3893" stroke-linecap="round" stroke-linejoin="round" x1="0.696" y1="8.894" x2="26.431" y2="8.894"/>
		
			<line fill="none" stroke="#5A6870" stroke-width="1.3893" stroke-linecap="round" stroke-linejoin="round" x1="4.138" y1="31.847" x2="22.99" y2="31.847"/>
		<path fill="none" stroke="#5A6870" stroke-width="1.3893" stroke-linecap="round" stroke-linejoin="round" d="M25.732,8.085
			c0.022-0.112,0.063-0.209,0.125-0.306c0.139-0.214,0.276-0.428,0.415-0.643c0.101-0.152,0.145-0.301,0.145-0.483V3.335
			c-0.003-0.027-0.005-0.054-0.008-0.081c-0.011-0.042-0.023-0.083-0.034-0.124c-0.021-0.037-0.042-0.073-0.063-0.11
			c-0.029-0.032-0.061-0.063-0.09-0.095c-0.021-0.015-0.043-0.031-0.065-0.046c-0.28-0.167-0.573-0.306-0.874-0.428
			c-0.393-0.16-0.794-0.295-1.197-0.417c-1.016-0.307-2.055-0.53-3.1-0.711c-1.205-0.208-2.418-0.359-3.637-0.463
			c-1.259-0.108-2.523-0.166-3.786-0.166c-0.632,0-1.264,0.015-1.895,0.042s-1.262,0.069-1.892,0.124
			C8.561,0.964,7.347,1.116,6.142,1.324C5.096,1.505,4.058,1.729,3.041,2.035C2.638,2.157,2.235,2.292,1.845,2.452
			C1.544,2.574,1.25,2.713,0.97,2.88C0.948,2.895,0.926,2.911,0.903,2.926C0.874,2.957,0.845,2.989,0.814,3.021
			C0.794,3.057,0.773,3.093,0.753,3.13C0.739,3.171,0.728,3.212,0.718,3.254C0.715,3.281,0.713,3.308,0.711,3.335v3.319
			c0,0.182,0.044,0.331,0.144,0.483C0.993,7.352,1.132,7.565,1.271,7.78c0.062,0.096,0.102,0.194,0.124,0.306"/>
		
			<line fill="none" stroke="#5A6870" stroke-width="1.3893" stroke-linecap="round" stroke-linejoin="round" x1="26.417" y1="3.335" x2="0.711" y2="3.335"/>
		
			<line fill="none" stroke="#5A6870" stroke-width="1.3893" stroke-linecap="round" stroke-linejoin="round" x1="26.158" y1="2.88" x2="0.97" y2="2.88"/>
		<path fill="none" stroke="#5A6870" stroke-width="1.3893" stroke-linecap="round" stroke-linejoin="round" d="M5.55,32.027h0.691
			c0.209,0,0.574,0.171,0.721,0.307c0.146,0.135,0.295,0.264,0.449,0.39c0.034,0.027,0.066,0.053,0.087,0.096
			c0.028,0.056-0.019,0.073-0.069,0.073H6.95c-0.162,0-0.513-0.187-0.636-0.265c-0.224-0.139-0.445-0.281-0.664-0.426
			C5.583,32.157,5.417,32.027,5.55,32.027z"/>
		<path fill="none" stroke="#5A6870" stroke-width="1.3893" stroke-linecap="round" stroke-linejoin="round" d="M7.407,32.201
			c-0.105-0.109-0.053-0.175,0.09-0.175h1.025c0.176,0,0.581,0.108,0.67,0.309c0.06,0.135,0.128,0.264,0.207,0.389
			c0.076,0.123-0.051,0.168-0.163,0.168H8.513c-0.201,0-0.508-0.133-0.654-0.264C7.701,32.493,7.552,32.351,7.407,32.201z"/>
		<path fill="none" stroke="#5A6870" stroke-width="1.3893" stroke-linecap="round" stroke-linejoin="round" d="M6.166,32.724
			c0.046,0.027,0.094,0.054,0.139,0.083c0.022,0.014,0.046,0.028,0.065,0.046c0.012,0.008,0.025,0.012,0.026,0.029
			c0.001,0.014-0.028,0.01-0.035,0.01H6.187c-0.031,0-0.251-0.111-0.275-0.123c-0.09-0.047-0.178-0.094-0.266-0.141
			c-0.268-0.142-0.531-0.283-0.797-0.427c-0.049-0.026-0.098-0.053-0.146-0.079c-0.012-0.008-0.13-0.075-0.138-0.092
			c0-0.003,0.002-0.006,0.004-0.003h0.275c0.141,0,0.58,0.241,0.686,0.308C5.74,32.466,5.954,32.596,6.166,32.724z"/>
		<path fill="none" stroke="#5A6870" stroke-width="1.3893" stroke-linecap="round" stroke-linejoin="round" d="M10.175,32.027
			h1.234c0.119,0,0.228,0.021,0.336,0.065c0.085,0.035,0.234,0.117,0.203,0.241c-0.033,0.129-0.053,0.258-0.06,0.39
			c-0.004,0.071-0.073,0.115-0.13,0.135c-0.064,0.024-0.125,0.034-0.193,0.034h-0.882c-0.168,0-0.499-0.088-0.593-0.265
			c-0.076-0.138-0.137-0.277-0.186-0.426c-0.022-0.072,0.027-0.12,0.086-0.145C10.052,32.034,10.111,32.027,10.175,32.027z"/>
		<path fill="none" stroke="#5A6870" stroke-width="1.3893" stroke-linecap="round" stroke-linejoin="round" d="M13.261,32.027
			h1.298c0.104,0,0.197,0.011,0.289,0.063c0.108,0.057,0.139,0.15,0.052,0.243c-0.115,0.124-0.22,0.253-0.318,0.39
			c-0.089,0.122-0.315,0.169-0.445,0.169h-0.932c-0.102,0-0.193-0.018-0.286-0.057c-0.078-0.032-0.192-0.1-0.178-0.208
			c0.021-0.146,0.055-0.287,0.106-0.426C12.9,32.058,13.147,32.027,13.261,32.027z"/>
		<path fill="none" stroke="#5A6870" stroke-width="1.3893" stroke-linecap="round" stroke-linejoin="round" d="M16.385,32.027
			h1.202c0.272,0,0.332,0.151,0.103,0.307c-0.185,0.126-0.363,0.254-0.539,0.39c-0.131,0.1-0.351,0.169-0.512,0.169h-0.874
			c-0.085,0-0.161-0.01-0.237-0.056c-0.088-0.053-0.099-0.129-0.036-0.209c0.118-0.15,0.246-0.293,0.382-0.426
			C15.993,32.08,16.227,32.027,16.385,32.027z"/>
		<path fill="none" stroke="#5A6870" stroke-width="1.3893" stroke-linecap="round" stroke-linejoin="round" d="M21.275,32.027
			h0.605c0.032,0,0.047,0.011,0.028,0.041c-0.015,0.019-0.03,0.034-0.05,0.05c-0.037,0.029-0.075,0.055-0.114,0.08
			c-0.079,0.051-0.161,0.095-0.245,0.136c-0.256,0.129-0.512,0.258-0.768,0.39c-0.088,0.045-0.352,0.169-0.462,0.169h-0.455
			c-0.109,0-0.064-0.085-0.002-0.143c0.055-0.048,0.114-0.086,0.178-0.122c0.253-0.146,0.509-0.287,0.77-0.426
			C20.879,32.137,21.13,32.027,21.275,32.027z"/>
		<path fill="none" stroke="#5A6870" stroke-width="1.3893" stroke-linecap="round" stroke-linejoin="round" d="M19.169,32.027h0.96
			c0.132,0,0.16,0.063,0.067,0.157c-0.063,0.064-0.136,0.107-0.213,0.149c-0.235,0.126-0.467,0.257-0.697,0.39
			c-0.129,0.074-0.362,0.169-0.519,0.169h-0.706c-0.226,0-0.221-0.14-0.054-0.265c0.201-0.148,0.404-0.289,0.613-0.426
			C18.765,32.106,18.994,32.027,19.169,32.027z"/>
		<path fill="none" stroke="#5A6870" stroke-width="1.3893" stroke-linecap="round" stroke-linejoin="round" d="M22.062,32.335
			c-0.248,0.129-0.499,0.26-0.748,0.389c-0.058,0.029-0.114,0.059-0.174,0.088c-0.027,0.014-0.057,0.028-0.086,0.042
			c-0.008,0.005-0.078,0.038-0.089,0.038h-0.148c-0.006,0.002-0.009,0-0.011-0.005c-0.001-0.022,0.073-0.071,0.085-0.079
			c0.031-0.023,0.065-0.044,0.1-0.064c0.067-0.04,0.138-0.078,0.206-0.115c0.277-0.143,0.556-0.287,0.834-0.428
			c0.076-0.037,0.154-0.075,0.233-0.109c0.032-0.013,0.151-0.063,0.189-0.063h0.175c0.008,0-0.005,0.007-0.009,0.009
			s-0.006,0.005-0.012,0.008c-0.007,0.003-0.016,0.008-0.022,0.013c-0.018,0.009-0.032,0.019-0.047,0.026
			C22.378,32.167,22.221,32.251,22.062,32.335z"/>
		<path fill="none" stroke="#5A6870" stroke-width="1.3893" stroke-linecap="round" stroke-linejoin="round" d="M13.854,33.104
			h-0.58H6.458c-0.633-0.345-1.266-0.69-1.898-1.034c0.025,0.013,0.051,0.027,0.076,0.041c-0.051-0.028-0.102-0.055-0.152-0.082
			c-0.002-0.001-0.002-0.001-0.004-0.001c-0.114-0.061-0.229-0.12-0.344-0.181c-0.072-0.037-0.121-0.107-0.133-0.188
			c-0.519-3.573-1.038-7.146-1.557-10.72c-0.314-2.167-0.63-4.333-0.944-6.499c-0.268-1.849-0.536-3.698-0.806-5.547
			c0-0.01-0.002-0.019-0.002-0.027c0.003-0.014,0.004-0.027,0.007-0.041C0.706,8.812,0.71,8.798,0.714,8.784
			c0.005-0.013,0.01-0.025,0.016-0.04c0.006-0.015,0.011-0.027,0.018-0.04c0.006-0.015,0.012-0.029,0.019-0.042
			c0.006-0.014,0.013-0.029,0.019-0.043C0.794,8.603,0.8,8.587,0.808,8.572c0.008-0.017,0.016-0.032,0.023-0.048
			C0.84,8.508,0.849,8.492,0.856,8.476c0.008-0.015,0.016-0.03,0.023-0.045C0.89,8.415,0.896,8.4,0.904,8.386
			C0.913,8.372,0.92,8.358,0.928,8.344C0.936,8.33,0.942,8.318,0.95,8.304c0.008-0.013,0.016-0.025,0.023-0.038
			c0.008-0.012,0.015-0.024,0.023-0.036c0.006-0.01,0.014-0.022,0.022-0.035c0.007-0.011,0.015-0.021,0.024-0.032
			C1.052,8.152,1.06,8.141,1.068,8.129C1.079,8.12,1.089,8.11,1.099,8.101c0.01-0.005,0.02-0.009,0.031-0.016h24.868
			c0.01,0.006,0.021,0.011,0.03,0.016c0.011,0.01,0.021,0.02,0.029,0.029c0.01,0.012,0.018,0.022,0.026,0.033
			c0.008,0.011,0.016,0.021,0.025,0.032c0.006,0.012,0.014,0.024,0.022,0.035c0.006,0.012,0.014,0.024,0.021,0.036
			c0.007,0.013,0.014,0.025,0.022,0.038c0.008,0.014,0.017,0.026,0.023,0.04c0.008,0.014,0.016,0.028,0.024,0.042
			c0.006,0.014,0.015,0.029,0.023,0.044c0.007,0.015,0.016,0.03,0.023,0.045c0.009,0.016,0.017,0.032,0.024,0.048
			c0.009,0.016,0.017,0.031,0.024,0.048c0.008,0.015,0.015,0.031,0.021,0.046c0.009,0.014,0.014,0.029,0.021,0.043
			c0.007,0.013,0.014,0.027,0.02,0.042c0.005,0.013,0.012,0.025,0.017,0.04c0.004,0.014,0.01,0.027,0.016,0.04
			c0.005,0.015,0.008,0.028,0.012,0.042c0.002,0.013,0.005,0.027,0.007,0.041c-0.001,0.008-0.001,0.017-0.002,0.027
			c-0.269,1.85-0.537,3.698-0.805,5.547c-0.314,2.166-0.631,4.332-0.944,6.499c-0.519,3.574-1.037,7.146-1.557,10.72
			c-0.011,0.08-0.063,0.15-0.134,0.188c-0.151,0.08-0.303,0.159-0.452,0.238c-0.623,0.339-1.244,0.679-1.867,1.019H13.854z"/>
		<path fill="none" stroke="#5A6870" stroke-width="1.3893" stroke-linecap="round" stroke-linejoin="round" d="M6.456,33.104
			c0.01,1.2,0.02,2.402,0.031,3.603c0.002,0.244,0.197,0.439,0.439,0.439H20.2c0.241,0,0.437-0.195,0.438-0.439
			c0.012-1.2,0.021-2.402,0.032-3.603"/>
		
			<line fill="none" stroke="#5A6870" stroke-width="1.3893" stroke-linecap="round" stroke-linejoin="round" x1="7.817" y1="43.56" x2="7.813" y2="43.56"/>
	</g>
</g>
</svg>
