<?xml version="1.0" encoding="utf-8"?>
<!-- Generator: Adobe Illustrator 16.0.0, SVG Export Plug-In . SVG Version: 6.00 Build 0)  -->
<!DOCTYPE svg PUBLIC "-//W3C//DTD SVG 1.0//EN" "http://www.w3.org/TR/2001/REC-SVG-20010904/DTD/svg10.dtd">
<svg version="1.0" id="Слой_1" xmlns="http://www.w3.org/2000/svg" xmlns:xlink="http://www.w3.org/1999/xlink" x="0px" y="0px"
	 width="10.187px" height="50.633px" viewBox="0 0 10.187 50.633" enable-background="new 0 0 10.187 50.633" xml:space="preserve">
<g>
	<g>
		<path fill="none" stroke="#5A6870" stroke-width="1.3957" stroke-linecap="round" stroke-linejoin="round" d="M0.699,25.619
			c0.386-0.01,0.772-0.021,1.157-0.032c0.387-0.012,0.772-0.027,1.159-0.036c1.176-0.054,2.98-0.054,4.157,0
			c0.387,0.009,0.772,0.024,1.156,0.036c0.388,0.011,0.772,0.022,1.158,0.032"/>
		<path fill="none" stroke="#5A6870" stroke-width="1.3957" stroke-linecap="round" stroke-linejoin="round" d="M2.854,22.868H2.827
			h-0.03c-0.003,0-0.005,0-0.008,0.001c-0.008,0-0.014,0.004-0.02,0.011c-0.667,0.837-1.335,1.676-2.001,2.513
			c-0.056,0.071-0.076,0.137-0.069,0.226c0.256,3.099,0.511,6.196,0.768,9.295c0.001,0.034,0.029,0.06,0.063,0.06h0.367H8.29h0.366
			c0.034,0,0.063-0.025,0.064-0.06c0.256-3.099,0.512-6.196,0.767-9.295c0.007-0.089-0.012-0.155-0.067-0.226
			c-0.667-0.837-1.335-1.675-2.003-2.513c-0.007-0.009-0.014-0.012-0.024-0.012H7.389H7.385H7.376H7.36H7.334"/>
		<path fill="none" stroke="#5A6870" stroke-width="1.3957" stroke-linecap="round" stroke-linejoin="round" d="M7.31,22.868H7.306
			H7.258H7.249H7.216H7.187H7.176H7.17H7.169H7.16H7.156H7.149H7.139H7.12H6.813H6.797H6.713H6.595H6.57H6.492H6.487H6.334H6.297
			H6.071h-0.04H5.983H5.914H5.669H5.65H5.562H5.521H4.563H4.542H4.255H4.201H4.06H4.041H3.538H3.517H3.475H3.391H3.374H3.185H3.168
			H3.091H3.085H3.067H3.03H3.026H3.02H3.017H3.012H3.001H2.943h-0.04H2.862H2.854c-0.04,0-0.075-0.022-0.075-0.064
			c0-6.646,0-10.01,0-16.657c0-0.011,0.007-0.016,0.018-0.016h4.595c0.009,0,0.016,0.005,0.016,0.016v16.657
			c0,0.042-0.035,0.064-0.073,0.064H7.31z"/>
		<path fill="none" stroke="#5A6870" stroke-width="1.3957" stroke-linecap="round" stroke-linejoin="round" d="M2.844,6.131V6.083
			c0-0.008-0.003-0.012-0.01-0.016"/>
		<path fill="none" stroke="#5A6870" stroke-width="1.3957" stroke-linecap="round" stroke-linejoin="round" d="M7.357,6.068
			c-0.01,0.001-0.013,0.005-0.014,0.015v0.047"/>
		<path fill="none" stroke="#5A6870" stroke-width="1.3957" stroke-linecap="round" stroke-linejoin="round" d="M7.407,6.051
			c0,0.012-0.004,0.017-0.016,0.017H6.515H2.796c-0.011,0-0.017-0.005-0.017-0.017V4.854c0-0.017,0.015-0.031,0.033-0.031h4.563
			c0.018,0,0.031,0.014,0.031,0.031C7.407,5.253,7.407,5.652,7.407,6.051z"/>
		<path fill="none" stroke="#5A6870" stroke-width="1.3957" stroke-linecap="round" stroke-linejoin="round" d="M7.313,4.822
			c0.018,0,0.031-0.014,0.031-0.031c0-0.02,0.007-0.028,0.027-0.032"/>
		<path fill="none" stroke="#5A6870" stroke-width="1.3957" stroke-linecap="round" stroke-linejoin="round" d="M2.872,4.822
			C2.852,4.819,2.844,4.811,2.844,4.79c0-0.017-0.007-0.026-0.023-0.03"/>
		<path fill="none" stroke="#5A6870" stroke-width="1.3957" stroke-linecap="round" stroke-linejoin="round" d="M2.781,4.727V2.176
			c-0.01-0.538,0.437-0.934,0.853-1.149C4.073,0.8,4.602,0.698,5.09,0.698c0.492,0,1.015,0.098,1.458,0.326
			c0.421,0.215,0.858,0.604,0.859,1.144c0,0.853,0,1.706,0,2.559c0,0.017-0.016,0.031-0.032,0.031H2.813
			C2.794,4.758,2.782,4.744,2.781,4.727z"/>
		<path fill="none" stroke="#5A6870" stroke-width="1.3957" stroke-linecap="round" stroke-linejoin="round" d="M1.86,34.973
			c0,4.305,0,8.608-0.001,12.913c0,0.007,0.001,0.011,0.005,0.017c0.396,0.673,0.79,1.346,1.187,2.018
			c0.009-0.006,0.018-0.01,0.027-0.016"/>
		<path fill="none" stroke="#5A6870" stroke-width="1.3957" stroke-linecap="round" stroke-linejoin="round" d="M4.615,34.973V47.9
			c0,0.007,0,0.013-0.004,0.017c-0.395,0.668-0.786,1.336-1.179,2.004"/>
		<path fill="none" stroke="#5A6870" stroke-width="1.3957" stroke-linecap="round" stroke-linejoin="round" d="M3.051,49.92
			c0.006,0.011,0.014,0.015,0.027,0.015h0.326c0.015,0,0.021-0.004,0.028-0.015c-0.01-0.006-0.018-0.011-0.028-0.017"/>
		<path fill="none" stroke="#5A6870" stroke-width="1.3957" stroke-linecap="round" stroke-linejoin="round" d="M5.572,34.973
			v12.923c0,0.005,0.001,0.011,0.004,0.017c0.396,0.668,0.79,1.338,1.184,2.008"/>
		<path fill="none" stroke="#5A6870" stroke-width="1.3957" stroke-linecap="round" stroke-linejoin="round" d="M6.787,49.904
			C6.779,49.91,6.769,49.915,6.76,49.92c0.007,0.011,0.014,0.015,0.027,0.015h0.316c0.013,0,0.021-0.004,0.027-0.015
			c-0.01-0.006-0.018-0.011-0.027-0.017"/>
		<path fill="none" stroke="#5A6870" stroke-width="1.3957" stroke-linecap="round" stroke-linejoin="round" d="M8.322,34.973
			c0,4.305,0,8.608,0,12.913c0,0.007-0.002,0.011-0.005,0.017c-0.396,0.673-0.79,1.346-1.187,2.018"/>
		
			<line fill="none" stroke="#5A6870" stroke-width="1.3957" stroke-linecap="round" stroke-linejoin="round" x1="7.368" y1="4.76" x2="7.364" y2="4.761"/>
		
			<line fill="none" stroke="#5A6870" stroke-width="1.3957" stroke-linecap="round" stroke-linejoin="round" x1="7.374" y1="4.758" x2="7.376" y2="4.758"/>
		<path fill="none" stroke="#5A6870" stroke-width="1.3957" stroke-linecap="round" stroke-linejoin="round" d="M2.876,4.822
			c-0.006,0-0.008-0.001-0.013-0.002"/>
		<path fill="none" stroke="#5A6870" stroke-width="1.3957" stroke-linecap="round" stroke-linejoin="round" d="M5.095,3.518
			c0.211,0,0.425-0.018,0.634-0.058C5.923,3.426,6.112,3.373,6.297,3.3c0.174-0.068,0.341-0.155,0.494-0.266
			c0.131-0.094,0.25-0.203,0.345-0.332c0.082-0.111,0.146-0.235,0.18-0.367c0.034-0.131,0.036-0.272,0.01-0.404
			c-0.03-0.142-0.096-0.275-0.18-0.393C7.055,1.41,6.94,1.301,6.814,1.207C6.687,1.112,6.546,1.033,6.4,0.969
			c-0.157-0.07-0.322-0.125-0.489-0.166C5.729,0.759,5.545,0.73,5.359,0.717C5.168,0.703,4.977,0.705,4.785,0.721
			C4.429,0.751,4.076,0.835,3.753,0.984C3.609,1.052,3.469,1.132,3.346,1.229C3.238,1.312,3.141,1.406,3.061,1.513
			C2.983,1.614,2.922,1.728,2.884,1.85C2.851,1.962,2.837,2.082,2.849,2.201C2.862,2.332,2.905,2.458,2.97,2.575
			c0.063,0.111,0.143,0.212,0.234,0.3c0.104,0.102,0.223,0.187,0.348,0.261C3.694,3.22,3.848,3.288,4.006,3.342
			c0.175,0.062,0.358,0.105,0.541,0.134C4.728,3.505,4.909,3.518,5.095,3.518z"/>
		
			<line fill="none" stroke="#5A6870" stroke-width="1.3957" stroke-linecap="round" stroke-linejoin="round" x1="6.734" y1="22.891" x2="7.177" y2="25.435"/>
		
			<line fill="none" stroke="#5A6870" stroke-width="1.3957" stroke-linecap="round" stroke-linejoin="round" x1="3.011" y1="25.435" x2="3.454" y2="22.891"/>
	</g>
</g>
</svg>
