<?xml version="1.0" encoding="utf-8"?>
<!-- Generator: Adobe Illustrator 16.0.0, SVG Export Plug-In . SVG Version: 6.00 Build 0)  -->
<!DOCTYPE svg PUBLIC "-//W3C//DTD SVG 1.0//EN" "http://www.w3.org/TR/2001/REC-SVG-20010904/DTD/svg10.dtd">
<svg version="1.0" id="Слой_1" xmlns="http://www.w3.org/2000/svg" xmlns:xlink="http://www.w3.org/1999/xlink" x="0px" y="0px"
	 width="41.292px" height="50.601px" viewBox="0 0 41.292 50.601" enable-background="new 0 0 41.292 50.601" xml:space="preserve">
<g>
	<g>
		<path fill="none" stroke="#5A6870" stroke-width="1.3933" stroke-linecap="round" stroke-linejoin="round" d="M40.595,13.703
			v11.02c0,0.047-0.015,0.081-0.047,0.114c-0.398,0.395-0.796,0.792-1.193,1.186c-0.034,0.033-0.065,0.047-0.113,0.047H32.57H2.051
			c-0.045,0-0.079-0.014-0.112-0.047c-0.398-0.394-0.796-0.791-1.194-1.186c-0.032-0.033-0.047-0.066-0.047-0.114v-11.02
			c0.108-0.107,0.215-0.213,0.321-0.32c-0.106-0.106-0.213-0.213-0.321-0.32V4.774l0.079-0.136l6.321-3.941h27.1l6.325,3.943
			l0.074,0.134v8.289l-0.321,0.32C40.381,13.489,40.489,13.596,40.595,13.703z"/>
		<path fill="none" stroke="#5A6870" stroke-width="1.3933" stroke-linecap="round" stroke-linejoin="round" d="M16.078,37.746
			v10.623c0,0.849-0.69,1.535-1.544,1.535s-1.545-0.687-1.545-1.535V37.746"/>
		<path fill="none" stroke="#5A6870" stroke-width="1.3933" stroke-linecap="round" stroke-linejoin="round" d="M28.304,37.746
			v10.623c0,0.848-0.689,1.535-1.545,1.535c-0.853,0-1.543-0.688-1.543-1.535V37.746"/>
		<path fill="none" stroke="#5A6870" stroke-width="1.3933" stroke-linecap="round" stroke-linejoin="round" d="M31.098,26.072
			c-0.091,0.016-0.156,0.094-0.158,0.186c-0.065,3.725-0.131,7.449-0.195,11.175c-0.004,0.193-0.161,0.316-0.349,0.313
			c-2.827,0-8.483,0-8.483,0l-0.081-11.678"/>
		<path fill="none" stroke="#5A6870" stroke-width="1.3933" stroke-linecap="round" stroke-linejoin="round" d="M30.463,37.746
			h1.406c0.177,0,0.318-0.14,0.322-0.313c0.064-3.725,0.131-7.45,0.195-11.175c0.002-0.092,0.067-0.169,0.158-0.186"/>
		<path fill="none" stroke="#5A6870" stroke-width="1.3933" stroke-linecap="round" stroke-linejoin="round" d="M8.747,26.072
			c0.09,0.016,0.156,0.094,0.158,0.186c0.066,3.725,0.132,7.449,0.196,11.175c0.003,0.174,0.146,0.313,0.321,0.313
			c0.313,0,0.625,0,0.937,0c0.165,0,0.33,0,0.494,0"/>
		<polyline fill="none" stroke="#5A6870" stroke-width="1.3933" stroke-linecap="round" stroke-linejoin="round" points="
			19.681,37.619 19.681,38.003 21.612,38.003 21.612,37.619 		"/>
		<path fill="none" stroke="#5A6870" stroke-width="1.3933" stroke-linecap="round" stroke-linejoin="round" d="M11.604,20.949
			c0-0.326-0.113-0.664-0.325-0.918c-0.208-0.252-0.527-0.427-0.865-0.427c-0.336,0-0.646,0.173-0.848,0.43
			c-0.203,0.258-0.305,0.596-0.305,0.915c0,0.32,0.102,0.658,0.305,0.915c0.201,0.257,0.511,0.43,0.848,0.43
			c0.338,0,0.657-0.175,0.865-0.427C11.491,21.614,11.604,21.276,11.604,20.949z"/>
		
			<line fill="none" stroke="#5A6870" stroke-width="1.3933" stroke-linecap="round" stroke-linejoin="round" x1="0.698" y1="13.063" x2="40.595" y2="13.063"/>
		
			<line fill="none" stroke="#5A6870" stroke-width="1.3933" stroke-linecap="round" stroke-linejoin="round" x1="0.698" y1="13.703" x2="40.595" y2="13.703"/>
		
			<line fill="none" stroke="#5A6870" stroke-width="1.3933" stroke-linecap="round" stroke-linejoin="round" x1="1.02" y1="13.383" x2="40.274" y2="13.383"/>
		<path fill="none" stroke="#5A6870" stroke-width="1.3933" stroke-linecap="round" stroke-linejoin="round" d="M19.462,26.068
			l-0.081,11.678c0,0-5.66,0-8.486,0c-0.188,0.001-0.342-0.121-0.345-0.313c-0.066-3.726-0.132-7.45-0.197-11.175
			c-0.001-0.092-0.067-0.17-0.158-0.186"/>
		
			<line fill="none" stroke="#5A6870" stroke-width="1.3933" stroke-linecap="round" stroke-linejoin="round" x1="10.914" y1="37.746" x2="10.896" y2="37.746"/>
		
			<line fill="none" stroke="#5A6870" stroke-width="1.3933" stroke-linecap="round" stroke-linejoin="round" x1="30.415" y1="37.746" x2="30.404" y2="37.746"/>
		
			<line fill="none" stroke="#5A6870" stroke-width="1.3933" stroke-linecap="round" stroke-linejoin="round" x1="30.398" y1="37.746" x2="30.379" y2="37.746"/>
		
			<line fill="none" stroke="#5A6870" stroke-width="1.3933" stroke-linecap="round" stroke-linejoin="round" x1="30.457" y1="37.745" x2="30.469" y2="37.743"/>
		<path fill="none" stroke="#5A6870" stroke-width="1.3933" stroke-linecap="round" stroke-linejoin="round" d="M10.016,22.211
			c0.426,0.294,0.938,0.274,1.355-0.019c0.398-0.279,0.62-0.769,0.62-1.243c0-0.473-0.221-0.963-0.62-1.242
			c-0.417-0.291-0.929-0.313-1.355-0.018"/>
		
			<line fill="none" stroke="#5A6870" stroke-width="1.3933" stroke-linecap="round" stroke-linejoin="round" x1="0.745" y1="24.836" x2="40.549" y2="24.836"/>
		
			<line fill="none" stroke="#5A6870" stroke-width="1.3933" stroke-linecap="round" stroke-linejoin="round" x1="0.773" y1="4.639" x2="40.521" y2="4.639"/>
		
			<line fill="none" stroke="#5A6870" stroke-width="1.3933" stroke-linecap="round" stroke-linejoin="round" x1="21.912" y1="37.619" x2="19.381" y2="37.619"/>
		
			<line fill="none" stroke="#5A6870" stroke-width="1.3933" stroke-linecap="round" stroke-linejoin="round" x1="21.842" y1="27.54" x2="19.452" y2="27.54"/>
		
			<line fill="none" stroke="#5A6870" stroke-width="1.3933" stroke-linecap="round" stroke-linejoin="round" x1="21.842" y1="27.545" x2="19.452" y2="27.545"/>
		<path fill="none" stroke="#5A6870" stroke-width="1.3933" stroke-linecap="round" stroke-linejoin="round" d="M9.303,20.949
			c0,0.159,0.027,0.316,0.08,0.467c0.051,0.144,0.125,0.28,0.225,0.396c0.095,0.108,0.21,0.199,0.34,0.26
			c0.125,0.061,0.265,0.094,0.402,0.094c0.14,0,0.281-0.034,0.41-0.094c0.133-0.061,0.252-0.152,0.351-0.26
			c0.104-0.115,0.184-0.25,0.239-0.396c0.056-0.151,0.085-0.309,0.085-0.467c0-0.158-0.029-0.318-0.085-0.467
			c-0.056-0.145-0.135-0.281-0.239-0.396c-0.098-0.107-0.218-0.199-0.351-0.26c-0.129-0.06-0.269-0.094-0.41-0.094
			c-0.137,0-0.277,0.034-0.402,0.094c-0.13,0.062-0.246,0.153-0.338,0.26c-0.101,0.116-0.175,0.252-0.227,0.396
			C9.33,20.633,9.303,20.791,9.303,20.949z"/>
		
			<line fill="none" stroke="#5A6870" stroke-width="1.3933" stroke-linecap="round" stroke-linejoin="round" x1="30.403" y1="37.746" x2="30.399" y2="37.746"/>
		<path fill="none" stroke="#5A6870" stroke-width="1.3933" stroke-linecap="round" stroke-linejoin="round" d="M10.896,37.746
			h-0.01c-0.003,0-0.01-0.007-0.01,0"/>
		
			<line fill="none" stroke="#5A6870" stroke-width="1.3933" stroke-linecap="round" stroke-linejoin="round" x1="10.825" y1="37.743" x2="10.837" y2="37.745"/>
		
			<line fill="none" stroke="#5A6870" stroke-width="1.3933" stroke-linecap="round" stroke-linejoin="round" x1="32.563" y1="26.068" x2="32.577" y2="26.068"/>
	</g>
</g>
</svg>
