<?xml version="1.0" encoding="utf-8"?>
<!-- Generator: Adobe Illustrator 16.0.0, SVG Export Plug-In . SVG Version: 6.00 Build 0)  -->
<!DOCTYPE svg PUBLIC "-//W3C//DTD SVG 1.0//EN" "http://www.w3.org/TR/2001/REC-SVG-20010904/DTD/svg10.dtd">
<svg version="1.0" id="Слой_1" xmlns="http://www.w3.org/2000/svg" xmlns:xlink="http://www.w3.org/1999/xlink" x="0px" y="0px"
	 width="64.697px" height="50.083px" viewBox="0 0 64.697 50.083" enable-background="new 0 0 64.697 50.083" xml:space="preserve">
<g>
	<g>
		<path fill="none" stroke="#5A6870" stroke-width="1.3846" stroke-linecap="round" stroke-linejoin="round" d="M49.809,4.357
			c-1.471,0.008-2.938,0-4.409,0c-8.663,0-17.329,0.002-25.993,0.002c-1.472,0-2.943,0.004-4.417,0h-1.006H13.48h-0.251h-0.196
			c-0.015,0-0.083,0-0.051,0c-0.08,0.003-0.159,0.012-0.239,0.026c-0.111,0.021-0.219,0.049-0.322,0.099
			C10.221,5.55,8.48,6.935,6.95,8.834c-1.498,1.863-2.574,3.896-3.543,6.052c-0.518,1.155-0.986,2.325-1.432,3.507
			c-0.076,0.206-0.148,0.414-0.217,0.622c-0.275,0.86-0.49,1.728-0.668,2.612c-0.026,0.137-0.053,0.274-0.077,0.411
			c-0.012,0.113-0.039,0.225-0.06,0.337c-0.004,0.03-0.01,0.061-0.016,0.091c-0.002,0.022-0.006,0.044-0.011,0.068
			c-0.002,0.011-0.004,0.022-0.006,0.035c-0.002,0.01,0.011,0.024-0.004,0.034c-0.034,0.208-0.059,0.416-0.085,0.625
			c-0.021,0.174-0.041,0.349-0.06,0.525c-0.001,0.012-0.003,0.024-0.003,0.037c-0.003,0.012,0.013,0.024-0.005,0.036
			c-0.012,0.133-0.022,0.269-0.03,0.402c-0.013,0.266-0.026,0.532-0.036,0.799c0,0.026-0.002,0.055-0.002,0.081
			c-0.005,0.178-0.005,0.355-0.003,0.533c0,0.089,0,0.179,0.003,0.268c0.002,0.044,0.002,0.089,0.004,0.134
			c0,0.028,0.002,0.059,0.004,0.086c0,0.011,0,0.018,0.002,0.028c0,0.006,0.008,0.012,0,0.019c-0.008,0.091,0.004,0.18,0.008,0.269
			c0.004,0.091,0.008,0.18,0.015,0.27c0.004,0.09,0.01,0.18,0.016,0.27c0.004,0.043,0.006,0.088,0.011,0.135
			c0.003,0.022,0.003,0.045,0.004,0.066c0.002,0.011,0.002,0.021,0.002,0.032c0.002,0.007,0.002,0.013,0.002,0.019
			c0,0.004-0.008,0.016,0.004,0.016c0.01,0.107,0.019,0.213,0.027,0.318c0.002,0.031,0.005,0.059,0.007,0.087
			c0,0.017,0.002,0.03,0.005,0.045c0,0.007,0.002,0.014,0.002,0.022c0,0.006,0.013,0.012,0.002,0.02
			c0.191,2.162,0.889,4.689,1.855,6.638c0.053,0.106,0.106,0.21,0.161,0.315c0.239,0.455,0.499,0.895,0.778,1.326
			c0.088,0.133,0.179,0.268,0.268,0.398c0.034,0.051,0.069,0.102,0.105,0.152c0.289,0.418,0.593,0.825,0.912,1.221
			c0.066,0.085,0.134,0.168,0.201,0.25c0.072,0.089,0.143,0.176,0.217,0.262c0.129,0.154,0.256,0.311,0.394,0.457
			c0.004,0.006,0.011,0.012,0.014,0.019c2.21,2.517,5.202,4.496,8.153,5.97c1.522,0.76,3.071,1.427,4.686,1.975
			c1.612,0.545,3.258,0.955,4.907,1.351c3.225,0.772,5.541,1.063,8.85,1.229c2.995,0.149,5.944,0.134,8.927-0.311
			c0.328-0.066,0.658-0.105,0.985-0.166c0.329-0.063,0.654-0.129,0.979-0.201c1.159-0.263,3.559-0.953,4.701-1.273
			c0.015-0.004,0.03-0.011,0.048-0.015c0.192-0.054,0.383-0.106,0.575-0.161c0.344-0.096,0.689-0.192,1.032-0.289
			c0.574-0.158,1.149-0.32,1.724-0.482c0.006-0.002,0.013-0.004,0.017-0.006c0.021-0.004,0.038-0.011,0.06-0.016
			c0.032-0.011,0.063-0.02,0.097-0.027c0.009-0.003,0.019-0.006,0.028-0.008c0.013-0.004,0.026-0.008,0.039-0.012
			c0.01-0.002,0.02-0.007,0.029-0.008c0.031-0.008,0.064-0.02,0.092-0.037c0.153-0.078,0.183-0.216,0.146-0.369
			c-0.083-0.336-0.166-0.672-0.249-1.008c-0.037-0.098-0.073-0.195-0.112-0.291c-0.051-0.14-0.177-0.247-0.323-0.275
			c-0.42-0.084-0.839-0.115-1.267-0.101c-0.465,0.017-0.918,0.085-1.372,0.171c-0.318,0.063-0.636,0.139-0.953,0.219
			c-0.199,0.053-0.397,0.105-0.597,0.16c-1.052,0.298-2.102,0.6-3.157,0.883c-0.491,0.132-0.985,0.256-1.482,0.363
			c-0.406,0.09-0.788,0.221-1.159,0.406c-0.367,0.183-0.72,0.387-1.121,0.509c-0.402,0.121-0.797,0.169-1.216,0.159
			c-0.42-0.01-0.813-0.111-1.21-0.223c-0.216-0.061-0.429-0.123-0.65-0.165c-0.273-0.05-0.549-0.07-0.825-0.067
			c-0.718,0.011-1.02,0.162-1.649,0.447c-0.387,0.161-0.764,0.268-1.192,0.268c-0.128,0-0.255-0.004-0.384-0.018
			c-0.217-0.025-0.424-0.069-0.629-0.143c0.048,0.003-0.047-0.018-0.069-0.025c-0.024-0.01-0.048-0.02-0.072-0.031
			C32.048,47.142,32,47.122,31.952,47.1c-0.096-0.046-0.189-0.099-0.285-0.147c-0.109-0.063-0.221-0.125-0.335-0.182
			c-0.256-0.127-0.514-0.231-0.8-0.283c-0.123-0.012-0.246-0.041-0.372-0.053c-0.223-0.02-0.442-0.018-0.665,0.007
			c-0.138,0.015-0.272,0.039-0.406,0.073c-0.112,0.027-0.221,0.064-0.329,0.1c-0.094,0.029-0.187,0.06-0.281,0.09
			c-0.104,0.051-0.51,0.119-0.622,0.133c-0.213,0.024-0.423,0.021-0.636-0.002c-0.378-0.04-0.724-0.133-1.063-0.301
			c0.024,0.012-0.025-0.014-0.04-0.02c-0.01-0.007-0.019-0.012-0.031-0.018c-0.025-0.015-0.049-0.029-0.073-0.043
			c-0.049-0.029-0.098-0.057-0.146-0.088c-0.097-0.06-0.19-0.123-0.283-0.187c-0.099-0.073-0.198-0.146-0.301-0.214
			c-0.172-0.113-0.343-0.229-0.534-0.312c-0.221-0.101-0.448-0.179-0.686-0.235c-0.228-0.055-0.455-0.088-0.69-0.099
			c-0.143-0.007-0.284-0.003-0.427,0.014c-0.117,0.013-0.234,0.032-0.347,0.052c-0.105,0.019-0.21,0.039-0.315,0.057
			c-0.422,0.063-0.826,0.077-1.248-0.018c-0.354-0.076-0.67-0.201-0.972-0.397c0.015,0.012-0.018-0.013-0.025-0.019
			c-0.013-0.008-0.022-0.016-0.035-0.023c-0.021-0.016-0.042-0.033-0.064-0.049c-0.043-0.033-0.084-0.064-0.123-0.099
			c-0.084-0.069-0.164-0.142-0.242-0.212c-0.081-0.081-0.162-0.162-0.25-0.238c-0.175-0.158-0.35-0.312-0.559-0.428
			c-0.155-0.088-0.313-0.166-0.481-0.23c-0.198-0.078-0.401-0.136-0.613-0.172c-0.129-0.022-0.26-0.034-0.392-0.037
			c-0.107,0-0.216,0.008-0.324,0.014c-0.099,0.004-0.197,0.01-0.295,0.016c-0.396,0.008-0.766-0.033-1.14-0.184
			c-0.321-0.127-0.596-0.299-0.849-0.537c-0.139-0.153-0.275-0.309-0.4-0.475c-0.068-0.092-0.135-0.186-0.207-0.273
			c-0.135-0.168-0.268-0.333-0.436-0.473c-0.158-0.132-0.323-0.25-0.502-0.355c-0.192-0.113-0.392-0.207-0.603-0.282
			c-0.132-0.049-0.264-0.085-0.402-0.114c-0.111-0.021-0.225-0.039-0.339-0.055c-0.105-0.017-0.21-0.033-0.313-0.049
			c-0.419-0.078-0.799-0.207-1.16-0.443c-0.302-0.199-0.55-0.425-0.756-0.727c0.035,0.039-0.028-0.043-0.041-0.063
			c-0.014-0.024-0.028-0.047-0.042-0.069c-0.026-0.045-0.053-0.092-0.077-0.139c-0.05-0.095-0.094-0.191-0.139-0.286
			c-0.043-0.106-0.084-0.21-0.132-0.312c-0.085-0.188-0.169-0.373-0.29-0.543c-0.114-0.157-0.233-0.307-0.37-0.443
			c-0.144-0.147-0.3-0.279-0.473-0.396c-0.106-0.073-0.218-0.138-0.332-0.194c-0.099-0.045-0.197-0.086-0.298-0.129
			c-0.092-0.037-0.183-0.076-0.273-0.115c-0.368-0.174-0.682-0.385-0.951-0.696c-0.233-0.271-0.406-0.554-0.517-0.896
			c0.021,0.049-0.015-0.049-0.021-0.074C5.59,35.2,5.583,35.177,5.576,35.151c-0.012-0.054-0.024-0.106-0.034-0.158
			c-0.021-0.104-0.036-0.211-0.051-0.315c-0.012-0.112-0.024-0.226-0.041-0.339c-0.028-0.21-0.057-0.416-0.125-0.619
			c-0.063-0.188-0.133-0.373-0.221-0.551c-0.095-0.192-0.202-0.375-0.328-0.547c-0.078-0.11-0.163-0.209-0.254-0.307
			c-0.077-0.078-0.159-0.154-0.24-0.23c-0.063-0.059-0.126-0.119-0.188-0.178c-0.255-0.229-0.435-0.486-0.579-0.793
			c-0.018-0.043-0.036-0.084-0.053-0.127c-0.016-0.037-0.029-0.072-0.043-0.109c-0.003-0.01-0.005-0.021-0.01-0.031
			c-0.01-0.027-0.02-0.056-0.028-0.084c-0.096-0.301-0.132-0.594-0.115-0.908c0.03-0.209,0.061-0.419,0.11-0.625
			c0.03-0.111,0.061-0.223,0.084-0.336c0.049-0.205,0.096-0.411,0.104-0.627c0.017-0.446-0.038-0.864-0.179-1.29
			c-0.073-0.222-0.166-0.436-0.258-0.648c-0.055-0.125-0.109-0.248-0.163-0.373c-0.174-0.396-0.292-0.773-0.268-1.217
			c-0.009-0.005,0-0.012,0-0.019c0.003-0.006,0.003-0.012,0.003-0.018c0.002-0.01,0.002-0.022,0.003-0.034
			c0.002-0.024,0.007-0.046,0.012-0.071c0.005-0.046,0.015-0.093,0.026-0.14c0.021-0.092,0.052-0.181,0.085-0.27
			c-0.007,0.01,0.006-0.014,0.008-0.02c0.008-0.019,0.019-0.039,0.026-0.059c0.012-0.026,0.024-0.053,0.036-0.081
			c0.027-0.053,0.054-0.106,0.08-0.159c0.057-0.103,0.119-0.204,0.183-0.305c0.149-0.229,0.313-0.45,0.447-0.688
			c-0.017-0.012,0.011-0.018,0.016-0.028c0.006-0.009,0.009-0.018,0.016-0.027c0.011-0.018,0.021-0.036,0.031-0.055
			c0.018-0.038,0.038-0.074,0.056-0.112c0.037-0.075,0.07-0.151,0.099-0.23c0.197-0.547,0.083-1.419,0.081-1.953
			c0,0.036,0.002,0.072,0.002,0.108c-0.002-0.423,0.008-0.827,0.171-1.237c0.008-0.024,0.018-0.046,0.028-0.071
			c0.333-0.741,1.317-1.441,1.794-2.016c0.304-0.364,0.485-0.753,0.609-1.201c0.12-0.436,0.191-0.882,0.303-1.32
			c0.28-1.092,0.733-1.478,1.622-2.072c0.193-0.129,0.391-0.249,0.591-0.361c0.197-0.107,0.396-0.204,0.588-0.321
			c0.444-0.272,0.62-0.602,0.683-1.104c0.02-0.147,0.074-0.25,0.188-0.347c0.355-0.305,0.559-0.511,1.027-0.662
			c0.605-0.192,1.174-0.442,1.729-0.75c0.622-0.348,0.992-0.608,1.756-0.622c1.472-0.03,2.942-0.026,4.414-0.026H45.4
			c1.473,0,2.943-0.004,4.415,0.026c0.075,0,0.152,0.006,0.228,0.012c0.006,0,0.011,0.002,0.014,0.002
			c0.112,0.012,0.222,0.03,0.33,0.055c0.111,0.028,0.221,0.063,0.326,0.103c0.114,0.046,0.224,0.099,0.333,0.155
			c0.119,0.064,0.248,0.137,0.367,0.206c0.127,0.071,0.252,0.142,0.38,0.209c0.114,0.061,0.23,0.117,0.348,0.173
			c0.111,0.053,0.223,0.104,0.337,0.152c0.115,0.048,0.231,0.095,0.347,0.139c0.007,0.002,0.01,0.004,0.015,0.006
			c0.112,0.042,0.226,0.082,0.341,0.121c0.039,0.014,0.08,0.026,0.121,0.038c0.014,0.006,0.027,0.01,0.041,0.016
			c0.033,0.01,0.063,0.02,0.094,0.032s0.06,0.025,0.089,0.037c0.028,0.014,0.058,0.026,0.086,0.04
			c0.026,0.014,0.056,0.028,0.082,0.044c0.028,0.016,0.054,0.032,0.083,0.051c0.028,0.018,0.059,0.038,0.087,0.058
			c0.032,0.024,0.065,0.048,0.097,0.073c0.035,0.025,0.07,0.054,0.103,0.082c0.038,0.033,0.076,0.065,0.114,0.099
			c0.02,0.016,0.038,0.032,0.059,0.051c0.025,0.022,0.05,0.042,0.076,0.064c0.004,0.006,0.01,0.01,0.017,0.014
			c0.112,0.097,0.169,0.2,0.188,0.347c0.07,0.585,0.265,0.863,0.777,1.158c0.211,0.124,0.433,0.23,0.644,0.354
			c0.21,0.123,0.416,0.254,0.619,0.394c0.064,0.032,0.379,0.284,0.435,0.331c0.193,0.159,0.373,0.323,0.526,0.524
			c0.056,0.071,0.105,0.148,0.149,0.226c-0.064-0.117,0.065,0.116,0.093,0.176c0.03,0.061,0.054,0.123,0.08,0.186
			c0.049,0.125,0.091,0.252,0.126,0.382c0.05,0.2,0.1,0.401,0.142,0.603c0.117,0.545,0.205,1.082,0.483,1.586
			c0.187,0.333,0.435,0.599,0.702,0.861c0.135,0.131,0.271,0.259,0.406,0.386c0.137,0.127,0.26,0.266,0.402,0.388
			c0.177,0.183,0.344,0.369,0.473,0.593c0.031,0.05,0.06,0.103,0.086,0.157c0.006,0.012,0.017,0.024,0.019,0.039
			c0.01,0.024,0.018,0.048,0.03,0.071c0.183,0.446,0.207,0.888,0.211,1.354c0.006,0.549-0.063,1.437,0.054,1.99
			c0.015,0.127,0.061,0.244,0.103,0.361c0.041,0.119,0.09,0.232,0.145,0.345c0.013-0.006,0.006,0.012,0.008,0.02
			c0.005,0.006,0.008,0.012,0.01,0.018c0.007,0.014,0.012,0.026,0.02,0.039c0.012,0.026,0.025,0.053,0.038,0.077
			c0.026,0.053,0.053,0.103,0.079,0.153c0.053,0.103,0.106,0.204,0.16,0.305c0.352,0.658,0.624,1.215,0.341,2.006
			c-0.007,0.019-0.015,0.039-0.022,0.057c-0.006,0.018-0.014,0.038-0.021,0.056c-0.005,0.011-0.009,0.021-0.012,0.028
			c-0.005,0.01-0.031,0.02-0.012,0.029c-0.097,0.232-0.223,0.45-0.342,0.671c-0.104,0.193-0.207,0.388-0.293,0.593
			c-0.085,0.207-0.152,0.417-0.19,0.639c-0.027,0.156-0.039,0.311-0.047,0.467c-0.013,0-0.003,0.01-0.003,0.016s0,0.012,0,0.021
			c-0.002,0.016,0,0.032,0,0.05c0,0.031,0,0.059,0.003,0.09c0.002,0.058,0.008,0.115,0.014,0.174
			c0.015,0.117,0.035,0.234,0.055,0.351c0.067,0.362,0.165,0.716,0.132,1.098c-0.032,0.384-0.141,0.716-0.333,1.05
			c-0.085,0.146-0.186,0.28-0.302,0.404c-0.307,0.35-0.73,0.539-1.053,0.869c-0.133,0.137-0.255,0.283-0.367,0.441
			c-0.021,0.029-0.043,0.059-0.061,0.088c-0.089,0.135-0.164,0.275-0.237,0.417c-0.116,0.224-0.179,0.46-0.242,0.7
			c-0.091,0.35-0.148,0.701-0.314,1.033c-0.168,0.332-0.386,0.605-0.657,0.854c-0.016,0.018-0.035,0.033-0.052,0.048
			c-0.188,0.166-0.392,0.298-0.611,0.415c-0.207,0.104-0.424,0.182-0.642,0.259c-0.106,0.04-0.215,0.078-0.32,0.123
			c-0.107,0.043-0.213,0.097-0.313,0.155c-0.176,0.101-0.337,0.214-0.491,0.343c-0.028,0.023-0.057,0.049-0.085,0.072
			c-0.131,0.116-0.247,0.24-0.36,0.37c-0.008-0.009-0.008,0.008-0.012,0.013c-0.006,0.006-0.01,0.012-0.015,0.018
			c-0.012,0.014-0.023,0.029-0.036,0.046c-0.021,0.026-0.04,0.054-0.062,0.081c-0.038,0.054-0.076,0.111-0.111,0.168
			c-0.071,0.113-0.139,0.23-0.203,0.346c-0.177,0.316-0.333,0.635-0.583,0.906c-0.251,0.275-0.533,0.477-0.864,0.643
			c-0.021,0.01-0.041,0.019-0.061,0.027c-0.002,0.003-0.007,0.003-0.009,0.006c-0.228,0.105-0.461,0.175-0.706,0.223
			c-0.233,0.043-0.469,0.053-0.705,0.064c-0.119,0.007-0.239,0.013-0.359,0.022c-0.124,0.015-0.246,0.032-0.368,0.062
			c-0.212,0.048-0.422,0.11-0.625,0.189c-0.038,0.014-0.077,0.029-0.114,0.046c-0.165,0.069-0.324,0.151-0.48,0.235
			c-0.241,0.135-0.446,0.306-0.649,0.483c-0.271,0.238-0.51,0.502-0.817,0.698c-0.31,0.199-0.63,0.33-0.99,0.412
			c-0.029,0.007-0.061,0.014-0.09,0.02c-0.003,0-0.005,0-0.008,0.002c0.018-0.004-0.016,0.002-0.024,0.004
			c-0.219,0.04-0.435,0.051-0.655,0.04c-0.22-0.011-0.433-0.054-0.646-0.091c-0.107-0.018-0.216-0.035-0.325-0.047
			c-0.111-0.014-0.223-0.017-0.337-0.012c-0.195,0.008-0.386,0.032-0.577,0.076c-0.034,0.01-0.07,0.02-0.104,0.029
			c-0.161,0.043-0.314,0.103-0.468,0.168c-0.006-0.012-0.027,0.01-0.035,0.014c-0.016,0.006-0.03,0.014-0.045,0.022
			c-0.027,0.015-0.054,0.028-0.08,0.042c-0.055,0.027-0.105,0.061-0.156,0.094c-0.103,0.065-0.197,0.139-0.294,0.211
			c-0.091,0.068-0.177,0.142-0.265,0.216c-0.166,0.13-0.345,0.243-0.52,0.361c-0.338,0.185-0.679,0.282-1.059,0.323
			c-0.424,0.049-0.813-0.014-1.215-0.129c-0.095-0.033-0.188-0.063-0.281-0.096c-0.111-0.036-0.222-0.071-0.332-0.104
			c-0.116-0.032-0.232-0.059-0.35-0.079c-0.207-0.032-0.41-0.048-0.62-0.048c-0.038,0-0.076,0-0.117,0.003
			c-0.169,0.006-0.337,0.027-0.503,0.05c-0.261,0.04-0.498,0.128-0.735,0.226c-0.32,0.133-0.626,0.302-0.968,0.385
			c-0.345,0.088-0.682,0.107-1.035,0.078c-0.001-0.014-0.034-0.005-0.043-0.005c-0.032-0.004-0.064-0.008-0.097-0.013
			c-0.238-0.029-0.463-0.092-0.686-0.177c-0.214-0.085-0.416-0.194-0.618-0.298c-0.102-0.054-0.205-0.107-0.311-0.154
			c-0.109-0.049-0.219-0.09-0.335-0.125c-0.203-0.059-0.406-0.099-0.615-0.123c-0.038-0.004-0.077-0.008-0.117-0.01
			c-0.174-0.016-0.346-0.01-0.519-0.007c-0.268,0.013-0.522,0.077-0.775,0.147c-0.353,0.1-0.69,0.236-1.063,0.279
			c-0.373,0.041-0.725,0.014-1.09-0.079c-0.01-0.002-0.021-0.004-0.032-0.008c-0.007-0.003-0.011-0.003-0.017-0.005
			c-0.004-0.002-0.006-0.002-0.008-0.002c-0.004-0.002-0.015-0.003-0.008-0.002c0.044,0.013-0.046-0.014-0.067-0.02
			c-0.031-0.009-0.06-0.02-0.09-0.029c-0.057-0.018-0.115-0.039-0.171-0.064c-0.113-0.045-0.223-0.102-0.328-0.162
			c-0.197-0.114-0.376-0.251-0.557-0.384c-0.089-0.069-0.18-0.138-0.275-0.2c-0.099-0.064-0.197-0.121-0.304-0.174
			c-0.184-0.086-0.371-0.158-0.567-0.214c-0.038-0.011-0.074-0.02-0.11-0.028c-0.162-0.04-0.326-0.063-0.491-0.082
			c-0.258-0.028-0.508-0.004-0.762,0.034c-0.815,0.122-1.232,0.239-2.057-0.083c-0.03-0.013-0.062-0.023-0.091-0.036
			c-0.214-0.093-0.404-0.21-0.589-0.349c-0.173-0.137-0.325-0.291-0.479-0.445c-0.077-0.076-0.154-0.152-0.235-0.226
			c-0.084-0.071-0.17-0.14-0.265-0.202c-0.162-0.104-0.329-0.195-0.505-0.269c-0.035-0.015-0.066-0.027-0.102-0.04
			c-0.148-0.054-0.299-0.093-0.453-0.131c-0.242-0.055-0.481-0.055-0.725-0.049c-0.346,0.009-0.686,0.057-1.034,0.002
			c-0.352-0.052-0.661-0.169-0.967-0.349c-0.017-0.011-0.038-0.022-0.057-0.032c-0.195-0.119-0.363-0.266-0.519-0.43
			c-0.149-0.158-0.271-0.334-0.396-0.509c-0.063-0.087-0.126-0.176-0.195-0.261c-0.068-0.086-0.144-0.17-0.226-0.244
			c-0.144-0.135-0.296-0.254-0.46-0.359c-0.03-0.02-0.061-0.039-0.095-0.061c-0.509-0.307-0.85-0.375-1.424-0.467
			c-0.517-0.08-0.968-0.223-1.397-0.533c0.008,0.012-0.013-0.009-0.019-0.014s-0.013-0.01-0.019-0.014
			c-0.012-0.012-0.026-0.018-0.036-0.027c-0.032-0.027-0.065-0.053-0.097-0.079c-0.218-0.188-0.397-0.396-0.545-0.64
			c-0.112-0.182-0.195-0.376-0.283-0.566c-0.005-0.016-0.012-0.031-0.019-0.047c-0.112-0.244-0.255-0.461-0.429-0.666
			c-0.086-0.102-0.177-0.198-0.275-0.289c-0.048-0.047-0.097-0.091-0.147-0.133c-0.036-0.032-0.075-0.065-0.113-0.096
			c-0.013-0.01-0.05-0.064-0.041-0.031c-0.702-0.552-1.474-0.885-2.309-1.169c-0.146-0.05-0.321-0.016-0.437,0.091
			c-0.073,0.064-0.145,0.131-0.218,0.196c-0.223,0.267-0.444,0.532-0.668,0.798c-0.14,0.168-0.183,0.27-0.008,0.437
			c0.013,0.011,0.022,0.021,0.032,0.03c0.002,0.002,0.007,0.004,0.009,0.006c0.042,0.038,0.085,0.079,0.128,0.119
			c0.022,0.021,0.047,0.041,0.068,0.063c0.004,0.005,0.009,0.007,0.013,0.01c0.811,0.745,1.632,1.475,2.478,2.176
			c0.292,0.242,0.578,0.486,0.877,0.717c0.008-0.008,0.011,0.006,0.017,0.01c0.02,0.016,0.042,0.033,0.063,0.049
			c0.026,0.02,0.055,0.043,0.08,0.063c0.056,0.043,0.11,0.083,0.163,0.125c0.109,0.082,0.217,0.168,0.325,0.251
			c-0.004,0.009,0.011,0.007,0.015,0.012c0.004,0.004,0.01,0.007,0.014,0.01c0.011,0.009,0.019,0.015,0.028,0.022
			c0.019,0.014,0.038,0.029,0.057,0.043c0.038,0.027,0.077,0.055,0.113,0.084c0.079,0.057,0.155,0.113,0.232,0.17
			c0.154,0.113,0.311,0.225,0.465,0.335c1.641,1.163,3.339,2.167,5.18,2.989c1.831,0.816,3.706,1.48,5.628,2.045
			c4.233,1.246,7.407,1.725,11.814,1.857c0.998,0.03,1.997,0.045,2.998,0.026s1.996-0.081,2.989-0.226
			c1.991-0.293,3.908-0.82,5.827-1.395c4.209-1.258,7.183-2.453,10.512-5.488c0.64-0.58,1.25-1.186,1.837-1.82
			c0.076-0.076,0.146-0.158,0.219-0.236c0.07-0.078,0.144-0.156,0.212-0.238c0.05-0.054,0.098-0.109,0.146-0.164
			c0.023-0.025,0.042-0.049,0.064-0.076c0.07-0.078,0.137-0.158,0.205-0.239c0.066-0.079,0.135-0.16,0.201-0.239
			c0.065-0.082,0.131-0.162,0.195-0.244c0.018-0.023,0.038-0.045,0.058-0.068c0.016-0.021,0.031-0.043,0.048-0.063
			c0.092-0.117,0.184-0.234,0.272-0.354c0.493-0.646,0.928-1.322,1.31-2.038v-0.002c0.194-0.363,0.369-0.734,0.531-1.115
			c0.267-0.625,0.49-1.263,0.683-1.916c0.105-0.361,0.433-1.602,0.467-1.98c0.03-0.109,0.118-0.712,0.133-0.821
			c0.007-0.056,0.017-0.11,0.022-0.165c-0.006,0.032,0.004-0.035,0.006-0.051s0.003-0.034,0.006-0.05
			c0.004-0.034,0.007-0.069,0.013-0.104c0.004-0.034,0.008-0.066,0.012-0.101c0.002-0.019,0.004-0.034,0.006-0.053
			c0.002-0.016-0.01-0.035,0.006-0.051c0.009-0.061,0.015-0.123,0.021-0.186c0.004-0.03,0.006-0.061,0.01-0.092
			c0.002-0.015,0.002-0.031,0.005-0.047c0-0.011,0.002-0.019,0.002-0.028c0-0.007,0.01-0.021,0-0.017
			c0.006-0.063,0.012-0.125,0.018-0.189c0.002-0.026,0.004-0.053,0.007-0.079c-0.007,0.063,0.004-0.06,0.008-0.092
			c0.002-0.03,0.004-0.06,0.007-0.093c0.003-0.063,0.007-0.123,0.012-0.185c0.008-0.125,0.014-0.25,0.02-0.375
			c0.007-0.091,0.008-0.182,0.013-0.274c0-0.027,0.002-0.052,0.002-0.079c-0.002,0.038,0-0.039,0-0.059
			c0.003-0.021,0.003-0.041,0.003-0.059c0.002-0.041,0.004-0.081,0.002-0.119c0.016-0.172,0.005-0.342,0.002-0.513
			c-0.002-0.091-0.004-0.184-0.007-0.275c-0.002-0.028-0.002-0.054-0.005-0.082c0,0.042-0.002-0.041-0.002-0.061
			c-0.001-0.021-0.001-0.041-0.003-0.063c0-0.04-0.003-0.083-0.007-0.123c-0.004-0.083-0.008-0.165-0.015-0.248
			c-0.006-0.099-0.014-0.198-0.023-0.296c-0.009-0.097-0.019-0.194-0.028-0.291c-0.002-0.031-0.007-0.062-0.011-0.091
			c0.002,0.039-0.004-0.038-0.008-0.059c-0.002-0.018-0.004-0.038-0.006-0.059c-0.002-0.018-0.004-0.038-0.008-0.059
			c0-0.01-0.002-0.018-0.004-0.028c0-0.01,0.016-0.03-0.005-0.028c-0.008-0.054-0.014-0.108-0.021-0.161
			c-0.006-0.028-0.009-0.054-0.013-0.083c-0.003-0.012-0.004-0.026-0.004-0.041c-0.002-0.006-0.002-0.012-0.004-0.02
			c0-0.006-0.015-0.017-0.002-0.018c-0.015-0.109-0.031-0.216-0.049-0.323s-0.036-0.214-0.056-0.321
			c-0.006-0.032-0.012-0.067-0.018-0.099c0.006,0.041-0.009-0.042-0.013-0.062c-0.004-0.023-0.008-0.042-0.012-0.063
			c-0.004-0.022-0.008-0.042-0.013-0.065c-0.002-0.01-0.004-0.02-0.006-0.03s0.013-0.034-0.008-0.032
			c-0.013-0.059-0.024-0.117-0.036-0.176c-0.008-0.028-0.013-0.059-0.02-0.086c-0.001-0.014-0.005-0.031-0.007-0.044
			c-0.003-0.006-0.005-0.014-0.005-0.022c-0.002-0.006-0.018-0.018-0.004-0.02c-0.023-0.117-0.049-0.234-0.075-0.349
			c-0.017-0.075-0.034-0.149-0.053-0.224c-0.008-0.042-0.019-0.083-0.028-0.125c-0.11-0.456-0.229-0.908-0.365-1.358
			c-0.096-0.323-0.201-0.642-0.322-0.959c-0.998-2.64-2.267-5.554-3.861-7.923c-1.729-2.572-3.737-4.42-6.568-5.77
			C52.261,4.432,52.219,4.414,52.17,4.4c-0.087-0.022-0.174-0.036-0.264-0.041c-0.015-0.002-0.028-0.002-0.043-0.002
			c-0.01,0-0.023,0-0.033,0c-0.157,0-0.318,0-0.476,0H49.809z"/>
		
			<line fill="none" stroke="#5A6870" stroke-width="1.3846" stroke-linecap="round" stroke-linejoin="round" x1="49.72" y1="46.118" x2="49.72" y2="46.118"/>
		
			<line fill="none" stroke="#5A6870" stroke-width="1.3846" stroke-linecap="round" stroke-linejoin="round" x1="49.419" y1="47.376" x2="49.918" y2="46.915"/>
		
			<line fill="none" stroke="#5A6870" stroke-width="1.3846" stroke-linecap="round" stroke-linejoin="round" x1="29.607" y1="8.645" x2="29.607" y2="8.635"/>
		<path fill="none" stroke="#5A6870" stroke-width="1.3846" stroke-linecap="round" stroke-linejoin="round" d="M39.859,43.915
			c0.147-0.318,0.35-0.553,0.64-0.75c0.184-0.123,0.374-0.207,0.589-0.262c0.634-0.162,1.304,0.02,1.769,0.477"/>
		<path fill="none" stroke="#5A6870" stroke-width="1.3846" stroke-linecap="round" stroke-linejoin="round" d="M45.721,42.64
			c0.127-0.399,0.382-0.744,0.729-0.979c0.184-0.125,0.374-0.211,0.59-0.265c0.523-0.133,1.08-0.032,1.522,0.274"/>
		
			<line fill="none" stroke="#5A6870" stroke-width="1.3846" stroke-linecap="round" stroke-linejoin="round" x1="43.057" y1="45.728" x2="43.089" y2="45.856"/>
		
			<line fill="none" stroke="#5A6870" stroke-width="1.3846" stroke-linecap="round" stroke-linejoin="round" x1="40.794" y1="46.619" x2="40.681" y2="46.171"/>
		
			<line fill="none" stroke="#5A6870" stroke-width="1.3846" stroke-linecap="round" stroke-linejoin="round" x1="48.963" y1="44.042" x2="49.036" y2="44.327"/>
		
			<line fill="none" stroke="#5A6870" stroke-width="1.3846" stroke-linecap="round" stroke-linejoin="round" x1="46.684" y1="44.867" x2="46.658" y2="44.767"/>
		<path fill="none" stroke="#5A6870" stroke-width="1.3846" stroke-linecap="round" stroke-linejoin="round" d="M49.895,46.796
			c0.01,0.039,0.02,0.078,0.028,0.113c-0.166,0.156-0.335,0.311-0.504,0.467c-0.478,0.121-0.957,0.242-1.434,0.363
			c-1.559,0.394-3.119,0.787-4.678,1.184c-0.478,0.117-0.957,0.239-1.435,0.361c-0.223-0.059-0.444-0.114-0.666-0.17
			c-0.009-0.037-0.019-0.074-0.028-0.111"/>
		<path fill="none" stroke="#5A6870" stroke-width="1.3846" stroke-linecap="round" stroke-linejoin="round" d="M12.98,4.36
			c-0.034-0.001-0.066-0.006-0.101-0.013c-0.065-0.021-0.118-0.049-0.168-0.097c-0.059-0.061-0.085-0.124-0.095-0.204
			c0.004,0.002,0-0.003,0-0.006c-0.002-0.016-0.002-0.032-0.004-0.048c0-0.005,0-0.012,0-0.02c0-0.006,0.014-0.021,0.002-0.018
			c0-0.006,0-0.01,0-0.014c-0.002,0.016,0-0.017,0.002-0.022c-0.002-0.01,0-0.016,0.003-0.024c0.007-0.095,0.015-0.19,0.024-0.282
			c0.007-0.063,0.009-0.123,0.028-0.186c0-0.002,0.001-0.006,0.001-0.009c0.016-0.063,0.045-0.124,0.073-0.182
			c0.145-0.298,0.294-0.595,0.449-0.89c0.014-0.026,0.03-0.055,0.046-0.081c0.03-0.042,0.063-0.074,0.108-0.101
			c0.044-0.027,0.089-0.042,0.143-0.048c0.002,0,0.005,0,0.007,0h0.031h0.066h0.126h0.092h0.117h0.313h0.404h0.486h0.55h0.6h0.627
			h0.64H18.2h0.648h0.449h13.051H45.4h0.449h0.648h0.646h0.641h0.627h0.599h0.551h0.487h0.404h0.313h0.117h0.092H51.1h0.067h0.029
			c0.002,0,0.008,0,0.01,0c0.052,0.007,0.097,0.021,0.141,0.048c0.045,0.027,0.077,0.059,0.107,0.101
			c0.017,0.026,0.033,0.055,0.048,0.081c0.153,0.295,0.304,0.592,0.447,0.89c0.029,0.063,0.062,0.121,0.076,0.189
			c0.004,0.016,0.008,0.03,0.01,0.046c0.002,0.012,0.004,0.024,0.006,0.037c0.005,0.034,0.009,0.068,0.013,0.105
			c0.008,0.092,0.016,0.188,0.025,0.282c0.001,0.008,0.001,0.016,0.001,0.024c0.002,0.008,0.002,0.037,0.002,0.022
			c-0.005-0.002,0,0.005,0,0.008c0,0.002,0,0.004,0,0.006c0.002,0.006,0.002,0.009,0.002,0.016c0,0.006,0,0.015,0,0.022
			c0,0.009-0.002,0.017-0.002,0.024c0,0.008-0.002,0.036,0,0.022c0,0.001-0.002,0.004-0.002,0.008
			c-0.019,0.144-0.113,0.257-0.254,0.296c-0.002,0.002-0.006,0.002-0.008,0.005c-0.009,0-0.015,0.001-0.022,0.004
			c0.014-0.002-0.015,0.003-0.022,0.003c-0.008,0.002-0.016,0.002-0.024,0.002"/>
		<path fill="none" stroke="#5A6870" stroke-width="1.3846" stroke-linecap="round" stroke-linejoin="round" d="M14.015,2.113
			c0.002-0.05,0.007-0.099,0.009-0.149c0-0.018,0.002-0.034,0.003-0.053c0.005-0.046,0.018-0.091,0.04-0.133
			c0.021-0.04,0.052-0.074,0.09-0.107c0.012-0.01,0.026-0.021,0.039-0.032c0.549-0.405,1.464-0.541,2.088-0.618
			c0.732-0.093,1.468-0.143,2.204-0.169c0.505-0.024,1.01-0.041,1.513-0.059c2.196-0.091,9.057-0.099,11.252-0.101
			c0.365,0,0.731,0,1.096,0c0.366,0,0.731,0,1.097,0c2.195,0.002,9.057,0.01,11.25,0.101c0.506,0.018,1.011,0.035,1.514,0.059
			c0.74,0.026,1.473,0.077,2.207,0.169c0.623,0.077,1.537,0.212,2.085,0.618c0.015,0.012,0.028,0.022,0.041,0.032
			c0.036,0.033,0.066,0.067,0.089,0.107c0.023,0.042,0.035,0.087,0.038,0.133c0.002,0.019,0.005,0.035,0.005,0.053
			c0.004,0.05,0.006,0.099,0.009,0.149"/>
		<path fill="none" stroke="#5A6870" stroke-width="1.3846" stroke-linecap="round" stroke-linejoin="round" d="M35.31,8.47v0.468
			v0.315c0,0.073,0,0.144,0,0.216c0,0.117,0.008,0.225-0.061,0.333c-0.129,0.18-0.411,0.236-0.596,0.274
			c-0.768-0.001-1.537-0.003-2.305-0.003c-0.77,0-1.539,0.002-2.307,0.003c-0.183-0.038-0.467-0.097-0.594-0.274
			c-0.07-0.108-0.063-0.216-0.063-0.333c0-0.072,0-0.146,0-0.216V8.938V8.47"/>
		<path fill="none" stroke="#5A6870" stroke-width="1.3846" stroke-linecap="round" stroke-linejoin="round" d="M12.669,9.41
			c0.012,0.055,0.03,0.105,0.059,0.154c0.06,0.101,0.141,0.165,0.231,0.234c0.118,0.105,0.501,0.321,0.641,0.39
			c0.224,0.113,0.456,0.206,0.692,0.284c0.481,0.16,0.97,0.25,1.469,0.321c0.079,0.01,0.158,0.021,0.239,0.03
			c0.433,0.053,0.87,0.083,1.305,0.124c0.545,0.038,1.092,0.063,1.638,0.083c0.292,0.012,0.585,0.02,0.875,0.03
			c1.917,0.054,3.834,0.07,5.75,0.083c1.895,0.011,3.789,0.014,5.684,0.014c0.365,0,0.731,0,1.096,0c0.366,0,0.731,0,1.098,0
			c1.9,0,3.801-0.002,5.701-0.014c0.898-0.004,1.797-0.016,2.696-0.026c1.196-0.018,2.39-0.034,3.585-0.075
			c0.786-0.026,1.572-0.06,2.358-0.125c0.322-0.026,0.643-0.059,0.964-0.099c0.531-0.068,1.05-0.155,1.562-0.315
			c0.257-0.079,0.502-0.175,0.741-0.292c0.156-0.077,0.546-0.291,0.683-0.41c0.089-0.069,0.175-0.135,0.233-0.236
			c0.034-0.059,0.056-0.122,0.067-0.188c0.002-0.004,0.002-0.008,0.004-0.014"/>
	</g>
</g>
</svg>
