<?xml version="1.0" encoding="utf-8"?>
<!-- Generator: Adobe Illustrator 16.0.0, SVG Export Plug-In . SVG Version: 6.00 Build 0)  -->
<!DOCTYPE svg PUBLIC "-//W3C//DTD SVG 1.0//EN" "http://www.w3.org/TR/2001/REC-SVG-20010904/DTD/svg10.dtd">
<svg version="1.0" id="Слой_1" xmlns="http://www.w3.org/2000/svg" xmlns:xlink="http://www.w3.org/1999/xlink" x="0px" y="0px"
	 width="49.96px" height="49.297px" viewBox="-0.221 -0.228 49.96 49.297" enable-background="new -0.221 -0.228 49.96 49.297"
	 xml:space="preserve">
<g>
	
		<ellipse fill="none" stroke="#5A6870" stroke-width="1.3936" stroke-linecap="round" stroke-linejoin="round" cx="24.76" cy="24.42" rx="20.941" ry="20.654"/>
	
		<ellipse fill="none" stroke="#5A6870" stroke-width="1.3936" stroke-linecap="round" stroke-linejoin="round" cx="24.759" cy="24.42" rx="17.831" ry="17.586"/>
	
		<ellipse fill="none" stroke="#5A6870" stroke-width="1.3936" stroke-linecap="round" stroke-linejoin="round" cx="24.759" cy="24.42" rx="10.927" ry="10.777"/>
	<path fill="#5A6870" d="M24.759,23.482c-0.525,0-0.952,0.42-0.952,0.938c0,0.52,0.426,0.939,0.952,0.939s0.953-0.42,0.953-0.939
		C25.712,23.902,25.285,23.482,24.759,23.482"/>
	<path fill="none" stroke="#5A6870" stroke-width="1.3936" stroke-linecap="round" stroke-linejoin="round" d="M28.151,38.488
		c0.271-0.064,0.536-0.133,0.802-0.213"/>
	<path fill="none" stroke="#5A6870" stroke-width="1.3936" stroke-linecap="round" stroke-linejoin="round" d="M25.622,38.855
		c0.277-0.018,0.553-0.039,0.831-0.07"/>
	<path fill="none" stroke="#5A6870" stroke-width="1.3936" stroke-linecap="round" stroke-linejoin="round" d="M23.067,38.783
		c0.276,0.033,0.553,0.057,0.83,0.072"/>
	<path fill="none" stroke="#5A6870" stroke-width="1.3936" stroke-linecap="round" stroke-linejoin="round" d="M20.564,38.275
		c0.266,0.08,0.533,0.147,0.805,0.213"/>
	<path fill="none" stroke="#5A6870" stroke-width="1.3936" stroke-linecap="round" stroke-linejoin="round" d="M18.942,11.147
		c-5.369,2.289-8.843,7.504-8.843,13.272c0,5.769,3.476,10.983,8.843,13.272"/>
	<path fill="none" stroke="#5A6870" stroke-width="1.3936" stroke-linecap="round" stroke-linejoin="round" d="M21.367,10.352
		c-0.271,0.064-0.537,0.134-0.802,0.212"/>
	<path fill="none" stroke="#5A6870" stroke-width="1.3936" stroke-linecap="round" stroke-linejoin="round" d="M23.897,9.985
		c-0.277,0.017-0.554,0.04-0.831,0.072"/>
	<path fill="none" stroke="#5A6870" stroke-width="1.3936" stroke-linecap="round" stroke-linejoin="round" d="M26.452,10.057
		c-0.277-0.032-0.554-0.054-0.831-0.071"/>
	<path fill="none" stroke="#5A6870" stroke-width="1.3936" stroke-linecap="round" stroke-linejoin="round" d="M28.954,10.565
		c-0.268-0.079-0.533-0.148-0.805-0.212"/>
	<path fill="none" stroke="#5A6870" stroke-width="1.3936" stroke-linecap="round" stroke-linejoin="round" d="M27.261,11.332
		c-0.116,0-0.234-0.024-0.343-0.066c-0.114-0.045-0.221-0.108-0.308-0.193c-0.165-0.158-0.271-0.383-0.271-0.609
		c-0.002-0.22,0.098-0.441,0.262-0.593c0.169-0.158,0.408-0.241,0.643-0.239c0.119,0,0.238,0.024,0.35,0.069
		c0.11,0.043,0.214,0.105,0.3,0.186c0.165,0.154,0.271,0.377,0.273,0.603c0,0.222-0.103,0.445-0.266,0.597
		C27.73,11.248,27.493,11.332,27.261,11.332z"/>
	<path fill="none" stroke="#5A6870" stroke-width="1.3936" stroke-linecap="round" stroke-linejoin="round" d="M22.276,9.632
		c0.118-0.001,0.234,0.019,0.343,0.06c0.11,0.042,0.214,0.1,0.299,0.179c0.166,0.152,0.263,0.374,0.261,0.593
		c0,0.227-0.105,0.451-0.271,0.608c-0.174,0.166-0.411,0.257-0.65,0.259c-0.118,0.002-0.234-0.021-0.345-0.062
		c-0.108-0.041-0.209-0.101-0.293-0.18c-0.166-0.154-0.267-0.377-0.265-0.599c0-0.226,0.106-0.447,0.272-0.603
		C21.8,9.727,22.038,9.636,22.276,9.632z"/>
	<path fill="none" stroke="#5A6870" stroke-width="1.3936" stroke-linecap="round" stroke-linejoin="round" d="M30.577,37.693
		c5.366-2.289,8.842-7.504,8.842-13.272c0-5.768-3.476-10.984-8.842-13.273"/>
	<path fill="none" stroke="#5A6870" stroke-width="1.3936" stroke-linecap="round" stroke-linejoin="round" d="M0.476,24.42
		c0,6.352,2.559,12.445,7.112,16.936c4.554,4.492,10.73,7.017,17.172,7.017s12.616-2.522,17.17-7.017
		c4.556-4.489,7.112-10.584,7.112-16.936c0-6.352-2.558-12.445-7.112-16.936C37.376,2.993,31.2,0.469,24.76,0.469
		S12.142,2.993,7.588,7.484C3.034,11.975,0.476,18.068,0.476,24.42z"/>
	<path fill="none" stroke="#5A6870" stroke-width="1.3936" stroke-linecap="round" stroke-linejoin="round" d="M19.832,11.974
		c-0.118,0.002-0.232-0.019-0.341-0.06c-0.108-0.042-0.209-0.1-0.291-0.177c-0.166-0.152-0.262-0.375-0.26-0.597
		c0.002-0.225,0.11-0.451,0.276-0.608c0.173-0.165,0.409-0.261,0.649-0.267c0.119-0.001,0.237,0.019,0.348,0.061
		c0.105,0.04,0.208,0.098,0.292,0.177c0.162,0.15,0.253,0.372,0.251,0.591c-0.003,0.231-0.11,0.459-0.279,0.622
		C20.306,11.876,20.071,11.971,19.832,11.974z"/>
	<path fill="none" stroke="#5A6870" stroke-width="1.3936" stroke-linecap="round" stroke-linejoin="round" d="M24.759,11.116
		c0.12,0,0.242-0.024,0.352-0.068c0.11-0.044,0.211-0.105,0.298-0.186c0.161-0.154,0.265-0.377,0.265-0.599
		c0-0.224-0.104-0.445-0.268-0.597c-0.173-0.16-0.412-0.246-0.646-0.248c-0.118,0-0.234,0.022-0.343,0.064
		c-0.112,0.041-0.216,0.103-0.305,0.184c-0.166,0.152-0.269,0.375-0.267,0.597c0,0.222,0.103,0.443,0.265,0.599
		C24.281,11.025,24.521,11.116,24.759,11.116z"/>
	<path fill="none" stroke="#5A6870" stroke-width="1.3936" stroke-linecap="round" stroke-linejoin="round" d="M29.651,10.266
		c0.121,0.002,0.242,0.029,0.357,0.077c0.107,0.045,0.207,0.107,0.291,0.188c0.166,0.16,0.273,0.384,0.277,0.61
		c0.004,0.22-0.097,0.443-0.259,0.596c-0.168,0.158-0.403,0.24-0.635,0.238c-0.121-0.002-0.24-0.029-0.354-0.074
		c-0.105-0.045-0.207-0.106-0.291-0.187c-0.168-0.158-0.271-0.381-0.277-0.611c-0.004-0.112,0.016-0.225,0.061-0.33
		c0.044-0.102,0.107-0.196,0.189-0.271C29.183,10.345,29.419,10.261,29.651,10.266z"/>
	<path fill="none" stroke="#5A6870" stroke-width="1.3936" stroke-linecap="round" stroke-linejoin="round" d="M19.832,36.866
		c0.122,0.002,0.242,0.026,0.354,0.073c0.109,0.043,0.208,0.106,0.292,0.187c0.167,0.159,0.272,0.383,0.277,0.608
		c0.004,0.113-0.018,0.229-0.062,0.332c-0.044,0.103-0.107,0.195-0.189,0.271c-0.167,0.158-0.405,0.242-0.638,0.237
		c-0.122-0.004-0.244-0.03-0.356-0.077c-0.109-0.045-0.209-0.108-0.293-0.188c-0.166-0.158-0.274-0.384-0.276-0.609
		c-0.002-0.221,0.096-0.442,0.26-0.596C19.368,36.947,19.604,36.865,19.832,36.866z"/>
	<path fill="none" stroke="#5A6870" stroke-width="1.3936" stroke-linecap="round" stroke-linejoin="round" d="M22.276,39.209
		c-0.12,0-0.237-0.025-0.351-0.07c-0.108-0.043-0.211-0.104-0.297-0.186c-0.167-0.154-0.274-0.378-0.274-0.604
		c-0.002-0.222,0.1-0.445,0.265-0.599c0.17-0.158,0.405-0.244,0.638-0.243c0.116,0,0.231,0.021,0.341,0.064
		c0.112,0.043,0.215,0.104,0.301,0.187c0.169,0.157,0.278,0.384,0.282,0.613c0.002,0.222-0.097,0.442-0.261,0.595
		C22.748,39.128,22.508,39.21,22.276,39.209z"/>
	<path fill="none" stroke="#5A6870" stroke-width="1.3936" stroke-linecap="round" stroke-linejoin="round" d="M24.759,37.725
		c-0.12-0.002-0.242,0.023-0.354,0.068c-0.108,0.043-0.209,0.105-0.295,0.186c-0.162,0.154-0.265,0.377-0.265,0.601
		c-0.002,0.221,0.103,0.442,0.267,0.597c0.174,0.159,0.414,0.245,0.647,0.247c0.118,0,0.234-0.021,0.343-0.063
		c0.111-0.043,0.216-0.104,0.304-0.185c0.166-0.151,0.268-0.376,0.268-0.597c0-0.223-0.104-0.443-0.265-0.6
		C25.237,37.814,24.997,37.725,24.759,37.725z"/>
	<path fill="none" stroke="#5A6870" stroke-width="1.3936" stroke-linecap="round" stroke-linejoin="round" d="M27.245,39.209
		c-0.121,0.001-0.236-0.02-0.349-0.061c-0.108-0.041-0.213-0.103-0.299-0.18c-0.164-0.15-0.26-0.375-0.26-0.597
		c0.004-0.229,0.111-0.456,0.281-0.613c0.172-0.161,0.404-0.248,0.642-0.251c0.118-0.001,0.233,0.021,0.345,0.063
		c0.109,0.041,0.209,0.104,0.293,0.182c0.166,0.152,0.267,0.377,0.266,0.598c0,0.227-0.107,0.447-0.272,0.604
		C27.718,39.114,27.482,39.205,27.245,39.209z"/>
	<path fill="none" stroke="#5A6870" stroke-width="1.3936" stroke-linecap="round" stroke-linejoin="round" d="M29.651,38.574
		c-0.118,0.004-0.237-0.018-0.349-0.059c-0.106-0.041-0.208-0.101-0.29-0.177c-0.161-0.151-0.254-0.374-0.25-0.594
		c0.002-0.229,0.107-0.46,0.277-0.619c0.174-0.164,0.407-0.258,0.645-0.262c0.119-0.003,0.232,0.021,0.344,0.061
		c0.106,0.041,0.207,0.101,0.291,0.179c0.163,0.151,0.263,0.375,0.259,0.596c-0.003,0.227-0.111,0.451-0.277,0.609
		C30.128,38.475,29.892,38.568,29.651,38.574z"/>
	
		<ellipse fill="none" stroke="#5A6870" stroke-width="1.3936" stroke-linecap="round" stroke-linejoin="round" cx="24.759" cy="24.42" rx="7.039" ry="6.941"/>
</g>
</svg>
