<?xml version="1.0" encoding="utf-8"?>
<!-- Generator: Adobe Illustrator 16.0.0, SVG Export Plug-In . SVG Version: 6.00 Build 0)  -->
<!DOCTYPE svg PUBLIC "-//W3C//DTD SVG 1.0//EN" "http://www.w3.org/TR/2001/REC-SVG-20010904/DTD/svg10.dtd">
<svg version="1.0" id="Слой_1" xmlns="http://www.w3.org/2000/svg" xmlns:xlink="http://www.w3.org/1999/xlink" x="0px" y="0px"
	 width="43.447px" height="49.693px" viewBox="0 0 43.447 49.693" enable-background="new 0 0 43.447 49.693" xml:space="preserve">
<g>
	<g>
		<path fill="none" stroke="#5A6870" stroke-width="1.3991" stroke-linecap="round" stroke-linejoin="round" d="M5.914,47.856
			h31.621c0.018,0,0.025,0.011,0.025,0.037v1.063c0,0.027-0.008,0.038-0.025,0.038H5.911c-0.018,0-0.023-0.011-0.023-0.038v-1.063"
			/>
		
			<ellipse fill="none" stroke="#5A6870" stroke-width="1.3991" stroke-linecap="round" stroke-linejoin="round" cx="21.724" cy="21.56" rx="19.591" ry="19.438"/>
		<path fill="#5A6870" d="M21.723,21.47c0.05,0,0.09,0.041,0.09,0.09s-0.04,0.09-0.09,0.09s-0.09-0.041-0.09-0.09
			S21.673,21.47,21.723,21.47 M21.723,20.801c-0.422,0-0.765,0.34-0.765,0.758c0,0.419,0.343,0.759,0.765,0.759
			s0.765-0.34,0.765-0.759C22.488,21.141,22.145,20.801,21.723,20.801"/>
		
			<ellipse fill="none" stroke="#5A6870" stroke-width="1.3991" stroke-linecap="round" stroke-linejoin="round" cx="21.723" cy="21.56" rx="3.823" ry="3.792"/>
		<path fill="none" stroke="#5A6870" stroke-width="1.3991" stroke-linecap="round" stroke-linejoin="round" d="M26.161,16.209
			c-0.316,0.544-1.018,0.73-1.566,0.416c-0.548-0.314-0.736-1.01-0.42-1.553c0.317-0.545,1.02-0.73,1.567-0.417
			C26.29,14.969,26.478,15.664,26.161,16.209z"/>
		<path fill="none" stroke="#5A6870" stroke-width="1.3991" stroke-linecap="round" stroke-linejoin="round" d="M26.022,11.503
			c-0.219,0.809-1.057,1.29-1.873,1.073s-1.3-1.049-1.08-1.858c0.219-0.81,1.056-1.29,1.872-1.073
			C25.757,9.861,26.241,10.694,26.022,11.503z"/>
		<path fill="none" stroke="#5A6870" stroke-width="1.3991" stroke-linecap="round" stroke-linejoin="round" d="M31.329,8.845
			c-0.527,0.907-1.696,1.218-2.611,0.694c-0.914-0.524-1.227-1.683-0.699-2.59c0.528-0.907,1.696-1.218,2.61-0.695
			C31.543,6.778,31.856,7.938,31.329,8.845z"/>
		<path fill="none" stroke="#5A6870" stroke-width="1.3991" stroke-linecap="round" stroke-linejoin="round" d="M28.263,19.127
			c-0.549,0.314-1.25,0.127-1.567-0.416c-0.314-0.544-0.127-1.24,0.422-1.555c0.547-0.314,1.248-0.127,1.565,0.416
			C29,18.117,28.812,18.813,28.263,19.127z"/>
		<path fill="none" stroke="#5A6870" stroke-width="1.3991" stroke-linecap="round" stroke-linejoin="round" d="M30.514,14.983
			c-0.598,0.593-1.565,0.593-2.163,0c-0.596-0.593-0.596-1.553,0-2.146c0.598-0.591,1.565-0.591,2.163,0
			C31.112,13.43,31.112,14.39,30.514,14.983z"/>
		<path fill="none" stroke="#5A6870" stroke-width="1.3991" stroke-linecap="round" stroke-linejoin="round" d="M36.449,15.314
			c-0.914,0.523-2.083,0.213-2.61-0.694s-0.214-2.065,0.7-2.59c0.914-0.523,2.082-0.213,2.61,0.694S37.364,14.791,36.449,15.314z"/>
		
			<ellipse fill="none" stroke="#5A6870" stroke-width="1.3991" stroke-linecap="round" stroke-linejoin="round" cx="28.613" cy="21.559" rx="1.146" ry="1.138"/>
		<path fill="none" stroke="#5A6870" stroke-width="1.3991" stroke-linecap="round" stroke-linejoin="round" d="M32.65,20.225
			c-0.815,0.217-1.654-0.264-1.872-1.073c-0.219-0.809,0.266-1.64,1.082-1.856c0.815-0.218,1.654,0.262,1.872,1.071
			C33.951,19.176,33.466,20.008,32.65,20.225z"/>
		
			<ellipse fill="none" stroke="#5A6870" stroke-width="1.3991" stroke-linecap="round" stroke-linejoin="round" cx="37.624" cy="21.56" rx="1.91" ry="1.896"/>
		<path fill="none" stroke="#5A6870" stroke-width="1.3991" stroke-linecap="round" stroke-linejoin="round" d="M27.117,25.963
			c-0.549-0.315-0.736-1.01-0.42-1.555c0.317-0.543,1.019-0.73,1.565-0.416c0.549,0.314,0.736,1.01,0.421,1.555
			C28.366,26.09,27.666,26.277,27.117,25.963z"/>
		<path fill="none" stroke="#5A6870" stroke-width="1.3991" stroke-linecap="round" stroke-linejoin="round" d="M31.86,25.825
			c-0.816-0.217-1.301-1.049-1.082-1.858c0.218-0.81,1.057-1.29,1.873-1.071c0.815,0.216,1.301,1.047,1.081,1.856
			C33.514,25.561,32.675,26.042,31.86,25.825z"/>
		<path fill="none" stroke="#5A6870" stroke-width="1.3991" stroke-linecap="round" stroke-linejoin="round" d="M34.538,31.09
			c-0.914-0.523-1.227-1.683-0.7-2.59c0.529-0.907,1.697-1.218,2.611-0.694s1.228,1.683,0.7,2.59
			C36.622,31.302,35.453,31.612,34.538,31.09z"/>
		<path fill="none" stroke="#5A6870" stroke-width="1.3991" stroke-linecap="round" stroke-linejoin="round" d="M24.174,28.048
			c-0.316-0.545-0.128-1.24,0.42-1.554c0.549-0.313,1.25-0.128,1.566,0.417c0.317,0.543,0.129,1.238-0.419,1.553
			S24.492,28.593,24.174,28.048z"/>
		<path fill="none" stroke="#5A6870" stroke-width="1.3991" stroke-linecap="round" stroke-linejoin="round" d="M28.352,30.281
			c-0.597-0.593-0.597-1.553,0-2.146c0.598-0.592,1.565-0.592,2.163,0c0.597,0.593,0.597,1.553,0,2.146
			C29.917,30.875,28.95,30.875,28.352,30.281z"/>
		<path fill="none" stroke="#5A6870" stroke-width="1.3991" stroke-linecap="round" stroke-linejoin="round" d="M28.018,36.17
			c-0.526-0.907-0.215-2.067,0.699-2.591c0.915-0.522,2.083-0.212,2.612,0.695c0.526,0.906,0.214,2.065-0.7,2.59
			C29.714,37.388,28.545,37.077,28.018,36.17z"/>
		
			<ellipse fill="none" stroke="#5A6870" stroke-width="1.3991" stroke-linecap="round" stroke-linejoin="round" cx="21.724" cy="28.396" rx="1.147" ry="1.138"/>
		<path fill="none" stroke="#5A6870" stroke-width="1.3991" stroke-linecap="round" stroke-linejoin="round" d="M23.068,32.401
			c-0.218-0.809,0.266-1.643,1.082-1.858c0.815-0.217,1.653,0.263,1.872,1.073c0.22,0.81-0.265,1.642-1.08,1.858
			C24.125,33.691,23.287,33.211,23.068,32.401z"/>
		
			<ellipse fill="none" stroke="#5A6870" stroke-width="1.3991" stroke-linecap="round" stroke-linejoin="round" cx="21.724" cy="37.336" rx="1.911" ry="1.896"/>
		<path fill="none" stroke="#5A6870" stroke-width="1.3991" stroke-linecap="round" stroke-linejoin="round" d="M17.286,26.911
			c0.316-0.545,1.018-0.731,1.566-0.416c0.548,0.314,0.736,1.01,0.42,1.553c-0.317,0.545-1.019,0.73-1.567,0.418
			C17.157,28.15,16.968,27.455,17.286,26.911z"/>
		<path fill="none" stroke="#5A6870" stroke-width="1.3991" stroke-linecap="round" stroke-linejoin="round" d="M17.423,31.616
			c0.22-0.811,1.059-1.29,1.874-1.073c0.815,0.216,1.3,1.05,1.08,1.858c-0.219,0.81-1.056,1.29-1.872,1.073
			C17.69,33.258,17.206,32.426,17.423,31.616z"/>
		<path fill="none" stroke="#5A6870" stroke-width="1.3991" stroke-linecap="round" stroke-linejoin="round" d="M12.118,34.273
			c0.527-0.906,1.696-1.217,2.611-0.694c0.914,0.525,1.227,1.684,0.699,2.591c-0.528,0.907-1.696,1.218-2.61,0.694
			S11.59,35.181,12.118,34.273z"/>
		<path fill="none" stroke="#5A6870" stroke-width="1.3991" stroke-linecap="round" stroke-linejoin="round" d="M15.184,23.992
			c0.549-0.314,1.249-0.127,1.566,0.416c0.315,0.545,0.128,1.24-0.421,1.555c-0.548,0.314-1.248,0.127-1.565-0.416
			C14.447,25.002,14.634,24.307,15.184,23.992z"/>
		<path fill="none" stroke="#5A6870" stroke-width="1.3991" stroke-linecap="round" stroke-linejoin="round" d="M12.932,28.137
			c0.599-0.593,1.565-0.593,2.163,0c0.596,0.593,0.596,1.554,0,2.146c-0.598,0.592-1.564,0.592-2.163,0
			C12.334,29.69,12.334,28.729,12.932,28.137z"/>
		<path fill="none" stroke="#5A6870" stroke-width="1.3991" stroke-linecap="round" stroke-linejoin="round" d="M6.998,27.806
			c0.914-0.523,2.083-0.213,2.61,0.694c0.526,0.907,0.215,2.065-0.699,2.591c-0.915,0.523-2.083,0.211-2.611-0.695
			C5.77,29.488,6.083,28.329,6.998,27.806z"/>
		
			<ellipse fill="none" stroke="#5A6870" stroke-width="1.3991" stroke-linecap="round" stroke-linejoin="round" cx="14.833" cy="21.56" rx="1.146" ry="1.138"/>
		<path fill="none" stroke="#5A6870" stroke-width="1.3991" stroke-linecap="round" stroke-linejoin="round" d="M10.796,22.894
			c0.815-0.216,1.654,0.264,1.872,1.073c0.219,0.81-0.266,1.641-1.081,1.857c-0.816,0.218-1.655-0.263-1.873-1.072
			C9.496,23.943,9.98,23.111,10.796,22.894z"/>
		
			<ellipse fill="none" stroke="#5A6870" stroke-width="1.3991" stroke-linecap="round" stroke-linejoin="round" cx="5.823" cy="21.56" rx="1.911" ry="1.896"/>
		<path fill="none" stroke="#5A6870" stroke-width="1.3991" stroke-linecap="round" stroke-linejoin="round" d="M16.33,17.157
			c0.549,0.314,0.736,1.01,0.42,1.555c-0.317,0.543-1.018,0.73-1.565,0.416c-0.549-0.314-0.736-1.01-0.421-1.555
			C15.081,17.03,15.781,16.842,16.33,17.157z"/>
		<path fill="none" stroke="#5A6870" stroke-width="1.3991" stroke-linecap="round" stroke-linejoin="round" d="M11.587,17.294
			c0.815,0.216,1.3,1.049,1.081,1.858c-0.218,0.809-1.057,1.29-1.872,1.072c-0.816-0.217-1.301-1.047-1.082-1.857
			C9.932,17.558,10.771,17.078,11.587,17.294z"/>
		<path fill="none" stroke="#5A6870" stroke-width="1.3991" stroke-linecap="round" stroke-linejoin="round" d="M8.909,12.029
			c0.914,0.523,1.227,1.683,0.699,2.59c-0.528,0.907-1.695,1.218-2.61,0.694c-0.914-0.524-1.228-1.683-0.7-2.59
			S7.995,11.506,8.909,12.029z"/>
		<path fill="none" stroke="#5A6870" stroke-width="1.3991" stroke-linecap="round" stroke-linejoin="round" d="M19.272,15.071
			c0.316,0.545,0.128,1.241-0.42,1.555c-0.549,0.313-1.25,0.127-1.566-0.417c-0.317-0.543-0.129-1.239,0.418-1.553
			C18.253,14.341,18.955,14.526,19.272,15.071z"/>
		<path fill="none" stroke="#5A6870" stroke-width="1.3991" stroke-linecap="round" stroke-linejoin="round" d="M15.095,12.838
			c0.597,0.592,0.597,1.553,0,2.146c-0.598,0.591-1.565,0.591-2.163,0c-0.597-0.593-0.597-1.554,0-2.146
			C13.53,12.245,14.498,12.245,15.095,12.838z"/>
		<path fill="none" stroke="#5A6870" stroke-width="1.3991" stroke-linecap="round" stroke-linejoin="round" d="M15.427,6.949
			c0.528,0.907,0.216,2.067-0.699,2.59c-0.914,0.523-2.082,0.213-2.61-0.694c-0.528-0.907-0.214-2.065,0.7-2.59
			C13.732,5.732,14.901,6.042,15.427,6.949z"/>
		
			<ellipse fill="none" stroke="#5A6870" stroke-width="1.3991" stroke-linecap="round" stroke-linejoin="round" cx="21.723" cy="14.724" rx="1.146" ry="1.137"/>
		<path fill="none" stroke="#5A6870" stroke-width="1.3991" stroke-linecap="round" stroke-linejoin="round" d="M20.378,10.718
			c0.218,0.81-0.266,1.642-1.081,1.858c-0.816,0.217-1.653-0.264-1.873-1.073c-0.219-0.81,0.265-1.642,1.081-1.858
			C19.321,9.428,20.16,9.908,20.378,10.718z"/>
		
			<ellipse fill="none" stroke="#5A6870" stroke-width="1.3991" stroke-linecap="round" stroke-linejoin="round" cx="21.723" cy="5.784" rx="1.912" ry="1.896"/>
		
			<ellipse fill="none" stroke="#5A6870" stroke-width="1.3991" stroke-linecap="round" stroke-linejoin="round" cx="21.724" cy="21.56" rx="21.024" ry="20.86"/>
		
			<rect x="19.25" y="42.42" fill="none" stroke="#5A6870" stroke-width="1.3991" stroke-linecap="round" stroke-linejoin="round" width="4.949" height="5.437"/>
	</g>
</g>
</svg>
