<?xml version="1.0" encoding="utf-8"?>
<!-- Generator: Adobe Illustrator 16.0.0, SVG Export Plug-In . SVG Version: 6.00 Build 0)  -->
<!DOCTYPE svg PUBLIC "-//W3C//DTD SVG 1.0//EN" "http://www.w3.org/TR/2001/REC-SVG-20010904/DTD/svg10.dtd">
<svg version="1.0" id="Слой_1" xmlns="http://www.w3.org/2000/svg" xmlns:xlink="http://www.w3.org/1999/xlink" x="0px" y="0px"
	 width="44.249px" height="43.723px" viewBox="0 0 44.249 43.723" enable-background="new 0 0 44.249 43.723" xml:space="preserve">
<path fill="#019FDA" d="M43.684,18.601l-5.969-2.491c-0.1-0.268-0.205-0.527-0.316-0.786l2.41-6.015l0.22-0.554l-0.421-0.428
	L35.86,4.572l-0.428-0.423L34.87,4.38L28.92,6.832c-0.271-0.122-0.54-0.231-0.822-0.34l-2.531-5.941L25.333,0h-0.601h-5.302h-0.606
	l-0.231,0.555l-2.467,5.913c-0.297,0.114-0.592,0.227-0.877,0.354L9.307,4.431L8.752,4.209L8.326,4.634l-3.748,3.75L4.147,8.81
	l0.234,0.565l2.416,5.886c-0.134,0.296-0.254,0.603-0.371,0.913l-5.874,2.516L0,18.928v0.599v5.306v0.606l0.56,0.231l5.874,2.453
	c0.117,0.305,0.239,0.615,0.375,0.916l-2.375,5.92l-0.22,0.564l0.417,0.422l3.748,3.751l0.432,0.431l0.563-0.229l5.894-2.427
	c0.292,0.118,0.586,0.23,0.884,0.338l2.529,5.914l6.981-0.006l2.466-5.953c0.278-0.104,0.549-0.213,0.814-0.332l5.994,2.402
	l0.563,0.223l0.423-0.422l3.751-3.758l0.423-0.426l-0.227-0.561l-2.463-5.969c0.113-0.258,0.214-0.523,0.311-0.785l5.979-2.551
	l0.555-0.238v-0.6v-5.306v-0.607L43.684,18.601z M21.614,33.092l-3.961-1.98l3.381-6.76H16.05l6.585-13.166l3.958,1.979l-3.378,6.76
	h4.979L21.614,33.092z"/>
</svg>
