<?xml version="1.0" encoding="utf-8"?>
<!-- Generator: Adobe Illustrator 16.0.0, SVG Export Plug-In . SVG Version: 6.00 Build 0)  -->
<!DOCTYPE svg PUBLIC "-//W3C//DTD SVG 1.0//EN" "http://www.w3.org/TR/2001/REC-SVG-20010904/DTD/svg10.dtd">
<svg version="1.0" id="Слой_1" xmlns="http://www.w3.org/2000/svg" xmlns:xlink="http://www.w3.org/1999/xlink" x="0px" y="0px"
	 width="39.042px" height="43.995px" viewBox="0 0 39.042 43.995" enable-background="new 0 0 39.042 43.995" xml:space="preserve">
<g>
	<path fill="#645FA9" d="M38.611,4.44L19.521,0L0.427,4.487C0.427,4.487,0,8.023,0,9.87v20.945c0,4.681,7.471,10.993,19.517,13.18
		c12.051-2.206,19.526-8.52,19.526-13.192V9.823C39.042,7.994,38.611,4.44,38.611,4.44 M12.081,29.432l-3.11,3.113
		c-5.816-5.814-5.816-15.279,0-21.095l3.11,3.108C7.983,18.662,7.983,25.335,12.081,29.432 M14.853,26.662
		c-1.247-1.244-1.932-2.904-1.932-4.666c0-1.763,0.688-3.423,1.932-4.666l3.112,3.109c-0.415,0.417-0.645,0.97-0.645,1.556
		c0,0.585,0.23,1.136,0.645,1.556L14.853,26.662z M24.185,26.662l-3.107-3.109c0.416-0.42,0.645-0.971,0.645-1.556
		c0-0.586-0.229-1.139-0.645-1.556l3.107-3.109c1.248,1.243,1.936,2.903,1.936,4.666C26.121,23.758,25.433,25.418,24.185,26.662
		 M30.069,32.545l-3.112-3.113c4.104-4.097,4.104-10.77,0-14.874l3.112-3.108C35.883,17.266,35.883,26.73,30.069,32.545"/>
</g>
</svg>
