<?xml version="1.0" encoding="utf-8"?>
<!-- Generator: Adobe Illustrator 16.0.0, SVG Export Plug-In . SVG Version: 6.00 Build 0)  -->
<!DOCTYPE svg PUBLIC "-//W3C//DTD SVG 1.0//EN" "http://www.w3.org/TR/2001/REC-SVG-20010904/DTD/svg10.dtd">
<svg version="1.0" id="Слой_1" xmlns="http://www.w3.org/2000/svg" xmlns:xlink="http://www.w3.org/1999/xlink" x="0px" y="0px"
	 width="18.624px" height="22.625px" viewBox="0 0 36.624 36.625" enable-background="new 0 0 36.624 36.625" xml:space="preserve">
<path fill="none" stroke="#ec6608" stroke-width="2" stroke-linejoin="round" stroke-miterlimit="10" d="M18.233,9.125
	c-3.487,0-6.577,3.486-6.311,7.767c0.189,3.022,2.164,5.673,3.353,6.862l-0.006-0.003c0,0-1.923,2.7-4.541,3.569
	c-2.323,0.77-2.984,5.384-2.984,5.384"/>
<path fill="none" stroke="#ec6608" stroke-width="2" stroke-linejoin="round" stroke-miterlimit="10" d="M18.233,9.125
	c3.488,0,6.577,3.486,6.311,7.767c-0.189,3.022-2.163,5.673-3.353,6.862l0.008-0.003c0,0,1.922,2.7,4.54,3.569
	c2.324,0.77,2.986,5.384,2.986,5.384"/>
<circle fill="none" stroke="#ec6608" stroke-width="2" stroke-miterlimit="10" cx="18.312" cy="18.313" r="17.312"/>
</svg>
