<?xml version="1.0" encoding="utf-8"?>
<!-- Generator: Adobe Illustrator 16.0.0, SVG Export Plug-In . SVG Version: 6.00 Build 0)  -->
<!DOCTYPE svg PUBLIC "-//W3C//DTD SVG 1.0//EN" "http://www.w3.org/TR/2001/REC-SVG-20010904/DTD/svg10.dtd">
<svg version="1.0" id="Слой_1" xmlns="http://www.w3.org/2000/svg" xmlns:xlink="http://www.w3.org/1999/xlink" x="0px" y="0px"
	 width="162.808px" height="306.374px" viewBox="0 0 162.808 306.374" enable-background="new 0 0 162.808 306.374"
	 xml:space="preserve">
<path fill="#FFFFFF" d="M158.533,278.77l-26.484,14.921V97.104c0-3.828,1.324-10.012,2.891-13.503l23.593-52.579V278.77z
	 M131.536,82.819l30.404-67.757c0,0,0.977-1.875,0.858-3.705c-0.081-1.25-0.833-2.942-0.833-2.942L158.279,0l-37.514,83.6
	c-1.567,3.492-2.891,9.675-2.891,13.503v208.524l10.445-5.968V97.85C128.319,93.515,129.762,86.773,131.536,82.819z M13.125,211.325
	c0,4.717,3.604,8.833,8.079,9.177l4.997,0.384v-14.738l-13.076-0.774V211.325z M55.183,185.574l16.458,0.548v15.542l-16.458-0.839
	V185.574z M32.715,184.826l15.602,0.519v15.13l-15.602-0.795V184.826z M21.205,184.442l4.997,0.167v14.738l-13.076-0.669v-5.951
	C13.125,188.012,16.729,184.292,21.205,184.442z M32.715,206.533l15.602,0.926v15.128l-15.602-1.201V206.533z M55.183,207.866
	l16.458,0.974v15.543l-16.458-1.267V207.866z M78.889,209.268l15.28,0.906v6.54c0,5.183-4.315,9.07-9.56,8.667l-5.72-0.439V209.268z
	 M46.86,9.994c-1.876,1.194-3.421,4.283-3.421,4.283L1.929,89.607C0.901,91.472,0,94.975,0,97.104v191.365l114.144,17.905V97.104
	c0-4.334,1.443-11.077,3.217-15.03L154.189,0L52.429,8.737C52.429,8.737,48.42,9.001,46.86,9.994z M8.246,132.938
	c2.153-2.38,5.668-2.496,7.853-0.234l16.689,17.316c0.124,0.123,0.245,0.248,0.364,0.376l0.126,0.132l-0.003,0.01
	c1.87,2.098,3.026,4.909,3.026,8.015c0,6.549-5.074,11.775-11.25,11.676c-6.085-0.098-10.953-5.345-10.953-11.719
	c0-3.057,1.122-5.835,2.948-7.917l-8.798-9.289C6.106,139.042,6.104,135.307,8.246,132.938z M101.797,217.218
	c0,9.322-7.793,16.242-17.188,15.441l-63.405-5.398c-7.942-0.674-14.293-8.004-14.293-16.35v-18.455
	c0-8.346,6.351-14.977,14.293-14.777l63.405,1.593c9.395,0.237,17.188,8.015,17.188,17.336V217.218z M100.135,139.542L89.48,150.037
	c2.171,2.244,3.515,5.277,3.515,8.628c0,6.989-5.778,12.563-12.807,12.451c-6.915-0.111-12.443-5.708-12.443-12.5
	c0-3.222,1.246-6.153,3.281-8.364l-0.005-0.01l0.14-0.141c0.13-0.135,0.262-0.269,0.396-0.399l19.047-19.194
	c2.611-2.627,6.88-2.764,9.532-0.277C102.806,132.731,102.804,136.913,100.135,139.542z M105.378,83.432l-93.814,2.984
	l38.048-69.257l91.615-7.862L105.378,83.432z M94.169,196.277v6.539l-15.28-0.78v-15.672l5.72,0.188
	C89.854,186.728,94.169,191.089,94.169,196.277z M93.755,62.324c-1.237,2.832-3.109,5.03-5.614,6.598
	c-2.506,1.567-5.12,2.352-7.84,2.352c-2.722,0-4.65-0.785-5.786-2.352c-1.137-1.568-1.087-3.767,0.149-6.598l2.825-6.467
	c1.236-2.831,3.106-5.03,5.613-6.598c2.505-1.568,5.119-2.352,7.84-2.352c2.721,0,4.649,0.784,5.786,2.352
	c1.135,1.568,1.086,3.767-0.15,6.598L93.755,62.324z M73.883,39.396c-1.236,2.832-3.107,5.03-5.613,6.598
	c-2.506,1.568-5.12,2.352-7.84,2.352c-2.722,0-4.65-0.784-5.786-2.352c-1.137-1.567-1.087-3.766,0.149-6.598l2.824-6.467
	c1.236-2.831,3.107-5.03,5.613-6.598c2.505-1.568,5.119-2.352,7.839-2.352s4.649,0.784,5.787,2.352
	c1.135,1.568,1.085,3.767-0.15,6.598L73.883,39.396z M100.324,24.371L57.829,70.882h-6.714L93.61,24.371H100.324z M87.681,62.063
	l2.596-5.944c1.084-2.482,0.508-3.724-1.73-3.724c-2.238,0-3.899,1.241-4.983,3.724l-2.596,5.944
	c-1.084,2.482-0.508,3.724,1.73,3.724C84.936,65.787,86.597,64.545,87.681,62.063z M67.81,39.134l2.596-5.945
	c1.084-2.482,0.507-3.723-1.731-3.723s-3.899,1.241-4.983,3.723l-2.596,5.945c-1.083,2.482-0.507,3.724,1.731,3.724
	C65.065,42.858,66.726,41.617,67.81,39.134z"/>
</svg>
