<?xml version="1.0" encoding="utf-8"?>
<!-- Generator: Adobe Illustrator 16.0.0, SVG Export Plug-In . SVG Version: 6.00 Build 0)  -->
<!DOCTYPE svg PUBLIC "-//W3C//DTD SVG 1.0//EN" "http://www.w3.org/TR/2001/REC-SVG-20010904/DTD/svg10.dtd">
<svg version="1.0" id="Слой_1" xmlns="http://www.w3.org/2000/svg" xmlns:xlink="http://www.w3.org/1999/xlink" x="0px" y="0px"
	 width="604.729px" height="240.896px" viewBox="0 0 604.729 240.896" enable-background="new 0 0 604.729 240.896"
	 xml:space="preserve">
<rect x="1.5" fill="#FFFFFF" width="603.229" height="81"/>
<g>
	<path fill="#EC6608" d="M45.134,27.353h-5.07v10.531h-8.791V27.353h-5.07V53.12h5.07V42.335h8.791V53.12h5.07V27.353z"/>
	<path fill="#EC6608" d="M66.437,43.059c0-2.726-0.754-4.909-2.262-6.55c-1.508-1.64-3.514-2.461-6.019-2.461
		c-2.554,0-4.573,0.863-6.056,2.588c-1.483,1.725-2.225,4.059-2.225,7.002c0,6.466,2.942,9.699,8.828,9.699
		c1.459,0,2.76-0.229,3.903-0.688c1.045-0.434,2.139-1.194,3.283-2.28l-2.882-2.787c-0.706,0.676-1.35,1.134-1.933,1.375
		c-0.657,0.266-1.386,0.398-2.188,0.398c-2.749,0-4.195-1.399-4.341-4.198h11.892V43.059z M54.545,41.937
		c0.048-1.279,0.389-2.262,1.021-2.95s1.496-1.031,2.59-1.031c1.094,0,1.951,0.344,2.571,1.031s0.967,1.671,1.04,2.95H54.545z"/>
	<path fill="#EC6608" d="M84.054,43.276l6.529,9.844h5.691l-7.149-10.061l6.711-8.794h-5.544l-6.238,8.939v-8.939h-4.778V53.12
		h4.778V43.276z"/>
	<path fill="#EC6608" d="M112.78,39.223c-0.328-1.086-0.882-2.039-1.659-2.859c-1.484-1.544-3.454-2.316-5.91-2.316
		c-2.432,0-4.39,0.772-5.873,2.316c-0.779,0.845-1.332,1.81-1.66,2.895c-0.329,1.086-0.493,2.558-0.493,4.415
		c0,1.882,0.158,3.372,0.475,4.47c0.315,1.098,0.875,2.057,1.678,2.877c1.483,1.544,3.44,2.316,5.873,2.316
		c2.456,0,4.426-0.772,5.91-2.316c0.802-0.82,1.361-1.779,1.678-2.877c0.315-1.098,0.474-2.611,0.474-4.542
		C113.272,41.769,113.108,40.308,112.78,39.223z M108.494,45.194c-0.024,0.411-0.097,0.887-0.219,1.43s-0.292,0.977-0.511,1.303
		c-0.218,0.326-0.547,0.604-0.985,0.833c-0.438,0.229-0.96,0.344-1.568,0.344c-1.144,0-1.976-0.404-2.499-1.212
		c-0.523-0.808-0.784-2.117-0.784-3.927c0-0.651,0.005-1.17,0.018-1.556c0.012-0.386,0.079-0.874,0.201-1.465
		c0.121-0.591,0.292-1.055,0.511-1.394c0.219-0.337,0.541-0.633,0.967-0.887c0.425-0.253,0.954-0.38,1.586-0.38
		c0.753,0,1.368,0.157,1.842,0.471s0.808,0.766,1.003,1.357c0.194,0.591,0.322,1.146,0.383,1.665c0.061,0.519,0.091,1.152,0.091,1.9
		C108.53,44.277,108.518,44.784,108.494,45.194z"/>
	<path fill="#EC6608" d="M122.392,34.265h-4.596v25.767h4.742v-8.577c1.264,1.255,2.772,1.882,4.523,1.882
		c1.994,0,3.562-0.567,4.706-1.701c0.705-0.699,1.204-1.64,1.496-2.823c0.292-1.182,0.438-2.871,0.438-5.066
		c0-2.027-0.109-3.631-0.329-4.813c-0.268-1.327-0.802-2.389-1.605-3.185c-1.144-1.134-2.712-1.701-4.706-1.701
		c-1.021,0-1.867,0.145-2.535,0.435c-0.669,0.29-1.38,0.809-2.134,1.556V34.265z M128.246,47.872c-0.474,0.82-1.308,1.23-2.499,1.23
		c-1.144,0-1.964-0.398-2.462-1.194c-0.499-0.796-0.748-2.111-0.748-3.945c0-0.603,0.005-1.031,0.018-1.285
		c0.012-0.253,0.042-0.663,0.091-1.23c0.048-0.566,0.14-0.989,0.273-1.267c0.134-0.277,0.31-0.591,0.529-0.941
		c0.218-0.35,0.522-0.597,0.912-0.742c0.389-0.145,0.851-0.217,1.386-0.217c1.191,0,2.024,0.398,2.499,1.194
		c0.474,0.796,0.711,2.184,0.711,4.162C128.958,45.641,128.72,47.052,128.246,47.872z"/>
	<path fill="#EC6608" d="M157.592,34.265h-4.669l-4.997,9.916l-5.034-9.916h-4.706V53.12h4.778V42.227l3.611,6.984h2.699
		l3.575-6.984V53.12h4.742V34.265z"/>
	<path fill="#EC6608" d="M179.112,34.265h-4.778l-6.675,11.219V34.265h-4.778V53.12h4.778l6.675-11.508V53.12h4.778V34.265z"/>
	<path fill="#EC6608" d="M197.971,34.265H182.14v4.162h5.581V53.12h4.778V38.427h5.472V34.265z"/>
	<path fill="#EC6608" d="M216.282,43.059c0-2.726-0.754-4.909-2.262-6.55c-1.508-1.64-3.514-2.461-6.019-2.461
		c-2.553,0-4.572,0.863-6.055,2.588c-1.483,1.725-2.225,4.059-2.225,7.002c0,6.466,2.942,9.699,8.828,9.699
		c1.459,0,2.76-0.229,3.903-0.688c1.045-0.434,2.14-1.194,3.283-2.28l-2.882-2.787c-0.706,0.676-1.35,1.134-1.933,1.375
		c-0.657,0.266-1.386,0.398-2.189,0.398c-2.748,0-4.194-1.399-4.34-4.198h11.892V43.059z M204.391,41.937
		c0.048-1.279,0.389-2.262,1.021-2.95c0.632-0.688,1.496-1.031,2.589-1.031c1.094,0,1.952,0.344,2.572,1.031s0.967,1.671,1.04,2.95
		H204.391z"/>
	<path fill="#EC6608" d="M242.691,34.265h-15.832v4.162h5.582V53.12h4.778V38.427h5.472V34.265z"/>
	<path fill="#EC6608" d="M261.002,43.059c0-2.726-0.754-4.909-2.262-6.55c-1.508-1.64-3.514-2.461-6.019-2.461
		c-2.554,0-4.572,0.863-6.055,2.588c-1.483,1.725-2.225,4.059-2.225,7.002c0,6.466,2.942,9.699,8.828,9.699
		c1.459,0,2.76-0.229,3.903-0.688c1.045-0.434,2.14-1.194,3.283-2.28l-2.881-2.787c-0.706,0.676-1.35,1.134-1.933,1.375
		c-0.657,0.266-1.386,0.398-2.189,0.398c-2.749,0-4.195-1.399-4.341-4.198h11.892V43.059z M249.11,41.937
		c0.048-1.279,0.389-2.262,1.021-2.95c0.632-0.688,1.496-1.031,2.59-1.031s1.952,0.344,2.571,1.031
		c0.62,0.688,0.967,1.671,1.04,2.95H249.11z"/>
	<path fill="#EC6608" d="M269.975,34.265h-4.596v25.767h4.742v-8.577c1.264,1.255,2.772,1.882,4.523,1.882
		c1.993,0,3.562-0.567,4.706-1.701c0.705-0.699,1.204-1.64,1.496-2.823c0.292-1.182,0.438-2.871,0.438-5.066
		c0-2.027-0.109-3.631-0.329-4.813c-0.268-1.327-0.802-2.389-1.604-3.185c-1.144-1.134-2.712-1.701-4.706-1.701
		c-1.021,0-1.867,0.145-2.536,0.435s-1.38,0.809-2.134,1.556V34.265z M275.829,47.872c-0.474,0.82-1.308,1.23-2.499,1.23
		c-1.143,0-1.964-0.398-2.462-1.194c-0.499-0.796-0.748-2.111-0.748-3.945c0-0.603,0.006-1.031,0.018-1.285s0.042-0.663,0.091-1.23
		c0.049-0.566,0.14-0.989,0.274-1.267c0.133-0.277,0.31-0.591,0.529-0.941c0.219-0.35,0.522-0.597,0.912-0.742
		c0.388-0.145,0.851-0.217,1.386-0.217c1.191,0,2.024,0.398,2.499,1.194c0.475,0.796,0.711,2.184,0.711,4.162
		C276.541,45.641,276.304,47.052,275.829,47.872z"/>
	<path fill="#EC6608" d="M305.175,34.265h-4.669l-4.998,9.916l-5.034-9.916h-4.706V53.12h4.778V42.227l3.611,6.984h2.7l3.575-6.984
		V53.12h4.742V34.265z"/>
	<path fill="#EC6608" d="M326.696,34.265h-4.779l-6.675,11.219V34.265h-4.778V53.12h4.778l6.675-11.508V53.12h4.779V34.265z"/>
	<path fill="#EC6608" d="M347.596,34.265h-4.778v7.129h-6.092v-7.129h-4.778V53.12h4.778v-7.564h6.092v7.564h4.778V34.265z"/>
	<path fill="#EC6608" d="M367.257,40.707c0-4.439-2.736-6.659-8.208-6.659c-1.727,0-3.125,0.23-4.195,0.688
		c-0.778,0.362-1.629,1.001-2.553,1.918l3.028,2.931c0.559-0.603,1.082-1.013,1.568-1.23s1.155-0.326,2.006-0.326
		c1.289,0,2.212,0.235,2.772,0.706c0.56,0.471,0.839,1.225,0.839,2.262v0.941h-4.486c-2.019,0-3.605,0.495-4.76,1.484
		c-1.155,0.989-1.733,2.329-1.733,4.017c0,1.858,0.565,3.3,1.696,4.325c1.131,1.026,2.705,1.538,4.724,1.538
		c1.07,0,1.97-0.145,2.699-0.434c0.608-0.241,1.265-0.7,1.97-1.375v1.628h4.632V40.707z M362.515,46.171
		c0,1.183-0.268,2.027-0.802,2.534c-0.535,0.506-1.411,0.76-2.626,0.76c-1.995,0-2.991-0.724-2.991-2.171
		c0-0.675,0.23-1.2,0.693-1.574c0.461-0.374,1.118-0.561,1.97-0.561h3.757V46.171z"/>
	<path fill="#EC6608" d="M387.867,34.265h-13.897v7.636c0,1.617-0.079,2.931-0.237,3.944c-0.158,1.014-0.414,1.731-0.766,2.153
		c-0.353,0.422-0.675,0.688-0.966,0.796c-0.292,0.108-0.693,0.163-1.204,0.163h-0.583v4.162h2.261c2.067,0,3.599-0.736,4.597-2.208
		c0.997-1.472,1.495-4.126,1.495-7.962v-4.523h4.56V53.12h4.742V34.265z"/>
	<path fill="#EC6608" d="M406.433,43.276l6.529,9.844h5.69l-7.149-10.061l6.712-8.794h-5.544l-6.238,8.939v-8.939h-4.778V53.12
		h4.778V43.276z"/>
	<path fill="#EC6608" d="M435.159,39.223c-0.328-1.086-0.882-2.039-1.66-2.859c-1.484-1.544-3.453-2.316-5.909-2.316
		c-2.432,0-4.39,0.772-5.873,2.316c-0.778,0.845-1.331,1.81-1.66,2.895c-0.328,1.086-0.492,2.558-0.492,4.415
		c0,1.882,0.158,3.372,0.474,4.47c0.316,1.098,0.875,2.057,1.678,2.877c1.483,1.544,3.441,2.316,5.873,2.316
		c2.456,0,4.425-0.772,5.909-2.316c0.802-0.82,1.362-1.779,1.678-2.877c0.315-1.098,0.474-2.611,0.474-4.542
		C435.651,41.769,435.487,40.308,435.159,39.223z M430.873,45.194c-0.024,0.411-0.097,0.887-0.219,1.43
		c-0.122,0.543-0.292,0.977-0.511,1.303s-0.547,0.604-0.985,0.833c-0.438,0.229-0.961,0.344-1.568,0.344
		c-1.144,0-1.976-0.404-2.499-1.212c-0.523-0.808-0.784-2.117-0.784-3.927c0-0.651,0.005-1.17,0.018-1.556
		c0.012-0.386,0.079-0.874,0.201-1.465c0.121-0.591,0.292-1.055,0.511-1.394c0.219-0.337,0.541-0.633,0.966-0.887
		c0.425-0.253,0.954-0.38,1.587-0.38c0.753,0,1.368,0.157,1.842,0.471c0.474,0.313,0.808,0.766,1.003,1.357
		c0.194,0.591,0.322,1.146,0.383,1.665c0.061,0.519,0.091,1.152,0.091,1.9C430.909,44.277,430.896,44.784,430.873,45.194z"/>
	<path fill="#EC6608" d="M459.543,34.265h-4.669l-4.998,9.916l-5.034-9.916h-4.706V53.12h4.778V42.227l3.611,6.984h2.699
		l3.575-6.984V53.12h4.742V34.265z"/>
	<path fill="#EC6608" d="M481.064,34.265h-4.779l-6.675,11.219V34.265h-4.778V53.12h4.778l6.675-11.508V53.12h4.779V34.265z"/>
	<path fill="#EC6608" d="M496.968,47.619c-0.583,0.579-1.088,0.972-1.514,1.176c-0.426,0.205-0.943,0.308-1.55,0.308
		c-2.505,0-3.757-1.81-3.757-5.429c0-3.595,1.252-5.392,3.757-5.392c1.07,0,2.091,0.495,3.064,1.484l3.21-3.185
		c-0.924-0.869-1.824-1.496-2.699-1.882c-1.021-0.434-2.201-0.651-3.539-0.651c-2.675,0-4.766,0.839-6.274,2.515
		c-1.508,1.677-2.261,3.999-2.261,6.967c0,3.137,0.741,5.555,2.225,7.256c1.483,1.701,3.586,2.552,6.31,2.552
		c1.337,0,2.517-0.229,3.539-0.688c0.875-0.386,1.775-1.013,2.699-1.882L496.968,47.619z"/>
	<path fill="#EC6608" d="M514.112,47.619c-0.583,0.579-1.088,0.972-1.514,1.176c-0.426,0.205-0.942,0.308-1.55,0.308
		c-2.505,0-3.757-1.81-3.757-5.429c0-3.595,1.252-5.392,3.757-5.392c1.07,0,2.091,0.495,3.064,1.484l3.21-3.185
		c-0.924-0.869-1.824-1.496-2.699-1.882c-1.021-0.434-2.201-0.651-3.538-0.651c-2.675,0-4.767,0.839-6.274,2.515
		c-1.508,1.677-2.261,3.999-2.261,6.967c0,3.137,0.742,5.555,2.225,7.256c1.483,1.701,3.587,2.552,6.311,2.552
		c1.337,0,2.517-0.229,3.538-0.688c0.875-0.386,1.775-1.013,2.699-1.882L514.112,47.619z"/>
	<path fill="#EC6608" d="M537.202,34.265h-4.778l-6.676,11.219V34.265h-4.778V53.12h4.778l6.676-11.508V53.12h4.778V34.265z"/>
	<path fill="#EC6608" d="M558.103,43.059c0-2.726-0.754-4.909-2.262-6.55c-1.508-1.64-3.514-2.461-6.019-2.461
		c-2.553,0-4.572,0.863-6.055,2.588c-1.484,1.725-2.225,4.059-2.225,7.002c0,6.466,2.942,9.699,8.827,9.699
		c1.459,0,2.76-0.229,3.903-0.688c1.045-0.434,2.139-1.194,3.283-2.28l-2.882-2.787c-0.705,0.676-1.35,1.134-1.933,1.375
		c-0.657,0.266-1.386,0.398-2.188,0.398c-2.749,0-4.195-1.399-4.341-4.198h11.892V43.059z M546.211,41.937
		c0.048-1.279,0.389-2.262,1.021-2.95c0.632-0.688,1.496-1.031,2.59-1.031s1.952,0.344,2.572,1.031s0.966,1.671,1.04,2.95H546.211z"
		/>
	<path fill="#EC6608" d="M572.875,26.99c-0.097,1.497-0.875,2.244-2.334,2.244s-2.237-0.748-2.334-2.244h-3.575
		c0.073,1.81,0.668,3.125,1.787,3.945c1.118,0.82,2.493,1.23,4.122,1.23c1.629,0,3.009-0.41,4.14-1.23
		c1.131-0.82,1.72-2.135,1.769-3.945H572.875z M578.675,34.265h-4.778l-6.675,11.219V34.265h-4.778V53.12h4.778l6.675-11.508V53.12
		h4.778V34.265z"/>
	<path fill="#FFFFFF" d="M19.226,113.404H1.5v24.919h3.798v-21.524h10.129v21.524h3.798V113.404z"/>
	<path fill="#FFFFFF" d="M38.868,125.217c-0.317-1.062-0.85-1.978-1.601-2.748c-1.36-1.4-3.142-2.1-5.346-2.1
		c-2.18,0-3.951,0.699-5.311,2.1c-0.75,0.793-1.29,1.721-1.618,2.782s-0.492,2.456-0.492,4.183c0,1.75,0.164,3.156,0.492,4.218
		c0.328,1.063,0.868,1.989,1.618,2.782c1.359,1.4,3.13,2.101,5.311,2.101c2.204,0,3.986-0.7,5.346-2.101
		c0.75-0.793,1.284-1.72,1.601-2.782c0.316-1.062,0.475-2.491,0.475-4.287C39.343,127.66,39.185,126.278,38.868,125.217z
		 M34.7,134.159c-0.68,0.793-1.606,1.189-2.778,1.189c-1.149,0-2.04-0.373-2.673-1.12c-0.774-0.863-1.161-2.415-1.161-4.655
		c0-2.333,0.363-3.942,1.09-4.829c0.68-0.793,1.594-1.19,2.743-1.19c1.125,0,2.04,0.385,2.744,1.155
		c0.75,0.84,1.125,2.438,1.125,4.795C35.791,131.744,35.427,133.296,34.7,134.159L34.7,134.159z"/>
	<path fill="#FFFFFF" d="M53.938,123.693v11.516h-6.718c1.125-2.403,1.688-5.297,1.688-8.68v-2.836H53.938z M45.498,125.094
		c0,2.497-0.17,4.475-0.51,5.933c-0.34,1.459-0.85,2.853-1.529,4.183h-1.899v7.664h3.412v-4.55h11.571v4.55h3.446v-7.664h-2.462
		v-14.631H45.498V125.094z"/>
	<path fill="#FFFFFF" d="M67.549,129.119l7.21,9.204h4.396l-7.631-9.414l7.104-8.331h-4.291l-6.788,8.471v-8.471h-3.623v17.745
		h3.623V129.119z"/>
	<path fill="#FFFFFF" d="M95.826,120.578H83.622v7.386c0,1.307-0.071,2.433-0.211,3.378c-0.141,0.944-0.312,1.656-0.51,2.135
		c-0.2,0.479-0.469,0.852-0.809,1.12c-0.34,0.268-0.639,0.432-0.896,0.489c-0.258,0.059-0.575,0.088-0.95,0.088h-0.563v3.149h1.688
		c0.915,0,1.706-0.146,2.374-0.438c0.668-0.291,1.26-0.781,1.776-1.47c0.516-0.688,0.903-1.662,1.161-2.922
		c0.258-1.26,0.387-2.813,0.387-4.655v-5.146h5.17v14.63h3.587V120.578z"/>
	<path fill="#FFFFFF" d="M121.254,122.714c-1.313-1.563-3.166-2.345-5.557-2.345c-1.922,0-3.54,0.56-4.853,1.68
		c-1.501,1.283-2.333,3.174-2.498,5.67h-3.2v-7.141h-3.587v17.745h3.587v-7.56h3.2c0.094,2.707,0.938,4.737,2.532,6.09
		c1.267,1.12,2.872,1.681,4.818,1.681c2.204,0,3.986-0.7,5.346-2.101c0.75-0.793,1.284-1.727,1.601-2.8
		c0.316-1.073,0.475-2.497,0.475-4.27C123.119,126.401,122.497,124.184,121.254,122.714L121.254,122.714z M118.511,134.054
		c-0.681,0.863-1.618,1.295-2.814,1.295s-2.134-0.42-2.813-1.26c-0.68-0.91-1.02-2.474-1.02-4.69s0.352-3.756,1.056-4.619
		c0.68-0.816,1.605-1.226,2.778-1.226c1.219,0,2.146,0.409,2.779,1.226c0.727,0.886,1.09,2.438,1.09,4.654
		C119.566,131.651,119.214,133.19,118.511,134.054L118.511,134.054z"/>
	<path fill="#FFFFFF" d="M141.161,120.578h-3.587v8.156c-1.571,0.279-2.896,0.42-3.974,0.42c-1.736,0-2.603-0.875-2.603-2.625
		v-5.951h-3.587v6.826c0,1.586,0.463,2.806,1.39,3.656c0.926,0.853,2.151,1.278,3.675,1.278c1.523,0,3.223-0.187,5.1-0.56v6.544
		h3.587V120.578z"/>
	<path fill="#FFFFFF" d="M160.012,126.459c0-4.061-2.486-6.09-7.457-6.09c-1.688,0-3.013,0.233-3.974,0.699
		c-0.657,0.28-1.431,0.899-2.321,1.855l2.356,2.205c0.492-0.631,0.973-1.051,1.442-1.26c0.609-0.304,1.407-0.455,2.392-0.455
		c1.407,0,2.427,0.263,3.06,0.787c0.633,0.525,0.949,1.359,0.949,2.502v1.295h-4.783c-1.899,0-3.394,0.455-4.484,1.366
		c-1.09,0.909-1.635,2.17-1.635,3.779c0,1.728,0.533,3.051,1.6,3.973s2.597,1.382,4.59,1.382c1.102,0,1.993-0.122,2.673-0.367
		c0.68-0.245,1.372-0.717,2.075-1.417v1.609h3.517V126.459z M155.545,134.719c-0.61,0.561-1.606,0.84-2.99,0.84
		c-2.345,0-3.517-0.84-3.517-2.52s1.067-2.521,3.201-2.521h4.22v1.4C156.459,133.226,156.155,134.159,155.545,134.719z"/>
	<path fill="#FFFFFF" d="M175.522,113.369c-0.141,1.587-0.997,2.379-2.567,2.379c-1.571,0-2.426-0.792-2.567-2.379h-2.849
		c0.093,1.633,0.633,2.829,1.618,3.587c0.985,0.759,2.251,1.138,3.798,1.138c1.548,0,2.819-0.379,3.816-1.138
		c0.997-0.758,1.53-1.954,1.601-3.587H175.522z M180.341,120.578h-3.587l-7.632,12.041v-12.041h-3.587v17.745h3.587l7.632-12.214
		v12.214h3.587V120.578z"/>
	<path fill="#FFFFFF" d="M198.277,120.578h-14.702v3.115h5.663v14.63h3.587v-14.63h5.452V120.578z"/>
	<path fill="#FFFFFF" d="M215.334,128.909c0-2.613-0.68-4.69-2.04-6.23c-1.36-1.54-3.189-2.31-5.487-2.31
		c-2.345,0-4.191,0.805-5.539,2.415c-1.349,1.609-2.022,3.804-2.022,6.58c0,3.009,0.68,5.291,2.04,6.842
		c1.359,1.552,3.376,2.328,6.049,2.328c1.407,0,2.597-0.211,3.57-0.63c0.973-0.42,1.975-1.132,3.007-2.136l-2.25-2.135
		c-1.29,1.237-2.685,1.855-4.186,1.855c-3.048,0-4.607-1.657-4.678-4.971h11.536V128.909z M203.799,127.998
		c0.047-1.353,0.393-2.467,1.038-3.342c0.645-0.875,1.635-1.313,2.972-1.313c2.438,0,3.775,1.552,4.01,4.654H203.799z"/>
	<path fill="#FFFFFF" d="M238.195,120.578l-4.15,12.531l-4.256-12.531h-3.833l6.26,16.906l-0.985,2.8
		c-0.258,0.746-0.563,1.242-0.915,1.487c-0.351,0.244-0.903,0.367-1.653,0.367h-0.914v3.221h1.442c2.462,0,4.115-1.167,4.959-3.5
		l7.878-21.281H238.195z"/>
	<path fill="#FFFFFF" d="M255.604,133.634c-0.633,0.63-1.178,1.073-1.636,1.33c-0.457,0.257-1.061,0.385-1.811,0.385
		c-2.907,0-4.361-1.972-4.361-5.915c0-3.92,1.454-5.88,4.361-5.88c0.727,0,1.336,0.128,1.829,0.385
		c0.492,0.257,1.031,0.688,1.618,1.296l2.427-2.346c-0.914-0.91-1.793-1.551-2.638-1.925c-0.938-0.396-2.005-0.595-3.201-0.595
		c-2.485,0-4.438,0.799-5.855,2.396c-1.419,1.599-2.128,3.798-2.128,6.599c0,2.893,0.704,5.145,2.11,6.755
		c1.407,1.609,3.364,2.415,5.874,2.415c1.243,0,2.309-0.199,3.201-0.596c0.844-0.373,1.724-1.015,2.638-1.925L255.604,133.634z"/>
	<path fill="#FFFFFF" d="M276.002,120.578h-12.204v7.386c0,1.307-0.07,2.433-0.211,3.378c-0.141,0.944-0.312,1.656-0.51,2.135
		c-0.2,0.479-0.47,0.852-0.81,1.12c-0.34,0.268-0.639,0.432-0.896,0.489c-0.258,0.059-0.575,0.088-0.95,0.088h-0.563v3.149h1.688
		c0.915,0,1.706-0.146,2.374-0.438c0.668-0.291,1.26-0.781,1.776-1.47c0.515-0.688,0.902-1.662,1.161-2.922
		c0.257-1.26,0.387-2.813,0.387-4.655v-5.146h5.17v14.63h3.587V120.578z"/>
	<path fill="#FFFFFF" d="M291.372,120.578l-4.15,12.531l-4.255-12.531h-3.833l6.26,16.906l-0.985,2.8
		c-0.258,0.746-0.563,1.242-0.915,1.487c-0.352,0.244-0.903,0.367-1.653,0.367h-0.915v3.221h1.442c2.462,0,4.115-1.167,4.959-3.5
		l7.878-21.281H291.372z"/>
	<path fill="#FFFFFF" d="M310.012,120.578h-11.571v17.745h3.587v-14.63h7.984V120.578z"/>
	<path fill="#FFFFFF" d="M322.92,120.578l-4.151,12.531l-4.255-12.531h-3.833l6.261,16.906l-0.985,2.8
		c-0.258,0.746-0.563,1.242-0.914,1.487c-0.352,0.244-0.903,0.367-1.653,0.367h-0.914v3.221h1.442c2.462,0,4.115-1.167,4.959-3.5
		l7.878-21.281H322.92z"/>
	<path fill="#FFFFFF" d="M344.83,132.549l-3.763-3.745l3.763-3.71v-4.305l-8.089,8.015l8.089,8.05V132.549z M353.729,132.549
		l-3.799-3.745l3.799-3.71v-4.305l-8.089,8.015l8.089,8.05V132.549z"/>
	<path fill="#FFFFFF" d="M368.781,113.404h-3.06l-9.18,24.919h4.01l1.758-5.005h9.883l1.758,5.005h3.974L368.781,113.404z
		 M363.4,130.099l3.939-11.06l3.834,11.06H363.4z"/>
	<path fill="#FFFFFF" d="M392.521,129.154c1.665-0.771,2.497-2.042,2.497-3.815c0-1.446-0.487-2.602-1.46-3.466
		c-0.973-0.862-2.28-1.295-3.921-1.295h-8.546v17.745h8.828c1.665,0,2.978-0.449,3.939-1.347c0.961-0.898,1.442-2.117,1.442-3.658
		C395.3,131.382,394.374,129.994,392.521,129.154L392.521,129.154z M388.863,127.859h-4.22v-4.48h4.22
		c0.845,0,1.495,0.192,1.953,0.577c0.457,0.386,0.686,0.928,0.686,1.628C391.501,127.101,390.622,127.859,388.863,127.859
		L388.863,127.859z M391.062,134.876c-0.481,0.455-1.144,0.683-1.987,0.683h-4.432v-4.936h4.432c0.844,0,1.506,0.217,1.987,0.648
		c0.48,0.432,0.721,1.032,0.721,1.802C391.783,133.82,391.542,134.422,391.062,134.876z"/>
	<path fill="#FFFFFF" d="M412.498,120.578h-14.701v3.115h5.663v14.63h3.587v-14.63h5.451V120.578z"/>
	<path fill="#FFFFFF" d="M428.905,125.217c-0.317-1.062-0.851-1.978-1.601-2.748c-1.36-1.4-3.142-2.1-5.346-2.1
		c-2.181,0-3.951,0.699-5.311,2.1c-0.75,0.793-1.29,1.721-1.618,2.782c-0.329,1.062-0.493,2.456-0.493,4.183
		c0,1.75,0.164,3.156,0.493,4.218c0.328,1.063,0.867,1.989,1.618,2.782c1.36,1.4,3.13,2.101,5.311,2.101
		c2.204,0,3.986-0.7,5.346-2.101c0.75-0.793,1.284-1.72,1.601-2.782c0.316-1.062,0.475-2.491,0.475-4.287
		C429.38,127.66,429.222,126.278,428.905,125.217z M424.737,134.159c-0.68,0.793-1.606,1.189-2.778,1.189
		c-1.149,0-2.04-0.373-2.673-1.12c-0.773-0.863-1.161-2.415-1.161-4.655c0-2.333,0.363-3.942,1.09-4.829
		c0.68-0.793,1.594-1.19,2.744-1.19c1.125,0,2.04,0.385,2.743,1.155c0.75,0.84,1.125,2.438,1.125,4.795
		C425.828,131.744,425.464,133.296,424.737,134.159L424.737,134.159z"/>
	<path fill="#FFFFFF" d="M448.547,120.578h-14.279v17.745h3.587v-14.63h7.104v14.63h3.587V120.578z"/>
	<path fill="#FFFFFF" d="M468.067,120.578h-12.204v7.386c0,1.307-0.07,2.433-0.211,3.378c-0.141,0.944-0.312,1.656-0.51,2.135
		c-0.2,0.479-0.469,0.852-0.809,1.12c-0.34,0.268-0.639,0.432-0.896,0.489c-0.258,0.059-0.575,0.088-0.95,0.088h-0.563v3.149h1.688
		c0.914,0,1.706-0.146,2.374-0.438c0.668-0.291,1.26-0.781,1.776-1.47c0.516-0.688,0.902-1.662,1.161-2.922
		c0.258-1.26,0.387-2.813,0.387-4.655v-5.146h5.17v14.63h3.587V120.578z"/>
	<path fill="#FFFFFF" d="M486.918,126.459c0-4.061-2.486-6.09-7.457-6.09c-1.688,0-3.013,0.233-3.974,0.699
		c-0.657,0.28-1.431,0.899-2.321,1.855l2.356,2.205c0.492-0.631,0.973-1.051,1.442-1.26c0.609-0.304,1.407-0.455,2.392-0.455
		c1.407,0,2.427,0.263,3.06,0.787c0.633,0.525,0.949,1.359,0.949,2.502v1.295h-4.783c-1.899,0-3.394,0.455-4.484,1.366
		c-1.09,0.909-1.636,2.17-1.636,3.779c0,1.728,0.533,3.051,1.601,3.973c1.066,0.922,2.597,1.382,4.589,1.382
		c1.102,0,1.993-0.122,2.673-0.367c0.68-0.245,1.372-0.717,2.075-1.417v1.609h3.517V126.459z M482.452,134.719
		c-0.61,0.561-1.606,0.84-2.99,0.84c-2.345,0-3.517-0.84-3.517-2.52s1.067-2.521,3.201-2.521h4.22v1.4
		C483.366,133.226,483.061,134.159,482.452,134.719z"/>
	<path fill="#FFFFFF" d="M504.328,120.578h-14.701v3.115h5.663v14.63h3.587v-14.63h5.451V120.578z"/>
	<path fill="#FFFFFF" d="M521.385,128.909c0-2.613-0.68-4.69-2.04-6.23s-3.188-2.31-5.486-2.31c-2.345,0-4.191,0.805-5.54,2.415
		c-1.349,1.609-2.022,3.804-2.022,6.58c0,3.009,0.68,5.291,2.04,6.842c1.36,1.552,3.376,2.328,6.049,2.328
		c1.407,0,2.597-0.211,3.57-0.63c0.973-0.42,1.975-1.132,3.007-2.136l-2.251-2.135c-1.29,1.237-2.685,1.855-4.186,1.855
		c-3.048,0-4.607-1.657-4.678-4.971h11.536V128.909z M509.849,127.998c0.047-1.353,0.393-2.467,1.038-3.342s1.636-1.313,2.972-1.313
		c2.438,0,3.775,1.552,4.009,4.654H509.849z"/>
	<path fill="#FFFFFF" d="M533.8,129.119v9.204h3.623v-9.204l6.858,9.204h4.326l-7.21-9.414l6.682-8.331h-4.185l-6.472,8.471v-8.471
		H533.8v8.471l-6.436-8.471h-4.186l6.683,8.331l-7.245,9.414h4.326L533.8,129.119z"/>
	<path fill="#FFFFFF" d="M560.038,120.789v4.305l3.763,3.71l-3.763,3.745v4.305l8.125-8.05L560.038,120.789z M551.14,120.789v4.305
		l3.798,3.71l-3.798,3.745v4.305l8.125-8.05L551.14,120.789z"/>
</g>
<g>
	<path fill="#FFFFFF" d="M27.906,219.615h-7.891v11.392h1.227v-10.304h5.438v10.304h1.227V219.615z"/>
	<path fill="#FFFFFF" d="M36.215,223.936c-0.603-0.599-1.361-0.897-2.275-0.897c-0.914,0-1.672,0.299-2.275,0.897
		c-0.646,0.65-0.968,1.694-0.968,3.135s0.322,2.486,0.968,3.137c0.603,0.597,1.361,0.896,2.275,0.896
		c0.915,0,1.673-0.299,2.275-0.896c0.646-0.65,0.968-1.712,0.968-3.184C37.183,225.604,36.86,224.574,36.215,223.936L36.215,223.936
		z M35.392,229.503c-0.366,0.384-0.85,0.575-1.453,0.575c-0.591,0-1.07-0.191-1.436-0.575c-0.431-0.438-0.646-1.249-0.646-2.433
		c0-1.193,0.215-2.005,0.646-2.431c0.365-0.386,0.844-0.578,1.436-0.578c0.603,0,1.086,0.192,1.453,0.578
		c0.236,0.234,0.4,0.538,0.492,0.912c0.091,0.372,0.137,0.895,0.137,1.567C36.021,228.282,35.812,229.077,35.392,229.503
		L35.392,229.503z"/>
	<path fill="#FFFFFF" d="M46.574,230.016h-1.178v-6.88H40.41v1.504c0,1.301-0.086,2.325-0.258,3.071
		c-0.171,0.746-0.436,1.515-0.791,2.305h-0.936v3.343h1.113v-2.352h5.906v2.352h1.13V230.016z M40.62,230.016
		c0.591-1.334,0.893-2.801,0.903-4.4v-1.488h2.711v5.889H40.62z"/>
	<path fill="#FFFFFF" d="M54.23,224.016c-0.479-0.65-1.229-0.978-2.25-0.978c-0.506,0-0.931,0.086-1.275,0.257
		c-0.291,0.149-0.592,0.405-0.903,0.767v-0.926h-1.162v11.392h1.162v-4.449c0.322,0.375,0.629,0.629,0.919,0.77
		c0.355,0.169,0.78,0.255,1.275,0.255c1.011,0,1.756-0.328,2.234-0.983c0.479-0.657,0.718-1.666,0.718-3.032
		C54.948,225.69,54.708,224.666,54.23,224.016z M53.318,229.366c-0.312,0.475-0.816,0.712-1.517,0.712
		c-0.699,0-1.208-0.237-1.524-0.712c-0.317-0.475-0.476-1.239-0.476-2.296c0-1.045,0.158-1.808,0.476-2.288
		c0.317-0.479,0.82-0.721,1.509-0.721c0.71,0,1.221,0.236,1.532,0.705c0.312,0.47,0.469,1.242,0.469,2.32
		C53.787,228.133,53.63,228.892,53.318,229.366z"/>
	<path fill="#FFFFFF" d="M62.612,223.936c-0.603-0.599-1.361-0.897-2.275-0.897c-0.915,0-1.673,0.299-2.275,0.897
		c-0.645,0.65-0.969,1.694-0.969,3.135s0.324,2.486,0.969,3.137c0.602,0.597,1.36,0.896,2.275,0.896
		c0.914,0,1.672-0.299,2.275-0.896c0.646-0.65,0.968-1.712,0.968-3.184C63.581,225.604,63.258,224.574,62.612,223.936
		L62.612,223.936z M61.79,229.503c-0.366,0.384-0.85,0.575-1.452,0.575c-0.592,0-1.07-0.191-1.437-0.575
		c-0.43-0.438-0.646-1.249-0.646-2.433c0-1.193,0.216-2.005,0.646-2.431c0.366-0.386,0.845-0.578,1.437-0.578
		c0.602,0,1.086,0.192,1.452,0.578c0.236,0.234,0.4,0.538,0.492,0.912c0.091,0.372,0.137,0.895,0.137,1.567
		C62.418,228.282,62.209,229.077,61.79,229.503L61.79,229.503z"/>
	<path fill="#FFFFFF" d="M67.663,229.503c-0.452-0.471-0.678-1.27-0.678-2.4c0-1.152,0.221-1.962,0.662-2.433
		c0.387-0.404,0.872-0.608,1.453-0.608c0.569,0,1.048,0.204,1.436,0.608c0.408,0.417,0.613,1.237,0.613,2.466
		c0,1.13-0.209,1.919-0.629,2.367c-0.366,0.384-0.839,0.575-1.419,0.575C68.507,230.078,68.028,229.887,67.663,229.503
		L67.663,229.503z M71.326,230.239c0.646-0.641,0.968-1.702,0.968-3.185c0-1.535-0.344-2.623-1.033-3.264
		c-0.506-0.47-1.167-0.704-1.985-0.704c-0.517,0-0.995,0.107-1.436,0.32c-0.441,0.213-0.758,0.496-0.952,0.847
		c0-0.726,0.062-1.313,0.186-1.768c0.123-0.454,0.357-0.829,0.702-1.128c0.279-0.234,0.637-0.401,1.073-0.504
		c0.436-0.102,0.998-0.171,1.686-0.207c0.688-0.037,1.076-0.062,1.162-0.073v-1.039c-0.151,0.01-0.471,0.026-0.96,0.047
		c-0.49,0.021-0.855,0.046-1.098,0.072c-0.242,0.027-0.555,0.075-0.936,0.145c-0.381,0.07-0.712,0.174-0.992,0.313
		c-0.28,0.138-0.532,0.313-0.758,0.528c-0.484,0.447-0.791,0.971-0.92,1.567s-0.194,1.7-0.194,3.313
		c0,1.717,0.097,2.879,0.291,3.487c0.215,0.662,0.581,1.176,1.097,1.545c0.516,0.367,1.14,0.551,1.872,0.551
		C70.023,231.103,70.766,230.815,71.326,230.239L71.326,230.239z"/>
	<path fill="#FFFFFF" d="M80.99,223.136h-1.162v3.311h-3.839v-3.311h-1.146v7.871h1.146v-3.567h3.839v3.567h1.162V223.136z"/>
	<path fill="#FFFFFF" d="M90.059,226.848c0-1.174-0.291-2.103-0.872-2.786c-0.581-0.682-1.377-1.023-2.388-1.023
		c-1.011,0-1.807,0.356-2.388,1.064c-0.58,0.709-0.871,1.684-0.871,2.921c0,1.333,0.296,2.347,0.887,3.038
		c0.592,0.695,1.463,1.041,2.615,1.041c0.57,0,1.081-0.091,1.534-0.271c0.408-0.161,0.854-0.475,1.339-0.944l-0.791-0.688
		c-0.366,0.341-0.7,0.575-1.001,0.704c-0.333,0.128-0.672,0.191-1.017,0.191c-1.075,0-1.796-0.433-2.162-1.296
		c-0.128-0.32-0.209-0.796-0.242-1.425h5.358V226.848z M84.701,226.511c0.021-0.575,0.103-1.013,0.242-1.312
		c0.162-0.374,0.407-0.664,0.734-0.872s0.702-0.312,1.122-0.312c0.474,0,0.881,0.128,1.227,0.383
		c0.343,0.256,0.586,0.613,0.726,1.071c0.074,0.214,0.124,0.562,0.146,1.041H84.701z"/>
	<path fill="#FFFFFF" d="M98.691,226.848c0-1.174-0.29-2.103-0.872-2.786c-0.58-0.682-1.376-1.023-2.388-1.023
		c-1.011,0-1.807,0.356-2.388,1.064c-0.581,0.709-0.871,1.684-0.871,2.921c0,1.333,0.296,2.347,0.887,3.038
		c0.592,0.695,1.463,1.041,2.614,1.041c0.569,0,1.081-0.091,1.532-0.271c0.409-0.161,0.856-0.475,1.34-0.944l-0.79-0.688
		c-0.366,0.341-0.7,0.575-1.001,0.704c-0.333,0.128-0.673,0.191-1.016,0.191c-1.076,0-1.797-0.433-2.163-1.296
		c-0.129-0.32-0.209-0.796-0.241-1.425h5.356V226.848z M93.334,226.511c0.021-0.575,0.101-1.013,0.241-1.312
		c0.162-0.374,0.405-0.664,0.734-0.872c0.328-0.208,0.702-0.312,1.121-0.312c0.474,0,0.883,0.128,1.227,0.383
		c0.344,0.256,0.586,0.613,0.727,1.071c0.075,0.214,0.123,0.562,0.146,1.041H93.334z"/>
	<path fill="none" stroke="#FFFFFF" stroke-miterlimit="10" d="M118.069,237.396c0,1.65-1.35,3-3,3H3.5c-1.65,0-3-1.35-3-3v-22.75
		c0-1.649,1.35-3,3-3h111.569c1.65,0,3,1.351,3,3V237.396z"/>
</g>
</svg>
