<?xml version="1.0" encoding="utf-8"?>
<!-- Generator: Adobe Illustrator 21.0.0, SVG Export Plug-In . SVG Version: 6.00 Build 0)  -->
<svg version="1.1" id="Layer_1" xmlns="http://www.w3.org/2000/svg" xmlns:xlink="http://www.w3.org/1999/xlink" x="0px" y="0px"
	 viewBox="0 0 29.8 29.8" style="enable-background:new 0 0 29.8 29.8;" xml:space="preserve">
<style type="text/css">
	.st0{fill:#FFFFFF;}
</style>
<path class="st0" d="M28.3,29.8H1.5c-0.8,0-1.5-0.7-1.5-1.5V1.5C0,0.7,0.7,0,1.5,0h26.8c0.8,0,1.5,0.7,1.5,1.5v26.8
	C29.8,29.2,29.2,29.8,28.3,29.8z M1.5,1C1.2,1,1,1.2,1,1.5v26.8c0,0.3,0.2,0.5,0.5,0.5h26.8c0.3,0,0.5-0.2,0.5-0.5V1.5
	c0-0.3-0.2-0.5-0.5-0.5H1.5z M12.6,22.1c0.4,0,0.8-0.2,1.1-0.5L24,10.2c0.6-0.6,0.5-1.6-0.1-2.1c-0.6-0.6-1.6-0.5-2.1,0.1l-9.3,10.2
	L8,13.8c-0.6-0.6-1.5-0.6-2.1,0c-0.6,0.6-0.6,1.5,0,2.1l5.7,5.8C11.8,22,12.2,22.1,12.6,22.1C12.6,22.1,12.6,22.1,12.6,22.1z"/>
</svg>
