<?xml version="1.0" encoding="utf-8"?>
<!-- Generator: Adobe Illustrator 21.0.0, SVG Export Plug-In . SVG Version: 6.00 Build 0)  -->
<svg version="1.1" id="Layer_1" xmlns="http://www.w3.org/2000/svg" xmlns:xlink="http://www.w3.org/1999/xlink" x="0px" y="0px"
	 viewBox="0 0 112.7 165" style="enable-background:new 0 0 112.7 165;" xml:space="preserve">
<style type="text/css">
	.st0{fill:#F53A39;}
	.st1{fill:#FFC617;}
</style>
<path class="st0" d="M54.2,40.5H37.5c0.3-5.9,4.7-11.5,12.1-11.8c0.6-1.2,2-2,3.4-2.4V0h6.7v26.3c1.4,0.3,2.8,1.2,3.4,2.4
	c7.4,0.3,11.8,5.8,12.1,11.8H58.6H54.2z M39.1,165h6.7v-28.6h-6.7V165z M71.9,121.2H40.8c-2.8,0-5,2.3-5,5c0,2.8,2.3,5,5,5h31.1
	c2.8,0,5-2.3,5-5C77,123.5,74.7,121.2,71.9,121.2z M53,165h6.7v-28.6H53V165z M66.9,165h6.7v-28.6h-6.7V165z"/>
<path class="st1" d="M63.7,81.3h1.1v1.8c-0.2,0.3-0.4,0.6-0.8,0.8c-0.4,0.2-0.7,0.3-1.2,0.3c-0.4,0-0.8-0.1-1-0.3s-0.4-0.5-0.4-0.9
	l0-0.2C61.6,81.8,62.3,81.3,63.7,81.3z M76.2,78.9c0-0.4-0.1-0.7-0.4-0.8c-0.3-0.2-0.7-0.2-1.2-0.2h-1.6v2h1.8
	C75.7,79.8,76.2,79.5,76.2,78.9z M17.1,78c-0.2,2.5-0.7,4.5-1.6,5.8H21v-9.6h-3.6L17.1,78z M75.3,81.7h-2.4v2.1h2.3
	c1,0,1.5-0.4,1.5-1.1C76.7,82.1,76.2,81.8,75.3,81.7z M31.6,77.6c-0.7,0-1.2,0.3-1.6,0.8s-0.6,1.4-0.6,2.5c0,1,0.2,1.8,0.6,2.3
	c0.4,0.5,0.9,0.8,1.6,0.8c0.7,0,1.2-0.3,1.6-0.8c0.4-0.5,0.6-1.4,0.6-2.5c0-1-0.2-1.8-0.6-2.3C32.8,77.9,32.3,77.6,31.6,77.6z
	 M112.7,80.8L112.7,80.8c0,21.1-20.5,37.4-41.6,37.4H68c4.2-4.2,7.7-10.5,10-18.5L72.3,98c-3.4,11.8-9.9,19.7-16.1,19.7
	S43.6,109.8,40.1,98L40,97.6l-5.7,1.6l0.1,0.5c2.3,8,5.8,14.4,10,18.5h-2.8C20.5,118.2,0,101.9,0,80.8v0c0-21.1,20.5-37.4,41.6-37.4
	h2c-3.8,4.2-7,10.2-9.2,17.7l-0.1,0.5l5.7,1.6l0.1-0.4c3-10.2,8.2-17.6,13.6-19.3h5c5.4,1.8,10.6,9.1,13.6,19.3l5.7-1.6
	c-2.2-7.5-5.4-13.5-9.2-17.7h2.3C92.2,43.3,112.7,59.6,112.7,80.8z M25.6,83.8h-1.7v-12h-9.4l-0.4,6.3c-0.1,1.4-0.3,2.6-0.6,3.5
	c-0.3,0.9-0.8,1.7-1.4,2.1H11l0.2,5.9H14v-3.5h8.7v3.5h2.7L25.6,83.8z M36.6,80.9l0-0.7c-0.1-1.5-0.6-2.7-1.5-3.6s-2.1-1.3-3.5-1.3
	c-1,0-1.9,0.2-2.7,0.7s-1.4,1.1-1.8,1.9c-0.4,0.8-0.6,1.8-0.6,2.8v0.1c0,1.7,0.5,3,1.4,4c0.9,1,2.1,1.5,3.7,1.5s2.8-0.5,3.7-1.5
	C36.2,83.9,36.6,82.6,36.6,80.9z M40.8,81v-0.3c0-1.1,0.2-1.9,0.5-2.4c0.3-0.5,0.8-0.7,1.5-0.7c0.5,0,1,0.2,1.3,0.5
	c0.3,0.3,0.5,0.8,0.5,1.3h2.7c0-1.3-0.4-2.3-1.2-3s-1.9-1.1-3.2-1.1c-1.5,0-2.7,0.5-3.6,1.5c-0.9,1-1.3,2.3-1.3,3.9v0.2
	c0,1.7,0.4,3,1.3,4c0.9,1,2.1,1.5,3.6,1.5c0.8,0,1.6-0.2,2.2-0.5c0.7-0.3,1.2-0.8,1.6-1.4c0.4-0.6,0.6-1.3,0.6-2h-2.7
	c0,0.5-0.2,0.9-0.5,1.2c-0.3,0.3-0.8,0.4-1.3,0.4c-0.7,0-1.2-0.2-1.5-0.7S40.8,82.1,40.8,81z M57.8,75.5h-9.6v2.3h3.4v8.4h2.9v-8.4
	h3.4V75.5z M68.1,86c-0.3-0.5-0.4-1.3-0.4-2.3v-4.6c0-1.2-0.4-2.1-1.2-2.8c-0.8-0.7-1.8-1-3.1-1c-0.9,0-1.6,0.1-2.3,0.4
	s-1.2,0.7-1.6,1.2c-0.4,0.5-0.6,1.1-0.6,1.7h2.8c0-0.4,0.1-0.7,0.4-0.9c0.3-0.2,0.6-0.3,1.1-0.3c0.5,0,0.9,0.1,1.2,0.4
	c0.3,0.3,0.4,0.7,0.4,1.2v0.6h-1.3c-1.6,0-2.8,0.3-3.6,0.9c-0.8,0.6-1.3,1.5-1.3,2.6c0,0.9,0.3,1.7,1,2.3c0.7,0.6,1.6,0.9,2.6,0.9
	c1.1,0,2-0.4,2.7-1.2c0.1,0.4,0.2,0.7,0.3,1h2.9V86z M79.5,83.1c0-0.6-0.2-1.1-0.7-1.6c-0.4-0.4-1-0.7-1.8-0.9
	c0.6-0.2,1.1-0.5,1.4-0.9S79,79,79,78.5c0-1-0.4-1.7-1.2-2.2s-1.9-0.8-3.3-0.8H70v10.7h5.1c1.4,0,2.5-0.3,3.2-0.8
	C79.2,84.9,79.5,84.1,79.5,83.1z M91.6,86.2l-3.8-5.6l3.5-5.1h-3.6l-2.3,4h-1v-4h-2.8v10.7h2.8v-3.9h1.1l2.3,3.9H91.6z M101.7,86
	c-0.3-0.5-0.4-1.3-0.4-2.3v-4.6c0-1.2-0.4-2.1-1.2-2.8c-0.8-0.7-1.8-1-3.1-1c-0.9,0-1.6,0.1-2.3,0.4S93.4,76.5,93,77
	c-0.4,0.5-0.6,1.1-0.6,1.7h2.8c0-0.4,0.1-0.7,0.4-0.9s0.6-0.3,1.1-0.3c0.5,0,0.9,0.1,1.2,0.4s0.4,0.7,0.4,1.2v0.6h-1.3
	c-1.6,0-2.8,0.3-3.6,0.9c-0.8,0.6-1.3,1.5-1.3,2.6c0,0.9,0.3,1.7,1,2.3c0.7,0.6,1.6,0.9,2.6,0.9c1.1,0,2-0.4,2.7-1.2
	c0.1,0.4,0.2,0.7,0.3,1h2.9V86z M95.1,82.8l0,0.2c0,0.4,0.1,0.6,0.4,0.9c0.2,0.2,0.6,0.3,1,0.3c0.4,0,0.8-0.1,1.2-0.3
	s0.6-0.4,0.8-0.8v-1.8h-1.1C95.9,81.3,95.2,81.8,95.1,82.8z"/>
</svg>
