<?xml version="1.0" encoding="utf-8"?>
<!-- Generator: Adobe Illustrator 21.0.0, SVG Export Plug-In . SVG Version: 6.00 Build 0)  -->
<svg version="1.1" id="Layer_1" xmlns="http://www.w3.org/2000/svg" xmlns:xlink="http://www.w3.org/1999/xlink" x="0px" y="0px"
	 viewBox="0 0 106.7 44" style="enable-background:new 0 0 106.7 44;" xml:space="preserve" width="120" height="60">
<style type="text/css">
	.st0{fill:#FFFFFF;}
</style>
<path class="st0" d="M83.9,34.5l-0.7,1.8h0.7c1.5,0,2.9-0.1,4.2-0.4l0.6-0.1l-0.5-1.6c-0.2-0.4-0.3-0.9-0.4-1.4
	c-0.1-0.5-0.3-1-0.4-1.5c-0.1-0.3-0.1-0.7-0.2-1.1c-0.1-0.4-0.2-1-0.3-1.6l0-0.1l-0.3,0.5C85.4,30.9,84.5,32.7,83.9,34.5 M81.3,44
	l-0.7-0.2c-0.1-1,0.2-3,0.8-5.8l0.1-0.6h0c-1.4,0-2.7-0.2-4-0.6l0-0.7c0.6,0.1,1.3,0.1,2,0.2c0.7,0.1,1.4,0.1,2.2,0.1l0.3-1.1
	c1.3-4.6,2.6-8,4.1-10l2.4,0.5c-0.1,0.2-0.2,0.3-0.3,0.5c-0.1,0.2-0.3,0.4-0.4,0.6l-0.3,0.5l0,0.1c0.5,2,0.9,3.4,1.1,4.2
	c0.2,0.7,0.5,1.4,0.7,2c0.2,0.6,0.5,1.2,0.8,1.7l0,0.1h0.1c1.3-0.3,2.8-0.7,4.4-1.2l-0.1,2.2c-0.8,0.3-1.8,0.5-3.1,0.7l-0.4,0v0
	c0.5,1.1,1.8,3.1,3.7,5.9l-2.5,0.6c-1.1-1.5-2-3.3-2.8-5.3l-0.4-0.9l-0.3,0c-0.4,0-0.8,0.1-1.2,0.1c-0.4,0-0.8,0-1.3,0
	c-0.7,0-1.2,0-1.7,0c-0.4,0-0.8,0-1,0l-1.1-0.1l-0.3,0.8c-0.3,0.8-0.5,1.7-0.7,2.7C81.6,41.9,81.4,42.9,81.3,44 M61.7,44L61,44
	c0.4-2.2,0.6-4.2,0.6-6c0-1,0-1.7-0.1-2.1l-0.1-0.6l-0.4,0c-0.8-0.1-1.4-0.2-1.9-0.3c-0.5-0.1-0.9-0.2-1.1-0.3l0-0.7
	c0.7,0.1,1.4,0.2,2.2,0.2l1.1,0l-0.1-0.6c-0.2-2.1-0.9-4.9-1.9-8.5l2.6,0.3c0.6,2.1,1,4.7,1,7.7v1.2h1.6c1.4,0,2.8-0.1,4.4-0.4
	l1.6-0.3v-0.4c0-2.9,0.3-5.5,1-7.7l2.6-0.3c-0.5,1.5-0.8,2.9-1.1,4.1c-0.3,1.2-0.5,2.3-0.6,3.2l-0.1,0.7h0c0.4-0.1,0.9-0.3,1.4-0.4
	c0.6-0.2,1.2-0.4,2-0.6l-0.1,2.3c-0.8,0.3-1.8,0.5-3.2,0.7l-0.3,0l-0.1,0.7c0,0.5-0.1,1.2-0.1,2.2c0,1.8,0.2,3.8,0.6,5.9l-0.8,0
	c-0.7-1.8-1.1-4.5-1.1-8.1v-0.5l-0.7,0.1c-0.4,0-0.9,0.1-1.4,0.1c-0.5,0-1.1,0-1.7,0c-0.5,0-1,0-1.5,0c-0.6,0-1.2-0.1-1.9-0.1
	l-0.4,0v0.5C62.8,39.5,62.5,42.2,61.7,44 M55.8,41.7l0.3,2.3c-2.7-0.8-5.3-1.2-7.7-1.2c-0.4,0-0.7,0-1.1,0c-0.4,0-0.8,0.1-1.2,0.1
	l-1.4,0.1l-0.3,0.8l-0.7-0.1l0.1-0.6l-0.9,0.1l0-0.5l1.1-0.3l0.1-0.7c0.5-2.2,0.7-4.2,0.7-6l0-1.3l-0.7-0.2v-0.5l0.7,0.1v-0.1
	c0-1.9-0.2-4-0.6-6.2l-0.1-0.4l-0.4-0.1c-0.1,0-0.3-0.1-0.5-0.1c-0.2-0.1-0.4-0.1-0.7-0.2l0-0.5l1.4,0.2l0-0.1
	c0-0.1-0.1-0.3-0.1-0.5c0-0.2-0.1-0.5-0.2-0.7l3.2,0.6c0,0.1,0,0.2,0,0.3c0,0.1,0,0.2,0,0.3l0,0.4l0.5,0c2.6,0.1,5.4-0.2,8.4-1.1
	L55.6,28c-1.3,0.2-2.6,0.3-3.7,0.3c-0.5,0-1.1,0-1.7-0.1c-0.6,0-1.4-0.1-2.1-0.2l-0.9-0.1v0.8c0,2.1-0.1,3.9-0.4,5.6l0,0.1h0.1
	c0.3,0,0.6,0.1,0.8,0.1c0.3,0,0.5,0,0.8,0c1.6,0,3.6-0.4,6.1-1.1l-0.3,2.2c-0.7,0.1-1.3,0.1-1.7,0.2c-0.5,0-0.9,0.1-1.1,0.1
	c-1.4,0-2.8-0.2-4.4-0.6l-0.4-0.1l0,0.1c-0.3,2-0.8,4.2-1.5,6.4l-0.2,0.8l0.2,0c2.3-0.6,4.5-0.9,6.7-0.9c0.7,0,1.3,0,2,0.1
	C54.5,41.5,55.1,41.6,55.8,41.7 M34.6,43.8l-3,0.2c1.6-4.3,2.4-8.4,2.4-12.4c0-0.5,0-1,0-1.4c0-0.4,0-0.8-0.1-1.1l-0.1-1.2h-1
	c-2.2,0-4.6-0.3-7.2-0.9l0-0.5c1.9,0.2,3.6,0.4,5.3,0.4c3.6,0,6.8-0.5,9.8-1.5l-0.1,1.9c-0.7,0.2-1.6,0.3-2.6,0.4
	c-1,0.1-2,0.2-3.2,0.3l-0.4,0l0.1,0.7c0.5,2.4,0.8,5,0.8,7.7C35.5,38.7,35.2,41.2,34.6,43.8 M12.5,44l0.2-1.7l0.6-0.1l-0.1-0.3
	c-0.9-2.9-1.3-6.2-1.3-9.8c0-1.6,0.1-3.4,0.4-5.6l0.1-0.5l0-0.5c2.1,0.4,3.9,0.6,5.5,0.6c2.1,0,4.1-0.3,5.9-0.9l-0.3,1.7
	c-0.9,0.1-1.6,0.2-2.3,0.3c-0.7,0.1-1.3,0.1-1.8,0.1c-1.3,0-2.8-0.2-4.2-0.5l-0.2,0l-0.2,0.7c-0.8,3.5-1.3,6.4-1.3,8.8
	c0,1.6,0.1,3.3,0.4,5.1l0.1,0.7l0.3,0c0.5-0.1,1-0.1,1.6-0.2c0.5,0,1.1-0.1,1.6-0.1c2.1,0,4.1,0.3,6.1,0.9v0.5
	c-1.9-0.1-3.3-0.2-4.3-0.2C16.9,42.9,14.6,43.3,12.5,44 M102.5,7.1l0.8,0.1l0-1c0.1-2.1,0.3-3.7,0.6-4.8L104,1l-0.6,0.2
	c-1.2,0.3-2.1,0.6-2.6,0.8c-0.9,0.5-1.9,1.2-2.8,2.3l-0.4,0.4C98.9,6.1,100.6,6.9,102.5,7.1 M97.4,18.8l-3-0.1
	c3.8-3.1,6.6-6.5,8.5-10.3L102,8.4c-1.5-0.2-3-1-4.6-2.6L97,5.4l-0.8-1l0.4-0.5l0.3-0.5c0.9-1.3,2.3-2.2,4.1-2.7
	c1.1-0.3,2.3-0.4,3.8-0.4h0.1l1.9-0.2c-0.4,1.3-0.7,2.5-0.9,3.5c-0.3,1-0.5,1.9-0.6,2.6L105,7.2l-0.2,1.1c-0.2,1.3-0.3,2.7-0.3,4.2
	c0,0.9,0,1.9,0.1,2.8c0.1,1,0.2,2,0.4,3.1l-0.8,0c-0.3-0.7-0.5-1.8-0.7-3.2c-0.1-0.8-0.2-1.6-0.3-2.4c-0.1-0.8-0.1-1.7-0.1-2.6
	l0-1.3l-0.1,0.2C101.7,13.1,99.7,16.3,97.4,18.8 M81.4,9.3l-0.7,1.8h0.7c1.5,0,2.9-0.1,4.2-0.4l0.6-0.1L85.8,9
	c-0.2-0.4-0.3-0.9-0.4-1.4c-0.1-0.5-0.3-1-0.4-1.5c-0.1-0.3-0.1-0.7-0.2-1.1c-0.1-0.4-0.2-1-0.3-1.6l0-0.1l-0.3,0.5
	C83,5.8,82.1,7.6,81.4,9.3 M78.8,18.8l-0.7-0.2c-0.1-1,0.2-3,0.8-5.8l0.1-0.6h0c-1.4,0-2.7-0.2-4-0.6l0-0.7c0.6,0.1,1.3,0.1,2,0.2
	c0.7,0.1,1.4,0.1,2.2,0.1l0.3-1.1c1.3-4.6,2.6-8,4.1-10l2.4,0.5c-0.1,0.2-0.2,0.3-0.3,0.5c-0.1,0.2-0.3,0.4-0.4,0.6l-0.3,0.5l0,0.1
	c0.5,2,0.9,3.4,1.1,4.2c0.2,0.7,0.5,1.4,0.7,2c0.2,0.6,0.5,1.2,0.8,1.7l0,0.1h0.1c1.3-0.3,2.8-0.7,4.4-1.2l-0.1,2.2
	c-0.8,0.3-1.8,0.5-3.1,0.7l-0.4,0v0c0.5,1.1,1.8,3.1,3.7,5.9L90,18.5c-1.1-1.5-2-3.3-2.8-5.3l-0.4-0.9l-0.3,0
	c-0.4,0-0.8,0.1-1.2,0.1c-0.4,0-0.8,0-1.3,0c-0.7,0-1.2,0-1.7,0c-0.4,0-0.8,0-1,0l-1.1-0.1l-0.3,0.8c-0.3,0.8-0.5,1.7-0.7,2.7
	C79.2,16.7,79,17.7,78.8,18.8 M60.6,18.8l-0.7-0.1c1-3.8,1.5-7.4,1.5-10.9c0-2.4-0.3-5-0.8-7.9l3.2,0.7c0.1,2.2,0,4.6-0.3,6.9
	l-0.1,1.1l0.2-0.2c2.2-3.1,4.8-5.6,7.9-7.6l1.8,1.6c-2.9,1.4-5.4,3.1-7.5,5L65.2,8l0.4,1c1.3,3,3.5,5.9,6.5,8.5l-1.9,0.9
	c-2.5-2.9-4.3-6.1-5.2-9.5l-0.1-0.5l-0.1,0.1c-0.4,0.4-0.7,0.7-1,1.1l-0.5,0.6l-0.3,1.3c-0.2,1.1-0.5,2.2-0.9,3.4
	C61.6,16.1,61.2,17.4,60.6,18.8 M56.1,18.8l-0.7,0c-0.4-1.7-0.7-3.3-0.9-5c-0.2-1.6-0.3-3.3-0.3-4.9c0-0.8,0-1.5,0.1-2.2
	c0-0.2,0-0.5,0.1-0.9c0-0.4,0.1-0.8,0.1-1.2l0-0.1l-0.1,0.2c-1.1,2.8-2.5,5.7-4.2,8.6c-0.7,1.1-1.3,2.1-1.9,2.9
	c-0.6,0.8-1.1,1.5-1.6,2l-3.1-0.8C43.5,11.8,44.7,6,47.2,0l0.7,0.1c-1.1,3.8-1.7,7.5-1.7,11.1c0,0.6,0,1.2,0,1.7
	c0,0.6,0.1,1.1,0.1,1.6l0,0.4l0.8-0.8c1.4-1.5,2.7-3.2,4-5.3c0.5-0.8,0.9-1.6,1.4-2.6c0.5-1,1-2,1.6-3.2l1-2.1l3.2-0.2
	c-1.6,4.4-2.4,8.9-2.4,13.4c0,0.7,0,1.4,0.1,2.1C56,17.2,56,18,56.1,18.8 M27.9,18.8l-0.7-0.2C27.8,12.1,29.7,5.9,33,0l2.4,0.6
	c-0.1,0.2-0.3,0.3-0.4,0.5c-0.1,0.2-0.2,0.3-0.4,0.5l-0.5,0.7l0.2,0.8c1.5,5.7,3.9,10.6,7.2,14.7l-2.4,0.6c-1.2-2.1-2.2-3.8-2.8-5.2
	c-1.3-2.8-2.2-5.8-2.8-9l-0.2-0.9l-0.2,0.4C30.8,7.8,29,12.8,27.9,18.8 M25.1,16.5l0.3,2.3c-2.7-0.8-5.3-1.2-7.7-1.2
	c-0.4,0-0.7,0-1.1,0c-0.4,0-0.8,0.1-1.2,0.1l-1.4,0.1l-0.3,0.8l-0.7-0.1l0.1-0.6l-0.9,0.1l0-0.5l1.1-0.3l0.1-0.7
	c0.5-2.2,0.7-4.2,0.7-6l0-1.3l-0.7-0.2V8.8l0.7,0.1V8.7c0-1.9-0.2-4-0.6-6.2l-0.1-0.4L13.1,2c-0.1,0-0.3-0.1-0.5-0.1
	c-0.2-0.1-0.4-0.1-0.7-0.2l0-0.5l1.4,0.2l0-0.1c0-0.1-0.1-0.3-0.1-0.5c0-0.2-0.1-0.5-0.2-0.7l3.2,0.6c0,0.1,0,0.2,0,0.3
	c0,0.1,0,0.2,0,0.3l0,0.4l0.5,0c2.6,0.1,5.4-0.2,8.4-1.1l-0.3,2.3c-1.3,0.2-2.5,0.3-3.7,0.3c-0.5,0-1.1,0-1.7-0.1
	c-0.6,0-1.4-0.1-2.1-0.2l-0.9-0.1v0.8c0,2.1-0.1,3.9-0.4,5.6l0,0.1h0.1c0.3,0,0.6,0.1,0.8,0.1c0.3,0,0.5,0,0.8,0
	c1.6,0,3.6-0.4,6.1-1.1l-0.3,2.2c-0.7,0.1-1.3,0.1-1.7,0.2c-0.5,0-0.9,0.1-1.1,0.1c-1.4,0-2.8-0.2-4.4-0.6l-0.4-0.1l0,0.1
	c-0.3,2-0.8,4.2-1.5,6.4l-0.2,0.8l0.2,0c2.3-0.6,4.5-0.9,6.7-0.9c0.7,0,1.3,0,2,0.1C23.8,16.4,24.4,16.4,25.1,16.5 M3.4,8.7L4,8.6
	C5.6,8.4,6.8,7.9,7.9,7l0.7-0.6L8.3,6C7.2,3.8,5.7,2.3,3.7,1.5L3.2,1.3l0.1,0.6C3.4,2.6,3.4,3.3,3.5,4c0,0.7,0.1,1.4,0.1,2
	c0,0.3,0,0.7,0,1.1C3.5,7.6,3.4,8.2,3.4,8.7 M2.2,16.7L2,17.4l0.6,0c2.2-0.2,4-1,5.4-2.5l0.1-0.1l-0.2-0.4C7,12.4,5.5,11,3.5,10.1
	l-0.2-0.1h0l-0.1,0.9c-0.1,0.9-0.2,1.9-0.4,2.9C2.7,14.8,2.5,15.7,2.2,16.7 M1.6,18.8l-0.7,0c0.2-1.4,0.4-2.7,0.5-3.8
	c0.1-1.2,0.2-2.2,0.2-3.2c0-0.8,0-1.6-0.1-2.2L1.4,7.2C1.3,6.2,1.2,5,0.9,3.8C0.7,2.6,0.4,1.3,0,0c0.6,0.1,1.6,0.3,3,0.6l0.1,0h0
	l0.8,0.3C6.7,1.8,8.6,3.2,9.7,5l0.4,0.6L9.7,6C9.7,6.1,9.6,6.2,9.5,6.3C9.4,6.4,9.3,6.5,9.2,6.6L8.9,7L8.7,7.2
	C7.3,8.6,5.9,9.5,4.6,9.8l-0.1,0L4.9,10c2.1,1,3.5,2.1,4.3,3.4l0.1,0.1l0.2,0.4L9.4,14c-0.2,0.3-0.4,0.5-0.5,0.7l-0.5,0.6v0
	c-1,1.2-2.2,2.1-3.6,2.7c-0.5,0.3-1.1,0.4-1.6,0.6C2.6,18.7,2.1,18.8,1.6,18.8"/>
</svg>
