<?xml version="1.0" encoding="UTF-8" standalone="no"?>
<svg
   xmlns="http://www.w3.org/2000/svg"
   viewBox="0 0 183.23021 128.2128"
   height="128.2128"
   width="183.23021"
   version="1.1"
   id="svg3336">
  <defs
     id="defs3340" />
  <path
     id="path3346"
     d="m 135.42417,126.26172 c -1.41667,-1.11434 -2.84863,-2.88583 -3.18214,-3.93664 -0.33351,-1.05081 -1.59761,-2.05157 -2.80911,-2.22391 -4.51545,-0.64236 -1.51659,-2.3112 6.11179,-3.40115 4.33428,-0.61928 10.38976,-2.27474 13.45662,-3.6788 3.06686,-1.40406 5.83549,-2.29346 6.15249,-1.97645 1.26262,1.26261 0.44915,2.97998 -1.92362,4.06109 -1.91231,0.8713 -2.50748,1.90811 -2.5318,4.41051 -0.0175,1.79929 -0.58,3.98544 -1.25,4.8581 -3.24434,4.22563 -9.91095,5.12276 -14.02423,1.88725 z M 2.7302022,115.78781 c 0,-8.39216 0.28439,-10.5 1.41666,-10.5 0.77917,0 1.62292,0.5625 1.875,1.25 0.36667,1 0.72334,1 1.78334,0 1.98783,-1.87531 7.6482998,-1.56685 8.7933198,0.47919 0.91718,1.63891 1.06745,1.63891 2.87843,0 2.20073,-1.99164 7.29314,-2.2893 9.05325,-0.52919 0.76129,0.76129 1.2,4.6 1.2,10.5 0,7.6 -0.2742,9.3 -1.5,9.3 -1.21397,0 -1.5,-1.59751 -1.5,-8.37756 0,-9.81655 -1.10048,-11.63999 -5.69816,-9.44151 -2.69295,1.2877 -2.81313,1.65999 -3.09229,9.57942 -0.22641,6.42333 -0.61218,8.23965 -1.75,8.23965 -1.16446,0 -1.45955,-1.71145 -1.45955,-8.46482 0,-7.53289 -0.22757,-8.5866 -2.06706,-9.57107 -1.60794,-0.86054 -2.60745,-0.75218 -4.4999998,0.48787 -2.2407,1.46816 -2.43294,2.22444 -2.43294,9.57107 0,6.42396 -0.29203,7.97695 -1.5,7.97695 -1.2381,0 -1.5,-1.83333 -1.5,-10.5 z m 35.2990298,8.9969 c -3.27338,-2.29277 -4.78849,-7.91987 -3.3896,-12.58895 1.41452,-4.72126 4.36254,-6.90795 9.31307,-6.90795 4.8894,0 7.7775,2.78506 7.7775,7.5 l 0,3.5 -7.56739,0 c -7.37486,0 -7.55074,0.0573 -6.91311,2.25 1.48664,5.11235 6.75289,6.88924 12.7305,4.29539 1.22638,-0.53216 1.75,-0.31056 1.75,0.74063 0,0.825 -0.71181,1.77315 -1.58179,2.10699 -2.95111,1.13245 -9.96326,0.61396 -12.11918,-0.89611 z m 10.70097,-12.42547 c 0,-3.83931 -5.31438,-6.50018 -8.6003,-4.30612 -1.60592,1.07231 -3.43335,4.86771 -2.69785,5.60321 0.34731,0.34731 3.03148,0.63148 5.96481,0.63148 4.60083,0 5.33334,-0.26488 5.33334,-1.92857 z m 8,3.42857 c 0,-8.39216 0.28439,-10.5 1.41666,-10.5 0.77917,0 1.62292,0.5625 1.875,1.25 0.36667,1 0.72334,1 1.78334,0 2.22028,-2.0946 7.61204,-1.53489 9.36829,0.97251 2.19885,3.13929 2.24607,18.77749 0.0567,18.77749 -1.20721,0 -1.5,-1.54762 -1.5,-7.92857 0,-8.83297 -1.45304,-11.67724 -5.35538,-10.48298 -4.14831,1.26953 -4.64462,2.39517 -4.64462,10.53399 0,6.33561 -0.29361,7.87756 -1.5,7.87756 -1.2381,0 -1.5,-1.83333 -1.5,-10.5 z m 23.2,9.3 c -0.72903,-0.72903 -1.2,-4.27364 -1.2,-9.03138 0,-6.03875 -0.34336,-7.96315 -1.5,-8.40699 -0.825,-0.31659 -1.5,-0.97746 -1.5,-1.46862 0,-0.49115 0.675,-0.89301 1.5,-0.89301 1,0 1.5,-1 1.5,-3 0,-2 0.5,-2.999999 1.5,-2.999999 1,0 1.5,0.999999 1.5,2.999999 0,2.7619 0.27778,3 3.5,3 1.925,0 3.500002,0.45 3.500002,1 0,0.55 -1.575002,1 -3.500002,1 l -3.5,0 0,7.37756 c 0,7.95937 1.25843,10.31113 4.99467,9.33408 1.3051,-0.34129 2.005332,-0.0333 2.005332,0.88198 0,1.77532 -7.065362,1.94102 -8.800002,0.20638 z m 12.760032,-1.34255 c -1.91103,-2.03419 -2.3886,-3.6252 -2.3886,-7.95745 0,-6.97045 2.86435,-10.5 8.5211,-10.5 5.133076,0 6.739526,0.77455 8.444456,4.07152 2.78692,5.38933 1.02117,14.73285 -3.08179,16.3073 -3.89551,1.49484 -9.103606,0.62433 -11.495166,-1.92137 z m 11.039966,-1.45745 c 1.40741,-1.40741 2,-3.33333 2,-6.5 0,-7.38026 -5.04088,-10.71674 -10.055876,-6.65583 -3.26596,2.64461 -3.26596,10.66705 0,13.31166 2.9482,2.38731 5.563316,2.33673 8.055876,-0.15583 z m 10,-6.5 c 0,-8.66667 0.2619,-10.5 1.5,-10.5 0.825,0 1.5,0.70052 1.5,1.5567 0,1.40894 0.21096,1.40894 2.22251,0 2.7039,-1.89389 4.77749,-2.00825 4.77749,-0.2635 0,0.71127 -1.4625,1.72377 -3.25,2.25 l -3.25,0.9568 -0.29044,8.25 c -0.22646,6.43241 -0.61201,8.25 -1.75,8.25 -1.18674,0 -1.45956,-1.96264 -1.45956,-10.5 z m 13.57026,-3.38631 c -0.86049,-1.3923 0.33379,-1.78164 7.84904,-2.55882 3.25561,-0.33667 8.65561,-1.74008 12,-3.11867 7.80278,-3.21639 7.89658,-3.23153 8.31459,-1.34219 0.6035,2.72769 -10.85838,7.17457 -19.85025,7.70132 -5.02382,0.2943 -7.85361,0.0623 -8.31338,-0.68164 z m 0,-7 c -0.85958,-1.39084 0.336,-1.78204 7.80422,-2.55355 3.23097,-0.33378 8.40597,-1.61056 11.5,-2.8373 l 5.62552,-2.230419 0.6004,-5.57958 c 0.88124,-8.18931 4.69247,-15.491585 12.7641,-24.455824 4.21412,-4.680146 8.69158,-11.001178 10.87232,-15.348953 3.2733,-6.526017 3.69981,-8.224594 3.64093,-14.5 -0.12955,-13.807865 -7.58618,-25.549516 -19.87775,-31.3006912 -5.09884,-2.385727 -7.27664,-2.807376 -14.5,-2.807376 -7.10469,0 -9.42714,0.434673 -14.14796,2.647962 -7.42444,3.480835 -13.34938,9.5533282 -17.0619,17.4868062 -2.48374,5.30762 -3.01005,7.703217 -2.9992,13.65125 0.007,3.96769 0.16973,7.862256 0.36111,8.654592 0.19137,0.792335 -0.37903,1.601176 -1.26757,1.797425 -3.29824,0.728475 -3.92261,-12.224328 -1.03628,-21.498137 10.30346,-33.1050732 56.20383,-35.9596752 70.99139,-4.415044 2.32484,4.959317 2.66041,6.936486 2.66041,15.675146 0,9.640009 -0.1348,10.251994 -3.7445,17 -2.05948,3.85 -6.96274,10.576754 -10.89613,14.948342 -8.22713,9.143672 -11.59095,15.690142 -12.49204,24.311352 l -0.63631,6.087889 -6.11551,2.75079 c -6.7747,3.04729 -20.73224,4.63982 -22.04525,2.51532 z M 5.3144722,77.537811 C 2.7490522,67.225307 0.41277216,58.000307 0.12275216,57.037807 c -0.45627,-1.514166 0.19298,-1.75 4.81769004,-1.75 l 5.3450198,0 2.37987,11.75 c 1.30893,6.462497 2.69032,12.629134 3.06976,13.703614 0.46633,1.32054 1.78037,-2.48707 4.05501,-11.750001 l 3.36511,-13.703613 5.21178,0 5.21177,0 3.24499,13.742203 c 1.78474,7.558206 3.46988,13.070711 3.74476,12.250001 0.27488,-0.82071 1.69114,-6.892207 3.14725,-13.492204 l 2.64747,-12 5.26839,-0.305204 c 4.68525,-0.271422 5.20809,-0.105392 4.72355,1.5 -0.29967,0.992862 -2.64383,10.242704 -5.20925,20.555208 l -4.66441,18.75 -5.7661,0 -5.76611,0 -2.17423,-8.25 c -1.19583,-4.5375 -2.73059,-10.275 -3.41059,-12.750005 l -1.23635,-4.499999 -1.24696,4.999999 c -0.68582,2.750005 -2.17466,8.487505 -3.30852,12.750005 l -2.06155,7.75 -5.76611,0 -5.7661098,0 -4.66441,-18.75 z m 54.4157298,-1.750005 0,-20.499999 14,0 14,0 0,4 0,4 -9,0 -9,0 0,3.5 0,3.5 8,0 8,0 0,3.999997 0,4.000007 -8,0 -8,0 0,5.5 0,5.5 9,0 9,0 0,3.5 0,3.5 -14,0 -14,0 0,-20.500005 z m 32.000002,0 0,-20.499999 11.032116,0 c 13.47424,0 17.23768,1.257451 18.90764,6.317471 0.92921,2.815525 0.87041,4.201089 -0.29681,6.994649 -0.80056,1.915995 -2.21381,3.907967 -3.14057,4.426607 -1.44087,0.80635 -1.23157,1.13081 1.44452,2.239282 3.92114,1.62418 5.0531,3.709805 5.0531,9.310235 0,3.31001 -0.61808,5.08664 -2.46169,7.07592 -3.6542,3.94295 -6.50948,4.63584 -19.10341,4.63584 l -11.434896,0 0,-20.500005 z M 112.7302,87.287811 c 4.3369,-4.3369 1.56273,-8.35119 -5.83434,-8.44244 l -4.66566,-0.0576 -0.31663,3.85516 c -0.17415,2.12034 -0.0758,4.48284 0.21861,5.25 0.84733,2.20811 8.20488,1.78798 10.59802,-0.60516 z m -2.04568,-17.444962 c 2.1292,-2.565531 0.84885,-5.901733 -2.64814,-6.900216 -4.81795,-1.375656 -6.30618,-0.357623 -6.30618,4.313789 0,4.015399 0.0154,4.031385 3.87756,4.031385 2.16111,0 4.40839,-0.639625 5.07676,-1.444958 z m 23.73277,22.640242 c -4.96457,-5.18189 -2.56018,-8.00317 5.75756,-6.75585 2.95845,0.44365 4.57995,0.23586 5.34403,-0.68481 1.36377,-1.64324 0.65282,-2.71541 -3.78868,-5.71368 -9.26578,-6.254947 -11.25876,-10.899681 -7,-16.313815 1.1,-1.398423 2,-3.894107 2,-5.545965 0,-2.086511 0.8854,-3.748389 2.90029,-5.443813 l 2.9003,-2.440436 -3.90676,-1.723659 c -4.70024,-2.07374 -8.48455,-6.774 -9.39103,-11.664028 -1.34444,-7.252549 3.16907,-16.914666 9.77923,-20.934549 9.27338,-5.6394742 22.68509,-1.664405 25.75352,7.633031 2.90809,8.811594 -3.00106,19.908283 -10.22865,19.208192 -2.1513,-0.208384 -3.62867,-1.05738 -4.34069,-2.494452 -0.77921,-1.572684 -1.48081,-1.924574 -2.5228,-1.265313 -2.92628,1.851444 -7.81295,1.07261 -9.50874,-1.515497 -2.25675,-3.444233 -1.06012,-7.784299 3.17038,-11.498728 2.82528,-2.480634 4.34543,-3.041912 8.23862,-3.041912 2.62574,0 5.55598,0.571746 6.51165,1.270546 1.63108,1.192675 1.5815,1.623452 -0.80887,7.028514 -2.90476,6.568178 -3.14236,8.535036 -1.12459,9.309328 5.87909,2.256018 10.94786,-11.125182 7.06121,-18.641121 -3.23624,-6.258198 -13.85934,-8.369975 -20.73335,-4.121602 -4.31831,2.668864 -8.74972,10.874975 -8.74972,16.202796 0,7.30838 7.25692,13.946673 15.25,13.949985 4.88928,0.002 4.80374,1.640722 -0.15534,2.976064 -2.14793,0.578379 -4.84412,1.833224 -5.99153,2.788544 -2.53258,2.108607 -3.36924,6.930607 -1.10313,6.35777 5.41507,-1.368841 11.15212,-1.25117 13.48374,0.276562 2.70185,1.770324 3.2555,4.463378 1.31626,6.402614 -1.86928,1.869278 -8.93028,1.41794 -12.57417,-0.803738 -4.21118,-2.567557 -4.83809,-2.517668 -6.84463,0.544702 -2.37365,3.622646 -0.74611,6.500853 6.32018,11.176855 4.90374,3.244985 5.79862,4.295895 5.79862,6.809675 0,2.96075 -0.0257,2.97371 -6.5,3.27531 -3.575,0.16655 -6.87217,0.67372 -7.32704,1.12705 -0.45488,0.45333 0.55762,1.81021 2.25,3.01529 1.69237,1.20508 3.07704,2.61041 3.07704,3.12295 0,1.6701 -1.57299,0.98705 -4.31291,-1.87281 z m 17.73112,-26.802273 c 0.86999,-0.333844 1.58179,-1.410699 1.58179,-2.393011 0,-2.211674 -1.94747,-3.004468 -7.33179,-2.984687 -6.85203,0.02517 -7.87449,1.537947 -2.64329,3.910847 4.8441,2.197304 5.9748,2.394912 8.39329,1.466851 z m -4.03309,-30.481307 c 3.19689,-2.51467 5.96548,-7.555673 5.21862,-9.501961 -0.97196,-2.532885 -6.49836,-1.668968 -9.68066,1.513334 -6.17182,6.171819 -2.22087,13.245407 4.46204,7.988627 z"
    />
</svg>
