<?xml version="1.0" encoding="utf-8"?>
<!-- Generator: Adobe Illustrator 21.0.0, SVG Export Plug-In . SVG Version: 6.00 Build 0)  -->
<svg version="1.1" id="Layer_1" xmlns="http://www.w3.org/2000/svg" xmlns:xlink="http://www.w3.org/1999/xlink" x="0px" y="0px"
	 viewBox="0 0 70.6 70.7" style="enable-background:new 0 0 70.6 70.7;" xml:space="preserve">
<style type="text/css">
	.st0{fill:#302E33;}
</style>
<path class="st0" d="M25.2,70.7C11.3,70.7,0,59.4,0,45.5s11.3-25.2,25.2-25.2c6.5,0,12.6,2.4,17.3,6.9l-2.1,2.2
	c-4.1-3.9-9.6-6.1-15.3-6.1C13,23.2,3,33.2,3,45.5s10,22.2,22.2,22.2s22.2-10,22.2-22.2c0-2.9-0.5-5.7-1.6-8.4l2.8-1.1
	c1.2,3,1.8,6.2,1.8,9.5C50.4,59.4,39.1,70.7,25.2,70.7z M70.6,50.3c0-11.2-9.2-20.4-20.4-20.4C39,29.9,29.9,39,29.9,50.3
	c0,4.4,1.4,8.6,4,12.2l2.4-1.8c-2.3-3-3.4-6.6-3.4-10.4c0-9.6,7.8-17.4,17.4-17.4c9.6,0,17.4,7.8,17.4,17.4
	c0,9.6-7.8,17.4-17.4,17.4c-2.3,0-4.5-0.4-6.7-1.3l-1.2,2.8c2.5,1,5.1,1.5,7.8,1.5C61.5,70.7,70.6,61.5,70.6,50.3z M51.4,26.2
	c1.4-1,14-10.5,14-17.9C65.4,3.4,61.9,0,57,0c-2.6,0-5,1.2-6.5,3.2c-1.5-2-3.9-3.2-6.5-3.2c-4.9,0-8.4,3.4-8.4,8.4
	c0,7.4,12.6,16.8,14,17.9c0.3,0.2,0.6,0.3,0.9,0.3S51.1,26.4,51.4,26.2z M49,6.8c0.2,0.6,0.8,1.1,1.4,1.1s1.2-0.4,1.4-1.1
	C52.6,4.5,54.7,3,57,3c3.3,0,5.4,2.1,5.4,5.4c0,4.6-7.9,11.7-11.9,14.8c-4-3.1-11.9-10.2-11.9-14.8c0-3.3,2.1-5.4,5.4-5.4
	C46.3,3,48.3,4.5,49,6.8z"/>
</svg>
