<?xml version="1.0" encoding="utf-8"?>
<!-- Generator: Adobe Illustrator 21.0.0, SVG Export Plug-In . SVG Version: 6.00 Build 0)  -->
<svg version="1.1" id="Layer_1" xmlns="http://www.w3.org/2000/svg" xmlns:xlink="http://www.w3.org/1999/xlink" x="0px" y="0px"
	 viewBox="0 0 100 63" style="enable-background:new 0 0 100 63;" xml:space="preserve">
<style type="text/css">
	.st0{fill:#302E33;}
</style>
<path class="st0" d="M3,0H0v63h3V44.4h14V63h3V34.5H3V0z M17,37.5v4.9H3v-4.9H17z M97,0v34.5H80V63h3V44.4h14V63h3V0H97z M83,42.4
	v-4.9h14v4.9H83z M57.3,19.6v-6.4H42.7v6.4H23.4l-1,20.2c-0.1,1.3,0.8,2.5,2,2.8l5.4,1.5c0.2,0.1,0.5,0.1,0.7,0.1V63h3V43.7l3.4-1.1
	c0.2-0.1,0.8-0.1,1,0l4.4,1.4c0.8,0.3,2,0.3,2.8,0l4.4-1.4c0.2-0.1,0.8-0.1,1,0l4.4,1.4c0.8,0.3,2,0.3,2.8,0l4.4-1.4
	c0.2-0.1,0.8-0.1,1,0l3.4,1.1V63h3V44.2c0.3,0,0.5-0.1,0.7-0.1l5.4-1.5c1.2-0.3,2.1-1.5,2-2.8l-1-20.2H57.3z M44.7,15.2h10.6v4.4
	H44.7V15.2z M69.4,41.2c-0.3,0.1-0.8,0.1-1.1,0L64,39.8c-0.4-0.1-0.9-0.2-1.4-0.2s-1,0.1-1.4,0.2l-4.4,1.4c-0.2,0.1-0.8,0.1-1,0
	l-4.4-1.4c-0.8-0.3-2-0.3-2.8,0l-4.4,1.4c-0.2,0.1-0.8,0.1-1,0l-4.4-1.4c-0.8-0.3-2-0.3-2.8,0l-4.4,1.4c-0.2,0.1-0.8,0.1-1.1,0
	l-5.2-1.4l0.8-17.1h47.5l0.8,17.1L69.4,41.2z"/>
</svg>
