<?xml version="1.0" encoding="utf-8"?>
<!-- Generator: Adobe Illustrator 21.0.0, SVG Export Plug-In . SVG Version: 6.00 Build 0)  -->
<svg version="1.1" id="Layer_1" xmlns="http://www.w3.org/2000/svg" xmlns:xlink="http://www.w3.org/1999/xlink" x="0px" y="0px"
	 viewBox="0 0 91.8 74" style="enable-background:new 0 0 91.8 74;" xml:space="preserve">
<style type="text/css">
	.st0{fill:#302E33;}
</style>
<path class="st0" d="M49,16.4c-14.2,0-25.8,11.6-25.8,25.8S34.8,67.9,49,67.9c14.2,0,25.8-11.6,25.8-25.8S63.2,16.4,49,16.4z
	 M49,64.9c-12.6,0-22.8-10.2-22.8-22.8S36.4,19.4,49,19.4s22.8,10.2,22.8,22.8S61.5,64.9,49,64.9z M49,29.7
	c-6.9,0-12.5,5.6-12.5,12.5S42.1,54.6,49,54.6S61.4,49,61.4,42.1S55.8,29.7,49,29.7z M49,52.6c-5.8,0-10.5-4.7-10.5-10.5
	S43.2,31.7,49,31.7c5.8,0,10.5,4.7,10.5,10.5S54.7,52.6,49,52.6z M17.4,23.2c0,4-3.2,7.2-7.2,7.2S3,27.2,3,23.2V7.2H0v16.1
	c0,5.2,3.9,9.4,8.8,10.1c0,0.1-0.1,0.2-0.1,0.3c-0.2,1.2-4.8,28.5-4.8,33.1c0,3.4,2.8,7.3,6.3,7.3s6.3-3.9,6.3-7.3
	c0-4.6-4.6-31.9-4.8-33.1c0-0.1-0.1-0.2-0.1-0.3c5-0.7,8.8-4.9,8.8-10.1V7.2h-3V23.2z M13.5,66.7c0,1.9-1.6,4.3-3.3,4.3
	s-3.3-2.4-3.3-4.3c0-2.6,1.7-14,3.3-23.7C11.8,52.8,13.5,64.2,13.5,66.7z M11.2,26.4h-2V7.2h2V26.4z M91.7,37.4V1.9
	c0-0.4-0.1-0.8-0.4-1.2C91.1,0.3,90.6,0,90,0c-3,0-9.9,10.4-9.9,17.9v19.5c0,2.6,1.7,4.8,4.1,5.6c-0.8,4.6-3.6,19.8-3.6,23.8
	c0,3.6,1.8,7.3,5.3,7.3c3.7,0,5.3-3.8,5.3-7.3c0-4-2.8-19.3-3.6-23.8C90,42.2,91.7,40,91.7,37.4z M85.9,71c-1.7,0-2.3-2.6-2.3-4.3
	c0-2.5,1.2-10.2,2.3-16.3c1.1,6.1,2.3,13.8,2.3,16.3C88.2,68.4,87.6,71,85.9,71z M88.7,37.4c0,1.6-1.3,2.8-2.8,2.8s-2.8-1.3-2.8-2.8
	V17.9c0-5.1,3.4-10.7,5.6-13.3V37.4z"/>
</svg>
