<?xml version="1.0" encoding="utf-8"?>
<!-- Generator: Adobe Illustrator 21.0.0, SVG Export Plug-In . SVG Version: 6.00 Build 0)  -->
<svg version="1.1" id="Layer_1" xmlns="http://www.w3.org/2000/svg" xmlns:xlink="http://www.w3.org/1999/xlink" x="0px" y="0px"
	 viewBox="0 0 76.4 74" style="enable-background:new 0 0 76.4 74;" xml:space="preserve">
<style type="text/css">
	.st0{fill:#302E33;}
</style>
<path class="st0" d="M71,61.4V32.9c0-4.1-3.4-7.5-7.5-7.5h-7.8v-7.2c2.7-0.7,4.7-3.1,4.7-6C60.4,9.9,57.5,0,54.2,0
	C50.7,0,48,10.2,48,12.2c0,2.9,2,5.3,4.7,6v7.2h-13v-7.2c2.7-0.7,4.7-3.1,4.7-6C44.4,9.9,41.5,0,38.2,0C34.7,0,32,10.2,32,12.2
	c0,2.9,2,5.3,4.7,6v7.2h-13v-7.2c2.7-0.7,4.7-3.1,4.7-6C28.4,9.9,25.5,0,22.2,0C18.7,0,16,10.2,16,12.2c0,2.9,2,5.3,4.7,6v7.2h-7.8
	c-4.1,0-7.5,3.4-7.5,7.5v28.6C2.4,61.9,0,64.5,0,67.7C0,71.1,2.8,74,6.3,74h63.8c3.5,0,6.3-2.8,6.3-6.3C76.4,64.5,74,61.9,71,61.4z
	 M51,12.2c0-2,2-7.3,3.2-8.9c1.2,1.6,3.2,6.9,3.2,8.9c0,1.8-1.4,3.2-3.2,3.2S51,13.9,51,12.2z M35,12.2c0-2,2-7.3,3.2-8.9
	c1.2,1.6,3.2,6.9,3.2,8.9c0,1.8-1.4,3.2-3.2,3.2C36.4,15.4,35,13.9,35,12.2z M19,12.2c0-2,2-7.3,3.2-8.9c1.2,1.6,3.2,6.9,3.2,8.9
	c0,1.8-1.4,3.2-3.2,3.2C20.4,15.4,19,13.9,19,12.2z M68,51.4H8.4v-13l4.2,1.9c1.9,0.8,4.8,0.8,6.7,0l3.6-1.6c1.1-0.5,3.2-0.5,4.3,0
	l3.7,1.6c1.9,0.8,4.8,0.8,6.7,0l3.7-1.6c1.1-0.5,3.2-0.5,4.3,0l3.7,1.6c1.9,0.8,4.8,0.8,6.7-0.1l3-1.4c1.1-0.5,3.1-0.5,4.1,0L68,41
	V51.4z M8.4,54.4H68v6.9H8.4V54.4z M12.9,28.4h50.6c2.5,0,4.5,2,4.5,4.5v4.9L64.4,36c-1.9-0.9-4.8-0.9-6.7,0l-3,1.4
	c-1.1,0.5-3.1,0.6-4.2,0.1l-3.7-1.6c-1.9-0.8-4.8-0.8-6.7,0l-3.7,1.6c-1.1,0.5-3.2,0.5-4.3,0l-3.7-1.6c-1.9-0.8-4.8-0.8-6.7,0
	l-3.6,1.6C17,38,15,38,13.8,37.5l-5.4-2.4v-2.2C8.4,30.4,10.4,28.4,12.9,28.4z M70.1,71H6.3C4.5,71,3,69.5,3,67.7s1.5-3.3,3.3-3.3
	h63.8c1.8,0,3.3,1.5,3.3,3.3S71.9,71,70.1,71z"/>
</svg>
